M48
; DRILL file {KiCad 7.0.2-0} date 2024 April 23, Tuesday 15:27:51
; FORMAT={-:-/ absolute / metric / decimal}
; #@! TF.CreationDate,2024-04-23T15:27:51-05:00
; #@! TF.GenerationSoftware,Kicad,Pcbnew,7.0.2-0
; #@! TF.FileFunction,Plated,1,2,PTH
FMAT,2
METRIC
; #@! TA.AperFunction,Plated,PTH,ViaDrill
T1C0.400
; #@! TA.AperFunction,Plated,PTH,ComponentDrill
T2C1.016
; #@! TA.AperFunction,Plated,PTH,ViaDrill
T3C1.200
%
G90
G05
T1
X122.739Y-33.261
X122.739Y-61.752
X122.739Y-90.243
X152.041Y-33.261
X152.041Y-61.752
X152.041Y-90.243
X181.343Y-33.261
X181.343Y-61.752
X181.343Y-90.243
T2
X117.884Y-42.041
X117.884Y-44.581
X117.884Y-70.532
X117.884Y-73.072
X117.884Y-99.023
X117.884Y-101.563
X120.424Y-42.041
X120.424Y-44.581
X120.424Y-70.532
X120.424Y-73.072
X120.424Y-99.023
X120.424Y-101.563
X147.186Y-42.041
X147.186Y-44.581
X147.186Y-70.532
X147.186Y-73.072
X147.186Y-99.023
X147.186Y-101.563
X149.726Y-42.041
X149.726Y-44.581
X149.726Y-70.532
X149.726Y-73.072
X149.726Y-99.023
X149.726Y-101.563
X176.488Y-42.041
X176.488Y-44.581
X176.488Y-70.532
X176.488Y-73.072
X176.488Y-99.023
X176.488Y-101.563
X179.028Y-42.041
X179.028Y-44.581
X179.028Y-70.532
X179.028Y-73.072
X179.028Y-99.023
X179.028Y-101.563
T3
X109.015Y-23.061
X109.015Y-51.552
X109.015Y-80.043
X129.519Y-23.121
X129.519Y-51.612
X129.519Y-80.103
X138.317Y-23.061
X138.317Y-51.552
X138.317Y-80.043
X158.821Y-23.121
X158.821Y-51.612
X158.821Y-80.103
X167.619Y-23.061
X167.619Y-51.552
X167.619Y-80.043
X188.123Y-23.121
X188.123Y-51.612
X188.123Y-80.103
T0
M30
