%TF.GenerationSoftware,KiCad,Pcbnew,7.0.2-0*%
%TF.CreationDate,2024-04-23T15:27:56-05:00*%
%TF.ProjectId,saopowerbrdvcut,73616f70-6f77-4657-9262-726476637574,rev?*%
%TF.SameCoordinates,Original*%
%TF.FileFunction,Profile,NP*%
%FSLAX46Y46*%
G04 Gerber Fmt 4.6, Leading zero omitted, Abs format (unit mm)*
G04 Created by KiCad (PCBNEW 7.0.2-0) date 2024-04-23 15:27:56*
%MOMM*%
%LPD*%
G01*
G04 APERTURE LIST*
%TA.AperFunction,Profile*%
%ADD10C,0.100000*%
%TD*%
G04 APERTURE END LIST*
D10*
X137432440Y-74653291D02*
X137454628Y-74662401D01*
X164759958Y-44496101D02*
X164772931Y-44516811D01*
X136884290Y-45887926D02*
X136904766Y-45900002D01*
X140098018Y-74986925D02*
X140146731Y-74992933D01*
X190216892Y-49707039D02*
X190199806Y-49690459D01*
X160434686Y-20812344D02*
X160287696Y-20710890D01*
X161888377Y-22692777D02*
X161821755Y-22528953D01*
X161631835Y-44344659D02*
X161643867Y-44323177D01*
X129469519Y-77068558D02*
X129445609Y-77063807D01*
X156804909Y-48471840D02*
X156757019Y-48461086D01*
X132878969Y-81970618D02*
X132868215Y-81922728D01*
X133253301Y-40942319D02*
X133293430Y-40914057D01*
X162151000Y-70855186D02*
X162151000Y-70236581D01*
X163665103Y-40887798D02*
X163706570Y-40914057D01*
X133108049Y-53908141D02*
X133075990Y-53870976D01*
X111125557Y-46587065D02*
X111169398Y-46609133D01*
X164140176Y-53383313D02*
X164131785Y-53431673D01*
X189897466Y-77916369D02*
X189755876Y-77808383D01*
X166927000Y-103218679D02*
X166949685Y-103226742D01*
X137822035Y-48680219D02*
X137647688Y-48737508D01*
X191447809Y-71060571D02*
X191452828Y-70868229D01*
X106266011Y-50318619D02*
X106168932Y-50465492D01*
X158976716Y-48624108D02*
X158953160Y-48618223D01*
X167325285Y-20133053D02*
X167147182Y-20182173D01*
X160914894Y-102257313D02*
X161038829Y-102131199D01*
X161188278Y-50000555D02*
X161172735Y-49982283D01*
X167739372Y-74932509D02*
X167763566Y-74936098D01*
X130985697Y-45780248D02*
X131132686Y-45678806D01*
X163706570Y-25576997D02*
X163665103Y-25603256D01*
X128608336Y-48491205D02*
X128596053Y-48491055D01*
X133653909Y-82708422D02*
X133606020Y-82697668D01*
X135700750Y-101826842D02*
X135811722Y-101963820D01*
X158562630Y-46441454D02*
X158747609Y-46409369D01*
X133512110Y-97786093D02*
X133558715Y-97770697D01*
X161811757Y-22506028D02*
X161737194Y-22346104D01*
X131612895Y-73766258D02*
X131736830Y-73640144D01*
X170297184Y-47393036D02*
X170300794Y-47441986D01*
X134444700Y-40942319D02*
X134483394Y-40972516D01*
X108345687Y-46244632D02*
X108520036Y-46301916D01*
X106783109Y-21215984D02*
X106659173Y-21342109D01*
X136404534Y-49425315D02*
X136386019Y-49440143D01*
X108950396Y-20081697D02*
X108926485Y-20086448D01*
X126741061Y-47200769D02*
X126756457Y-47154164D01*
X190340828Y-73640144D02*
X190357161Y-73622710D01*
X134854191Y-23921807D02*
X134849171Y-24114149D01*
X158325907Y-20020387D02*
X158134857Y-20006272D01*
X132848830Y-70868229D02*
X132849000Y-70855186D01*
X189219104Y-102980879D02*
X189240178Y-102969768D01*
X166206766Y-77573233D02*
X166186289Y-77585311D01*
X105684400Y-100394340D02*
X105734493Y-100565333D01*
X188677000Y-46236568D02*
X188847373Y-46171346D01*
X160595467Y-102539012D02*
X160613984Y-102524183D01*
X106525267Y-78473338D02*
X106509724Y-78491610D01*
X165848123Y-20826273D02*
X165706533Y-20934260D01*
X105800717Y-22716367D02*
X105742253Y-22883879D01*
X133653909Y-69255797D02*
X133702269Y-69247405D01*
X134869925Y-52203642D02*
X134855553Y-52386797D01*
X133253301Y-82530845D02*
X133214607Y-82500648D01*
X185630440Y-75241158D02*
X185667605Y-75209099D01*
X191447809Y-23921808D02*
X191446447Y-23895741D01*
X110844732Y-46501878D02*
X110893092Y-46510269D01*
X131132686Y-102660916D02*
X131151878Y-102646988D01*
X138046842Y-77109278D02*
X138023286Y-77115163D01*
X167124034Y-77171274D02*
X166949687Y-77228563D01*
X157898053Y-103473164D02*
X157910334Y-103473014D01*
X108345687Y-74735687D02*
X108520036Y-74792971D01*
X162061670Y-71704254D02*
X162066991Y-71679040D01*
X160595467Y-77916369D02*
X160453877Y-77808383D01*
X132759671Y-100195309D02*
X132764992Y-100170095D01*
X136085108Y-21215984D02*
X135961172Y-21342109D01*
X170133469Y-48046625D02*
X170105207Y-48086754D01*
X111471012Y-76616503D02*
X111438952Y-76653669D01*
X134320398Y-97845716D02*
X134363104Y-97869908D01*
X190357160Y-49850599D02*
X190340828Y-49833164D01*
X110698002Y-46491055D02*
X110747070Y-46492259D01*
X129852820Y-103291015D02*
X129875968Y-103284026D01*
X111639545Y-76319000D02*
X111621881Y-76364794D01*
X135356134Y-72814232D02*
X135368166Y-72835714D01*
X111678786Y-47295963D02*
X111687178Y-47344323D01*
X128832857Y-74975838D02*
X129023911Y-74961724D01*
X165002748Y-78628600D02*
X164988022Y-78647704D01*
X108345689Y-48737508D02*
X108323000Y-48745574D01*
X110747070Y-48489850D02*
X110698002Y-48491055D01*
X191113756Y-50997083D02*
X191039193Y-50837159D01*
X187436856Y-48497327D02*
X187412303Y-48496119D01*
X126698001Y-47491054D02*
X126699206Y-47441986D01*
X161631835Y-101326769D02*
X161643867Y-101305287D01*
X168403950Y-76982110D02*
X168391667Y-76982260D01*
X111654941Y-47200769D02*
X111668032Y-47248074D01*
X138865146Y-103466893D02*
X138889697Y-103468100D01*
X161038829Y-78324219D02*
X160914893Y-78198094D01*
X191368990Y-71679040D02*
X191401680Y-71501629D01*
X132828077Y-42778732D02*
X132842449Y-42595584D01*
X166734439Y-74653291D02*
X166756627Y-74662401D01*
X132849001Y-70236581D02*
X132850205Y-70187513D01*
X190601251Y-21646490D02*
X190490277Y-21509500D01*
X162151000Y-53236583D02*
X162151000Y-52618248D01*
X163706570Y-54068052D02*
X163665103Y-54094311D01*
X188677002Y-77236629D02*
X188654312Y-77228563D01*
X167554393Y-46409369D02*
X167739372Y-46441454D01*
X170159728Y-48005158D02*
X170133469Y-48046625D01*
X163346091Y-97746852D02*
X163393980Y-97757606D01*
X156404300Y-75178902D02*
X156444429Y-75150640D01*
X135457960Y-50486200D02*
X135368165Y-50637654D01*
X167348841Y-20127168D02*
X167325285Y-20133053D01*
X186155268Y-76971286D02*
X186106908Y-76962895D01*
X133750982Y-25740712D02*
X133702269Y-25734704D01*
X164171924Y-42778732D02*
X164174635Y-42804620D01*
X166734438Y-77310970D02*
X166568273Y-77383909D01*
X134790545Y-41408636D02*
X134805941Y-41455242D01*
X185470529Y-46935484D02*
X185498791Y-46895355D01*
X170105207Y-46895355D02*
X170133469Y-46935484D01*
X161955748Y-72098475D02*
X161963510Y-72074277D01*
X158562631Y-20049608D02*
X158538434Y-20046018D01*
X164054989Y-53664138D02*
X164032921Y-53707979D01*
X162479440Y-97986686D02*
X162516606Y-97954626D01*
X156058456Y-76319000D02*
X156043060Y-76272395D01*
X132849001Y-98727636D02*
X132850205Y-98678568D01*
X131132686Y-45678806D02*
X131151878Y-45664878D01*
X137244626Y-46079180D02*
X137266275Y-46089305D01*
X134772880Y-41362843D02*
X134790545Y-41408636D01*
X132859824Y-70089851D02*
X132868215Y-70041491D01*
X132801715Y-99967091D02*
X132825366Y-99786730D01*
X163706570Y-40914057D02*
X163746699Y-40942319D01*
X127142430Y-76813579D02*
X127102301Y-76785317D01*
X169544980Y-75012078D02*
X169592284Y-75025169D01*
X140970031Y-76225090D02*
X140956940Y-76272395D01*
X132907456Y-98390746D02*
X132925121Y-98344953D01*
X164870009Y-78809674D02*
X164772930Y-78956547D01*
X162150829Y-42377174D02*
X162150999Y-42364131D01*
X156485897Y-46633326D02*
X156528603Y-46609133D01*
X140290285Y-75025169D02*
X140336891Y-75040565D01*
X161418119Y-21807646D02*
X161313978Y-21665594D01*
X138649680Y-103450372D02*
X138674092Y-103452779D01*
X105553554Y-71086638D02*
X105567926Y-71269787D01*
X105547172Y-99359285D02*
X105552192Y-99551627D01*
X106398751Y-101826842D02*
X106509723Y-101963820D01*
X132519756Y-79511063D02*
X132509758Y-79488139D01*
X159352315Y-74735687D02*
X159375001Y-74727623D01*
X127270445Y-48395044D02*
X127226604Y-48372976D01*
X169544980Y-46521023D02*
X169592284Y-46534114D01*
X105886246Y-72476308D02*
X105960808Y-72636219D01*
X107582291Y-74378981D02*
X107602767Y-74391057D01*
X190216892Y-78198094D02*
X190199806Y-78181514D01*
X189897466Y-20934259D02*
X189755876Y-20826273D01*
X126866531Y-76537680D02*
X126840272Y-76496213D01*
X166927000Y-46236569D02*
X166949685Y-46244632D01*
X191452998Y-24127193D02*
X191452828Y-24114150D01*
X132801715Y-23506335D02*
X132797682Y-23480743D01*
X131997252Y-44844732D02*
X132011980Y-44825629D01*
X160914894Y-45275203D02*
X161038829Y-45149089D01*
X140956940Y-47781340D02*
X140941544Y-47827945D01*
X166186289Y-20603201D02*
X166034146Y-20697880D01*
X157898052Y-76982110D02*
X156999999Y-76982110D01*
X135827266Y-49982283D02*
X135811723Y-50000555D01*
X162768315Y-25669407D02*
X162723444Y-25649516D01*
X187840433Y-48537073D02*
X187652324Y-48513850D01*
X130453375Y-77394035D02*
X130431728Y-77383909D01*
X132519757Y-100944435D02*
X132586378Y-100780621D01*
X167976094Y-20020387D02*
X167951676Y-20022795D01*
X165534257Y-78061188D02*
X165404193Y-78181514D01*
X158771517Y-74895674D02*
X158953161Y-74854958D01*
X140903989Y-75554554D02*
X140923880Y-75599425D01*
X135178247Y-51020007D02*
X135111624Y-51183829D01*
X137082896Y-77474456D02*
X137061824Y-77485568D01*
X135944840Y-49850599D02*
X135827266Y-49982283D01*
X140740951Y-48162614D02*
X140707107Y-48198162D01*
X190474732Y-44999985D02*
X190490278Y-44981710D01*
X162209455Y-25082418D02*
X162194059Y-25035812D01*
X163891951Y-53908141D02*
X163858107Y-53943689D01*
X134730922Y-98256240D02*
X134752990Y-98300081D01*
X162377989Y-69602188D02*
X162410048Y-69565023D01*
X132850205Y-24794596D02*
X132849001Y-24745528D01*
X167976091Y-103452779D02*
X168167145Y-103466893D01*
X162555300Y-69433374D02*
X162595429Y-69405112D01*
X126840272Y-76496213D02*
X126816080Y-76453507D01*
X191190376Y-79674887D02*
X191123754Y-79511063D01*
X185746428Y-76813579D02*
X185706299Y-76785317D01*
X132925121Y-25128211D02*
X132907456Y-25082418D01*
X132718168Y-43387489D02*
X132759671Y-43213199D01*
X186106908Y-75001324D02*
X186155268Y-74992933D01*
X163487890Y-82669181D02*
X163441285Y-82684577D01*
X111501209Y-76577809D02*
X111471012Y-76616503D01*
X168167145Y-103466893D02*
X168191696Y-103468100D01*
X107602767Y-74391057D02*
X107759825Y-74478713D01*
X169936393Y-48264065D02*
X169897699Y-48294262D01*
X129852820Y-48673228D02*
X129674717Y-48624108D01*
X162269078Y-41274130D02*
X162293271Y-41231424D01*
X169684683Y-48414934D02*
X169638890Y-48432599D01*
X134838177Y-24892258D02*
X134829786Y-24940618D01*
X163249018Y-25740712D02*
X163200068Y-25744322D01*
X111253572Y-76813579D02*
X111212104Y-76839838D01*
X108721288Y-46358020D02*
X108744842Y-46363903D01*
X136386019Y-20949088D02*
X136250070Y-21063368D01*
X105742254Y-72098474D02*
X105800717Y-72265976D01*
X156853269Y-74992933D02*
X156901982Y-74986925D01*
X126894793Y-48086754D02*
X126866531Y-48046625D01*
X188869560Y-48819914D02*
X188847372Y-48810803D01*
X135961172Y-78324219D02*
X135944840Y-78341654D01*
X191039193Y-72636219D02*
X191113754Y-72476309D01*
X132892060Y-53526867D02*
X132878969Y-53479563D01*
X105598321Y-80462853D02*
X105594288Y-80488445D01*
X130615106Y-77474455D02*
X130453375Y-77394035D01*
X190490277Y-21509500D02*
X190474734Y-21491228D01*
X137082896Y-74489824D02*
X137244626Y-74570235D01*
X189219104Y-45998769D02*
X189240178Y-45987658D01*
X160595467Y-74047957D02*
X160613984Y-74033128D01*
X191028152Y-50814936D02*
X190945865Y-50659135D01*
X189240178Y-102969768D02*
X189397234Y-102882111D01*
X133995732Y-40756350D02*
X134044092Y-40764742D01*
X162130076Y-99760842D02*
X162144448Y-99577694D01*
X191322166Y-43387489D02*
X191363669Y-43213199D01*
X163533684Y-54160462D02*
X163487890Y-54178126D01*
X140427556Y-76886099D02*
X140382684Y-76905989D01*
X132801715Y-51997390D02*
X132797682Y-51971798D01*
X162377989Y-53870976D02*
X162347792Y-53832282D01*
X130265562Y-48819914D02*
X130243374Y-48810803D01*
X109372093Y-46470669D02*
X109563147Y-46484783D01*
X166926998Y-77236629D02*
X166756627Y-77301858D01*
X164235009Y-23303325D02*
X164202319Y-23480743D01*
X127102301Y-76785317D02*
X127063607Y-76755120D01*
X190357161Y-73622710D02*
X190474732Y-73491040D01*
X135036492Y-79890183D02*
X134986399Y-80061185D01*
X189589695Y-20710890D02*
X189569853Y-20697880D01*
X135356135Y-50659135D02*
X135273848Y-50814936D01*
X162180968Y-53479563D02*
X162170214Y-53431673D01*
X133799932Y-54235377D02*
X133750982Y-54231767D01*
X157910334Y-103473014D02*
X158110305Y-103468100D01*
X162013602Y-51570130D02*
X161963509Y-51399129D01*
X133017531Y-41189956D02*
X133045793Y-41149827D01*
X108323002Y-103218679D02*
X108345687Y-103226742D01*
X156485897Y-76839838D02*
X156444429Y-76813579D01*
X106168932Y-78956547D02*
X106155961Y-78977255D01*
X135036492Y-72074278D02*
X135044253Y-72098474D01*
X170272030Y-47248074D02*
X170282784Y-47295963D01*
X169773396Y-75100188D02*
X169816102Y-75124381D01*
X134185891Y-25687071D02*
X134139286Y-25702467D01*
X134520560Y-97986686D02*
X134556108Y-98020530D01*
X188869560Y-103144347D02*
X189035726Y-103071415D01*
X191315601Y-100394340D02*
X191322166Y-100369599D01*
X170297184Y-47589073D02*
X170291176Y-47637786D01*
X107759825Y-102969768D02*
X107780897Y-102980879D01*
X140956940Y-47200769D02*
X140970031Y-47248074D01*
X162151000Y-99346241D02*
X162151000Y-98727636D01*
X137647688Y-48737508D02*
X137624999Y-48745574D01*
X166734439Y-103144346D02*
X166756627Y-103153456D01*
X128808305Y-20005064D02*
X128608336Y-20000150D01*
X134849001Y-24745528D02*
X134847796Y-24794596D01*
X134589952Y-82399196D02*
X134556108Y-82434744D01*
X162013602Y-80061185D02*
X161963509Y-79890184D01*
X188677000Y-74727623D02*
X188847373Y-74662401D01*
X163954207Y-69640882D02*
X163982469Y-69681011D01*
X190844040Y-78977255D02*
X190831069Y-78956547D01*
X189219104Y-20492345D02*
X189057373Y-20411925D01*
X135686023Y-21665594D02*
X135581882Y-21807646D01*
X164008728Y-69722479D02*
X164032921Y-69765185D01*
X134444700Y-25548735D02*
X134404571Y-25576997D01*
X110988286Y-46534114D02*
X111034892Y-46549510D01*
X105552192Y-42569517D02*
X105553554Y-42595583D01*
X159352315Y-103226742D02*
X159375001Y-103218678D01*
X140242981Y-76952141D02*
X140195091Y-76962895D01*
X128596054Y-103473164D02*
X128608335Y-103473014D01*
X128608335Y-46490904D02*
X128808306Y-46485990D01*
X162679602Y-25627448D02*
X162636896Y-25603256D01*
X190051931Y-78045479D02*
X189915983Y-77931200D01*
X111253572Y-75150640D02*
X111293701Y-75178902D01*
X130431728Y-46089305D02*
X130453375Y-46079180D01*
X164338491Y-100565333D02*
X164346252Y-100589529D01*
X130050314Y-77228563D02*
X129875968Y-77171274D01*
X188278715Y-48624108D02*
X188255159Y-48618223D01*
X138023287Y-74849075D02*
X138046841Y-74854958D01*
X191452828Y-52605205D02*
X191447809Y-52412863D01*
X164883882Y-44683589D02*
X164988021Y-44825629D01*
X133045793Y-25341227D02*
X133017531Y-25301098D01*
X156365606Y-75209099D02*
X156404300Y-75178902D01*
X188456818Y-48673228D02*
X188278715Y-48624108D01*
X191363669Y-100195309D02*
X191368990Y-100170095D01*
X185306814Y-47393036D02*
X185312822Y-47344323D01*
X162013602Y-71903285D02*
X162020167Y-71878544D01*
X135111624Y-100780624D02*
X135178246Y-100944436D01*
X163101931Y-97728842D02*
X163150999Y-97727637D01*
X108152629Y-103153456D02*
X108323002Y-103218679D01*
X134652208Y-98131937D02*
X134680470Y-98172066D01*
X189240178Y-45987658D02*
X189397234Y-45900001D01*
X185360455Y-47154164D02*
X185378119Y-47108370D01*
X158771517Y-46404619D02*
X158953161Y-46363903D01*
X106155961Y-78977255D02*
X106066166Y-79128709D01*
X191039193Y-79328214D02*
X191028152Y-79305991D01*
X190216893Y-102257313D02*
X190340828Y-102131199D01*
X190199806Y-78181514D02*
X190069741Y-78061187D01*
X140195091Y-75001324D02*
X140242981Y-75012078D01*
X156328441Y-75241158D02*
X156365606Y-75209099D01*
X134829786Y-53431673D02*
X134819032Y-53479563D01*
X162151000Y-24745528D02*
X162151000Y-24127193D01*
X136250072Y-45427807D02*
X136386019Y-45542074D01*
X107582291Y-49094256D02*
X107430148Y-49188935D01*
X162127365Y-52177754D02*
X162103714Y-51997390D01*
X163052981Y-97732452D02*
X163101931Y-97728842D01*
X189417710Y-20603200D02*
X189397234Y-20591124D01*
X134483394Y-82500648D02*
X134444700Y-82530845D01*
X161055162Y-45131655D02*
X161172733Y-44999985D01*
X130793236Y-45900001D02*
X130813712Y-45887927D01*
X158976715Y-46358020D02*
X159154819Y-46308905D01*
X135961172Y-49833164D02*
X135944840Y-49850599D01*
X165263171Y-45149089D02*
X165387106Y-45275203D01*
X187627906Y-48511442D02*
X187436856Y-48497327D01*
X111687178Y-47637786D02*
X111678786Y-47686146D01*
X162516606Y-40972516D02*
X162555300Y-40942319D01*
X132868215Y-70041491D02*
X132878969Y-69993601D01*
X191452999Y-70855186D02*
X191452999Y-52618248D01*
X167325286Y-103340130D02*
X167348840Y-103346013D01*
X161055162Y-73622710D02*
X161172733Y-73491040D01*
X162293271Y-25259630D02*
X162269078Y-25216924D01*
X105886245Y-22506030D02*
X105876248Y-22528952D01*
X163924010Y-41111133D02*
X163954207Y-41149827D01*
X131151878Y-102646988D02*
X131293468Y-102539012D01*
X162347792Y-69640882D02*
X162377989Y-69602188D01*
X107084020Y-45542074D02*
X107102535Y-45556901D01*
X164564806Y-44145165D02*
X164575847Y-44167386D01*
X135356134Y-101305287D02*
X135368166Y-101326769D01*
X134044092Y-40764742D02*
X134091981Y-40775496D01*
X190933834Y-72835714D02*
X190945866Y-72814232D01*
X134772880Y-53619266D02*
X134752990Y-53664138D01*
X133898069Y-25744322D02*
X133849001Y-25745527D01*
X133017531Y-69681011D02*
X133045793Y-69640882D01*
X191452998Y-81109303D02*
X191452828Y-81096260D01*
X136546123Y-102646987D02*
X136565316Y-102660917D01*
X111687178Y-76128841D02*
X111678786Y-76177201D01*
X133293430Y-25576997D02*
X133253301Y-25548735D01*
X189589695Y-74271303D02*
X189736684Y-74169861D01*
X161955749Y-79865988D02*
X161897283Y-79698475D01*
X156999999Y-48491055D02*
X156950931Y-48489850D01*
X162152204Y-81776706D02*
X162151000Y-81727638D01*
X165706533Y-45556901D02*
X165848122Y-45664877D01*
X126741061Y-75691824D02*
X126756457Y-75645219D01*
X132991272Y-98213534D02*
X133017531Y-98172066D01*
X156076120Y-76364794D02*
X156058456Y-76319000D01*
X162099681Y-80462853D02*
X162066991Y-80285435D01*
X126957050Y-48162614D02*
X126924990Y-48125448D01*
X107430148Y-74284313D02*
X107582291Y-74378981D01*
X135581883Y-44683589D02*
X135686022Y-44825629D01*
X134680470Y-82283208D02*
X134652208Y-82323337D01*
X164092544Y-82064528D02*
X164074879Y-82110321D01*
X162099681Y-51971798D02*
X162066991Y-51794380D01*
X161038829Y-21342109D02*
X160914893Y-21215984D01*
X107084020Y-77931198D02*
X106948071Y-78045478D01*
X105636332Y-51769168D02*
X105631011Y-51794380D01*
X162247010Y-41317971D02*
X162269078Y-41274130D01*
X191315601Y-71903285D02*
X191322166Y-71878544D01*
X156804909Y-76962895D02*
X156757019Y-76952141D01*
X135568010Y-44663671D02*
X135581883Y-44683589D01*
X132011980Y-73316684D02*
X132116119Y-73174644D01*
X140000001Y-46491055D02*
X140049069Y-46492259D01*
X111212104Y-76839838D02*
X111169398Y-76864031D01*
X127361110Y-46549510D02*
X127407716Y-46534114D01*
X163822559Y-25486478D02*
X163785393Y-25518538D01*
X164074879Y-98344953D02*
X164092544Y-98390746D01*
X168403949Y-74982110D02*
X169302000Y-74982110D01*
X167763566Y-74936098D02*
X167951679Y-74959317D01*
X159375003Y-48745574D02*
X159352313Y-48737508D01*
X185398010Y-75554554D02*
X185420078Y-75510712D01*
X162723444Y-25649516D02*
X162679602Y-25627448D01*
X136546123Y-45664877D02*
X136565316Y-45678807D01*
X108721287Y-20133053D02*
X108543184Y-20182173D01*
X161963510Y-100565332D02*
X162013602Y-100394340D01*
X131997253Y-21646490D02*
X131886279Y-21509500D01*
X135188245Y-100967363D02*
X135262807Y-101127274D01*
X191401680Y-43010574D02*
X191405713Y-42984981D01*
X134652208Y-53832282D02*
X134622011Y-53870976D01*
X136546124Y-20826273D02*
X136404534Y-20934260D01*
X134363104Y-25603256D02*
X134320398Y-25627448D01*
X131870734Y-73491040D02*
X131886280Y-73472765D01*
X186301998Y-74982110D02*
X187200052Y-74982110D01*
X169351068Y-74983314D02*
X169400017Y-74986925D01*
X162443892Y-41038420D02*
X162479440Y-41004576D01*
X127026442Y-76723061D02*
X126990894Y-76689217D01*
X164107940Y-98437352D02*
X164121031Y-98484656D01*
X188278714Y-46358020D02*
X188456818Y-46308905D01*
X163150999Y-82727637D02*
X163101931Y-82726432D01*
X164870009Y-101645781D02*
X164883882Y-101665699D01*
X160267854Y-49188935D02*
X160115711Y-49094255D01*
X108323002Y-46236569D02*
X108345687Y-46244632D01*
X160287696Y-45780248D02*
X160434685Y-45678806D01*
X191405713Y-51997390D02*
X191401680Y-51971798D01*
X168191697Y-76987174D02*
X168167144Y-76988382D01*
X164281833Y-71878544D02*
X164288398Y-71903285D01*
X140941544Y-76319000D02*
X140923880Y-76364794D01*
X106930258Y-102394206D02*
X106948073Y-102409917D01*
X134139286Y-69279642D02*
X134185891Y-69295038D01*
X188479966Y-103284026D02*
X188654314Y-103226742D01*
X163200068Y-69237787D02*
X163249018Y-69241397D01*
X130050314Y-20246453D02*
X129875968Y-20189164D01*
X164146184Y-98629619D02*
X164149795Y-98678568D01*
X190733990Y-50318619D02*
X190720118Y-50298701D01*
X166014304Y-77693000D02*
X165867315Y-77794453D01*
X160767744Y-45412097D02*
X160897806Y-45291783D01*
X188847372Y-77301858D02*
X188677002Y-77236629D01*
X160434686Y-49303399D02*
X160287696Y-49201945D01*
X109372093Y-74961724D02*
X109563147Y-74975838D01*
X191363669Y-23278113D02*
X191322166Y-23103815D01*
X132595284Y-43774923D02*
X132653749Y-43607420D01*
X133995732Y-97738460D02*
X134044092Y-97746852D01*
X169773396Y-48372976D02*
X169729555Y-48395044D01*
X134938331Y-23278113D02*
X134933010Y-23303325D01*
X111639545Y-47154164D02*
X111654941Y-47200769D01*
X167763566Y-103427153D02*
X167951679Y-103450372D01*
X111678786Y-76177201D02*
X111668032Y-76225090D01*
X137647688Y-20246453D02*
X137624999Y-20254519D01*
X107263317Y-77794453D02*
X107244125Y-77808383D01*
X134869925Y-99760842D02*
X134872636Y-99786730D01*
X156328441Y-76723061D02*
X156292893Y-76689217D01*
X160613984Y-77931199D02*
X160595467Y-77916369D01*
X105631011Y-23303325D02*
X105598321Y-23480743D01*
X189417710Y-77585310D02*
X189397234Y-77573234D01*
X132759671Y-23278113D02*
X132718168Y-23103815D01*
X165404194Y-45291783D02*
X165534256Y-45412096D01*
X136232257Y-102394206D02*
X136250072Y-102409917D01*
X156950931Y-76980905D02*
X156901982Y-76977294D01*
X191265509Y-72074277D02*
X191315601Y-71903285D01*
X165246839Y-78341654D02*
X165129265Y-78473338D01*
X185667605Y-46718044D02*
X185706299Y-46687847D01*
X164759959Y-50486200D02*
X164670164Y-50637654D01*
X135044253Y-100589529D02*
X135102716Y-100757031D01*
X185303204Y-47540123D02*
X185301999Y-47491055D01*
X133214607Y-82500648D02*
X133177441Y-82468588D01*
X129651162Y-46363903D02*
X129674716Y-46358020D01*
X134849171Y-24114149D02*
X134849001Y-24127194D01*
X162209455Y-41408636D02*
X162227120Y-41362843D01*
X164198286Y-42984981D02*
X164202319Y-43010574D01*
X110796019Y-76977294D02*
X110747070Y-76980905D01*
X134091981Y-25715558D02*
X134044092Y-25726312D01*
X137822035Y-103284026D02*
X137845183Y-103291015D01*
X164490244Y-72476308D02*
X164564806Y-72636219D01*
X140382684Y-48414934D02*
X140336891Y-48432599D01*
X188654312Y-20246453D02*
X188479966Y-20189164D01*
X140923880Y-47873739D02*
X140903989Y-47918610D01*
X130431728Y-74580360D02*
X130453375Y-74570235D01*
X190199806Y-49690459D02*
X190069741Y-49570132D01*
X134869925Y-80694697D02*
X134855553Y-80877852D01*
X140995185Y-47589073D02*
X140989177Y-47637786D01*
X191199282Y-100757033D02*
X191257747Y-100589530D01*
X159154819Y-77164283D02*
X158976716Y-77115163D01*
X164092544Y-41408636D02*
X164107940Y-41455242D01*
X163150999Y-25745527D02*
X163101931Y-25744322D01*
X127226604Y-75100188D02*
X127270445Y-75078120D01*
X164772931Y-101498921D02*
X164870009Y-101645781D01*
X167325285Y-48624108D02*
X167147182Y-48673228D01*
X128608336Y-76982260D02*
X128596053Y-76982110D01*
X164121031Y-69993601D02*
X164131785Y-70041491D01*
X164151000Y-52618249D02*
X164151000Y-53236583D01*
X138228485Y-74895674D02*
X138252394Y-74900424D01*
X168391668Y-46490904D02*
X168403949Y-46491054D01*
X132764992Y-100170095D02*
X132797682Y-99992684D01*
X107102535Y-102539011D02*
X107244124Y-102646987D01*
X158562630Y-74932509D02*
X158747609Y-74900424D01*
X164054989Y-82155193D02*
X164032921Y-82199034D01*
X134589952Y-98056078D02*
X134622011Y-98093243D01*
X165387106Y-73766258D02*
X165404194Y-73782838D01*
X165113722Y-50000555D02*
X165002748Y-50137545D01*
X162066991Y-71679040D02*
X162099681Y-71501629D01*
X185306814Y-76080128D02*
X185303204Y-76031178D01*
X159733727Y-20401799D02*
X159567561Y-20328859D01*
X158953160Y-48618223D02*
X158771518Y-48577503D01*
X191190376Y-51183832D02*
X191123754Y-51020008D01*
X133334897Y-25603256D02*
X133293430Y-25576997D01*
X165706533Y-49425315D02*
X165688018Y-49440143D01*
X161172733Y-101982095D02*
X161188279Y-101963820D01*
X185561048Y-48162614D02*
X185528988Y-48125448D01*
X189589695Y-77693000D02*
X189569853Y-77679990D01*
X162679602Y-69354661D02*
X162723444Y-69332593D01*
X164146184Y-53334600D02*
X164140176Y-53383313D01*
X129651161Y-48618223D02*
X129469519Y-48577503D01*
X126866531Y-46935484D02*
X126894793Y-46895355D01*
X138228484Y-20086448D02*
X138046842Y-20127168D01*
X134849001Y-41745526D02*
X134849001Y-42364130D01*
X162150829Y-70868229D02*
X162150999Y-70855186D01*
X165848122Y-74155932D02*
X165867315Y-74169862D01*
X162170214Y-41550436D02*
X162180968Y-41502546D01*
X107244125Y-77808383D02*
X107102535Y-77916370D01*
X126816080Y-76453507D02*
X126794012Y-76409665D01*
X106509723Y-44981710D02*
X106525269Y-44999985D01*
X162099681Y-71501629D02*
X162103714Y-71476036D01*
X163858107Y-41038420D02*
X163891951Y-41073968D01*
X105570637Y-52177754D02*
X105567926Y-52203642D01*
X161038829Y-49833164D02*
X160914893Y-49707039D01*
X168191696Y-103468100D02*
X168391668Y-103473014D01*
X162955908Y-97746852D02*
X163004268Y-97738460D01*
X164346251Y-79865990D02*
X164338491Y-79890183D01*
X106279884Y-44683589D02*
X106384023Y-44825629D01*
X140098018Y-76977294D02*
X140049069Y-76980905D01*
X188456818Y-77164283D02*
X188278715Y-77115163D01*
X107582291Y-102870036D02*
X107602767Y-102882112D01*
X164054989Y-41317971D02*
X164074879Y-41362843D01*
X135262807Y-44145165D02*
X135273848Y-44167386D01*
X126717216Y-47295963D02*
X126727970Y-47248074D01*
X190601250Y-44844732D02*
X190615978Y-44825629D01*
X132825366Y-99786730D02*
X132828077Y-99760842D01*
X109587699Y-20005064D02*
X109563146Y-20006272D01*
X132129992Y-73154726D02*
X132227070Y-73007866D01*
X107759825Y-77485568D02*
X107602768Y-77573233D01*
X189057373Y-20411925D02*
X189035726Y-20401799D01*
X159755374Y-103061290D02*
X159917105Y-102980879D01*
X166949687Y-20246453D02*
X166926998Y-20254519D01*
X108950396Y-77063807D02*
X108926485Y-77068558D01*
X164288398Y-100394340D02*
X164338491Y-100565333D01*
X162410048Y-25417086D02*
X162377989Y-25379921D01*
X170183920Y-47019657D02*
X170205988Y-47063499D01*
X185706299Y-76785317D02*
X185667605Y-76755120D01*
X188479966Y-20189164D02*
X188456818Y-20182173D01*
X106509723Y-73472765D02*
X106525269Y-73491040D01*
X132586378Y-51183832D02*
X132519756Y-51020008D01*
X164146184Y-24843545D02*
X164140176Y-24892258D01*
X166034146Y-20697880D02*
X166014304Y-20710890D01*
X134900320Y-99992684D02*
X134933010Y-100170095D01*
X106066166Y-22146600D02*
X106054136Y-22168080D01*
X185378119Y-47108370D02*
X185398010Y-47063499D01*
X138023286Y-20133053D02*
X137845183Y-20182173D01*
X136404534Y-45556901D02*
X136546123Y-45664877D01*
X162247010Y-25173083D02*
X162227120Y-25128211D01*
X162150999Y-52618248D02*
X162150829Y-52605205D01*
X108744843Y-20127168D02*
X108721287Y-20133053D01*
X134838177Y-98580906D02*
X134844185Y-98629619D01*
X191452828Y-99359284D02*
X191452998Y-99346241D01*
X134231685Y-97803757D02*
X134276556Y-97823648D01*
X185630440Y-46750103D02*
X185667605Y-46718044D01*
X134819032Y-41502546D02*
X134829786Y-41550436D01*
X168403950Y-20000000D02*
X168391667Y-20000150D01*
X156226989Y-48125448D02*
X156196792Y-48086754D01*
X162595429Y-82559107D02*
X162555300Y-82530845D01*
X189755876Y-102646988D02*
X189897466Y-102539012D01*
X164074879Y-41362843D02*
X164092544Y-41408636D01*
X162152204Y-70187513D02*
X162155815Y-70138564D01*
X131997253Y-50137545D02*
X131886279Y-50000555D01*
X163052981Y-40750342D02*
X163101931Y-40746732D01*
X163982469Y-25301098D02*
X163954207Y-25341227D01*
X135568010Y-21827564D02*
X135470931Y-21974437D01*
X190474732Y-73491040D02*
X190490278Y-73472765D01*
X166756627Y-48810803D02*
X166734438Y-48819915D01*
X133606020Y-40775496D02*
X133653909Y-40764742D01*
X109587698Y-46485990D02*
X109787670Y-46490904D01*
X134819032Y-81970618D02*
X134805941Y-82017922D01*
X169544980Y-48461086D02*
X169497090Y-48471840D01*
X161299251Y-73335787D02*
X161313979Y-73316684D01*
X161431991Y-50318619D02*
X161418119Y-50298701D01*
X137266275Y-103071415D02*
X137432440Y-103144346D01*
X105598321Y-51971798D02*
X105594288Y-51997390D01*
X164404715Y-100757031D02*
X164413623Y-100780624D01*
X132967079Y-69765185D02*
X132991272Y-69722479D01*
X108926486Y-46404619D02*
X108950395Y-46409369D01*
X134838177Y-81874368D02*
X134829786Y-81922728D01*
X163954207Y-53832282D02*
X163924010Y-53870976D01*
X138437372Y-48540663D02*
X138252395Y-48572752D01*
X156950931Y-46492259D02*
X156999999Y-46491055D01*
X106384024Y-78647704D02*
X106279883Y-78789756D01*
X106384023Y-101807739D02*
X106398751Y-101826842D01*
X191452828Y-81096260D02*
X191447809Y-80903918D01*
X131151878Y-20826273D02*
X131132687Y-20812344D01*
X156572444Y-76886099D02*
X156528603Y-76864031D01*
X163533684Y-97803757D02*
X163578555Y-97823648D01*
X136386019Y-45542074D02*
X136404534Y-45556901D01*
X165129267Y-44999985D02*
X165246838Y-45131655D01*
X156019215Y-76177201D02*
X156010823Y-76128841D01*
X129445610Y-103391479D02*
X129469518Y-103386729D01*
X108950396Y-48572752D02*
X108926485Y-48577503D01*
X106398751Y-73335787D02*
X106509723Y-73472765D01*
X109787669Y-20000150D02*
X109587699Y-20005064D01*
X156404300Y-48294262D02*
X156365606Y-48264065D01*
X127026442Y-46750103D02*
X127063607Y-46718044D01*
X161888377Y-100780621D02*
X161897283Y-100757033D01*
X185594892Y-46783947D02*
X185630440Y-46750103D01*
X134091981Y-54206613D02*
X134044092Y-54217367D01*
X170225879Y-76364794D02*
X170205988Y-76409665D01*
X134790545Y-69899691D02*
X134805941Y-69946297D01*
X132129992Y-101645781D02*
X132227070Y-101498921D01*
X130985697Y-77693000D02*
X130965855Y-77679990D01*
X107084020Y-74033129D02*
X107102535Y-74047956D01*
X133995732Y-25734704D02*
X133947019Y-25740712D01*
X134556108Y-53943689D02*
X134520560Y-53977533D01*
X188456818Y-46308905D02*
X188479966Y-46301916D01*
X129674716Y-74849075D02*
X129852820Y-74799960D01*
X105567926Y-42778732D02*
X105570637Y-42804620D01*
X126708824Y-47344323D02*
X126717216Y-47295963D01*
X126717216Y-47686146D02*
X126708824Y-47637786D01*
X137266274Y-48892854D02*
X137244627Y-48902980D01*
X190945865Y-22168080D02*
X190933835Y-22146600D01*
X191315601Y-23079075D02*
X191265508Y-22908074D01*
X169936393Y-76755120D02*
X169897699Y-76785317D01*
X161542041Y-78977255D02*
X161529070Y-78956547D01*
X164171924Y-99760842D02*
X164174635Y-99786730D01*
X134819032Y-69993601D02*
X134829786Y-70041491D01*
X105971849Y-79305991D02*
X105960808Y-79328214D01*
X134844185Y-41647509D02*
X134847796Y-41696458D01*
X190199805Y-73782838D02*
X190216893Y-73766258D01*
X169773396Y-46609133D02*
X169816102Y-46633326D01*
X132825366Y-71295675D02*
X132828077Y-71269787D01*
X165387107Y-78198094D02*
X165263171Y-78324219D01*
X156901982Y-48486239D02*
X156853269Y-48480231D01*
X134805941Y-41455242D02*
X134819032Y-41502546D01*
X111687178Y-47344323D02*
X111693186Y-47393036D01*
X188073516Y-46404619D02*
X188255160Y-46363903D01*
X164171924Y-23712587D02*
X164157552Y-23895742D01*
X105742253Y-22883880D02*
X105734493Y-22908073D01*
X131886280Y-73472765D02*
X131997252Y-73335787D01*
X162247010Y-53664138D02*
X162227120Y-53619266D01*
X136712305Y-45780248D02*
X136732147Y-45793258D01*
X140970031Y-75739129D02*
X140980785Y-75787018D01*
X138252394Y-103391479D02*
X138437373Y-103423564D01*
X135102716Y-51207422D02*
X135044252Y-51374934D01*
X126894793Y-75386410D02*
X126924990Y-75347716D01*
X107244125Y-49317328D02*
X107102535Y-49425315D01*
X166568273Y-20401799D02*
X166546626Y-20411925D01*
X160267854Y-74284313D02*
X160287696Y-74271303D01*
X164008728Y-41231424D02*
X164032921Y-41274130D01*
X190720117Y-73174644D02*
X190733990Y-73154726D01*
X185360455Y-47827945D02*
X185345059Y-47781340D01*
X132011979Y-21665594D02*
X131997253Y-21646490D01*
X132129992Y-50318619D02*
X132116120Y-50298701D01*
X132878969Y-98484656D02*
X132892060Y-98437352D01*
X158134856Y-46484783D02*
X158325910Y-46470669D01*
X163533684Y-40821647D02*
X163578555Y-40841538D01*
X109135374Y-74932509D02*
X109159568Y-74936098D01*
X133849001Y-69236582D02*
X133898069Y-69237787D01*
X164121031Y-24988508D02*
X164107940Y-25035812D01*
X162152204Y-53285651D02*
X162151000Y-53236583D01*
X185331968Y-76225090D02*
X185321214Y-76177201D01*
X105570637Y-80668809D02*
X105567926Y-80694697D01*
X134404571Y-54068052D02*
X134363104Y-54094311D01*
X170042950Y-46819495D02*
X170075010Y-46856661D01*
X130985697Y-74271303D02*
X131132686Y-74169861D01*
X111698001Y-47491055D02*
X111696796Y-47540123D01*
X127698000Y-48491055D02*
X127648932Y-48489850D01*
X132586378Y-72289566D02*
X132595284Y-72265978D01*
X165552069Y-78045478D02*
X165534257Y-78061188D01*
X140336891Y-75040565D02*
X140382684Y-75058230D01*
X161811757Y-79488138D02*
X161737194Y-79328214D01*
X132227070Y-101498921D02*
X132240043Y-101478211D01*
X191363669Y-51769168D02*
X191322166Y-51594870D01*
X190844040Y-50486200D02*
X190831069Y-50465492D01*
X162347792Y-25341227D02*
X162319530Y-25301098D01*
X167124034Y-46301916D02*
X167147182Y-46308905D01*
X190069743Y-45412097D02*
X190199805Y-45291783D01*
X191447809Y-42569516D02*
X191452828Y-42377174D01*
X133421445Y-25649516D02*
X133377603Y-25627448D01*
X164480246Y-51020007D02*
X164413623Y-51183829D01*
X133799932Y-40746732D02*
X133849000Y-40745527D01*
X140941544Y-47154164D02*
X140956940Y-47200769D01*
X107759825Y-45987658D02*
X107780897Y-45998769D01*
X186252930Y-46492259D02*
X186301998Y-46491055D01*
X186059018Y-75012078D02*
X186106908Y-75001324D01*
X191123754Y-22528953D02*
X191113756Y-22506029D01*
X185746428Y-48322524D02*
X185706299Y-48294262D01*
X187436855Y-46484783D02*
X187627909Y-46470669D01*
X190216892Y-21215984D02*
X190199806Y-21199404D01*
X161726153Y-72658441D02*
X161737194Y-72636220D01*
X135944839Y-45131655D02*
X135961172Y-45149089D01*
X164413623Y-79674884D02*
X164404715Y-79698477D01*
X128596053Y-48491055D02*
X127698000Y-48491055D01*
X170243543Y-76319000D02*
X170225879Y-76364794D01*
X137061824Y-48994513D02*
X136904767Y-49082178D01*
X162227120Y-69853898D02*
X162247010Y-69809026D01*
X134933010Y-80285435D02*
X134900320Y-80462853D01*
X170205988Y-47918610D02*
X170183920Y-47962452D01*
X167147182Y-20182173D02*
X167124034Y-20189164D01*
X105684400Y-51570130D02*
X105677835Y-51594869D01*
X134404571Y-97896167D02*
X134444700Y-97924429D01*
X162443892Y-25452634D02*
X162410048Y-25417086D01*
X134838177Y-70089851D02*
X134844185Y-70138564D01*
X160095235Y-20591124D02*
X159938179Y-20503458D01*
X162103714Y-23506335D02*
X162099681Y-23480743D01*
X158747607Y-20081697D02*
X158562631Y-20049608D01*
X136732147Y-102775368D02*
X136884290Y-102870036D01*
X162555300Y-40942319D02*
X162595429Y-40914057D01*
X132853816Y-41647509D02*
X132859824Y-41598796D01*
X135102716Y-72265976D02*
X135111624Y-72289569D01*
X162180968Y-81970618D02*
X162170214Y-81922728D01*
X162636896Y-54094311D02*
X162595429Y-54068052D01*
X189736684Y-102660916D02*
X189755876Y-102646988D01*
X138461567Y-103427153D02*
X138649680Y-103450372D01*
X106642841Y-21359544D02*
X106525267Y-21491228D01*
X108543184Y-74799960D02*
X108721288Y-74849075D01*
X164032921Y-25216924D02*
X164008728Y-25259630D01*
X162130076Y-42778732D02*
X162144448Y-42595584D01*
X169592284Y-48447995D02*
X169544980Y-48461086D01*
X163004268Y-40756350D02*
X163052981Y-40750342D01*
X127102301Y-46687847D02*
X127142430Y-46659585D01*
X140881921Y-47962452D02*
X140857729Y-48005158D01*
X164658133Y-44323177D02*
X164670165Y-44344659D01*
X132967079Y-25216924D02*
X132945011Y-25173083D01*
X132825366Y-80668809D02*
X132801715Y-80488445D01*
X159938179Y-77485568D02*
X159917105Y-77474455D01*
X162209455Y-69899691D02*
X162227120Y-69853898D01*
X191315601Y-43412230D02*
X191322166Y-43387489D01*
X108926485Y-48577503D02*
X108744843Y-48618223D01*
X135273848Y-79305991D02*
X135262807Y-79328214D01*
X135581882Y-50298701D02*
X135568010Y-50318619D01*
X140970031Y-47248074D02*
X140980785Y-47295963D01*
X133750982Y-97732452D02*
X133799932Y-97728842D01*
X132842449Y-42595584D02*
X132843811Y-42569516D01*
X131151878Y-49317328D02*
X131132687Y-49303399D01*
X162194059Y-69946297D02*
X162209455Y-69899691D01*
X133558715Y-82684577D02*
X133512110Y-82669181D01*
X187412304Y-46485990D02*
X187436855Y-46484783D01*
X136250070Y-21063368D02*
X136232258Y-21079078D01*
X160434685Y-74169861D02*
X160453877Y-74155933D01*
X161726153Y-101149496D02*
X161737194Y-101127275D01*
X185378119Y-47873739D02*
X185360455Y-47827945D01*
X187864630Y-48540663D02*
X187840433Y-48537073D01*
X105598321Y-43010574D02*
X105631011Y-43187985D01*
X140903989Y-47918610D02*
X140881921Y-47962452D01*
X162155815Y-41647509D02*
X162161823Y-41598796D01*
X132843811Y-71060571D02*
X132848830Y-70868229D01*
X165129267Y-73491040D02*
X165246838Y-73622710D01*
X105742253Y-51374935D02*
X105734493Y-51399128D01*
X185420078Y-47019657D02*
X185444270Y-46976951D01*
X140336891Y-46549510D02*
X140382684Y-46567175D01*
X170272030Y-76225090D02*
X170258939Y-76272395D01*
X136085107Y-73766258D02*
X136102195Y-73782838D01*
X168403949Y-46491055D02*
X169302000Y-46491055D01*
X161643867Y-101305287D02*
X161726153Y-101149496D01*
X134933010Y-100170095D02*
X134938331Y-100195309D01*
X106054136Y-79150190D02*
X105971849Y-79305991D01*
X129445610Y-46409369D02*
X129469518Y-46404619D01*
X135811723Y-21509500D02*
X135700749Y-21646490D01*
X162679602Y-54118503D02*
X162636896Y-54094311D01*
X137266275Y-46089305D02*
X137432440Y-46162236D01*
X162636896Y-82585366D02*
X162595429Y-82559107D01*
X162814109Y-25687071D02*
X162768315Y-25669407D01*
X126702816Y-75884091D02*
X126708824Y-75835378D01*
X136712305Y-74271303D02*
X136732147Y-74284313D01*
X130243374Y-77301858D02*
X130073004Y-77236629D01*
X187412303Y-20005064D02*
X187212334Y-20000150D01*
X190069741Y-49570132D02*
X190051931Y-49554424D01*
X191452828Y-42377174D02*
X191452998Y-42364131D01*
X126840272Y-75468006D02*
X126866531Y-75426539D01*
X162908019Y-54206613D02*
X162860714Y-54193522D01*
X188847373Y-74662401D02*
X188869560Y-74653292D01*
X105567926Y-71269787D02*
X105570637Y-71295675D01*
X108950395Y-74900424D02*
X109135374Y-74932509D01*
X108130441Y-46162236D02*
X108152629Y-46171346D01*
X165404193Y-21199404D02*
X165387107Y-21215984D01*
X106800195Y-78181514D02*
X106783109Y-78198094D01*
X135811723Y-78491610D02*
X135700749Y-78628600D01*
X127502910Y-48471840D02*
X127455020Y-48461086D01*
X132797682Y-43010574D02*
X132801715Y-42984981D01*
X130265562Y-46162237D02*
X130431728Y-46089305D01*
X132797682Y-51971798D02*
X132764992Y-51794380D01*
X159733727Y-77383909D02*
X159567561Y-77310969D01*
X162723444Y-82631626D02*
X162679602Y-82609558D01*
X137244627Y-48902980D02*
X137082896Y-48983401D01*
X138252395Y-20081697D02*
X138228484Y-20086448D01*
X185787896Y-48348783D02*
X185746428Y-48322524D01*
X105552192Y-23921807D02*
X105547172Y-24114149D01*
X132329836Y-44344659D02*
X132341868Y-44323177D01*
X161188279Y-44981710D02*
X161299251Y-44844732D01*
X140803208Y-48086754D02*
X140773011Y-48125448D01*
X161313978Y-78647704D02*
X161299252Y-78628600D01*
X190720118Y-50298701D02*
X190615977Y-50156649D01*
X161888377Y-51183832D02*
X161821755Y-51020008D01*
X134706729Y-53750685D02*
X134680470Y-53792153D01*
X162768315Y-82651517D02*
X162723444Y-82631626D01*
X127551270Y-46501878D02*
X127599983Y-46495870D01*
X190945865Y-79150190D02*
X190933835Y-79128710D01*
X133947019Y-40750342D02*
X133995732Y-40756350D01*
X161542041Y-50486200D02*
X161529070Y-50465492D01*
X189897466Y-102539012D02*
X189915983Y-102524183D01*
X163746699Y-82530845D02*
X163706570Y-82559107D01*
X191432075Y-99760842D02*
X191446447Y-99577694D01*
X164883881Y-78789756D02*
X164870009Y-78809674D01*
X135102716Y-79698477D02*
X135044252Y-79865989D01*
X162170214Y-70041491D02*
X162180968Y-69993601D01*
X163622397Y-97845716D02*
X163665103Y-97869908D01*
X126717216Y-75787018D02*
X126727970Y-75739129D01*
X126866531Y-75426539D02*
X126894793Y-75386410D01*
X129469519Y-48577503D02*
X129445609Y-48572752D01*
X128808306Y-103468100D02*
X128832857Y-103466893D01*
X133334897Y-54094311D02*
X133293430Y-54068052D01*
X132764992Y-71679040D02*
X132797682Y-71501629D01*
X131736830Y-21342109D02*
X131612894Y-21215984D01*
X135036492Y-22908073D02*
X134986399Y-23079075D01*
X191432075Y-71269787D02*
X191446447Y-71086639D01*
X170300794Y-47540123D02*
X170297184Y-47589073D01*
X156004815Y-47589073D02*
X156001205Y-47540123D01*
X111293701Y-46687847D02*
X111332395Y-46718044D01*
X164240330Y-51769168D02*
X164235009Y-51794380D01*
X127063607Y-48264065D02*
X127026442Y-48232006D01*
X131151878Y-45664878D02*
X131293468Y-45556902D01*
X163622397Y-40863606D02*
X163665103Y-40887798D01*
X108721287Y-77115163D02*
X108543184Y-77164283D01*
X111253572Y-48322524D02*
X111212104Y-48348783D01*
X126756457Y-75645219D02*
X126774121Y-75599425D01*
X187200051Y-48491055D02*
X186301998Y-48491055D01*
X111678786Y-75787018D02*
X111687178Y-75835378D01*
X185498791Y-46895355D02*
X185528988Y-46856661D01*
X131595807Y-73782838D02*
X131612895Y-73766258D01*
X138437373Y-74932509D02*
X138461567Y-74936098D01*
X137266274Y-20401799D02*
X137244627Y-20411925D01*
X105960808Y-50837159D02*
X105886245Y-50997085D01*
X132240043Y-101478211D02*
X132329836Y-101326769D01*
X130813712Y-74378982D02*
X130965855Y-74284313D01*
X134849001Y-99346240D02*
X134849171Y-99359285D01*
X163249018Y-82722822D02*
X163200068Y-82726432D01*
X163822559Y-82468588D02*
X163785393Y-82500648D01*
X132586378Y-22692777D02*
X132519756Y-22528953D01*
X158134857Y-48497327D02*
X158110304Y-48496119D01*
X111678786Y-47686146D02*
X111668032Y-47734035D01*
X162636896Y-25603256D02*
X162595429Y-25576997D01*
X156000000Y-47491054D02*
X156001205Y-47441986D01*
X191315601Y-80061185D02*
X191265508Y-79890184D01*
X136565316Y-20812343D02*
X136546124Y-20826273D01*
X162130076Y-71269787D02*
X162144448Y-71086639D01*
X162814109Y-82669181D02*
X162768315Y-82651517D01*
X134805941Y-98437352D02*
X134819032Y-98484656D01*
X163533684Y-82651517D02*
X163487890Y-82669181D01*
X168391667Y-48491205D02*
X168191697Y-48496119D01*
X163924010Y-98093243D02*
X163954207Y-98131937D01*
X162145810Y-99551626D02*
X162150829Y-99359284D01*
X132116119Y-73174644D02*
X132129992Y-73154726D01*
X138228484Y-48577503D02*
X138046842Y-48618223D01*
X132967079Y-41274130D02*
X132991272Y-41231424D01*
X107430148Y-77679990D02*
X107410306Y-77693000D01*
X162103714Y-71476036D02*
X162127365Y-71295675D01*
X134276556Y-82631626D02*
X134231685Y-82651517D01*
X167325286Y-74849075D02*
X167348840Y-74854958D01*
X162194059Y-82017922D02*
X162180968Y-81970618D01*
X161963510Y-43583222D02*
X162013602Y-43412230D01*
X188847373Y-46171346D02*
X188869560Y-46162237D01*
X135111624Y-22692774D02*
X135102716Y-22716367D01*
X111654941Y-75691824D02*
X111668032Y-75739129D01*
X162144448Y-23895741D02*
X162130076Y-23712587D01*
X165263171Y-21342109D02*
X165246839Y-21359544D01*
X132859824Y-41598796D02*
X132868215Y-41550436D01*
X156096011Y-75554554D02*
X156118079Y-75510712D01*
X158110305Y-46485990D02*
X158134856Y-46484783D01*
X105971849Y-44167386D02*
X106054135Y-44323177D01*
X162955908Y-69255797D02*
X163004268Y-69247405D01*
X135827266Y-21491228D02*
X135811723Y-21509500D01*
X131997252Y-73335787D02*
X132011980Y-73316684D01*
X137822035Y-77171274D02*
X137647688Y-77228563D01*
X187200051Y-76982110D02*
X186301998Y-76982110D01*
X169448730Y-48480231D02*
X169400017Y-48486239D01*
X137432439Y-77310970D02*
X137266274Y-77383909D01*
X130453375Y-20411925D02*
X130431728Y-20401799D01*
X133702269Y-54225759D02*
X133653909Y-54217367D01*
X105971849Y-72658441D02*
X106054135Y-72814232D01*
X156019215Y-75787018D02*
X156029969Y-75739129D01*
X105636332Y-43213199D02*
X105677835Y-43387489D01*
X137244627Y-77394035D02*
X137082896Y-77474456D01*
X134829786Y-81922728D02*
X134819032Y-81970618D01*
X111253572Y-46659585D02*
X111293701Y-46687847D01*
X136712305Y-49201945D02*
X136565316Y-49303398D01*
X111601990Y-47063499D02*
X111621881Y-47108370D01*
X111698001Y-75982110D02*
X111696796Y-76031178D01*
X105547172Y-81096259D02*
X105547002Y-81109304D01*
X111034892Y-76923654D02*
X110988286Y-76939050D01*
X129260631Y-103423564D02*
X129445610Y-103391479D01*
X133334897Y-69378853D02*
X133377603Y-69354661D01*
X158110304Y-48496119D02*
X157910335Y-48491205D01*
X133141893Y-82434744D02*
X133108049Y-82399196D01*
X129445608Y-48572752D02*
X129260632Y-48540663D01*
X135178247Y-79511062D02*
X135111624Y-79674884D01*
X156663109Y-76923654D02*
X156617316Y-76905989D01*
X105734493Y-51399128D02*
X105684400Y-51570130D01*
X189397234Y-74391056D02*
X189417710Y-74378982D01*
X170105207Y-48086754D02*
X170075010Y-48125448D01*
X162595429Y-97896167D02*
X162636896Y-97869908D01*
X191405713Y-71476036D02*
X191429364Y-71295675D01*
X162151000Y-41745526D02*
X162152204Y-41696458D01*
X132849000Y-52618248D02*
X132848830Y-52605205D01*
X190933834Y-101326769D02*
X190945866Y-101305287D01*
X162555300Y-97924429D02*
X162595429Y-97896167D01*
X109159569Y-20046018D02*
X109135373Y-20049608D01*
X138023286Y-77115163D02*
X137845183Y-77164283D01*
X190216893Y-73766258D02*
X190340828Y-73640144D01*
X135581882Y-78789756D02*
X135568010Y-78809674D01*
X189915983Y-20949089D02*
X189897466Y-20934259D01*
X133947019Y-97732452D02*
X133995732Y-97738460D01*
X105876248Y-22528952D02*
X105809625Y-22692774D01*
X132859824Y-98580906D02*
X132868215Y-98532546D01*
X170282784Y-76177201D02*
X170272030Y-76225090D01*
X131753162Y-49850599D02*
X131736830Y-49833164D01*
X162155815Y-81825655D02*
X162152204Y-81776706D01*
X156572444Y-48395044D02*
X156528603Y-48372976D01*
X131870736Y-78473338D02*
X131753162Y-78341654D01*
X164240330Y-43213199D02*
X164281833Y-43387489D01*
X131886279Y-78491610D02*
X131870736Y-78473338D01*
X191446447Y-80877851D02*
X191432075Y-80694697D01*
X188654312Y-48737508D02*
X188479966Y-48680219D01*
X106525267Y-49982283D02*
X106509724Y-50000555D01*
X110988286Y-48447995D02*
X110940982Y-48461086D01*
X132435195Y-101127274D02*
X132509756Y-100967364D01*
X133606020Y-69266551D02*
X133653909Y-69255797D01*
X185746428Y-46659585D02*
X185787896Y-46633326D01*
X129651161Y-20127168D02*
X129469519Y-20086448D01*
X187652324Y-20022795D02*
X187627906Y-20020387D01*
X161299252Y-50137545D02*
X161188278Y-50000555D01*
X191401680Y-99992684D02*
X191405713Y-99967091D01*
X156999999Y-46491055D02*
X157898053Y-46491055D01*
X156196792Y-76577809D02*
X156168530Y-76537680D01*
X191405713Y-42984981D02*
X191429364Y-42804620D01*
X134847796Y-41696458D02*
X134849001Y-41745526D01*
X187212334Y-20000150D02*
X187200051Y-20000000D01*
X140382684Y-46567175D02*
X140427556Y-46587065D01*
X134752990Y-41317971D02*
X134772880Y-41362843D01*
X162170214Y-98532546D02*
X162180968Y-98484656D01*
X109372093Y-103452779D02*
X109563147Y-103466893D01*
X138674092Y-74961724D02*
X138865146Y-74975838D01*
X191368990Y-80285435D02*
X191363669Y-80260223D01*
X188847372Y-48810803D02*
X188677002Y-48745574D01*
X187840434Y-103427153D02*
X187864629Y-103423564D01*
X134276556Y-69332593D02*
X134320398Y-69354661D01*
X163101931Y-69237787D02*
X163150999Y-69236582D01*
X133512110Y-82669181D02*
X133466316Y-82651517D01*
X162150829Y-52605205D02*
X162145810Y-52412863D01*
X165552071Y-45427807D02*
X165688018Y-45542074D01*
X169400017Y-48486239D02*
X169351068Y-48489850D01*
X189057373Y-48902980D02*
X189035726Y-48892854D01*
X109787669Y-48491205D02*
X109587699Y-48496119D01*
X156617316Y-48414934D02*
X156572444Y-48395044D01*
X133558715Y-40788587D02*
X133606020Y-40775496D01*
X163533684Y-25669407D02*
X163487890Y-25687071D01*
X185965108Y-76923654D02*
X185919315Y-76905989D01*
X161821755Y-22528953D02*
X161811757Y-22506029D01*
X191257748Y-51374933D02*
X191199282Y-51207420D01*
X140290285Y-76939050D02*
X140242981Y-76952141D01*
X129445608Y-77063807D02*
X129260632Y-77031718D01*
X166034146Y-102775368D02*
X166186289Y-102870036D01*
X132718168Y-80085924D02*
X132711603Y-80061185D01*
X160613984Y-20949089D02*
X160595467Y-20934259D01*
X134139286Y-40788587D02*
X134185891Y-40803983D01*
X164202319Y-51971798D02*
X164198286Y-51997390D01*
X185345059Y-76272395D02*
X185331968Y-76225090D01*
X189240178Y-48994513D02*
X189219104Y-48983400D01*
X132661511Y-43583222D02*
X132711603Y-43412230D01*
X127315317Y-46567175D02*
X127361110Y-46549510D01*
X163200068Y-97728842D02*
X163249018Y-97732452D01*
X161631836Y-79128709D02*
X161542041Y-78977255D01*
X133045793Y-41149827D02*
X133075990Y-41111133D01*
X106266011Y-78809674D02*
X106168932Y-78956547D01*
X167348841Y-77109278D02*
X167325285Y-77115163D01*
X132842449Y-80877851D02*
X132828077Y-80694697D01*
X105809625Y-51183829D02*
X105800717Y-51207422D01*
X140146731Y-76971286D02*
X140098018Y-76977294D01*
X140634394Y-76755120D02*
X140595700Y-76785317D01*
X189397234Y-77573234D02*
X189240178Y-77485568D01*
X190720117Y-101665699D02*
X190733990Y-101645781D01*
X131465743Y-49570132D02*
X131447933Y-49554424D01*
X130965855Y-45793258D02*
X130985697Y-45780248D01*
X163858107Y-25452634D02*
X163822559Y-25486478D01*
X164670165Y-44344659D02*
X164759958Y-44496101D01*
X131132687Y-20812344D02*
X130985697Y-20710890D01*
X105594288Y-99967091D02*
X105598321Y-99992684D01*
X106948071Y-78045478D02*
X106930259Y-78061188D01*
X129236436Y-46445043D02*
X129260631Y-46441454D01*
X188847372Y-20319748D02*
X188677002Y-20254519D01*
X133075990Y-98093243D02*
X133108049Y-98056078D01*
X140671559Y-76723061D02*
X140634394Y-76755120D01*
X132843811Y-80903918D02*
X132842449Y-80877851D01*
X165113722Y-21509500D02*
X165002748Y-21646490D01*
X160613984Y-102524183D02*
X160749930Y-102409917D01*
X138889697Y-74977045D02*
X139089669Y-74981959D01*
X156168530Y-75426539D02*
X156196792Y-75386410D01*
X156004815Y-75884091D02*
X156010823Y-75835378D01*
X131612894Y-21215984D02*
X131595808Y-21199404D01*
X132868215Y-81922728D02*
X132859824Y-81874368D01*
X190490278Y-44981710D02*
X190601250Y-44844732D01*
X110893092Y-76962895D02*
X110844732Y-76971286D01*
X165534256Y-73903151D02*
X165552071Y-73918862D01*
X164490243Y-22506030D02*
X164480246Y-22528952D01*
X156528603Y-75100188D02*
X156572444Y-75078120D01*
X133750982Y-54231767D02*
X133702269Y-54225759D01*
X164174635Y-42804620D02*
X164198286Y-42984981D01*
X164413623Y-100780624D02*
X164480245Y-100944436D01*
X133293430Y-40914057D02*
X133334897Y-40887798D01*
X134855553Y-23895742D02*
X134854191Y-23921807D01*
X130965855Y-102775368D02*
X130985697Y-102762358D01*
X132764992Y-51794380D02*
X132759671Y-51769168D01*
X189915983Y-77931199D02*
X189897466Y-77916369D01*
X158325910Y-103452779D02*
X158350322Y-103450372D01*
X163924010Y-25379921D02*
X163891951Y-25417086D01*
X140803208Y-76577809D02*
X140773011Y-76616503D01*
X189397234Y-102882111D02*
X189417710Y-102870037D01*
X160115711Y-102870037D02*
X160267854Y-102775368D01*
X111579922Y-76453507D02*
X111555730Y-76496213D01*
X107759825Y-20503458D02*
X107602768Y-20591123D01*
X163665103Y-82585366D02*
X163622397Y-82609558D01*
X133947019Y-82722822D02*
X133898069Y-82726432D01*
X185706299Y-46687847D02*
X185746428Y-46659585D01*
X163982469Y-69681011D02*
X164008728Y-69722479D01*
X164564806Y-50837159D02*
X164490243Y-50997085D01*
X105876247Y-43962326D02*
X105886246Y-43985253D01*
X107244124Y-74155932D02*
X107263317Y-74169862D01*
X133075990Y-41111133D02*
X133108049Y-41073968D01*
X128596053Y-76982110D02*
X127698000Y-76982110D01*
X135273848Y-50814936D02*
X135262807Y-50837159D01*
X186203981Y-46495870D02*
X186252930Y-46492259D01*
X140980785Y-47295963D02*
X140989177Y-47344323D01*
X170258939Y-75691824D02*
X170272030Y-75739129D01*
X163665103Y-54094311D02*
X163622397Y-54118503D01*
X129048326Y-48513850D02*
X129023908Y-48511442D01*
X188049608Y-46409369D02*
X188073516Y-46404619D01*
X190933835Y-22146599D02*
X190844040Y-21995145D01*
X189897466Y-74047957D02*
X189915983Y-74033128D01*
X185667605Y-76755120D02*
X185630440Y-76723061D01*
X135700749Y-21646490D02*
X135686023Y-21665594D01*
X134805941Y-53526867D02*
X134790545Y-53573473D01*
X185919315Y-76905989D02*
X185874443Y-76886099D01*
X127407716Y-48447995D02*
X127361110Y-48432599D01*
X165867315Y-102660917D02*
X166014304Y-102762358D01*
X105594288Y-23506335D02*
X105570637Y-23686699D01*
X190490277Y-78491610D02*
X190474734Y-78473338D01*
X134986399Y-80061185D02*
X134979834Y-80085924D01*
X165848122Y-45664877D02*
X165867315Y-45678807D01*
X170301999Y-47491055D02*
X170300794Y-47540123D01*
X107430148Y-45793258D02*
X107582291Y-45887926D01*
X187200051Y-20000000D02*
X168403950Y-20000000D01*
X191039193Y-101127274D02*
X191113754Y-100967364D01*
X109372096Y-77002497D02*
X109347678Y-77004905D01*
X132759671Y-80260223D02*
X132718168Y-80085925D01*
X188073516Y-103386729D02*
X188255160Y-103346013D01*
X164240330Y-80260223D02*
X164235009Y-80285435D01*
X130265562Y-77310969D02*
X130243374Y-77301858D01*
X131612895Y-102257313D02*
X131736830Y-102131199D01*
X131612895Y-45275203D02*
X131736830Y-45149089D01*
X161955748Y-100589530D02*
X161963510Y-100565332D01*
X110940982Y-76952141D02*
X110893092Y-76962895D01*
X105594288Y-51997390D02*
X105570637Y-52177754D01*
X164151000Y-98727636D02*
X164151000Y-99346240D01*
X164202319Y-71501629D02*
X164235009Y-71679040D01*
X134772880Y-82110321D02*
X134752990Y-82155193D01*
X109799952Y-20000000D02*
X109787669Y-20000150D01*
X164240330Y-71704254D02*
X164281833Y-71878544D01*
X164288398Y-51570130D02*
X164281833Y-51594869D01*
X166568274Y-74580360D02*
X166734439Y-74653291D01*
X169816102Y-48348783D02*
X169773396Y-48372976D01*
X164151000Y-81109304D02*
X164151000Y-81727638D01*
X136904766Y-74391057D02*
X137061824Y-74478713D01*
X132991272Y-82241740D02*
X132967079Y-82199034D01*
X168167145Y-46484783D02*
X168191696Y-46485990D01*
X160453877Y-49317328D02*
X160434686Y-49303399D01*
X134276556Y-54140571D02*
X134231685Y-54160462D01*
X108152629Y-46171346D02*
X108323002Y-46236569D01*
X166363823Y-74478713D02*
X166384895Y-74489824D01*
X136565316Y-77794453D02*
X136546124Y-77808383D01*
X137432439Y-48819915D02*
X137266274Y-48892854D01*
X134847796Y-70187513D02*
X134849001Y-70236581D01*
X161418119Y-50298701D02*
X161313978Y-50156649D01*
X191265508Y-22908074D02*
X191257748Y-22883878D01*
X186301998Y-76982110D02*
X186252930Y-76980905D01*
X132849001Y-70855186D02*
X132849001Y-70236581D01*
X164759959Y-21995145D02*
X164670164Y-22146599D01*
X165246839Y-49850599D02*
X165129265Y-49982283D01*
X164870009Y-50318619D02*
X164772930Y-50465492D01*
X161811755Y-100967364D02*
X161821756Y-100944435D01*
X131736830Y-102131199D02*
X131753163Y-102113765D01*
X163746699Y-40942319D02*
X163785393Y-40972516D01*
X109587698Y-74977045D02*
X109787670Y-74981959D01*
X164759958Y-101478211D02*
X164772931Y-101498921D01*
X105684400Y-23079075D02*
X105677835Y-23103814D01*
X132711603Y-71903285D02*
X132718168Y-71878544D01*
X133799932Y-97728842D02*
X133849000Y-97727637D01*
X132853816Y-81825655D02*
X132850205Y-81776706D01*
X132595284Y-72265978D02*
X132653749Y-72098475D01*
X107102535Y-49425315D02*
X107084020Y-49440143D01*
X131293468Y-77916369D02*
X131151878Y-77808383D01*
X109135373Y-48540663D02*
X108950396Y-48572752D01*
X190216893Y-45275203D02*
X190340828Y-45149089D01*
X169638890Y-76923654D02*
X169592284Y-76939050D01*
X156043060Y-47200769D02*
X156058456Y-47154164D01*
X106525269Y-101982095D02*
X106642840Y-102113765D01*
X139101951Y-48491055D02*
X139089668Y-48491205D01*
X130985697Y-20710890D02*
X130965855Y-20697880D01*
X164171924Y-52203642D02*
X164157552Y-52386797D01*
X188255159Y-48618223D02*
X188073517Y-48577503D01*
X130431728Y-20401799D02*
X130265562Y-20328859D01*
X164074879Y-53619266D02*
X164054989Y-53664138D01*
X160613984Y-49440144D02*
X160595467Y-49425314D01*
X126708824Y-47637786D02*
X126702816Y-47589073D01*
X162293271Y-53750685D02*
X162269078Y-53707979D01*
X168191697Y-48496119D02*
X168167144Y-48497327D01*
X163101931Y-40746732D02*
X163150999Y-40745527D01*
X162347792Y-82323337D02*
X162319530Y-82283208D01*
X162161823Y-70089851D02*
X162170214Y-70041491D01*
X108744843Y-77109278D02*
X108721287Y-77115163D01*
X135811722Y-44981710D02*
X135827268Y-44999985D01*
X165552071Y-73918862D02*
X165688018Y-74033129D01*
X164490243Y-79488140D02*
X164480246Y-79511062D01*
X140595700Y-75178902D02*
X140634394Y-75209099D01*
X185594892Y-48198162D02*
X185561048Y-48162614D01*
X132595284Y-79698475D02*
X132586378Y-79674887D01*
X134363104Y-82585366D02*
X134320398Y-82609558D01*
X108323002Y-74727624D02*
X108345687Y-74735687D01*
X185345059Y-47781340D02*
X185331968Y-47734035D01*
X161963509Y-22908074D02*
X161955749Y-22883878D01*
X105547002Y-70855185D02*
X105547172Y-70868230D01*
X140595700Y-48294262D02*
X140555571Y-48322524D01*
X138649680Y-74959317D02*
X138674092Y-74961724D01*
X138046841Y-103346013D02*
X138228485Y-103386729D01*
X138046842Y-20127168D02*
X138023286Y-20133053D01*
X140595700Y-76785317D02*
X140555571Y-76813579D01*
X163706570Y-69405112D02*
X163746699Y-69433374D01*
X168391668Y-103473014D02*
X168403949Y-103473164D01*
X189589695Y-102762358D02*
X189736684Y-102660916D01*
X191452999Y-99346241D02*
X191452999Y-81109303D01*
X160287696Y-77693000D02*
X160267854Y-77679990D01*
X131595808Y-21199404D02*
X131465743Y-21079077D01*
X134404571Y-82559107D02*
X134363104Y-82585366D01*
X156999999Y-76982110D02*
X156950931Y-76980905D01*
X127102301Y-75178902D02*
X127142430Y-75150640D01*
X161821756Y-43962325D02*
X161888377Y-43798511D01*
X162013602Y-43412230D02*
X162020167Y-43387489D01*
X111696796Y-47441986D02*
X111698001Y-47491054D01*
X105876248Y-79511062D02*
X105809625Y-79674884D01*
X132341868Y-44323177D02*
X132424154Y-44167386D01*
X189569853Y-77679990D02*
X189417710Y-77585310D01*
X107942627Y-74570235D02*
X107964276Y-74580360D01*
X158976715Y-103340130D02*
X159154819Y-103291015D01*
X163706570Y-97896167D02*
X163746699Y-97924429D01*
X162555300Y-54039790D02*
X162516606Y-54009593D01*
X191028152Y-22323881D02*
X190945865Y-22168080D01*
X187412304Y-74977045D02*
X187436855Y-74975838D01*
X137845183Y-46308905D02*
X138023287Y-46358020D01*
X191322166Y-80085924D02*
X191315601Y-80061185D01*
X135470932Y-101498921D02*
X135568010Y-101645781D01*
X189755876Y-20826273D02*
X189736685Y-20812344D01*
X191432075Y-23712587D02*
X191429364Y-23686699D01*
X140242981Y-48461086D02*
X140195091Y-48471840D01*
X135686023Y-78647704D02*
X135581882Y-78789756D01*
X109159568Y-103427153D02*
X109347681Y-103450372D01*
X185594892Y-75275002D02*
X185630440Y-75241158D01*
X167951676Y-48513850D02*
X167763568Y-48537073D01*
X164092544Y-69899691D02*
X164107940Y-69946297D01*
X191322166Y-23103814D02*
X191315601Y-23079075D01*
X111501209Y-48086754D02*
X111471012Y-48125448D01*
X170205988Y-47063499D02*
X170225879Y-47108370D01*
X136565316Y-102660917D02*
X136712305Y-102762358D01*
X190844041Y-44496101D02*
X190933834Y-44344659D01*
X156118079Y-75510712D02*
X156142271Y-75468006D01*
X132878969Y-69993601D02*
X132892060Y-69946297D01*
X137432439Y-20328860D02*
X137266274Y-20401799D01*
X165263171Y-78324219D02*
X165246839Y-78341654D01*
X129236436Y-103427153D02*
X129260631Y-103423564D01*
X133075990Y-25379921D02*
X133045793Y-25341227D01*
X134938331Y-71704254D02*
X134979834Y-71878544D01*
X127502910Y-76962895D02*
X127455020Y-76952141D01*
X156617316Y-75058230D02*
X156663109Y-75040565D01*
X162293271Y-69722479D02*
X162319530Y-69681011D01*
X161726153Y-22323881D02*
X161643866Y-22168080D01*
X190199806Y-21199404D02*
X190069741Y-21079077D01*
X159545374Y-46171346D02*
X159567561Y-46162237D01*
X159733727Y-74580360D02*
X159755374Y-74570235D01*
X162479440Y-41004576D02*
X162516606Y-40972516D01*
X107430148Y-102775368D02*
X107582291Y-102870036D01*
X166363823Y-48994513D02*
X166206766Y-49082178D01*
X110844732Y-74992933D02*
X110893092Y-75001324D01*
X135273848Y-44167386D02*
X135356134Y-44323177D01*
X131736830Y-73640144D02*
X131753163Y-73622710D01*
X107244125Y-20826273D02*
X107102535Y-20934260D01*
X136884290Y-77585311D02*
X136732147Y-77679990D01*
X132849001Y-24745528D02*
X132849001Y-24127193D01*
X105960808Y-22346104D02*
X105886245Y-22506030D01*
X156617316Y-46567175D02*
X156663109Y-46549510D01*
X191368990Y-100170095D02*
X191401680Y-99992684D01*
X186011714Y-46534114D02*
X186059018Y-46521023D01*
X163954207Y-25341227D02*
X163924010Y-25379921D01*
X140514103Y-46633326D02*
X140555571Y-46659585D01*
X162479440Y-53977533D02*
X162443892Y-53943689D01*
X109799952Y-48491055D02*
X109787669Y-48491205D01*
X158350325Y-48513850D02*
X158325907Y-48511442D01*
X165706533Y-102539011D02*
X165848122Y-102646987D01*
X186059018Y-48461086D02*
X186011714Y-48447995D01*
X164480245Y-43962326D02*
X164490244Y-43985253D01*
X132240042Y-21995145D02*
X132227071Y-21974437D01*
X164575847Y-44167386D02*
X164658133Y-44323177D01*
X138865146Y-46484783D02*
X138889697Y-46485990D01*
X167554394Y-77063807D02*
X167530483Y-77068558D01*
X111369560Y-75241158D02*
X111405108Y-75275002D01*
X169302000Y-46491055D02*
X169351068Y-46492259D01*
X185301999Y-47491054D02*
X185303204Y-47441986D01*
X138252394Y-74900424D02*
X138437373Y-74932509D01*
X169638890Y-48432599D02*
X169592284Y-48447995D01*
X185321214Y-75787018D02*
X185331968Y-75739129D01*
X189057373Y-77394035D02*
X189035726Y-77383909D01*
X162020167Y-71878544D02*
X162061670Y-71704254D01*
X140595700Y-46687847D02*
X140634394Y-46718044D01*
X167554393Y-103391479D02*
X167739372Y-103423564D01*
X132925121Y-98344953D02*
X132945011Y-98300081D01*
X140195091Y-46510269D02*
X140242981Y-46521023D01*
X111579922Y-47962452D02*
X111555730Y-48005158D01*
X164346251Y-22883880D02*
X164338491Y-22908073D01*
X131447931Y-45427807D02*
X131465745Y-45412097D01*
X134855553Y-99577693D02*
X134869925Y-99760842D01*
X135102716Y-22716367D02*
X135044252Y-22883879D01*
X162269078Y-69765185D02*
X162293271Y-69722479D01*
X110698002Y-48491055D02*
X109799952Y-48491055D01*
X164281833Y-100369599D02*
X164288398Y-100394340D01*
X126794012Y-75554554D02*
X126816080Y-75510712D01*
X185528988Y-75347716D02*
X185561048Y-75310550D01*
X107780897Y-20492346D02*
X107759825Y-20503458D01*
X131595807Y-102273893D02*
X131612895Y-102257313D01*
X132116120Y-21807646D02*
X132011979Y-21665594D01*
X127183898Y-75124381D02*
X127226604Y-75100188D01*
X111369560Y-76723061D02*
X111332395Y-76755120D01*
X170159728Y-46976951D02*
X170183920Y-47019657D01*
X156999999Y-74982110D02*
X157898053Y-74982110D01*
X156096011Y-47063499D02*
X156118079Y-47019657D01*
X132424154Y-101149496D02*
X132435195Y-101127275D01*
X169351068Y-46492259D02*
X169400017Y-46495870D01*
X132892060Y-82017922D02*
X132878969Y-81970618D01*
X126924990Y-46856661D02*
X126957050Y-46819495D01*
X132868215Y-98532546D02*
X132878969Y-98484656D01*
X159154819Y-103291015D02*
X159177967Y-103284026D01*
X139101950Y-46491055D02*
X140000001Y-46491055D01*
X106509724Y-21509500D02*
X106398750Y-21646490D01*
X126957050Y-75310550D02*
X126990894Y-75275002D01*
X156001205Y-76031178D02*
X156000000Y-75982110D01*
X159938179Y-48994513D02*
X159917105Y-48983400D01*
X140555571Y-75150640D02*
X140595700Y-75178902D01*
X161529070Y-50465492D02*
X161431991Y-50318619D01*
X191315601Y-51570130D02*
X191265508Y-51399129D01*
X169897699Y-46687847D02*
X169936393Y-46718044D01*
X190945865Y-50659135D02*
X190933835Y-50637655D01*
X137454628Y-20319748D02*
X137432439Y-20328860D01*
X136404534Y-74047956D02*
X136546123Y-74155932D01*
X106783109Y-78198094D02*
X106659173Y-78324219D01*
X164008728Y-25259630D02*
X163982469Y-25301098D01*
X111438952Y-76653669D02*
X111405108Y-76689217D01*
X135457959Y-44496101D02*
X135470932Y-44516811D01*
X167530484Y-103386729D02*
X167554393Y-103391479D01*
X133108049Y-69565023D02*
X133141893Y-69529475D01*
X134706729Y-25259630D02*
X134680470Y-25301098D01*
X188654314Y-103226742D02*
X188677000Y-103218678D01*
X161542042Y-44496101D02*
X161631835Y-44344659D01*
X169729555Y-76886099D02*
X169684683Y-76905989D01*
X134844185Y-24843545D02*
X134838177Y-24892258D01*
X158562630Y-103423564D02*
X158747609Y-103391479D01*
X132991272Y-53750685D02*
X132967079Y-53707979D01*
X186301998Y-46491055D02*
X187200052Y-46491055D01*
X170159728Y-76496213D02*
X170133469Y-76537680D01*
X134044092Y-97746852D02*
X134091981Y-97757606D01*
X169497090Y-46510269D02*
X169544980Y-46521023D01*
X189755876Y-74155933D02*
X189897466Y-74047957D01*
X164281833Y-80085925D02*
X164240330Y-80260223D01*
X134847796Y-81776706D02*
X134844185Y-81825655D01*
X111405108Y-46783947D02*
X111438952Y-46819495D01*
X159733727Y-48892854D02*
X159567561Y-48819914D01*
X188278715Y-77115163D02*
X188255159Y-77109278D01*
X134556108Y-41038420D02*
X134589952Y-41073968D01*
X140427556Y-46587065D02*
X140471397Y-46609133D01*
X162013602Y-100394340D02*
X162020167Y-100369599D01*
X132848830Y-52605205D02*
X132843811Y-52412863D01*
X156096011Y-47918610D02*
X156076120Y-47873739D01*
X111601990Y-47918610D02*
X111579922Y-47962452D01*
X132849001Y-81727638D02*
X132849001Y-81109303D01*
X133017531Y-25301098D02*
X132991272Y-25259630D01*
X132925121Y-69853898D02*
X132945011Y-69809026D01*
X162020167Y-100369599D02*
X162061670Y-100195309D01*
X160613984Y-74033128D02*
X160749930Y-73918862D01*
X165246838Y-45131655D02*
X165263171Y-45149089D01*
X167530483Y-20086448D02*
X167348841Y-20127168D01*
X111639545Y-47827945D02*
X111621881Y-47873739D01*
X158538435Y-103427153D02*
X158562630Y-103423564D01*
X127063607Y-76755120D02*
X127026442Y-76723061D01*
X162768315Y-69312702D02*
X162814109Y-69295038D01*
X133947019Y-54231767D02*
X133898069Y-54235377D01*
X185444270Y-75468006D02*
X185470529Y-75426539D01*
X133253301Y-54039790D02*
X133214607Y-54009593D01*
X128596054Y-46491054D02*
X128608335Y-46490904D01*
X162145810Y-80903918D02*
X162144448Y-80877851D01*
X134855553Y-80877852D02*
X134854191Y-80903917D01*
X133995732Y-69247405D02*
X134044092Y-69255797D01*
X107780897Y-102980879D02*
X107942627Y-103061290D01*
X109159569Y-77028128D02*
X109135373Y-77031718D01*
X168191696Y-46485990D02*
X168391668Y-46490904D01*
X163891951Y-98056078D02*
X163924010Y-98093243D01*
X156757019Y-46521023D02*
X156804909Y-46510269D01*
X169592284Y-46534114D02*
X169638890Y-46549510D01*
X107964276Y-46089305D02*
X108130441Y-46162236D01*
X162410048Y-82399196D02*
X162377989Y-82362031D01*
X133177441Y-97986686D02*
X133214607Y-97954626D01*
X164288398Y-23079075D02*
X164281833Y-23103814D01*
X106659173Y-49833164D02*
X106642841Y-49850599D01*
X186059018Y-46521023D02*
X186106908Y-46510269D01*
X189589695Y-49201945D02*
X189569853Y-49188935D01*
X133466316Y-69312702D02*
X133512110Y-69295038D01*
X164413623Y-72289569D02*
X164480245Y-72453381D01*
X188278714Y-103340130D02*
X188456818Y-103291015D01*
X163441285Y-97770697D02*
X163487890Y-97786093D01*
X135368166Y-101326769D02*
X135457959Y-101478211D01*
X156168530Y-48046625D02*
X156142271Y-48005158D01*
X128832858Y-48497327D02*
X128808305Y-48496119D01*
X105598321Y-99992684D02*
X105631011Y-100170095D01*
X162595429Y-69405112D02*
X162636896Y-69378853D01*
X134854191Y-80903917D02*
X134849171Y-81096259D01*
X156004815Y-76080128D02*
X156001205Y-76031178D01*
X162410048Y-53908141D02*
X162377989Y-53870976D01*
X140049069Y-46492259D02*
X140098018Y-46495870D01*
X190051929Y-102409917D02*
X190069743Y-102394207D01*
X191446447Y-42595584D02*
X191447809Y-42569516D01*
X190933834Y-44344659D02*
X190945866Y-44323177D01*
X163297731Y-40756350D02*
X163346091Y-40764742D01*
X134752990Y-25173083D02*
X134730922Y-25216924D01*
X134869925Y-23712587D02*
X134855553Y-23895742D01*
X130965855Y-49188935D02*
X130813712Y-49094255D01*
X134044092Y-82708422D02*
X133995732Y-82716814D01*
X105552192Y-71060572D02*
X105553554Y-71086638D01*
X161418118Y-101665699D02*
X161431991Y-101645781D01*
X158350325Y-77004905D02*
X158325907Y-77002497D01*
X164171924Y-71269787D02*
X164174635Y-71295675D01*
X133108049Y-82399196D02*
X133075990Y-82362031D01*
X109372096Y-20020387D02*
X109347678Y-20022795D01*
X163785393Y-54009593D02*
X163746699Y-54039790D01*
X186106908Y-76962895D02*
X186059018Y-76952141D01*
X190340828Y-45149089D02*
X190357161Y-45131655D01*
X159917105Y-74489824D02*
X159938179Y-74478713D01*
X189736684Y-74169861D02*
X189755876Y-74155933D01*
X157898052Y-48491055D02*
X156999999Y-48491055D01*
X163924010Y-53870976D02*
X163891951Y-53908141D01*
X133177441Y-25486478D02*
X133141893Y-25452634D01*
X162144448Y-71086639D02*
X162145810Y-71060571D01*
X109563147Y-74975838D02*
X109587698Y-74977045D01*
X163891951Y-25417086D02*
X163858107Y-25452634D01*
X162377989Y-98093243D02*
X162410048Y-98056078D01*
X133214607Y-69463571D02*
X133253301Y-69433374D01*
X162170214Y-81922728D02*
X162161823Y-81874368D01*
X157910335Y-48491205D02*
X157898052Y-48491055D01*
X164988021Y-73316684D02*
X165002749Y-73335787D01*
X137061824Y-45987658D02*
X137082896Y-45998769D01*
X134652208Y-82323337D02*
X134622011Y-82362031D01*
X162636896Y-40887798D02*
X162679602Y-40863606D01*
X109787669Y-76982260D02*
X109587699Y-76987174D01*
X164759958Y-72987156D02*
X164772931Y-73007866D01*
X163622397Y-82609558D02*
X163578555Y-82631626D01*
X134091981Y-69266551D02*
X134139286Y-69279642D01*
X105809625Y-43798514D02*
X105876247Y-43962326D01*
X170225879Y-75599425D02*
X170243543Y-75645219D01*
X134979834Y-100369599D02*
X134986399Y-100394340D01*
X185528988Y-76616503D02*
X185498791Y-76577809D01*
X137454628Y-103153456D02*
X137625001Y-103218679D01*
X138252395Y-77063807D02*
X138228484Y-77068558D01*
X160767742Y-21079077D02*
X160749932Y-21063369D01*
X159567561Y-74653292D02*
X159733727Y-74580360D01*
X131886279Y-21509500D02*
X131870736Y-21491228D01*
X191429364Y-71295675D02*
X191432075Y-71269787D01*
X108926486Y-74895674D02*
X108950395Y-74900424D01*
X129048323Y-46468262D02*
X129236436Y-46445043D01*
X108152629Y-77301858D02*
X108130440Y-77310970D01*
X164281833Y-51594870D02*
X164240330Y-51769168D01*
X161643866Y-50659135D02*
X161631836Y-50637655D01*
X162347792Y-98131937D02*
X162377989Y-98093243D01*
X133849001Y-40745527D02*
X133898069Y-40746732D01*
X138649677Y-20022795D02*
X138461569Y-20046018D01*
X191363669Y-43213199D02*
X191368990Y-43187985D01*
X164149795Y-70187513D02*
X164151000Y-70236581D01*
X134680470Y-69681011D02*
X134706729Y-69722479D01*
X136904767Y-20591123D02*
X136884290Y-20603201D01*
X137061824Y-74478713D02*
X137082896Y-74489824D01*
X132711603Y-43412230D02*
X132718168Y-43387489D01*
X131293468Y-74047957D02*
X131311985Y-74033128D01*
X107410306Y-45780248D02*
X107430148Y-45793258D01*
X191452999Y-42364131D02*
X191452999Y-24127193D01*
X126990894Y-48198162D02*
X126957050Y-48162614D01*
X166363823Y-45987658D02*
X166384895Y-45998769D01*
X106948071Y-21063368D02*
X106930259Y-21079078D01*
X134979834Y-43387489D02*
X134986399Y-43412230D01*
X163487890Y-97786093D02*
X163533684Y-97803757D01*
X188456818Y-20182173D02*
X188278715Y-20133053D01*
X137822035Y-74792971D02*
X137845183Y-74799960D01*
X134652208Y-41149827D02*
X134680470Y-41189956D01*
X170291176Y-75835378D02*
X170297184Y-75884091D01*
X169497090Y-76962895D02*
X169448730Y-76971286D01*
X164140176Y-24892258D02*
X164131785Y-24940618D01*
X134589952Y-25417086D02*
X134556108Y-25452634D01*
X166186289Y-102870036D02*
X166206765Y-102882112D01*
X134933010Y-51794380D02*
X134900320Y-51971798D01*
X156853269Y-76971286D02*
X156804909Y-76962895D01*
X156804909Y-46510269D02*
X156853269Y-46501878D01*
X132850205Y-53285651D02*
X132849001Y-53236583D01*
X105742254Y-43607419D02*
X105800717Y-43774921D01*
X140242981Y-46521023D02*
X140290285Y-46534114D01*
X132764992Y-43187985D02*
X132797682Y-43010574D01*
X106783108Y-45275203D02*
X106800196Y-45291783D01*
X132945011Y-53664138D02*
X132925121Y-53619266D01*
X188654314Y-46244632D02*
X188677000Y-46236568D01*
X134849171Y-81096259D02*
X134849001Y-81109304D01*
X140634394Y-48264065D02*
X140595700Y-48294262D01*
X132850205Y-70187513D02*
X132853816Y-70138564D01*
X132519756Y-22528953D02*
X132509758Y-22506029D01*
X132828077Y-23712587D02*
X132825366Y-23686699D01*
X134556108Y-98020530D02*
X134589952Y-98056078D01*
X156444429Y-48322524D02*
X156404300Y-48294262D01*
X134680470Y-25301098D02*
X134652208Y-25341227D01*
X130813712Y-20603200D02*
X130793236Y-20591124D01*
X160453877Y-102646988D02*
X160595467Y-102539012D01*
X133141893Y-53943689D02*
X133108049Y-53908141D01*
X165129267Y-101982095D02*
X165246838Y-102113765D01*
X130793236Y-77573234D02*
X130636180Y-77485568D01*
X191039193Y-44145164D02*
X191113754Y-43985254D01*
X185345059Y-47200769D02*
X185360455Y-47154164D01*
X127063607Y-75209099D02*
X127102301Y-75178902D01*
X162150999Y-81109303D02*
X162150829Y-81096260D01*
X127599983Y-76977294D02*
X127551270Y-76971286D01*
X167951679Y-103450372D02*
X167976091Y-103452779D01*
X170258939Y-47781340D02*
X170243543Y-47827945D01*
X159755374Y-20411925D02*
X159733727Y-20401799D01*
X106384024Y-50156649D02*
X106279883Y-50298701D01*
X129852820Y-77164283D02*
X129674717Y-77115163D01*
X162247010Y-69809026D02*
X162269078Y-69765185D01*
X126794012Y-47918610D02*
X126774121Y-47873739D01*
X132653750Y-22883878D02*
X132595284Y-22716365D01*
X164202319Y-80462853D02*
X164198286Y-80488445D01*
X158538435Y-74936098D02*
X158562630Y-74932509D01*
X134849001Y-81727638D02*
X134847796Y-81776706D01*
X187412303Y-76987174D02*
X187212334Y-76982260D01*
X111555730Y-76496213D02*
X111529471Y-76537680D01*
X133141893Y-25452634D02*
X133108049Y-25417086D01*
X191401680Y-80462853D02*
X191368990Y-80285435D01*
X162347792Y-41149827D02*
X162377989Y-41111133D01*
X132329837Y-79128709D02*
X132240042Y-78977255D01*
X140857729Y-46976951D02*
X140881921Y-47019657D01*
X162127365Y-99786730D02*
X162130076Y-99760842D01*
X110796019Y-46495870D02*
X110844732Y-46501878D01*
X169729555Y-75078120D02*
X169773396Y-75100188D01*
X105960808Y-44145165D02*
X105971849Y-44167386D01*
X134933010Y-23303325D02*
X134900320Y-23480743D01*
X106155961Y-21995145D02*
X106066166Y-22146599D01*
X134752990Y-82155193D02*
X134730922Y-82199034D01*
X130813712Y-45887927D02*
X130965855Y-45793258D01*
X134730922Y-41274130D02*
X134752990Y-41317971D01*
X111501209Y-46895355D02*
X111529471Y-46935484D01*
X106168933Y-44516811D02*
X106266011Y-44663671D01*
X140098018Y-46495870D02*
X140146731Y-46501878D01*
X131311985Y-74033128D02*
X131447931Y-73918862D01*
X163982469Y-98172066D02*
X164008728Y-98213534D01*
X164131785Y-70041491D02*
X164140176Y-70089851D01*
X162443892Y-53943689D02*
X162410048Y-53908141D01*
X109799951Y-74982110D02*
X110698002Y-74982110D01*
X162516606Y-97954626D02*
X162555300Y-97924429D01*
X132945011Y-69809026D02*
X132967079Y-69765185D01*
X134483394Y-69463571D02*
X134520560Y-69495631D01*
X108721287Y-48624108D02*
X108543184Y-48673228D01*
X185312822Y-75835378D02*
X185321214Y-75787018D01*
X163785393Y-82500648D02*
X163746699Y-82530845D01*
X170009106Y-76689217D02*
X169973558Y-76723061D01*
X127455020Y-46521023D02*
X127502910Y-46510269D01*
X106279883Y-21807646D02*
X106266011Y-21827564D01*
X140146731Y-46501878D02*
X140195091Y-46510269D01*
X164870009Y-44663671D02*
X164883882Y-44683589D01*
X191452828Y-24114150D02*
X191447809Y-23921808D01*
X131465745Y-45412097D02*
X131595807Y-45291783D01*
X105552192Y-80903917D02*
X105547172Y-81096259D01*
X133108049Y-98056078D02*
X133141893Y-98020530D01*
X169857570Y-48322524D02*
X169816102Y-48348783D01*
X132424154Y-72658441D02*
X132435195Y-72636220D01*
X133253301Y-97924429D02*
X133293430Y-97896167D01*
X191199282Y-43774923D02*
X191257747Y-43607420D01*
X138461568Y-77028128D02*
X138437372Y-77031718D01*
X109347681Y-46468262D02*
X109372093Y-46470669D01*
X164198286Y-80488445D02*
X164174635Y-80668809D01*
X140000001Y-76982110D02*
X139101951Y-76982110D01*
X158134857Y-76988382D02*
X158110304Y-76987174D01*
X188255160Y-103346013D02*
X188278714Y-103340130D01*
X160287696Y-74271303D02*
X160434685Y-74169861D01*
X132424154Y-22323881D02*
X132341867Y-22168080D01*
X129445608Y-20081697D02*
X129260632Y-20049608D01*
X169973558Y-75241158D02*
X170009106Y-75275002D01*
X185787896Y-76839838D02*
X185746428Y-76813579D01*
X107263317Y-20812343D02*
X107244125Y-20826273D01*
X190733990Y-101645781D02*
X190831068Y-101498921D01*
X133898069Y-82726432D02*
X133849001Y-82727637D01*
X164281833Y-43387489D02*
X164288398Y-43412230D01*
X140980785Y-47686146D02*
X140970031Y-47734035D01*
X164151170Y-70868230D02*
X164156190Y-71060572D01*
X106279883Y-78789756D02*
X106266011Y-78809674D01*
X130265562Y-103144347D02*
X130431728Y-103071415D01*
X164202319Y-99992684D02*
X164235009Y-100170095D01*
X164074879Y-82110321D02*
X164054989Y-82155193D01*
X111696796Y-76031178D02*
X111693186Y-76080128D01*
X107410306Y-20710890D02*
X107263317Y-20812343D01*
X162227120Y-98344953D02*
X162247010Y-98300081D01*
X163101931Y-54235377D02*
X163052981Y-54231767D01*
X164149795Y-41696458D02*
X164151000Y-41745526D01*
X167739372Y-46441454D02*
X167763566Y-46445043D01*
X134680470Y-98172066D02*
X134706729Y-98213534D01*
X170291176Y-47344323D02*
X170297184Y-47393036D01*
X162443892Y-69529475D02*
X162479440Y-69495631D01*
X132711603Y-100394340D02*
X132718168Y-100369599D01*
X132129992Y-78809674D02*
X132116120Y-78789756D01*
X127455020Y-76952141D02*
X127407716Y-76939050D01*
X191028152Y-101149496D02*
X191039193Y-101127275D01*
X106266011Y-21827564D02*
X106168932Y-21974437D01*
X185345059Y-75691824D02*
X185360455Y-75645219D01*
X165404194Y-73782838D02*
X165534256Y-73903151D01*
X105553554Y-80877852D02*
X105552192Y-80903917D01*
X136232258Y-78061188D02*
X136102194Y-78181514D01*
X140671559Y-75241158D02*
X140707107Y-75275002D01*
X132227071Y-21974437D02*
X132129992Y-21827564D01*
X164564806Y-101127275D02*
X164575847Y-101149496D01*
X168167145Y-74975838D02*
X168191696Y-74977045D01*
X165404193Y-78181514D02*
X165387107Y-78198094D01*
X163924010Y-69602188D02*
X163954207Y-69640882D01*
X105677835Y-51594870D02*
X105636332Y-51769168D01*
X133750982Y-69241397D02*
X133799932Y-69237787D01*
X131753162Y-21359544D02*
X131736830Y-21342109D01*
X135700749Y-78628600D02*
X135686023Y-78647704D01*
X160897807Y-78181514D02*
X160767742Y-78061187D01*
X132227070Y-73007866D02*
X132240043Y-72987156D01*
X163785393Y-97954626D02*
X163822559Y-97986686D01*
X164658134Y-22168080D02*
X164575847Y-22323881D01*
X158953161Y-74854958D02*
X158976715Y-74849075D01*
X127698000Y-76982110D02*
X127648932Y-76980905D01*
X140831470Y-48046625D02*
X140803208Y-48086754D01*
X110796019Y-74986925D02*
X110844732Y-74992933D01*
X169592284Y-76939050D02*
X169544980Y-76952141D01*
X160115711Y-77585310D02*
X160095235Y-77573234D01*
X134139286Y-82684577D02*
X134091981Y-82697668D01*
X132661511Y-72074277D02*
X132711603Y-71903285D01*
X169773396Y-76864031D02*
X169729555Y-76886099D01*
X133849000Y-54236582D02*
X133799932Y-54235377D01*
X132828077Y-52203642D02*
X132825366Y-52177754D01*
X185420078Y-76453507D02*
X185398010Y-76409665D01*
X188073517Y-77068558D02*
X188049607Y-77063807D01*
X130636180Y-102969768D02*
X130793236Y-102882111D01*
X166384895Y-45998769D02*
X166546625Y-46079180D01*
X127648932Y-76980905D02*
X127599983Y-76977294D01*
X132907456Y-82064528D02*
X132892060Y-82017922D01*
X170272030Y-47734035D02*
X170258939Y-47781340D01*
X186011714Y-48447995D02*
X185965108Y-48432599D01*
X134872636Y-42804620D02*
X134896287Y-42984981D01*
X162516606Y-69463571D02*
X162555300Y-69433374D01*
X105971849Y-22323881D02*
X105960808Y-22346104D01*
X106066166Y-50637655D02*
X106054136Y-50659135D01*
X107582291Y-77585311D02*
X107430148Y-77679990D01*
X162103714Y-51997390D02*
X162099681Y-51971798D01*
X159733727Y-46089305D02*
X159755374Y-46079180D01*
X163578555Y-25649516D02*
X163533684Y-25669407D01*
X189915983Y-45542073D02*
X190051929Y-45427807D01*
X132653750Y-51374933D02*
X132595284Y-51207420D01*
X167530484Y-46404619D02*
X167554393Y-46409369D01*
X160613984Y-45542073D02*
X160749930Y-45427807D01*
X136884290Y-20603201D02*
X136732147Y-20697880D01*
X161172733Y-44999985D02*
X161188279Y-44981710D01*
X185378119Y-75599425D02*
X185398010Y-75554554D01*
X108345689Y-77228563D02*
X108323000Y-77236629D01*
X135262807Y-101127275D02*
X135273848Y-101149496D01*
X164157552Y-42595583D02*
X164171924Y-42778732D01*
X135044253Y-72098474D02*
X135102716Y-72265976D01*
X135102716Y-100757031D02*
X135111624Y-100780624D01*
X187840433Y-20046018D02*
X187652324Y-20022795D01*
X160095235Y-77573234D02*
X159938179Y-77485568D01*
X185331968Y-47248074D02*
X185345059Y-47200769D01*
X105734493Y-22908073D02*
X105684400Y-23079075D01*
X158771518Y-20086448D02*
X158747608Y-20081697D01*
X136386019Y-102524184D02*
X136404534Y-102539011D01*
X135262807Y-79328214D02*
X135188244Y-79488140D01*
X187200052Y-103473164D02*
X187212333Y-103473014D01*
X106642841Y-49850599D02*
X106525267Y-49982283D01*
X106525269Y-73491040D02*
X106642840Y-73622710D01*
X162144448Y-42595584D02*
X162145810Y-42569516D01*
X164151170Y-52605204D02*
X164151000Y-52618249D01*
X188677002Y-20254519D02*
X188654312Y-20246453D01*
X191265509Y-100565332D02*
X191315601Y-100394340D01*
X135568010Y-78809674D02*
X135470931Y-78956547D01*
X134896287Y-42984981D02*
X134900320Y-43010574D01*
X162723444Y-40841538D02*
X162768315Y-40821647D01*
X164658134Y-50659135D02*
X164575847Y-50814936D01*
X185303204Y-47441986D02*
X185306814Y-47393036D01*
X109135374Y-46441454D02*
X109159568Y-46445043D01*
X159567561Y-77310969D02*
X159545373Y-77301858D01*
X130050316Y-103226742D02*
X130073002Y-103218678D01*
X169400017Y-74986925D02*
X169448730Y-74992933D01*
X111668032Y-47248074D02*
X111678786Y-47295963D01*
X135111624Y-79674884D02*
X135102716Y-79698477D01*
X138649677Y-48513850D02*
X138461569Y-48537073D01*
X134444700Y-82530845D02*
X134404571Y-82559107D01*
X132759671Y-43213199D02*
X132764992Y-43187985D01*
X109563146Y-76988382D02*
X109372096Y-77002497D01*
X167348840Y-103346013D02*
X167530484Y-103386729D01*
X140471397Y-48372976D02*
X140427556Y-48395044D01*
X140707107Y-46783947D02*
X140740951Y-46819495D01*
X163004268Y-69247405D02*
X163052981Y-69241397D01*
X132843811Y-52412863D02*
X132842449Y-52386796D01*
X126708824Y-76128841D02*
X126702816Y-76080128D01*
X134855553Y-71086638D02*
X134869925Y-71269787D01*
X164157552Y-52386797D02*
X164156190Y-52412862D01*
X127648932Y-74983314D02*
X127698000Y-74982110D01*
X130243375Y-46171346D02*
X130265562Y-46162237D01*
X129048323Y-74959317D02*
X129236436Y-74936098D01*
X106279884Y-101665699D02*
X106384023Y-101807739D01*
X156444429Y-46659585D02*
X156485897Y-46633326D01*
X159375001Y-103218678D02*
X159545374Y-103153456D01*
X107410306Y-49201945D02*
X107263317Y-49303398D01*
X140995185Y-47393036D02*
X140998795Y-47441986D01*
X138649680Y-46468262D02*
X138674092Y-46470669D01*
X134520560Y-25486478D02*
X134483394Y-25518538D01*
X131870736Y-21491228D02*
X131753162Y-21359544D01*
X164413623Y-51183829D02*
X164404715Y-51207422D01*
X185498791Y-48086754D02*
X185470529Y-48046625D01*
X189569853Y-20697880D02*
X189417710Y-20603200D01*
X111438952Y-48162614D02*
X111405108Y-48198162D01*
X164121031Y-53479563D02*
X164107940Y-53526867D01*
X167976091Y-74961724D02*
X168167145Y-74975838D01*
X156528603Y-48372976D02*
X156485897Y-48348783D01*
X140773011Y-46856661D02*
X140803208Y-46895355D01*
X162061670Y-100195309D02*
X162066991Y-100170095D01*
X164202319Y-23480743D02*
X164198286Y-23506335D01*
X134900320Y-23480743D02*
X134896287Y-23506335D01*
X162908019Y-25715558D02*
X162860714Y-25702467D01*
X111693186Y-75884091D02*
X111696796Y-75933041D01*
X164032921Y-69765185D02*
X164054989Y-69809026D01*
X137266275Y-74580360D02*
X137432440Y-74653291D01*
X131612894Y-78198094D02*
X131595808Y-78181514D01*
X164121031Y-81970618D02*
X164107940Y-82017922D01*
X129651162Y-74854958D02*
X129674716Y-74849075D01*
X189569853Y-74284313D02*
X189589695Y-74271303D01*
X136386019Y-49440143D02*
X136250070Y-49554423D01*
X109799951Y-103473165D02*
X128596054Y-103473165D01*
X159154819Y-20182173D02*
X158976716Y-20133053D01*
X167951679Y-46468262D02*
X167976091Y-46470669D01*
X163249018Y-40750342D02*
X163297731Y-40756350D01*
X188255159Y-77109278D02*
X188073517Y-77068558D01*
X185420078Y-75510712D02*
X185444270Y-75468006D01*
X164149795Y-24794596D02*
X164146184Y-24843545D01*
X161529069Y-101498921D02*
X161542042Y-101478211D01*
X164146184Y-41647509D02*
X164149795Y-41696458D01*
X108543184Y-77164283D02*
X108520036Y-77171274D01*
X134855553Y-52386797D02*
X134854191Y-52412862D01*
X164032921Y-53707979D02*
X164008728Y-53750685D01*
X188479966Y-77171274D02*
X188456818Y-77164283D01*
X105594288Y-42984981D02*
X105598321Y-43010574D01*
X136732147Y-20697880D02*
X136712305Y-20710890D01*
X132868215Y-41550436D02*
X132878969Y-41502546D01*
X160095235Y-74391056D02*
X160115711Y-74378982D01*
X163858107Y-98020530D02*
X163891951Y-98056078D01*
X190340828Y-102131199D02*
X190357161Y-102113765D01*
X105598321Y-71501629D02*
X105631011Y-71679040D01*
X132653749Y-43607420D02*
X132661511Y-43583222D01*
X108926485Y-77068558D02*
X108744843Y-77109278D01*
X132240043Y-72987156D02*
X132329836Y-72835714D01*
X156226989Y-46856661D02*
X156259049Y-46819495D01*
X162127365Y-80668809D02*
X162103714Y-80488445D01*
X159938179Y-45987658D02*
X160095235Y-45900001D01*
X164988021Y-101807739D02*
X165002749Y-101826842D01*
X138889697Y-46485990D02*
X139089669Y-46490904D01*
X164772931Y-73007866D02*
X164870009Y-73154726D01*
X132595284Y-22716365D02*
X132586378Y-22692777D01*
X105547002Y-81109304D02*
X105547002Y-99346240D01*
X167348840Y-74854958D02*
X167530484Y-74895674D01*
X105971849Y-101149496D02*
X106054135Y-101305287D01*
X134849001Y-52618249D02*
X134849001Y-53236583D01*
X131736830Y-45149089D02*
X131753163Y-45131655D01*
X127551270Y-76971286D02*
X127502910Y-76962895D01*
X191257747Y-72098475D02*
X191265509Y-72074277D01*
X106155960Y-44496101D02*
X106168933Y-44516811D01*
X134139286Y-54193522D02*
X134091981Y-54206613D01*
X162860714Y-25702467D02*
X162814109Y-25687071D01*
X109135374Y-103423564D02*
X109159568Y-103427153D01*
X129469518Y-46404619D02*
X129651162Y-46363903D01*
X132991272Y-41231424D02*
X133017531Y-41189956D01*
X163578555Y-97823648D02*
X163622397Y-97845716D01*
X127648932Y-48489850D02*
X127599983Y-48486239D01*
X127063607Y-46718044D02*
X127102301Y-46687847D01*
X156853269Y-48480231D02*
X156804909Y-48471840D01*
X163004268Y-54225759D02*
X162955908Y-54217367D01*
X133377603Y-69354661D02*
X133421445Y-69332593D01*
X132853816Y-24843545D02*
X132850205Y-24794596D01*
X127226604Y-76864031D02*
X127183898Y-76839838D01*
X169351068Y-48489850D02*
X169302000Y-48491055D01*
X108520036Y-20189164D02*
X108345689Y-20246453D01*
X168191697Y-20005064D02*
X168167144Y-20006272D01*
X137061824Y-20503458D02*
X136904767Y-20591123D01*
X135368165Y-50637655D02*
X135356135Y-50659135D01*
X165404193Y-49690459D02*
X165387107Y-49707039D01*
X162145810Y-23921808D02*
X162144448Y-23895741D01*
X167348840Y-46363903D02*
X167530484Y-46404619D01*
X164759959Y-78977255D02*
X164670164Y-79128709D01*
X164338491Y-51399128D02*
X164288398Y-51570130D01*
X135961172Y-102131199D02*
X136085107Y-102257313D01*
X167530483Y-77068558D02*
X167348841Y-77109278D01*
X131736830Y-78324219D02*
X131612894Y-78198094D01*
X111654941Y-76272395D02*
X111639545Y-76319000D01*
X166949685Y-74735687D02*
X167124034Y-74792971D01*
X140803208Y-46895355D02*
X140831470Y-46935484D01*
X126990894Y-75275002D02*
X127026442Y-75241158D01*
X130073004Y-77236629D02*
X130050314Y-77228563D01*
X105960808Y-79328214D02*
X105886245Y-79488140D01*
X164480246Y-79511062D02*
X164413623Y-79674884D01*
X128808306Y-74977045D02*
X128832857Y-74975838D01*
X134091981Y-40775496D02*
X134139286Y-40788587D01*
X130965855Y-20697880D02*
X130813712Y-20603200D01*
X132240043Y-44496101D02*
X132329836Y-44344659D01*
X164008728Y-82241740D02*
X163982469Y-82283208D01*
X126816080Y-47962452D02*
X126794012Y-47918610D01*
X191401680Y-71501629D02*
X191405713Y-71476036D01*
X161643867Y-72814232D02*
X161726153Y-72658441D01*
X190490277Y-50000555D02*
X190474734Y-49982283D01*
X134986399Y-43412230D02*
X135036492Y-43583223D01*
X132661510Y-22908074D02*
X132653750Y-22883878D01*
X166546625Y-103061290D02*
X166568274Y-103071415D01*
X191429364Y-80668809D02*
X191405713Y-80488445D01*
X127502910Y-75001324D02*
X127551270Y-74992933D01*
X127226604Y-48372976D02*
X127183898Y-48348783D01*
X190199805Y-45291783D02*
X190216893Y-45275203D01*
X191429364Y-99786730D02*
X191432075Y-99760842D01*
X105809625Y-100780624D02*
X105876247Y-100944436D01*
X133606020Y-82697668D02*
X133558715Y-82684577D01*
X134854191Y-71060572D02*
X134855553Y-71086638D01*
X163346091Y-82708422D02*
X163297731Y-82716814D01*
X159545373Y-20319748D02*
X159375003Y-20254519D01*
X110844732Y-48480231D02*
X110796019Y-48486239D01*
X135044253Y-43607419D02*
X135102716Y-43774921D01*
X132907456Y-53573473D02*
X132892060Y-53526867D01*
X169973558Y-76723061D02*
X169936393Y-76755120D01*
X170205988Y-75554554D02*
X170225879Y-75599425D01*
X105677835Y-43387489D02*
X105684400Y-43412230D01*
X108520036Y-48680219D02*
X108345689Y-48737508D01*
X191322166Y-51594869D02*
X191315601Y-51570130D01*
X136085108Y-78198094D02*
X135961172Y-78324219D01*
X140671559Y-48232006D02*
X140634394Y-48264065D01*
X136732147Y-49188935D02*
X136712305Y-49201945D01*
X107602767Y-102882112D02*
X107759825Y-102969768D01*
X160767744Y-73903152D02*
X160897806Y-73782838D01*
X190490278Y-73472765D02*
X190601250Y-73335787D01*
X189035726Y-77383909D02*
X188869560Y-77310969D01*
X131311985Y-20949089D02*
X131293468Y-20934259D01*
X161418118Y-44683589D02*
X161431991Y-44663671D01*
X108543184Y-46308905D02*
X108721288Y-46358020D01*
X191446447Y-71086639D02*
X191447809Y-71060571D01*
X108721288Y-74849075D02*
X108744842Y-74854958D01*
X161897283Y-51207420D02*
X161888377Y-51183832D01*
X106155961Y-50486200D02*
X106066166Y-50637654D01*
X162908019Y-82697668D02*
X162860714Y-82684577D01*
X163101931Y-25744322D02*
X163052981Y-25740712D01*
X133995732Y-82716814D02*
X133947019Y-82722822D01*
X161811755Y-43985254D02*
X161821756Y-43962325D01*
X164151000Y-81727638D02*
X164149795Y-81776706D01*
X139101950Y-74982110D02*
X140000001Y-74982110D01*
X187212334Y-48491205D02*
X187200051Y-48491055D01*
X126699206Y-47540123D02*
X126698001Y-47491055D01*
X132341867Y-79150190D02*
X132329837Y-79128710D01*
X161313979Y-73316684D02*
X161418118Y-73174644D01*
X190051929Y-45427807D02*
X190069743Y-45412097D01*
X160095235Y-49082179D02*
X159938179Y-48994513D01*
X186301998Y-48491055D02*
X186252930Y-48489850D01*
X156168530Y-76537680D02*
X156142271Y-76496213D01*
X136232257Y-45412096D02*
X136250072Y-45427807D01*
X130050314Y-48737508D02*
X129875968Y-48680219D01*
X139101951Y-76982110D02*
X139089668Y-76982260D01*
X156757019Y-76952141D02*
X156709715Y-76939050D01*
X162516606Y-25518538D02*
X162479440Y-25486478D01*
X162269078Y-25216924D02*
X162247010Y-25173083D01*
X107602768Y-49082178D02*
X107582291Y-49094256D01*
X169936393Y-46718044D02*
X169973558Y-46750103D01*
X140000001Y-74982110D02*
X140049069Y-74983314D01*
X134855553Y-42595583D02*
X134869925Y-42778732D01*
X134819032Y-24988508D02*
X134805941Y-25035812D01*
X162180968Y-69993601D02*
X162194059Y-69946297D01*
X189035726Y-46089305D02*
X189057373Y-46079180D01*
X130813712Y-49094255D02*
X130793236Y-49082179D01*
X162955908Y-54217367D02*
X162908019Y-54206613D01*
X126774121Y-47873739D02*
X126756457Y-47827945D01*
X135470932Y-44516811D02*
X135568010Y-44663671D01*
X190615977Y-78647704D02*
X190601251Y-78628600D01*
X131997252Y-101826842D02*
X132011980Y-101807739D01*
X187652324Y-48513850D02*
X187627906Y-48511442D01*
X170272030Y-75739129D02*
X170282784Y-75787018D01*
X161542042Y-101478211D02*
X161631835Y-101326769D01*
X188479966Y-74792971D02*
X188654314Y-74735687D01*
X189897466Y-45556902D02*
X189915983Y-45542073D01*
X156029969Y-76225090D02*
X156019215Y-76177201D01*
X130615106Y-102980879D02*
X130636180Y-102969768D01*
X166206766Y-20591123D02*
X166186289Y-20603201D01*
X136102194Y-21199404D02*
X136085108Y-21215984D01*
X166014304Y-45780248D02*
X166034146Y-45793258D01*
X188073517Y-20086448D02*
X188049607Y-20081697D01*
X166756627Y-46171346D02*
X166927000Y-46236569D01*
X129260632Y-77031718D02*
X129236435Y-77028128D01*
X162161823Y-53383313D02*
X162155815Y-53334600D01*
X161172735Y-21491228D02*
X161055161Y-21359544D01*
X105553554Y-42595583D02*
X105567926Y-42778732D01*
X189417710Y-74378982D02*
X189569853Y-74284313D01*
X140998795Y-76031178D02*
X140995185Y-76080128D01*
X156444429Y-76813579D02*
X156404300Y-76785317D01*
X185301999Y-75982109D02*
X185303204Y-75933041D01*
X106384024Y-21665594D02*
X106279883Y-21807646D01*
X166186289Y-74378981D02*
X166206765Y-74391057D01*
X132240042Y-78977255D02*
X132227071Y-78956547D01*
X127502910Y-46510269D02*
X127551270Y-46501878D01*
X165688018Y-77931198D02*
X165552069Y-78045478D01*
X132718168Y-23103814D02*
X132711603Y-23079075D01*
X170183920Y-75510712D02*
X170205988Y-75554554D01*
X162150829Y-99359284D02*
X162150999Y-99346241D01*
X132850205Y-98678568D02*
X132853816Y-98629619D01*
X126816080Y-75510712D02*
X126840272Y-75468006D01*
X105594288Y-71476036D02*
X105598321Y-71501629D01*
X127183898Y-48348783D02*
X127142430Y-48322524D01*
X140514103Y-48348783D02*
X140471397Y-48372976D01*
X162066991Y-23303325D02*
X162061670Y-23278113D01*
X162150999Y-24127193D02*
X162150829Y-24114150D01*
X134790545Y-25082418D02*
X134772880Y-25128211D01*
X126840272Y-48005158D02*
X126816080Y-47962452D01*
X164575847Y-79305991D02*
X164564806Y-79328214D01*
X135356134Y-44323177D02*
X135368166Y-44344659D01*
X135111624Y-51183829D02*
X135102716Y-51207422D01*
X134844185Y-81825655D02*
X134838177Y-81874368D01*
X133075990Y-69602188D02*
X133108049Y-69565023D01*
X133293430Y-54068052D02*
X133253301Y-54039790D01*
X191405713Y-99967091D02*
X191429364Y-99786730D01*
X132129992Y-44663671D02*
X132227070Y-44516811D01*
X160595467Y-20934259D02*
X160453877Y-20826273D01*
X132828077Y-80694697D02*
X132825366Y-80668809D01*
X158110304Y-76987174D02*
X157910335Y-76982260D01*
X163441285Y-40788587D02*
X163487890Y-40803983D01*
X159917105Y-77474455D02*
X159755374Y-77394035D01*
X156029969Y-47248074D02*
X156043060Y-47200769D01*
X134320398Y-82609558D02*
X134276556Y-82631626D01*
X156010823Y-75835378D02*
X156019215Y-75787018D01*
X109787670Y-74981959D02*
X109799951Y-74982109D01*
X130453375Y-48902980D02*
X130431728Y-48892854D01*
X161542042Y-72987156D02*
X161631835Y-72835714D01*
X162144448Y-80877851D02*
X162130076Y-80694697D01*
X159938179Y-20503458D02*
X159917105Y-20492345D01*
X164658133Y-101305287D02*
X164670165Y-101326769D01*
X164131785Y-53431673D02*
X164121031Y-53479563D01*
X131595808Y-78181514D02*
X131465743Y-78061187D01*
X106948073Y-73918862D02*
X107084020Y-74033129D01*
X163578555Y-54140571D02*
X163533684Y-54160462D01*
X133653909Y-40764742D02*
X133702269Y-40756350D01*
X164131785Y-81922728D02*
X164121031Y-81970618D01*
X170133469Y-76537680D02*
X170105207Y-76577809D01*
X134838177Y-41598796D02*
X134844185Y-41647509D01*
X186155268Y-74992933D02*
X186203981Y-74986925D01*
X166546625Y-74570235D02*
X166568274Y-74580360D01*
X106509724Y-50000555D02*
X106398750Y-50137545D01*
X111668032Y-75739129D02*
X111678786Y-75787018D01*
X166363823Y-77485568D02*
X166206766Y-77573233D01*
X126717216Y-76177201D02*
X126708824Y-76128841D01*
X131151878Y-77808383D02*
X131132687Y-77794454D01*
X111125557Y-48395044D02*
X111080685Y-48414934D01*
X162152204Y-24794596D02*
X162151000Y-24745528D01*
X111621881Y-47873739D02*
X111601990Y-47918610D01*
X126924990Y-75347716D02*
X126957050Y-75310550D01*
X189755876Y-49317328D02*
X189736685Y-49303399D01*
X134320398Y-69354661D02*
X134363104Y-69378853D01*
X190069741Y-78061187D02*
X190051931Y-78045479D01*
X156058456Y-75645219D02*
X156076120Y-75599425D01*
X126924990Y-76616503D02*
X126894793Y-76577809D01*
X133898069Y-40746732D02*
X133947019Y-40750342D01*
X132424154Y-44167386D02*
X132435195Y-44145165D01*
X191432075Y-80694697D02*
X191429364Y-80668809D01*
X132586378Y-100780621D02*
X132595284Y-100757033D01*
X162814109Y-40803983D02*
X162860714Y-40788587D01*
X129445610Y-74900424D02*
X129469518Y-74895674D01*
X130636180Y-45987658D02*
X130793236Y-45900001D01*
X156043060Y-47781340D02*
X156029969Y-47734035D01*
X163346091Y-25726312D02*
X163297731Y-25734704D01*
X165534256Y-102394206D02*
X165552071Y-102409917D01*
X105800717Y-51207422D02*
X105742253Y-51374934D01*
X140195091Y-76962895D02*
X140146731Y-76971286D01*
X133653909Y-97746852D02*
X133702269Y-97738460D01*
X185470529Y-48046625D02*
X185444270Y-48005158D01*
X163858107Y-53943689D02*
X163822559Y-53977533D01*
X111405108Y-76689217D02*
X111369560Y-76723061D01*
X159755374Y-46079180D02*
X159917105Y-45998769D01*
X162595429Y-25576997D02*
X162555300Y-25548735D01*
X137822035Y-20189164D02*
X137647688Y-20246453D01*
X108323000Y-48745574D02*
X108152629Y-48810803D01*
X164198286Y-99967091D02*
X164202319Y-99992684D01*
X129875968Y-46301916D02*
X130050316Y-46244632D01*
X140956940Y-75691824D02*
X140970031Y-75739129D01*
X109587699Y-48496119D02*
X109563146Y-48497327D01*
X160914893Y-78198094D02*
X160897807Y-78181514D01*
X167147182Y-48673228D02*
X167124034Y-48680219D01*
X188677000Y-103218678D02*
X188847373Y-103153456D01*
X137454628Y-74662401D02*
X137625001Y-74727624D01*
X134849171Y-42377175D02*
X134854191Y-42569517D01*
X169448730Y-76971286D02*
X169400017Y-76977294D01*
X133377603Y-97845716D02*
X133421445Y-97823648D01*
X106054135Y-101305287D02*
X106066167Y-101326769D01*
X166206765Y-45900002D02*
X166363823Y-45987658D01*
X132843811Y-42569516D02*
X132848830Y-42377174D01*
X165534256Y-45412096D02*
X165552071Y-45427807D01*
X191257747Y-100589530D02*
X191265509Y-100565332D01*
X163578555Y-40841538D02*
X163622397Y-40863606D01*
X109347678Y-20022795D02*
X109159570Y-20046018D01*
X129875968Y-103284026D02*
X130050316Y-103226742D01*
X185312822Y-76128841D02*
X185306814Y-76080128D01*
X158747609Y-46409369D02*
X158771517Y-46404619D01*
X164151000Y-99346240D02*
X164151170Y-99359285D01*
X131886280Y-44981710D02*
X131997252Y-44844732D01*
X162194059Y-25035812D02*
X162180968Y-24988508D01*
X137647686Y-74735687D02*
X137822035Y-74792971D01*
X165263171Y-49833164D02*
X165246839Y-49850599D01*
X126702816Y-47393036D02*
X126708824Y-47344323D01*
X162227120Y-82110321D02*
X162209455Y-82064528D01*
X138252395Y-48572752D02*
X138228484Y-48577503D01*
X132859824Y-53383313D02*
X132853816Y-53334600D01*
X107263317Y-74169862D02*
X107410306Y-74271303D01*
X156950931Y-48489850D02*
X156901982Y-48486239D01*
X106800195Y-21199404D02*
X106783109Y-21215984D01*
X134986399Y-100394340D02*
X135036492Y-100565333D01*
X138046841Y-46363903D02*
X138228485Y-46404619D01*
X156019215Y-47295963D02*
X156029969Y-47248074D01*
X110698002Y-74982110D02*
X110747070Y-74983314D01*
X132595284Y-100757033D02*
X132653749Y-100589530D01*
X164338491Y-22908073D02*
X164288398Y-23079075D01*
X185965108Y-46549510D02*
X186011714Y-46534114D01*
X189240178Y-74478713D02*
X189397234Y-74391056D01*
X134896287Y-23506335D02*
X134872636Y-23686699D01*
X163891951Y-82399196D02*
X163858107Y-82434744D01*
X161821755Y-79511063D02*
X161811757Y-79488139D01*
X131132687Y-49303399D02*
X130985697Y-49201945D01*
X105809625Y-22692774D02*
X105800717Y-22716367D01*
X185874443Y-76886099D02*
X185830602Y-76864031D01*
X135568010Y-101645781D02*
X135581883Y-101665699D01*
X134680470Y-41189956D02*
X134706729Y-41231424D01*
X139101950Y-103473165D02*
X157898053Y-103473165D01*
X130813712Y-77585310D02*
X130793236Y-77573234D01*
X156001205Y-75933041D02*
X156004815Y-75884091D01*
X133799932Y-25744322D02*
X133750982Y-25740712D01*
X134872636Y-23686699D02*
X134869925Y-23712587D01*
X188278714Y-74849075D02*
X188456818Y-74799960D01*
X163578555Y-82631626D02*
X163533684Y-82651517D01*
X188278715Y-20133053D02*
X188255159Y-20127168D01*
X156010823Y-76128841D02*
X156004815Y-76080128D01*
X191447809Y-52412863D02*
X191446447Y-52386796D01*
X140970031Y-47734035D02*
X140956940Y-47781340D01*
X185706299Y-48294262D02*
X185667605Y-48264065D01*
X132519757Y-43962325D02*
X132586378Y-43798511D01*
X106800196Y-102273893D02*
X106930258Y-102394206D01*
X134847796Y-98678568D02*
X134849001Y-98727636D01*
X185965108Y-75040565D02*
X186011714Y-75025169D01*
X163151000Y-40745527D02*
X163200068Y-40746732D01*
X191405713Y-80488445D02*
X191401680Y-80462853D01*
X109587699Y-76987174D02*
X109563146Y-76988382D01*
X111529471Y-46935484D02*
X111555730Y-46976951D01*
X111369560Y-46750103D02*
X111405108Y-46783947D01*
X132759671Y-71704254D02*
X132764992Y-71679040D01*
X139089668Y-48491205D02*
X138889698Y-48496119D01*
X160453877Y-74155933D02*
X160595467Y-74047957D01*
X165002749Y-101826842D02*
X165113721Y-101963820D01*
X170243543Y-47154164D02*
X170258939Y-47200769D01*
X161821756Y-72453380D02*
X161888377Y-72289566D01*
X162768315Y-40821647D02*
X162814109Y-40803983D01*
X106930259Y-49570133D02*
X106800195Y-49690459D01*
X169857570Y-75150640D02*
X169897699Y-75178902D01*
X132878969Y-53479563D02*
X132868215Y-53431673D01*
X164772930Y-21974437D02*
X164759959Y-21995145D01*
X132945011Y-82155193D02*
X132925121Y-82110321D01*
X191363669Y-71704254D02*
X191368990Y-71679040D01*
X158325907Y-77002497D02*
X158134857Y-76988382D01*
X132711603Y-80061185D02*
X132661510Y-79890184D01*
X162013602Y-23079075D02*
X161963509Y-22908074D01*
X164988022Y-78647704D02*
X164883881Y-78789756D01*
X164480245Y-100944436D02*
X164490244Y-100967363D01*
X165688018Y-49440143D02*
X165552069Y-49554423D01*
X109563146Y-48497327D02*
X109372096Y-48511442D01*
X132843811Y-99551626D02*
X132848830Y-99359284D01*
X132116119Y-101665699D02*
X132129992Y-101645781D01*
X136565316Y-45678807D02*
X136712305Y-45780248D01*
X133177441Y-41004576D02*
X133214607Y-40972516D01*
X165246838Y-102113765D02*
X165263171Y-102131199D01*
X164149795Y-98678568D02*
X164151000Y-98727636D01*
X169973558Y-48232006D02*
X169936393Y-48264065D01*
X164171924Y-80694697D02*
X164157552Y-80877852D01*
X111693186Y-47393036D02*
X111696796Y-47441986D01*
X105594288Y-80488445D02*
X105570637Y-80668809D01*
X134589952Y-69565023D02*
X134622011Y-69602188D01*
X165113722Y-78491610D02*
X165002748Y-78628600D01*
X130636180Y-74478713D02*
X130793236Y-74391056D01*
X135368165Y-79128710D02*
X135356135Y-79150190D01*
X105971849Y-50814936D02*
X105960808Y-50837159D01*
X140707107Y-76689217D02*
X140671559Y-76723061D01*
X158538434Y-48537073D02*
X158350325Y-48513850D01*
X106659173Y-21342109D02*
X106642841Y-21359544D01*
X164054989Y-98300081D02*
X164074879Y-98344953D01*
X132907456Y-69899691D02*
X132925121Y-69853898D01*
X140831470Y-46935484D02*
X140857729Y-46976951D01*
X156226989Y-75347716D02*
X156259049Y-75310550D01*
X111080685Y-48414934D02*
X111034892Y-48432599D01*
X162377989Y-41111133D02*
X162410048Y-41073968D01*
X163982469Y-82283208D02*
X163954207Y-82323337D01*
X137624999Y-20254519D02*
X137454628Y-20319748D01*
X162227120Y-25128211D02*
X162209455Y-25082418D01*
X162227120Y-41362843D02*
X162247010Y-41317971D01*
X132849001Y-53236583D02*
X132849001Y-52618248D01*
X140803208Y-75386410D02*
X140831470Y-75426539D01*
X191113756Y-79488138D02*
X191039193Y-79328214D01*
X132797682Y-71501629D02*
X132801715Y-71476036D01*
X185919315Y-75058230D02*
X185965108Y-75040565D01*
X136232257Y-73903151D02*
X136250072Y-73918862D01*
X134185891Y-54178126D02*
X134139286Y-54193522D01*
X140471397Y-46609133D02*
X140514103Y-46633326D01*
X160434685Y-102660916D02*
X160453877Y-102646988D01*
X132850205Y-41696458D02*
X132853816Y-41647509D01*
X191446447Y-52386796D02*
X191432075Y-52203642D01*
X128596053Y-20000000D02*
X109799952Y-20000000D01*
X167124034Y-74792971D02*
X167147182Y-74799960D01*
X165387107Y-21215984D02*
X165263171Y-21342109D01*
X130243375Y-103153456D02*
X130265562Y-103144347D01*
X134872636Y-52177754D02*
X134869925Y-52203642D01*
X187412303Y-48496119D02*
X187212334Y-48491205D01*
X159177967Y-103284026D02*
X159352315Y-103226742D01*
X135581882Y-21807646D02*
X135568010Y-21827564D01*
X162145810Y-52412863D02*
X162144448Y-52386796D01*
X185331968Y-47734035D02*
X185321214Y-47686146D01*
X130615106Y-20492345D02*
X130453375Y-20411925D01*
X190340828Y-49833164D02*
X190216892Y-49707039D01*
X167976094Y-48511442D02*
X167951676Y-48513850D01*
X135356135Y-79150190D02*
X135273848Y-79305991D01*
X107964276Y-74580360D02*
X108130441Y-74653291D01*
X170243543Y-47827945D02*
X170225879Y-47873739D01*
X164151000Y-41745526D02*
X164151000Y-42364130D01*
X162180968Y-24988508D02*
X162170214Y-24940618D01*
X166363823Y-20503458D02*
X166206766Y-20591123D01*
X164149795Y-53285651D02*
X164146184Y-53334600D01*
X163151000Y-97727637D02*
X163200068Y-97728842D01*
X132341868Y-101305287D02*
X132424154Y-101149496D01*
X139089669Y-74981959D02*
X139101950Y-74982109D01*
X157910335Y-76982260D02*
X157898052Y-76982110D01*
X158953160Y-77109278D02*
X158771518Y-77068558D01*
X135178246Y-43962326D02*
X135188245Y-43985253D01*
X164575847Y-72658441D02*
X164658133Y-72814232D01*
X134869925Y-42778732D02*
X134872636Y-42804620D01*
X191322166Y-71878544D02*
X191363669Y-71704254D01*
X134276556Y-40841538D02*
X134320398Y-40863606D01*
X191401680Y-23480743D02*
X191368990Y-23303325D01*
X128608335Y-74981959D02*
X128808306Y-74977045D01*
X105800717Y-79698477D02*
X105742253Y-79865989D01*
X166014304Y-20710890D02*
X165867315Y-20812343D01*
X127407716Y-76939050D02*
X127361110Y-76923654D01*
X162161823Y-24892258D02*
X162155815Y-24843545D01*
X157910335Y-20000150D02*
X157898052Y-20000000D01*
X160767742Y-78061187D02*
X160749932Y-78045479D01*
X162151000Y-81727638D02*
X162151000Y-81109303D01*
X165534257Y-21079078D02*
X165404193Y-21199404D01*
X130615106Y-48983400D02*
X130453375Y-48902980D01*
X136884290Y-102870036D02*
X136904766Y-102882112D01*
X170297184Y-76080128D02*
X170291176Y-76128841D01*
X137845183Y-77164283D02*
X137822035Y-77171274D01*
X106384023Y-73316684D02*
X106398751Y-73335787D01*
X129469518Y-74895674D02*
X129651162Y-74854958D01*
X134752990Y-69809026D02*
X134772880Y-69853898D01*
X128832857Y-46484783D02*
X129023911Y-46470669D01*
X133045793Y-69640882D02*
X133075990Y-69602188D01*
X189397234Y-20591124D02*
X189240178Y-20503458D01*
X169729555Y-46587065D02*
X169773396Y-46609133D01*
X134652208Y-69640882D02*
X134680470Y-69681011D01*
X111034892Y-75040565D02*
X111080685Y-75058230D01*
X164146184Y-70138564D02*
X164149795Y-70187513D01*
X133702269Y-25734704D02*
X133653909Y-25726312D01*
X135686023Y-50156649D02*
X135581882Y-50298701D01*
X110988286Y-76939050D02*
X110940982Y-76952141D01*
X136546123Y-74155932D02*
X136565316Y-74169862D01*
X137244626Y-74570235D02*
X137266275Y-74580360D01*
X133334897Y-82585366D02*
X133293430Y-82559107D01*
X134706729Y-41231424D02*
X134730922Y-41274130D01*
X158325907Y-48511442D02*
X158134857Y-48497327D01*
X130985697Y-49201945D02*
X130965855Y-49188935D01*
X139089669Y-103473014D02*
X139101950Y-103473164D01*
X164240330Y-23278113D02*
X164235009Y-23303325D01*
X156196792Y-75386410D02*
X156226989Y-75347716D01*
X162127365Y-71295675D02*
X162130076Y-71269787D01*
X134854191Y-99551627D02*
X134855553Y-99577693D01*
X163622397Y-25627448D02*
X163578555Y-25649516D01*
X105886246Y-43985253D02*
X105960808Y-44145164D01*
X187627906Y-20020387D02*
X187436856Y-20006272D01*
X130050316Y-46244632D02*
X130073002Y-46236568D01*
X105636332Y-100195309D02*
X105677835Y-100369599D01*
X162908019Y-69266551D02*
X162955908Y-69255797D01*
X156259049Y-76653669D02*
X156226989Y-76616503D01*
X156076120Y-47873739D02*
X156058456Y-47827945D01*
X170225879Y-47873739D02*
X170205988Y-47918610D01*
X107263317Y-45678807D02*
X107410306Y-45780248D01*
X158134856Y-103466893D02*
X158325910Y-103452779D01*
X166927000Y-74727624D02*
X166949685Y-74735687D01*
X161418119Y-78789756D02*
X161313978Y-78647704D01*
X166186289Y-49094256D02*
X166034146Y-49188935D01*
X161897283Y-43774923D02*
X161955748Y-43607420D01*
X135356135Y-22168080D02*
X135273848Y-22323881D01*
X106155960Y-101478211D02*
X106168933Y-101498921D01*
X106066167Y-44344659D02*
X106155960Y-44496101D01*
X111529471Y-75426539D02*
X111555730Y-75468006D01*
X156757019Y-48461086D02*
X156709715Y-48447995D01*
X164490244Y-43985253D02*
X164564806Y-44145164D01*
X163746699Y-54039790D02*
X163706570Y-54068052D01*
X132797682Y-99992684D02*
X132801715Y-99967091D01*
X158771518Y-48577503D02*
X158747608Y-48572752D01*
X134938331Y-100195309D02*
X134979834Y-100369599D01*
X140831470Y-76537680D02*
X140803208Y-76577809D01*
X133702269Y-69247405D02*
X133750982Y-69241397D01*
X126774121Y-76364794D02*
X126756457Y-76319000D01*
X134986399Y-23079075D02*
X134979834Y-23103814D01*
X187652321Y-74959317D02*
X187840434Y-74936098D01*
X162377989Y-25379921D02*
X162347792Y-25341227D01*
X126699206Y-75933041D02*
X126702816Y-75884091D01*
X156196792Y-48086754D02*
X156168530Y-48046625D01*
X168403950Y-48491055D02*
X168391667Y-48491205D01*
X191363669Y-80260223D02*
X191322166Y-80085925D01*
X134363104Y-97869908D02*
X134404571Y-97896167D01*
X158562631Y-48540663D02*
X158538434Y-48537073D01*
X129023908Y-77002497D02*
X128832858Y-76988382D01*
X160749930Y-102409917D02*
X160767744Y-102394207D01*
X134320398Y-40863606D02*
X134363104Y-40887798D01*
X164772931Y-44516811D02*
X164870009Y-44663671D01*
X158747609Y-103391479D02*
X158771517Y-103386729D01*
X185420078Y-47962452D02*
X185398010Y-47918610D01*
X106800196Y-73782838D02*
X106930258Y-73903151D01*
X134231685Y-25669407D02*
X134185891Y-25687071D01*
X126924990Y-48125448D02*
X126894793Y-48086754D01*
X134752990Y-53664138D02*
X134730922Y-53707979D01*
X135470931Y-21974437D02*
X135457960Y-21995145D01*
X105547002Y-42364130D02*
X105547172Y-42377175D01*
X108345689Y-20246453D02*
X108323000Y-20254519D01*
X105734493Y-72074278D02*
X105742254Y-72098474D01*
X130243374Y-20319748D02*
X130073004Y-20254519D01*
X164413623Y-22692774D02*
X164404715Y-22716367D01*
X156043060Y-76272395D02*
X156029969Y-76225090D01*
X159375003Y-20254519D02*
X159352313Y-20246453D01*
X132925121Y-53619266D02*
X132907456Y-53573473D01*
X126957050Y-76653669D02*
X126924990Y-76616503D01*
X162410048Y-41073968D02*
X162443892Y-41038420D01*
X136386019Y-74033129D02*
X136404534Y-74047956D01*
X164157552Y-80877852D02*
X164156190Y-80903917D01*
X108130441Y-103144346D02*
X108152629Y-103153456D01*
X111369560Y-48232006D02*
X111332395Y-48264065D01*
X189057373Y-103061290D02*
X189219104Y-102980879D01*
X133334897Y-40887798D02*
X133377603Y-40863606D01*
X165867315Y-77794453D02*
X165848123Y-77808383D01*
X111169398Y-46609133D02*
X111212104Y-46633326D01*
X133214607Y-97954626D02*
X133253301Y-97924429D01*
X164404715Y-79698477D02*
X164346251Y-79865989D01*
X164151000Y-70236581D02*
X164151000Y-70855185D01*
X164140176Y-41598796D02*
X164146184Y-41647509D01*
X170297184Y-75884091D02*
X170300794Y-75933041D01*
X131447933Y-78045479D02*
X131311985Y-77931200D01*
X187864630Y-77031718D02*
X187840433Y-77028128D01*
X163052981Y-69241397D02*
X163101931Y-69237787D01*
X159177967Y-46301916D02*
X159352315Y-46244632D01*
X135961172Y-45149089D02*
X136085107Y-45275203D01*
X135944839Y-102113765D02*
X135961172Y-102131199D01*
X164670165Y-101326769D02*
X164759958Y-101478211D01*
X191432075Y-42778732D02*
X191446447Y-42595584D01*
X137624999Y-77236629D02*
X137454628Y-77301858D01*
X163665103Y-69378853D02*
X163706570Y-69405112D01*
X134900320Y-51971798D02*
X134896287Y-51997390D01*
X134483394Y-97954626D02*
X134520560Y-97986686D01*
X134849001Y-98727636D02*
X134849001Y-99346240D01*
X105547172Y-24114149D02*
X105547002Y-24127194D01*
X132424154Y-79305991D02*
X132341867Y-79150190D01*
X106930259Y-21079078D02*
X106800195Y-21199404D01*
X162723444Y-69332593D02*
X162768315Y-69312702D01*
X133177441Y-53977533D02*
X133141893Y-53943689D01*
X162103714Y-80488445D02*
X162099681Y-80462853D01*
X162293271Y-41231424D02*
X162319530Y-41189956D01*
X162908019Y-97757606D02*
X162955908Y-97746852D01*
X167530483Y-48577503D02*
X167348841Y-48618223D01*
X134444700Y-69433374D02*
X134483394Y-69463571D01*
X135044252Y-22883880D02*
X135036492Y-22908073D01*
X170225879Y-47108370D02*
X170243543Y-47154164D01*
X185874443Y-46587065D02*
X185919315Y-46567175D01*
X132843811Y-23921808D02*
X132842449Y-23895741D01*
X132718168Y-71878544D02*
X132759671Y-71704254D01*
X191028152Y-79305991D02*
X190945865Y-79150190D01*
X130243375Y-74662401D02*
X130265562Y-74653292D01*
X128808305Y-48496119D02*
X128608336Y-48491205D01*
X161431991Y-101645781D02*
X161529069Y-101498921D01*
X165246839Y-21359544D02*
X165129265Y-21491228D01*
X164074879Y-25128211D02*
X164054989Y-25173083D01*
X191028152Y-44167386D02*
X191039193Y-44145165D01*
X167325285Y-77115163D02*
X167147182Y-77164283D01*
X107410306Y-74271303D02*
X107430148Y-74284313D01*
X126990894Y-76689217D02*
X126957050Y-76653669D01*
X137624999Y-48745574D02*
X137454628Y-48810803D01*
X133017531Y-98172066D02*
X133045793Y-98131937D01*
X158134857Y-20006272D02*
X158110304Y-20005064D01*
X186011714Y-76939050D02*
X185965108Y-76923654D01*
X130793236Y-49082179D02*
X130636180Y-48994513D01*
X158134856Y-74975838D02*
X158325910Y-74961724D01*
X133045793Y-53832282D02*
X133017531Y-53792153D01*
X190831069Y-50465492D02*
X190733990Y-50318619D01*
X129469519Y-20086448D02*
X129445609Y-20081697D01*
X126756457Y-47154164D02*
X126774121Y-47108370D01*
X165387106Y-102257313D02*
X165404194Y-102273893D01*
X170159728Y-75468006D02*
X170183920Y-75510712D01*
X106054136Y-22168080D02*
X105971849Y-22323881D01*
X131465745Y-102394207D02*
X131595807Y-102273893D01*
X137082896Y-102980879D02*
X137244626Y-103061290D01*
X134622011Y-25379921D02*
X134589952Y-25417086D01*
X130636180Y-20503458D02*
X130615106Y-20492345D01*
X111034892Y-48432599D02*
X110988286Y-48447995D01*
X133045793Y-98131937D02*
X133075990Y-98093243D01*
X133606020Y-97757606D02*
X133653909Y-97746852D01*
X140146731Y-48480231D02*
X140098018Y-48486239D01*
X162319530Y-69681011D02*
X162347792Y-69640882D01*
X140980785Y-75787018D02*
X140989177Y-75835378D01*
X166734438Y-20328860D02*
X166568273Y-20401799D01*
X190474732Y-101982095D02*
X190490278Y-101963820D01*
X186252930Y-74983314D02*
X186301998Y-74982110D01*
X185706299Y-75178902D02*
X185746428Y-75150640D01*
X170258939Y-47200769D02*
X170272030Y-47248074D01*
X132797682Y-80462853D02*
X132764992Y-80285435D01*
X137625001Y-103218679D02*
X137647686Y-103226742D01*
X162860714Y-97770697D02*
X162908019Y-97757606D01*
X161631836Y-50637654D02*
X161542041Y-50486200D01*
X105570637Y-42804620D02*
X105594288Y-42984981D01*
X189417710Y-102870037D02*
X189569853Y-102775368D01*
X191039193Y-50837159D02*
X191028152Y-50814936D01*
X190733990Y-44663671D02*
X190831068Y-44516811D01*
X185830602Y-76864031D02*
X185787896Y-76839838D01*
X129260631Y-46441454D02*
X129445610Y-46409369D01*
X133995732Y-54225759D02*
X133947019Y-54231767D01*
X108130440Y-77310970D02*
X107964275Y-77383909D01*
X190357161Y-102113765D02*
X190474732Y-101982095D01*
X162319530Y-41189956D02*
X162347792Y-41149827D01*
X185561048Y-75310550D02*
X185594892Y-75275002D01*
X106168932Y-50465492D02*
X106155961Y-50486200D01*
X111125557Y-76886099D02*
X111080685Y-76905989D01*
X134849001Y-70236581D02*
X134849001Y-70855185D01*
X134730922Y-82199034D02*
X134706729Y-82241740D01*
X163393980Y-40775496D02*
X163441285Y-40788587D01*
X168167144Y-20006272D02*
X167976094Y-20020387D01*
X191039193Y-22346104D02*
X191028152Y-22323881D01*
X190615977Y-50156649D02*
X190601251Y-50137545D01*
X166206765Y-74391057D02*
X166363823Y-74478713D01*
X134844185Y-98629619D02*
X134847796Y-98678568D01*
X162269078Y-53707979D02*
X162247010Y-53664138D01*
X169816102Y-76839838D02*
X169773396Y-76864031D01*
X170075010Y-46856661D02*
X170105207Y-46895355D01*
X133377603Y-54118503D02*
X133334897Y-54094311D01*
X189035726Y-74580360D02*
X189057373Y-74570235D01*
X188073517Y-48577503D02*
X188049607Y-48572752D01*
X164156190Y-71060572D02*
X164157552Y-71086638D01*
X135178247Y-22528952D02*
X135111624Y-22692774D01*
X163346091Y-69255797D02*
X163393980Y-69266551D01*
X186155268Y-46501878D02*
X186203981Y-46495870D01*
X134844185Y-70138564D02*
X134847796Y-70187513D01*
X170301999Y-75982110D02*
X170300794Y-76031178D01*
X159375001Y-74727623D02*
X159545374Y-74662401D01*
X133293430Y-97896167D02*
X133334897Y-97869908D01*
X135568010Y-50318619D02*
X135470931Y-50465492D01*
X132509756Y-43985254D02*
X132519757Y-43962325D01*
X111471012Y-46856661D02*
X111501209Y-46895355D01*
X129236436Y-74936098D02*
X129260631Y-74932509D01*
X130453375Y-46079180D02*
X130615106Y-45998769D01*
X126774121Y-75599425D02*
X126794012Y-75554554D01*
X111080685Y-46567175D02*
X111125557Y-46587065D01*
X138252394Y-46409369D02*
X138437373Y-46441454D01*
X156572444Y-75078120D02*
X156617316Y-75058230D01*
X132011979Y-50156649D02*
X131997253Y-50137545D01*
X108520036Y-77171274D02*
X108345689Y-77228563D01*
X134091981Y-82697668D02*
X134044092Y-82708422D01*
X162516606Y-82500648D02*
X162479440Y-82468588D01*
X135811722Y-73472765D02*
X135827268Y-73491040D01*
X159755374Y-77394035D02*
X159733727Y-77383909D01*
X139089669Y-46490904D02*
X139101950Y-46491054D01*
X166756627Y-77301858D02*
X166734438Y-77310970D01*
X170009106Y-75275002D02*
X170042950Y-75310550D01*
X105567926Y-80694697D02*
X105553554Y-80877852D01*
X105631011Y-43187985D02*
X105636332Y-43213199D01*
X132945011Y-41317971D02*
X132967079Y-41274130D01*
X162955908Y-40764742D02*
X163004268Y-40756350D01*
X111555730Y-48005158D02*
X111529471Y-48046625D01*
X132129992Y-21827564D02*
X132116120Y-21807646D01*
X190601250Y-73335787D02*
X190615978Y-73316684D01*
X138889698Y-48496119D02*
X138865145Y-48497327D01*
X160115711Y-49094255D02*
X160095235Y-49082179D01*
X162595429Y-54068052D02*
X162555300Y-54039790D01*
X161431991Y-21827564D02*
X161418119Y-21807646D01*
X127183898Y-76839838D02*
X127142430Y-76813579D01*
X132848830Y-24114150D02*
X132843811Y-23921808D01*
X107759825Y-74478713D02*
X107780897Y-74489824D01*
X135470932Y-73007866D02*
X135568010Y-73154726D01*
X159154819Y-48673228D02*
X158976716Y-48624108D01*
X187436855Y-103466893D02*
X187627909Y-103452779D01*
X134849171Y-52605204D02*
X134849001Y-52618249D01*
X140989177Y-76128841D02*
X140980785Y-76177201D01*
X131293468Y-45556902D02*
X131311985Y-45542073D01*
X162479440Y-69495631D02*
X162516606Y-69463571D01*
X164151000Y-24127194D02*
X164151000Y-24745528D01*
X163858107Y-69529475D02*
X163891951Y-69565023D01*
X126794012Y-47063499D02*
X126816080Y-47019657D01*
X134872636Y-80668809D02*
X134869925Y-80694697D01*
X156142271Y-46976951D02*
X156168530Y-46935484D01*
X109787670Y-46490904D02*
X109799951Y-46491054D01*
X134938331Y-43213199D02*
X134979834Y-43387489D01*
X189240178Y-77485568D02*
X189219104Y-77474455D01*
X133512110Y-40803983D02*
X133558715Y-40788587D01*
X131595808Y-49690459D02*
X131465743Y-49570132D01*
X132991272Y-69722479D02*
X133017531Y-69681011D01*
X190945866Y-72814232D02*
X191028152Y-72658441D01*
X107780897Y-74489824D02*
X107942627Y-74570235D01*
X162269078Y-82199034D02*
X162247010Y-82155193D01*
X189057373Y-46079180D02*
X189219104Y-45998769D01*
X133421445Y-54140571D02*
X133377603Y-54118503D01*
X164490243Y-50997085D02*
X164480246Y-51020007D01*
X108152629Y-20319748D02*
X108130440Y-20328860D01*
X134872636Y-71295675D02*
X134896287Y-71476036D01*
X132850205Y-81776706D02*
X132849001Y-81727638D01*
X136102195Y-45291783D02*
X136232257Y-45412096D01*
X110698002Y-76982110D02*
X109799952Y-76982110D01*
X164151170Y-99359285D02*
X164156190Y-99551627D01*
X161529069Y-44516811D02*
X161542042Y-44496101D01*
X133421445Y-97823648D02*
X133466316Y-97803757D01*
X131753163Y-102113765D02*
X131870734Y-101982095D01*
X163822559Y-69495631D02*
X163858107Y-69529475D01*
X188255160Y-46363903D02*
X188278714Y-46358020D01*
X134622011Y-82362031D02*
X134589952Y-82399196D01*
X156259049Y-46819495D02*
X156292893Y-46783947D01*
X134483394Y-40972516D02*
X134520560Y-41004576D01*
X132116120Y-50298701D02*
X132011979Y-50156649D01*
X162066991Y-100170095D02*
X162099681Y-99992684D01*
X138046842Y-48618223D02*
X138023286Y-48624108D01*
X187212334Y-76982260D02*
X187200051Y-76982110D01*
X129852820Y-20182173D02*
X129674717Y-20133053D01*
X163822559Y-41004576D02*
X163858107Y-41038420D01*
X108744842Y-74854958D02*
X108926486Y-74895674D01*
X165534257Y-49570133D02*
X165404193Y-49690459D01*
X168191696Y-74977045D02*
X168391668Y-74981959D01*
X156096011Y-76409665D02*
X156076120Y-76364794D01*
X159154819Y-74799960D02*
X159177967Y-74792971D01*
X169592284Y-75025169D02*
X169638890Y-75040565D01*
X185312822Y-47344323D02*
X185321214Y-47295963D01*
X156010823Y-47637786D02*
X156004815Y-47589073D01*
X190601251Y-78628600D02*
X190490277Y-78491610D01*
X138437373Y-46441454D02*
X138461567Y-46445043D01*
X162860714Y-82684577D02*
X162814109Y-82669181D01*
X167124034Y-103284026D02*
X167147182Y-103291015D01*
X132341867Y-22168080D02*
X132329837Y-22146600D01*
X134829786Y-24940618D02*
X134819032Y-24988508D01*
X140671559Y-46750103D02*
X140707107Y-46783947D01*
X111169398Y-75100188D02*
X111212104Y-75124381D01*
X135686022Y-101807739D02*
X135700750Y-101826842D01*
X128596054Y-74982109D02*
X128608335Y-74981959D01*
X164202319Y-43010574D02*
X164235009Y-43187985D01*
X140941544Y-47827945D02*
X140923880Y-47873739D01*
X135457960Y-78977255D02*
X135368165Y-79128709D01*
X162161823Y-98580906D02*
X162170214Y-98532546D01*
X162443892Y-82434744D02*
X162410048Y-82399196D01*
X166034146Y-74284313D02*
X166186289Y-74378981D01*
X130073004Y-48745574D02*
X130050314Y-48737508D01*
X132759671Y-51769168D02*
X132718168Y-51594870D01*
X188654312Y-77228563D02*
X188479966Y-77171274D01*
X129260632Y-48540663D02*
X129236435Y-48537073D01*
X105552192Y-99551627D02*
X105553554Y-99577693D01*
X191190376Y-22692777D02*
X191123754Y-22528953D01*
X132435195Y-22346104D02*
X132424154Y-22323881D01*
X161737194Y-44145164D02*
X161811755Y-43985254D01*
X109787670Y-103473014D02*
X109799951Y-103473164D01*
X134589952Y-53908141D02*
X134556108Y-53943689D01*
X164174635Y-99786730D02*
X164198286Y-99967091D01*
X129260631Y-74932509D02*
X129445610Y-74900424D01*
X164174635Y-23686699D02*
X164171924Y-23712587D01*
X158538434Y-77028128D02*
X158350325Y-77004905D01*
X109799952Y-76982110D02*
X109787669Y-76982260D01*
X156901982Y-46495870D02*
X156950931Y-46492259D01*
X169448730Y-74992933D02*
X169497090Y-75001324D01*
X163858107Y-82434744D02*
X163822559Y-82468588D01*
X185398010Y-76409665D02*
X185378119Y-76364794D01*
X161963510Y-72074277D02*
X162013602Y-71903285D01*
X137082896Y-48983401D02*
X137061824Y-48994513D01*
X162066991Y-51794380D02*
X162061670Y-51769168D01*
X188049606Y-48572752D02*
X187864630Y-48540663D01*
X106800195Y-49690459D02*
X106783109Y-49707039D01*
X185470529Y-76537680D02*
X185444270Y-76496213D01*
X161643867Y-44323177D02*
X161726153Y-44167386D01*
X164240330Y-100195309D02*
X164281833Y-100369599D01*
X163487890Y-25687071D02*
X163441285Y-25702467D01*
X189755876Y-45664878D02*
X189897466Y-45556902D01*
X169897699Y-76785317D02*
X169857570Y-76813579D01*
X135102716Y-43774921D02*
X135111624Y-43798514D01*
X190357160Y-78341654D02*
X190340828Y-78324219D01*
X187864630Y-20049608D02*
X187840433Y-20046018D01*
X110747070Y-76980905D02*
X110698002Y-76982110D01*
X128608335Y-103473014D02*
X128808306Y-103468100D01*
X140998795Y-47441986D02*
X141000000Y-47491054D01*
X137082896Y-45998769D02*
X137244626Y-46079180D01*
X162293271Y-98213534D02*
X162319530Y-98172066D01*
X134790545Y-98390746D02*
X134805941Y-98437352D01*
X160897807Y-49690459D02*
X160767742Y-49570132D01*
X111693186Y-76080128D02*
X111687178Y-76128841D01*
X185360455Y-76319000D02*
X185345059Y-76272395D01*
X133293430Y-82559107D02*
X133253301Y-82530845D01*
X188654314Y-74735687D02*
X188677000Y-74727623D01*
X138889697Y-103468100D02*
X139089669Y-103473014D01*
X111471012Y-75347716D02*
X111501209Y-75386410D01*
X165129265Y-21491228D02*
X165113722Y-21509500D01*
X135273848Y-72658441D02*
X135356134Y-72814232D01*
X126990894Y-46783947D02*
X127026442Y-46750103D01*
X185444270Y-48005158D02*
X185420078Y-47962452D01*
X109587698Y-103468100D02*
X109787670Y-103473014D01*
X164338491Y-43583223D02*
X164346252Y-43607419D01*
X130050316Y-74735687D02*
X130073002Y-74727623D01*
X126816080Y-47019657D02*
X126840272Y-46976951D01*
X132586378Y-79674887D02*
X132519756Y-79511063D01*
X135470931Y-50465492D02*
X135457960Y-50486200D01*
X187436856Y-76988382D02*
X187412303Y-76987174D01*
X156485897Y-48348783D02*
X156444429Y-48322524D01*
X188479966Y-46301916D02*
X188654314Y-46244632D01*
X162293271Y-82241740D02*
X162269078Y-82199034D01*
X140989177Y-47344323D02*
X140995185Y-47393036D01*
X127361110Y-76923654D02*
X127315317Y-76905989D01*
X163150999Y-54236582D02*
X163101931Y-54235377D01*
X107964275Y-48892854D02*
X107942628Y-48902980D01*
X164404715Y-43774921D02*
X164413623Y-43798514D01*
X134849001Y-70855185D02*
X134849171Y-70868230D01*
X131447933Y-21063369D02*
X131311985Y-20949090D01*
X132509756Y-72476309D02*
X132519757Y-72453380D01*
X130243374Y-48810803D02*
X130073004Y-48745574D01*
X106930258Y-45412096D02*
X106948073Y-45427807D01*
X107244124Y-102646987D02*
X107263317Y-102660917D01*
X138228485Y-103386729D02*
X138252394Y-103391479D01*
X163393980Y-69266551D02*
X163441285Y-69279642D01*
X132967079Y-82199034D02*
X132945011Y-82155193D01*
X166384895Y-77474456D02*
X166363823Y-77485568D01*
X156709715Y-75025169D02*
X156757019Y-75012078D01*
X168167144Y-48497327D02*
X167976094Y-48511442D01*
X134044092Y-25726312D02*
X133995732Y-25734704D01*
X156328441Y-46750103D02*
X156365606Y-46718044D01*
X161299252Y-78628600D02*
X161188278Y-78491610D01*
X191028152Y-72658441D02*
X191039193Y-72636220D01*
X168167144Y-76988382D02*
X167976094Y-77002497D01*
X138865145Y-20006272D02*
X138674095Y-20020387D01*
X156572444Y-46587065D02*
X156617316Y-46567175D01*
X157898053Y-74982109D02*
X157910334Y-74981959D01*
X165002749Y-73335787D02*
X165113721Y-73472765D01*
X159177967Y-20189164D02*
X159154819Y-20182173D01*
X163487890Y-69295038D02*
X163533684Y-69312702D01*
X161299251Y-101826842D02*
X161313979Y-101807739D01*
X191432075Y-52203642D02*
X191429364Y-52177754D01*
X132892060Y-98437352D02*
X132907456Y-98390746D01*
X106642840Y-102113765D02*
X106659173Y-102131199D01*
X108345687Y-103226742D02*
X108520036Y-103284026D01*
X163706570Y-82559107D02*
X163665103Y-82585366D01*
X164140176Y-81874368D02*
X164131785Y-81922728D01*
X107102535Y-20934260D02*
X107084020Y-20949088D01*
X135686022Y-44825629D02*
X135700750Y-44844732D01*
X135944840Y-21359544D02*
X135827266Y-21491228D01*
X163622397Y-69354661D02*
X163665103Y-69378853D01*
X126698001Y-75982109D02*
X126699206Y-75933041D01*
X138674092Y-46470669D02*
X138865146Y-46484783D01*
X159733727Y-103071415D02*
X159755374Y-103061290D01*
X185561048Y-76653669D02*
X185528988Y-76616503D01*
X138889698Y-76987174D02*
X138865145Y-76988382D01*
X137625001Y-74727624D02*
X137647686Y-74735687D01*
X137647686Y-46244632D02*
X137822035Y-46301916D01*
X191123755Y-72453380D02*
X191190376Y-72289566D01*
X156001205Y-47441986D02*
X156004815Y-47393036D01*
X158538434Y-20046018D02*
X158350325Y-20022795D01*
X134829786Y-70041491D02*
X134838177Y-70089851D01*
X167124034Y-20189164D02*
X166949687Y-20246453D01*
X130965855Y-74284313D02*
X130985697Y-74271303D01*
X131870734Y-44999985D02*
X131886280Y-44981710D01*
X170105207Y-76577809D02*
X170075010Y-76616503D01*
X135044252Y-51374935D02*
X135036492Y-51399128D01*
X131447933Y-49554424D02*
X131311985Y-49440145D01*
X164151000Y-70855185D02*
X164151170Y-70868230D01*
X166014304Y-49201945D02*
X165867315Y-49303398D01*
X130965855Y-77679990D02*
X130813712Y-77585310D01*
X140773011Y-48125448D02*
X140740951Y-48162614D01*
X167976094Y-77002497D02*
X167951676Y-77004905D01*
X140427556Y-75078120D02*
X140471397Y-75100188D01*
X134896287Y-71476036D02*
X134900320Y-71501629D01*
X135581883Y-73174644D02*
X135686022Y-73316684D01*
X158771517Y-103386729D02*
X158953161Y-103346013D01*
X156118079Y-76453507D02*
X156096011Y-76409665D01*
X134772880Y-98344953D02*
X134790545Y-98390746D01*
X166756627Y-74662401D02*
X166927000Y-74727624D01*
X105677835Y-71878544D02*
X105684400Y-71903285D01*
X139101951Y-20000000D02*
X139089668Y-20000150D01*
X106066166Y-79128710D02*
X106054136Y-79150190D01*
X156058456Y-47154164D02*
X156076120Y-47108370D01*
X191265508Y-79890184D02*
X191257748Y-79865988D01*
X131870734Y-101982095D02*
X131886280Y-101963820D01*
X134900320Y-80462853D02*
X134896287Y-80488445D01*
X136732147Y-45793258D02*
X136884290Y-45887926D01*
X127102301Y-48294262D02*
X127063607Y-48264065D01*
X111212104Y-46633326D02*
X111253572Y-46659585D01*
X163822559Y-53977533D02*
X163785393Y-54009593D01*
X159352315Y-46244632D02*
X159375001Y-46236568D01*
X164156190Y-99551627D02*
X164157552Y-99577693D01*
X187627909Y-74961724D02*
X187652321Y-74959317D01*
X161055161Y-49850599D02*
X161038829Y-49833164D01*
X133558715Y-25702467D02*
X133512110Y-25687071D01*
X162020167Y-51594869D02*
X162013602Y-51570130D01*
X111621881Y-75599425D02*
X111639545Y-75645219D01*
X107410306Y-102762358D02*
X107430148Y-102775368D01*
X140773011Y-75347716D02*
X140803208Y-75386410D01*
X134847796Y-24794596D02*
X134844185Y-24843545D01*
X132945011Y-98300081D02*
X132967079Y-98256240D01*
X162555300Y-82530845D02*
X162516606Y-82500648D01*
X161529070Y-78956547D02*
X161431991Y-78809674D01*
X140049069Y-48489850D02*
X140000001Y-48491055D01*
X190844041Y-72987156D02*
X190933834Y-72835714D01*
X134819032Y-53479563D02*
X134805941Y-53526867D01*
X133750982Y-40750342D02*
X133799932Y-40746732D01*
X161963509Y-79890184D02*
X161955749Y-79865988D01*
X136565316Y-74169862D02*
X136712305Y-74271303D01*
X166949687Y-77228563D02*
X166926998Y-77236629D01*
X191257747Y-43607420D02*
X191265509Y-43583222D01*
X107964276Y-103071415D02*
X108130441Y-103144346D01*
X185561048Y-46819495D02*
X185594892Y-46783947D01*
X185378119Y-76364794D02*
X185360455Y-76319000D01*
X133214607Y-40972516D02*
X133253301Y-40942319D01*
X164032921Y-98256240D02*
X164054989Y-98300081D01*
X132945011Y-25173083D02*
X132925121Y-25128211D01*
X164198286Y-23506335D02*
X164174635Y-23686699D01*
X129023911Y-74961724D02*
X129048323Y-74959317D01*
X163393980Y-82697668D02*
X163346091Y-82708422D01*
X169351068Y-76980905D02*
X169302000Y-76982110D01*
X160267854Y-102775368D02*
X160287696Y-102762358D01*
X111529471Y-76537680D02*
X111501209Y-76577809D01*
X167325286Y-46358020D02*
X167348840Y-46363903D01*
X162161823Y-41598796D02*
X162170214Y-41550436D01*
X166384895Y-74489824D02*
X166546625Y-74570235D01*
X156076120Y-75599425D02*
X156096011Y-75554554D01*
X156292893Y-46783947D02*
X156328441Y-46750103D01*
X160115711Y-45887927D02*
X160267854Y-45793258D01*
X163785393Y-69463571D02*
X163822559Y-69495631D01*
X187212333Y-103473014D02*
X187412304Y-103468100D01*
X161643866Y-22168080D02*
X161631836Y-22146600D01*
X164157552Y-23895742D02*
X164156190Y-23921807D01*
X162679602Y-97845716D02*
X162723444Y-97823648D01*
X138461568Y-20046018D02*
X138437372Y-20049608D01*
X191452828Y-70868229D02*
X191452998Y-70855186D01*
X106266011Y-73154726D02*
X106279884Y-73174644D01*
X127270445Y-46587065D02*
X127315317Y-46567175D01*
X191452998Y-52618248D02*
X191452828Y-52605205D01*
X135178246Y-100944436D02*
X135188245Y-100967363D01*
X164151170Y-81096259D02*
X164151000Y-81109304D01*
X106054135Y-72814232D02*
X106066167Y-72835714D01*
X163004268Y-82716814D02*
X162955908Y-82708422D01*
X136102194Y-49690459D02*
X136085108Y-49707039D01*
X191429364Y-42804620D02*
X191432075Y-42778732D01*
X138437372Y-77031718D02*
X138252395Y-77063807D01*
X164235009Y-100170095D02*
X164240330Y-100195309D01*
X156292893Y-75275002D02*
X156328441Y-75241158D01*
X158110305Y-74977045D02*
X158134856Y-74975838D01*
X127648932Y-46492259D02*
X127698000Y-46491055D01*
X185398010Y-47063499D02*
X185420078Y-47019657D01*
X167739371Y-20049608D02*
X167554394Y-20081697D01*
X160287696Y-102762358D02*
X160434685Y-102660916D01*
X134320398Y-54118503D02*
X134276556Y-54140571D01*
X162209455Y-98390746D02*
X162227120Y-98344953D01*
X159938179Y-74478713D02*
X160095235Y-74391056D01*
X108744842Y-103346013D02*
X108926486Y-103386729D01*
X162347792Y-53832282D02*
X162319530Y-53792153D01*
X185444270Y-76496213D02*
X185420078Y-76453507D01*
X185306814Y-75884091D02*
X185312822Y-75835378D01*
X110844732Y-76971286D02*
X110796019Y-76977294D01*
X136904766Y-102882112D02*
X137061824Y-102969768D01*
X161188278Y-78491610D02*
X161172735Y-78473338D01*
X132828077Y-99760842D02*
X132842449Y-99577694D01*
X105567926Y-52203642D02*
X105553554Y-52386797D01*
X187200052Y-46491054D02*
X187212333Y-46490904D01*
X162247010Y-98300081D02*
X162269078Y-98256240D01*
X161897283Y-72265978D02*
X161955748Y-72098475D01*
X161821756Y-100944435D02*
X161888377Y-100780621D01*
X161955749Y-22883878D02*
X161897283Y-22716365D01*
X111080685Y-75058230D02*
X111125557Y-75078120D01*
X127226604Y-46609133D02*
X127270445Y-46587065D01*
X106168933Y-101498921D02*
X106266011Y-101645781D01*
X191113754Y-100967364D02*
X191123755Y-100944435D01*
X135188244Y-79488140D02*
X135178247Y-79511062D01*
X132435195Y-79328214D02*
X132424154Y-79305991D01*
X138865145Y-48497327D02*
X138674095Y-48511442D01*
X185667605Y-75209099D02*
X185706299Y-75178902D01*
X164772930Y-50465492D02*
X164759959Y-50486200D01*
X191113756Y-22506028D02*
X191039193Y-22346104D01*
X165706533Y-20934260D02*
X165688018Y-20949088D01*
X135368166Y-44344659D02*
X135457959Y-44496101D01*
X164883882Y-101665699D02*
X164988021Y-101807739D01*
X107602767Y-45900002D02*
X107759825Y-45987658D01*
X163822559Y-97986686D02*
X163858107Y-98020530D01*
X188049606Y-77063807D02*
X187864630Y-77031718D01*
X110940982Y-46521023D02*
X110988286Y-46534114D01*
X164235009Y-71679040D02*
X164240330Y-71704254D01*
X138674092Y-103452779D02*
X138865146Y-103466893D01*
X107602768Y-20591123D02*
X107582291Y-20603201D01*
X105567926Y-23712587D02*
X105553554Y-23895742D01*
X170042950Y-76653669D02*
X170009106Y-76689217D01*
X132661511Y-100565332D02*
X132711603Y-100394340D01*
X185919315Y-46567175D02*
X185965108Y-46549510D01*
X158110305Y-103468100D02*
X158134856Y-103466893D01*
X136102195Y-73782838D02*
X136232257Y-73903151D01*
X108950395Y-46409369D02*
X109135374Y-46441454D01*
X164883882Y-73174644D02*
X164988021Y-73316684D01*
X126708824Y-75835378D02*
X126717216Y-75787018D01*
X190615977Y-21665594D02*
X190601251Y-21646490D01*
X128608336Y-20000150D02*
X128596053Y-20000000D01*
X170282784Y-75787018D02*
X170291176Y-75835378D01*
X166034146Y-77679990D02*
X166014304Y-77693000D01*
X164107940Y-25035812D02*
X164092544Y-25082418D01*
X166926998Y-20254519D02*
X166756627Y-20319748D01*
X158110304Y-20005064D02*
X157910335Y-20000150D01*
X133177441Y-82468588D02*
X133141893Y-82434744D01*
X133466316Y-97803757D02*
X133512110Y-97786093D01*
X134706729Y-69722479D02*
X134730922Y-69765185D01*
X127361110Y-75040565D02*
X127407716Y-75025169D01*
X160897806Y-45291783D02*
X160914894Y-45275203D01*
X164151170Y-42377175D02*
X164156190Y-42569517D01*
X108130441Y-74653291D02*
X108152629Y-74662401D01*
X164131785Y-98532546D02*
X164140176Y-98580906D01*
X158953160Y-20127168D02*
X158771518Y-20086448D01*
X156663109Y-48432599D02*
X156617316Y-48414934D01*
X129674717Y-48624108D02*
X129651161Y-48618223D01*
X126894793Y-76577809D02*
X126866531Y-76537680D01*
X161529069Y-73007866D02*
X161542042Y-72987156D01*
X162061670Y-23278113D02*
X162020167Y-23103815D01*
X135188244Y-22506030D02*
X135178247Y-22528952D01*
X161888377Y-79674887D02*
X161821755Y-79511063D01*
X170243543Y-75645219D02*
X170258939Y-75691824D01*
X190720118Y-21807646D02*
X190615977Y-21665594D01*
X136232258Y-21079078D02*
X136102194Y-21199404D01*
X185830602Y-46609133D02*
X185874443Y-46587065D01*
X105636332Y-23278113D02*
X105631011Y-23303325D01*
X133214607Y-54009593D02*
X133177441Y-53977533D01*
X109347681Y-103450372D02*
X109372093Y-103452779D01*
X140514103Y-75124381D02*
X140555571Y-75150640D01*
X188049608Y-103391479D02*
X188073516Y-103386729D01*
X132509756Y-100967364D02*
X132519757Y-100944435D01*
X129674717Y-77115163D02*
X129651161Y-77109278D01*
X127407716Y-75025169D02*
X127455020Y-75012078D01*
X134444700Y-54039790D02*
X134404571Y-54068052D01*
X135044252Y-79865990D02*
X135036492Y-79890183D01*
X135262807Y-22346104D02*
X135188244Y-22506030D01*
X164107940Y-82017922D02*
X164092544Y-82064528D01*
X140740951Y-75310550D02*
X140773011Y-75347716D01*
X189736685Y-49303399D02*
X189589695Y-49201945D01*
X159755374Y-48902980D02*
X159733727Y-48892854D01*
X164032921Y-82199034D02*
X164008728Y-82241740D01*
X186011714Y-75025169D02*
X186059018Y-75012078D01*
X164575847Y-22323881D02*
X164564806Y-22346104D01*
X126756457Y-47827945D02*
X126741061Y-47781340D01*
X127599983Y-46495870D02*
X127648932Y-46492259D01*
X164772930Y-78956547D02*
X164759959Y-78977255D01*
X168403949Y-103473165D02*
X187200052Y-103473165D01*
X170183920Y-76453507D02*
X170159728Y-76496213D01*
X106279883Y-50298701D02*
X106266011Y-50318619D01*
X156950931Y-74983314D02*
X156999999Y-74982110D01*
X190601251Y-50137545D02*
X190490277Y-50000555D01*
X105684400Y-71903285D02*
X105734493Y-72074278D01*
X161631835Y-72835714D02*
X161643867Y-72814232D01*
X141000000Y-75982110D02*
X140998795Y-76031178D01*
X134849171Y-70868230D02*
X134854191Y-71060572D01*
X106398750Y-78628600D02*
X106384024Y-78647704D01*
X132711603Y-51570130D02*
X132661510Y-51399129D01*
X132764992Y-80285435D02*
X132759671Y-80260223D01*
X111332395Y-48264065D02*
X111293701Y-48294262D01*
X133606020Y-54206613D02*
X133558715Y-54193522D01*
X190051929Y-73918862D02*
X190069743Y-73903152D01*
X132801715Y-71476036D02*
X132825366Y-71295675D01*
X132661510Y-79890184D02*
X132653750Y-79865988D01*
X191429364Y-23686699D02*
X191405713Y-23506335D01*
X140881921Y-47019657D02*
X140903989Y-47063499D01*
X158953161Y-46363903D02*
X158976715Y-46358020D01*
X105677835Y-100369599D02*
X105684400Y-100394340D01*
X127183898Y-46633326D02*
X127226604Y-46609133D01*
X162130076Y-80694697D02*
X162127365Y-80668809D01*
X106659173Y-45149089D02*
X106783108Y-45275203D01*
X167976091Y-46470669D02*
X168167145Y-46484783D01*
X169638890Y-75040565D02*
X169684683Y-75058230D01*
X163746699Y-97924429D02*
X163785393Y-97954626D01*
X105886246Y-100967363D02*
X105960808Y-101127274D01*
X129875968Y-20189164D02*
X129852820Y-20182173D01*
X105570637Y-71295675D02*
X105594288Y-71476036D01*
X170282784Y-47295963D02*
X170291176Y-47344323D01*
X135457959Y-101478211D02*
X135470932Y-101498921D01*
X133558715Y-97770697D02*
X133606020Y-97757606D01*
X105684400Y-43412230D02*
X105734493Y-43583223D01*
X132424154Y-50814936D02*
X132341867Y-50659135D01*
X165387107Y-49707039D02*
X165263171Y-49833164D01*
X166568273Y-48892854D02*
X166546626Y-48902980D01*
X132435195Y-50837159D02*
X132424154Y-50814936D01*
X163200068Y-25744322D02*
X163151000Y-25745527D01*
X133849000Y-25745527D02*
X133799932Y-25744322D01*
X132849001Y-42364131D02*
X132849001Y-41745526D01*
X106783108Y-73766258D02*
X106800196Y-73782838D01*
X160749932Y-21063369D02*
X160613984Y-20949090D01*
X134320398Y-25627448D02*
X134276556Y-25649516D01*
X163954207Y-82323337D02*
X163924010Y-82362031D01*
X164883881Y-50298701D02*
X164870009Y-50318619D01*
X106066167Y-72835714D02*
X106155960Y-72987156D01*
X169936393Y-75209099D02*
X169973558Y-75241158D01*
X186106908Y-48471840D02*
X186059018Y-48461086D01*
X162130076Y-23712587D02*
X162127365Y-23686699D01*
X106783108Y-102257313D02*
X106800196Y-102273893D01*
X156226989Y-76616503D02*
X156196792Y-76577809D01*
X111555730Y-75468006D02*
X111579922Y-75510712D01*
X134933010Y-43187985D02*
X134938331Y-43213199D01*
X162479440Y-82468588D02*
X162443892Y-82434744D01*
X130265562Y-20328859D02*
X130243374Y-20319748D01*
X106509724Y-78491610D02*
X106398750Y-78628600D01*
X138674095Y-20020387D02*
X138649677Y-20022795D01*
X133377603Y-82609558D02*
X133334897Y-82585366D01*
X126699206Y-47441986D02*
X126702816Y-47393036D01*
X133045793Y-82323337D02*
X133017531Y-82283208D01*
X162020167Y-43387489D02*
X162061670Y-43213199D01*
X105876247Y-72453381D02*
X105886246Y-72476308D01*
X140336891Y-76923654D02*
X140290285Y-76939050D01*
X160267854Y-20697880D02*
X160115711Y-20603200D01*
X128808305Y-76987174D02*
X128608336Y-76982260D01*
X111212104Y-75124381D02*
X111253572Y-75150640D01*
X156142271Y-48005158D02*
X156118079Y-47962452D01*
X164670164Y-22146600D02*
X164658134Y-22168080D01*
X132240042Y-50486200D02*
X132227071Y-50465492D01*
X108543184Y-48673228D02*
X108520036Y-48680219D01*
X163924010Y-82362031D02*
X163891951Y-82399196D01*
X108721288Y-103340130D02*
X108744842Y-103346013D01*
X165552071Y-102409917D02*
X165688018Y-102524184D01*
X165848123Y-49317328D02*
X165706533Y-49425315D01*
X164156190Y-42569517D02*
X164157552Y-42595583D01*
X107102535Y-77916370D02*
X107084020Y-77931198D01*
X130615106Y-45998769D02*
X130636180Y-45987658D01*
X161529070Y-21974437D02*
X161431991Y-21827564D01*
X107964275Y-20401799D02*
X107942628Y-20411925D01*
X161726153Y-44167386D02*
X161737194Y-44145165D01*
X141000000Y-47491055D02*
X140998795Y-47540123D01*
X161038829Y-73640144D02*
X161055162Y-73622710D01*
X138649677Y-77004905D02*
X138461569Y-77028128D01*
X156804909Y-75001324D02*
X156853269Y-74992933D01*
X127142430Y-46659585D02*
X127183898Y-46633326D01*
X162099681Y-23480743D02*
X162066991Y-23303325D01*
X129236435Y-20046018D02*
X129048326Y-20022795D01*
X132519756Y-51020008D02*
X132509758Y-50997084D01*
X161897283Y-22716365D02*
X161888377Y-22692777D01*
X156118079Y-47019657D02*
X156142271Y-46976951D01*
X156010823Y-47344323D02*
X156019215Y-47295963D01*
X160749930Y-73918862D02*
X160767744Y-73903152D01*
X126702816Y-76080128D02*
X126699206Y-76031178D01*
X111668032Y-47734035D02*
X111654941Y-47781340D01*
X134276556Y-25649516D02*
X134231685Y-25669407D01*
X135178246Y-72453381D02*
X135188245Y-72476308D01*
X164564806Y-72636220D02*
X164575847Y-72658441D01*
X188869560Y-20328859D02*
X188847372Y-20319748D01*
X111501209Y-75386410D02*
X111529471Y-75426539D01*
X163441285Y-25702467D02*
X163393980Y-25715558D01*
X162319530Y-25301098D02*
X162293271Y-25259630D01*
X129674716Y-46358020D02*
X129852820Y-46308905D01*
X140555571Y-48322524D02*
X140514103Y-48348783D01*
X134231685Y-82651517D02*
X134185891Y-82669181D01*
X163297731Y-54225759D02*
X163249018Y-54231767D01*
X105734493Y-79890183D02*
X105684400Y-80061185D01*
X164870009Y-21827564D02*
X164772930Y-21974437D01*
X135273848Y-22323881D02*
X135262807Y-22346104D01*
X126957050Y-46819495D02*
X126990894Y-46783947D01*
X189569853Y-49188935D02*
X189417710Y-49094255D01*
X136565316Y-49303398D02*
X136546124Y-49317328D01*
X156709715Y-76939050D02*
X156663109Y-76923654D01*
X166206766Y-49082178D02*
X166186289Y-49094256D01*
X109372096Y-48511442D02*
X109347678Y-48513850D01*
X160897806Y-102273893D02*
X160914894Y-102257313D01*
X111687178Y-75835378D02*
X111693186Y-75884091D01*
X191265508Y-51399129D02*
X191257748Y-51374933D01*
X161313978Y-50156649D02*
X161299252Y-50137545D01*
X156901982Y-76977294D02*
X156853269Y-76971286D01*
X161172733Y-73491040D02*
X161188279Y-73472765D01*
X162145810Y-42569516D02*
X162150829Y-42377174D01*
X160595467Y-45556902D02*
X160613984Y-45542073D01*
X164658133Y-72814232D02*
X164670165Y-72835714D01*
X163004268Y-97738460D02*
X163052981Y-97732452D01*
X132967079Y-98256240D02*
X132991272Y-98213534D01*
X131311985Y-45542073D02*
X131447931Y-45427807D01*
X162099681Y-43010574D02*
X162103714Y-42984981D01*
X133947019Y-25740712D02*
X133898069Y-25744322D01*
X162194059Y-98437352D02*
X162209455Y-98390746D01*
X137454628Y-46171346D02*
X137625001Y-46236569D01*
X106168933Y-73007866D02*
X106266011Y-73154726D01*
X169302000Y-74982110D02*
X169351068Y-74983314D01*
X137061824Y-77485568D02*
X136904767Y-77573233D01*
X134979834Y-80085925D02*
X134938331Y-80260223D01*
X158538435Y-46445043D02*
X158562630Y-46441454D01*
X164107940Y-41455242D02*
X164121031Y-41502546D01*
X135700749Y-50137545D02*
X135686023Y-50156649D01*
X131311985Y-102524183D02*
X131447931Y-102409917D01*
X159545374Y-103153456D02*
X159567561Y-103144347D01*
X137647688Y-77228563D02*
X137624999Y-77236629D01*
X163101931Y-82726432D02*
X163052981Y-82722822D01*
X162155815Y-70138564D02*
X162161823Y-70089851D01*
X111696796Y-75933041D02*
X111698001Y-75982109D01*
X138865146Y-74975838D02*
X138889697Y-74977045D01*
X132828077Y-71269787D02*
X132842449Y-71086639D01*
X108520036Y-103284026D02*
X108543184Y-103291015D01*
X161313978Y-21665594D02*
X161299252Y-21646490D01*
X105567926Y-99760842D02*
X105570637Y-99786730D01*
X162145810Y-71060571D02*
X162150829Y-70868229D01*
X136546124Y-49317328D02*
X136404534Y-49425315D01*
X163297731Y-82716814D02*
X163249018Y-82722822D01*
X132718168Y-51594869D02*
X132711603Y-51570130D01*
X189915983Y-49440144D02*
X189897466Y-49425314D01*
X134829786Y-98532546D02*
X134838177Y-98580906D01*
X166186289Y-77585311D02*
X166034146Y-77679990D01*
X160749932Y-78045479D02*
X160613984Y-77931200D01*
X161431991Y-44663671D02*
X161529069Y-44516811D01*
X163954207Y-98131937D02*
X163982469Y-98172066D01*
X127315317Y-76905989D02*
X127270445Y-76886099D01*
X186252930Y-48489850D02*
X186203981Y-48486239D01*
X140903989Y-47063499D02*
X140923880Y-47108370D01*
X162150829Y-81096260D02*
X162145810Y-80903918D01*
X132967079Y-53707979D02*
X132945011Y-53664138D01*
X189589695Y-45780248D02*
X189736684Y-45678806D01*
X111169398Y-48372976D02*
X111125557Y-48395044D01*
X106930258Y-73903151D02*
X106948073Y-73918862D01*
X190844041Y-101478211D02*
X190933834Y-101326769D01*
X105636332Y-80260223D02*
X105631011Y-80285435D01*
X140956940Y-76272395D02*
X140941544Y-76319000D01*
X190051931Y-21063369D02*
X189915983Y-20949090D01*
X164032921Y-41274130D02*
X164054989Y-41317971D01*
X188049606Y-20081697D02*
X187864630Y-20049608D01*
X131447931Y-73918862D02*
X131465745Y-73903152D01*
X134900320Y-71501629D02*
X134933010Y-71679040D01*
X170075010Y-48125448D02*
X170042950Y-48162614D01*
X185965108Y-48432599D02*
X185919315Y-48414934D01*
X129674717Y-20133053D02*
X129651161Y-20127168D01*
X167763566Y-46445043D02*
X167951679Y-46468262D01*
X160749932Y-49554424D02*
X160613984Y-49440145D01*
X166034146Y-45793258D02*
X166186289Y-45887926D01*
X170009106Y-48198162D02*
X169973558Y-48232006D01*
X127551270Y-48480231D02*
X127502910Y-48471840D01*
X164235009Y-80285435D02*
X164202319Y-80462853D01*
X133947019Y-69241397D02*
X133995732Y-69247405D01*
X134979834Y-23103815D02*
X134938331Y-23278113D01*
X169857570Y-46659585D02*
X169897699Y-46687847D01*
X130615106Y-74489824D02*
X130636180Y-74478713D01*
X106384023Y-44825629D02*
X106398751Y-44844732D01*
X185321214Y-47686146D02*
X185312822Y-47637786D01*
X134869925Y-71269787D02*
X134872636Y-71295675D01*
X134730922Y-25216924D02*
X134706729Y-25259630D01*
X107780897Y-45998769D02*
X107942627Y-46079180D01*
X127270445Y-76886099D02*
X127226604Y-76864031D01*
X132853816Y-70138564D02*
X132859824Y-70089851D01*
X134520560Y-82468588D02*
X134483394Y-82500648D01*
X107084020Y-20949088D02*
X106948071Y-21063368D01*
X136232258Y-49570133D02*
X136102194Y-49690459D01*
X105734493Y-43583223D02*
X105742254Y-43607419D01*
X163297731Y-69247405D02*
X163346091Y-69255797D01*
X164054989Y-69809026D02*
X164074879Y-69853898D01*
X134044092Y-69255797D02*
X134091981Y-69266551D01*
X129048326Y-20022795D02*
X129023908Y-20020387D01*
X189736685Y-20812344D02*
X189589695Y-20710890D01*
X162155815Y-24843545D02*
X162152204Y-24794596D01*
X134404571Y-69405112D02*
X134444700Y-69433374D01*
X133293430Y-69405112D02*
X133334897Y-69378853D01*
X164404715Y-22716367D02*
X164346251Y-22883879D01*
X165387106Y-45275203D02*
X165404194Y-45291783D01*
X191190376Y-72289566D02*
X191199282Y-72265978D01*
X169544980Y-76952141D02*
X169497090Y-76962895D01*
X110988286Y-75025169D02*
X111034892Y-75040565D01*
X167951676Y-20022795D02*
X167763568Y-20046018D01*
X160287696Y-20710890D02*
X160267854Y-20697880D01*
X187200052Y-74982109D02*
X187212333Y-74981959D01*
X136712305Y-20710890D02*
X136565316Y-20812343D01*
X137432440Y-103144346D02*
X137454628Y-103153456D01*
X190720117Y-44683589D02*
X190733990Y-44663671D01*
X133750982Y-82722822D02*
X133702269Y-82716814D01*
X111405108Y-48198162D02*
X111369560Y-48232006D01*
X133799932Y-82726432D02*
X133750982Y-82722822D01*
X170205988Y-76409665D02*
X170183920Y-76453507D01*
X164346252Y-100589529D02*
X164404715Y-100757031D01*
X189915983Y-74033128D02*
X190051929Y-73918862D01*
X132435195Y-72636219D02*
X132509756Y-72476309D01*
X156663109Y-46549510D02*
X156709715Y-46534114D01*
X129875968Y-74792971D02*
X130050316Y-74735687D01*
X169684683Y-75058230D02*
X169729555Y-75078120D01*
X106948073Y-45427807D02*
X107084020Y-45542074D01*
X163746699Y-25548735D02*
X163706570Y-25576997D01*
X164346252Y-43607419D02*
X164404715Y-43774921D01*
X161431991Y-73154726D02*
X161529069Y-73007866D01*
X165113721Y-44981710D02*
X165129267Y-44999985D01*
X133702269Y-97738460D02*
X133750982Y-97732452D01*
X130073004Y-20254519D02*
X130050314Y-20246453D01*
X105677835Y-80085925D02*
X105636332Y-80260223D01*
X135457959Y-72987156D02*
X135470932Y-73007866D01*
X187436856Y-20006272D02*
X187412303Y-20005064D01*
X136546124Y-77808383D02*
X136404534Y-77916370D01*
X164174635Y-52177754D02*
X164171924Y-52203642D01*
X130431728Y-103071415D02*
X130453375Y-103061290D01*
X166756627Y-103153456D02*
X166927000Y-103218679D01*
X133558715Y-69279642D02*
X133606020Y-69266551D01*
X161188279Y-101963820D02*
X161299251Y-101826842D01*
X140989177Y-47637786D02*
X140980785Y-47686146D01*
X156000000Y-75982109D02*
X156001205Y-75933041D01*
X137845183Y-48673228D02*
X137822035Y-48680219D01*
X107102535Y-45556901D02*
X107244124Y-45664877D01*
X159545373Y-48810803D02*
X159375003Y-48745574D01*
X107942627Y-103061290D02*
X107964276Y-103071415D01*
X106266011Y-101645781D02*
X106279884Y-101665699D01*
X106509723Y-101963820D02*
X106525269Y-101982095D01*
X185321214Y-47295963D02*
X185331968Y-47248074D01*
X135470931Y-78956547D02*
X135457960Y-78977255D01*
X163665103Y-97869908D02*
X163706570Y-97896167D01*
X105631011Y-71679040D02*
X105636332Y-71704254D01*
X107942628Y-77394035D02*
X107780897Y-77474456D01*
X137082896Y-20492346D02*
X137061824Y-20503458D01*
X165867315Y-74169862D02*
X166014304Y-74271303D01*
X136250072Y-73918862D02*
X136386019Y-74033129D01*
X110796019Y-48486239D02*
X110747070Y-48489850D01*
X140881921Y-76453507D02*
X140857729Y-76496213D01*
X133898069Y-97728842D02*
X133947019Y-97732452D01*
X132329836Y-101326769D02*
X132341868Y-101305287D01*
X138889698Y-20005064D02*
X138865145Y-20006272D01*
X111601990Y-76409665D02*
X111579922Y-76453507D01*
X165848123Y-77808383D02*
X165706533Y-77916370D01*
X191322166Y-100369599D02*
X191363669Y-100195309D01*
X161188278Y-21509500D02*
X161172735Y-21491228D01*
X111293701Y-76785317D02*
X111253572Y-76813579D01*
X133108049Y-41073968D02*
X133141893Y-41038420D01*
X163746699Y-69433374D02*
X163785393Y-69463571D01*
X111405108Y-75275002D02*
X111438952Y-75310550D01*
X131997253Y-78628600D02*
X131886279Y-78491610D01*
X136386019Y-77931198D02*
X136250070Y-78045478D01*
X167739371Y-77031718D02*
X167554394Y-77063807D01*
X133377603Y-25627448D02*
X133334897Y-25603256D01*
X132329836Y-72835714D02*
X132341868Y-72814232D01*
X190069743Y-73903152D02*
X190199805Y-73782838D01*
X128808306Y-46485990D02*
X128832857Y-46484783D01*
X163151000Y-69236582D02*
X163200068Y-69237787D01*
X164413623Y-43798514D02*
X164480245Y-43962326D01*
X137454628Y-48810803D02*
X137432439Y-48819915D01*
X132227070Y-44516811D02*
X132240043Y-44496101D01*
X106168932Y-21974437D02*
X106155961Y-21995145D01*
X134185891Y-82669181D02*
X134139286Y-82684577D01*
X169816102Y-46633326D02*
X169857570Y-46659585D01*
X134231685Y-69312702D02*
X134276556Y-69332593D01*
X134849001Y-53236583D02*
X134847796Y-53285651D01*
X131293468Y-20934259D02*
X131151878Y-20826273D01*
X128832858Y-76988382D02*
X128808305Y-76987174D01*
X132653749Y-100589530D02*
X132661511Y-100565332D01*
X134854191Y-42569517D02*
X134855553Y-42595583D01*
X107582291Y-45887926D02*
X107602767Y-45900002D01*
X111438952Y-75310550D02*
X111471012Y-75347716D01*
X136085107Y-102257313D02*
X136102195Y-102273893D01*
X107964275Y-77383909D02*
X107942628Y-77394035D01*
X107602768Y-77573233D02*
X107582291Y-77585311D01*
X191190376Y-43798511D02*
X191199282Y-43774923D01*
X134622011Y-41111133D02*
X134652208Y-41149827D01*
X133075990Y-53870976D02*
X133045793Y-53832282D01*
X134849001Y-81109304D02*
X134849001Y-81727638D01*
X105886245Y-79488140D02*
X105876248Y-79511062D01*
X132868215Y-24940618D02*
X132859824Y-24892258D01*
X140427556Y-48395044D02*
X140382684Y-48414934D01*
X162377989Y-82362031D02*
X162347792Y-82323337D01*
X108926486Y-103386729D02*
X108950395Y-103391479D01*
X140773011Y-76616503D02*
X140740951Y-76653669D01*
X164288398Y-80061185D02*
X164281833Y-80085924D01*
X156259049Y-75310550D02*
X156292893Y-75275002D01*
X107430148Y-20697880D02*
X107410306Y-20710890D01*
X165552069Y-21063368D02*
X165534257Y-21079078D01*
X162227120Y-53619266D02*
X162209455Y-53573473D01*
X189915983Y-102524183D02*
X190051929Y-102409917D01*
X111621881Y-47108370D02*
X111639545Y-47154164D01*
X107263317Y-49303398D02*
X107244125Y-49317328D01*
X108152629Y-74662401D02*
X108323002Y-74727624D01*
X162410048Y-98056078D02*
X162443892Y-98020530D01*
X133466316Y-54160462D02*
X133421445Y-54140571D01*
X128832858Y-20006272D02*
X128808305Y-20005064D01*
X133702269Y-82716814D02*
X133653909Y-82708422D01*
X108520036Y-74792971D02*
X108543184Y-74799960D01*
X127361110Y-48432599D02*
X127315317Y-48414934D01*
X164988022Y-21665594D02*
X164883881Y-21807646D01*
X107410306Y-77693000D02*
X107263317Y-77794453D01*
X140336891Y-48432599D02*
X140290285Y-48447995D01*
X137061824Y-102969768D02*
X137082896Y-102980879D01*
X160914893Y-21215984D02*
X160897807Y-21199404D01*
X159917105Y-45998769D02*
X159938179Y-45987658D01*
X133898069Y-69237787D02*
X133947019Y-69241397D01*
X133141893Y-41038420D02*
X133177441Y-41004576D01*
X105631011Y-100170095D02*
X105636332Y-100195309D01*
X130985697Y-102762358D02*
X131132686Y-102660916D01*
X170291176Y-47637786D02*
X170282784Y-47686146D01*
X164121031Y-98484656D02*
X164131785Y-98532546D01*
X162595429Y-40914057D02*
X162636896Y-40887798D01*
X132341867Y-50659135D02*
X132329837Y-50637655D01*
X129852820Y-74799960D02*
X129875968Y-74792971D01*
X189035726Y-48892854D02*
X188869560Y-48819914D01*
X132825366Y-23686699D02*
X132801715Y-23506335D01*
X186059018Y-76952141D02*
X186011714Y-76939050D01*
X106525267Y-21491228D02*
X106509724Y-21509500D01*
X140242981Y-75012078D02*
X140290285Y-75025169D01*
X132509758Y-50997083D02*
X132435195Y-50837159D01*
X160115711Y-74378982D02*
X160267854Y-74284313D01*
X140555571Y-76813579D02*
X140514103Y-76839838D01*
X191405713Y-23506335D02*
X191401680Y-23480743D01*
X165688018Y-20949088D02*
X165552069Y-21063368D01*
X109159568Y-74936098D02*
X109347681Y-74959317D01*
X109135373Y-77031718D02*
X108950396Y-77063807D01*
X134185891Y-40803983D02*
X134231685Y-40821647D01*
X159567561Y-48819914D02*
X159545373Y-48810803D01*
X132509758Y-22506028D02*
X132435195Y-22346104D01*
X129023911Y-46470669D02*
X129048323Y-46468262D01*
X161172735Y-49982283D02*
X161055161Y-49850599D01*
X108926485Y-20086448D02*
X108744843Y-20127168D01*
X191199282Y-79698475D02*
X191190376Y-79674887D01*
X161055161Y-21359544D02*
X161038829Y-21342109D01*
X189397234Y-49082179D02*
X189240178Y-48994513D01*
X164288398Y-71903285D02*
X164338491Y-72074278D01*
X133606020Y-25715558D02*
X133558715Y-25702467D01*
X188479966Y-48680219D02*
X188456818Y-48673228D01*
X162209455Y-53573473D02*
X162194059Y-53526867D01*
X134404571Y-40914057D02*
X134444700Y-40942319D01*
X164288398Y-43412230D02*
X164338491Y-43583223D01*
X160267854Y-45793258D02*
X160287696Y-45780248D01*
X132878969Y-41502546D02*
X132892060Y-41455242D01*
X136250070Y-78045478D02*
X136232258Y-78061188D01*
X134520560Y-53977533D02*
X134483394Y-54009593D01*
X105547002Y-99346240D02*
X105547172Y-99359285D01*
X107244124Y-45664877D02*
X107263317Y-45678807D01*
X164670164Y-79128710D02*
X164658134Y-79150190D01*
X134790545Y-82064528D02*
X134772880Y-82110321D01*
X140923880Y-47108370D02*
X140941544Y-47154164D01*
X166949687Y-48737508D02*
X166926998Y-48745574D01*
X135188244Y-50997085D02*
X135178247Y-51020007D01*
X191113754Y-43985254D02*
X191123755Y-43962325D01*
X167147182Y-46308905D02*
X167325286Y-46358020D01*
X107759825Y-48994513D02*
X107602768Y-49082178D01*
X161726153Y-50814936D02*
X161643866Y-50659135D01*
X105547002Y-52618249D02*
X105547002Y-70855185D01*
X158350325Y-20022795D02*
X158325907Y-20020387D01*
X130636180Y-48994513D02*
X130615106Y-48983400D01*
X132859824Y-81874368D02*
X132853816Y-81825655D01*
X132711603Y-23079075D02*
X132661510Y-22908074D01*
X127026442Y-75241158D02*
X127063607Y-75209099D01*
X132341868Y-72814232D02*
X132424154Y-72658441D01*
X166546626Y-20411925D02*
X166384895Y-20492346D01*
X164281833Y-23103815D02*
X164240330Y-23278113D01*
X190831068Y-44516811D02*
X190844041Y-44496101D01*
X163297731Y-97738460D02*
X163346091Y-97746852D01*
X140000001Y-48491055D02*
X139101951Y-48491055D01*
X133075990Y-82362031D02*
X133045793Y-82323337D01*
X126699206Y-76031178D02*
X126698001Y-75982110D01*
X138023287Y-46358020D02*
X138046841Y-46363903D01*
X170133469Y-46935484D02*
X170159728Y-46976951D01*
X132907456Y-25082418D02*
X132892060Y-25035812D01*
X162170214Y-53431673D02*
X162161823Y-53383313D01*
X160453877Y-77808383D02*
X160434686Y-77794454D01*
X134979834Y-71878544D02*
X134986399Y-71903285D01*
X185667605Y-48264065D02*
X185630440Y-48232006D01*
X169684683Y-76905989D02*
X169638890Y-76923654D01*
X134556108Y-69529475D02*
X134589952Y-69565023D01*
X156365606Y-48264065D02*
X156328441Y-48232006D01*
X163200068Y-40746732D02*
X163249018Y-40750342D01*
X138674095Y-48511442D02*
X138649677Y-48513850D01*
X187864629Y-103423564D02*
X188049608Y-103391479D01*
X166034146Y-49188935D02*
X166014304Y-49201945D01*
X111555730Y-46976951D02*
X111579922Y-47019657D01*
X138461567Y-74936098D02*
X138649680Y-74959317D01*
X134622011Y-69602188D02*
X134652208Y-69640882D01*
X156001205Y-47540123D02*
X156000000Y-47491055D01*
X134986399Y-51570130D02*
X134979834Y-51594869D01*
X136085108Y-49707039D02*
X135961172Y-49833164D01*
X105553554Y-52386797D02*
X105552192Y-52412862D01*
X136712305Y-77693000D02*
X136565316Y-77794453D01*
X135111624Y-72289569D02*
X135178246Y-72453381D01*
X134363104Y-69378853D02*
X134404571Y-69405112D01*
X135827266Y-78473338D02*
X135811723Y-78491610D01*
X159375003Y-77236629D02*
X159352313Y-77228563D01*
X156196792Y-46895355D02*
X156226989Y-46856661D01*
X156058456Y-47827945D02*
X156043060Y-47781340D01*
X166949685Y-46244632D02*
X167124034Y-46301916D01*
X164149795Y-81776706D02*
X164146184Y-81825655D01*
X187840433Y-77028128D02*
X187652324Y-77004905D01*
X169897699Y-48294262D02*
X169857570Y-48322524D01*
X190720118Y-78789756D02*
X190615977Y-78647704D01*
X134706729Y-98213534D02*
X134730922Y-98256240D01*
X162127365Y-23686699D02*
X162103714Y-23506335D01*
X187412304Y-103468100D02*
X187436855Y-103466893D01*
X156617316Y-76905989D02*
X156572444Y-76886099D01*
X105876247Y-100944436D02*
X105886246Y-100967363D01*
X134520560Y-41004576D02*
X134556108Y-41038420D01*
X166186289Y-45887926D02*
X166206765Y-45900002D01*
X161897283Y-100757033D02*
X161955748Y-100589530D01*
X126727970Y-76225090D02*
X126717216Y-76177201D01*
X160897806Y-73782838D02*
X160914894Y-73766258D01*
X132011980Y-101807739D02*
X132116119Y-101665699D01*
X166206765Y-102882112D02*
X166363823Y-102969768D01*
X191265509Y-43583222D02*
X191315601Y-43412230D01*
X111579922Y-75510712D02*
X111601990Y-75554554D01*
X134730922Y-69765185D02*
X134752990Y-69809026D01*
X164564806Y-22346104D02*
X164490243Y-22506030D01*
X190474734Y-21491228D02*
X190357160Y-21359544D01*
X185306814Y-47589073D02*
X185303204Y-47540123D01*
X140740951Y-76653669D02*
X140707107Y-76689217D01*
X163487890Y-54178126D02*
X163441285Y-54193522D01*
X165404194Y-102273893D02*
X165534256Y-102394206D01*
X131132686Y-74169861D02*
X131151878Y-74155933D01*
X108950395Y-103391479D02*
X109135374Y-103423564D01*
X105800717Y-72265976D02*
X105809625Y-72289569D01*
X156029969Y-75739129D02*
X156043060Y-75691824D01*
X110940982Y-75012078D02*
X110988286Y-75025169D01*
X110747070Y-74983314D02*
X110796019Y-74986925D01*
X132848830Y-42377174D02*
X132849000Y-42364131D01*
X134819032Y-98484656D02*
X134829786Y-98532546D01*
X191401680Y-51971798D02*
X191368990Y-51794380D01*
X105809625Y-79674884D02*
X105800717Y-79698477D01*
X129236435Y-48537073D02*
X129048326Y-48513850D01*
X163785393Y-25518538D02*
X163746699Y-25548735D01*
X136404534Y-77916370D02*
X136386019Y-77931198D01*
X188255159Y-20127168D02*
X188073517Y-20086448D01*
X107263317Y-102660917D02*
X107410306Y-102762358D01*
X164338491Y-72074278D02*
X164346252Y-72098474D01*
X126702816Y-47589073D02*
X126699206Y-47540123D01*
X136884290Y-74378981D02*
X136904766Y-74391057D01*
X170105207Y-75386410D02*
X170133469Y-75426539D01*
X111293701Y-48294262D02*
X111253572Y-48322524D01*
X165129265Y-49982283D02*
X165113722Y-50000555D01*
X140740951Y-46819495D02*
X140773011Y-46856661D01*
X109563147Y-46484783D02*
X109587698Y-46485990D01*
X156259049Y-48162614D02*
X156226989Y-48125448D01*
X105570637Y-99786730D02*
X105594288Y-99967091D01*
X187652321Y-46468262D02*
X187840434Y-46445043D01*
X134363104Y-40887798D02*
X134404571Y-40914057D01*
X164151000Y-24745528D02*
X164149795Y-24794596D01*
X187212333Y-46490904D02*
X187412304Y-46485990D01*
X165263171Y-102131199D02*
X165387106Y-102257313D01*
X160267854Y-77679990D02*
X160115711Y-77585310D01*
X165867315Y-45678807D02*
X166014304Y-45780248D01*
X187840434Y-46445043D02*
X187864629Y-46441454D01*
X162144448Y-52386796D02*
X162130076Y-52203642D01*
X159352313Y-20246453D02*
X159177967Y-20189164D01*
X130431728Y-77383909D02*
X130265562Y-77310969D01*
X137845183Y-74799960D02*
X138023287Y-74849075D01*
X158771518Y-77068558D02*
X158747608Y-77063807D01*
X127026442Y-48232006D02*
X126990894Y-48198162D01*
X135568010Y-73154726D02*
X135581883Y-73174644D01*
X164870009Y-73154726D02*
X164883882Y-73174644D01*
X138461567Y-46445043D02*
X138649680Y-46468262D01*
X136712305Y-102762358D02*
X136732147Y-102775368D01*
X161631836Y-22146599D02*
X161542041Y-21995145D01*
X168391668Y-74981959D02*
X168403949Y-74982109D01*
X126727970Y-47248074D02*
X126741061Y-47200769D01*
X185331968Y-75739129D02*
X185345059Y-75691824D01*
X134790545Y-53573473D02*
X134772880Y-53619266D01*
X156528603Y-46609133D02*
X156572444Y-46587065D01*
X105553554Y-23895742D02*
X105552192Y-23921807D01*
X190831069Y-78956547D02*
X190733990Y-78809674D01*
X162020167Y-80085924D02*
X162013602Y-80061185D01*
X169302000Y-76982110D02*
X168403950Y-76982110D01*
X163393980Y-25715558D02*
X163346091Y-25726312D01*
X161188279Y-73472765D02*
X161299251Y-73335787D01*
X158350322Y-46468262D02*
X158538435Y-46445043D01*
X156444429Y-75150640D02*
X156485897Y-75124381D01*
X106398750Y-21646490D02*
X106384024Y-21665594D01*
X186106908Y-46510269D02*
X186155268Y-46501878D01*
X134847796Y-53285651D02*
X134844185Y-53334600D01*
X165002748Y-50137545D02*
X164988022Y-50156649D01*
X134896287Y-51997390D02*
X134872636Y-52177754D01*
X106642841Y-78341654D02*
X106525267Y-78473338D01*
X130453375Y-74570235D02*
X130615106Y-74489824D01*
X163249018Y-97732452D02*
X163297731Y-97738460D01*
X185919315Y-48414934D02*
X185874443Y-48395044D01*
X170300794Y-47441986D02*
X170301999Y-47491054D01*
X164490244Y-100967363D02*
X164564806Y-101127274D01*
X164131785Y-41550436D02*
X164140176Y-41598796D01*
X166568274Y-103071415D02*
X166734439Y-103144346D01*
X135262807Y-72636220D02*
X135273848Y-72658441D01*
X134854191Y-52412862D02*
X134849171Y-52605204D01*
X156709715Y-48447995D02*
X156663109Y-48432599D01*
X186203981Y-48486239D02*
X186155268Y-48480231D01*
X191368990Y-23303325D02*
X191363669Y-23278113D01*
X156292893Y-76689217D02*
X156259049Y-76653669D01*
X130793236Y-74391056D02*
X130813712Y-74378982D01*
X111438952Y-46819495D02*
X111471012Y-46856661D01*
X160095235Y-45900001D02*
X160115711Y-45887927D01*
X134772880Y-69853898D02*
X134790545Y-69899691D01*
X162194059Y-53526867D02*
X162180968Y-53479563D01*
X107582291Y-20603201D02*
X107430148Y-20697880D01*
X158976716Y-77115163D02*
X158953160Y-77109278D01*
X185787896Y-75124381D02*
X185830602Y-75100188D01*
X186203981Y-74986925D02*
X186252930Y-74983314D01*
X190601250Y-101826842D02*
X190615978Y-101807739D01*
X140857729Y-76496213D02*
X140831470Y-76537680D01*
X165867315Y-20812343D02*
X165848123Y-20826273D01*
X162443892Y-98020530D02*
X162479440Y-97986686D01*
X163954207Y-41149827D02*
X163982469Y-41189956D01*
X190490278Y-101963820D02*
X190601250Y-101826842D01*
X156004815Y-47393036D02*
X156010823Y-47344323D01*
X164658134Y-79150190D02*
X164575847Y-79305991D01*
X135686022Y-73316684D02*
X135700750Y-73335787D01*
X162723444Y-97823648D02*
X162768315Y-97803757D01*
X164346252Y-72098474D02*
X164404715Y-72265976D01*
X160115711Y-20603200D02*
X160095235Y-20591124D01*
X162194059Y-41455242D02*
X162209455Y-41408636D01*
X140555571Y-46659585D02*
X140595700Y-46687847D01*
X158976716Y-20133053D02*
X158953160Y-20127168D01*
X132227071Y-78956547D02*
X132129992Y-78809674D01*
X134589952Y-41073968D02*
X134622011Y-41111133D01*
X162319530Y-82283208D02*
X162293271Y-82241740D01*
X161172735Y-78473338D02*
X161055161Y-78341654D01*
X127315317Y-75058230D02*
X127361110Y-75040565D01*
X129875968Y-48680219D02*
X129852820Y-48673228D01*
X191190376Y-100780621D02*
X191199282Y-100757033D01*
X127455020Y-48461086D02*
X127407716Y-48447995D01*
X161897283Y-79698475D02*
X161888377Y-79674887D01*
X163297731Y-25734704D02*
X163249018Y-25740712D01*
X133177441Y-69495631D02*
X133214607Y-69463571D01*
X132519757Y-72453380D02*
X132586378Y-72289566D01*
X191446447Y-23895741D02*
X191432075Y-23712587D01*
X135827268Y-73491040D02*
X135944839Y-73622710D01*
X131465743Y-78061187D02*
X131447933Y-78045479D01*
X132801715Y-42984981D02*
X132825366Y-42804620D01*
X131293468Y-102539012D02*
X131311985Y-102524183D01*
X162319530Y-53792153D02*
X162293271Y-53750685D01*
X167951679Y-74959317D02*
X167976091Y-74961724D01*
X129875968Y-77171274D02*
X129852820Y-77164283D01*
X166546626Y-77394035D02*
X166384895Y-77474456D01*
X111080685Y-76905989D02*
X111034892Y-76923654D01*
X132853816Y-53334600D02*
X132850205Y-53285651D01*
X158562631Y-77031718D02*
X158538434Y-77028128D01*
X130073002Y-103218678D02*
X130243375Y-103153456D01*
X164121031Y-41502546D02*
X164131785Y-41550436D01*
X140471397Y-75100188D02*
X140514103Y-75124381D01*
X107084020Y-49440143D02*
X106948071Y-49554423D01*
X164140176Y-70089851D02*
X164146184Y-70138564D01*
X132653749Y-72098475D02*
X132661511Y-72074277D01*
X188677002Y-48745574D02*
X188654312Y-48737508D01*
X140049069Y-76980905D02*
X140000001Y-76982110D01*
X166546626Y-48902980D02*
X166384895Y-48983401D01*
X133849000Y-82727637D02*
X133799932Y-82726432D01*
X185630440Y-76723061D02*
X185594892Y-76689217D01*
X156076120Y-47108370D02*
X156096011Y-47063499D01*
X134231685Y-54160462D02*
X134185891Y-54178126D01*
X156029969Y-47734035D02*
X156019215Y-47686146D01*
X162955908Y-25726312D02*
X162908019Y-25715558D01*
X191368990Y-43187985D02*
X191401680Y-43010574D01*
X156404300Y-46687847D02*
X156444429Y-46659585D01*
X190340828Y-78324219D02*
X190216892Y-78198094D01*
X135273848Y-101149496D02*
X135356134Y-101305287D01*
X167348841Y-48618223D02*
X167325285Y-48624108D01*
X163200068Y-82726432D02*
X163151000Y-82727637D01*
X166949685Y-103226742D02*
X167124034Y-103284026D01*
X127698000Y-46491055D02*
X128596054Y-46491055D01*
X138437373Y-103423564D02*
X138461567Y-103427153D01*
X105960808Y-72636220D02*
X105971849Y-72658441D01*
X140857729Y-75468006D02*
X140881921Y-75510712D01*
X188869560Y-46162237D02*
X189035726Y-46089305D01*
X164151170Y-24114149D02*
X164151000Y-24127194D01*
X105547002Y-24127194D02*
X105547002Y-42364130D01*
X164404715Y-51207422D02*
X164346251Y-51374934D01*
X111332395Y-46718044D02*
X111369560Y-46750103D01*
X162860714Y-54193522D02*
X162814109Y-54178126D01*
X163052981Y-54231767D02*
X163004268Y-54225759D01*
X111332395Y-76755120D02*
X111293701Y-76785317D01*
X167951676Y-77004905D02*
X167763568Y-77028128D01*
X127599983Y-74986925D02*
X127648932Y-74983314D01*
X136250070Y-49554423D02*
X136232258Y-49570133D01*
X185470529Y-75426539D02*
X185498791Y-75386410D01*
X160095235Y-102882111D02*
X160115711Y-102870037D01*
X126774121Y-47108370D02*
X126794012Y-47063499D01*
X164235009Y-51794380D02*
X164202319Y-51971798D01*
X133799932Y-69237787D02*
X133849000Y-69236582D01*
X105960808Y-101127275D02*
X105971849Y-101149496D01*
X110940982Y-48461086D02*
X110893092Y-48471840D01*
X188869560Y-74653292D02*
X189035726Y-74580360D01*
X135036492Y-43583223D02*
X135044253Y-43607419D01*
X166546625Y-46079180D02*
X166568274Y-46089305D01*
X135368166Y-72835714D02*
X135457959Y-72987156D01*
X156292893Y-48198162D02*
X156259049Y-48162614D01*
X130073002Y-46236568D02*
X130243375Y-46171346D01*
X134730922Y-53707979D02*
X134706729Y-53750685D01*
X108744842Y-46363903D02*
X108926486Y-46404619D01*
X162103714Y-42984981D02*
X162127365Y-42804620D01*
X135944840Y-78341654D02*
X135827266Y-78473338D01*
X109347681Y-74959317D02*
X109372093Y-74961724D01*
X134706729Y-82241740D02*
X134680470Y-82283208D01*
X132718168Y-100369599D02*
X132759671Y-100195309D01*
X105636332Y-71704254D02*
X105677835Y-71878544D01*
X163891951Y-41073968D02*
X163924010Y-41111133D01*
X134483394Y-25518538D02*
X134444700Y-25548735D01*
X134139286Y-97770697D02*
X134185891Y-97786093D01*
X138437372Y-20049608D02*
X138252395Y-20081697D01*
X135581883Y-101665699D02*
X135686022Y-101807739D01*
X164198286Y-51997390D02*
X164174635Y-52177754D01*
X106659173Y-73640144D02*
X106783108Y-73766258D01*
X130453375Y-103061290D02*
X130615106Y-102980879D01*
X163052981Y-82722822D02*
X163004268Y-82716814D01*
X188847373Y-103153456D02*
X188869560Y-103144347D01*
X106066167Y-101326769D02*
X106155960Y-101478211D01*
X134622011Y-53870976D02*
X134589952Y-53908141D01*
X165263171Y-73640144D02*
X165387106Y-73766258D01*
X162860714Y-40788587D02*
X162908019Y-40775496D01*
X187212333Y-74981959D02*
X187412304Y-74977045D01*
X106948071Y-49554423D02*
X106930259Y-49570133D01*
X161542041Y-21995145D02*
X161529070Y-21974437D01*
X129023911Y-103452779D02*
X129048323Y-103450372D01*
X164151000Y-53236583D02*
X164149795Y-53285651D01*
X159545373Y-77301858D02*
X159375003Y-77236629D01*
X134900320Y-43010574D02*
X134933010Y-43187985D01*
X106054136Y-50659135D02*
X105971849Y-50814936D01*
X164146184Y-81825655D02*
X164140176Y-81874368D01*
X161299251Y-44844732D02*
X161313979Y-44825629D01*
X134556108Y-25452634D02*
X134520560Y-25486478D01*
X134872636Y-99786730D02*
X134896287Y-99967091D01*
X156043060Y-75691824D02*
X156058456Y-75645219D01*
X132849000Y-81109303D02*
X132848830Y-81096260D01*
X190733990Y-73154726D02*
X190831068Y-73007866D01*
X106642840Y-45131655D02*
X106659173Y-45149089D01*
X158747609Y-74900424D02*
X158771517Y-74895674D01*
X140707107Y-48198162D02*
X140671559Y-48232006D01*
X191368990Y-51794380D02*
X191363669Y-51769168D01*
X126866531Y-48046625D02*
X126840272Y-48005158D01*
X136250072Y-102409917D02*
X136386019Y-102524184D01*
X129469518Y-103386729D02*
X129651162Y-103346013D01*
X191199282Y-72265978D02*
X191257747Y-72098475D01*
X126741061Y-76272395D02*
X126727970Y-76225090D01*
X190831068Y-73007866D02*
X190844041Y-72987156D01*
X111471012Y-48125448D02*
X111438952Y-48162614D01*
X156757019Y-75012078D02*
X156804909Y-75001324D01*
X106800196Y-45291783D02*
X106930258Y-45412096D01*
X164174635Y-80668809D02*
X164171924Y-80694697D01*
X169400017Y-76977294D02*
X169351068Y-76980905D01*
X135188245Y-72476308D02*
X135262807Y-72636219D01*
X159917105Y-48983400D02*
X159755374Y-48902980D01*
X134896287Y-80488445D02*
X134872636Y-80668809D01*
X132825366Y-42804620D02*
X132828077Y-42778732D01*
X187436855Y-74975838D02*
X187627909Y-74961724D01*
X165688018Y-74033129D02*
X165706533Y-74047956D01*
X162151000Y-70236581D02*
X162152204Y-70187513D01*
X138046841Y-74854958D02*
X138228485Y-74895674D01*
X132848830Y-99359284D02*
X132849000Y-99346241D01*
X185874443Y-75078120D02*
X185919315Y-75058230D01*
X107430148Y-49188935D02*
X107410306Y-49201945D01*
X106398750Y-50137545D02*
X106384024Y-50156649D01*
X162180968Y-98484656D02*
X162194059Y-98437352D01*
X133653909Y-54217367D02*
X133606020Y-54206613D01*
X185498791Y-75386410D02*
X185528988Y-75347716D01*
X165129265Y-78473338D02*
X165113722Y-78491610D01*
X135457960Y-21995145D02*
X135368165Y-22146599D01*
X108130440Y-20328860D02*
X107964275Y-20401799D01*
X164156190Y-52412862D02*
X164151170Y-52605204D01*
X161963509Y-51399129D02*
X161955749Y-51374933D01*
X131870736Y-49982283D02*
X131753162Y-49850599D01*
X140857729Y-48005158D02*
X140831470Y-48046625D01*
X190733990Y-78809674D02*
X190720118Y-78789756D01*
X164107940Y-53526867D02*
X164092544Y-53573473D01*
X170300794Y-75933041D02*
X170301999Y-75982109D01*
X159755374Y-74570235D02*
X159917105Y-74489824D01*
X111639545Y-75645219D02*
X111654941Y-75691824D01*
X105742253Y-79865990D02*
X105734493Y-79890183D01*
X162860714Y-69279642D02*
X162908019Y-69266551D01*
X186155268Y-48480231D02*
X186106908Y-48471840D01*
X167763567Y-20046018D02*
X167739371Y-20049608D01*
X134404571Y-25576997D02*
X134363104Y-25603256D01*
X187864629Y-46441454D02*
X188049608Y-46409369D01*
X169684683Y-46567175D02*
X169729555Y-46587065D01*
X163622397Y-54118503D02*
X163578555Y-54140571D01*
X133653909Y-25726312D02*
X133606020Y-25715558D01*
X189897466Y-49425314D02*
X189755876Y-49317328D01*
X157898052Y-20000000D02*
X139101951Y-20000000D01*
X110893092Y-48471840D02*
X110844732Y-48480231D01*
X162814109Y-54178126D02*
X162768315Y-54160462D01*
X107084020Y-102524184D02*
X107102535Y-102539011D01*
X139089668Y-20000150D02*
X138889698Y-20005064D01*
X160453877Y-20826273D02*
X160434686Y-20812344D01*
X107780897Y-77474456D02*
X107759825Y-77485568D01*
X158747607Y-77063807D02*
X158562631Y-77031718D01*
X126794012Y-76409665D02*
X126774121Y-76364794D01*
X191199282Y-51207420D02*
X191190376Y-51183832D01*
X159567561Y-103144347D02*
X159733727Y-103071415D01*
X161313979Y-44825629D02*
X161418118Y-44683589D01*
X165867315Y-49303398D02*
X165848123Y-49317328D01*
X188073516Y-74895674D02*
X188255160Y-74854958D01*
X105800717Y-100757031D02*
X105809625Y-100780624D01*
X166014304Y-102762358D02*
X166034146Y-102775368D01*
X162152204Y-98678568D02*
X162155815Y-98629619D01*
X133421445Y-69332593D02*
X133466316Y-69312702D01*
X127270445Y-75078120D02*
X127315317Y-75058230D01*
X135944839Y-73622710D02*
X135961172Y-73640144D01*
X134805941Y-69946297D02*
X134819032Y-69993601D01*
X160914893Y-49707039D02*
X160897807Y-49690459D01*
X191257748Y-22883878D02*
X191199282Y-22716365D01*
X190069741Y-21079077D02*
X190051931Y-21063369D01*
X137845183Y-20182173D02*
X137822035Y-20189164D01*
X133702269Y-40756350D02*
X133750982Y-40750342D01*
X156404300Y-76785317D02*
X156365606Y-76755120D01*
X140634394Y-46718044D02*
X140671559Y-46750103D01*
X131465743Y-21079077D02*
X131447933Y-21063369D01*
X159917105Y-20492345D02*
X159755374Y-20411925D01*
X163982469Y-53792153D02*
X163954207Y-53832282D01*
X190340828Y-21342109D02*
X190216892Y-21215984D01*
X135827268Y-101982095D02*
X135944839Y-102113765D01*
X134752990Y-98300081D02*
X134772880Y-98344953D01*
X163393980Y-54206613D02*
X163346091Y-54217367D01*
X140382684Y-75058230D02*
X140427556Y-75078120D01*
X131311985Y-49440144D02*
X131293468Y-49425314D01*
X126727970Y-75739129D02*
X126741061Y-75691824D01*
X164564806Y-79328214D02*
X164490243Y-79488140D01*
X159375001Y-46236568D02*
X159545374Y-46171346D01*
X129048326Y-77004905D02*
X129023908Y-77002497D01*
X156853269Y-46501878D02*
X156901982Y-46495870D01*
X163982469Y-41189956D02*
X164008728Y-41231424D01*
X111621881Y-76364794D02*
X111601990Y-76409665D01*
X107780897Y-48983401D02*
X107759825Y-48994513D01*
X134844185Y-53334600D02*
X134838177Y-53383313D01*
X170042950Y-75310550D02*
X170075010Y-75347716D01*
X157910334Y-74981959D02*
X158110305Y-74977045D01*
X188049608Y-74900424D02*
X188073516Y-74895674D01*
X128832857Y-103466893D02*
X129023911Y-103452779D01*
X140923880Y-75599425D02*
X140941544Y-75645219D01*
X131753163Y-45131655D02*
X131870734Y-44999985D01*
X135827268Y-44999985D02*
X135944839Y-45131655D01*
X106642840Y-73622710D02*
X106659173Y-73640144D01*
X110893092Y-46510269D02*
X110940982Y-46521023D01*
X140923880Y-76364794D02*
X140903989Y-76409665D01*
X134849171Y-99359285D02*
X134854191Y-99551627D01*
X191123754Y-51020008D02*
X191113756Y-50997084D01*
X170258939Y-76272395D02*
X170243543Y-76319000D01*
X130431728Y-48892854D02*
X130265562Y-48819914D01*
X129236435Y-77028128D02*
X129048326Y-77004905D01*
X140049069Y-74983314D02*
X140098018Y-74986925D01*
X164338491Y-79890183D02*
X164288398Y-80061185D01*
X132825366Y-52177754D02*
X132801715Y-51997390D01*
X136102194Y-78181514D02*
X136085108Y-78198094D01*
X108543184Y-20182173D02*
X108520036Y-20189164D01*
X140980785Y-76177201D02*
X140970031Y-76225090D01*
X106783109Y-49707039D02*
X106659173Y-49833164D01*
X134276556Y-97823648D02*
X134320398Y-97845716D01*
X133253301Y-25548735D02*
X133214607Y-25518538D01*
X140146731Y-74992933D02*
X140195091Y-75001324D01*
X134805941Y-25035812D02*
X134790545Y-25082418D01*
X131132687Y-77794454D02*
X130985697Y-77693000D01*
X132435195Y-44145164D02*
X132509756Y-43985254D01*
X135111624Y-43798514D02*
X135178246Y-43962326D01*
X190831069Y-21974437D02*
X190733990Y-21827564D01*
X185398010Y-47918610D02*
X185378119Y-47873739D01*
X188255160Y-74854958D02*
X188278714Y-74849075D01*
X190844040Y-21995145D02*
X190831069Y-21974437D01*
X132842449Y-71086639D02*
X132843811Y-71060571D01*
X109159569Y-48537073D02*
X109135373Y-48540663D01*
X129260632Y-20049608D02*
X129236435Y-20046018D01*
X189569853Y-45793258D02*
X189589695Y-45780248D01*
X189397234Y-45900001D02*
X189417710Y-45887927D01*
X162127365Y-42804620D02*
X162130076Y-42778732D01*
X162161823Y-81874368D02*
X162155815Y-81825655D01*
X133512110Y-69295038D02*
X133558715Y-69279642D01*
X190069743Y-102394207D02*
X190199805Y-102273893D01*
X164480245Y-72453381D02*
X164490244Y-72476308D01*
X137625001Y-46236569D02*
X137647686Y-46244632D01*
X162516606Y-54009593D02*
X162479440Y-53977533D01*
X133141893Y-69529475D02*
X133177441Y-69495631D01*
X159567561Y-46162237D02*
X159733727Y-46089305D01*
X166568273Y-77383909D02*
X166546626Y-77394035D01*
X158747607Y-48572752D02*
X158562631Y-48540663D01*
X162636896Y-97869908D02*
X162679602Y-97845716D01*
X185830602Y-48372976D02*
X185787896Y-48348783D01*
X161955749Y-51374933D02*
X161897283Y-51207420D01*
X132859824Y-24892258D02*
X132853816Y-24843545D01*
X161737194Y-79328214D02*
X161726153Y-79305991D01*
X132848830Y-81096260D02*
X132843811Y-80903918D01*
X159177967Y-77171274D02*
X159154819Y-77164283D01*
X190933835Y-50637654D02*
X190844040Y-50486200D01*
X170133469Y-75426539D02*
X170159728Y-75468006D01*
X135961172Y-21342109D02*
X135944840Y-21359544D01*
X162555300Y-25548735D02*
X162516606Y-25518538D01*
X186252930Y-76980905D02*
X186203981Y-76977294D01*
X164404715Y-72265976D02*
X164413623Y-72289569D01*
X190474734Y-49982283D02*
X190357160Y-49850599D01*
X161643866Y-79150190D02*
X161631836Y-79128710D01*
X110893092Y-75001324D02*
X110940982Y-75012078D01*
X164235009Y-43187985D02*
X164240330Y-43213199D01*
X140989177Y-75835378D02*
X140995185Y-75884091D01*
X167147182Y-103291015D02*
X167325286Y-103340130D01*
X160595467Y-49425314D02*
X160453877Y-49317328D01*
X161955748Y-43607420D02*
X161963510Y-43583222D01*
X163578555Y-69332593D02*
X163622397Y-69354661D01*
X105570637Y-23686699D02*
X105567926Y-23712587D01*
X163393980Y-97757606D02*
X163441285Y-97770697D01*
X169857570Y-76813579D02*
X169816102Y-76839838D01*
X156365606Y-76755120D02*
X156328441Y-76723061D01*
X158350322Y-103450372D02*
X158538435Y-103427153D01*
X191257748Y-79865988D02*
X191199282Y-79698475D01*
X162152204Y-41696458D02*
X162155815Y-41647509D01*
X156328441Y-48232006D02*
X156292893Y-48198162D01*
X139089668Y-76982260D02*
X138889698Y-76987174D01*
X191447809Y-99551626D02*
X191452828Y-99359284D01*
X133108049Y-25417086D02*
X133075990Y-25379921D01*
X132925121Y-41362843D02*
X132945011Y-41317971D01*
X133253301Y-69433374D02*
X133293430Y-69405112D01*
X136102195Y-102273893D02*
X136232257Y-102394206D01*
X162066991Y-80285435D02*
X162061670Y-80260223D01*
X132595284Y-51207420D02*
X132586378Y-51183832D01*
X126727970Y-47734035D02*
X126717216Y-47686146D01*
X126840272Y-46976951D02*
X126866531Y-46935484D01*
X132509758Y-79488138D02*
X132435195Y-79328214D01*
X163441285Y-69279642D02*
X163487890Y-69295038D01*
X162061670Y-43213199D02*
X162066991Y-43187985D01*
X164140176Y-98580906D02*
X164146184Y-98629619D01*
X166926998Y-48745574D02*
X166756627Y-48810803D01*
X133017531Y-82283208D02*
X132991272Y-82241740D01*
X106659173Y-102131199D02*
X106783108Y-102257313D01*
X167554394Y-20081697D02*
X167530483Y-20086448D01*
X167554394Y-48572752D02*
X167530483Y-48577503D01*
X135188245Y-43985253D02*
X135262807Y-44145164D01*
X170075010Y-75347716D02*
X170105207Y-75386410D01*
X166014304Y-74271303D02*
X166034146Y-74284313D01*
X134838177Y-53383313D02*
X134829786Y-53431673D01*
X167530484Y-74895674D02*
X167554393Y-74900424D01*
X159177967Y-48680219D02*
X159154819Y-48673228D01*
X189417710Y-49094255D02*
X189397234Y-49082179D01*
X105547172Y-70868230D02*
X105552192Y-71060572D01*
X170009106Y-46783947D02*
X170042950Y-46819495D01*
X164054989Y-25173083D02*
X164032921Y-25216924D01*
X140995185Y-76080128D02*
X140989177Y-76128841D01*
X189755876Y-77808383D02*
X189736685Y-77794454D01*
X190357161Y-45131655D02*
X190474732Y-44999985D01*
X106398751Y-44844732D02*
X106509723Y-44981710D01*
X166384895Y-102980879D02*
X166546625Y-103061290D01*
X138228485Y-46404619D02*
X138252394Y-46409369D01*
X167763567Y-48537073D02*
X167739371Y-48540663D01*
X137454628Y-77301858D02*
X137432439Y-77310970D01*
X134444700Y-97924429D02*
X134483394Y-97954626D01*
X162209455Y-82064528D02*
X162194059Y-82017922D01*
X164988021Y-44825629D02*
X165002749Y-44844732D01*
X109563146Y-20006272D02*
X109372096Y-20020387D01*
X168391667Y-20000150D02*
X168191697Y-20005064D01*
X164988022Y-50156649D02*
X164883881Y-50298701D01*
X190615978Y-101807739D02*
X190720117Y-101665699D01*
X127599983Y-48486239D02*
X127551270Y-48480231D01*
X165246838Y-73622710D02*
X165263171Y-73640144D01*
X185746428Y-75150640D02*
X185787896Y-75124381D01*
X126756457Y-76319000D02*
X126741061Y-76272395D01*
X111034892Y-46549510D02*
X111080685Y-46567175D01*
X140998795Y-75933041D02*
X141000000Y-75982109D01*
X133466316Y-82651517D02*
X133421445Y-82631626D01*
X111169398Y-76864031D02*
X111125557Y-76886099D01*
X134091981Y-97757606D02*
X134139286Y-97770697D01*
X162144448Y-99577694D02*
X162145810Y-99551626D01*
X169897699Y-75178902D02*
X169936393Y-75209099D01*
X162103714Y-99967091D02*
X162127365Y-99786730D01*
X109563147Y-103466893D02*
X109587698Y-103468100D01*
X131612894Y-49707039D02*
X131595808Y-49690459D01*
X136904766Y-45900002D02*
X137061824Y-45987658D01*
X129023908Y-48511442D02*
X128832858Y-48497327D01*
X167147182Y-77164283D02*
X167124034Y-77171274D01*
X140098018Y-48486239D02*
X140049069Y-48489850D01*
X167763567Y-77028128D02*
X167739371Y-77031718D01*
X109347678Y-77004905D02*
X109159570Y-77028128D01*
X131151878Y-74155933D02*
X131293468Y-74047957D01*
X131753163Y-73622710D02*
X131870734Y-73491040D01*
X163891951Y-69565023D02*
X163924010Y-69602188D01*
X161821755Y-51020008D02*
X161811757Y-50997084D01*
X165552069Y-49554423D02*
X165534257Y-49570133D01*
X164575847Y-50814936D02*
X164564806Y-50837159D01*
X134938331Y-80260223D02*
X134933010Y-80285435D01*
X185498791Y-76577809D02*
X185470529Y-76537680D01*
X109347678Y-48513850D02*
X109159570Y-48537073D01*
X105631011Y-51794380D02*
X105598321Y-51971798D01*
X163665103Y-25603256D02*
X163622397Y-25627448D01*
X156142271Y-75468006D02*
X156168530Y-75426539D01*
X105598321Y-23480743D02*
X105594288Y-23506335D01*
X140514103Y-76839838D02*
X140471397Y-76864031D01*
X156901982Y-74986925D02*
X156950931Y-74983314D01*
X169302000Y-48491055D02*
X168403950Y-48491055D01*
X108520036Y-46301916D02*
X108543184Y-46308905D01*
X163487890Y-40803983D02*
X163533684Y-40821647D01*
X170183920Y-47962452D02*
X170159728Y-48005158D01*
X162955908Y-82708422D02*
X162908019Y-82697668D01*
X162020167Y-23103814D02*
X162013602Y-23079075D01*
X108323000Y-20254519D02*
X108152629Y-20319748D01*
X140634394Y-75209099D02*
X140671559Y-75241158D01*
X185874443Y-48395044D02*
X185830602Y-48372976D01*
X163200068Y-54235377D02*
X163151000Y-54236582D01*
X132868215Y-53431673D02*
X132859824Y-53383313D01*
X134986399Y-71903285D02*
X135036492Y-72074278D01*
X185360455Y-75645219D02*
X185378119Y-75599425D01*
X158325910Y-74961724D02*
X158350322Y-74959317D01*
X164670165Y-72835714D02*
X164759958Y-72987156D01*
X156528603Y-76864031D02*
X156485897Y-76839838D01*
X135262807Y-50837159D02*
X135188244Y-50997085D01*
X191123754Y-79511063D02*
X191113756Y-79488139D01*
X111668032Y-76225090D02*
X111654941Y-76272395D01*
X133214607Y-25518538D02*
X133177441Y-25486478D01*
X127551270Y-74992933D02*
X127599983Y-74986925D01*
X166568274Y-46089305D02*
X166734439Y-46162236D01*
X134896287Y-99967091D02*
X134900320Y-99992684D01*
X130793236Y-20591124D02*
X130636180Y-20503458D01*
X136904767Y-77573233D02*
X136884290Y-77585311D01*
X135036492Y-100565333D02*
X135044253Y-100589529D01*
X161737194Y-50837159D02*
X161726153Y-50814936D01*
X140195091Y-48471840D02*
X140146731Y-48480231D01*
X164107940Y-69946297D02*
X164121031Y-69993601D01*
X134938331Y-51769168D02*
X134933010Y-51794380D01*
X131595807Y-45291783D02*
X131612895Y-45275203D01*
X135368165Y-22146600D02*
X135356135Y-22168080D01*
X136732147Y-77679990D02*
X136712305Y-77693000D01*
X162151000Y-98727636D02*
X162152204Y-98678568D01*
X134231685Y-40821647D02*
X134276556Y-40841538D01*
X132892060Y-41455242D02*
X132907456Y-41408636D01*
X132907456Y-41408636D02*
X132925121Y-41362843D01*
X132329837Y-22146599D02*
X132240042Y-21995145D01*
X106266011Y-44663671D02*
X106279884Y-44683589D01*
X135700750Y-73335787D02*
X135811722Y-73472765D01*
X134772880Y-25128211D02*
X134752990Y-25173083D01*
X157898053Y-46491054D02*
X157910334Y-46490904D01*
X106155960Y-72987156D02*
X106168933Y-73007866D01*
X187840434Y-74936098D02*
X187864629Y-74932509D01*
X111529471Y-48046625D02*
X111501209Y-48086754D01*
X164008728Y-53750685D02*
X163982469Y-53792153D01*
X187627909Y-46470669D02*
X187652321Y-46468262D01*
X164480246Y-22528952D02*
X164413623Y-22692774D01*
X134520560Y-69495631D02*
X134556108Y-69529475D01*
X185303204Y-76031178D02*
X185301999Y-75982110D01*
X161737194Y-72636219D02*
X161811755Y-72476309D01*
X169638890Y-46549510D02*
X169684683Y-46567175D01*
X167739371Y-48540663D02*
X167554394Y-48572752D01*
X107942628Y-20411925D02*
X107780897Y-20492346D01*
X163441285Y-54193522D02*
X163393980Y-54206613D01*
X189057373Y-74570235D02*
X189219104Y-74489824D01*
X105809625Y-72289569D02*
X105876247Y-72453381D01*
X140471397Y-76864031D02*
X140427556Y-76886099D01*
X134979834Y-51594870D02*
X134938331Y-51769168D01*
X159938179Y-102969768D02*
X160095235Y-102882111D01*
X165688018Y-45542074D02*
X165706533Y-45556901D01*
X191429364Y-52177754D02*
X191405713Y-51997390D01*
X132764992Y-23303325D02*
X132759671Y-23278113D01*
X105631011Y-80285435D02*
X105598321Y-80462853D01*
X160914894Y-73766258D02*
X161038829Y-73640144D01*
X162269078Y-98256240D02*
X162293271Y-98213534D01*
X160434685Y-45678806D02*
X160453877Y-45664878D01*
X132842449Y-99577694D02*
X132843811Y-99551626D01*
X132892060Y-25035812D02*
X132878969Y-24988508D01*
X134805941Y-82017922D02*
X134790545Y-82064528D01*
X132329837Y-50637654D02*
X132240042Y-50486200D01*
X134652208Y-25341227D02*
X134622011Y-25379921D01*
X162679602Y-82609558D02*
X162636896Y-82585366D01*
X185630440Y-48232006D02*
X185594892Y-48198162D01*
X164670164Y-50637655D02*
X164658134Y-50659135D01*
X135811722Y-101963820D02*
X135827268Y-101982095D01*
X134622011Y-98093243D02*
X134652208Y-98131937D01*
X111125557Y-75078120D02*
X111169398Y-75100188D01*
X140995185Y-75884091D02*
X140998795Y-75933041D01*
X164156190Y-23921807D02*
X164151170Y-24114149D01*
X169816102Y-75124381D02*
X169857570Y-75150640D01*
X185528988Y-46856661D02*
X185561048Y-46819495D01*
X189417710Y-45887927D02*
X189569853Y-45793258D01*
X133466316Y-40821647D02*
X133512110Y-40803983D01*
X160767742Y-49570132D02*
X160749932Y-49554424D01*
X160287696Y-49201945D02*
X160267854Y-49188935D01*
X106948073Y-102409917D02*
X107084020Y-102524184D01*
X166734439Y-46162236D02*
X166756627Y-46171346D01*
X189736685Y-77794454D02*
X189589695Y-77693000D01*
X191199282Y-22716365D02*
X191190376Y-22692777D01*
X105800717Y-43774921D02*
X105809625Y-43798514D01*
X165002748Y-21646490D02*
X164988022Y-21665594D01*
X159567561Y-20328859D02*
X159545373Y-20319748D01*
X162247010Y-82155193D02*
X162227120Y-82110321D01*
X138023287Y-103340130D02*
X138046841Y-103346013D01*
X137822035Y-46301916D02*
X137845183Y-46308905D01*
X134849001Y-42364130D02*
X134849171Y-42377175D01*
X161055162Y-102113765D02*
X161172733Y-101982095D01*
X134185891Y-69295038D02*
X134231685Y-69312702D01*
X164156190Y-80903917D02*
X164151170Y-81096259D01*
X111693186Y-47589073D02*
X111687178Y-47637786D01*
X160767744Y-102394207D02*
X160897806Y-102273893D01*
X169729555Y-48395044D02*
X169684683Y-48414934D01*
X131311985Y-77931199D02*
X131293468Y-77916369D01*
X129048323Y-103450372D02*
X129236436Y-103427153D01*
X111212104Y-48348783D02*
X111169398Y-48372976D01*
X159545374Y-74662401D02*
X159567561Y-74653292D01*
X185303204Y-75933041D02*
X185306814Y-75884091D01*
X164346251Y-51374935D02*
X164338491Y-51399128D01*
X136732147Y-74284313D02*
X136884290Y-74378981D01*
X137244627Y-20411925D02*
X137082896Y-20492346D01*
X156168530Y-46935484D02*
X156196792Y-46895355D01*
X189240178Y-20503458D02*
X189219104Y-20492345D01*
X161888377Y-72289566D02*
X161897283Y-72265978D01*
X134829786Y-41550436D02*
X134838177Y-41598796D01*
X160434686Y-77794454D02*
X160287696Y-77693000D01*
X133466316Y-25669407D02*
X133421445Y-25649516D01*
X163441285Y-82684577D02*
X163393980Y-82697668D01*
X161055161Y-78341654D02*
X161038829Y-78324219D01*
X156365606Y-46718044D02*
X156404300Y-46687847D01*
X161038829Y-102131199D02*
X161055162Y-102113765D01*
X168391667Y-76982260D02*
X168191697Y-76987174D01*
X163533684Y-69312702D02*
X163578555Y-69332593D01*
X159352313Y-48737508D02*
X159177967Y-48680219D01*
X156485897Y-75124381D02*
X156528603Y-75100188D01*
X108543184Y-103291015D02*
X108721288Y-103340130D01*
X106659173Y-78324219D02*
X106642841Y-78341654D01*
X105677835Y-23103815D02*
X105636332Y-23278113D01*
X132801715Y-80488445D02*
X132797682Y-80462853D01*
X134849001Y-24127194D02*
X134849001Y-24745528D01*
X140382684Y-76905989D02*
X140336891Y-76923654D01*
X158976715Y-74849075D02*
X159154819Y-74799960D01*
X159154819Y-46308905D02*
X159177967Y-46301916D01*
X138865145Y-76988382D02*
X138674095Y-77002497D01*
X164151000Y-42364130D02*
X164151170Y-42377175D01*
X133377603Y-40863606D02*
X133421445Y-40841538D01*
X167147182Y-74799960D02*
X167325286Y-74849075D01*
X164157552Y-99577693D02*
X164171924Y-99760842D01*
X132661510Y-51399129D02*
X132653750Y-51374933D01*
X165688018Y-102524184D02*
X165706533Y-102539011D01*
X164198286Y-71476036D02*
X164202319Y-71501629D01*
X161299252Y-21646490D02*
X161188278Y-21509500D01*
X166384895Y-20492346D02*
X166363823Y-20503458D01*
X189035726Y-20401799D02*
X188869560Y-20328859D01*
X169448730Y-46501878D02*
X169497090Y-46510269D01*
X110747070Y-46492259D02*
X110796019Y-46495870D01*
X162155815Y-53334600D02*
X162152204Y-53285651D01*
X190615978Y-73316684D02*
X190720117Y-73174644D01*
X133421445Y-82631626D02*
X133377603Y-82609558D01*
X111332395Y-75209099D02*
X111369560Y-75241158D01*
X137647686Y-103226742D02*
X137822035Y-103284026D01*
X136904767Y-49082178D02*
X136884290Y-49094256D01*
X127407716Y-46534114D02*
X127455020Y-46521023D01*
X164074879Y-69853898D02*
X164092544Y-69899691D01*
X163249018Y-54231767D02*
X163200068Y-54235377D01*
X132116119Y-44683589D02*
X132129992Y-44663671D01*
X135036492Y-51399128D02*
X134986399Y-51570130D01*
X161737194Y-22346104D02*
X161726153Y-22323881D01*
X161737194Y-101127274D02*
X161811755Y-100967364D01*
X129852820Y-46308905D02*
X129875968Y-46301916D01*
X107942628Y-48902980D02*
X107780897Y-48983401D01*
X132011979Y-78647704D02*
X131997253Y-78628600D01*
X166734438Y-48819915D02*
X166568273Y-48892854D01*
X170282784Y-47686146D02*
X170272030Y-47734035D01*
X132925121Y-82110321D02*
X132907456Y-82064528D01*
X169973558Y-46750103D02*
X170009106Y-46783947D01*
X127315317Y-48414934D02*
X127270445Y-48395044D01*
X187864629Y-74932509D02*
X188049608Y-74900424D01*
X162679602Y-40863606D02*
X162723444Y-40841538D01*
X132842449Y-23895741D02*
X132828077Y-23712587D01*
X189219104Y-74489824D02*
X189240178Y-74478713D01*
X140290285Y-48447995D02*
X140242981Y-48461086D01*
X161431991Y-78809674D02*
X161418119Y-78789756D01*
X105886245Y-50997085D02*
X105876248Y-51020007D01*
X164883881Y-21807646D02*
X164870009Y-21827564D01*
X164092544Y-98390746D02*
X164107940Y-98437352D01*
X132227071Y-50465492D02*
X132129992Y-50318619D01*
X131753162Y-78341654D02*
X131736830Y-78324219D01*
X111654941Y-47781340D02*
X111639545Y-47827945D01*
X166363823Y-102969768D02*
X166384895Y-102980879D01*
X157910334Y-46490904D02*
X158110305Y-46485990D01*
X130265562Y-74653292D02*
X130431728Y-74580360D01*
X132842449Y-52386796D02*
X132828077Y-52203642D01*
X162768315Y-97803757D02*
X162814109Y-97786093D01*
X162061670Y-80260223D02*
X162020167Y-80085925D01*
X106525269Y-44999985D02*
X106642840Y-45131655D01*
X132892060Y-69946297D02*
X132907456Y-69899691D01*
X132849001Y-99346241D02*
X132849001Y-98727636D01*
X156663109Y-75040565D02*
X156709715Y-75025169D01*
X135961172Y-73640144D02*
X136085107Y-73766258D01*
X134483394Y-54009593D02*
X134444700Y-54039790D01*
X162319530Y-98172066D02*
X162347792Y-98131937D01*
X189736684Y-45678806D02*
X189755876Y-45664878D01*
X188456818Y-74799960D02*
X188479966Y-74792971D01*
X140881921Y-75510712D02*
X140903989Y-75554554D01*
X164174635Y-71295675D02*
X164198286Y-71476036D01*
X166756627Y-20319748D02*
X166734438Y-20328860D01*
X169497090Y-75001324D02*
X169544980Y-75012078D01*
X162150829Y-24114150D02*
X162145810Y-23921808D01*
X105734493Y-100565333D02*
X105742254Y-100589529D01*
X131293468Y-49425314D02*
X131151878Y-49317328D01*
X164157552Y-71086638D02*
X164171924Y-71269787D01*
X109159568Y-46445043D02*
X109347681Y-46468262D01*
X135811723Y-50000555D02*
X135700749Y-50137545D01*
X162814109Y-97786093D02*
X162860714Y-97770697D01*
X130073002Y-74727623D02*
X130243375Y-74662401D01*
X159177967Y-74792971D02*
X159352315Y-74735687D01*
X106054135Y-44323177D02*
X106066167Y-44344659D01*
X137266274Y-77383909D02*
X137244627Y-77394035D01*
X190733990Y-21827564D02*
X190720118Y-21807646D01*
X187652321Y-103450372D02*
X187840434Y-103427153D01*
X111579922Y-47019657D02*
X111601990Y-47063499D01*
X132849000Y-24127193D02*
X132848830Y-24114150D01*
X165706533Y-74047956D02*
X165848122Y-74155932D01*
X132653750Y-79865988D02*
X132595284Y-79698475D01*
X126741061Y-47781340D02*
X126727970Y-47734035D01*
X133421445Y-40841538D02*
X133466316Y-40821647D01*
X185528988Y-48125448D02*
X185498791Y-48086754D01*
X132116120Y-78789756D02*
X132011979Y-78647704D01*
X185787896Y-46633326D02*
X185830602Y-46609133D01*
X163004268Y-25734704D02*
X162955908Y-25726312D01*
X126894793Y-46895355D02*
X126924990Y-46856661D01*
X108152629Y-48810803D02*
X108130440Y-48819915D01*
X131886279Y-50000555D02*
X131870736Y-49982283D01*
X134556108Y-82434744D02*
X134520560Y-82468588D01*
X189569853Y-102775368D02*
X189589695Y-102762358D01*
X164008728Y-98213534D02*
X164032921Y-98256240D01*
X129674716Y-103340130D02*
X129852820Y-103291015D01*
X189219104Y-48983400D02*
X189057373Y-48902980D01*
X165113721Y-101963820D02*
X165129267Y-101982095D01*
X107942627Y-46079180D02*
X107964276Y-46089305D01*
X166384895Y-48983401D02*
X166363823Y-48994513D01*
X137432440Y-46162236D02*
X137454628Y-46171346D01*
X131465745Y-73903152D02*
X131595807Y-73782838D01*
X164575847Y-101149496D02*
X164658133Y-101305287D01*
X138461568Y-48537073D02*
X138437372Y-48540663D01*
X187627906Y-77002497D02*
X187436856Y-76988382D01*
X127142430Y-75150640D02*
X127183898Y-75124381D01*
X191447809Y-80903918D02*
X191446447Y-80877851D01*
X164131785Y-24940618D02*
X164121031Y-24988508D01*
X161811757Y-50997083D02*
X161737194Y-50837159D01*
X162151000Y-42364131D02*
X162151000Y-41745526D01*
X111601990Y-75554554D02*
X111621881Y-75599425D01*
X130813712Y-102870037D02*
X130965855Y-102775368D01*
X162410048Y-69565023D02*
X162443892Y-69529475D01*
X190357160Y-21359544D02*
X190340828Y-21342109D01*
X158350322Y-74959317D02*
X158538435Y-74936098D01*
X160749930Y-45427807D02*
X160767744Y-45412097D01*
X190474734Y-78473338D02*
X190357160Y-78341654D01*
X108130440Y-48819915D02*
X107964275Y-48892854D01*
X165002749Y-44844732D02*
X165113721Y-44981710D01*
X162768315Y-54160462D02*
X162723444Y-54140571D01*
X188869560Y-77310969D02*
X188847372Y-77301858D01*
X105547172Y-52605204D02*
X105547002Y-52618249D01*
X162723444Y-54140571D02*
X162679602Y-54118503D01*
X158325910Y-46470669D02*
X158350322Y-46468262D01*
X162130076Y-52203642D02*
X162127365Y-52177754D01*
X133334897Y-97869908D02*
X133377603Y-97845716D01*
X160897807Y-21199404D02*
X160767742Y-21079077D01*
X190615978Y-44825629D02*
X190720117Y-44683589D01*
X106930259Y-78061188D02*
X106800195Y-78181514D01*
X162066991Y-43187985D02*
X162099681Y-43010574D01*
X162155815Y-98629619D02*
X162161823Y-98580906D01*
X186203981Y-76977294D02*
X186155268Y-76971286D01*
X137845183Y-103291015D02*
X138023287Y-103340130D01*
X136085107Y-45275203D02*
X136102195Y-45291783D01*
X111696796Y-47540123D02*
X111693186Y-47589073D01*
X156709715Y-46534114D02*
X156757019Y-46521023D01*
X161726153Y-79305991D02*
X161643866Y-79150190D01*
X131736830Y-49833164D02*
X131612894Y-49707039D01*
X138674095Y-77002497D02*
X138649677Y-77004905D01*
X167739372Y-103423564D02*
X167763566Y-103427153D01*
X156019215Y-47686146D02*
X156010823Y-47637786D01*
X187652324Y-77004905D02*
X187627906Y-77002497D01*
X108323000Y-77236629D02*
X108152629Y-77301858D01*
X191113754Y-72476309D02*
X191123755Y-72453380D01*
X185830602Y-75100188D02*
X185874443Y-75078120D01*
X162636896Y-69378853D02*
X162679602Y-69354661D01*
X135700750Y-44844732D02*
X135811722Y-44981710D01*
X191123755Y-43962325D02*
X191190376Y-43798511D01*
X169400017Y-46495870D02*
X169448730Y-46501878D01*
X130636180Y-77485568D02*
X130615106Y-77474455D01*
X170300794Y-76031178D02*
X170297184Y-76080128D01*
X134044092Y-54217367D02*
X133995732Y-54225759D01*
X140707107Y-75275002D02*
X140740951Y-75310550D01*
X136884290Y-49094256D02*
X136732147Y-49188935D01*
X156142271Y-76496213D02*
X156118079Y-76453507D01*
X190051931Y-49554424D02*
X189915983Y-49440145D01*
X159352313Y-77228563D02*
X159177967Y-77171274D01*
X129023908Y-20020387D02*
X128832858Y-20006272D01*
X105552192Y-52412862D02*
X105547172Y-52605204D01*
X190199805Y-102273893D02*
X190216893Y-102257313D01*
X185594892Y-76689217D02*
X185561048Y-76653669D01*
X127455020Y-75012078D02*
X127502910Y-75001324D01*
X127698000Y-74982110D02*
X128596054Y-74982110D01*
X129651161Y-77109278D02*
X129469519Y-77068558D01*
X105742254Y-100589529D02*
X105800717Y-100757031D01*
X105547172Y-42377175D02*
X105552192Y-42569517D01*
X185444270Y-46976951D02*
X185470529Y-46935484D01*
X133512110Y-54178126D02*
X133466316Y-54160462D01*
X162061670Y-51769168D02*
X162020167Y-51594870D01*
X156118079Y-47962452D02*
X156096011Y-47918610D01*
X129651162Y-103346013D02*
X129674716Y-103340130D01*
X187627909Y-103452779D02*
X187652321Y-103450372D01*
X133512110Y-25687071D02*
X133466316Y-25669407D01*
X160453877Y-45664878D02*
X160595467Y-45556902D01*
X106279884Y-73174644D02*
X106384023Y-73316684D01*
X130793236Y-102882111D02*
X130813712Y-102870037D01*
X109799951Y-46491055D02*
X110698002Y-46491055D01*
X163346091Y-54217367D02*
X163297731Y-54225759D01*
X159917105Y-102980879D02*
X159938179Y-102969768D01*
X111293701Y-75178902D02*
X111332395Y-75209099D01*
X109135373Y-20049608D02*
X108950396Y-20081697D01*
X169497090Y-48471840D02*
X169448730Y-48480231D01*
X163346091Y-40764742D02*
X163393980Y-40775496D01*
X133898069Y-54235377D02*
X133849001Y-54236582D01*
X132991272Y-25259630D02*
X132967079Y-25216924D01*
X164092544Y-25082418D02*
X164074879Y-25128211D01*
X185312822Y-47637786D02*
X185306814Y-47589073D01*
X162479440Y-25486478D02*
X162443892Y-25452634D01*
X165113721Y-73472765D02*
X165129267Y-73491040D01*
X165848122Y-102646987D02*
X165867315Y-102660917D01*
X188456818Y-103291015D02*
X188479966Y-103284026D01*
X161038829Y-45149089D02*
X161055162Y-45131655D01*
X190945866Y-44323177D02*
X191028152Y-44167386D01*
X137244626Y-103061290D02*
X137266275Y-103071415D01*
X190945866Y-101305287D02*
X191028152Y-101149496D01*
X162099681Y-99992684D02*
X162103714Y-99967091D01*
X163785393Y-40972516D02*
X163822559Y-41004576D01*
X134680470Y-53792153D02*
X134652208Y-53832282D01*
X136404534Y-20934260D02*
X136386019Y-20949088D01*
X133849001Y-97727637D02*
X133898069Y-97728842D01*
X131447931Y-102409917D02*
X131465745Y-102394207D01*
X138228484Y-77068558D02*
X138046842Y-77109278D01*
X163052981Y-25740712D02*
X163004268Y-25734704D01*
X158953161Y-103346013D02*
X158976715Y-103340130D01*
X164092544Y-53573473D02*
X164074879Y-53619266D01*
X140831470Y-75426539D02*
X140857729Y-75468006D01*
X134139286Y-25702467D02*
X134091981Y-25715558D01*
X163249018Y-69241397D02*
X163297731Y-69247405D01*
X107102535Y-74047956D02*
X107244124Y-74155932D01*
X170291176Y-76128841D02*
X170282784Y-76177201D01*
X134363104Y-54094311D02*
X134320398Y-54118503D01*
X140941544Y-75645219D02*
X140956940Y-75691824D01*
X191123755Y-100944435D02*
X191190376Y-100780621D01*
X108744843Y-48618223D02*
X108721287Y-48624108D01*
X134933010Y-71679040D02*
X134938331Y-71704254D01*
X165706533Y-77916370D02*
X165688018Y-77931198D01*
X170042950Y-48162614D02*
X170009106Y-48198162D01*
X140903989Y-76409665D02*
X140881921Y-76453507D01*
X136404534Y-102539011D02*
X136546123Y-102646987D01*
X161418118Y-73174644D02*
X161431991Y-73154726D01*
X140290285Y-46534114D02*
X140336891Y-46549510D01*
X140998795Y-47540123D02*
X140995185Y-47589073D01*
X167124034Y-48680219D02*
X166949687Y-48737508D01*
X131886280Y-101963820D02*
X131997252Y-101826842D01*
X190831068Y-101498921D02*
X190844041Y-101478211D01*
X189219104Y-77474455D02*
X189057373Y-77394035D01*
X105876248Y-51020007D02*
X105809625Y-51183829D01*
X105684400Y-80061185D02*
X105677835Y-80085924D01*
X185321214Y-76177201D02*
X185312822Y-76128841D01*
X191446447Y-99577694D02*
X191447809Y-99551626D01*
X127142430Y-48322524D02*
X127102301Y-48294262D01*
X132011980Y-44825629D02*
X132116119Y-44683589D01*
X162814109Y-69295038D02*
X162860714Y-69279642D01*
X132853816Y-98629619D02*
X132859824Y-98580906D01*
X132849001Y-41745526D02*
X132850205Y-41696458D01*
X161888377Y-43798511D02*
X161897283Y-43774923D01*
X133558715Y-54193522D02*
X133512110Y-54178126D01*
X105553554Y-99577693D02*
X105567926Y-99760842D01*
X132797682Y-23480743D02*
X132764992Y-23303325D01*
X170075010Y-76616503D02*
X170042950Y-76653669D01*
X138023286Y-48624108D02*
X137845183Y-48673228D01*
X189035726Y-103071415D02*
X189057373Y-103061290D01*
X133017531Y-53792153D02*
X132991272Y-53750685D01*
X167554393Y-74900424D02*
X167739372Y-74932509D01*
X133141893Y-98020530D02*
X133177441Y-97986686D01*
X162180968Y-41502546D02*
X162194059Y-41455242D01*
X190933835Y-79128709D02*
X190844040Y-78977255D01*
X134185891Y-97786093D02*
X134231685Y-97803757D01*
X162170214Y-24940618D02*
X162161823Y-24892258D01*
X132878969Y-24988508D02*
X132868215Y-24940618D01*
X162908019Y-40775496D02*
X162955908Y-40764742D01*
X161811755Y-72476309D02*
X161821756Y-72453380D01*
X132586378Y-43798511D02*
X132595284Y-43774923D01*
X161313979Y-101807739D02*
X161418118Y-101665699D01*
M02*
