%TF.GenerationSoftware,KiCad,Pcbnew,7.0.2-0*%
%TF.CreationDate,2024-04-23T15:27:55-05:00*%
%TF.ProjectId,saopowerbrdvcut,73616f70-6f77-4657-9262-726476637574,rev?*%
%TF.SameCoordinates,Original*%
%TF.FileFunction,Other,Comment*%
%FSLAX46Y46*%
G04 Gerber Fmt 4.6, Leading zero omitted, Abs format (unit mm)*
G04 Created by KiCad (PCBNEW 7.0.2-0) date 2024-04-23 15:27:55*
%MOMM*%
%LPD*%
G01*
G04 APERTURE LIST*
%ADD10C,0.400000*%
G04 APERTURE END LIST*
D10*
X197643475Y-47420765D02*
X198310141Y-49420765D01*
X198310141Y-49420765D02*
X198976808Y-47420765D01*
X199643475Y-48658860D02*
X201167285Y-48658860D01*
X203262522Y-49230288D02*
X203167284Y-49325527D01*
X203167284Y-49325527D02*
X202881570Y-49420765D01*
X202881570Y-49420765D02*
X202691094Y-49420765D01*
X202691094Y-49420765D02*
X202405379Y-49325527D01*
X202405379Y-49325527D02*
X202214903Y-49135050D01*
X202214903Y-49135050D02*
X202119665Y-48944574D01*
X202119665Y-48944574D02*
X202024427Y-48563622D01*
X202024427Y-48563622D02*
X202024427Y-48277907D01*
X202024427Y-48277907D02*
X202119665Y-47896955D01*
X202119665Y-47896955D02*
X202214903Y-47706479D01*
X202214903Y-47706479D02*
X202405379Y-47516003D01*
X202405379Y-47516003D02*
X202691094Y-47420765D01*
X202691094Y-47420765D02*
X202881570Y-47420765D01*
X202881570Y-47420765D02*
X203167284Y-47516003D01*
X203167284Y-47516003D02*
X203262522Y-47611241D01*
X204119665Y-47420765D02*
X204119665Y-49039812D01*
X204119665Y-49039812D02*
X204214903Y-49230288D01*
X204214903Y-49230288D02*
X204310141Y-49325527D01*
X204310141Y-49325527D02*
X204500617Y-49420765D01*
X204500617Y-49420765D02*
X204881570Y-49420765D01*
X204881570Y-49420765D02*
X205072046Y-49325527D01*
X205072046Y-49325527D02*
X205167284Y-49230288D01*
X205167284Y-49230288D02*
X205262522Y-49039812D01*
X205262522Y-49039812D02*
X205262522Y-47420765D01*
X205929189Y-47420765D02*
X207072046Y-47420765D01*
X206500617Y-49420765D02*
X206500617Y-47420765D01*
X163073239Y-13809523D02*
X165073239Y-13142857D01*
X165073239Y-13142857D02*
X163073239Y-12476190D01*
X164311334Y-11809523D02*
X164311334Y-10285714D01*
X164882762Y-8190476D02*
X164978001Y-8285714D01*
X164978001Y-8285714D02*
X165073239Y-8571428D01*
X165073239Y-8571428D02*
X165073239Y-8761904D01*
X165073239Y-8761904D02*
X164978001Y-9047619D01*
X164978001Y-9047619D02*
X164787524Y-9238095D01*
X164787524Y-9238095D02*
X164597048Y-9333333D01*
X164597048Y-9333333D02*
X164216096Y-9428571D01*
X164216096Y-9428571D02*
X163930381Y-9428571D01*
X163930381Y-9428571D02*
X163549429Y-9333333D01*
X163549429Y-9333333D02*
X163358953Y-9238095D01*
X163358953Y-9238095D02*
X163168477Y-9047619D01*
X163168477Y-9047619D02*
X163073239Y-8761904D01*
X163073239Y-8761904D02*
X163073239Y-8571428D01*
X163073239Y-8571428D02*
X163168477Y-8285714D01*
X163168477Y-8285714D02*
X163263715Y-8190476D01*
X163073239Y-7333333D02*
X164692286Y-7333333D01*
X164692286Y-7333333D02*
X164882762Y-7238095D01*
X164882762Y-7238095D02*
X164978001Y-7142857D01*
X164978001Y-7142857D02*
X165073239Y-6952381D01*
X165073239Y-6952381D02*
X165073239Y-6571428D01*
X165073239Y-6571428D02*
X164978001Y-6380952D01*
X164978001Y-6380952D02*
X164882762Y-6285714D01*
X164882762Y-6285714D02*
X164692286Y-6190476D01*
X164692286Y-6190476D02*
X163073239Y-6190476D01*
X163073239Y-5523809D02*
X163073239Y-4380952D01*
X165073239Y-4952381D02*
X163073239Y-4952381D01*
X133773239Y-13809523D02*
X135773239Y-13142857D01*
X135773239Y-13142857D02*
X133773239Y-12476190D01*
X135011334Y-11809523D02*
X135011334Y-10285714D01*
X135582762Y-8190476D02*
X135678001Y-8285714D01*
X135678001Y-8285714D02*
X135773239Y-8571428D01*
X135773239Y-8571428D02*
X135773239Y-8761904D01*
X135773239Y-8761904D02*
X135678001Y-9047619D01*
X135678001Y-9047619D02*
X135487524Y-9238095D01*
X135487524Y-9238095D02*
X135297048Y-9333333D01*
X135297048Y-9333333D02*
X134916096Y-9428571D01*
X134916096Y-9428571D02*
X134630381Y-9428571D01*
X134630381Y-9428571D02*
X134249429Y-9333333D01*
X134249429Y-9333333D02*
X134058953Y-9238095D01*
X134058953Y-9238095D02*
X133868477Y-9047619D01*
X133868477Y-9047619D02*
X133773239Y-8761904D01*
X133773239Y-8761904D02*
X133773239Y-8571428D01*
X133773239Y-8571428D02*
X133868477Y-8285714D01*
X133868477Y-8285714D02*
X133963715Y-8190476D01*
X133773239Y-7333333D02*
X135392286Y-7333333D01*
X135392286Y-7333333D02*
X135582762Y-7238095D01*
X135582762Y-7238095D02*
X135678001Y-7142857D01*
X135678001Y-7142857D02*
X135773239Y-6952381D01*
X135773239Y-6952381D02*
X135773239Y-6571428D01*
X135773239Y-6571428D02*
X135678001Y-6380952D01*
X135678001Y-6380952D02*
X135582762Y-6285714D01*
X135582762Y-6285714D02*
X135392286Y-6190476D01*
X135392286Y-6190476D02*
X133773239Y-6190476D01*
X133773239Y-5523809D02*
X133773239Y-4380952D01*
X135773239Y-4952381D02*
X133773239Y-4952381D01*
X197643475Y-75910765D02*
X198310141Y-77910765D01*
X198310141Y-77910765D02*
X198976808Y-75910765D01*
X199643475Y-77148860D02*
X201167285Y-77148860D01*
X203262522Y-77720288D02*
X203167284Y-77815527D01*
X203167284Y-77815527D02*
X202881570Y-77910765D01*
X202881570Y-77910765D02*
X202691094Y-77910765D01*
X202691094Y-77910765D02*
X202405379Y-77815527D01*
X202405379Y-77815527D02*
X202214903Y-77625050D01*
X202214903Y-77625050D02*
X202119665Y-77434574D01*
X202119665Y-77434574D02*
X202024427Y-77053622D01*
X202024427Y-77053622D02*
X202024427Y-76767907D01*
X202024427Y-76767907D02*
X202119665Y-76386955D01*
X202119665Y-76386955D02*
X202214903Y-76196479D01*
X202214903Y-76196479D02*
X202405379Y-76006003D01*
X202405379Y-76006003D02*
X202691094Y-75910765D01*
X202691094Y-75910765D02*
X202881570Y-75910765D01*
X202881570Y-75910765D02*
X203167284Y-76006003D01*
X203167284Y-76006003D02*
X203262522Y-76101241D01*
X204119665Y-75910765D02*
X204119665Y-77529812D01*
X204119665Y-77529812D02*
X204214903Y-77720288D01*
X204214903Y-77720288D02*
X204310141Y-77815527D01*
X204310141Y-77815527D02*
X204500617Y-77910765D01*
X204500617Y-77910765D02*
X204881570Y-77910765D01*
X204881570Y-77910765D02*
X205072046Y-77815527D01*
X205072046Y-77815527D02*
X205167284Y-77720288D01*
X205167284Y-77720288D02*
X205262522Y-77529812D01*
X205262522Y-77529812D02*
X205262522Y-75910765D01*
X205929189Y-75910765D02*
X207072046Y-75910765D01*
X206500617Y-77910765D02*
X206500617Y-75910765D01*
X161073239Y-13809523D02*
X163073239Y-13142857D01*
X163073239Y-13142857D02*
X161073239Y-12476190D01*
X162311334Y-11809523D02*
X162311334Y-10285714D01*
X162882762Y-8190476D02*
X162978001Y-8285714D01*
X162978001Y-8285714D02*
X163073239Y-8571428D01*
X163073239Y-8571428D02*
X163073239Y-8761904D01*
X163073239Y-8761904D02*
X162978001Y-9047619D01*
X162978001Y-9047619D02*
X162787524Y-9238095D01*
X162787524Y-9238095D02*
X162597048Y-9333333D01*
X162597048Y-9333333D02*
X162216096Y-9428571D01*
X162216096Y-9428571D02*
X161930381Y-9428571D01*
X161930381Y-9428571D02*
X161549429Y-9333333D01*
X161549429Y-9333333D02*
X161358953Y-9238095D01*
X161358953Y-9238095D02*
X161168477Y-9047619D01*
X161168477Y-9047619D02*
X161073239Y-8761904D01*
X161073239Y-8761904D02*
X161073239Y-8571428D01*
X161073239Y-8571428D02*
X161168477Y-8285714D01*
X161168477Y-8285714D02*
X161263715Y-8190476D01*
X161073239Y-7333333D02*
X162692286Y-7333333D01*
X162692286Y-7333333D02*
X162882762Y-7238095D01*
X162882762Y-7238095D02*
X162978001Y-7142857D01*
X162978001Y-7142857D02*
X163073239Y-6952381D01*
X163073239Y-6952381D02*
X163073239Y-6571428D01*
X163073239Y-6571428D02*
X162978001Y-6380952D01*
X162978001Y-6380952D02*
X162882762Y-6285714D01*
X162882762Y-6285714D02*
X162692286Y-6190476D01*
X162692286Y-6190476D02*
X161073239Y-6190476D01*
X161073239Y-5523809D02*
X161073239Y-4380952D01*
X163073239Y-4952381D02*
X161073239Y-4952381D01*
X131773239Y-13809523D02*
X133773239Y-13142857D01*
X133773239Y-13142857D02*
X131773239Y-12476190D01*
X133011334Y-11809523D02*
X133011334Y-10285714D01*
X133582762Y-8190476D02*
X133678001Y-8285714D01*
X133678001Y-8285714D02*
X133773239Y-8571428D01*
X133773239Y-8571428D02*
X133773239Y-8761904D01*
X133773239Y-8761904D02*
X133678001Y-9047619D01*
X133678001Y-9047619D02*
X133487524Y-9238095D01*
X133487524Y-9238095D02*
X133297048Y-9333333D01*
X133297048Y-9333333D02*
X132916096Y-9428571D01*
X132916096Y-9428571D02*
X132630381Y-9428571D01*
X132630381Y-9428571D02*
X132249429Y-9333333D01*
X132249429Y-9333333D02*
X132058953Y-9238095D01*
X132058953Y-9238095D02*
X131868477Y-9047619D01*
X131868477Y-9047619D02*
X131773239Y-8761904D01*
X131773239Y-8761904D02*
X131773239Y-8571428D01*
X131773239Y-8571428D02*
X131868477Y-8285714D01*
X131868477Y-8285714D02*
X131963715Y-8190476D01*
X131773239Y-7333333D02*
X133392286Y-7333333D01*
X133392286Y-7333333D02*
X133582762Y-7238095D01*
X133582762Y-7238095D02*
X133678001Y-7142857D01*
X133678001Y-7142857D02*
X133773239Y-6952381D01*
X133773239Y-6952381D02*
X133773239Y-6571428D01*
X133773239Y-6571428D02*
X133678001Y-6380952D01*
X133678001Y-6380952D02*
X133582762Y-6285714D01*
X133582762Y-6285714D02*
X133392286Y-6190476D01*
X133392286Y-6190476D02*
X131773239Y-6190476D01*
X131773239Y-5523809D02*
X131773239Y-4380952D01*
X133773239Y-4952381D02*
X131773239Y-4952381D01*
X197643475Y-45420765D02*
X198310141Y-47420765D01*
X198310141Y-47420765D02*
X198976808Y-45420765D01*
X199643475Y-46658860D02*
X201167285Y-46658860D01*
X203262522Y-47230288D02*
X203167284Y-47325527D01*
X203167284Y-47325527D02*
X202881570Y-47420765D01*
X202881570Y-47420765D02*
X202691094Y-47420765D01*
X202691094Y-47420765D02*
X202405379Y-47325527D01*
X202405379Y-47325527D02*
X202214903Y-47135050D01*
X202214903Y-47135050D02*
X202119665Y-46944574D01*
X202119665Y-46944574D02*
X202024427Y-46563622D01*
X202024427Y-46563622D02*
X202024427Y-46277907D01*
X202024427Y-46277907D02*
X202119665Y-45896955D01*
X202119665Y-45896955D02*
X202214903Y-45706479D01*
X202214903Y-45706479D02*
X202405379Y-45516003D01*
X202405379Y-45516003D02*
X202691094Y-45420765D01*
X202691094Y-45420765D02*
X202881570Y-45420765D01*
X202881570Y-45420765D02*
X203167284Y-45516003D01*
X203167284Y-45516003D02*
X203262522Y-45611241D01*
X204119665Y-45420765D02*
X204119665Y-47039812D01*
X204119665Y-47039812D02*
X204214903Y-47230288D01*
X204214903Y-47230288D02*
X204310141Y-47325527D01*
X204310141Y-47325527D02*
X204500617Y-47420765D01*
X204500617Y-47420765D02*
X204881570Y-47420765D01*
X204881570Y-47420765D02*
X205072046Y-47325527D01*
X205072046Y-47325527D02*
X205167284Y-47230288D01*
X205167284Y-47230288D02*
X205262522Y-47039812D01*
X205262522Y-47039812D02*
X205262522Y-45420765D01*
X205929189Y-45420765D02*
X207072046Y-45420765D01*
X206500617Y-47420765D02*
X206500617Y-45420765D01*
X197643475Y-73910765D02*
X198310141Y-75910765D01*
X198310141Y-75910765D02*
X198976808Y-73910765D01*
X199643475Y-75148860D02*
X201167285Y-75148860D01*
X203262522Y-75720288D02*
X203167284Y-75815527D01*
X203167284Y-75815527D02*
X202881570Y-75910765D01*
X202881570Y-75910765D02*
X202691094Y-75910765D01*
X202691094Y-75910765D02*
X202405379Y-75815527D01*
X202405379Y-75815527D02*
X202214903Y-75625050D01*
X202214903Y-75625050D02*
X202119665Y-75434574D01*
X202119665Y-75434574D02*
X202024427Y-75053622D01*
X202024427Y-75053622D02*
X202024427Y-74767907D01*
X202024427Y-74767907D02*
X202119665Y-74386955D01*
X202119665Y-74386955D02*
X202214903Y-74196479D01*
X202214903Y-74196479D02*
X202405379Y-74006003D01*
X202405379Y-74006003D02*
X202691094Y-73910765D01*
X202691094Y-73910765D02*
X202881570Y-73910765D01*
X202881570Y-73910765D02*
X203167284Y-74006003D01*
X203167284Y-74006003D02*
X203262522Y-74101241D01*
X204119665Y-73910765D02*
X204119665Y-75529812D01*
X204119665Y-75529812D02*
X204214903Y-75720288D01*
X204214903Y-75720288D02*
X204310141Y-75815527D01*
X204310141Y-75815527D02*
X204500617Y-75910765D01*
X204500617Y-75910765D02*
X204881570Y-75910765D01*
X204881570Y-75910765D02*
X205072046Y-75815527D01*
X205072046Y-75815527D02*
X205167284Y-75720288D01*
X205167284Y-75720288D02*
X205262522Y-75529812D01*
X205262522Y-75529812D02*
X205262522Y-73910765D01*
X205929189Y-73910765D02*
X207072046Y-73910765D01*
X206500617Y-75910765D02*
X206500617Y-73910765D01*
X102547002Y-76985527D02*
X194452999Y-76985527D01*
X164148001Y-17000000D02*
X164148001Y-106473165D01*
X132848001Y-17000000D02*
X132848001Y-106473165D01*
X102547002Y-74985527D02*
X194452999Y-74985527D01*
X102547002Y-48495527D02*
X194452999Y-48495527D01*
X162148001Y-17000000D02*
X162148001Y-106473165D01*
X134848001Y-17000000D02*
X134848001Y-106473165D01*
X102547002Y-46495527D02*
X194452999Y-46495527D01*
M02*
