%TF.GenerationSoftware,KiCad,Pcbnew,7.0.2-0*%
%TF.CreationDate,2024-04-23T15:27:54-05:00*%
%TF.ProjectId,saopowerbrdvcut,73616f70-6f77-4657-9262-726476637574,rev?*%
%TF.SameCoordinates,Original*%
%TF.FileFunction,Copper,L1,Top*%
%TF.FilePolarity,Positive*%
%FSLAX46Y46*%
G04 Gerber Fmt 4.6, Leading zero omitted, Abs format (unit mm)*
G04 Created by KiCad (PCBNEW 7.0.2-0) date 2024-04-23 15:27:54*
%MOMM*%
%LPD*%
G01*
G04 APERTURE LIST*
%TA.AperFunction,EtchedComponent*%
%ADD10C,0.120000*%
%TD*%
%TA.AperFunction,SMDPad,CuDef*%
%ADD11R,2.600000X5.560000*%
%TD*%
%TA.AperFunction,SMDPad,CuDef*%
%ADD12C,17.800000*%
%TD*%
%TA.AperFunction,ComponentPad*%
%ADD13R,1.727200X1.727200*%
%TD*%
%TA.AperFunction,ComponentPad*%
%ADD14C,1.727200*%
%TD*%
%TA.AperFunction,ComponentPad*%
%ADD15O,1.727200X1.727200*%
%TD*%
%TA.AperFunction,ViaPad*%
%ADD16C,5.500000*%
%TD*%
%TA.AperFunction,ViaPad*%
%ADD17C,0.800000*%
%TD*%
%TA.AperFunction,Conductor*%
%ADD18C,0.250000*%
%TD*%
G04 APERTURE END LIST*
D10*
%TO.C,REF\u002A\u002A*%
X118714001Y-43740654D02*
X115194001Y-43740654D01*
X115194001Y-43740654D02*
X115194001Y-45420654D01*
X115194001Y-45420654D02*
X118714001Y-45420654D01*
X118714001Y-45420654D02*
X118714001Y-43740654D01*
G36*
X118714001Y-43740654D02*
G01*
X115194001Y-43740654D01*
X115194001Y-45420654D01*
X118714001Y-45420654D01*
X118714001Y-43740654D01*
G37*
X118744001Y-41190654D02*
X115224001Y-41190654D01*
X115224001Y-41190654D02*
X115224001Y-42870654D01*
X115224001Y-42870654D02*
X118744001Y-42870654D01*
X118744001Y-42870654D02*
X118744001Y-41190654D01*
G36*
X118744001Y-41190654D02*
G01*
X115224001Y-41190654D01*
X115224001Y-42870654D01*
X118744001Y-42870654D01*
X118744001Y-41190654D01*
G37*
X123124001Y-41200654D02*
X119604001Y-41200654D01*
X119604001Y-41200654D02*
X119604001Y-42880654D01*
X119604001Y-42880654D02*
X123124001Y-42880654D01*
X123124001Y-42880654D02*
X123124001Y-41200654D01*
G36*
X123124001Y-41200654D02*
G01*
X119604001Y-41200654D01*
X119604001Y-42880654D01*
X123124001Y-42880654D01*
X123124001Y-41200654D01*
G37*
X123124001Y-43740654D02*
X119604001Y-43740654D01*
X119604001Y-43740654D02*
X119604001Y-45420654D01*
X119604001Y-45420654D02*
X123124001Y-45420654D01*
X123124001Y-45420654D02*
X123124001Y-43740654D01*
G36*
X123124001Y-43740654D02*
G01*
X119604001Y-43740654D01*
X119604001Y-45420654D01*
X123124001Y-45420654D01*
X123124001Y-43740654D01*
G37*
X148016000Y-43740654D02*
X144496000Y-43740654D01*
X144496000Y-43740654D02*
X144496000Y-45420654D01*
X144496000Y-45420654D02*
X148016000Y-45420654D01*
X148016000Y-45420654D02*
X148016000Y-43740654D01*
G36*
X148016000Y-43740654D02*
G01*
X144496000Y-43740654D01*
X144496000Y-45420654D01*
X148016000Y-45420654D01*
X148016000Y-43740654D01*
G37*
X148046000Y-41190654D02*
X144526000Y-41190654D01*
X144526000Y-41190654D02*
X144526000Y-42870654D01*
X144526000Y-42870654D02*
X148046000Y-42870654D01*
X148046000Y-42870654D02*
X148046000Y-41190654D01*
G36*
X148046000Y-41190654D02*
G01*
X144526000Y-41190654D01*
X144526000Y-42870654D01*
X148046000Y-42870654D01*
X148046000Y-41190654D01*
G37*
X152426000Y-41200654D02*
X148906000Y-41200654D01*
X148906000Y-41200654D02*
X148906000Y-42880654D01*
X148906000Y-42880654D02*
X152426000Y-42880654D01*
X152426000Y-42880654D02*
X152426000Y-41200654D01*
G36*
X152426000Y-41200654D02*
G01*
X148906000Y-41200654D01*
X148906000Y-42880654D01*
X152426000Y-42880654D01*
X152426000Y-41200654D01*
G37*
X152426000Y-43740654D02*
X148906000Y-43740654D01*
X148906000Y-43740654D02*
X148906000Y-45420654D01*
X148906000Y-45420654D02*
X152426000Y-45420654D01*
X152426000Y-45420654D02*
X152426000Y-43740654D01*
G36*
X152426000Y-43740654D02*
G01*
X148906000Y-43740654D01*
X148906000Y-45420654D01*
X152426000Y-45420654D01*
X152426000Y-43740654D01*
G37*
X177317999Y-72231709D02*
X173797999Y-72231709D01*
X173797999Y-72231709D02*
X173797999Y-73911709D01*
X173797999Y-73911709D02*
X177317999Y-73911709D01*
X177317999Y-73911709D02*
X177317999Y-72231709D01*
G36*
X177317999Y-72231709D02*
G01*
X173797999Y-72231709D01*
X173797999Y-73911709D01*
X177317999Y-73911709D01*
X177317999Y-72231709D01*
G37*
X177347999Y-69681709D02*
X173827999Y-69681709D01*
X173827999Y-69681709D02*
X173827999Y-71361709D01*
X173827999Y-71361709D02*
X177347999Y-71361709D01*
X177347999Y-71361709D02*
X177347999Y-69681709D01*
G36*
X177347999Y-69681709D02*
G01*
X173827999Y-69681709D01*
X173827999Y-71361709D01*
X177347999Y-71361709D01*
X177347999Y-69681709D01*
G37*
X181727999Y-69691709D02*
X178207999Y-69691709D01*
X178207999Y-69691709D02*
X178207999Y-71371709D01*
X178207999Y-71371709D02*
X181727999Y-71371709D01*
X181727999Y-71371709D02*
X181727999Y-69691709D01*
G36*
X181727999Y-69691709D02*
G01*
X178207999Y-69691709D01*
X178207999Y-71371709D01*
X181727999Y-71371709D01*
X181727999Y-69691709D01*
G37*
X181727999Y-72231709D02*
X178207999Y-72231709D01*
X178207999Y-72231709D02*
X178207999Y-73911709D01*
X178207999Y-73911709D02*
X181727999Y-73911709D01*
X181727999Y-73911709D02*
X181727999Y-72231709D01*
G36*
X181727999Y-72231709D02*
G01*
X178207999Y-72231709D01*
X178207999Y-73911709D01*
X181727999Y-73911709D01*
X181727999Y-72231709D01*
G37*
X118714001Y-100722764D02*
X115194001Y-100722764D01*
X115194001Y-100722764D02*
X115194001Y-102402764D01*
X115194001Y-102402764D02*
X118714001Y-102402764D01*
X118714001Y-102402764D02*
X118714001Y-100722764D01*
G36*
X118714001Y-100722764D02*
G01*
X115194001Y-100722764D01*
X115194001Y-102402764D01*
X118714001Y-102402764D01*
X118714001Y-100722764D01*
G37*
X118744001Y-98172764D02*
X115224001Y-98172764D01*
X115224001Y-98172764D02*
X115224001Y-99852764D01*
X115224001Y-99852764D02*
X118744001Y-99852764D01*
X118744001Y-99852764D02*
X118744001Y-98172764D01*
G36*
X118744001Y-98172764D02*
G01*
X115224001Y-98172764D01*
X115224001Y-99852764D01*
X118744001Y-99852764D01*
X118744001Y-98172764D01*
G37*
X123124001Y-98182764D02*
X119604001Y-98182764D01*
X119604001Y-98182764D02*
X119604001Y-99862764D01*
X119604001Y-99862764D02*
X123124001Y-99862764D01*
X123124001Y-99862764D02*
X123124001Y-98182764D01*
G36*
X123124001Y-98182764D02*
G01*
X119604001Y-98182764D01*
X119604001Y-99862764D01*
X123124001Y-99862764D01*
X123124001Y-98182764D01*
G37*
X123124001Y-100722764D02*
X119604001Y-100722764D01*
X119604001Y-100722764D02*
X119604001Y-102402764D01*
X119604001Y-102402764D02*
X123124001Y-102402764D01*
X123124001Y-102402764D02*
X123124001Y-100722764D01*
G36*
X123124001Y-100722764D02*
G01*
X119604001Y-100722764D01*
X119604001Y-102402764D01*
X123124001Y-102402764D01*
X123124001Y-100722764D01*
G37*
X118714001Y-72231709D02*
X115194001Y-72231709D01*
X115194001Y-72231709D02*
X115194001Y-73911709D01*
X115194001Y-73911709D02*
X118714001Y-73911709D01*
X118714001Y-73911709D02*
X118714001Y-72231709D01*
G36*
X118714001Y-72231709D02*
G01*
X115194001Y-72231709D01*
X115194001Y-73911709D01*
X118714001Y-73911709D01*
X118714001Y-72231709D01*
G37*
X118744001Y-69681709D02*
X115224001Y-69681709D01*
X115224001Y-69681709D02*
X115224001Y-71361709D01*
X115224001Y-71361709D02*
X118744001Y-71361709D01*
X118744001Y-71361709D02*
X118744001Y-69681709D01*
G36*
X118744001Y-69681709D02*
G01*
X115224001Y-69681709D01*
X115224001Y-71361709D01*
X118744001Y-71361709D01*
X118744001Y-69681709D01*
G37*
X123124001Y-69691709D02*
X119604001Y-69691709D01*
X119604001Y-69691709D02*
X119604001Y-71371709D01*
X119604001Y-71371709D02*
X123124001Y-71371709D01*
X123124001Y-71371709D02*
X123124001Y-69691709D01*
G36*
X123124001Y-69691709D02*
G01*
X119604001Y-69691709D01*
X119604001Y-71371709D01*
X123124001Y-71371709D01*
X123124001Y-69691709D01*
G37*
X123124001Y-72231709D02*
X119604001Y-72231709D01*
X119604001Y-72231709D02*
X119604001Y-73911709D01*
X119604001Y-73911709D02*
X123124001Y-73911709D01*
X123124001Y-73911709D02*
X123124001Y-72231709D01*
G36*
X123124001Y-72231709D02*
G01*
X119604001Y-72231709D01*
X119604001Y-73911709D01*
X123124001Y-73911709D01*
X123124001Y-72231709D01*
G37*
X177317999Y-43740654D02*
X173797999Y-43740654D01*
X173797999Y-43740654D02*
X173797999Y-45420654D01*
X173797999Y-45420654D02*
X177317999Y-45420654D01*
X177317999Y-45420654D02*
X177317999Y-43740654D01*
G36*
X177317999Y-43740654D02*
G01*
X173797999Y-43740654D01*
X173797999Y-45420654D01*
X177317999Y-45420654D01*
X177317999Y-43740654D01*
G37*
X177347999Y-41190654D02*
X173827999Y-41190654D01*
X173827999Y-41190654D02*
X173827999Y-42870654D01*
X173827999Y-42870654D02*
X177347999Y-42870654D01*
X177347999Y-42870654D02*
X177347999Y-41190654D01*
G36*
X177347999Y-41190654D02*
G01*
X173827999Y-41190654D01*
X173827999Y-42870654D01*
X177347999Y-42870654D01*
X177347999Y-41190654D01*
G37*
X181727999Y-41200654D02*
X178207999Y-41200654D01*
X178207999Y-41200654D02*
X178207999Y-42880654D01*
X178207999Y-42880654D02*
X181727999Y-42880654D01*
X181727999Y-42880654D02*
X181727999Y-41200654D01*
G36*
X181727999Y-41200654D02*
G01*
X178207999Y-41200654D01*
X178207999Y-42880654D01*
X181727999Y-42880654D01*
X181727999Y-41200654D01*
G37*
X181727999Y-43740654D02*
X178207999Y-43740654D01*
X178207999Y-43740654D02*
X178207999Y-45420654D01*
X178207999Y-45420654D02*
X181727999Y-45420654D01*
X181727999Y-45420654D02*
X181727999Y-43740654D01*
G36*
X181727999Y-43740654D02*
G01*
X178207999Y-43740654D01*
X178207999Y-45420654D01*
X181727999Y-45420654D01*
X181727999Y-43740654D01*
G37*
X148016000Y-100722764D02*
X144496000Y-100722764D01*
X144496000Y-100722764D02*
X144496000Y-102402764D01*
X144496000Y-102402764D02*
X148016000Y-102402764D01*
X148016000Y-102402764D02*
X148016000Y-100722764D01*
G36*
X148016000Y-100722764D02*
G01*
X144496000Y-100722764D01*
X144496000Y-102402764D01*
X148016000Y-102402764D01*
X148016000Y-100722764D01*
G37*
X148046000Y-98172764D02*
X144526000Y-98172764D01*
X144526000Y-98172764D02*
X144526000Y-99852764D01*
X144526000Y-99852764D02*
X148046000Y-99852764D01*
X148046000Y-99852764D02*
X148046000Y-98172764D01*
G36*
X148046000Y-98172764D02*
G01*
X144526000Y-98172764D01*
X144526000Y-99852764D01*
X148046000Y-99852764D01*
X148046000Y-98172764D01*
G37*
X152426000Y-98182764D02*
X148906000Y-98182764D01*
X148906000Y-98182764D02*
X148906000Y-99862764D01*
X148906000Y-99862764D02*
X152426000Y-99862764D01*
X152426000Y-99862764D02*
X152426000Y-98182764D01*
G36*
X152426000Y-98182764D02*
G01*
X148906000Y-98182764D01*
X148906000Y-99862764D01*
X152426000Y-99862764D01*
X152426000Y-98182764D01*
G37*
X152426000Y-100722764D02*
X148906000Y-100722764D01*
X148906000Y-100722764D02*
X148906000Y-102402764D01*
X148906000Y-102402764D02*
X152426000Y-102402764D01*
X152426000Y-102402764D02*
X152426000Y-100722764D01*
G36*
X152426000Y-100722764D02*
G01*
X148906000Y-100722764D01*
X148906000Y-102402764D01*
X152426000Y-102402764D01*
X152426000Y-100722764D01*
G37*
X148016000Y-72231709D02*
X144496000Y-72231709D01*
X144496000Y-72231709D02*
X144496000Y-73911709D01*
X144496000Y-73911709D02*
X148016000Y-73911709D01*
X148016000Y-73911709D02*
X148016000Y-72231709D01*
G36*
X148016000Y-72231709D02*
G01*
X144496000Y-72231709D01*
X144496000Y-73911709D01*
X148016000Y-73911709D01*
X148016000Y-72231709D01*
G37*
X148046000Y-69681709D02*
X144526000Y-69681709D01*
X144526000Y-69681709D02*
X144526000Y-71361709D01*
X144526000Y-71361709D02*
X148046000Y-71361709D01*
X148046000Y-71361709D02*
X148046000Y-69681709D01*
G36*
X148046000Y-69681709D02*
G01*
X144526000Y-69681709D01*
X144526000Y-71361709D01*
X148046000Y-71361709D01*
X148046000Y-69681709D01*
G37*
X152426000Y-69691709D02*
X148906000Y-69691709D01*
X148906000Y-69691709D02*
X148906000Y-71371709D01*
X148906000Y-71371709D02*
X152426000Y-71371709D01*
X152426000Y-71371709D02*
X152426000Y-69691709D01*
G36*
X152426000Y-69691709D02*
G01*
X148906000Y-69691709D01*
X148906000Y-71371709D01*
X152426000Y-71371709D01*
X152426000Y-69691709D01*
G37*
X152426000Y-72231709D02*
X148906000Y-72231709D01*
X148906000Y-72231709D02*
X148906000Y-73911709D01*
X148906000Y-73911709D02*
X152426000Y-73911709D01*
X152426000Y-73911709D02*
X152426000Y-72231709D01*
G36*
X152426000Y-72231709D02*
G01*
X148906000Y-72231709D01*
X148906000Y-73911709D01*
X152426000Y-73911709D01*
X152426000Y-72231709D01*
G37*
X177317999Y-100722764D02*
X173797999Y-100722764D01*
X173797999Y-100722764D02*
X173797999Y-102402764D01*
X173797999Y-102402764D02*
X177317999Y-102402764D01*
X177317999Y-102402764D02*
X177317999Y-100722764D01*
G36*
X177317999Y-100722764D02*
G01*
X173797999Y-100722764D01*
X173797999Y-102402764D01*
X177317999Y-102402764D01*
X177317999Y-100722764D01*
G37*
X177347999Y-98172764D02*
X173827999Y-98172764D01*
X173827999Y-98172764D02*
X173827999Y-99852764D01*
X173827999Y-99852764D02*
X177347999Y-99852764D01*
X177347999Y-99852764D02*
X177347999Y-98172764D01*
G36*
X177347999Y-98172764D02*
G01*
X173827999Y-98172764D01*
X173827999Y-99852764D01*
X177347999Y-99852764D01*
X177347999Y-98172764D01*
G37*
X181727999Y-98182764D02*
X178207999Y-98182764D01*
X178207999Y-98182764D02*
X178207999Y-99862764D01*
X178207999Y-99862764D02*
X181727999Y-99862764D01*
X181727999Y-99862764D02*
X181727999Y-98182764D01*
G36*
X181727999Y-98182764D02*
G01*
X178207999Y-98182764D01*
X178207999Y-99862764D01*
X181727999Y-99862764D01*
X181727999Y-98182764D01*
G37*
X181727999Y-100722764D02*
X178207999Y-100722764D01*
X178207999Y-100722764D02*
X178207999Y-102402764D01*
X178207999Y-102402764D02*
X181727999Y-102402764D01*
X181727999Y-102402764D02*
X181727999Y-100722764D01*
G36*
X181727999Y-100722764D02*
G01*
X178207999Y-100722764D01*
X178207999Y-102402764D01*
X181727999Y-102402764D01*
X181727999Y-100722764D01*
G37*
%TD*%
D11*
%TO.P,REF\u002A\u002A,1*%
%TO.N,N/C*%
X165907999Y-58421709D03*
X189717999Y-58421709D03*
D12*
%TO.P,REF\u002A\u002A,2*%
X177812999Y-58421709D03*
%TD*%
D11*
%TO.P,REF\u002A\u002A,1*%
%TO.N,N/C*%
X165907999Y-29930654D03*
X189717999Y-29930654D03*
D12*
%TO.P,REF\u002A\u002A,2*%
X177812999Y-29930654D03*
%TD*%
D13*
%TO.P,REF\u002A\u002A,1*%
%TO.N,N/C*%
X117884001Y-42040654D03*
D14*
%TO.P,REF\u002A\u002A,2*%
X117884001Y-44580654D03*
D15*
%TO.P,REF\u002A\u002A,3*%
X120424001Y-42040654D03*
%TO.P,REF\u002A\u002A,4*%
X120424001Y-44580654D03*
%TD*%
D13*
%TO.P,REF\u002A\u002A,1*%
%TO.N,N/C*%
X147186000Y-42040654D03*
D14*
%TO.P,REF\u002A\u002A,2*%
X147186000Y-44580654D03*
D15*
%TO.P,REF\u002A\u002A,3*%
X149726000Y-42040654D03*
%TO.P,REF\u002A\u002A,4*%
X149726000Y-44580654D03*
%TD*%
D11*
%TO.P,REF\u002A\u002A,1*%
%TO.N,N/C*%
X136606000Y-86912764D03*
X160416000Y-86912764D03*
D12*
%TO.P,REF\u002A\u002A,2*%
X148511000Y-86912764D03*
%TD*%
D13*
%TO.P,REF\u002A\u002A,1*%
%TO.N,N/C*%
X176487999Y-70531709D03*
D14*
%TO.P,REF\u002A\u002A,2*%
X176487999Y-73071709D03*
D15*
%TO.P,REF\u002A\u002A,3*%
X179027999Y-70531709D03*
%TO.P,REF\u002A\u002A,4*%
X179027999Y-73071709D03*
%TD*%
D13*
%TO.P,REF\u002A\u002A,1*%
%TO.N,N/C*%
X117884001Y-99022764D03*
D14*
%TO.P,REF\u002A\u002A,2*%
X117884001Y-101562764D03*
D15*
%TO.P,REF\u002A\u002A,3*%
X120424001Y-99022764D03*
%TO.P,REF\u002A\u002A,4*%
X120424001Y-101562764D03*
%TD*%
D11*
%TO.P,REF\u002A\u002A,1*%
%TO.N,N/C*%
X136606000Y-58421709D03*
X160416000Y-58421709D03*
D12*
%TO.P,REF\u002A\u002A,2*%
X148511000Y-58421709D03*
%TD*%
D13*
%TO.P,REF\u002A\u002A,1*%
%TO.N,N/C*%
X117884001Y-70531709D03*
D14*
%TO.P,REF\u002A\u002A,2*%
X117884001Y-73071709D03*
D15*
%TO.P,REF\u002A\u002A,3*%
X120424001Y-70531709D03*
%TO.P,REF\u002A\u002A,4*%
X120424001Y-73071709D03*
%TD*%
D13*
%TO.P,REF\u002A\u002A,1*%
%TO.N,N/C*%
X176487999Y-42040654D03*
D14*
%TO.P,REF\u002A\u002A,2*%
X176487999Y-44580654D03*
D15*
%TO.P,REF\u002A\u002A,3*%
X179027999Y-42040654D03*
%TO.P,REF\u002A\u002A,4*%
X179027999Y-44580654D03*
%TD*%
D13*
%TO.P,REF\u002A\u002A,1*%
%TO.N,N/C*%
X147186000Y-99022764D03*
D14*
%TO.P,REF\u002A\u002A,2*%
X147186000Y-101562764D03*
D15*
%TO.P,REF\u002A\u002A,3*%
X149726000Y-99022764D03*
%TO.P,REF\u002A\u002A,4*%
X149726000Y-101562764D03*
%TD*%
D13*
%TO.P,REF\u002A\u002A,1*%
%TO.N,N/C*%
X147186000Y-70531709D03*
D14*
%TO.P,REF\u002A\u002A,2*%
X147186000Y-73071709D03*
D15*
%TO.P,REF\u002A\u002A,3*%
X149726000Y-70531709D03*
%TO.P,REF\u002A\u002A,4*%
X149726000Y-73071709D03*
%TD*%
D11*
%TO.P,REF\u002A\u002A,1*%
%TO.N,N/C*%
X107304001Y-86912764D03*
X131114001Y-86912764D03*
D12*
%TO.P,REF\u002A\u002A,2*%
X119209001Y-86912764D03*
%TD*%
D11*
%TO.P,REF\u002A\u002A,1*%
%TO.N,N/C*%
X107304001Y-58421709D03*
X131114001Y-58421709D03*
D12*
%TO.P,REF\u002A\u002A,2*%
X119209001Y-58421709D03*
%TD*%
D11*
%TO.P,REF\u002A\u002A,1*%
%TO.N,N/C*%
X107304001Y-29930654D03*
X131114001Y-29930654D03*
D12*
%TO.P,REF\u002A\u002A,2*%
X119209001Y-29930654D03*
%TD*%
D13*
%TO.P,REF\u002A\u002A,1*%
%TO.N,N/C*%
X176487999Y-99022764D03*
D14*
%TO.P,REF\u002A\u002A,2*%
X176487999Y-101562764D03*
D15*
%TO.P,REF\u002A\u002A,3*%
X179027999Y-99022764D03*
%TO.P,REF\u002A\u002A,4*%
X179027999Y-101562764D03*
%TD*%
D11*
%TO.P,REF\u002A\u002A,1*%
%TO.N,N/C*%
X136606000Y-29930654D03*
X160416000Y-29930654D03*
D12*
%TO.P,REF\u002A\u002A,2*%
X148511000Y-29930654D03*
%TD*%
D11*
%TO.P,REF\u002A\u002A,1*%
%TO.N,N/C*%
X165907999Y-86912764D03*
X189717999Y-86912764D03*
D12*
%TO.P,REF\u002A\u002A,2*%
X177812999Y-86912764D03*
%TD*%
D16*
%TO.N,*%
X138317000Y-51551709D03*
D17*
X152041000Y-33260654D03*
D16*
X129519001Y-23120654D03*
X167618999Y-80042764D03*
D17*
X152041000Y-61751709D03*
D16*
X167618999Y-23060654D03*
X158821000Y-51611709D03*
D17*
X152041000Y-90242764D03*
X181342999Y-90242764D03*
D16*
X109015001Y-23060654D03*
X109015001Y-80042764D03*
X188122999Y-51611709D03*
D17*
X122739001Y-61751709D03*
X181342999Y-33260654D03*
X181342999Y-61751709D03*
D16*
X138317000Y-23060654D03*
X129519001Y-51611709D03*
X138317000Y-80042764D03*
D17*
X122739001Y-90242764D03*
D16*
X158821000Y-23120654D03*
X129519001Y-80102764D03*
X188122999Y-23120654D03*
D17*
X122739001Y-33260654D03*
D16*
X167618999Y-51551709D03*
X109015001Y-51551709D03*
X188122999Y-80102764D03*
X158821000Y-80102764D03*
%TD*%
D18*
%TO.N,*%
X147061000Y-41780654D02*
X142061000Y-41780654D01*
X171362999Y-98762764D02*
X165907999Y-93307764D01*
X176362999Y-41780654D02*
X171362999Y-41780654D01*
X171362999Y-70271709D02*
X165907999Y-64816709D01*
X176362999Y-98762764D02*
X171362999Y-98762764D01*
X136606000Y-93307764D02*
X136606000Y-86912764D01*
X112759001Y-98762764D02*
X107304001Y-93307764D01*
X142061000Y-41780654D02*
X136606000Y-36325654D01*
X148511000Y-86912764D02*
X148511000Y-91662764D01*
X119209001Y-86912764D02*
X119209001Y-91662764D01*
X171362999Y-41780654D02*
X165907999Y-36325654D01*
X165907999Y-64816709D02*
X165907999Y-58421709D01*
X142061000Y-98762764D02*
X136606000Y-93307764D01*
X176362999Y-70271709D02*
X171362999Y-70271709D01*
X165907999Y-36325654D02*
X165907999Y-29930654D01*
X112759001Y-41780654D02*
X107304001Y-36325654D01*
X177812999Y-86912764D02*
X177812999Y-91662764D01*
X112759001Y-70271709D02*
X107304001Y-64816709D01*
X107304001Y-64816709D02*
X107304001Y-58421709D01*
X142061000Y-70271709D02*
X136606000Y-64816709D01*
X136606000Y-64816709D02*
X136606000Y-58421709D01*
X148511000Y-29930654D02*
X148511000Y-34680654D01*
X117759001Y-70271709D02*
X112759001Y-70271709D01*
X107304001Y-36325654D02*
X107304001Y-29930654D01*
X136606000Y-36325654D02*
X136606000Y-29930654D01*
X165907999Y-93307764D02*
X165907999Y-86912764D01*
X147061000Y-70271709D02*
X142061000Y-70271709D01*
X119209001Y-29930654D02*
X119209001Y-34680654D01*
X177812999Y-29930654D02*
X177812999Y-34680654D01*
X119209001Y-58421709D02*
X119209001Y-63171709D01*
X117759001Y-98762764D02*
X112759001Y-98762764D01*
X177812999Y-58421709D02*
X177812999Y-63171709D01*
X117759001Y-41780654D02*
X112759001Y-41780654D01*
X148511000Y-58421709D02*
X148511000Y-63171709D01*
X147061000Y-98762764D02*
X142061000Y-98762764D01*
X107304001Y-93307764D02*
X107304001Y-86912764D01*
%TD*%
M02*
