%TF.GenerationSoftware,KiCad,Pcbnew,8.0.4*%
%TF.CreationDate,2024-08-25T22:48:33-07:00*%
%TF.ProjectId,SAOdumpsterfire-panel,53414f64-756d-4707-9374-657266697265,rev?*%
%TF.SameCoordinates,Original*%
%TF.FileFunction,Other,Comment*%
%FSLAX46Y46*%
G04 Gerber Fmt 4.6, Leading zero omitted, Abs format (unit mm)*
G04 Created by KiCad (PCBNEW 8.0.4) date 2024-08-25 22:48:33*
%MOMM*%
%LPD*%
G01*
G04 APERTURE LIST*
%ADD10C,2.000000*%
G04 APERTURE END LIST*
D10*
%TO.C,REF\u002A\u002A*%
X196800000Y-97740000D02*
X195050000Y-97740000D01*
X202105000Y-97750000D02*
X203855000Y-97750000D01*
X170625000Y-97615000D02*
X168875000Y-97615000D01*
X175930000Y-97625000D02*
X177680000Y-97625000D01*
X154325000Y-98590000D02*
X152575000Y-98590000D01*
X159630000Y-98600000D02*
X161380000Y-98600000D01*
X128050000Y-98415000D02*
X126300000Y-98415000D01*
X133355000Y-98425000D02*
X135105000Y-98425000D01*
X85725000Y-99040000D02*
X83975000Y-99040000D01*
X91030000Y-99050000D02*
X92780000Y-99050000D01*
X112000000Y-99165000D02*
X110250000Y-99165000D01*
X117305000Y-99175000D02*
X119055000Y-99175000D01*
X164612675Y-116390125D02*
X164612675Y-118140125D01*
X164602675Y-110500125D02*
X164602675Y-108750125D01*
X122201675Y-117207750D02*
X122201675Y-118957750D01*
X122191675Y-111317750D02*
X122191675Y-109567750D01*
X122913800Y-86269876D02*
X122913800Y-88019876D01*
X122903800Y-80379876D02*
X122903800Y-78629876D01*
X165288425Y-79562251D02*
X165288425Y-77812251D01*
X165298425Y-85452251D02*
X165298425Y-87202251D01*
%TD*%
M02*
