%TF.GenerationSoftware,KiCad,Pcbnew,8.0.4*%
%TF.CreationDate,2024-08-25T22:48:33-07:00*%
%TF.ProjectId,SAOdumpsterfire-panel,53414f64-756d-4707-9374-657266697265,rev?*%
%TF.SameCoordinates,Original*%
%TF.FileFunction,Paste,Bot*%
%TF.FilePolarity,Positive*%
%FSLAX46Y46*%
G04 Gerber Fmt 4.6, Leading zero omitted, Abs format (unit mm)*
G04 Created by KiCad (PCBNEW 8.0.4) date 2024-08-25 22:48:33*
%MOMM*%
%LPD*%
G01*
G04 APERTURE LIST*
G04 Aperture macros list*
%AMRoundRect*
0 Rectangle with rounded corners*
0 $1 Rounding radius*
0 $2 $3 $4 $5 $6 $7 $8 $9 X,Y pos of 4 corners*
0 Add a 4 corners polygon primitive as box body*
4,1,4,$2,$3,$4,$5,$6,$7,$8,$9,$2,$3,0*
0 Add four circle primitives for the rounded corners*
1,1,$1+$1,$2,$3*
1,1,$1+$1,$4,$5*
1,1,$1+$1,$6,$7*
1,1,$1+$1,$8,$9*
0 Add four rect primitives between the rounded corners*
20,1,$1+$1,$2,$3,$4,$5,0*
20,1,$1+$1,$4,$5,$6,$7,0*
20,1,$1+$1,$6,$7,$8,$9,0*
20,1,$1+$1,$8,$9,$2,$3,0*%
%AMRotRect*
0 Rectangle, with rotation*
0 The origin of the aperture is its center*
0 $1 length*
0 $2 width*
0 $3 Rotation angle, in degrees counterclockwise*
0 Add horizontal line*
21,1,$1,$2,0,0,$3*%
G04 Aperture macros list end*
%ADD10RoundRect,0.249999X1.075001X-0.450001X1.075001X0.450001X-1.075001X0.450001X-1.075001X-0.450001X0*%
%ADD11RotRect,1.500000X3.600000X10.000000*%
%ADD12R,2.600000X3.600000*%
%ADD13R,1.500000X3.600000*%
%ADD14R,1.000000X5.000000*%
%ADD15RotRect,1.500000X3.600000X190.000000*%
%ADD16RoundRect,0.249999X-1.075001X0.450001X-1.075001X-0.450001X1.075001X-0.450001X1.075001X0.450001X0*%
G04 APERTURE END LIST*
D10*
%TO.C,R1*%
X169475002Y-115520005D03*
X169474998Y-110720001D03*
%TD*%
D11*
%TO.C,D1*%
X192123162Y-125209818D03*
X195126834Y-124680188D03*
%TD*%
D12*
%TO.C,BT1*%
X173725002Y-112644996D03*
X203025002Y-112644996D03*
%TD*%
D13*
%TO.C,D2*%
X181124995Y-125644997D03*
X184175003Y-125644997D03*
%TD*%
D14*
%TO.C,J2*%
X185369997Y-115989996D03*
X185400001Y-108389994D03*
X187920002Y-116019998D03*
X187939999Y-108389996D03*
X190460002Y-116019995D03*
X190480004Y-108389998D03*
%TD*%
D10*
%TO.C,R1*%
X126975002Y-116545005D03*
X126974998Y-111745001D03*
%TD*%
D11*
%TO.C,D1*%
X149623162Y-126234818D03*
X152626834Y-125705188D03*
%TD*%
D12*
%TO.C,BT1*%
X131225002Y-113669996D03*
X160525002Y-113669996D03*
%TD*%
D13*
%TO.C,D2*%
X138624995Y-126669997D03*
X141675003Y-126669997D03*
%TD*%
D14*
%TO.C,J2*%
X142869997Y-117014996D03*
X142900001Y-109414994D03*
X145420002Y-117044998D03*
X145439999Y-109414996D03*
X147960002Y-117044995D03*
X147980004Y-109414998D03*
%TD*%
D11*
%TO.C,D1*%
X107098162Y-126659818D03*
X110101834Y-126130188D03*
%TD*%
D13*
%TO.C,D2*%
X96099995Y-127094997D03*
X99150003Y-127094997D03*
%TD*%
D14*
%TO.C,J2*%
X100344997Y-117439996D03*
X100375001Y-109839994D03*
X102895002Y-117469998D03*
X102914999Y-109839996D03*
X105435002Y-117469995D03*
X105455004Y-109839998D03*
%TD*%
D12*
%TO.C,BT1*%
X88700002Y-114094996D03*
X118000002Y-114094996D03*
%TD*%
D10*
%TO.C,R1*%
X84450002Y-116970005D03*
X84449998Y-112170001D03*
%TD*%
D15*
%TO.C,D1*%
X95451832Y-71705187D03*
X92448168Y-72234813D03*
%TD*%
D13*
%TO.C,D2*%
X106450000Y-71270000D03*
X103400000Y-71270000D03*
%TD*%
D14*
%TO.C,J2*%
X102205000Y-80925000D03*
X102175000Y-88525000D03*
X99655000Y-80895000D03*
X99635000Y-88525000D03*
X97115000Y-80895000D03*
X97095000Y-88525000D03*
%TD*%
D12*
%TO.C,BT1*%
X113850000Y-84270000D03*
X84550000Y-84270000D03*
%TD*%
D16*
%TO.C,R1*%
X118099999Y-81394999D03*
X118100001Y-86195001D03*
%TD*%
D15*
%TO.C,D1*%
X138001832Y-71080187D03*
X134998168Y-71609813D03*
%TD*%
D13*
%TO.C,D2*%
X149000000Y-70645000D03*
X145950000Y-70645000D03*
%TD*%
D14*
%TO.C,J2*%
X144755000Y-80300000D03*
X144725000Y-87900000D03*
X142205000Y-80270000D03*
X142185000Y-87900000D03*
X139665000Y-80270000D03*
X139645000Y-87900000D03*
%TD*%
D12*
%TO.C,BT1*%
X156400000Y-83645000D03*
X127100000Y-83645000D03*
%TD*%
D16*
%TO.C,R1*%
X160649999Y-80769999D03*
X160650001Y-85570001D03*
%TD*%
D15*
%TO.C,D1*%
X180426832Y-70180187D03*
X177423168Y-70709813D03*
%TD*%
D13*
%TO.C,D2*%
X191425000Y-69745000D03*
X188375000Y-69745000D03*
%TD*%
D14*
%TO.C,J2*%
X187180000Y-79400000D03*
X187150000Y-87000000D03*
X184630000Y-79370000D03*
X184610000Y-87000000D03*
X182090000Y-79370000D03*
X182070000Y-87000000D03*
%TD*%
D12*
%TO.C,BT1*%
X198825000Y-82745000D03*
X169525000Y-82745000D03*
%TD*%
D16*
%TO.C,R1*%
X203074999Y-79869999D03*
X203075001Y-84670001D03*
%TD*%
M02*
