M48
; DRILL file {KiCad 8.0.4} date 2024-08-25T22:48:33-0700
; FORMAT={-:-/ absolute / inch / decimal}
; #@! TF.CreationDate,2024-08-25T22:48:33-07:00
; #@! TF.GenerationSoftware,Kicad,Pcbnew,8.0.4
; #@! TF.FileFunction,NonPlated,1,2,NPTH
FMAT,2
INCH
; #@! TA.AperFunction,NonPlated,NPTH,ComponentDrill
T1C0.0197
%
G90
G05
T1
X3.4041Y-3.8461
X3.4041Y-3.9535
X3.438Y-3.8467
X3.438Y-3.9541
X3.4774Y-3.8467
X3.4774Y-3.9541
X3.5167Y-3.8467
X3.5167Y-3.9541
X3.5533Y-3.8469
X3.5533Y-3.9543
X4.4386Y-3.851
X4.4386Y-3.9585
X4.4724Y-3.8516
X4.4724Y-3.9591
X4.5118Y-3.8516
X4.5118Y-3.9591
X4.5512Y-3.8516
X4.5512Y-3.9591
X4.5878Y-3.8518
X4.5878Y-3.9593
X4.7575Y-4.6182
X4.7579Y-4.3863
X4.7581Y-4.4241
X4.7581Y-4.4635
X4.7581Y-4.5029
X4.7581Y-4.5422
X4.7581Y-4.5816
X4.7856Y-3.4002
X4.786Y-3.1683
X4.7862Y-3.2061
X4.7862Y-3.2455
X4.7862Y-3.2848
X4.7862Y-3.3242
X4.7862Y-3.3636
X4.865Y-4.6182
X4.8654Y-4.3863
X4.8656Y-4.4241
X4.8656Y-4.4635
X4.8656Y-4.5029
X4.8656Y-4.5422
X4.8656Y-4.5816
X4.8931Y-3.4002
X4.8935Y-3.1683
X4.8937Y-3.2061
X4.8937Y-3.2455
X4.8937Y-3.2848
X4.8937Y-3.3242
X4.8937Y-3.3636
X5.0705Y-3.8215
X5.0705Y-3.9289
X5.1043Y-3.822
X5.1043Y-3.9295
X5.1437Y-3.822
X5.1437Y-3.9295
X5.1831Y-3.822
X5.1831Y-3.9295
X5.2197Y-3.8222
X5.2197Y-3.9297
X6.1049Y-3.8283
X6.1049Y-3.9358
X6.1388Y-3.8289
X6.1388Y-3.9364
X6.1781Y-3.8289
X6.1781Y-3.9364
X6.2175Y-3.8289
X6.2175Y-3.9364
X6.2541Y-3.8291
X6.2541Y-3.9366
X6.4273Y-4.586
X6.4277Y-4.3541
X6.4279Y-4.3919
X6.4279Y-4.4313
X6.4279Y-4.4707
X6.4279Y-4.51
X6.4279Y-4.5494
X6.4543Y-3.368
X6.4547Y-3.1361
X6.4549Y-3.1739
X6.4549Y-3.2133
X6.4549Y-3.2526
X6.4549Y-3.292
X6.4549Y-3.3314
X6.5348Y-4.586
X6.5351Y-4.3541
X6.5353Y-4.3919
X6.5353Y-4.4313
X6.5353Y-4.4707
X6.5353Y-4.51
X6.5353Y-4.5494
X6.5617Y-3.368
X6.5621Y-3.1361
X6.5623Y-3.1739
X6.5623Y-3.2133
X6.5623Y-3.2526
X6.5623Y-3.292
X6.5623Y-3.3314
X6.7467Y-3.79
X6.7467Y-3.8974
X6.7805Y-3.7906
X6.7805Y-3.898
X6.8199Y-3.7906
X6.8199Y-3.898
X6.8593Y-3.7906
X6.8593Y-3.898
X6.8959Y-3.7907
X6.8959Y-3.8982
X7.7772Y-3.7949
X7.7772Y-3.9024
X7.811Y-3.7955
X7.811Y-3.903
X7.8504Y-3.7955
X7.8504Y-3.903
X7.8898Y-3.7955
X7.8898Y-3.903
X7.9264Y-3.7957
X7.9264Y-3.9031
M30
