%TF.GenerationSoftware,KiCad,Pcbnew,8.0.4*%
%TF.CreationDate,2024-08-25T02:49:15-07:00*%
%TF.ProjectId,SMDemfExplorerLEDvariationSingleCell,534d4465-6d66-4457-9870-6c6f7265724c,rev?*%
%TF.SameCoordinates,Original*%
%TF.FileFunction,Copper,L2,Bot*%
%TF.FilePolarity,Positive*%
%FSLAX46Y46*%
G04 Gerber Fmt 4.6, Leading zero omitted, Abs format (unit mm)*
G04 Created by KiCad (PCBNEW 8.0.4) date 2024-08-25 02:49:15*
%MOMM*%
%LPD*%
G01*
G04 APERTURE LIST*
%TA.AperFunction,ViaPad*%
%ADD10C,0.600000*%
%TD*%
%TA.AperFunction,Conductor*%
%ADD11C,0.500000*%
%TD*%
G04 APERTURE END LIST*
D10*
%TO.N,-1V5*%
X157603185Y-70211275D03*
X168928185Y-81511278D03*
%TO.N,Net-(U3A-+)*%
X171053184Y-67836277D03*
X160353186Y-84311281D03*
X160378187Y-78361279D03*
X171528189Y-59786277D03*
%TO.N,+1V5*%
X150403185Y-75586278D03*
X150403188Y-85886276D03*
%TO.N,GND*%
X175853188Y-62386276D03*
X180953188Y-77661275D03*
%TO.N,Net-(U2A--)*%
X175278183Y-81986279D03*
X156453186Y-61186276D03*
%TO.N,Net-(U3B-+)*%
X179853187Y-61011278D03*
X183090686Y-59798773D03*
%TD*%
D11*
%TO.N,-1V5*%
X168928185Y-81511278D02*
X157628184Y-70211277D01*
X157628184Y-70211277D02*
X157603185Y-70211275D01*
%TO.N,Net-(U3A-+)*%
X160378187Y-78361279D02*
X160378188Y-84286279D01*
X171128188Y-67761272D02*
X171053184Y-67836277D01*
X171528189Y-59786277D02*
X171128188Y-60186277D01*
X171128188Y-60186277D02*
X171128188Y-67761272D01*
X160378188Y-84286279D02*
X160353186Y-84311281D01*
%TO.N,+1V5*%
X150403188Y-85886276D02*
X150403185Y-75586278D01*
%TO.N,GND*%
X175953185Y-72661276D02*
X180953188Y-77661275D01*
X175853188Y-62386276D02*
X175953187Y-62486275D01*
X175953187Y-62486275D02*
X175953185Y-72661276D01*
%TO.N,Net-(U2A--)*%
X175278188Y-80011276D02*
X175278183Y-81986279D01*
X156453186Y-61186276D02*
X175278188Y-80011276D01*
%TO.N,Net-(U3B-+)*%
X181878187Y-61011275D02*
X183090686Y-59798773D01*
X179853187Y-61011278D02*
X181878187Y-61011275D01*
%TD*%
M02*
