%TF.GenerationSoftware,KiCad,Pcbnew,8.0.4*%
%TF.CreationDate,2024-08-25T02:49:15-07:00*%
%TF.ProjectId,SMDemfExplorerLEDvariationSingleCell,534d4465-6d66-4457-9870-6c6f7265724c,rev?*%
%TF.SameCoordinates,Original*%
%TF.FileFunction,Legend,Top*%
%TF.FilePolarity,Positive*%
%FSLAX46Y46*%
G04 Gerber Fmt 4.6, Leading zero omitted, Abs format (unit mm)*
G04 Created by KiCad (PCBNEW 8.0.4) date 2024-08-25 02:49:15*
%MOMM*%
%LPD*%
G01*
G04 APERTURE LIST*
G04 Aperture macros list*
%AMRoundRect*
0 Rectangle with rounded corners*
0 $1 Rounding radius*
0 $2 $3 $4 $5 $6 $7 $8 $9 X,Y pos of 4 corners*
0 Add a 4 corners polygon primitive as box body*
4,1,4,$2,$3,$4,$5,$6,$7,$8,$9,$2,$3,0*
0 Add four circle primitives for the rounded corners*
1,1,$1+$1,$2,$3*
1,1,$1+$1,$4,$5*
1,1,$1+$1,$6,$7*
1,1,$1+$1,$8,$9*
0 Add four rect primitives between the rounded corners*
20,1,$1+$1,$2,$3,$4,$5,0*
20,1,$1+$1,$4,$5,$6,$7,0*
20,1,$1+$1,$6,$7,$8,$9,0*
20,1,$1+$1,$8,$9,$2,$3,0*%
G04 Aperture macros list end*
%ADD10C,0.100000*%
%ADD11C,0.150000*%
%ADD12C,0.120000*%
%ADD13C,0.152400*%
%ADD14R,1.200000X2.500000*%
%ADD15RoundRect,0.250001X0.924999X-0.499999X0.924999X0.499999X-0.924999X0.499999X-0.924999X-0.499999X0*%
%ADD16R,2.800000X2.800000*%
%ADD17R,2.200000X2.800000*%
%ADD18C,1.700000*%
%ADD19R,5.100000X2.350000*%
%ADD20RoundRect,0.237500X-0.237500X0.287500X-0.237500X-0.287500X0.237500X-0.287500X0.237500X0.287500X0*%
%ADD21RoundRect,0.237500X-0.300000X-0.237500X0.300000X-0.237500X0.300000X0.237500X-0.300000X0.237500X0*%
%ADD22C,2.235200*%
%ADD23R,6.350000X5.080000*%
%ADD24RoundRect,0.150000X0.825000X0.150000X-0.825000X0.150000X-0.825000X-0.150000X0.825000X-0.150000X0*%
%ADD25RoundRect,0.250000X0.537500X0.425000X-0.537500X0.425000X-0.537500X-0.425000X0.537500X-0.425000X0*%
%ADD26RoundRect,0.250000X0.250000X-0.750000X0.250000X0.750000X-0.250000X0.750000X-0.250000X-0.750000X0*%
%ADD27RoundRect,0.150000X-0.825000X-0.150000X0.825000X-0.150000X0.825000X0.150000X-0.825000X0.150000X0*%
%ADD28RoundRect,0.237500X0.237500X-0.250000X0.237500X0.250000X-0.237500X0.250000X-0.237500X-0.250000X0*%
%ADD29RoundRect,0.237500X-0.237500X0.250000X-0.237500X-0.250000X0.237500X-0.250000X0.237500X0.250000X0*%
%ADD30RoundRect,0.237500X0.237500X-0.300000X0.237500X0.300000X-0.237500X0.300000X-0.237500X-0.300000X0*%
%ADD31RoundRect,0.237500X0.250000X0.237500X-0.250000X0.237500X-0.250000X-0.237500X0.250000X-0.237500X0*%
%ADD32RoundRect,0.237500X-0.250000X-0.237500X0.250000X-0.237500X0.250000X0.237500X-0.250000X0.237500X0*%
%ADD33RoundRect,0.150000X0.150000X-0.587500X0.150000X0.587500X-0.150000X0.587500X-0.150000X-0.587500X0*%
%ADD34RoundRect,0.237500X0.300000X0.237500X-0.300000X0.237500X-0.300000X-0.237500X0.300000X-0.237500X0*%
%ADD35RoundRect,0.237500X-0.237500X0.300000X-0.237500X-0.300000X0.237500X-0.300000X0.237500X0.300000X0*%
%ADD36RoundRect,0.250000X0.450000X0.425000X-0.450000X0.425000X-0.450000X-0.425000X0.450000X-0.425000X0*%
G04 APERTURE END LIST*
D10*
X165744925Y-58997468D02*
X166221115Y-58997468D01*
X166221115Y-58997468D02*
X166221115Y-59997468D01*
X165411591Y-58997468D02*
X165411591Y-59664135D01*
X165411591Y-59997468D02*
X165459210Y-59949849D01*
X165459210Y-59949849D02*
X165411591Y-59902230D01*
X165411591Y-59902230D02*
X165363972Y-59949849D01*
X165363972Y-59949849D02*
X165411591Y-59997468D01*
X165411591Y-59997468D02*
X165411591Y-59902230D01*
X164983020Y-59045088D02*
X164887782Y-58997468D01*
X164887782Y-58997468D02*
X164697306Y-58997468D01*
X164697306Y-58997468D02*
X164602068Y-59045088D01*
X164602068Y-59045088D02*
X164554449Y-59140326D01*
X164554449Y-59140326D02*
X164554449Y-59187945D01*
X164554449Y-59187945D02*
X164602068Y-59283183D01*
X164602068Y-59283183D02*
X164697306Y-59330802D01*
X164697306Y-59330802D02*
X164840163Y-59330802D01*
X164840163Y-59330802D02*
X164935401Y-59378421D01*
X164935401Y-59378421D02*
X164983020Y-59473659D01*
X164983020Y-59473659D02*
X164983020Y-59521278D01*
X164983020Y-59521278D02*
X164935401Y-59616516D01*
X164935401Y-59616516D02*
X164840163Y-59664135D01*
X164840163Y-59664135D02*
X164697306Y-59664135D01*
X164697306Y-59664135D02*
X164602068Y-59616516D01*
X164268734Y-59664135D02*
X163887782Y-59664135D01*
X164125877Y-59997468D02*
X164125877Y-59140326D01*
X164125877Y-59140326D02*
X164078258Y-59045088D01*
X164078258Y-59045088D02*
X163983020Y-58997468D01*
X163983020Y-58997468D02*
X163887782Y-58997468D01*
X163173496Y-59045088D02*
X163268734Y-58997468D01*
X163268734Y-58997468D02*
X163459210Y-58997468D01*
X163459210Y-58997468D02*
X163554448Y-59045088D01*
X163554448Y-59045088D02*
X163602067Y-59140326D01*
X163602067Y-59140326D02*
X163602067Y-59521278D01*
X163602067Y-59521278D02*
X163554448Y-59616516D01*
X163554448Y-59616516D02*
X163459210Y-59664135D01*
X163459210Y-59664135D02*
X163268734Y-59664135D01*
X163268734Y-59664135D02*
X163173496Y-59616516D01*
X163173496Y-59616516D02*
X163125877Y-59521278D01*
X163125877Y-59521278D02*
X163125877Y-59426040D01*
X163125877Y-59426040D02*
X163602067Y-59330802D01*
X162697305Y-59664135D02*
X162697305Y-58997468D01*
X162697305Y-59568897D02*
X162649686Y-59616516D01*
X162649686Y-59616516D02*
X162554448Y-59664135D01*
X162554448Y-59664135D02*
X162411591Y-59664135D01*
X162411591Y-59664135D02*
X162316353Y-59616516D01*
X162316353Y-59616516D02*
X162268734Y-59521278D01*
X162268734Y-59521278D02*
X162268734Y-58997468D01*
X161173495Y-59664135D02*
X160792543Y-59664135D01*
X161030638Y-59997468D02*
X161030638Y-59140326D01*
X161030638Y-59140326D02*
X160983019Y-59045088D01*
X160983019Y-59045088D02*
X160887781Y-58997468D01*
X160887781Y-58997468D02*
X160792543Y-58997468D01*
X160316352Y-58997468D02*
X160411590Y-59045088D01*
X160411590Y-59045088D02*
X160459209Y-59092707D01*
X160459209Y-59092707D02*
X160506828Y-59187945D01*
X160506828Y-59187945D02*
X160506828Y-59473659D01*
X160506828Y-59473659D02*
X160459209Y-59568897D01*
X160459209Y-59568897D02*
X160411590Y-59616516D01*
X160411590Y-59616516D02*
X160316352Y-59664135D01*
X160316352Y-59664135D02*
X160173495Y-59664135D01*
X160173495Y-59664135D02*
X160078257Y-59616516D01*
X160078257Y-59616516D02*
X160030638Y-59568897D01*
X160030638Y-59568897D02*
X159983019Y-59473659D01*
X159983019Y-59473659D02*
X159983019Y-59187945D01*
X159983019Y-59187945D02*
X160030638Y-59092707D01*
X160030638Y-59092707D02*
X160078257Y-59045088D01*
X160078257Y-59045088D02*
X160173495Y-58997468D01*
X160173495Y-58997468D02*
X160316352Y-58997468D01*
X158935399Y-59664135D02*
X158554447Y-59664135D01*
X158792542Y-59997468D02*
X158792542Y-59140326D01*
X158792542Y-59140326D02*
X158744923Y-59045088D01*
X158744923Y-59045088D02*
X158649685Y-58997468D01*
X158649685Y-58997468D02*
X158554447Y-58997468D01*
X158221113Y-58997468D02*
X158221113Y-59997468D01*
X157792542Y-58997468D02*
X157792542Y-59521278D01*
X157792542Y-59521278D02*
X157840161Y-59616516D01*
X157840161Y-59616516D02*
X157935399Y-59664135D01*
X157935399Y-59664135D02*
X158078256Y-59664135D01*
X158078256Y-59664135D02*
X158173494Y-59616516D01*
X158173494Y-59616516D02*
X158221113Y-59568897D01*
X156935399Y-59045088D02*
X157030637Y-58997468D01*
X157030637Y-58997468D02*
X157221113Y-58997468D01*
X157221113Y-58997468D02*
X157316351Y-59045088D01*
X157316351Y-59045088D02*
X157363970Y-59140326D01*
X157363970Y-59140326D02*
X157363970Y-59521278D01*
X157363970Y-59521278D02*
X157316351Y-59616516D01*
X157316351Y-59616516D02*
X157221113Y-59664135D01*
X157221113Y-59664135D02*
X157030637Y-59664135D01*
X157030637Y-59664135D02*
X156935399Y-59616516D01*
X156935399Y-59616516D02*
X156887780Y-59521278D01*
X156887780Y-59521278D02*
X156887780Y-59426040D01*
X156887780Y-59426040D02*
X157363970Y-59330802D01*
X165840163Y-57435144D02*
X165935401Y-57387524D01*
X165935401Y-57387524D02*
X166125877Y-57387524D01*
X166125877Y-57387524D02*
X166221115Y-57435144D01*
X166221115Y-57435144D02*
X166268734Y-57530382D01*
X166268734Y-57530382D02*
X166268734Y-57911334D01*
X166268734Y-57911334D02*
X166221115Y-58006572D01*
X166221115Y-58006572D02*
X166125877Y-58054191D01*
X166125877Y-58054191D02*
X165935401Y-58054191D01*
X165935401Y-58054191D02*
X165840163Y-58006572D01*
X165840163Y-58006572D02*
X165792544Y-57911334D01*
X165792544Y-57911334D02*
X165792544Y-57816096D01*
X165792544Y-57816096D02*
X166268734Y-57720858D01*
X165221115Y-57387524D02*
X165316353Y-57435144D01*
X165316353Y-57435144D02*
X165363972Y-57530382D01*
X165363972Y-57530382D02*
X165363972Y-58387524D01*
X164459210Y-57435144D02*
X164554448Y-57387524D01*
X164554448Y-57387524D02*
X164744924Y-57387524D01*
X164744924Y-57387524D02*
X164840162Y-57435144D01*
X164840162Y-57435144D02*
X164887781Y-57530382D01*
X164887781Y-57530382D02*
X164887781Y-57911334D01*
X164887781Y-57911334D02*
X164840162Y-58006572D01*
X164840162Y-58006572D02*
X164744924Y-58054191D01*
X164744924Y-58054191D02*
X164554448Y-58054191D01*
X164554448Y-58054191D02*
X164459210Y-58006572D01*
X164459210Y-58006572D02*
X164411591Y-57911334D01*
X164411591Y-57911334D02*
X164411591Y-57816096D01*
X164411591Y-57816096D02*
X164887781Y-57720858D01*
X163554448Y-57435144D02*
X163649686Y-57387524D01*
X163649686Y-57387524D02*
X163840162Y-57387524D01*
X163840162Y-57387524D02*
X163935400Y-57435144D01*
X163935400Y-57435144D02*
X163983019Y-57482763D01*
X163983019Y-57482763D02*
X164030638Y-57578001D01*
X164030638Y-57578001D02*
X164030638Y-57863715D01*
X164030638Y-57863715D02*
X163983019Y-57958953D01*
X163983019Y-57958953D02*
X163935400Y-58006572D01*
X163935400Y-58006572D02*
X163840162Y-58054191D01*
X163840162Y-58054191D02*
X163649686Y-58054191D01*
X163649686Y-58054191D02*
X163554448Y-58006572D01*
X163268733Y-58054191D02*
X162887781Y-58054191D01*
X163125876Y-58387524D02*
X163125876Y-57530382D01*
X163125876Y-57530382D02*
X163078257Y-57435144D01*
X163078257Y-57435144D02*
X162983019Y-57387524D01*
X162983019Y-57387524D02*
X162887781Y-57387524D01*
X162554447Y-57387524D02*
X162554447Y-58054191D01*
X162554447Y-57863715D02*
X162506828Y-57958953D01*
X162506828Y-57958953D02*
X162459209Y-58006572D01*
X162459209Y-58006572D02*
X162363971Y-58054191D01*
X162363971Y-58054191D02*
X162268733Y-58054191D01*
X161792542Y-57387524D02*
X161887780Y-57435144D01*
X161887780Y-57435144D02*
X161935399Y-57482763D01*
X161935399Y-57482763D02*
X161983018Y-57578001D01*
X161983018Y-57578001D02*
X161983018Y-57863715D01*
X161983018Y-57863715D02*
X161935399Y-57958953D01*
X161935399Y-57958953D02*
X161887780Y-58006572D01*
X161887780Y-58006572D02*
X161792542Y-58054191D01*
X161792542Y-58054191D02*
X161649685Y-58054191D01*
X161649685Y-58054191D02*
X161554447Y-58006572D01*
X161554447Y-58006572D02*
X161506828Y-57958953D01*
X161506828Y-57958953D02*
X161459209Y-57863715D01*
X161459209Y-57863715D02*
X161459209Y-57578001D01*
X161459209Y-57578001D02*
X161506828Y-57482763D01*
X161506828Y-57482763D02*
X161554447Y-57435144D01*
X161554447Y-57435144D02*
X161649685Y-57387524D01*
X161649685Y-57387524D02*
X161792542Y-57387524D01*
X161030637Y-57387524D02*
X161030637Y-58054191D01*
X161030637Y-57958953D02*
X160983018Y-58006572D01*
X160983018Y-58006572D02*
X160887780Y-58054191D01*
X160887780Y-58054191D02*
X160744923Y-58054191D01*
X160744923Y-58054191D02*
X160649685Y-58006572D01*
X160649685Y-58006572D02*
X160602066Y-57911334D01*
X160602066Y-57911334D02*
X160602066Y-57387524D01*
X160602066Y-57911334D02*
X160554447Y-58006572D01*
X160554447Y-58006572D02*
X160459209Y-58054191D01*
X160459209Y-58054191D02*
X160316352Y-58054191D01*
X160316352Y-58054191D02*
X160221113Y-58006572D01*
X160221113Y-58006572D02*
X160173494Y-57911334D01*
X160173494Y-57911334D02*
X160173494Y-57387524D01*
X159268733Y-57387524D02*
X159268733Y-57911334D01*
X159268733Y-57911334D02*
X159316352Y-58006572D01*
X159316352Y-58006572D02*
X159411590Y-58054191D01*
X159411590Y-58054191D02*
X159602066Y-58054191D01*
X159602066Y-58054191D02*
X159697304Y-58006572D01*
X159268733Y-57435144D02*
X159363971Y-57387524D01*
X159363971Y-57387524D02*
X159602066Y-57387524D01*
X159602066Y-57387524D02*
X159697304Y-57435144D01*
X159697304Y-57435144D02*
X159744923Y-57530382D01*
X159744923Y-57530382D02*
X159744923Y-57625620D01*
X159744923Y-57625620D02*
X159697304Y-57720858D01*
X159697304Y-57720858D02*
X159602066Y-57768477D01*
X159602066Y-57768477D02*
X159363971Y-57768477D01*
X159363971Y-57768477D02*
X159268733Y-57816096D01*
X158363971Y-58054191D02*
X158363971Y-57244667D01*
X158363971Y-57244667D02*
X158411590Y-57149429D01*
X158411590Y-57149429D02*
X158459209Y-57101810D01*
X158459209Y-57101810D02*
X158554447Y-57054191D01*
X158554447Y-57054191D02*
X158697304Y-57054191D01*
X158697304Y-57054191D02*
X158792542Y-57101810D01*
X158363971Y-57435144D02*
X158459209Y-57387524D01*
X158459209Y-57387524D02*
X158649685Y-57387524D01*
X158649685Y-57387524D02*
X158744923Y-57435144D01*
X158744923Y-57435144D02*
X158792542Y-57482763D01*
X158792542Y-57482763D02*
X158840161Y-57578001D01*
X158840161Y-57578001D02*
X158840161Y-57863715D01*
X158840161Y-57863715D02*
X158792542Y-57958953D01*
X158792542Y-57958953D02*
X158744923Y-58006572D01*
X158744923Y-58006572D02*
X158649685Y-58054191D01*
X158649685Y-58054191D02*
X158459209Y-58054191D01*
X158459209Y-58054191D02*
X158363971Y-58006572D01*
X157887780Y-58054191D02*
X157887780Y-57387524D01*
X157887780Y-57958953D02*
X157840161Y-58006572D01*
X157840161Y-58006572D02*
X157744923Y-58054191D01*
X157744923Y-58054191D02*
X157602066Y-58054191D01*
X157602066Y-58054191D02*
X157506828Y-58006572D01*
X157506828Y-58006572D02*
X157459209Y-57911334D01*
X157459209Y-57911334D02*
X157459209Y-57387524D01*
X156602066Y-57435144D02*
X156697304Y-57387524D01*
X156697304Y-57387524D02*
X156887780Y-57387524D01*
X156887780Y-57387524D02*
X156983018Y-57435144D01*
X156983018Y-57435144D02*
X157030637Y-57530382D01*
X157030637Y-57530382D02*
X157030637Y-57911334D01*
X157030637Y-57911334D02*
X156983018Y-58006572D01*
X156983018Y-58006572D02*
X156887780Y-58054191D01*
X156887780Y-58054191D02*
X156697304Y-58054191D01*
X156697304Y-58054191D02*
X156602066Y-58006572D01*
X156602066Y-58006572D02*
X156554447Y-57911334D01*
X156554447Y-57911334D02*
X156554447Y-57816096D01*
X156554447Y-57816096D02*
X157030637Y-57720858D01*
X156268732Y-58054191D02*
X155887780Y-58054191D01*
X156125875Y-58387524D02*
X156125875Y-57530382D01*
X156125875Y-57530382D02*
X156078256Y-57435144D01*
X156078256Y-57435144D02*
X155983018Y-57387524D01*
X155983018Y-57387524D02*
X155887780Y-57387524D01*
X155554446Y-57387524D02*
X155554446Y-58054191D01*
X155554446Y-58387524D02*
X155602065Y-58339905D01*
X155602065Y-58339905D02*
X155554446Y-58292286D01*
X155554446Y-58292286D02*
X155506827Y-58339905D01*
X155506827Y-58339905D02*
X155554446Y-58387524D01*
X155554446Y-58387524D02*
X155554446Y-58292286D01*
X154649685Y-57435144D02*
X154744923Y-57387524D01*
X154744923Y-57387524D02*
X154935399Y-57387524D01*
X154935399Y-57387524D02*
X155030637Y-57435144D01*
X155030637Y-57435144D02*
X155078256Y-57482763D01*
X155078256Y-57482763D02*
X155125875Y-57578001D01*
X155125875Y-57578001D02*
X155125875Y-57863715D01*
X155125875Y-57863715D02*
X155078256Y-57958953D01*
X155078256Y-57958953D02*
X155030637Y-58006572D01*
X155030637Y-58006572D02*
X154935399Y-58054191D01*
X154935399Y-58054191D02*
X154744923Y-58054191D01*
X154744923Y-58054191D02*
X154649685Y-58006572D01*
X166363972Y-56444247D02*
X165983020Y-56444247D01*
X166221115Y-55777580D02*
X166221115Y-56634723D01*
X166221115Y-56634723D02*
X166173496Y-56729961D01*
X166173496Y-56729961D02*
X166078258Y-56777580D01*
X166078258Y-56777580D02*
X165983020Y-56777580D01*
X165649686Y-55777580D02*
X165649686Y-56444247D01*
X165649686Y-56777580D02*
X165697305Y-56729961D01*
X165697305Y-56729961D02*
X165649686Y-56682342D01*
X165649686Y-56682342D02*
X165602067Y-56729961D01*
X165602067Y-56729961D02*
X165649686Y-56777580D01*
X165649686Y-56777580D02*
X165649686Y-56682342D01*
X164792544Y-55825200D02*
X164887782Y-55777580D01*
X164887782Y-55777580D02*
X165078258Y-55777580D01*
X165078258Y-55777580D02*
X165173496Y-55825200D01*
X165173496Y-55825200D02*
X165221115Y-55920438D01*
X165221115Y-55920438D02*
X165221115Y-56301390D01*
X165221115Y-56301390D02*
X165173496Y-56396628D01*
X165173496Y-56396628D02*
X165078258Y-56444247D01*
X165078258Y-56444247D02*
X164887782Y-56444247D01*
X164887782Y-56444247D02*
X164792544Y-56396628D01*
X164792544Y-56396628D02*
X164744925Y-56301390D01*
X164744925Y-56301390D02*
X164744925Y-56206152D01*
X164744925Y-56206152D02*
X165221115Y-56110914D01*
X164173496Y-55777580D02*
X164268734Y-55825200D01*
X164268734Y-55825200D02*
X164316353Y-55920438D01*
X164316353Y-55920438D02*
X164316353Y-56777580D01*
X163363972Y-55777580D02*
X163363972Y-56777580D01*
X163363972Y-55825200D02*
X163459210Y-55777580D01*
X163459210Y-55777580D02*
X163649686Y-55777580D01*
X163649686Y-55777580D02*
X163744924Y-55825200D01*
X163744924Y-55825200D02*
X163792543Y-55872819D01*
X163792543Y-55872819D02*
X163840162Y-55968057D01*
X163840162Y-55968057D02*
X163840162Y-56253771D01*
X163840162Y-56253771D02*
X163792543Y-56349009D01*
X163792543Y-56349009D02*
X163744924Y-56396628D01*
X163744924Y-56396628D02*
X163649686Y-56444247D01*
X163649686Y-56444247D02*
X163459210Y-56444247D01*
X163459210Y-56444247D02*
X163363972Y-56396628D01*
X162935400Y-55825200D02*
X162840162Y-55777580D01*
X162840162Y-55777580D02*
X162649686Y-55777580D01*
X162649686Y-55777580D02*
X162554448Y-55825200D01*
X162554448Y-55825200D02*
X162506829Y-55920438D01*
X162506829Y-55920438D02*
X162506829Y-55968057D01*
X162506829Y-55968057D02*
X162554448Y-56063295D01*
X162554448Y-56063295D02*
X162649686Y-56110914D01*
X162649686Y-56110914D02*
X162792543Y-56110914D01*
X162792543Y-56110914D02*
X162887781Y-56158533D01*
X162887781Y-56158533D02*
X162935400Y-56253771D01*
X162935400Y-56253771D02*
X162935400Y-56301390D01*
X162935400Y-56301390D02*
X162887781Y-56396628D01*
X162887781Y-56396628D02*
X162792543Y-56444247D01*
X162792543Y-56444247D02*
X162649686Y-56444247D01*
X162649686Y-56444247D02*
X162554448Y-56396628D01*
X160887781Y-55777580D02*
X160887781Y-56301390D01*
X160887781Y-56301390D02*
X160935400Y-56396628D01*
X160935400Y-56396628D02*
X161030638Y-56444247D01*
X161030638Y-56444247D02*
X161221114Y-56444247D01*
X161221114Y-56444247D02*
X161316352Y-56396628D01*
X160887781Y-55825200D02*
X160983019Y-55777580D01*
X160983019Y-55777580D02*
X161221114Y-55777580D01*
X161221114Y-55777580D02*
X161316352Y-55825200D01*
X161316352Y-55825200D02*
X161363971Y-55920438D01*
X161363971Y-55920438D02*
X161363971Y-56015676D01*
X161363971Y-56015676D02*
X161316352Y-56110914D01*
X161316352Y-56110914D02*
X161221114Y-56158533D01*
X161221114Y-56158533D02*
X160983019Y-56158533D01*
X160983019Y-56158533D02*
X160887781Y-56206152D01*
X160411590Y-55777580D02*
X160411590Y-56444247D01*
X160411590Y-56253771D02*
X160363971Y-56349009D01*
X160363971Y-56349009D02*
X160316352Y-56396628D01*
X160316352Y-56396628D02*
X160221114Y-56444247D01*
X160221114Y-56444247D02*
X160125876Y-56444247D01*
X159649685Y-55777580D02*
X159744923Y-55825200D01*
X159744923Y-55825200D02*
X159792542Y-55872819D01*
X159792542Y-55872819D02*
X159840161Y-55968057D01*
X159840161Y-55968057D02*
X159840161Y-56253771D01*
X159840161Y-56253771D02*
X159792542Y-56349009D01*
X159792542Y-56349009D02*
X159744923Y-56396628D01*
X159744923Y-56396628D02*
X159649685Y-56444247D01*
X159649685Y-56444247D02*
X159506828Y-56444247D01*
X159506828Y-56444247D02*
X159411590Y-56396628D01*
X159411590Y-56396628D02*
X159363971Y-56349009D01*
X159363971Y-56349009D02*
X159316352Y-56253771D01*
X159316352Y-56253771D02*
X159316352Y-55968057D01*
X159316352Y-55968057D02*
X159363971Y-55872819D01*
X159363971Y-55872819D02*
X159411590Y-55825200D01*
X159411590Y-55825200D02*
X159506828Y-55777580D01*
X159506828Y-55777580D02*
X159649685Y-55777580D01*
X158459209Y-56444247D02*
X158459209Y-55777580D01*
X158887780Y-56444247D02*
X158887780Y-55920438D01*
X158887780Y-55920438D02*
X158840161Y-55825200D01*
X158840161Y-55825200D02*
X158744923Y-55777580D01*
X158744923Y-55777580D02*
X158602066Y-55777580D01*
X158602066Y-55777580D02*
X158506828Y-55825200D01*
X158506828Y-55825200D02*
X158459209Y-55872819D01*
X157983018Y-56444247D02*
X157983018Y-55777580D01*
X157983018Y-56349009D02*
X157935399Y-56396628D01*
X157935399Y-56396628D02*
X157840161Y-56444247D01*
X157840161Y-56444247D02*
X157697304Y-56444247D01*
X157697304Y-56444247D02*
X157602066Y-56396628D01*
X157602066Y-56396628D02*
X157554447Y-56301390D01*
X157554447Y-56301390D02*
X157554447Y-55777580D01*
X156649685Y-55777580D02*
X156649685Y-56777580D01*
X156649685Y-55825200D02*
X156744923Y-55777580D01*
X156744923Y-55777580D02*
X156935399Y-55777580D01*
X156935399Y-55777580D02*
X157030637Y-55825200D01*
X157030637Y-55825200D02*
X157078256Y-55872819D01*
X157078256Y-55872819D02*
X157125875Y-55968057D01*
X157125875Y-55968057D02*
X157125875Y-56253771D01*
X157125875Y-56253771D02*
X157078256Y-56349009D01*
X157078256Y-56349009D02*
X157030637Y-56396628D01*
X157030637Y-56396628D02*
X156935399Y-56444247D01*
X156935399Y-56444247D02*
X156744923Y-56444247D01*
X156744923Y-56444247D02*
X156649685Y-56396628D01*
X155506827Y-56444247D02*
X155268732Y-55777580D01*
X155030637Y-56444247D02*
X155268732Y-55777580D01*
X155268732Y-55777580D02*
X155363970Y-55539485D01*
X155363970Y-55539485D02*
X155411589Y-55491866D01*
X155411589Y-55491866D02*
X155506827Y-55444247D01*
X154506827Y-55777580D02*
X154602065Y-55825200D01*
X154602065Y-55825200D02*
X154649684Y-55872819D01*
X154649684Y-55872819D02*
X154697303Y-55968057D01*
X154697303Y-55968057D02*
X154697303Y-56253771D01*
X154697303Y-56253771D02*
X154649684Y-56349009D01*
X154649684Y-56349009D02*
X154602065Y-56396628D01*
X154602065Y-56396628D02*
X154506827Y-56444247D01*
X154506827Y-56444247D02*
X154363970Y-56444247D01*
X154363970Y-56444247D02*
X154268732Y-56396628D01*
X154268732Y-56396628D02*
X154221113Y-56349009D01*
X154221113Y-56349009D02*
X154173494Y-56253771D01*
X154173494Y-56253771D02*
X154173494Y-55968057D01*
X154173494Y-55968057D02*
X154221113Y-55872819D01*
X154221113Y-55872819D02*
X154268732Y-55825200D01*
X154268732Y-55825200D02*
X154363970Y-55777580D01*
X154363970Y-55777580D02*
X154506827Y-55777580D01*
X153316351Y-56444247D02*
X153316351Y-55777580D01*
X153744922Y-56444247D02*
X153744922Y-55920438D01*
X153744922Y-55920438D02*
X153697303Y-55825200D01*
X153697303Y-55825200D02*
X153602065Y-55777580D01*
X153602065Y-55777580D02*
X153459208Y-55777580D01*
X153459208Y-55777580D02*
X153363970Y-55825200D01*
X153363970Y-55825200D02*
X153316351Y-55872819D01*
X148978884Y-90072419D02*
X148978884Y-89072419D01*
X148978884Y-89072419D02*
X149216979Y-89072419D01*
X149216979Y-89072419D02*
X149359836Y-89120038D01*
X149359836Y-89120038D02*
X149455074Y-89215276D01*
X149455074Y-89215276D02*
X149502693Y-89310514D01*
X149502693Y-89310514D02*
X149550312Y-89500990D01*
X149550312Y-89500990D02*
X149550312Y-89643847D01*
X149550312Y-89643847D02*
X149502693Y-89834323D01*
X149502693Y-89834323D02*
X149455074Y-89929561D01*
X149455074Y-89929561D02*
X149359836Y-90024800D01*
X149359836Y-90024800D02*
X149216979Y-90072419D01*
X149216979Y-90072419D02*
X148978884Y-90072419D01*
X150407455Y-90072419D02*
X150407455Y-89548609D01*
X150407455Y-89548609D02*
X150359836Y-89453371D01*
X150359836Y-89453371D02*
X150264598Y-89405752D01*
X150264598Y-89405752D02*
X150074122Y-89405752D01*
X150074122Y-89405752D02*
X149978884Y-89453371D01*
X150407455Y-90024800D02*
X150312217Y-90072419D01*
X150312217Y-90072419D02*
X150074122Y-90072419D01*
X150074122Y-90072419D02*
X149978884Y-90024800D01*
X149978884Y-90024800D02*
X149931265Y-89929561D01*
X149931265Y-89929561D02*
X149931265Y-89834323D01*
X149931265Y-89834323D02*
X149978884Y-89739085D01*
X149978884Y-89739085D02*
X150074122Y-89691466D01*
X150074122Y-89691466D02*
X150312217Y-89691466D01*
X150312217Y-89691466D02*
X150407455Y-89643847D01*
X150883646Y-90072419D02*
X150883646Y-89405752D01*
X150883646Y-89596228D02*
X150931265Y-89500990D01*
X150931265Y-89500990D02*
X150978884Y-89453371D01*
X150978884Y-89453371D02*
X151074122Y-89405752D01*
X151074122Y-89405752D02*
X151169360Y-89405752D01*
X151931265Y-90024800D02*
X151836027Y-90072419D01*
X151836027Y-90072419D02*
X151645551Y-90072419D01*
X151645551Y-90072419D02*
X151550313Y-90024800D01*
X151550313Y-90024800D02*
X151502694Y-89977180D01*
X151502694Y-89977180D02*
X151455075Y-89881942D01*
X151455075Y-89881942D02*
X151455075Y-89596228D01*
X151455075Y-89596228D02*
X151502694Y-89500990D01*
X151502694Y-89500990D02*
X151550313Y-89453371D01*
X151550313Y-89453371D02*
X151645551Y-89405752D01*
X151645551Y-89405752D02*
X151836027Y-89405752D01*
X151836027Y-89405752D02*
X151931265Y-89453371D01*
X152264599Y-89405752D02*
X152502694Y-90072419D01*
X152740789Y-89405752D02*
X152502694Y-90072419D01*
X152502694Y-90072419D02*
X152407456Y-90310514D01*
X152407456Y-90310514D02*
X152359837Y-90358133D01*
X152359837Y-90358133D02*
X152264599Y-90405752D01*
X153883647Y-90072419D02*
X153883647Y-89072419D01*
X153883647Y-89072419D02*
X154455075Y-90072419D01*
X154455075Y-90072419D02*
X154455075Y-89072419D01*
X155312218Y-90024800D02*
X155216980Y-90072419D01*
X155216980Y-90072419D02*
X155026504Y-90072419D01*
X155026504Y-90072419D02*
X154931266Y-90024800D01*
X154931266Y-90024800D02*
X154883647Y-89929561D01*
X154883647Y-89929561D02*
X154883647Y-89548609D01*
X154883647Y-89548609D02*
X154931266Y-89453371D01*
X154931266Y-89453371D02*
X155026504Y-89405752D01*
X155026504Y-89405752D02*
X155216980Y-89405752D01*
X155216980Y-89405752D02*
X155312218Y-89453371D01*
X155312218Y-89453371D02*
X155359837Y-89548609D01*
X155359837Y-89548609D02*
X155359837Y-89643847D01*
X155359837Y-89643847D02*
X154883647Y-89739085D01*
X156216980Y-90072419D02*
X156216980Y-89548609D01*
X156216980Y-89548609D02*
X156169361Y-89453371D01*
X156169361Y-89453371D02*
X156074123Y-89405752D01*
X156074123Y-89405752D02*
X155883647Y-89405752D01*
X155883647Y-89405752D02*
X155788409Y-89453371D01*
X156216980Y-90024800D02*
X156121742Y-90072419D01*
X156121742Y-90072419D02*
X155883647Y-90072419D01*
X155883647Y-90072419D02*
X155788409Y-90024800D01*
X155788409Y-90024800D02*
X155740790Y-89929561D01*
X155740790Y-89929561D02*
X155740790Y-89834323D01*
X155740790Y-89834323D02*
X155788409Y-89739085D01*
X155788409Y-89739085D02*
X155883647Y-89691466D01*
X155883647Y-89691466D02*
X156121742Y-89691466D01*
X156121742Y-89691466D02*
X156216980Y-89643847D01*
X156836028Y-90072419D02*
X156740790Y-90024800D01*
X156740790Y-90024800D02*
X156693171Y-89929561D01*
X156693171Y-89929561D02*
X156693171Y-89072419D01*
X158693171Y-89024800D02*
X157836029Y-90310514D01*
X159740790Y-89024800D02*
X158883648Y-90310514D01*
X160788409Y-89024800D02*
X159931267Y-90310514D01*
X161836029Y-90024800D02*
X161978886Y-90072419D01*
X161978886Y-90072419D02*
X162216981Y-90072419D01*
X162216981Y-90072419D02*
X162312219Y-90024800D01*
X162312219Y-90024800D02*
X162359838Y-89977180D01*
X162359838Y-89977180D02*
X162407457Y-89881942D01*
X162407457Y-89881942D02*
X162407457Y-89786704D01*
X162407457Y-89786704D02*
X162359838Y-89691466D01*
X162359838Y-89691466D02*
X162312219Y-89643847D01*
X162312219Y-89643847D02*
X162216981Y-89596228D01*
X162216981Y-89596228D02*
X162026505Y-89548609D01*
X162026505Y-89548609D02*
X161931267Y-89500990D01*
X161931267Y-89500990D02*
X161883648Y-89453371D01*
X161883648Y-89453371D02*
X161836029Y-89358133D01*
X161836029Y-89358133D02*
X161836029Y-89262895D01*
X161836029Y-89262895D02*
X161883648Y-89167657D01*
X161883648Y-89167657D02*
X161931267Y-89120038D01*
X161931267Y-89120038D02*
X162026505Y-89072419D01*
X162026505Y-89072419D02*
X162264600Y-89072419D01*
X162264600Y-89072419D02*
X162407457Y-89120038D01*
X162836029Y-89405752D02*
X162836029Y-90405752D01*
X162836029Y-89453371D02*
X162931267Y-89405752D01*
X162931267Y-89405752D02*
X163121743Y-89405752D01*
X163121743Y-89405752D02*
X163216981Y-89453371D01*
X163216981Y-89453371D02*
X163264600Y-89500990D01*
X163264600Y-89500990D02*
X163312219Y-89596228D01*
X163312219Y-89596228D02*
X163312219Y-89881942D01*
X163312219Y-89881942D02*
X163264600Y-89977180D01*
X163264600Y-89977180D02*
X163216981Y-90024800D01*
X163216981Y-90024800D02*
X163121743Y-90072419D01*
X163121743Y-90072419D02*
X162931267Y-90072419D01*
X162931267Y-90072419D02*
X162836029Y-90024800D01*
X163883648Y-90072419D02*
X163788410Y-90024800D01*
X163788410Y-90024800D02*
X163740791Y-89977180D01*
X163740791Y-89977180D02*
X163693172Y-89881942D01*
X163693172Y-89881942D02*
X163693172Y-89596228D01*
X163693172Y-89596228D02*
X163740791Y-89500990D01*
X163740791Y-89500990D02*
X163788410Y-89453371D01*
X163788410Y-89453371D02*
X163883648Y-89405752D01*
X163883648Y-89405752D02*
X164026505Y-89405752D01*
X164026505Y-89405752D02*
X164121743Y-89453371D01*
X164121743Y-89453371D02*
X164169362Y-89500990D01*
X164169362Y-89500990D02*
X164216981Y-89596228D01*
X164216981Y-89596228D02*
X164216981Y-89881942D01*
X164216981Y-89881942D02*
X164169362Y-89977180D01*
X164169362Y-89977180D02*
X164121743Y-90024800D01*
X164121743Y-90024800D02*
X164026505Y-90072419D01*
X164026505Y-90072419D02*
X163883648Y-90072419D01*
X164645553Y-90072419D02*
X164645553Y-89405752D01*
X164645553Y-89596228D02*
X164693172Y-89500990D01*
X164693172Y-89500990D02*
X164740791Y-89453371D01*
X164740791Y-89453371D02*
X164836029Y-89405752D01*
X164836029Y-89405752D02*
X164931267Y-89405752D01*
X165264601Y-90072419D02*
X165264601Y-89072419D01*
X165359839Y-89691466D02*
X165645553Y-90072419D01*
X165645553Y-89405752D02*
X165264601Y-89786704D01*
X166550315Y-90072419D02*
X166074125Y-90072419D01*
X166074125Y-90072419D02*
X166074125Y-89072419D01*
X167026506Y-90072419D02*
X166931268Y-90024800D01*
X166931268Y-90024800D02*
X166883649Y-89977180D01*
X166883649Y-89977180D02*
X166836030Y-89881942D01*
X166836030Y-89881942D02*
X166836030Y-89596228D01*
X166836030Y-89596228D02*
X166883649Y-89500990D01*
X166883649Y-89500990D02*
X166931268Y-89453371D01*
X166931268Y-89453371D02*
X167026506Y-89405752D01*
X167026506Y-89405752D02*
X167169363Y-89405752D01*
X167169363Y-89405752D02*
X167264601Y-89453371D01*
X167264601Y-89453371D02*
X167312220Y-89500990D01*
X167312220Y-89500990D02*
X167359839Y-89596228D01*
X167359839Y-89596228D02*
X167359839Y-89881942D01*
X167359839Y-89881942D02*
X167312220Y-89977180D01*
X167312220Y-89977180D02*
X167264601Y-90024800D01*
X167264601Y-90024800D02*
X167169363Y-90072419D01*
X167169363Y-90072419D02*
X167026506Y-90072419D01*
X168216982Y-89405752D02*
X168216982Y-90215276D01*
X168216982Y-90215276D02*
X168169363Y-90310514D01*
X168169363Y-90310514D02*
X168121744Y-90358133D01*
X168121744Y-90358133D02*
X168026506Y-90405752D01*
X168026506Y-90405752D02*
X167883649Y-90405752D01*
X167883649Y-90405752D02*
X167788411Y-90358133D01*
X168216982Y-90024800D02*
X168121744Y-90072419D01*
X168121744Y-90072419D02*
X167931268Y-90072419D01*
X167931268Y-90072419D02*
X167836030Y-90024800D01*
X167836030Y-90024800D02*
X167788411Y-89977180D01*
X167788411Y-89977180D02*
X167740792Y-89881942D01*
X167740792Y-89881942D02*
X167740792Y-89596228D01*
X167740792Y-89596228D02*
X167788411Y-89500990D01*
X167788411Y-89500990D02*
X167836030Y-89453371D01*
X167836030Y-89453371D02*
X167931268Y-89405752D01*
X167931268Y-89405752D02*
X168121744Y-89405752D01*
X168121744Y-89405752D02*
X168216982Y-89453371D01*
X168693173Y-90072419D02*
X168693173Y-89405752D01*
X168693173Y-89072419D02*
X168645554Y-89120038D01*
X168645554Y-89120038D02*
X168693173Y-89167657D01*
X168693173Y-89167657D02*
X168740792Y-89120038D01*
X168740792Y-89120038D02*
X168693173Y-89072419D01*
X168693173Y-89072419D02*
X168693173Y-89167657D01*
X169597934Y-90024800D02*
X169502696Y-90072419D01*
X169502696Y-90072419D02*
X169312220Y-90072419D01*
X169312220Y-90072419D02*
X169216982Y-90024800D01*
X169216982Y-90024800D02*
X169169363Y-89977180D01*
X169169363Y-89977180D02*
X169121744Y-89881942D01*
X169121744Y-89881942D02*
X169121744Y-89596228D01*
X169121744Y-89596228D02*
X169169363Y-89500990D01*
X169169363Y-89500990D02*
X169216982Y-89453371D01*
X169216982Y-89453371D02*
X169312220Y-89405752D01*
X169312220Y-89405752D02*
X169502696Y-89405752D01*
X169502696Y-89405752D02*
X169597934Y-89453371D01*
X149028884Y-87823609D02*
X149362217Y-87823609D01*
X149505074Y-88347419D02*
X149028884Y-88347419D01*
X149028884Y-88347419D02*
X149028884Y-87347419D01*
X149028884Y-87347419D02*
X149505074Y-87347419D01*
X149933646Y-88347419D02*
X149933646Y-87347419D01*
X149933646Y-87347419D02*
X150266979Y-88061704D01*
X150266979Y-88061704D02*
X150600312Y-87347419D01*
X150600312Y-87347419D02*
X150600312Y-88347419D01*
X151409836Y-87823609D02*
X151076503Y-87823609D01*
X151076503Y-88347419D02*
X151076503Y-87347419D01*
X151076503Y-87347419D02*
X151552693Y-87347419D01*
X152695551Y-87823609D02*
X153028884Y-87823609D01*
X153171741Y-88347419D02*
X152695551Y-88347419D01*
X152695551Y-88347419D02*
X152695551Y-87347419D01*
X152695551Y-87347419D02*
X153171741Y-87347419D01*
X153505075Y-88347419D02*
X154028884Y-87680752D01*
X153505075Y-87680752D02*
X154028884Y-88347419D01*
X154409837Y-87680752D02*
X154409837Y-88680752D01*
X154409837Y-87728371D02*
X154505075Y-87680752D01*
X154505075Y-87680752D02*
X154695551Y-87680752D01*
X154695551Y-87680752D02*
X154790789Y-87728371D01*
X154790789Y-87728371D02*
X154838408Y-87775990D01*
X154838408Y-87775990D02*
X154886027Y-87871228D01*
X154886027Y-87871228D02*
X154886027Y-88156942D01*
X154886027Y-88156942D02*
X154838408Y-88252180D01*
X154838408Y-88252180D02*
X154790789Y-88299800D01*
X154790789Y-88299800D02*
X154695551Y-88347419D01*
X154695551Y-88347419D02*
X154505075Y-88347419D01*
X154505075Y-88347419D02*
X154409837Y-88299800D01*
X155457456Y-88347419D02*
X155362218Y-88299800D01*
X155362218Y-88299800D02*
X155314599Y-88204561D01*
X155314599Y-88204561D02*
X155314599Y-87347419D01*
X155981266Y-88347419D02*
X155886028Y-88299800D01*
X155886028Y-88299800D02*
X155838409Y-88252180D01*
X155838409Y-88252180D02*
X155790790Y-88156942D01*
X155790790Y-88156942D02*
X155790790Y-87871228D01*
X155790790Y-87871228D02*
X155838409Y-87775990D01*
X155838409Y-87775990D02*
X155886028Y-87728371D01*
X155886028Y-87728371D02*
X155981266Y-87680752D01*
X155981266Y-87680752D02*
X156124123Y-87680752D01*
X156124123Y-87680752D02*
X156219361Y-87728371D01*
X156219361Y-87728371D02*
X156266980Y-87775990D01*
X156266980Y-87775990D02*
X156314599Y-87871228D01*
X156314599Y-87871228D02*
X156314599Y-88156942D01*
X156314599Y-88156942D02*
X156266980Y-88252180D01*
X156266980Y-88252180D02*
X156219361Y-88299800D01*
X156219361Y-88299800D02*
X156124123Y-88347419D01*
X156124123Y-88347419D02*
X155981266Y-88347419D01*
X156743171Y-88347419D02*
X156743171Y-87680752D01*
X156743171Y-87871228D02*
X156790790Y-87775990D01*
X156790790Y-87775990D02*
X156838409Y-87728371D01*
X156838409Y-87728371D02*
X156933647Y-87680752D01*
X156933647Y-87680752D02*
X157028885Y-87680752D01*
X157743171Y-88299800D02*
X157647933Y-88347419D01*
X157647933Y-88347419D02*
X157457457Y-88347419D01*
X157457457Y-88347419D02*
X157362219Y-88299800D01*
X157362219Y-88299800D02*
X157314600Y-88204561D01*
X157314600Y-88204561D02*
X157314600Y-87823609D01*
X157314600Y-87823609D02*
X157362219Y-87728371D01*
X157362219Y-87728371D02*
X157457457Y-87680752D01*
X157457457Y-87680752D02*
X157647933Y-87680752D01*
X157647933Y-87680752D02*
X157743171Y-87728371D01*
X157743171Y-87728371D02*
X157790790Y-87823609D01*
X157790790Y-87823609D02*
X157790790Y-87918847D01*
X157790790Y-87918847D02*
X157314600Y-88014085D01*
X158219362Y-88347419D02*
X158219362Y-87680752D01*
X158219362Y-87871228D02*
X158266981Y-87775990D01*
X158266981Y-87775990D02*
X158314600Y-87728371D01*
X158314600Y-87728371D02*
X158409838Y-87680752D01*
X158409838Y-87680752D02*
X158505076Y-87680752D01*
X159600315Y-87680752D02*
X159600315Y-88680752D01*
X159600315Y-87728371D02*
X159695553Y-87680752D01*
X159695553Y-87680752D02*
X159886029Y-87680752D01*
X159886029Y-87680752D02*
X159981267Y-87728371D01*
X159981267Y-87728371D02*
X160028886Y-87775990D01*
X160028886Y-87775990D02*
X160076505Y-87871228D01*
X160076505Y-87871228D02*
X160076505Y-88156942D01*
X160076505Y-88156942D02*
X160028886Y-88252180D01*
X160028886Y-88252180D02*
X159981267Y-88299800D01*
X159981267Y-88299800D02*
X159886029Y-88347419D01*
X159886029Y-88347419D02*
X159695553Y-88347419D01*
X159695553Y-88347419D02*
X159600315Y-88299800D01*
X161028886Y-88347419D02*
X160457458Y-88347419D01*
X160743172Y-88347419D02*
X160743172Y-87347419D01*
X160743172Y-87347419D02*
X160647934Y-87490276D01*
X160647934Y-87490276D02*
X160552696Y-87585514D01*
X160552696Y-87585514D02*
X160457458Y-87633133D01*
X162171744Y-88061704D02*
X162647934Y-88061704D01*
X162076506Y-88347419D02*
X162409839Y-87347419D01*
X162409839Y-87347419D02*
X162743172Y-88347419D01*
X163505077Y-87680752D02*
X163505077Y-88347419D01*
X163076506Y-87680752D02*
X163076506Y-88204561D01*
X163076506Y-88204561D02*
X163124125Y-88299800D01*
X163124125Y-88299800D02*
X163219363Y-88347419D01*
X163219363Y-88347419D02*
X163362220Y-88347419D01*
X163362220Y-88347419D02*
X163457458Y-88299800D01*
X163457458Y-88299800D02*
X163505077Y-88252180D01*
X164409839Y-87680752D02*
X164409839Y-88490276D01*
X164409839Y-88490276D02*
X164362220Y-88585514D01*
X164362220Y-88585514D02*
X164314601Y-88633133D01*
X164314601Y-88633133D02*
X164219363Y-88680752D01*
X164219363Y-88680752D02*
X164076506Y-88680752D01*
X164076506Y-88680752D02*
X163981268Y-88633133D01*
X164409839Y-88299800D02*
X164314601Y-88347419D01*
X164314601Y-88347419D02*
X164124125Y-88347419D01*
X164124125Y-88347419D02*
X164028887Y-88299800D01*
X164028887Y-88299800D02*
X163981268Y-88252180D01*
X163981268Y-88252180D02*
X163933649Y-88156942D01*
X163933649Y-88156942D02*
X163933649Y-87871228D01*
X163933649Y-87871228D02*
X163981268Y-87775990D01*
X163981268Y-87775990D02*
X164028887Y-87728371D01*
X164028887Y-87728371D02*
X164124125Y-87680752D01*
X164124125Y-87680752D02*
X164314601Y-87680752D01*
X164314601Y-87680752D02*
X164409839Y-87728371D01*
X165695554Y-87347419D02*
X165600316Y-87537895D01*
X166076506Y-87442657D02*
X166124125Y-87395038D01*
X166124125Y-87395038D02*
X166219363Y-87347419D01*
X166219363Y-87347419D02*
X166457458Y-87347419D01*
X166457458Y-87347419D02*
X166552696Y-87395038D01*
X166552696Y-87395038D02*
X166600315Y-87442657D01*
X166600315Y-87442657D02*
X166647934Y-87537895D01*
X166647934Y-87537895D02*
X166647934Y-87633133D01*
X166647934Y-87633133D02*
X166600315Y-87775990D01*
X166600315Y-87775990D02*
X166028887Y-88347419D01*
X166028887Y-88347419D02*
X166647934Y-88347419D01*
X167505077Y-87680752D02*
X167505077Y-88347419D01*
X167266982Y-87299800D02*
X167028887Y-88014085D01*
X167028887Y-88014085D02*
X167647934Y-88014085D01*
D11*
X206474852Y-63133475D02*
X206617709Y-63181094D01*
X206617709Y-63181094D02*
X206855804Y-63181094D01*
X206855804Y-63181094D02*
X206951042Y-63133475D01*
X206951042Y-63133475D02*
X206998661Y-63085855D01*
X206998661Y-63085855D02*
X207046280Y-62990617D01*
X207046280Y-62990617D02*
X207046280Y-62895379D01*
X207046280Y-62895379D02*
X206998661Y-62800141D01*
X206998661Y-62800141D02*
X206951042Y-62752522D01*
X206951042Y-62752522D02*
X206855804Y-62704903D01*
X206855804Y-62704903D02*
X206665328Y-62657284D01*
X206665328Y-62657284D02*
X206570090Y-62609665D01*
X206570090Y-62609665D02*
X206522471Y-62562046D01*
X206522471Y-62562046D02*
X206474852Y-62466808D01*
X206474852Y-62466808D02*
X206474852Y-62371570D01*
X206474852Y-62371570D02*
X206522471Y-62276332D01*
X206522471Y-62276332D02*
X206570090Y-62228713D01*
X206570090Y-62228713D02*
X206665328Y-62181094D01*
X206665328Y-62181094D02*
X206903423Y-62181094D01*
X206903423Y-62181094D02*
X207046280Y-62228713D01*
X207379614Y-62181094D02*
X207617709Y-63181094D01*
X207617709Y-63181094D02*
X207808185Y-62466808D01*
X207808185Y-62466808D02*
X207998661Y-63181094D01*
X207998661Y-63181094D02*
X208236757Y-62181094D01*
X209141518Y-63181094D02*
X208570090Y-63181094D01*
X208855804Y-63181094D02*
X208855804Y-62181094D01*
X208855804Y-62181094D02*
X208760566Y-62323951D01*
X208760566Y-62323951D02*
X208665328Y-62419189D01*
X208665328Y-62419189D02*
X208570090Y-62466808D01*
X185812771Y-61954137D02*
X185860391Y-62001756D01*
X185860391Y-62001756D02*
X185908010Y-62144613D01*
X185908010Y-62144613D02*
X185908010Y-62239851D01*
X185908010Y-62239851D02*
X185860391Y-62382708D01*
X185860391Y-62382708D02*
X185765152Y-62477946D01*
X185765152Y-62477946D02*
X185669914Y-62525565D01*
X185669914Y-62525565D02*
X185479438Y-62573184D01*
X185479438Y-62573184D02*
X185336581Y-62573184D01*
X185336581Y-62573184D02*
X185146105Y-62525565D01*
X185146105Y-62525565D02*
X185050867Y-62477946D01*
X185050867Y-62477946D02*
X184955629Y-62382708D01*
X184955629Y-62382708D02*
X184908010Y-62239851D01*
X184908010Y-62239851D02*
X184908010Y-62144613D01*
X184908010Y-62144613D02*
X184955629Y-62001756D01*
X184955629Y-62001756D02*
X185003248Y-61954137D01*
X185908010Y-61001756D02*
X185908010Y-61573184D01*
X185908010Y-61287470D02*
X184908010Y-61287470D01*
X184908010Y-61287470D02*
X185050867Y-61382708D01*
X185050867Y-61382708D02*
X185146105Y-61477946D01*
X185146105Y-61477946D02*
X185193724Y-61573184D01*
X184908010Y-60382708D02*
X184908010Y-60287470D01*
X184908010Y-60287470D02*
X184955629Y-60192232D01*
X184955629Y-60192232D02*
X185003248Y-60144613D01*
X185003248Y-60144613D02*
X185098486Y-60096994D01*
X185098486Y-60096994D02*
X185288962Y-60049375D01*
X185288962Y-60049375D02*
X185527057Y-60049375D01*
X185527057Y-60049375D02*
X185717533Y-60096994D01*
X185717533Y-60096994D02*
X185812771Y-60144613D01*
X185812771Y-60144613D02*
X185860391Y-60192232D01*
X185860391Y-60192232D02*
X185908010Y-60287470D01*
X185908010Y-60287470D02*
X185908010Y-60382708D01*
X185908010Y-60382708D02*
X185860391Y-60477946D01*
X185860391Y-60477946D02*
X185812771Y-60525565D01*
X185812771Y-60525565D02*
X185717533Y-60573184D01*
X185717533Y-60573184D02*
X185527057Y-60620803D01*
X185527057Y-60620803D02*
X185288962Y-60620803D01*
X185288962Y-60620803D02*
X185098486Y-60573184D01*
X185098486Y-60573184D02*
X185003248Y-60525565D01*
X185003248Y-60525565D02*
X184955629Y-60477946D01*
X184955629Y-60477946D02*
X184908010Y-60382708D01*
X212483011Y-84669604D02*
X213197296Y-84669604D01*
X213197296Y-84669604D02*
X213340153Y-84717223D01*
X213340153Y-84717223D02*
X213435392Y-84812461D01*
X213435392Y-84812461D02*
X213483011Y-84955318D01*
X213483011Y-84955318D02*
X213483011Y-85050556D01*
X212578249Y-84241032D02*
X212530630Y-84193413D01*
X212530630Y-84193413D02*
X212483011Y-84098175D01*
X212483011Y-84098175D02*
X212483011Y-83860080D01*
X212483011Y-83860080D02*
X212530630Y-83764842D01*
X212530630Y-83764842D02*
X212578249Y-83717223D01*
X212578249Y-83717223D02*
X212673487Y-83669604D01*
X212673487Y-83669604D02*
X212768725Y-83669604D01*
X212768725Y-83669604D02*
X212911582Y-83717223D01*
X212911582Y-83717223D02*
X213483011Y-84288651D01*
X213483011Y-84288651D02*
X213483011Y-83669604D01*
X149758006Y-85227948D02*
X149758006Y-85704138D01*
X149758006Y-85704138D02*
X148758006Y-85704138D01*
X149758006Y-84370805D02*
X149758006Y-84942233D01*
X149758006Y-84656519D02*
X148758006Y-84656519D01*
X148758006Y-84656519D02*
X148900863Y-84751757D01*
X148900863Y-84751757D02*
X148996101Y-84846995D01*
X148996101Y-84846995D02*
X149043720Y-84942233D01*
X149908004Y-60602940D02*
X149908004Y-61079130D01*
X149908004Y-61079130D02*
X148908004Y-61079130D01*
X149003242Y-60317225D02*
X148955623Y-60269606D01*
X148955623Y-60269606D02*
X148908004Y-60174368D01*
X148908004Y-60174368D02*
X148908004Y-59936273D01*
X148908004Y-59936273D02*
X148955623Y-59841035D01*
X148955623Y-59841035D02*
X149003242Y-59793416D01*
X149003242Y-59793416D02*
X149098480Y-59745797D01*
X149098480Y-59745797D02*
X149193718Y-59745797D01*
X149193718Y-59745797D02*
X149336575Y-59793416D01*
X149336575Y-59793416D02*
X149908004Y-60364844D01*
X149908004Y-60364844D02*
X149908004Y-59745797D01*
X201588005Y-61715441D02*
X201588005Y-62191631D01*
X201588005Y-62191631D02*
X200588005Y-62191631D01*
X200921338Y-60953536D02*
X201588005Y-60953536D01*
X200540386Y-61191631D02*
X201254671Y-61429726D01*
X201254671Y-61429726D02*
X201254671Y-60810679D01*
X191097825Y-56765851D02*
X191050206Y-56813471D01*
X191050206Y-56813471D02*
X190907349Y-56861090D01*
X190907349Y-56861090D02*
X190812111Y-56861090D01*
X190812111Y-56861090D02*
X190669254Y-56813471D01*
X190669254Y-56813471D02*
X190574016Y-56718232D01*
X190574016Y-56718232D02*
X190526397Y-56622994D01*
X190526397Y-56622994D02*
X190478778Y-56432518D01*
X190478778Y-56432518D02*
X190478778Y-56289661D01*
X190478778Y-56289661D02*
X190526397Y-56099185D01*
X190526397Y-56099185D02*
X190574016Y-56003947D01*
X190574016Y-56003947D02*
X190669254Y-55908709D01*
X190669254Y-55908709D02*
X190812111Y-55861090D01*
X190812111Y-55861090D02*
X190907349Y-55861090D01*
X190907349Y-55861090D02*
X191050206Y-55908709D01*
X191050206Y-55908709D02*
X191097825Y-55956328D01*
X192050206Y-56861090D02*
X191478778Y-56861090D01*
X191764492Y-56861090D02*
X191764492Y-55861090D01*
X191764492Y-55861090D02*
X191669254Y-56003947D01*
X191669254Y-56003947D02*
X191574016Y-56099185D01*
X191574016Y-56099185D02*
X191478778Y-56146804D01*
X192907349Y-56194423D02*
X192907349Y-56861090D01*
X192669254Y-55813471D02*
X192431159Y-56527756D01*
X192431159Y-56527756D02*
X193050206Y-56527756D01*
X182513901Y-71505267D02*
X182371044Y-71457648D01*
X182371044Y-71457648D02*
X182323425Y-71410029D01*
X182323425Y-71410029D02*
X182275806Y-71314791D01*
X182275806Y-71314791D02*
X182275806Y-71171934D01*
X182275806Y-71171934D02*
X182323425Y-71076696D01*
X182323425Y-71076696D02*
X182371044Y-71029077D01*
X182371044Y-71029077D02*
X182466282Y-70981457D01*
X182466282Y-70981457D02*
X182847234Y-70981457D01*
X182847234Y-70981457D02*
X182847234Y-71981457D01*
X182847234Y-71981457D02*
X182513901Y-71981457D01*
X182513901Y-71981457D02*
X182418663Y-71933838D01*
X182418663Y-71933838D02*
X182371044Y-71886219D01*
X182371044Y-71886219D02*
X182323425Y-71790981D01*
X182323425Y-71790981D02*
X182323425Y-71695743D01*
X182323425Y-71695743D02*
X182371044Y-71600505D01*
X182371044Y-71600505D02*
X182418663Y-71552886D01*
X182418663Y-71552886D02*
X182513901Y-71505267D01*
X182513901Y-71505267D02*
X182847234Y-71505267D01*
X181990091Y-71981457D02*
X181418663Y-71981457D01*
X181704377Y-70981457D02*
X181704377Y-71981457D01*
X181132948Y-71886219D02*
X181085329Y-71933838D01*
X181085329Y-71933838D02*
X180990091Y-71981457D01*
X180990091Y-71981457D02*
X180751996Y-71981457D01*
X180751996Y-71981457D02*
X180656758Y-71933838D01*
X180656758Y-71933838D02*
X180609139Y-71886219D01*
X180609139Y-71886219D02*
X180561520Y-71790981D01*
X180561520Y-71790981D02*
X180561520Y-71695743D01*
X180561520Y-71695743D02*
X180609139Y-71552886D01*
X180609139Y-71552886D02*
X181180567Y-70981457D01*
X181180567Y-70981457D02*
X180561520Y-70981457D01*
X214766633Y-71420074D02*
X213242824Y-71420074D01*
X214004728Y-70658169D02*
X214004728Y-72181979D01*
X167860473Y-86295316D02*
X167860473Y-87104839D01*
X167860473Y-87104839D02*
X167908092Y-87200077D01*
X167908092Y-87200077D02*
X167955711Y-87247697D01*
X167955711Y-87247697D02*
X168050949Y-87295316D01*
X168050949Y-87295316D02*
X168241425Y-87295316D01*
X168241425Y-87295316D02*
X168336663Y-87247697D01*
X168336663Y-87247697D02*
X168384282Y-87200077D01*
X168384282Y-87200077D02*
X168431901Y-87104839D01*
X168431901Y-87104839D02*
X168431901Y-86295316D01*
X168860473Y-86390554D02*
X168908092Y-86342935D01*
X168908092Y-86342935D02*
X169003330Y-86295316D01*
X169003330Y-86295316D02*
X169241425Y-86295316D01*
X169241425Y-86295316D02*
X169336663Y-86342935D01*
X169336663Y-86342935D02*
X169384282Y-86390554D01*
X169384282Y-86390554D02*
X169431901Y-86485792D01*
X169431901Y-86485792D02*
X169431901Y-86581030D01*
X169431901Y-86581030D02*
X169384282Y-86723887D01*
X169384282Y-86723887D02*
X168812854Y-87295316D01*
X168812854Y-87295316D02*
X169431901Y-87295316D01*
X184099019Y-89495857D02*
X184051400Y-89543477D01*
X184051400Y-89543477D02*
X183908543Y-89591096D01*
X183908543Y-89591096D02*
X183813305Y-89591096D01*
X183813305Y-89591096D02*
X183670448Y-89543477D01*
X183670448Y-89543477D02*
X183575210Y-89448238D01*
X183575210Y-89448238D02*
X183527591Y-89353000D01*
X183527591Y-89353000D02*
X183479972Y-89162524D01*
X183479972Y-89162524D02*
X183479972Y-89019667D01*
X183479972Y-89019667D02*
X183527591Y-88829191D01*
X183527591Y-88829191D02*
X183575210Y-88733953D01*
X183575210Y-88733953D02*
X183670448Y-88638715D01*
X183670448Y-88638715D02*
X183813305Y-88591096D01*
X183813305Y-88591096D02*
X183908543Y-88591096D01*
X183908543Y-88591096D02*
X184051400Y-88638715D01*
X184051400Y-88638715D02*
X184099019Y-88686334D01*
X184479972Y-88686334D02*
X184527591Y-88638715D01*
X184527591Y-88638715D02*
X184622829Y-88591096D01*
X184622829Y-88591096D02*
X184860924Y-88591096D01*
X184860924Y-88591096D02*
X184956162Y-88638715D01*
X184956162Y-88638715D02*
X185003781Y-88686334D01*
X185003781Y-88686334D02*
X185051400Y-88781572D01*
X185051400Y-88781572D02*
X185051400Y-88876810D01*
X185051400Y-88876810D02*
X185003781Y-89019667D01*
X185003781Y-89019667D02*
X184432353Y-89591096D01*
X184432353Y-89591096D02*
X185051400Y-89591096D01*
X149783008Y-67899371D02*
X148783008Y-67899371D01*
X148783008Y-67899371D02*
X148783008Y-67661276D01*
X148783008Y-67661276D02*
X148830627Y-67518419D01*
X148830627Y-67518419D02*
X148925865Y-67423181D01*
X148925865Y-67423181D02*
X149021103Y-67375562D01*
X149021103Y-67375562D02*
X149211579Y-67327943D01*
X149211579Y-67327943D02*
X149354436Y-67327943D01*
X149354436Y-67327943D02*
X149544912Y-67375562D01*
X149544912Y-67375562D02*
X149640150Y-67423181D01*
X149640150Y-67423181D02*
X149735389Y-67518419D01*
X149735389Y-67518419D02*
X149783008Y-67661276D01*
X149783008Y-67661276D02*
X149783008Y-67899371D01*
X148878246Y-66946990D02*
X148830627Y-66899371D01*
X148830627Y-66899371D02*
X148783008Y-66804133D01*
X148783008Y-66804133D02*
X148783008Y-66566038D01*
X148783008Y-66566038D02*
X148830627Y-66470800D01*
X148830627Y-66470800D02*
X148878246Y-66423181D01*
X148878246Y-66423181D02*
X148973484Y-66375562D01*
X148973484Y-66375562D02*
X149068722Y-66375562D01*
X149068722Y-66375562D02*
X149211579Y-66423181D01*
X149211579Y-66423181D02*
X149783008Y-66994609D01*
X149783008Y-66994609D02*
X149783008Y-66375562D01*
X174883480Y-55204366D02*
X174883480Y-56013889D01*
X174883480Y-56013889D02*
X174931099Y-56109127D01*
X174931099Y-56109127D02*
X174978718Y-56156747D01*
X174978718Y-56156747D02*
X175073956Y-56204366D01*
X175073956Y-56204366D02*
X175264432Y-56204366D01*
X175264432Y-56204366D02*
X175359670Y-56156747D01*
X175359670Y-56156747D02*
X175407289Y-56109127D01*
X175407289Y-56109127D02*
X175454908Y-56013889D01*
X175454908Y-56013889D02*
X175454908Y-55204366D01*
X175835861Y-55204366D02*
X176454908Y-55204366D01*
X176454908Y-55204366D02*
X176121575Y-55585318D01*
X176121575Y-55585318D02*
X176264432Y-55585318D01*
X176264432Y-55585318D02*
X176359670Y-55632937D01*
X176359670Y-55632937D02*
X176407289Y-55680556D01*
X176407289Y-55680556D02*
X176454908Y-55775794D01*
X176454908Y-55775794D02*
X176454908Y-56013889D01*
X176454908Y-56013889D02*
X176407289Y-56109127D01*
X176407289Y-56109127D02*
X176359670Y-56156747D01*
X176359670Y-56156747D02*
X176264432Y-56204366D01*
X176264432Y-56204366D02*
X175978718Y-56204366D01*
X175978718Y-56204366D02*
X175883480Y-56156747D01*
X175883480Y-56156747D02*
X175835861Y-56109127D01*
X152553000Y-84066631D02*
X152076809Y-84399964D01*
X152553000Y-84638059D02*
X151553000Y-84638059D01*
X151553000Y-84638059D02*
X151553000Y-84257107D01*
X151553000Y-84257107D02*
X151600619Y-84161869D01*
X151600619Y-84161869D02*
X151648238Y-84114250D01*
X151648238Y-84114250D02*
X151743476Y-84066631D01*
X151743476Y-84066631D02*
X151886333Y-84066631D01*
X151886333Y-84066631D02*
X151981571Y-84114250D01*
X151981571Y-84114250D02*
X152029190Y-84161869D01*
X152029190Y-84161869D02*
X152076809Y-84257107D01*
X152076809Y-84257107D02*
X152076809Y-84638059D01*
X152553000Y-83114250D02*
X152553000Y-83685678D01*
X152553000Y-83399964D02*
X151553000Y-83399964D01*
X151553000Y-83399964D02*
X151695857Y-83495202D01*
X151695857Y-83495202D02*
X151791095Y-83590440D01*
X151791095Y-83590440D02*
X151838714Y-83685678D01*
X151553000Y-82495202D02*
X151553000Y-82399964D01*
X151553000Y-82399964D02*
X151600619Y-82304726D01*
X151600619Y-82304726D02*
X151648238Y-82257107D01*
X151648238Y-82257107D02*
X151743476Y-82209488D01*
X151743476Y-82209488D02*
X151933952Y-82161869D01*
X151933952Y-82161869D02*
X152172047Y-82161869D01*
X152172047Y-82161869D02*
X152362523Y-82209488D01*
X152362523Y-82209488D02*
X152457761Y-82257107D01*
X152457761Y-82257107D02*
X152505381Y-82304726D01*
X152505381Y-82304726D02*
X152553000Y-82399964D01*
X152553000Y-82399964D02*
X152553000Y-82495202D01*
X152553000Y-82495202D02*
X152505381Y-82590440D01*
X152505381Y-82590440D02*
X152457761Y-82638059D01*
X152457761Y-82638059D02*
X152362523Y-82685678D01*
X152362523Y-82685678D02*
X152172047Y-82733297D01*
X152172047Y-82733297D02*
X151933952Y-82733297D01*
X151933952Y-82733297D02*
X151743476Y-82685678D01*
X151743476Y-82685678D02*
X151648238Y-82638059D01*
X151648238Y-82638059D02*
X151600619Y-82590440D01*
X151600619Y-82590440D02*
X151553000Y-82495202D01*
X161633008Y-83577941D02*
X161156817Y-83911274D01*
X161633008Y-84149369D02*
X160633008Y-84149369D01*
X160633008Y-84149369D02*
X160633008Y-83768417D01*
X160633008Y-83768417D02*
X160680627Y-83673179D01*
X160680627Y-83673179D02*
X160728246Y-83625560D01*
X160728246Y-83625560D02*
X160823484Y-83577941D01*
X160823484Y-83577941D02*
X160966341Y-83577941D01*
X160966341Y-83577941D02*
X161061579Y-83625560D01*
X161061579Y-83625560D02*
X161109198Y-83673179D01*
X161109198Y-83673179D02*
X161156817Y-83768417D01*
X161156817Y-83768417D02*
X161156817Y-84149369D01*
X161633008Y-83101750D02*
X161633008Y-82911274D01*
X161633008Y-82911274D02*
X161585389Y-82816036D01*
X161585389Y-82816036D02*
X161537769Y-82768417D01*
X161537769Y-82768417D02*
X161394912Y-82673179D01*
X161394912Y-82673179D02*
X161204436Y-82625560D01*
X161204436Y-82625560D02*
X160823484Y-82625560D01*
X160823484Y-82625560D02*
X160728246Y-82673179D01*
X160728246Y-82673179D02*
X160680627Y-82720798D01*
X160680627Y-82720798D02*
X160633008Y-82816036D01*
X160633008Y-82816036D02*
X160633008Y-83006512D01*
X160633008Y-83006512D02*
X160680627Y-83101750D01*
X160680627Y-83101750D02*
X160728246Y-83149369D01*
X160728246Y-83149369D02*
X160823484Y-83196988D01*
X160823484Y-83196988D02*
X161061579Y-83196988D01*
X161061579Y-83196988D02*
X161156817Y-83149369D01*
X161156817Y-83149369D02*
X161204436Y-83101750D01*
X161204436Y-83101750D02*
X161252055Y-83006512D01*
X161252055Y-83006512D02*
X161252055Y-82816036D01*
X161252055Y-82816036D02*
X161204436Y-82720798D01*
X161204436Y-82720798D02*
X161156817Y-82673179D01*
X161156817Y-82673179D02*
X161061579Y-82625560D01*
X157207771Y-83615443D02*
X157255391Y-83663062D01*
X157255391Y-83663062D02*
X157303010Y-83805919D01*
X157303010Y-83805919D02*
X157303010Y-83901157D01*
X157303010Y-83901157D02*
X157255391Y-84044014D01*
X157255391Y-84044014D02*
X157160152Y-84139252D01*
X157160152Y-84139252D02*
X157064914Y-84186871D01*
X157064914Y-84186871D02*
X156874438Y-84234490D01*
X156874438Y-84234490D02*
X156731581Y-84234490D01*
X156731581Y-84234490D02*
X156541105Y-84186871D01*
X156541105Y-84186871D02*
X156445867Y-84139252D01*
X156445867Y-84139252D02*
X156350629Y-84044014D01*
X156350629Y-84044014D02*
X156303010Y-83901157D01*
X156303010Y-83901157D02*
X156303010Y-83805919D01*
X156303010Y-83805919D02*
X156350629Y-83663062D01*
X156350629Y-83663062D02*
X156398248Y-83615443D01*
X156731581Y-83044014D02*
X156683962Y-83139252D01*
X156683962Y-83139252D02*
X156636343Y-83186871D01*
X156636343Y-83186871D02*
X156541105Y-83234490D01*
X156541105Y-83234490D02*
X156493486Y-83234490D01*
X156493486Y-83234490D02*
X156398248Y-83186871D01*
X156398248Y-83186871D02*
X156350629Y-83139252D01*
X156350629Y-83139252D02*
X156303010Y-83044014D01*
X156303010Y-83044014D02*
X156303010Y-82853538D01*
X156303010Y-82853538D02*
X156350629Y-82758300D01*
X156350629Y-82758300D02*
X156398248Y-82710681D01*
X156398248Y-82710681D02*
X156493486Y-82663062D01*
X156493486Y-82663062D02*
X156541105Y-82663062D01*
X156541105Y-82663062D02*
X156636343Y-82710681D01*
X156636343Y-82710681D02*
X156683962Y-82758300D01*
X156683962Y-82758300D02*
X156731581Y-82853538D01*
X156731581Y-82853538D02*
X156731581Y-83044014D01*
X156731581Y-83044014D02*
X156779200Y-83139252D01*
X156779200Y-83139252D02*
X156826819Y-83186871D01*
X156826819Y-83186871D02*
X156922057Y-83234490D01*
X156922057Y-83234490D02*
X157112533Y-83234490D01*
X157112533Y-83234490D02*
X157207771Y-83186871D01*
X157207771Y-83186871D02*
X157255391Y-83139252D01*
X157255391Y-83139252D02*
X157303010Y-83044014D01*
X157303010Y-83044014D02*
X157303010Y-82853538D01*
X157303010Y-82853538D02*
X157255391Y-82758300D01*
X157255391Y-82758300D02*
X157207771Y-82710681D01*
X157207771Y-82710681D02*
X157112533Y-82663062D01*
X157112533Y-82663062D02*
X156922057Y-82663062D01*
X156922057Y-82663062D02*
X156826819Y-82710681D01*
X156826819Y-82710681D02*
X156779200Y-82758300D01*
X156779200Y-82758300D02*
X156731581Y-82853538D01*
X182322827Y-63996098D02*
X181989494Y-63519907D01*
X181751399Y-63996098D02*
X181751399Y-62996098D01*
X181751399Y-62996098D02*
X182132351Y-62996098D01*
X182132351Y-62996098D02*
X182227589Y-63043717D01*
X182227589Y-63043717D02*
X182275208Y-63091336D01*
X182275208Y-63091336D02*
X182322827Y-63186574D01*
X182322827Y-63186574D02*
X182322827Y-63329431D01*
X182322827Y-63329431D02*
X182275208Y-63424669D01*
X182275208Y-63424669D02*
X182227589Y-63472288D01*
X182227589Y-63472288D02*
X182132351Y-63519907D01*
X182132351Y-63519907D02*
X181751399Y-63519907D01*
X183275208Y-63996098D02*
X182703780Y-63996098D01*
X182989494Y-63996098D02*
X182989494Y-62996098D01*
X182989494Y-62996098D02*
X182894256Y-63138955D01*
X182894256Y-63138955D02*
X182799018Y-63234193D01*
X182799018Y-63234193D02*
X182703780Y-63281812D01*
X184227589Y-63996098D02*
X183656161Y-63996098D01*
X183941875Y-63996098D02*
X183941875Y-62996098D01*
X183941875Y-62996098D02*
X183846637Y-63138955D01*
X183846637Y-63138955D02*
X183751399Y-63234193D01*
X183751399Y-63234193D02*
X183656161Y-63281812D01*
X154563012Y-60177944D02*
X154086821Y-60511277D01*
X154563012Y-60749372D02*
X153563012Y-60749372D01*
X153563012Y-60749372D02*
X153563012Y-60368420D01*
X153563012Y-60368420D02*
X153610631Y-60273182D01*
X153610631Y-60273182D02*
X153658250Y-60225563D01*
X153658250Y-60225563D02*
X153753488Y-60177944D01*
X153753488Y-60177944D02*
X153896345Y-60177944D01*
X153896345Y-60177944D02*
X153991583Y-60225563D01*
X153991583Y-60225563D02*
X154039202Y-60273182D01*
X154039202Y-60273182D02*
X154086821Y-60368420D01*
X154086821Y-60368420D02*
X154086821Y-60749372D01*
X153563012Y-59844610D02*
X153563012Y-59177944D01*
X153563012Y-59177944D02*
X154563012Y-59606515D01*
X180462771Y-84227943D02*
X180510391Y-84275562D01*
X180510391Y-84275562D02*
X180558010Y-84418419D01*
X180558010Y-84418419D02*
X180558010Y-84513657D01*
X180558010Y-84513657D02*
X180510391Y-84656514D01*
X180510391Y-84656514D02*
X180415152Y-84751752D01*
X180415152Y-84751752D02*
X180319914Y-84799371D01*
X180319914Y-84799371D02*
X180129438Y-84846990D01*
X180129438Y-84846990D02*
X179986581Y-84846990D01*
X179986581Y-84846990D02*
X179796105Y-84799371D01*
X179796105Y-84799371D02*
X179700867Y-84751752D01*
X179700867Y-84751752D02*
X179605629Y-84656514D01*
X179605629Y-84656514D02*
X179558010Y-84513657D01*
X179558010Y-84513657D02*
X179558010Y-84418419D01*
X179558010Y-84418419D02*
X179605629Y-84275562D01*
X179605629Y-84275562D02*
X179653248Y-84227943D01*
X179558010Y-83894609D02*
X179558010Y-83227943D01*
X179558010Y-83227943D02*
X180558010Y-83656514D01*
X176308004Y-84177943D02*
X175831813Y-84511276D01*
X176308004Y-84749371D02*
X175308004Y-84749371D01*
X175308004Y-84749371D02*
X175308004Y-84368419D01*
X175308004Y-84368419D02*
X175355623Y-84273181D01*
X175355623Y-84273181D02*
X175403242Y-84225562D01*
X175403242Y-84225562D02*
X175498480Y-84177943D01*
X175498480Y-84177943D02*
X175641337Y-84177943D01*
X175641337Y-84177943D02*
X175736575Y-84225562D01*
X175736575Y-84225562D02*
X175784194Y-84273181D01*
X175784194Y-84273181D02*
X175831813Y-84368419D01*
X175831813Y-84368419D02*
X175831813Y-84749371D01*
X175736575Y-83606514D02*
X175688956Y-83701752D01*
X175688956Y-83701752D02*
X175641337Y-83749371D01*
X175641337Y-83749371D02*
X175546099Y-83796990D01*
X175546099Y-83796990D02*
X175498480Y-83796990D01*
X175498480Y-83796990D02*
X175403242Y-83749371D01*
X175403242Y-83749371D02*
X175355623Y-83701752D01*
X175355623Y-83701752D02*
X175308004Y-83606514D01*
X175308004Y-83606514D02*
X175308004Y-83416038D01*
X175308004Y-83416038D02*
X175355623Y-83320800D01*
X175355623Y-83320800D02*
X175403242Y-83273181D01*
X175403242Y-83273181D02*
X175498480Y-83225562D01*
X175498480Y-83225562D02*
X175546099Y-83225562D01*
X175546099Y-83225562D02*
X175641337Y-83273181D01*
X175641337Y-83273181D02*
X175688956Y-83320800D01*
X175688956Y-83320800D02*
X175736575Y-83416038D01*
X175736575Y-83416038D02*
X175736575Y-83606514D01*
X175736575Y-83606514D02*
X175784194Y-83701752D01*
X175784194Y-83701752D02*
X175831813Y-83749371D01*
X175831813Y-83749371D02*
X175927051Y-83796990D01*
X175927051Y-83796990D02*
X176117527Y-83796990D01*
X176117527Y-83796990D02*
X176212765Y-83749371D01*
X176212765Y-83749371D02*
X176260385Y-83701752D01*
X176260385Y-83701752D02*
X176308004Y-83606514D01*
X176308004Y-83606514D02*
X176308004Y-83416038D01*
X176308004Y-83416038D02*
X176260385Y-83320800D01*
X176260385Y-83320800D02*
X176212765Y-83273181D01*
X176212765Y-83273181D02*
X176117527Y-83225562D01*
X176117527Y-83225562D02*
X175927051Y-83225562D01*
X175927051Y-83225562D02*
X175831813Y-83273181D01*
X175831813Y-83273181D02*
X175784194Y-83320800D01*
X175784194Y-83320800D02*
X175736575Y-83416038D01*
X168192932Y-56180979D02*
X167859599Y-55704788D01*
X167621504Y-56180979D02*
X167621504Y-55180979D01*
X167621504Y-55180979D02*
X168002456Y-55180979D01*
X168002456Y-55180979D02*
X168097694Y-55228598D01*
X168097694Y-55228598D02*
X168145313Y-55276217D01*
X168145313Y-55276217D02*
X168192932Y-55371455D01*
X168192932Y-55371455D02*
X168192932Y-55514312D01*
X168192932Y-55514312D02*
X168145313Y-55609550D01*
X168145313Y-55609550D02*
X168097694Y-55657169D01*
X168097694Y-55657169D02*
X168002456Y-55704788D01*
X168002456Y-55704788D02*
X167621504Y-55704788D01*
X169145313Y-56180979D02*
X168573885Y-56180979D01*
X168859599Y-56180979D02*
X168859599Y-55180979D01*
X168859599Y-55180979D02*
X168764361Y-55323836D01*
X168764361Y-55323836D02*
X168669123Y-55419074D01*
X168669123Y-55419074D02*
X168573885Y-55466693D01*
X170002456Y-55180979D02*
X169811980Y-55180979D01*
X169811980Y-55180979D02*
X169716742Y-55228598D01*
X169716742Y-55228598D02*
X169669123Y-55276217D01*
X169669123Y-55276217D02*
X169573885Y-55419074D01*
X169573885Y-55419074D02*
X169526266Y-55609550D01*
X169526266Y-55609550D02*
X169526266Y-55990502D01*
X169526266Y-55990502D02*
X169573885Y-56085740D01*
X169573885Y-56085740D02*
X169621504Y-56133360D01*
X169621504Y-56133360D02*
X169716742Y-56180979D01*
X169716742Y-56180979D02*
X169907218Y-56180979D01*
X169907218Y-56180979D02*
X170002456Y-56133360D01*
X170002456Y-56133360D02*
X170050075Y-56085740D01*
X170050075Y-56085740D02*
X170097694Y-55990502D01*
X170097694Y-55990502D02*
X170097694Y-55752407D01*
X170097694Y-55752407D02*
X170050075Y-55657169D01*
X170050075Y-55657169D02*
X170002456Y-55609550D01*
X170002456Y-55609550D02*
X169907218Y-55561931D01*
X169907218Y-55561931D02*
X169716742Y-55561931D01*
X169716742Y-55561931D02*
X169621504Y-55609550D01*
X169621504Y-55609550D02*
X169573885Y-55657169D01*
X169573885Y-55657169D02*
X169526266Y-55752407D01*
X168699018Y-63696099D02*
X168365685Y-63219908D01*
X168127590Y-63696099D02*
X168127590Y-62696099D01*
X168127590Y-62696099D02*
X168508542Y-62696099D01*
X168508542Y-62696099D02*
X168603780Y-62743718D01*
X168603780Y-62743718D02*
X168651399Y-62791337D01*
X168651399Y-62791337D02*
X168699018Y-62886575D01*
X168699018Y-62886575D02*
X168699018Y-63029432D01*
X168699018Y-63029432D02*
X168651399Y-63124670D01*
X168651399Y-63124670D02*
X168603780Y-63172289D01*
X168603780Y-63172289D02*
X168508542Y-63219908D01*
X168508542Y-63219908D02*
X168127590Y-63219908D01*
X169603780Y-62696099D02*
X169127590Y-62696099D01*
X169127590Y-62696099D02*
X169079971Y-63172289D01*
X169079971Y-63172289D02*
X169127590Y-63124670D01*
X169127590Y-63124670D02*
X169222828Y-63077051D01*
X169222828Y-63077051D02*
X169460923Y-63077051D01*
X169460923Y-63077051D02*
X169556161Y-63124670D01*
X169556161Y-63124670D02*
X169603780Y-63172289D01*
X169603780Y-63172289D02*
X169651399Y-63267527D01*
X169651399Y-63267527D02*
X169651399Y-63505622D01*
X169651399Y-63505622D02*
X169603780Y-63600860D01*
X169603780Y-63600860D02*
X169556161Y-63648480D01*
X169556161Y-63648480D02*
X169460923Y-63696099D01*
X169460923Y-63696099D02*
X169222828Y-63696099D01*
X169222828Y-63696099D02*
X169127590Y-63648480D01*
X169127590Y-63648480D02*
X169079971Y-63600860D01*
X190133005Y-62935679D02*
X190942528Y-62935679D01*
X190942528Y-62935679D02*
X191037766Y-62888060D01*
X191037766Y-62888060D02*
X191085386Y-62840441D01*
X191085386Y-62840441D02*
X191133005Y-62745203D01*
X191133005Y-62745203D02*
X191133005Y-62554727D01*
X191133005Y-62554727D02*
X191085386Y-62459489D01*
X191085386Y-62459489D02*
X191037766Y-62411870D01*
X191037766Y-62411870D02*
X190942528Y-62364251D01*
X190942528Y-62364251D02*
X190133005Y-62364251D01*
X190466338Y-61459489D02*
X191133005Y-61459489D01*
X190085386Y-61697584D02*
X190799671Y-61935679D01*
X190799671Y-61935679D02*
X190799671Y-61316632D01*
X190862770Y-88854133D02*
X190910390Y-88901752D01*
X190910390Y-88901752D02*
X190958009Y-89044609D01*
X190958009Y-89044609D02*
X190958009Y-89139847D01*
X190958009Y-89139847D02*
X190910390Y-89282704D01*
X190910390Y-89282704D02*
X190815151Y-89377942D01*
X190815151Y-89377942D02*
X190719913Y-89425561D01*
X190719913Y-89425561D02*
X190529437Y-89473180D01*
X190529437Y-89473180D02*
X190386580Y-89473180D01*
X190386580Y-89473180D02*
X190196104Y-89425561D01*
X190196104Y-89425561D02*
X190100866Y-89377942D01*
X190100866Y-89377942D02*
X190005628Y-89282704D01*
X190005628Y-89282704D02*
X189958009Y-89139847D01*
X189958009Y-89139847D02*
X189958009Y-89044609D01*
X189958009Y-89044609D02*
X190005628Y-88901752D01*
X190005628Y-88901752D02*
X190053247Y-88854133D01*
X190958009Y-87901752D02*
X190958009Y-88473180D01*
X190958009Y-88187466D02*
X189958009Y-88187466D01*
X189958009Y-88187466D02*
X190100866Y-88282704D01*
X190100866Y-88282704D02*
X190196104Y-88377942D01*
X190196104Y-88377942D02*
X190243723Y-88473180D01*
X189958009Y-86996990D02*
X189958009Y-87473180D01*
X189958009Y-87473180D02*
X190434199Y-87520799D01*
X190434199Y-87520799D02*
X190386580Y-87473180D01*
X190386580Y-87473180D02*
X190338961Y-87377942D01*
X190338961Y-87377942D02*
X190338961Y-87139847D01*
X190338961Y-87139847D02*
X190386580Y-87044609D01*
X190386580Y-87044609D02*
X190434199Y-86996990D01*
X190434199Y-86996990D02*
X190529437Y-86949371D01*
X190529437Y-86949371D02*
X190767532Y-86949371D01*
X190767532Y-86949371D02*
X190862770Y-86996990D01*
X190862770Y-86996990D02*
X190910390Y-87044609D01*
X190910390Y-87044609D02*
X190958009Y-87139847D01*
X190958009Y-87139847D02*
X190958009Y-87377942D01*
X190958009Y-87377942D02*
X190910390Y-87473180D01*
X190910390Y-87473180D02*
X190862770Y-87520799D01*
X194872831Y-59525857D02*
X194825212Y-59573477D01*
X194825212Y-59573477D02*
X194682355Y-59621096D01*
X194682355Y-59621096D02*
X194587117Y-59621096D01*
X194587117Y-59621096D02*
X194444260Y-59573477D01*
X194444260Y-59573477D02*
X194349022Y-59478238D01*
X194349022Y-59478238D02*
X194301403Y-59383000D01*
X194301403Y-59383000D02*
X194253784Y-59192524D01*
X194253784Y-59192524D02*
X194253784Y-59049667D01*
X194253784Y-59049667D02*
X194301403Y-58859191D01*
X194301403Y-58859191D02*
X194349022Y-58763953D01*
X194349022Y-58763953D02*
X194444260Y-58668715D01*
X194444260Y-58668715D02*
X194587117Y-58621096D01*
X194587117Y-58621096D02*
X194682355Y-58621096D01*
X194682355Y-58621096D02*
X194825212Y-58668715D01*
X194825212Y-58668715D02*
X194872831Y-58716334D01*
X195825212Y-59621096D02*
X195253784Y-59621096D01*
X195539498Y-59621096D02*
X195539498Y-58621096D01*
X195539498Y-58621096D02*
X195444260Y-58763953D01*
X195444260Y-58763953D02*
X195349022Y-58859191D01*
X195349022Y-58859191D02*
X195253784Y-58906810D01*
X196777593Y-59621096D02*
X196206165Y-59621096D01*
X196491879Y-59621096D02*
X196491879Y-58621096D01*
X196491879Y-58621096D02*
X196396641Y-58763953D01*
X196396641Y-58763953D02*
X196301403Y-58859191D01*
X196301403Y-58859191D02*
X196206165Y-58906810D01*
X191012769Y-80427940D02*
X191060389Y-80475559D01*
X191060389Y-80475559D02*
X191108008Y-80618416D01*
X191108008Y-80618416D02*
X191108008Y-80713654D01*
X191108008Y-80713654D02*
X191060389Y-80856511D01*
X191060389Y-80856511D02*
X190965150Y-80951749D01*
X190965150Y-80951749D02*
X190869912Y-80999368D01*
X190869912Y-80999368D02*
X190679436Y-81046987D01*
X190679436Y-81046987D02*
X190536579Y-81046987D01*
X190536579Y-81046987D02*
X190346103Y-80999368D01*
X190346103Y-80999368D02*
X190250865Y-80951749D01*
X190250865Y-80951749D02*
X190155627Y-80856511D01*
X190155627Y-80856511D02*
X190108008Y-80713654D01*
X190108008Y-80713654D02*
X190108008Y-80618416D01*
X190108008Y-80618416D02*
X190155627Y-80475559D01*
X190155627Y-80475559D02*
X190203246Y-80427940D01*
X190108008Y-79523178D02*
X190108008Y-79999368D01*
X190108008Y-79999368D02*
X190584198Y-80046987D01*
X190584198Y-80046987D02*
X190536579Y-79999368D01*
X190536579Y-79999368D02*
X190488960Y-79904130D01*
X190488960Y-79904130D02*
X190488960Y-79666035D01*
X190488960Y-79666035D02*
X190536579Y-79570797D01*
X190536579Y-79570797D02*
X190584198Y-79523178D01*
X190584198Y-79523178D02*
X190679436Y-79475559D01*
X190679436Y-79475559D02*
X190917531Y-79475559D01*
X190917531Y-79475559D02*
X191012769Y-79523178D01*
X191012769Y-79523178D02*
X191060389Y-79570797D01*
X191060389Y-79570797D02*
X191108008Y-79666035D01*
X191108008Y-79666035D02*
X191108008Y-79904130D01*
X191108008Y-79904130D02*
X191060389Y-79999368D01*
X191060389Y-79999368D02*
X191012769Y-80046987D01*
X182397829Y-59571093D02*
X182064496Y-59094902D01*
X181826401Y-59571093D02*
X181826401Y-58571093D01*
X181826401Y-58571093D02*
X182207353Y-58571093D01*
X182207353Y-58571093D02*
X182302591Y-58618712D01*
X182302591Y-58618712D02*
X182350210Y-58666331D01*
X182350210Y-58666331D02*
X182397829Y-58761569D01*
X182397829Y-58761569D02*
X182397829Y-58904426D01*
X182397829Y-58904426D02*
X182350210Y-58999664D01*
X182350210Y-58999664D02*
X182302591Y-59047283D01*
X182302591Y-59047283D02*
X182207353Y-59094902D01*
X182207353Y-59094902D02*
X181826401Y-59094902D01*
X183350210Y-59571093D02*
X182778782Y-59571093D01*
X183064496Y-59571093D02*
X183064496Y-58571093D01*
X183064496Y-58571093D02*
X182969258Y-58713950D01*
X182969258Y-58713950D02*
X182874020Y-58809188D01*
X182874020Y-58809188D02*
X182778782Y-58856807D01*
X183731163Y-58666331D02*
X183778782Y-58618712D01*
X183778782Y-58618712D02*
X183874020Y-58571093D01*
X183874020Y-58571093D02*
X184112115Y-58571093D01*
X184112115Y-58571093D02*
X184207353Y-58618712D01*
X184207353Y-58618712D02*
X184254972Y-58666331D01*
X184254972Y-58666331D02*
X184302591Y-58761569D01*
X184302591Y-58761569D02*
X184302591Y-58856807D01*
X184302591Y-58856807D02*
X184254972Y-58999664D01*
X184254972Y-58999664D02*
X183683544Y-59571093D01*
X183683544Y-59571093D02*
X184302591Y-59571093D01*
X184024022Y-83795858D02*
X183976403Y-83843478D01*
X183976403Y-83843478D02*
X183833546Y-83891097D01*
X183833546Y-83891097D02*
X183738308Y-83891097D01*
X183738308Y-83891097D02*
X183595451Y-83843478D01*
X183595451Y-83843478D02*
X183500213Y-83748239D01*
X183500213Y-83748239D02*
X183452594Y-83653001D01*
X183452594Y-83653001D02*
X183404975Y-83462525D01*
X183404975Y-83462525D02*
X183404975Y-83319668D01*
X183404975Y-83319668D02*
X183452594Y-83129192D01*
X183452594Y-83129192D02*
X183500213Y-83033954D01*
X183500213Y-83033954D02*
X183595451Y-82938716D01*
X183595451Y-82938716D02*
X183738308Y-82891097D01*
X183738308Y-82891097D02*
X183833546Y-82891097D01*
X183833546Y-82891097D02*
X183976403Y-82938716D01*
X183976403Y-82938716D02*
X184024022Y-82986335D01*
X184976403Y-83891097D02*
X184404975Y-83891097D01*
X184690689Y-83891097D02*
X184690689Y-82891097D01*
X184690689Y-82891097D02*
X184595451Y-83033954D01*
X184595451Y-83033954D02*
X184500213Y-83129192D01*
X184500213Y-83129192D02*
X184404975Y-83176811D01*
D12*
%TO.C,SW1*%
X212298183Y-62056278D02*
X212298186Y-58236281D01*
X212298186Y-58236281D02*
X210948187Y-58236277D01*
X210948183Y-62056278D02*
X212298183Y-62056278D01*
X208448186Y-62056280D02*
X209428189Y-62056274D01*
X208448187Y-58236278D02*
X209428189Y-58236274D01*
X205948183Y-62056278D02*
X206928185Y-62056274D01*
X205948183Y-58236278D02*
X206928186Y-58236272D01*
X203078186Y-62056271D02*
X204428185Y-62056275D01*
X203078186Y-62056271D02*
X203078189Y-58236274D01*
X203078189Y-58236274D02*
X204428189Y-58236274D01*
%TO.C,C10*%
X186293190Y-63946275D02*
X189313190Y-63946281D01*
X189313190Y-63946281D02*
X189313188Y-59561278D01*
X186293187Y-59561278D02*
X186293190Y-63946275D01*
%TO.C,J2*%
X197848190Y-87426273D02*
X197848192Y-81226272D01*
X203428190Y-87436277D02*
X197848190Y-87426273D01*
X209228191Y-87436274D02*
X206028190Y-87436271D01*
X209228191Y-86936275D02*
X209228191Y-87436274D01*
X211728194Y-86936273D02*
X209228191Y-86936275D01*
X209228187Y-81736272D02*
X211728188Y-81736272D01*
X211728188Y-81736272D02*
X211728194Y-86936273D01*
X197848192Y-81226272D02*
X199048191Y-81226272D01*
X198928188Y-81236276D02*
X205428191Y-81236271D01*
X205428191Y-81236271D02*
X205428190Y-79236279D01*
X208028184Y-81236274D02*
X209228190Y-81236273D01*
X208028184Y-81236274D02*
X208028189Y-79236276D01*
X209228190Y-81236273D02*
X209228187Y-81736272D01*
%TO.C,L1*%
X148453190Y-82211283D02*
X148003187Y-82211280D01*
X148453190Y-82211283D02*
X148453184Y-88411281D01*
X142253192Y-82211277D02*
X142703188Y-82211280D01*
X148453184Y-88411281D02*
X148003188Y-88411278D01*
X142253186Y-88411275D02*
X142253192Y-82211277D01*
X142253186Y-88411275D02*
X142703189Y-88411278D01*
%TO.C,L2*%
X142253184Y-63611269D02*
X142703187Y-63611272D01*
X142253184Y-63611269D02*
X142253190Y-57411271D01*
X148453182Y-63611275D02*
X148003186Y-63611272D01*
X142253190Y-57411271D02*
X142703186Y-57411274D01*
X148453188Y-57411277D02*
X148453182Y-63611275D01*
X148453188Y-57411277D02*
X148003185Y-57411274D01*
%TO.C,L4*%
X200213182Y-61377504D02*
X200213189Y-61720039D01*
X199193181Y-61377507D02*
X199193188Y-61720042D01*
%TO.C,C14*%
X191594426Y-58346261D02*
X191886956Y-58346264D01*
X191594412Y-57326288D02*
X191886942Y-57326291D01*
D13*
%TO.C,BT2*%
X212601891Y-78040274D02*
X212601885Y-74283827D01*
X212601890Y-68588726D02*
X212601885Y-64832273D01*
X212601885Y-64832273D02*
X150854483Y-64832280D01*
X206777134Y-78040278D02*
X212601891Y-78040274D01*
X150854489Y-78040281D02*
X205472645Y-78040268D01*
X150854484Y-74283828D02*
X150854489Y-78040281D01*
X150854483Y-64832280D02*
X150854489Y-68588727D01*
D12*
%TO.C,U2*%
X168622380Y-86000498D02*
X170572378Y-86000501D01*
X168622380Y-86000498D02*
X166672380Y-86000496D01*
X168622374Y-80880500D02*
X170572374Y-80880502D01*
X168622374Y-80880500D02*
X166672376Y-80880497D01*
X171562379Y-86235498D02*
X171082376Y-86235498D01*
X171322377Y-85905500D01*
X171562379Y-86235498D01*
G36*
X171562379Y-86235498D02*
G01*
X171082376Y-86235498D01*
X171322377Y-85905500D01*
X171562379Y-86235498D01*
G37*
%TO.C,C2*%
X186750683Y-88321276D02*
X186750682Y-86451276D01*
X186750682Y-86451276D02*
X182665684Y-86451280D01*
X182665684Y-88321282D02*
X186750683Y-88321276D01*
%TO.C,D2*%
X149578191Y-71336275D02*
X149578191Y-70886275D01*
X148453188Y-72311277D02*
X148453186Y-73311268D01*
X148453188Y-72311277D02*
X147778189Y-72311283D01*
X148453186Y-69911279D02*
X147778190Y-69911271D01*
X147778192Y-72111274D02*
X147778189Y-72311283D01*
X147778192Y-72111274D02*
X147528192Y-72061274D01*
X147778190Y-69911271D02*
X147778192Y-70111274D01*
X147528192Y-70161274D02*
X147778192Y-70111274D01*
X147528192Y-72061274D02*
G75*
G02*
X147528192Y-70161274I0J950000D01*
G01*
%TO.C,U3*%
X175645389Y-61709544D02*
X177595387Y-61709547D01*
X175645389Y-61709544D02*
X173695389Y-61709542D01*
X175645383Y-56589546D02*
X177595383Y-56589548D01*
X175645383Y-56589546D02*
X173695385Y-56589543D01*
X172945386Y-56684544D02*
X172705384Y-56354546D01*
X173185387Y-56354546D01*
X172945386Y-56684544D01*
G36*
X172945386Y-56684544D02*
G01*
X172705384Y-56354546D01*
X173185387Y-56354546D01*
X172945386Y-56684544D01*
G37*
%TO.C,R10*%
X154050686Y-83678491D02*
X154050677Y-83169044D01*
X153005687Y-83678504D02*
X153005678Y-83169057D01*
%TO.C,R9*%
X163115929Y-83132038D02*
X163115941Y-83641484D01*
X162070931Y-83132052D02*
X162070943Y-83641498D01*
%TO.C,C8*%
X158788187Y-83595038D02*
X158788186Y-83302510D01*
X157768198Y-83595044D02*
X157768197Y-83302516D01*
%TO.C,R11*%
X183220413Y-62633777D02*
X182710965Y-62633781D01*
X183220409Y-61588775D02*
X182710961Y-61588779D01*
%TO.C,R7*%
X153200683Y-59756549D02*
X153200694Y-60265991D01*
X152155684Y-59756561D02*
X152155695Y-60266003D01*
%TO.C,C7*%
X179228434Y-84233038D02*
X179228438Y-83940504D01*
X178208430Y-84233034D02*
X178208434Y-83940500D01*
%TO.C,R8*%
X175050089Y-83770588D02*
X175050096Y-84280036D01*
X174005088Y-83770594D02*
X174005095Y-84280042D01*
%TO.C,R16*%
X168581073Y-57678666D02*
X169090520Y-57678658D01*
X168581062Y-56633666D02*
X169090509Y-56633658D01*
%TO.C,R5*%
X169120413Y-62333778D02*
X168610965Y-62333782D01*
X169120409Y-61288776D02*
X168610961Y-61288780D01*
%TO.C,U4*%
X194638190Y-62173773D02*
X194638195Y-62823776D01*
X194638190Y-62173773D02*
X194638191Y-61523774D01*
X191518190Y-62173773D02*
X191518189Y-62823772D01*
X191518190Y-62173773D02*
X191518185Y-61523770D01*
X191568192Y-63336274D02*
X191238196Y-63576274D01*
X191238192Y-63096271D01*
X191568192Y-63336274D01*
G36*
X191568192Y-63336274D02*
G01*
X191238196Y-63576274D01*
X191238192Y-63096271D01*
X191568192Y-63336274D01*
G37*
%TO.C,C15*%
X189713185Y-88445040D02*
X189713184Y-88152512D01*
X188693196Y-88445046D02*
X188693195Y-88152518D01*
%TO.C,C11*%
X195661955Y-58246259D02*
X195369430Y-58246259D01*
X195661946Y-57226285D02*
X195369421Y-57226285D01*
%TO.C,C5*%
X189788185Y-80102505D02*
X189788183Y-80395037D01*
X188768191Y-80102513D02*
X188768189Y-80395045D01*
%TO.C,R12*%
X183295410Y-58208768D02*
X182785972Y-58208771D01*
X183295400Y-57163767D02*
X182785962Y-57163770D01*
%TO.C,C1*%
X186500683Y-82621280D02*
X186500687Y-80751279D01*
X186500687Y-80751279D02*
X182590687Y-80751281D01*
X182590687Y-82621283D02*
X186500683Y-82621280D01*
%TD*%
%LPC*%
D14*
%TO.C,SW1*%
X210288184Y-62966276D03*
X207788185Y-62966273D03*
X205288183Y-62966275D03*
X210278187Y-57336278D03*
X207778187Y-57336276D03*
X205278188Y-57336273D03*
%TD*%
D15*
%TO.C,C10*%
X187803189Y-62936279D03*
X187803189Y-59686275D03*
%TD*%
D16*
%TO.C,J2*%
X200168192Y-80586275D03*
D17*
X206728190Y-80636276D03*
X204728192Y-88036269D03*
D18*
X201138192Y-84346273D03*
X205628187Y-84336275D03*
%TD*%
D19*
%TO.C,L1*%
X145353188Y-83236279D03*
X145353188Y-87386279D03*
%TD*%
%TO.C,L2*%
X145353186Y-62586273D03*
X145353186Y-58436273D03*
%TD*%
D20*
%TO.C,L4*%
X199703186Y-60673775D03*
X199703184Y-62423771D03*
%TD*%
D21*
%TO.C,C14*%
X190878182Y-57836277D03*
X192603186Y-57836275D03*
%TD*%
D22*
%TO.C,BT2*%
X206124889Y-76744873D03*
D23*
X209299881Y-71436275D03*
X154156493Y-71436279D03*
%TD*%
D24*
%TO.C,U2*%
X171097379Y-85345496D03*
X171097375Y-84075497D03*
X171097381Y-82805502D03*
X171097377Y-81535496D03*
X166147375Y-81535502D03*
X166147379Y-82805501D03*
X166147373Y-84075496D03*
X166147377Y-85345502D03*
%TD*%
D25*
%TO.C,C2*%
X185703184Y-87386278D03*
X182828184Y-87386278D03*
%TD*%
D26*
%TO.C,D2*%
X149228191Y-72611273D03*
X149228193Y-69611275D03*
%TD*%
D27*
%TO.C,U3*%
X173170384Y-57244548D03*
X173170388Y-58514547D03*
X173170382Y-59784542D03*
X173170386Y-61054548D03*
X178120388Y-61054542D03*
X178120384Y-59784543D03*
X178120390Y-58514548D03*
X178120386Y-57244542D03*
%TD*%
D28*
%TO.C,R10*%
X153528185Y-84336273D03*
X153528179Y-82511275D03*
%TD*%
D29*
%TO.C,R9*%
X162593433Y-82474275D03*
X162593439Y-84299261D03*
%TD*%
D30*
%TO.C,C8*%
X158278200Y-84311276D03*
X158278184Y-82586278D03*
%TD*%
D31*
%TO.C,R11*%
X183878188Y-62111277D03*
X182053186Y-62111279D03*
%TD*%
D29*
%TO.C,R7*%
X152678187Y-59098782D03*
X152678191Y-60923770D03*
%TD*%
D30*
%TO.C,C7*%
X178718435Y-84949270D03*
X178718433Y-83224268D03*
%TD*%
D29*
%TO.C,R8*%
X174527589Y-83112814D03*
X174527595Y-84937816D03*
%TD*%
D32*
%TO.C,R16*%
X167923291Y-57156164D03*
X169748291Y-57156160D03*
%TD*%
D31*
%TO.C,R5*%
X169778188Y-61811278D03*
X167953186Y-61811280D03*
%TD*%
D33*
%TO.C,U4*%
X192128187Y-63111267D03*
X194028188Y-63111276D03*
X193078189Y-61236277D03*
%TD*%
D30*
%TO.C,C15*%
X189203198Y-89161278D03*
X189203182Y-87436280D03*
%TD*%
D34*
%TO.C,C11*%
X196378192Y-57736270D03*
X194653184Y-57736274D03*
%TD*%
D35*
%TO.C,C5*%
X189278183Y-79386274D03*
X189278191Y-81111276D03*
%TD*%
D31*
%TO.C,R12*%
X183953175Y-57686268D03*
X182128197Y-57686270D03*
%TD*%
D36*
%TO.C,C1*%
X185540685Y-81686280D03*
X182840689Y-81686278D03*
%TD*%
%LPD*%
M02*
