<?xml version="1.0" encoding="UTF-8" standalone="no"?>
<!DOCTYPE svg PUBLIC "-//W3C//DTD SVG 1.1//EN" "http://www.w3.org/Graphics/SVG/1.1/DTD/svg11.dtd">
<svg width="100%" height="100%" viewBox="0 0 89 112" version="1.1" xmlns="http://www.w3.org/2000/svg" xmlns:xlink="http://www.w3.org/1999/xlink" xml:space="preserve" xmlns:serif="http://www.serif.com/" style="fill-rule:evenodd;clip-rule:evenodd;stroke-linejoin:round;stroke-miterlimit:2;">
    <g transform="matrix(1,0,0,1,-256.543,-314.169)">
        <g transform="matrix(-0.147955,1.81193e-17,-1.81193e-17,-0.147955,352.226,430.527)">
            <g id="edge-cuts" serif:id="edge cuts">
                <path d="M608.42,434.29C611.31,434.36 614.2,434.42 617.08,434.17C623.07,433.6 628.63,433.06 634.29,435.6C640.85,438.23 644.43,444.97 645.73,451.58C646.99,457 645.68,462.4 643.35,467.31C641.36,471.46 637.46,474.32 632.92,475.06C627.13,475.91 621.22,476.12 615.37,476.46C615.18,483.43 615.26,490.37 615.5,497.33C615.64,502.64 614.68,508.39 615.74,513.59C617.01,516.8 619.96,519.33 621.75,522.29C624.54,526.42 625.17,530.83 626.86,535.37C628.77,540.59 634.85,543.04 635.23,549C636.12,558.26 635.39,567.77 635.49,577.06C635.32,585 635.8,593.05 635.06,600.94C634.44,606.48 630.15,608.03 627.14,611.94C625.74,614.83 625.37,618.24 624.27,621.27C621.94,627.76 618.97,634.03 616.68,640.54C614.69,645.96 615.36,652.25 615.28,658C615.23,669.78 615.41,681.56 615.47,693.35C615.71,705.62 610.47,719.05 600.65,726.71C590.53,734.05 578.26,735.59 566.08,735.45C567.42,741.36 568.55,746.91 567.08,752.96C563.17,765.73 548.94,773.75 535.99,772.21C528.9,771.54 522.39,767.43 518.53,761.47C516.68,758.57 515.2,755.41 513.97,752.19C513.38,747.53 513.59,743.07 513.6,738.37C505.56,739.21 498.01,740.38 489.98,740.31C482.97,740.23 476.08,741.35 469.08,741.58C461.69,742.18 454.39,742.18 447.08,743.53C448.03,746.03 449.06,748.52 449.9,751.05C453.45,765.19 444.52,781.4 430.15,784.98C423.45,786.56 415.25,786.5 409.25,782.78C402.58,778.89 397.34,772.85 395.69,765.17C394.29,759.56 395.17,754.06 396.93,748.65C397.51,746.78 398.13,744.92 398.74,743.06C390.55,741.96 382.5,742.56 374.22,742.23C366.46,742.32 358.77,741.33 351.01,741.41C346,741.44 341,741.48 336,741.16C323.59,740.19 311.17,740.69 298.75,739.93C288.81,739.86 278.89,740.16 268.95,739.95C266.94,740.03 264.52,739.86 262.66,740.72C259.05,743.21 256.62,747.4 252.71,749.73C248.9,752.06 244.33,752.39 239.97,752.33C235.53,752.2 230.85,751.51 227.19,748.81C224.08,746.53 222.16,742.81 220.26,739.54C218.19,739.31 216.12,739.09 214.05,738.92C205.89,738.42 197.64,738.06 189.47,738.49C189.29,740.62 189.23,742.74 189.09,744.87C188.68,749.62 187.89,754.09 185.11,758.08C180.16,765.08 171.68,769.58 163.03,769.1C157.74,768.79 151.85,767.64 147.41,764.6C143.57,761.67 140.75,757.25 138.23,753.19C137.23,749.55 136.83,745.94 137.06,742.17C137.19,740.76 137.37,739.35 137.53,737.94C133.3,737.8 129.24,737.83 125.05,737.15C118.02,736 111.46,735.29 104.92,732.17C96.7,728.49 90.07,721.63 86.41,713.44C84.18,708.38 82.04,703.68 81.77,698.06C81.33,689.06 81.88,680.01 81.7,671C81.43,660.56 81.89,650.13 81.52,639.69C81.62,633.1 80.92,626.58 81.38,620C81.76,602 81.85,584 81.36,566C81.81,551.26 80.93,536.62 81.54,521.85C82.01,511.19 81.13,500.64 81.25,489.98C81.41,485.84 81.62,481.71 81.53,477.56C74.5,477.45 66.96,478.56 60.31,475.74C55.78,473.88 53.07,469.87 51.52,465.39C48.81,456.62 50.34,445.78 57.55,439.53C61.01,436.4 65.07,435.72 69.49,434.86C77.67,434.57 78.26,433.98 86.44,434.09" style="fill:rgb(128,128,128);fill-opacity:0;stroke:black;stroke-width:0.96px;"/>
                <path d="M86.44,434.09C87.02,428.88 88.08,423.18 87.43,417.96C87.13,415.48 85.62,413.77 83.91,412.09C79.33,407.9 74.15,404.8 70.09,399.96C64.83,393.7 60.23,386.1 57.2,378.51C53.86,370.12 54.33,361.84 54.39,353C54.44,348.5 55.11,344.08 56.89,339.93C59.84,332.96 63.22,325.9 67.97,319.98C74.69,311.37 83.38,304.36 92.44,298.38C94.77,296.89 97.44,295.32 100.18,294.81C103.25,294.36 106.84,296.5 107.42,299.68C108.85,305.62 107.09,311.85 111.09,316.87C117.3,324.68 126.48,330.05 136.48,331.09C136.65,324.34 136.09,316.87 138.79,310.55C144.3,299.05 156.58,292.64 161.22,281.29C163.85,275.47 166.33,269.81 167.23,263.42C168.86,251.68 169.94,239.88 170.46,228.03C170.75,221.8 171.5,212.74 178.43,210.25C182.88,208.64 188.09,210.05 192.36,211.63C198.33,213.98 204.34,216.58 209.39,220.6C215.69,225.68 222.31,230.28 228.27,235.8C231.68,226.67 235.01,217.97 241.56,210.55C252.16,198.48 267.15,189.79 281.84,183.64C287.28,181.21 292.27,177.98 297.86,175.85C304.81,173.17 312.68,168.16 315.8,161.13C318.46,152.75 317.31,142.58 315.88,134.03C313.56,120.68 314.18,106.54 316.17,93.18C317.59,83.88 320.78,75.11 324.78,66.64C327.11,61.61 330.33,57.12 334.05,53.03C338.79,47.89 342.93,42.68 348.77,38.69C352.77,35.94 357.02,32.24 361.7,30.84C365.52,29.52 369.55,32.99 369.25,36.89C368.98,41.28 367.67,45.56 367.48,49.99C367.08,56.86 369.03,63.7 372.38,69.67C375.13,74.48 379.53,78.66 383.45,82.55C387.95,87.01 393.05,90.07 398.2,93.68C406.72,99.75 416.2,104.16 424.64,110.38C431.9,115.17 437.41,121.4 443.54,127.47C447.61,131.56 450.8,136.2 454.09,140.91C465.27,156.37 472.17,175.39 475.79,194.01C477.85,202.67 477.51,211.19 478.19,219.99C478.67,227.79 478.15,235.53 477.3,243.28C476.51,250.25 474.31,256.9 473.62,263.89C473.06,269.44 472.03,275.43 472.87,280.97C473.53,284.24 474.97,288.16 477.67,290.29C480.69,291.92 485.02,291.08 488.15,290.12C496.27,287.41 502.2,280.36 505.92,272.91C509.79,265.54 510.97,257.45 515.06,250.19C519.59,241.39 525.57,233.53 532.55,226.53C538.2,220.91 545.65,217.29 552.86,214.08C560.39,210.7 569.2,208.25 577.5,208.86C582.88,209.22 587.01,214.5 585.6,219.82C584.18,225.85 582.67,231.75 582.56,238C582.33,247.56 582.13,257.6 584.14,266.99C587.37,279.69 593.74,290.88 601.91,301.04C609.26,311.45 616.89,322.57 621.43,334.53C626.34,348.51 628.44,363.24 628.01,378.04C627.51,387.22 624.86,396.23 619.94,404.01C617.49,407.9 614.19,411.09 611.89,415C610.29,417.77 608.49,420.98 608.44,424.25C608.38,427.61 608.71,430.93 608.42,434.29" style="fill:rgb(128,128,128);fill-opacity:0;fill-rule:nonzero;stroke:black;stroke-width:0.96px;"/>
            </g>
        </g>
    </g>
</svg>
