M48
; DRILL file {KiCad 8.0.4} date 2024-08-28T17:13:40-0700
; FORMAT={-:-/ absolute / inch / decimal}
; #@! TF.CreationDate,2024-08-28T17:13:40-07:00
; #@! TF.GenerationSoftware,Kicad,Pcbnew,8.0.4
; #@! TF.FileFunction,Plated,1,2,PTH
FMAT,2
INCH
; #@! TA.AperFunction,Plated,PTH,ViaDrill
T1C0.0118
; #@! TA.AperFunction,Plated,PTH,ComponentDrill
T2C0.0276
; #@! TA.AperFunction,Plated,PTH,ComponentDrill
T3C0.0315
; #@! TA.AperFunction,Plated,PTH,ComponentDrill
T4C0.0354
; #@! TA.AperFunction,Plated,PTH,ComponentDrill
T5C0.0402
%
G90
G05
T1
X6.5404Y-3.395
T2
X6.7441Y-3.1653
X6.7933Y-3.08
X6.8123Y-3.2046
X6.8615Y-3.1194
X6.8805Y-3.244
X6.9297Y-3.1588
T3
X5.8681Y-4.5464
X5.8681Y-4.9464
X5.8715Y-4.0098
X5.8715Y-4.4098
X5.8789Y-3.6478
X5.895Y-3.7951
X5.895Y-3.8739
X6.0494Y-3.5494
X6.1484Y-3.4925
X6.3189Y-3.3941
X6.3405Y-3.2211
X6.3678Y-3.5113
X6.3678Y-3.7082
X6.4118Y-3.1878
X6.4738Y-3.3755
X6.4738Y-3.4755
X6.4738Y-3.5755
X6.4738Y-3.6755
X6.6774Y-3.8276
X6.6774Y-4.2276
X6.7738Y-3.3755
X6.7738Y-3.4755
X6.7738Y-3.5755
X6.7738Y-3.6755
X6.8888Y-4.0713
X6.8888Y-4.4713
X6.8919Y-4.5932
X6.8919Y-4.9932
X6.8947Y-3.5262
X6.8947Y-3.723
T4
X5.8156Y-5.5028
X5.9861Y-5.6012
X6.316Y-3.8114
X6.416Y-3.8114
X6.7606Y-5.6023
X6.9324Y-5.5054
T5
X5.5073Y-5.3065
X5.5077Y-3.514
X7.2451Y-5.2785
X7.2455Y-3.486
T2
G00X6.6675Y-3.046
M15
G01X6.6517Y-3.0733
M16
G05
G00X7.022Y-3.2507
M15
G01X7.0063Y-3.278
M16
G05
T3
G00X5.8557Y-3.418
M15
G01X5.8695Y-3.4419
M16
G05
G00X5.9415Y-3.173
M15
G01X5.9278Y-3.1491
M16
G05
G00X5.9409Y-3.3688
M15
G01X5.9547Y-3.3926
M16
G05
G00X6.1252Y-3.2942
M15
G01X6.1114Y-3.2704
M16
G05
G00X6.2104Y-3.245
M15
G01X6.1967Y-3.2211
M16
G05
M30
