%TF.GenerationSoftware,KiCad,Pcbnew,8.0.4*%
%TF.CreationDate,2024-10-02T18:02:59-07:00*%
%TF.ProjectId,EMFbadgeforMAKE-sizedfor3inchbagLCSCassembly,454d4662-6164-4676-9566-6f724d414b45,rev?*%
%TF.SameCoordinates,Original*%
%TF.FileFunction,Copper,L2,Bot*%
%TF.FilePolarity,Positive*%
%FSLAX46Y46*%
G04 Gerber Fmt 4.6, Leading zero omitted, Abs format (unit mm)*
G04 Created by KiCad (PCBNEW 8.0.4) date 2024-10-02 18:02:59*
%MOMM*%
%LPD*%
G01*
G04 APERTURE LIST*
G04 Aperture macros list*
%AMHorizOval*
0 Thick line with rounded ends*
0 $1 width*
0 $2 $3 position (X,Y) of the first rounded end (center of the circle)*
0 $4 $5 position (X,Y) of the second rounded end (center of the circle)*
0 Add line between two ends*
20,1,$1,$2,$3,$4,$5,0*
0 Add two circle primitives to create the rounded ends*
1,1,$1,$2,$3*
1,1,$1,$4,$5*%
%AMRotRect*
0 Rectangle, with rotation*
0 The origin of the aperture is its center*
0 $1 length*
0 $2 width*
0 $3 Rotation angle, in degrees counterclockwise*
0 Add horizontal line*
21,1,$1,$2,0,0,$3*%
G04 Aperture macros list end*
%TA.AperFunction,ComponentPad*%
%ADD10HorizOval,1.700000X-0.250000X0.433013X0.250000X-0.433013X0*%
%TD*%
%TA.AperFunction,ComponentPad*%
%ADD11HorizOval,0.800000X-0.175000X0.303109X0.175000X-0.303109X0*%
%TD*%
%TA.AperFunction,ComponentPad*%
%ADD12C,2.700000*%
%TD*%
%TA.AperFunction,ComponentPad*%
%ADD13C,1.600000*%
%TD*%
%TA.AperFunction,ComponentPad*%
%ADD14O,1.600000X1.600000*%
%TD*%
%TA.AperFunction,ComponentPad*%
%ADD15RotRect,1.600000X2.400000X330.000000*%
%TD*%
%TA.AperFunction,ComponentPad*%
%ADD16HorizOval,1.300000X-0.075000X-0.129904X0.075000X0.129904X0*%
%TD*%
%TA.AperFunction,ComponentPad*%
%ADD17R,2.000000X2.000000*%
%TD*%
%TA.AperFunction,ComponentPad*%
%ADD18C,2.000000*%
%TD*%
%TA.AperFunction,ComponentPad*%
%ADD19C,1.800000*%
%TD*%
%TA.AperFunction,ComponentPad*%
%ADD20R,1.600000X1.600000*%
%TD*%
%TA.AperFunction,ComponentPad*%
%ADD21R,1.200000X1.200000*%
%TD*%
%TA.AperFunction,ComponentPad*%
%ADD22C,1.200000*%
%TD*%
%TA.AperFunction,ComponentPad*%
%ADD23RotRect,1.200000X1.200000X205.000000*%
%TD*%
%TA.AperFunction,ViaPad*%
%ADD24C,0.600000*%
%TD*%
%TA.AperFunction,Conductor*%
%ADD25C,0.500000*%
%TD*%
G04 APERTURE END LIST*
D10*
%TO.P,J1,R*%
%TO.N,Net-(C1-Pad2)*%
X148910000Y-87120127D03*
D11*
%TO.P,J1,RN*%
%TO.N,unconnected-(J1-PadRN)*%
X151075063Y-85870127D03*
D12*
%TO.P,J1,S*%
%TO.N,GND*%
X150740127Y-80290000D03*
D10*
%TO.P,J1,T*%
%TO.N,Net-(C2-Pad2)*%
X157570254Y-82120127D03*
D11*
%TO.P,J1,TN*%
%TO.N,unconnected-(J1-PadTN)*%
X155405191Y-83370127D03*
%TD*%
D13*
%TO.P,R4,1*%
%TO.N,Net-(U1B--)*%
X174975000Y-113570000D03*
D14*
%TO.P,R4,2*%
%TO.N,Net-(C2-Pad1)*%
X174975000Y-103410000D03*
%TD*%
D15*
%TO.P,SW1,*%
%TO.N,*%
X169153335Y-77715000D03*
X178160000Y-82915000D03*
D16*
%TO.P,SW1,1,A*%
%TO.N,Net-(AAA_Battery1--)*%
X171199617Y-80570736D03*
%TO.P,SW1,2,B*%
%TO.N,GND*%
X172931668Y-81570735D03*
%TO.P,SW1,3,C*%
%TO.N,unconnected-(SW1A-C-Pad3)*%
X174663718Y-82570736D03*
%TO.P,SW1,4,A*%
%TO.N,-VDC*%
X172649617Y-78059263D03*
%TO.P,SW1,5,B*%
%TO.N,Net-(AAA_Battery2--)*%
X174381668Y-79059263D03*
%TO.P,SW1,6,C*%
%TO.N,unconnected-(SW1B-C-Pad6)*%
X176113718Y-80059263D03*
%TD*%
D13*
%TO.P,R5,1*%
%TO.N,Net-(D1-A)*%
X169605960Y-107380047D03*
D14*
%TO.P,R5,2*%
%TO.N,+VDC*%
X169605960Y-97220047D03*
%TD*%
D17*
%TO.P,AAA_Battery1,1,+*%
%TO.N,+VDC*%
X184035000Y-88545000D03*
D18*
%TO.P,AAA_Battery1,2,-*%
%TO.N,Net-(AAA_Battery1--)*%
X184025000Y-134075000D03*
%TD*%
D19*
%TO.P,D1,1,K*%
%TO.N,-VDC*%
X162967187Y-96809411D03*
%TO.P,D1,2,A*%
%TO.N,Net-(D1-A)*%
X160427187Y-96809411D03*
%TD*%
D13*
%TO.P,C4,1*%
%TO.N,GND*%
X156169937Y-88710000D03*
%TO.P,C4,2*%
%TO.N,Net-(C2-Pad2)*%
X160500064Y-86210000D03*
%TD*%
%TO.P,C5,1*%
%TO.N,Net-(U1B--)*%
X175125036Y-89565067D03*
%TO.P,C5,2*%
%TO.N,Net-(C2-Pad1)*%
X175125036Y-94565067D03*
%TD*%
D20*
%TO.P,U1,1*%
%TO.N,Net-(C1-Pad1)*%
X164434452Y-93356797D03*
D14*
%TO.P,U1,2,-*%
%TO.N,Net-(U1A--)*%
X164434452Y-90816797D03*
%TO.P,U1,3,+*%
%TO.N,GND*%
X164434452Y-88276797D03*
%TO.P,U1,4,V-*%
%TO.N,-VDC*%
X164434452Y-85736797D03*
%TO.P,U1,5,+*%
%TO.N,GND*%
X172054452Y-85736797D03*
%TO.P,U1,6,-*%
%TO.N,Net-(U1B--)*%
X172054452Y-88276797D03*
%TO.P,U1,7*%
%TO.N,Net-(C2-Pad1)*%
X172054452Y-90816797D03*
%TO.P,U1,8,V+*%
%TO.N,+VDC*%
X172054452Y-93356797D03*
%TD*%
D19*
%TO.P,I2,1,1*%
%TO.N,GND*%
X152047121Y-142270000D03*
%TO.P,I2,2,2*%
%TO.N,Net-(I2-Pad2)*%
X147716994Y-139770000D03*
%TD*%
D13*
%TO.P,C6,1*%
%TO.N,Net-(U1A--)*%
X161741280Y-89187682D03*
%TO.P,C6,2*%
%TO.N,Net-(C1-Pad1)*%
X161741280Y-94187682D03*
%TD*%
%TO.P,R2,1*%
%TO.N,Net-(I1-Pad2)*%
X175053918Y-126828176D03*
D14*
%TO.P,R2,2*%
%TO.N,Net-(U1B--)*%
X175053918Y-116668176D03*
%TD*%
D21*
%TO.P,C1,1*%
%TO.N,Net-(C1-Pad1)*%
X149733240Y-98396541D03*
D22*
%TO.P,C1,2*%
%TO.N,Net-(C1-Pad2)*%
X149733240Y-96396541D03*
%TD*%
D13*
%TO.P,C3,1*%
%TO.N,GND*%
X153654836Y-90155181D03*
%TO.P,C3,2*%
%TO.N,Net-(C1-Pad2)*%
X149324709Y-92655181D03*
%TD*%
D19*
%TO.P,I1,1,1*%
%TO.N,GND*%
X171718005Y-142298909D03*
%TO.P,I1,2,2*%
%TO.N,Net-(I1-Pad2)*%
X176081792Y-139837210D03*
%TD*%
D13*
%TO.P,R3,1*%
%TO.N,Net-(U1A--)*%
X149135000Y-112010000D03*
D14*
%TO.P,R3,2*%
%TO.N,Net-(C1-Pad1)*%
X149135000Y-101850000D03*
%TD*%
D17*
%TO.P,AAA_Battery2,1,+*%
%TO.N,Net-(AAA_Battery1--)*%
X139859999Y-134065000D03*
D18*
%TO.P,AAA_Battery2,2,-*%
%TO.N,Net-(AAA_Battery2--)*%
X139860000Y-89365000D03*
%TD*%
D13*
%TO.P,R1,1*%
%TO.N,Net-(I2-Pad2)*%
X149048751Y-125637354D03*
D14*
%TO.P,R1,2*%
%TO.N,Net-(U1A--)*%
X149048751Y-115477354D03*
%TD*%
D23*
%TO.P,C2,1*%
%TO.N,Net-(C2-Pad1)*%
X162860931Y-80971115D03*
D22*
%TO.P,C2,2*%
%TO.N,Net-(C2-Pad2)*%
X161048315Y-81816352D03*
%TD*%
D24*
%TO.N,GND*%
X166127375Y-86232661D03*
%TD*%
D25*
%TO.N,Net-(AAA_Battery2--)*%
X174281668Y-79232468D02*
X174223871Y-79290265D01*
X141008706Y-84724929D02*
X139885000Y-84724929D01*
X166805971Y-75185971D02*
X163474531Y-71854531D01*
X170852231Y-79290265D02*
X170538266Y-79604230D01*
X170538266Y-79604230D02*
X168122688Y-79604230D01*
X168122688Y-79604230D02*
X166805971Y-78287513D01*
X147310000Y-80515000D02*
X145218635Y-80515000D01*
X160731097Y-71854531D02*
X156062852Y-76522776D01*
X166805971Y-78287513D02*
X166805971Y-75185971D01*
X156062852Y-76522776D02*
X153177224Y-76522776D01*
X174223871Y-79290265D02*
X170852231Y-79290265D01*
X153177224Y-76522776D02*
X151810000Y-77890000D01*
X163474531Y-71854531D02*
X160731097Y-71854531D01*
X151810000Y-77890000D02*
X149935000Y-77890000D01*
X149935000Y-77890000D02*
X147310000Y-80515000D01*
X145218635Y-80515000D02*
X141008706Y-84724929D01*
X139885000Y-84724929D02*
X139885000Y-89315000D01*
%TO.N,Net-(C1-Pad2)*%
X149575000Y-96171900D02*
X149360000Y-95956900D01*
X149360000Y-87570127D02*
X148910000Y-87120127D01*
X149360000Y-95956900D02*
X149360000Y-87570127D01*
%TO.N,Net-(C2-Pad2)*%
X160842509Y-82027730D02*
X160842509Y-85867555D01*
X160842509Y-85867555D02*
X160500064Y-86210000D01*
X160504779Y-81690000D02*
X160842509Y-82027730D01*
X157570254Y-82120127D02*
X158000381Y-81690000D01*
X160500064Y-86210000D02*
X160500064Y-85515064D01*
X157570254Y-82585254D02*
X157570254Y-82120127D01*
X160500064Y-85515064D02*
X157570254Y-82585254D01*
%TO.N,GND*%
X153654836Y-86879836D02*
X150740127Y-83965127D01*
X163069326Y-77603366D02*
X157936816Y-77603366D01*
X164865428Y-88029634D02*
X164135700Y-88029634D01*
X153654836Y-87390000D02*
X153654836Y-86879836D01*
X166127375Y-86767687D02*
X164865428Y-88029634D01*
X157936816Y-77603366D02*
X155250182Y-80290000D01*
X156169937Y-88710000D02*
X154974836Y-88710000D01*
X155250182Y-80290000D02*
X150740127Y-80290000D01*
X153654836Y-90155181D02*
X153654836Y-87390000D01*
X154974836Y-88710000D02*
X153654836Y-87390000D01*
X170955594Y-85489634D02*
X163069326Y-77603366D01*
X171755700Y-85489634D02*
X170955594Y-85489634D01*
X150740127Y-83965127D02*
X150740127Y-80290000D01*
X166127375Y-86232661D02*
X166127375Y-86767687D01*
%TO.N,Net-(U1A--)*%
X162139656Y-89187682D02*
X162753748Y-89187682D01*
X162753748Y-89187682D02*
X164135700Y-90569634D01*
%TO.N,Net-(U1B--)*%
X171755700Y-88029634D02*
X173538014Y-88029634D01*
X173538014Y-88029634D02*
X178195000Y-92686620D01*
X178195000Y-92686620D02*
X178195000Y-110350000D01*
X178195000Y-110350000D02*
X174975000Y-113570000D01*
%TO.N,Net-(C1-Pad1)*%
X149575000Y-98686500D02*
X149575000Y-99006500D01*
X159639656Y-94187682D02*
X163057652Y-94187682D01*
X149575000Y-99006500D02*
X149135000Y-99446500D01*
X156431940Y-97327492D02*
X156499846Y-97327492D01*
X149135000Y-101850000D02*
X151909432Y-101850000D01*
X151909432Y-101850000D02*
X156431940Y-97327492D01*
X163057652Y-94187682D02*
X164135700Y-93109634D01*
X156499846Y-97327492D02*
X159639656Y-94187682D01*
X149135000Y-101850000D02*
X149135000Y-99446500D01*
%TO.N,Net-(C2-Pad1)*%
X169705000Y-88518934D02*
X172002863Y-90816797D01*
X174826284Y-103261284D02*
X174975000Y-103410000D01*
X174826284Y-91817904D02*
X174826284Y-103261284D01*
X163091820Y-81155118D02*
X163121510Y-81125428D01*
X173825177Y-90816797D02*
X174826284Y-91817904D01*
X169705000Y-86760000D02*
X169705000Y-88518934D01*
X164070428Y-81125428D02*
X169705000Y-86760000D01*
X172002863Y-90816797D02*
X173825177Y-90816797D01*
X163121510Y-81125428D02*
X164070428Y-81125428D01*
%TO.N,Net-(AAA_Battery1--)*%
X139885000Y-134015000D02*
X142172961Y-136302961D01*
X181467383Y-136023305D02*
X181747039Y-136302961D01*
X156441577Y-136302961D02*
X158329250Y-138190634D01*
X159238130Y-138190634D02*
X160286838Y-137141926D01*
X142172961Y-136302961D02*
X156441577Y-136302961D01*
X181747039Y-136302961D02*
X184035000Y-134015000D01*
X165600290Y-136862271D02*
X166439256Y-136023305D01*
X160286838Y-136862271D02*
X165600290Y-136862271D01*
X160286838Y-137141926D02*
X160286838Y-136862271D01*
X158329250Y-138190634D02*
X159238130Y-138190634D01*
X166439256Y-136023305D02*
X181467383Y-136023305D01*
%TO.N,Net-(AAA_Battery2--)*%
X174281668Y-79232468D02*
X174179207Y-79334929D01*
%TO.N,Net-(D1-A)*%
X160435000Y-97750000D02*
X161048862Y-98363862D01*
X161048862Y-98363862D02*
X166144500Y-98363862D01*
X169605960Y-101825322D02*
X169605960Y-107380047D01*
X166144500Y-98363862D02*
X169605960Y-101825322D01*
%TD*%
M02*
