%TF.GenerationSoftware,KiCad,Pcbnew,8.0.4*%
%TF.CreationDate,2024-08-28T17:13:40-07:00*%
%TF.ProjectId,EMFbadgeforMAKE-sizedfor3inchbagLCSCassembly,454d4662-6164-4676-9566-6f724d414b45,rev?*%
%TF.SameCoordinates,Original*%
%TF.FileFunction,Copper,L1,Top*%
%TF.FilePolarity,Positive*%
%FSLAX46Y46*%
G04 Gerber Fmt 4.6, Leading zero omitted, Abs format (unit mm)*
G04 Created by KiCad (PCBNEW 8.0.4) date 2024-08-28 17:13:40*
%MOMM*%
%LPD*%
G01*
G04 APERTURE LIST*
G04 Aperture macros list*
%AMHorizOval*
0 Thick line with rounded ends*
0 $1 width*
0 $2 $3 position (X,Y) of the first rounded end (center of the circle)*
0 $4 $5 position (X,Y) of the second rounded end (center of the circle)*
0 Add line between two ends*
20,1,$1,$2,$3,$4,$5,0*
0 Add two circle primitives to create the rounded ends*
1,1,$1,$2,$3*
1,1,$1,$4,$5*%
%AMRotRect*
0 Rectangle, with rotation*
0 The origin of the aperture is its center*
0 $1 length*
0 $2 width*
0 $3 Rotation angle, in degrees counterclockwise*
0 Add horizontal line*
21,1,$1,$2,0,0,$3*%
G04 Aperture macros list end*
%TA.AperFunction,ComponentPad*%
%ADD10C,1.800000*%
%TD*%
%TA.AperFunction,ComponentPad*%
%ADD11HorizOval,1.700000X-0.250000X0.433013X0.250000X-0.433013X0*%
%TD*%
%TA.AperFunction,ComponentPad*%
%ADD12HorizOval,0.800000X-0.175000X0.303109X0.175000X-0.303109X0*%
%TD*%
%TA.AperFunction,ComponentPad*%
%ADD13R,2.000000X2.000000*%
%TD*%
%TA.AperFunction,ComponentPad*%
%ADD14C,2.000000*%
%TD*%
%TA.AperFunction,ComponentPad*%
%ADD15C,1.600000*%
%TD*%
%TA.AperFunction,ComponentPad*%
%ADD16O,1.600000X1.600000*%
%TD*%
%TA.AperFunction,ComponentPad*%
%ADD17RotRect,1.600000X2.400000X330.000000*%
%TD*%
%TA.AperFunction,ComponentPad*%
%ADD18HorizOval,1.300000X-0.075000X-0.129904X0.075000X0.129904X0*%
%TD*%
%TA.AperFunction,ComponentPad*%
%ADD19R,1.600000X1.600000*%
%TD*%
%TA.AperFunction,ComponentPad*%
%ADD20RotRect,1.600000X1.600000X205.000000*%
%TD*%
%TA.AperFunction,ViaPad*%
%ADD21C,0.600000*%
%TD*%
%TA.AperFunction,Conductor*%
%ADD22C,0.500000*%
%TD*%
G04 APERTURE END LIST*
D10*
%TO.P,I2,1,1*%
%TO.N,GND*%
X152047121Y-142270000D03*
%TO.P,I2,2,2*%
%TO.N,Net-(I2-Pad2)*%
X147716994Y-139770000D03*
%TD*%
%TO.P,I1,1,1*%
%TO.N,GND*%
X171718005Y-142298909D03*
%TO.P,I1,2,2*%
%TO.N,Net-(I1-Pad2)*%
X176081792Y-139837210D03*
%TD*%
D11*
%TO.P,J1,R*%
%TO.N,Net-(C1-Pad2)*%
X148910000Y-87120127D03*
D12*
%TO.P,J1,RN*%
%TO.N,unconnected-(J1-PadRN)*%
X151075063Y-85870127D03*
D11*
%TO.P,J1,S*%
%TO.N,GND*%
X150740127Y-80290000D03*
%TO.P,J1,T*%
%TO.N,Net-(C2-Pad2)*%
X157570254Y-82120127D03*
D12*
%TO.P,J1,TN*%
%TO.N,unconnected-(J1-PadTN)*%
X155405191Y-83370127D03*
%TD*%
D13*
%TO.P,AAA_Battery1,1,+*%
%TO.N,N/C*%
X139885004Y-134785002D03*
D14*
%TO.P,AAA_Battery1,2,-*%
X139895003Y-89255004D03*
%TD*%
D13*
%TO.P,AAA_Battery1,1,+*%
%TO.N,+VDC*%
X184035000Y-88545000D03*
D14*
%TO.P,AAA_Battery1,2,-*%
%TO.N,Net-(AAA_Battery1--)*%
X184025000Y-134075000D03*
%TD*%
D15*
%TO.P,R4,1*%
%TO.N,Net-(U1B--)*%
X174975000Y-113570000D03*
D16*
%TO.P,R4,2*%
%TO.N,Net-(C2-Pad1)*%
X174975000Y-103410000D03*
%TD*%
D17*
%TO.P,SW1,*%
%TO.N,*%
X169153335Y-77715000D03*
X178160000Y-82915000D03*
D18*
%TO.P,SW1,1,A*%
%TO.N,Net-(AAA_Battery1--)*%
X171199617Y-80570736D03*
%TO.P,SW1,2,B*%
%TO.N,GND*%
X172931668Y-81570735D03*
%TO.P,SW1,3,C*%
%TO.N,unconnected-(SW1A-C-Pad3)*%
X174663718Y-82570736D03*
%TO.P,SW1,4,A*%
%TO.N,-VDC*%
X172649617Y-78059263D03*
%TO.P,SW1,5,B*%
%TO.N,Net-(AAA_Battery2--)*%
X174381668Y-79059263D03*
%TO.P,SW1,6,C*%
%TO.N,unconnected-(SW1B-C-Pad6)*%
X176113718Y-80059263D03*
%TD*%
D15*
%TO.P,R5,1*%
%TO.N,Net-(D1-A)*%
X169605960Y-107380047D03*
D16*
%TO.P,R5,2*%
%TO.N,+VDC*%
X169605960Y-97220047D03*
%TD*%
D10*
%TO.P,D1,1,K*%
%TO.N,-VDC*%
X162967187Y-96809411D03*
%TO.P,D1,2,A*%
%TO.N,Net-(D1-A)*%
X160427187Y-96809411D03*
%TD*%
D15*
%TO.P,C4,1*%
%TO.N,GND*%
X156169937Y-88710000D03*
%TO.P,C4,2*%
%TO.N,Net-(C2-Pad2)*%
X160500064Y-86210000D03*
%TD*%
%TO.P,C5,1*%
%TO.N,Net-(U1B--)*%
X175125036Y-89565067D03*
%TO.P,C5,2*%
%TO.N,Net-(C2-Pad1)*%
X175125036Y-94565067D03*
%TD*%
D19*
%TO.P,U1,1*%
%TO.N,Net-(C1-Pad1)*%
X164434452Y-93356797D03*
D16*
%TO.P,U1,2,-*%
%TO.N,Net-(U1A--)*%
X164434452Y-90816797D03*
%TO.P,U1,3,+*%
%TO.N,GND*%
X164434452Y-88276797D03*
%TO.P,U1,4,V-*%
%TO.N,-VDC*%
X164434452Y-85736797D03*
%TO.P,U1,5,+*%
%TO.N,GND*%
X172054452Y-85736797D03*
%TO.P,U1,6,-*%
%TO.N,Net-(U1B--)*%
X172054452Y-88276797D03*
%TO.P,U1,7*%
%TO.N,Net-(C2-Pad1)*%
X172054452Y-90816797D03*
%TO.P,U1,8,V+*%
%TO.N,+VDC*%
X172054452Y-93356797D03*
%TD*%
D15*
%TO.P,C6,1*%
%TO.N,Net-(U1A--)*%
X161741280Y-89187682D03*
%TO.P,C6,2*%
%TO.N,Net-(C1-Pad1)*%
X161741280Y-94187682D03*
%TD*%
%TO.P,R2,1*%
%TO.N,Net-(I1-Pad2)*%
X175053918Y-126828176D03*
D16*
%TO.P,R2,2*%
%TO.N,Net-(U1B--)*%
X175053918Y-116668176D03*
%TD*%
D19*
%TO.P,C1,1*%
%TO.N,Net-(C1-Pad1)*%
X149733240Y-98396541D03*
D15*
%TO.P,C1,2*%
%TO.N,Net-(C1-Pad2)*%
X149733240Y-96396541D03*
%TD*%
%TO.P,C3,1*%
%TO.N,GND*%
X153654836Y-90155181D03*
%TO.P,C3,2*%
%TO.N,Net-(C1-Pad2)*%
X149324709Y-92655181D03*
%TD*%
%TO.P,R3,1*%
%TO.N,Net-(U1A--)*%
X149135000Y-112010000D03*
D16*
%TO.P,R3,2*%
%TO.N,Net-(C1-Pad1)*%
X149135000Y-101850000D03*
%TD*%
D15*
%TO.P,R1,1*%
%TO.N,Net-(I2-Pad2)*%
X149048751Y-125637354D03*
D16*
%TO.P,R1,2*%
%TO.N,Net-(U1A--)*%
X149048751Y-115477354D03*
%TD*%
D20*
%TO.P,C2,1*%
%TO.N,Net-(C2-Pad1)*%
X162860931Y-80971115D03*
D15*
%TO.P,C2,2*%
%TO.N,Net-(C2-Pad2)*%
X161048315Y-81816352D03*
%TD*%
D21*
%TO.N,GND*%
X166127375Y-86232661D03*
%TD*%
D22*
%TO.N,Net-(I1-Pad2)*%
X176081792Y-140005309D02*
X176081792Y-127856050D01*
X176081792Y-127856050D02*
X175053918Y-126828176D01*
%TO.N,GND*%
X140044483Y-137453684D02*
X137610550Y-137453684D01*
X137610550Y-137453684D02*
X136433167Y-136276301D01*
X136433167Y-136276301D02*
X136433167Y-86658010D01*
X144860799Y-142270000D02*
X140044483Y-137453684D01*
X171520997Y-142270000D02*
X144860799Y-142270000D01*
X136433167Y-86658010D02*
X140774223Y-86658010D01*
X140774223Y-86658010D02*
X147142233Y-80290000D01*
X147142233Y-80290000D02*
X150740127Y-80290000D01*
%TO.N,Net-(I2-Pad2)*%
X149048751Y-125637354D02*
X145801240Y-128884865D01*
X145801240Y-128884865D02*
X145801240Y-137854246D01*
X145801240Y-137854246D02*
X147716994Y-139770000D01*
X147716994Y-139770000D02*
X147716994Y-139859837D01*
%TO.N,+VDC*%
X169605960Y-95805289D02*
X172054452Y-93356797D01*
X173207876Y-94561810D02*
X181217125Y-94561810D01*
X184035000Y-91743935D02*
X184035000Y-89315000D01*
X169605960Y-97220047D02*
X169605960Y-95805289D01*
X171807289Y-93109634D02*
X173207876Y-94510221D01*
X171755700Y-93109634D02*
X171807289Y-93109634D01*
X172054452Y-93356797D02*
X173207876Y-94510221D01*
X181217125Y-94561810D02*
X184035000Y-91743935D01*
X173207876Y-94510221D02*
X173207876Y-94561810D01*
%TO.N,-VDC*%
X167329545Y-88683479D02*
X164225723Y-85579657D01*
X171572912Y-78232468D02*
X172549617Y-78232468D01*
X163999108Y-96801598D02*
X167329545Y-93471161D01*
X164225723Y-85579657D02*
X171572912Y-78232468D01*
X162975000Y-96801598D02*
X163999108Y-96801598D01*
X167329545Y-93471161D02*
X167329545Y-88683479D01*
%TO.N,GND*%
X166870402Y-85489634D02*
X166127375Y-86232661D01*
X171755700Y-85489634D02*
X166870402Y-85489634D01*
%TO.N,Net-(U1A--)*%
X161741280Y-89187682D02*
X160001103Y-89187682D01*
X155966047Y-93222738D02*
X155966047Y-105178953D01*
X155966047Y-105178953D02*
X149135000Y-112010000D01*
X149135000Y-115391105D02*
X149048751Y-115477354D01*
X160001103Y-89187682D02*
X155966047Y-93222738D01*
X149135000Y-112010000D02*
X149135000Y-115391105D01*
%TO.N,Net-(U1B--)*%
X175385843Y-116649988D02*
X174935000Y-116199145D01*
X174935000Y-116199145D02*
X174935000Y-113923737D01*
X174935000Y-113923737D02*
X175306925Y-113551812D01*
%TO.N,Net-(AAA_Battery1--)*%
X174327415Y-80945440D02*
X173503597Y-80121622D01*
X177121607Y-81025771D02*
X176672662Y-81474716D01*
X180958369Y-83144923D02*
X178839217Y-81025771D01*
X184035000Y-134015000D02*
X186419056Y-131630944D01*
X182030889Y-83144923D02*
X180958369Y-83144923D01*
X176672662Y-81474716D02*
X175477485Y-81474716D01*
X173503597Y-80121622D02*
X171575526Y-80121622D01*
X186419056Y-87533090D02*
X182030889Y-83144923D01*
X171575526Y-80121622D02*
X171299617Y-80397531D01*
X186419056Y-131630944D02*
X186419056Y-87533090D01*
X178839217Y-81025771D02*
X177121607Y-81025771D01*
X174948209Y-80945440D02*
X174327415Y-80945440D01*
X171299617Y-80397531D02*
X171619878Y-80077270D01*
X175477485Y-81474716D02*
X174948209Y-80945440D01*
%TD*%
M02*
