%TF.GenerationSoftware,KiCad,Pcbnew,7.0.2-0*%
%TF.CreationDate,2024-04-22T23:11:48-05:00*%
%TF.ProjectId,SAOpowerboard_panelized,53414f70-6f77-4657-9262-6f6172645f70,rev?*%
%TF.SameCoordinates,Original*%
%TF.FileFunction,Drillmap*%
%TF.FilePolarity,Positive*%
%FSLAX45Y45*%
G04 Gerber Fmt 4.5, Leading zero omitted, Abs format (unit mm)*
G04 Created by KiCad (PCBNEW 7.0.2-0) date 2024-04-22 23:11:48*
%MOMM*%
%LPD*%
G01*
G04 APERTURE LIST*
%ADD10C,0.037041*%
%ADD11C,0.200000*%
%ADD12C,0.040000*%
%ADD13C,0.101600*%
%ADD14C,0.120000*%
G04 APERTURE END LIST*
D10*
X23927880Y-2288187D02*
X23916829Y-2271468D01*
X23927880Y-4987293D02*
X23916829Y-4970573D01*
X23927880Y-7686398D02*
X23916829Y-7669678D01*
X21147681Y-2288187D02*
X21136630Y-2271468D01*
X21147681Y-4987293D02*
X21136630Y-4970573D01*
X21147681Y-7686398D02*
X21136630Y-7669678D01*
X18367481Y-2288187D02*
X18356430Y-2271468D01*
X18367481Y-4987293D02*
X18356430Y-4970573D01*
X23879020Y-2224787D02*
X23864954Y-2210473D01*
X23879020Y-4923892D02*
X23864954Y-4909578D01*
X23879020Y-7622998D02*
X23864954Y-7608684D01*
X21098820Y-2224787D02*
X21084755Y-2210473D01*
X21098820Y-4923892D02*
X21084755Y-4909578D01*
X21098820Y-7622998D02*
X21084755Y-7608684D01*
X18318620Y-2224787D02*
X18304555Y-2210473D01*
X18318620Y-4923892D02*
X18304555Y-4909578D01*
X21577799Y-4725849D02*
X21598338Y-4730452D01*
X21577799Y-7424954D02*
X21598338Y-7429558D01*
X21577799Y-10124059D02*
X21598338Y-10128663D01*
X18797599Y-4725849D02*
X18818138Y-4730452D01*
X18797599Y-7424954D02*
X18818138Y-7429558D01*
X18797599Y-10124059D02*
X18818138Y-10128663D01*
X16017399Y-4725849D02*
X16037938Y-4730452D01*
X16017399Y-7424954D02*
X16037938Y-7429558D01*
X23586559Y-4738293D02*
X23608114Y-4736700D01*
X23586559Y-7437398D02*
X23608114Y-7435806D01*
X23586559Y-10136504D02*
X23608114Y-10134911D01*
X20806359Y-4738293D02*
X20827914Y-4736700D01*
X20806359Y-7437398D02*
X20827914Y-7435806D01*
X20806359Y-10136504D02*
X20827914Y-10134911D01*
X18026160Y-4738293D02*
X18047715Y-4736700D01*
X18026160Y-7437398D02*
X18047715Y-7435806D01*
X23564719Y-2089724D02*
X21683881Y-2089724D01*
X23564719Y-4788829D02*
X21683881Y-4788829D01*
X23564719Y-7487935D02*
X21683881Y-7487935D01*
X20784519Y-2089724D02*
X18903681Y-2089724D01*
X20784519Y-4788829D02*
X18903681Y-4788829D01*
X20784519Y-7487935D02*
X18903681Y-7487935D01*
X18004320Y-2089724D02*
X16123481Y-2089724D01*
X18004320Y-4788829D02*
X16123481Y-4788829D01*
X23729957Y-2122128D02*
X23710675Y-2114745D01*
X23729957Y-4821233D02*
X23710675Y-4813851D01*
X23729957Y-7520338D02*
X23710675Y-7512956D01*
X20949758Y-2122128D02*
X20930475Y-2114745D01*
X20949758Y-4821233D02*
X20930475Y-4813851D01*
X20949758Y-7520338D02*
X20930475Y-7512956D01*
X18169558Y-2122128D02*
X18150276Y-2114745D01*
X18169558Y-4821233D02*
X18150276Y-4813851D01*
X23690947Y-2108263D02*
X23670801Y-2102706D01*
X23690947Y-4807368D02*
X23670801Y-4801812D01*
X23690947Y-7506473D02*
X23670801Y-7500917D01*
X20910748Y-2108263D02*
X20890601Y-2102706D01*
X20910748Y-4807368D02*
X20890601Y-4801812D01*
X20910748Y-7506473D02*
X20890601Y-7500917D01*
X18130548Y-2108263D02*
X18110401Y-2102706D01*
X18130548Y-4807368D02*
X18110401Y-4801812D01*
X23608114Y-2091853D02*
X23586559Y-2090260D01*
X23608114Y-4790958D02*
X23586559Y-4789366D01*
X23608114Y-7490064D02*
X23586559Y-7488471D01*
X20827914Y-2091853D02*
X20806359Y-2090260D01*
X20827914Y-4790958D02*
X20806359Y-4789366D01*
X20827914Y-7490064D02*
X20806359Y-7488471D01*
X18047715Y-2091853D02*
X18026160Y-2090260D01*
X18047715Y-4790958D02*
X18026160Y-4789366D01*
X23980765Y-4409790D02*
X23984503Y-4389507D01*
X23980765Y-7108895D02*
X23984503Y-7088612D01*
X23980765Y-9808001D02*
X23984503Y-9787718D01*
X21200565Y-4409790D02*
X21204303Y-4389507D01*
X21200565Y-7108895D02*
X21204303Y-7088612D01*
X21200565Y-9808001D02*
X21204303Y-9787718D01*
X18420366Y-4409790D02*
X18424103Y-4389507D01*
X18420366Y-7108895D02*
X18424103Y-7088612D01*
X21662040Y-2090260D02*
X21640485Y-2091853D01*
X21662040Y-4789366D02*
X21640485Y-4790958D01*
X21662040Y-7488471D02*
X21640485Y-7490064D01*
X18881841Y-2090260D02*
X18860286Y-2091853D01*
X18881841Y-4789366D02*
X18860286Y-4790958D01*
X18881841Y-7488471D02*
X18860286Y-7490064D01*
X16101641Y-2090260D02*
X16080086Y-2091853D01*
X16101641Y-4789366D02*
X16080086Y-4790958D01*
X23767077Y-2139489D02*
X23748767Y-2130384D01*
X23767077Y-4838594D02*
X23748767Y-4829490D01*
X23767077Y-7537700D02*
X23748767Y-7528595D01*
X20986877Y-2139489D02*
X20968567Y-2130384D01*
X20986877Y-4838594D02*
X20968567Y-4829490D01*
X20986877Y-7537700D02*
X20968567Y-7528595D01*
X18206678Y-2139489D02*
X18188367Y-2130384D01*
X18206678Y-4838594D02*
X18188367Y-4829490D01*
X23904984Y-4573260D02*
X23916829Y-4557104D01*
X23904984Y-7272365D02*
X23916829Y-7256209D01*
X23904984Y-9971471D02*
X23916829Y-9955315D01*
X21124784Y-4573260D02*
X21136630Y-4557104D01*
X21124784Y-7272365D02*
X21136630Y-7256209D01*
X21124784Y-9971471D02*
X21136630Y-9955315D01*
X18344585Y-4573260D02*
X18356430Y-4557104D01*
X18344585Y-7272365D02*
X18356430Y-7256209D01*
X23690947Y-4720293D02*
X23710675Y-4713811D01*
X23690947Y-7419398D02*
X23710675Y-7412917D01*
X23690947Y-10118504D02*
X23710675Y-10112022D01*
X20910748Y-4720293D02*
X20930475Y-4713811D01*
X20910748Y-7419398D02*
X20930475Y-7412917D01*
X20910748Y-10118504D02*
X20930475Y-10112022D01*
X18130548Y-4720293D02*
X18150276Y-4713811D01*
X18130548Y-7419398D02*
X18150276Y-7412917D01*
X21662040Y-4738293D02*
X21683881Y-4738829D01*
X21662040Y-7437398D02*
X21683881Y-7437935D01*
X21662040Y-10136504D02*
X21683881Y-10137040D01*
X18881841Y-4738293D02*
X18903681Y-4738829D01*
X18881841Y-7437398D02*
X18903681Y-7437935D01*
X18881841Y-10136504D02*
X18903681Y-10137040D01*
X16101641Y-4738293D02*
X16123481Y-4738829D01*
X16101641Y-7437398D02*
X16123481Y-7437935D01*
X21301105Y-2323209D02*
X21292596Y-2341460D01*
X21301105Y-5022315D02*
X21292596Y-5040566D01*
X21301105Y-7721420D02*
X21292596Y-7739671D01*
X18520905Y-2323209D02*
X18512396Y-2341460D01*
X18520905Y-5022315D02*
X18512396Y-5040566D01*
X18520905Y-7721420D02*
X18512396Y-7739671D01*
X15740705Y-2323209D02*
X15732196Y-2341460D01*
X15740705Y-5022315D02*
X15732196Y-5040566D01*
X21413810Y-4644695D02*
X21429855Y-4656931D01*
X21413810Y-7343800D02*
X21429855Y-7356036D01*
X21413810Y-10042905D02*
X21429855Y-10055142D01*
X18633610Y-4644695D02*
X18649655Y-4656931D01*
X18633610Y-7343800D02*
X18649655Y-7356036D01*
X18633610Y-10042905D02*
X18649655Y-10055142D01*
X15853410Y-4644695D02*
X15869455Y-4656931D01*
X15853410Y-7343800D02*
X15869455Y-7356036D01*
X23767077Y-4689070D02*
X23784861Y-4679145D01*
X23767077Y-7388176D02*
X23784861Y-7378250D01*
X23767077Y-10087281D02*
X23784861Y-10077355D01*
X20986877Y-4689070D02*
X21004662Y-4679145D01*
X20986877Y-7388176D02*
X21004662Y-7378250D01*
X20986877Y-10087281D02*
X21004662Y-10077355D01*
X18206678Y-4689070D02*
X18224462Y-4679145D01*
X18206678Y-7388176D02*
X18224462Y-7378250D01*
X23892372Y-4588827D02*
X23904984Y-4573260D01*
X23892372Y-7287933D02*
X23904984Y-7272365D01*
X23892372Y-9987038D02*
X23904984Y-9971471D01*
X21112172Y-4588827D02*
X21124784Y-4573260D01*
X21112172Y-7287933D02*
X21124784Y-7272365D01*
X21112172Y-9987038D02*
X21124784Y-9971471D01*
X18331973Y-4588827D02*
X18344585Y-4573260D01*
X18331973Y-7287933D02*
X18344585Y-7272365D01*
X21557652Y-2108263D02*
X21537924Y-2114745D01*
X21557652Y-4807368D02*
X21537924Y-4813851D01*
X21557652Y-7506473D02*
X21537924Y-7512956D01*
X18777452Y-2108263D02*
X18757725Y-2114745D01*
X18777452Y-4807368D02*
X18757725Y-4813851D01*
X18777452Y-7506473D02*
X18757725Y-7512956D01*
X15997252Y-2108263D02*
X15977525Y-2114745D01*
X15997252Y-4807368D02*
X15977525Y-4813851D01*
X23710675Y-4713811D02*
X23729957Y-4706430D01*
X23710675Y-7412917D02*
X23729957Y-7405535D01*
X23710675Y-10112022D02*
X23729957Y-10104640D01*
X20930475Y-4713811D02*
X20949758Y-4706430D01*
X20930475Y-7412917D02*
X20949758Y-7405535D01*
X20930475Y-10112022D02*
X20949758Y-10104640D01*
X18150276Y-4713811D02*
X18169558Y-4706430D01*
X18150276Y-7412917D02*
X18169558Y-7405535D01*
X21398397Y-4631740D02*
X21413810Y-4644695D01*
X21398397Y-7330846D02*
X21413810Y-7343800D01*
X21398397Y-10029951D02*
X21413810Y-10042905D01*
X18618198Y-4631740D02*
X18633610Y-4644695D01*
X18618198Y-7330846D02*
X18633610Y-7343800D01*
X18618198Y-10029951D02*
X18633610Y-10042905D01*
X15837998Y-4631740D02*
X15853410Y-4644695D01*
X15837998Y-7330846D02*
X15853410Y-7343800D01*
X23916829Y-2271468D02*
X23904984Y-2255310D01*
X23916829Y-4970573D02*
X23904984Y-4954416D01*
X23916829Y-7669678D02*
X23904984Y-7653521D01*
X21136630Y-2271468D02*
X21124784Y-2255310D01*
X21136630Y-4970573D02*
X21124784Y-4954416D01*
X21136630Y-7669678D02*
X21124784Y-7653521D01*
X18356430Y-2271468D02*
X18344585Y-2255310D01*
X18356430Y-4970573D02*
X18344585Y-4954416D01*
X21518642Y-2122128D02*
X21499833Y-2130384D01*
X21518642Y-4821233D02*
X21499833Y-4829490D01*
X21518642Y-7520338D02*
X21499833Y-7528595D01*
X18738442Y-2122128D02*
X18719633Y-2130384D01*
X18738442Y-4821233D02*
X18719633Y-4829490D01*
X18738442Y-7520338D02*
X18719633Y-7528595D01*
X15958242Y-2122128D02*
X15939433Y-2130384D01*
X15958242Y-4821233D02*
X15939433Y-4829490D01*
X23818744Y-2171632D02*
X23802093Y-2160139D01*
X23818744Y-4870737D02*
X23802093Y-4859244D01*
X23818744Y-7569843D02*
X23802093Y-7558350D01*
X21038545Y-2171632D02*
X21021893Y-2160139D01*
X21038545Y-4870737D02*
X21021893Y-4859244D01*
X21038545Y-7569843D02*
X21021893Y-7558350D01*
X18258345Y-2171632D02*
X18241693Y-2160139D01*
X18258345Y-4870737D02*
X18241693Y-4859244D01*
X23988847Y-4347981D02*
X23989400Y-4326789D01*
X23988847Y-7047086D02*
X23989400Y-7025895D01*
X23988847Y-9746191D02*
X23989400Y-9725000D01*
X21208647Y-4347981D02*
X21209200Y-4326789D01*
X21208647Y-7047086D02*
X21209200Y-7025895D01*
X21208647Y-9746191D02*
X21209200Y-9725000D01*
X18428447Y-4347981D02*
X18429000Y-4326789D01*
X18428447Y-7047086D02*
X18429000Y-7025895D01*
X21446507Y-2160139D02*
X21429855Y-2171632D01*
X21446507Y-4859244D02*
X21429855Y-4870737D01*
X21446507Y-7558350D02*
X21429855Y-7569843D01*
X18666307Y-2160139D02*
X18649655Y-2171632D01*
X18666307Y-4859244D02*
X18649655Y-4870737D01*
X18666307Y-7558350D02*
X18649655Y-7569843D01*
X15886107Y-2160139D02*
X15869455Y-2171632D01*
X15886107Y-4859244D02*
X15869455Y-4870737D01*
X21619242Y-2094475D02*
X21598338Y-2098102D01*
X21619242Y-4793581D02*
X21598338Y-4797207D01*
X21619242Y-7492686D02*
X21598338Y-7496313D01*
X18839043Y-2094475D02*
X18818138Y-2098102D01*
X18839043Y-4793581D02*
X18818138Y-4797207D01*
X18839043Y-7492686D02*
X18818138Y-7496313D01*
X16058843Y-2094475D02*
X16037938Y-2098102D01*
X16058843Y-4793581D02*
X16037938Y-4797207D01*
X23976020Y-2398860D02*
X23970293Y-2379312D01*
X23976020Y-5097965D02*
X23970293Y-5078417D01*
X23976020Y-7797071D02*
X23970293Y-7777522D01*
X21195820Y-2398860D02*
X21190094Y-2379312D01*
X21195820Y-5097965D02*
X21190094Y-5078417D01*
X21195820Y-7797071D02*
X21190094Y-7777522D01*
X18415620Y-2398860D02*
X18409894Y-2379312D01*
X18415620Y-5097965D02*
X18409894Y-5078417D01*
X21320719Y-4540385D02*
X21331770Y-4557104D01*
X21320719Y-7239491D02*
X21331770Y-7256209D01*
X21320719Y-9938596D02*
X21331770Y-9955315D01*
X18540519Y-4540385D02*
X18551570Y-4557104D01*
X18540519Y-7239491D02*
X18551570Y-7256209D01*
X18540519Y-9938596D02*
X18551570Y-9955315D01*
X15760319Y-4540385D02*
X15771370Y-4557104D01*
X15760319Y-7239491D02*
X15771370Y-7256209D01*
X21683881Y-4738829D02*
X23564719Y-4738829D01*
X21683881Y-7437935D02*
X23564719Y-7437935D01*
X21683881Y-10137040D02*
X23564719Y-10137040D01*
X18903681Y-4738829D02*
X20784519Y-4738829D01*
X18903681Y-7437935D02*
X20784519Y-7437935D01*
X18903681Y-10137040D02*
X20784519Y-10137040D01*
X16123481Y-4738829D02*
X18004320Y-4738829D01*
X16123481Y-7437935D02*
X18004320Y-7437935D01*
X21463738Y-2149416D02*
X21446507Y-2160139D01*
X21463738Y-4848521D02*
X21446507Y-4859244D01*
X21463738Y-7547626D02*
X21446507Y-7558350D01*
X18683538Y-2149416D02*
X18666307Y-2160139D01*
X18683538Y-4848521D02*
X18666307Y-4859244D01*
X18683538Y-7547626D02*
X18666307Y-7558350D01*
X15903338Y-2149416D02*
X15886107Y-2160139D01*
X15903338Y-4848521D02*
X15886107Y-4859244D01*
X21356227Y-2239742D02*
X21343615Y-2255310D01*
X21356227Y-4938847D02*
X21343615Y-4954416D01*
X21356227Y-7637952D02*
X21343615Y-7653521D01*
X18576027Y-2239742D02*
X18563415Y-2255310D01*
X18576027Y-4938847D02*
X18563415Y-4954416D01*
X18576027Y-7637952D02*
X18563415Y-7653521D01*
X15795828Y-2239742D02*
X15783216Y-2255310D01*
X15795828Y-4938847D02*
X15783216Y-4954416D01*
X21499833Y-4698174D02*
X21518642Y-4706430D01*
X21499833Y-7397279D02*
X21518642Y-7405535D01*
X21499833Y-10096385D02*
X21518642Y-10104640D01*
X18719633Y-4698174D02*
X18738442Y-4706430D01*
X18719633Y-7397279D02*
X18738442Y-7405535D01*
X18719633Y-10096385D02*
X18738442Y-10104640D01*
X15939433Y-4698174D02*
X15958242Y-4706430D01*
X15939433Y-7397279D02*
X15958242Y-7405535D01*
X23564719Y-4738829D02*
X23586559Y-4738293D01*
X23564719Y-7437935D02*
X23586559Y-7437398D01*
X23564719Y-10137040D02*
X23586559Y-10136504D01*
X20784519Y-4738829D02*
X20806359Y-4738293D01*
X20784519Y-7437935D02*
X20806359Y-7437398D01*
X20784519Y-10137040D02*
X20806359Y-10136504D01*
X18004320Y-4738829D02*
X18026160Y-4738293D01*
X18004320Y-7437935D02*
X18026160Y-7437398D01*
X23984503Y-2439073D02*
X23980765Y-2418789D01*
X23984503Y-5138178D02*
X23980765Y-5117894D01*
X23984503Y-7837283D02*
X23980765Y-7817000D01*
X21204303Y-2439073D02*
X21200565Y-2418789D01*
X21204303Y-5138178D02*
X21200565Y-5117894D01*
X21204303Y-7837283D02*
X21200565Y-7817000D01*
X18424103Y-2439073D02*
X18420366Y-2418789D01*
X18424103Y-5138178D02*
X18420366Y-5117894D01*
X21301105Y-4505365D02*
X21310488Y-4523131D01*
X21301105Y-7204470D02*
X21310488Y-7222236D01*
X21301105Y-9903576D02*
X21310488Y-9921341D01*
X18520905Y-4505365D02*
X18530288Y-4523131D01*
X18520905Y-7204470D02*
X18530288Y-7222236D01*
X18520905Y-9903576D02*
X18530288Y-9921341D01*
X15740705Y-4505365D02*
X15750089Y-4523131D01*
X15740705Y-7204470D02*
X15750089Y-7222236D01*
X21259753Y-4347981D02*
X21261394Y-4368895D01*
X21259753Y-7047086D02*
X21261394Y-7068000D01*
X21259753Y-9746191D02*
X21261394Y-9767106D01*
X18479553Y-4347981D02*
X18481194Y-4368895D01*
X18479553Y-7047086D02*
X18481194Y-7068000D01*
X18479553Y-9746191D02*
X18481194Y-9767106D01*
X15699353Y-4347981D02*
X15700994Y-4368895D01*
X15699353Y-7047086D02*
X15700994Y-7068000D01*
X21683881Y-2089724D02*
X21662040Y-2090260D01*
X21683881Y-4788829D02*
X21662040Y-4789366D01*
X21683881Y-7487935D02*
X21662040Y-7488471D01*
X18903681Y-2089724D02*
X18881841Y-2090260D01*
X18903681Y-4788829D02*
X18881841Y-4789366D01*
X18903681Y-7487935D02*
X18881841Y-7488471D01*
X16123481Y-2089724D02*
X16101641Y-2090260D01*
X16123481Y-4788829D02*
X16101641Y-4789366D01*
X23987205Y-4368895D02*
X23988847Y-4347981D01*
X23987205Y-7068000D02*
X23988847Y-7047086D01*
X23987205Y-9767106D02*
X23988847Y-9746191D01*
X21207006Y-4368895D02*
X21208647Y-4347981D01*
X21207006Y-7068000D02*
X21208647Y-7047086D01*
X21207006Y-9767106D02*
X21208647Y-9746191D01*
X18426806Y-4368895D02*
X18428447Y-4347981D01*
X18426806Y-7068000D02*
X18428447Y-7047086D01*
X21261394Y-2459685D02*
X21259753Y-2480600D01*
X21261394Y-5158790D02*
X21259753Y-5179705D01*
X21261394Y-7857895D02*
X21259753Y-7878810D01*
X18481194Y-2459685D02*
X18479553Y-2480600D01*
X18481194Y-5158790D02*
X18479553Y-5179705D01*
X18481194Y-7857895D02*
X18479553Y-7878810D01*
X15700994Y-2459685D02*
X15699353Y-2480600D01*
X15700994Y-5158790D02*
X15699353Y-5179705D01*
X23834790Y-4644695D02*
X23850202Y-4631740D01*
X23834790Y-7343800D02*
X23850202Y-7330846D01*
X23834790Y-10042905D02*
X23850202Y-10029951D01*
X21054590Y-4644695D02*
X21070002Y-4631740D01*
X21054590Y-7343800D02*
X21070002Y-7330846D01*
X21054590Y-10042905D02*
X21070002Y-10029951D01*
X18274390Y-4644695D02*
X18289802Y-4631740D01*
X18274390Y-7343800D02*
X18289802Y-7330846D01*
X21369579Y-2224787D02*
X21356227Y-2239742D01*
X21369579Y-4923892D02*
X21356227Y-4938847D01*
X21369579Y-7622998D02*
X21356227Y-7637952D01*
X18589380Y-2224787D02*
X18576027Y-2239742D01*
X18589380Y-4923892D02*
X18576027Y-4938847D01*
X18589380Y-7622998D02*
X18576027Y-7637952D01*
X15809180Y-2224787D02*
X15795828Y-2239742D01*
X15809180Y-4923892D02*
X15795828Y-4938847D01*
X23904984Y-2255310D02*
X23892372Y-2239742D01*
X23904984Y-4954416D02*
X23892372Y-4938847D01*
X23904984Y-7653521D02*
X23892372Y-7637952D01*
X21124784Y-2255310D02*
X21112172Y-2239742D01*
X21124784Y-4954416D02*
X21112172Y-4938847D01*
X21124784Y-7653521D02*
X21112172Y-7637952D01*
X18344585Y-2255310D02*
X18331973Y-2239742D01*
X18344585Y-4954416D02*
X18331973Y-4938847D01*
X23784861Y-4679145D02*
X23802093Y-4668423D01*
X23784861Y-7378250D02*
X23802093Y-7367528D01*
X23784861Y-10077355D02*
X23802093Y-10066634D01*
X21004662Y-4679145D02*
X21021893Y-4668423D01*
X21004662Y-7378250D02*
X21021893Y-7367528D01*
X21004662Y-10077355D02*
X21021893Y-10066634D01*
X18224462Y-4679145D02*
X18241693Y-4668423D01*
X18224462Y-7378250D02*
X18241693Y-7367528D01*
X21619242Y-4734078D02*
X21640485Y-4736700D01*
X21619242Y-7433184D02*
X21640485Y-7435806D01*
X21619242Y-10132289D02*
X21640485Y-10134911D01*
X18839043Y-4734078D02*
X18860286Y-4736700D01*
X18839043Y-7433184D02*
X18860286Y-7435806D01*
X18839043Y-10132289D02*
X18860286Y-10134911D01*
X16058843Y-4734078D02*
X16080086Y-4736700D01*
X16058843Y-7433184D02*
X16080086Y-7435806D01*
X23988847Y-2480600D02*
X23987205Y-2459685D01*
X23988847Y-5179705D02*
X23987205Y-5158790D01*
X23988847Y-7878810D02*
X23987205Y-7857895D01*
X21208647Y-2480600D02*
X21207006Y-2459685D01*
X21208647Y-5179705D02*
X21207006Y-5158790D01*
X21208647Y-7878810D02*
X21207006Y-7857895D01*
X18428447Y-2480600D02*
X18426806Y-2459685D01*
X18428447Y-5179705D02*
X18426806Y-5158790D01*
X23947495Y-4505365D02*
X23956004Y-4487115D01*
X23947495Y-7204470D02*
X23956004Y-7186221D01*
X23947495Y-9903576D02*
X23956004Y-9885326D01*
X21167295Y-4505365D02*
X21175804Y-4487115D01*
X21167295Y-7204470D02*
X21175804Y-7186221D01*
X21167295Y-9903576D02*
X21175804Y-9885326D01*
X18387095Y-4505365D02*
X18395604Y-4487115D01*
X18387095Y-7204470D02*
X18395604Y-7186221D01*
X21499833Y-2130384D02*
X21481522Y-2139489D01*
X21499833Y-4829490D02*
X21481522Y-4838594D01*
X21499833Y-7528595D02*
X21481522Y-7537700D01*
X18719633Y-2130384D02*
X18701323Y-2139489D01*
X18719633Y-4829490D02*
X18701323Y-4838594D01*
X18719633Y-7528595D02*
X18701323Y-7537700D01*
X15939433Y-2130384D02*
X15921123Y-2139489D01*
X15939433Y-4829490D02*
X15921123Y-4838594D01*
X23864954Y-4618094D02*
X23879020Y-4603781D01*
X23864954Y-7317199D02*
X23879020Y-7302886D01*
X23864954Y-10016304D02*
X23879020Y-10001991D01*
X21084755Y-4618094D02*
X21098820Y-4603781D01*
X21084755Y-7317199D02*
X21098820Y-7302886D01*
X21084755Y-10016304D02*
X21098820Y-10001991D01*
X18304555Y-4618094D02*
X18318620Y-4603781D01*
X18304555Y-7317199D02*
X18318620Y-7302886D01*
X21557652Y-4720293D02*
X21577799Y-4725849D01*
X21557652Y-7419398D02*
X21577799Y-7424954D01*
X21557652Y-10118504D02*
X21577799Y-10124059D01*
X18777452Y-4720293D02*
X18797599Y-4725849D01*
X18777452Y-7419398D02*
X18797599Y-7424954D01*
X18777452Y-10118504D02*
X18797599Y-10124059D01*
X15997252Y-4720293D02*
X16017399Y-4725849D01*
X15997252Y-7419398D02*
X16017399Y-7424954D01*
X23864954Y-2210473D02*
X23850202Y-2196825D01*
X23864954Y-4909578D02*
X23850202Y-4895930D01*
X23864954Y-7608684D02*
X23850202Y-7595036D01*
X21084755Y-2210473D02*
X21070002Y-2196825D01*
X21084755Y-4909578D02*
X21070002Y-4895930D01*
X21084755Y-7608684D02*
X21070002Y-7595036D01*
X18304555Y-2210473D02*
X18289802Y-2196825D01*
X18304555Y-4909578D02*
X18289802Y-4895930D01*
X23608114Y-4736700D02*
X23629357Y-4734078D01*
X23608114Y-7435806D02*
X23629357Y-7433184D01*
X23608114Y-10134911D02*
X23629357Y-10132289D01*
X20827914Y-4736700D02*
X20849158Y-4734078D01*
X20827914Y-7435806D02*
X20849158Y-7433184D01*
X20827914Y-10134911D02*
X20849158Y-10132289D01*
X18047715Y-4736700D02*
X18068958Y-4734078D01*
X18047715Y-7435806D02*
X18068958Y-7433184D01*
X23670801Y-2102706D02*
X23650262Y-2098102D01*
X23670801Y-4801812D02*
X23650262Y-4797207D01*
X23670801Y-7500917D02*
X23650262Y-7496313D01*
X20890601Y-2102706D02*
X20870062Y-2098102D01*
X20890601Y-4801812D02*
X20870062Y-4797207D01*
X20890601Y-7500917D02*
X20870062Y-7496313D01*
X18110401Y-2102706D02*
X18089862Y-2098102D01*
X18110401Y-4801812D02*
X18089862Y-4797207D01*
X23938111Y-2305443D02*
X23927880Y-2288187D01*
X23938111Y-5004548D02*
X23927880Y-4987293D01*
X23938111Y-7703654D02*
X23927880Y-7686398D01*
X21157911Y-2305443D02*
X21147681Y-2288187D01*
X21157911Y-5004548D02*
X21147681Y-4987293D01*
X21157911Y-7703654D02*
X21147681Y-7686398D01*
X18377712Y-2305443D02*
X18367481Y-2288187D01*
X18377712Y-5004548D02*
X18367481Y-4987293D01*
X21259200Y-4326789D02*
X21259753Y-4347981D01*
X21259200Y-7025895D02*
X21259753Y-7047086D01*
X21259200Y-9725000D02*
X21259753Y-9746191D01*
X18479000Y-4326789D02*
X18479553Y-4347981D01*
X18479000Y-7025895D02*
X18479553Y-7047086D01*
X18479000Y-9725000D02*
X18479553Y-9746191D01*
X15698800Y-4326789D02*
X15699353Y-4347981D01*
X15698800Y-7025895D02*
X15699353Y-7047086D01*
X21429855Y-2171632D02*
X21413810Y-2183869D01*
X21429855Y-4870737D02*
X21413810Y-4882975D01*
X21429855Y-7569843D02*
X21413810Y-7582080D01*
X18649655Y-2171632D02*
X18633610Y-2183869D01*
X18649655Y-4870737D02*
X18633610Y-4882975D01*
X18649655Y-7569843D02*
X18633610Y-7582080D01*
X15869455Y-2171632D02*
X15853410Y-2183869D01*
X15869455Y-4870737D02*
X15853410Y-4882975D01*
X23802093Y-2160139D02*
X23784861Y-2149416D01*
X23802093Y-4859244D02*
X23784861Y-4848521D01*
X23802093Y-7558350D02*
X23784861Y-7547626D01*
X21021893Y-2160139D02*
X21004662Y-2149416D01*
X21021893Y-4859244D02*
X21004662Y-4848521D01*
X21021893Y-7558350D02*
X21004662Y-7547626D01*
X18241693Y-2160139D02*
X18224462Y-2149416D01*
X18241693Y-4859244D02*
X18224462Y-4848521D01*
X21356227Y-4588827D02*
X21369579Y-4603781D01*
X21356227Y-7287933D02*
X21369579Y-7302886D01*
X21356227Y-9987038D02*
X21369579Y-10001991D01*
X18576027Y-4588827D02*
X18589380Y-4603781D01*
X18576027Y-7287933D02*
X18589380Y-7302886D01*
X18576027Y-9987038D02*
X18589380Y-10001991D01*
X15795828Y-4588827D02*
X15809180Y-4603781D01*
X15795828Y-7287933D02*
X15809180Y-7302886D01*
X23629357Y-4734078D02*
X23650262Y-4730452D01*
X23629357Y-7433184D02*
X23650262Y-7429558D01*
X23629357Y-10132289D02*
X23650262Y-10128663D01*
X20849158Y-4734078D02*
X20870062Y-4730452D01*
X20849158Y-7433184D02*
X20870062Y-7429558D01*
X20849158Y-10132289D02*
X20870062Y-10128663D01*
X18068958Y-4734078D02*
X18089862Y-4730452D01*
X18068958Y-7433184D02*
X18089862Y-7429558D01*
X21259753Y-2480600D02*
X21259200Y-2501791D01*
X21259753Y-5179705D02*
X21259200Y-5200896D01*
X21259753Y-7878810D02*
X21259200Y-7900002D01*
X18479553Y-2480600D02*
X18479000Y-2501791D01*
X18479553Y-5179705D02*
X18479000Y-5200896D01*
X18479553Y-7878810D02*
X18479000Y-7900002D01*
X15699353Y-2480600D02*
X15698800Y-2501791D01*
X15699353Y-5179705D02*
X15698800Y-5200896D01*
X23629357Y-2094475D02*
X23608114Y-2091853D01*
X23629357Y-4793581D02*
X23608114Y-4790958D01*
X23629357Y-7492686D02*
X23608114Y-7490064D01*
X20849158Y-2094475D02*
X20827914Y-2091853D01*
X20849158Y-4793581D02*
X20827914Y-4790958D01*
X20849158Y-7492686D02*
X20827914Y-7490064D01*
X18068958Y-2094475D02*
X18047715Y-2091853D01*
X18068958Y-4793581D02*
X18047715Y-4790958D01*
X21446507Y-4668423D02*
X21463738Y-4679145D01*
X21446507Y-7367528D02*
X21463738Y-7378250D01*
X21446507Y-10066634D02*
X21463738Y-10077355D01*
X18666307Y-4668423D02*
X18683538Y-4679145D01*
X18666307Y-7367528D02*
X18683538Y-7378250D01*
X18666307Y-10066634D02*
X18683538Y-10077355D01*
X15886107Y-4668423D02*
X15903338Y-4679145D01*
X15886107Y-7367528D02*
X15903338Y-7378250D01*
X23976020Y-4429718D02*
X23980765Y-4409790D01*
X23976020Y-7128824D02*
X23980765Y-7108895D01*
X23976020Y-9827929D02*
X23980765Y-9808001D01*
X21195820Y-4429718D02*
X21200565Y-4409790D01*
X21195820Y-7128824D02*
X21200565Y-7108895D01*
X21195820Y-9827929D02*
X21200565Y-9808001D01*
X18415620Y-4429718D02*
X18420366Y-4409790D01*
X18415620Y-7128824D02*
X18420366Y-7108895D01*
X23980765Y-2418789D02*
X23976020Y-2398860D01*
X23980765Y-5117894D02*
X23976020Y-5097965D01*
X23980765Y-7817000D02*
X23976020Y-7797071D01*
X21200565Y-2418789D02*
X21195820Y-2398860D01*
X21200565Y-5117894D02*
X21195820Y-5097965D01*
X21200565Y-7817000D02*
X21195820Y-7797071D01*
X18420366Y-2418789D02*
X18415620Y-2398860D01*
X18420366Y-5117894D02*
X18415620Y-5097965D01*
X21267834Y-4409790D02*
X21272580Y-4429718D01*
X21267834Y-7108895D02*
X21272580Y-7128824D01*
X21267834Y-9808001D02*
X21272580Y-9827929D01*
X18487634Y-4409790D02*
X18492380Y-4429718D01*
X18487634Y-7108895D02*
X18492380Y-7128824D01*
X18487634Y-9808001D02*
X18492380Y-9827929D01*
X15707435Y-4409790D02*
X15712180Y-4429718D01*
X15707435Y-7108895D02*
X15712180Y-7128824D01*
X23970293Y-2379312D02*
X23963612Y-2360170D01*
X23970293Y-5078417D02*
X23963612Y-5059275D01*
X23970293Y-7777522D02*
X23963612Y-7758380D01*
X21190094Y-2379312D02*
X21183413Y-2360170D01*
X21190094Y-5078417D02*
X21183413Y-5059275D01*
X21190094Y-7777522D02*
X21183413Y-7758380D01*
X18409894Y-2379312D02*
X18403213Y-2360170D01*
X18409894Y-5078417D02*
X18403213Y-5059275D01*
X21272580Y-4429718D02*
X21278306Y-4449266D01*
X21272580Y-7128824D02*
X21278306Y-7148371D01*
X21272580Y-9827929D02*
X21278306Y-9847477D01*
X18492380Y-4429718D02*
X18498106Y-4449266D01*
X18492380Y-7128824D02*
X18498106Y-7148371D01*
X18492380Y-9827929D02*
X18498106Y-9847477D01*
X15712180Y-4429718D02*
X15717906Y-4449266D01*
X15712180Y-7128824D02*
X15717906Y-7148371D01*
X21310488Y-4523131D02*
X21320719Y-4540385D01*
X21310488Y-7222236D02*
X21320719Y-7239491D01*
X21310488Y-9921341D02*
X21320719Y-9938596D01*
X18530288Y-4523131D02*
X18540519Y-4540385D01*
X18530288Y-7222236D02*
X18540519Y-7239491D01*
X18530288Y-9921341D02*
X18540519Y-9938596D01*
X15750089Y-4523131D02*
X15760319Y-4540385D01*
X15750089Y-7222236D02*
X15760319Y-7239491D01*
X21640485Y-4736700D02*
X21662040Y-4738293D01*
X21640485Y-7435806D02*
X21662040Y-7437398D01*
X21640485Y-10134911D02*
X21662040Y-10136504D01*
X18860286Y-4736700D02*
X18881841Y-4738293D01*
X18860286Y-7435806D02*
X18881841Y-7437398D01*
X18860286Y-10134911D02*
X18881841Y-10136504D01*
X16080086Y-4736700D02*
X16101641Y-4738293D01*
X16080086Y-7435806D02*
X16101641Y-7437398D01*
X21481522Y-2139489D02*
X21463738Y-2149416D01*
X21481522Y-4838594D02*
X21463738Y-4848521D01*
X21481522Y-7537700D02*
X21463738Y-7547626D01*
X18701323Y-2139489D02*
X18683538Y-2149416D01*
X18701323Y-4838594D02*
X18683538Y-4848521D01*
X18701323Y-7537700D02*
X18683538Y-7547626D01*
X15921123Y-2139489D02*
X15903338Y-2149416D01*
X15921123Y-4838594D02*
X15903338Y-4848521D01*
X23956004Y-4487115D02*
X23963612Y-4468407D01*
X23956004Y-7186221D02*
X23963612Y-7167512D01*
X23956004Y-9885326D02*
X23963612Y-9866618D01*
X21175804Y-4487115D02*
X21183413Y-4468407D01*
X21175804Y-7186221D02*
X21183413Y-7167512D01*
X21175804Y-9885326D02*
X21183413Y-9866618D01*
X18395604Y-4487115D02*
X18403213Y-4468407D01*
X18395604Y-7186221D02*
X18403213Y-7167512D01*
X23670801Y-4725849D02*
X23690947Y-4720293D01*
X23670801Y-7424954D02*
X23690947Y-7419398D01*
X23670801Y-10124059D02*
X23690947Y-10118504D01*
X20890601Y-4725849D02*
X20910748Y-4720293D01*
X20890601Y-7424954D02*
X20910748Y-7419398D01*
X20890601Y-10124059D02*
X20910748Y-10118504D01*
X18110401Y-4725849D02*
X18130548Y-4720293D01*
X18110401Y-7424954D02*
X18130548Y-7419398D01*
X21261394Y-4368895D02*
X21264097Y-4389507D01*
X21261394Y-7068000D02*
X21264097Y-7088612D01*
X21261394Y-9767106D02*
X21264097Y-9787718D01*
X18481194Y-4368895D02*
X18483897Y-4389507D01*
X18481194Y-7068000D02*
X18483897Y-7088612D01*
X18481194Y-9767106D02*
X18483897Y-9787718D01*
X15700994Y-4368895D02*
X15703697Y-4389507D01*
X15700994Y-7068000D02*
X15703697Y-7088612D01*
X21598338Y-2098102D02*
X21577799Y-2102706D01*
X21598338Y-4797207D02*
X21577799Y-4801812D01*
X21598338Y-7496313D02*
X21577799Y-7500917D01*
X18818138Y-2098102D02*
X18797599Y-2102706D01*
X18818138Y-4797207D02*
X18797599Y-4801812D01*
X18818138Y-7496313D02*
X18797599Y-7500917D01*
X16037938Y-2098102D02*
X16017399Y-2102706D01*
X16037938Y-4797207D02*
X16017399Y-4801812D01*
X21320719Y-2288187D02*
X21310488Y-2305443D01*
X21320719Y-4987293D02*
X21310488Y-5004548D01*
X21320719Y-7686398D02*
X21310488Y-7703654D01*
X18540519Y-2288187D02*
X18530288Y-2305443D01*
X18540519Y-4987293D02*
X18530288Y-5004548D01*
X18540519Y-7686398D02*
X18530288Y-7703654D01*
X15760319Y-2288187D02*
X15750089Y-2305443D01*
X15760319Y-4987293D02*
X15750089Y-5004548D01*
X23892372Y-2239742D02*
X23879020Y-2224787D01*
X23892372Y-4938847D02*
X23879020Y-4923892D01*
X23892372Y-7637952D02*
X23879020Y-7622998D01*
X21112172Y-2239742D02*
X21098820Y-2224787D01*
X21112172Y-4938847D02*
X21098820Y-4923892D01*
X21112172Y-7637952D02*
X21098820Y-7622998D01*
X18331973Y-2239742D02*
X18318620Y-2224787D01*
X18331973Y-4938847D02*
X18318620Y-4923892D01*
X21481522Y-4689070D02*
X21499833Y-4698174D01*
X21481522Y-7388176D02*
X21499833Y-7397279D01*
X21481522Y-10087281D02*
X21499833Y-10096385D01*
X18701323Y-4689070D02*
X18719633Y-4698174D01*
X18701323Y-7388176D02*
X18719633Y-7397279D01*
X18701323Y-10087281D02*
X18719633Y-10096385D01*
X15921123Y-4689070D02*
X15939433Y-4698174D01*
X15921123Y-7388176D02*
X15939433Y-7397279D01*
X21267834Y-2418789D02*
X21264097Y-2439073D01*
X21267834Y-5117894D02*
X21264097Y-5138178D01*
X21267834Y-7817000D02*
X21264097Y-7837283D01*
X18487634Y-2418789D02*
X18483897Y-2439073D01*
X18487634Y-5117894D02*
X18483897Y-5138178D01*
X18487634Y-7817000D02*
X18483897Y-7837283D01*
X15707435Y-2418789D02*
X15703697Y-2439073D01*
X15707435Y-5117894D02*
X15703697Y-5138178D01*
X23748767Y-2130384D02*
X23729957Y-2122128D01*
X23748767Y-4829490D02*
X23729957Y-4821233D01*
X23748767Y-7528595D02*
X23729957Y-7520338D01*
X20968567Y-2130384D02*
X20949758Y-2122128D01*
X20968567Y-4829490D02*
X20949758Y-4821233D01*
X20968567Y-7528595D02*
X20949758Y-7520338D01*
X18188367Y-2130384D02*
X18169558Y-2122128D01*
X18188367Y-4829490D02*
X18169558Y-4821233D01*
X21278306Y-4449266D02*
X21284987Y-4468407D01*
X21278306Y-7148371D02*
X21284987Y-7167512D01*
X21278306Y-9847477D02*
X21284987Y-9866618D01*
X18498106Y-4449266D02*
X18504787Y-4468407D01*
X18498106Y-7148371D02*
X18504787Y-7167512D01*
X18498106Y-9847477D02*
X18504787Y-9866618D01*
X15717906Y-4449266D02*
X15724587Y-4468407D01*
X15717906Y-7148371D02*
X15724587Y-7167512D01*
X23850202Y-2196825D02*
X23834790Y-2183869D01*
X23850202Y-4895930D02*
X23834790Y-4882975D01*
X23850202Y-7595036D02*
X23834790Y-7582080D01*
X21070002Y-2196825D02*
X21054590Y-2183869D01*
X21070002Y-4895930D02*
X21054590Y-4882975D01*
X21070002Y-7595036D02*
X21054590Y-7582080D01*
X18289802Y-2196825D02*
X18274390Y-2183869D01*
X18289802Y-4895930D02*
X18274390Y-4882975D01*
X23748767Y-4698174D02*
X23767077Y-4689070D01*
X23748767Y-7397279D02*
X23767077Y-7388176D01*
X23748767Y-10096385D02*
X23767077Y-10087281D01*
X20968567Y-4698174D02*
X20986877Y-4689070D01*
X20968567Y-7397279D02*
X20986877Y-7388176D01*
X20968567Y-10096385D02*
X20986877Y-10087281D01*
X18188367Y-4698174D02*
X18206678Y-4689070D01*
X18188367Y-7397279D02*
X18206678Y-7388176D01*
X21343615Y-4573260D02*
X21356227Y-4588827D01*
X21343615Y-7272365D02*
X21356227Y-7287933D01*
X21343615Y-9971471D02*
X21356227Y-9987038D01*
X18563415Y-4573260D02*
X18576027Y-4588827D01*
X18563415Y-7272365D02*
X18576027Y-7287933D01*
X18563415Y-9971471D02*
X18576027Y-9987038D01*
X15783216Y-4573260D02*
X15795828Y-4588827D01*
X15783216Y-7272365D02*
X15795828Y-7287933D01*
X21264097Y-4389507D02*
X21267834Y-4409790D01*
X21264097Y-7088612D02*
X21267834Y-7108895D01*
X21264097Y-9787718D02*
X21267834Y-9808001D01*
X18483897Y-4389507D02*
X18487634Y-4409790D01*
X18483897Y-7088612D02*
X18487634Y-7108895D01*
X18483897Y-9787718D02*
X18487634Y-9808001D01*
X15703697Y-4389507D02*
X15707435Y-4409790D01*
X15703697Y-7088612D02*
X15707435Y-7108895D01*
X23987205Y-2459685D02*
X23984503Y-2439073D01*
X23987205Y-5158790D02*
X23984503Y-5138178D01*
X23987205Y-7857895D02*
X23984503Y-7837283D01*
X21207006Y-2459685D02*
X21204303Y-2439073D01*
X21207006Y-5158790D02*
X21204303Y-5138178D01*
X21207006Y-7857895D02*
X21204303Y-7837283D01*
X18426806Y-2459685D02*
X18424103Y-2439073D01*
X18426806Y-5158790D02*
X18424103Y-5138178D01*
X21278306Y-2379312D02*
X21272580Y-2398860D01*
X21278306Y-5078417D02*
X21272580Y-5097965D01*
X21278306Y-7777522D02*
X21272580Y-7797071D01*
X18498106Y-2379312D02*
X18492380Y-2398860D01*
X18498106Y-5078417D02*
X18492380Y-5097965D01*
X18498106Y-7777522D02*
X18492380Y-7797071D01*
X15717906Y-2379312D02*
X15712180Y-2398860D01*
X15717906Y-5078417D02*
X15712180Y-5097965D01*
X23989400Y-2501791D02*
X23988847Y-2480600D01*
X23989400Y-5200896D02*
X23988847Y-5179705D01*
X23989400Y-7900002D02*
X23988847Y-7878810D01*
X21209200Y-2501791D02*
X21208647Y-2480600D01*
X21209200Y-5200896D02*
X21208647Y-5179705D01*
X21209200Y-7900002D02*
X21208647Y-7878810D01*
X18429000Y-2501791D02*
X18428447Y-2480600D01*
X18429000Y-5200896D02*
X18428447Y-5179705D01*
X21429855Y-4656931D02*
X21446507Y-4668423D01*
X21429855Y-7356036D02*
X21446507Y-7367528D01*
X21429855Y-10055142D02*
X21446507Y-10066634D01*
X18649655Y-4656931D02*
X18666307Y-4668423D01*
X18649655Y-7356036D02*
X18666307Y-7367528D01*
X18649655Y-10055142D02*
X18666307Y-10066634D01*
X15869455Y-4656931D02*
X15886107Y-4668423D01*
X15869455Y-7356036D02*
X15886107Y-7367528D01*
X23650262Y-4730452D02*
X23670801Y-4725849D01*
X23650262Y-7429558D02*
X23670801Y-7424954D01*
X23650262Y-10128663D02*
X23670801Y-10124059D01*
X20870062Y-4730452D02*
X20890601Y-4725849D01*
X20870062Y-7429558D02*
X20890601Y-7424954D01*
X20870062Y-10128663D02*
X20890601Y-10124059D01*
X18089862Y-4730452D02*
X18110401Y-4725849D01*
X18089862Y-7429558D02*
X18110401Y-7424954D01*
X21284987Y-4468407D02*
X21292596Y-4487115D01*
X21284987Y-7167512D02*
X21292596Y-7186221D01*
X21284987Y-9866618D02*
X21292596Y-9885326D01*
X18504787Y-4468407D02*
X18512396Y-4487115D01*
X18504787Y-7167512D02*
X18512396Y-7186221D01*
X18504787Y-9866618D02*
X18512396Y-9885326D01*
X15724587Y-4468407D02*
X15732196Y-4487115D01*
X15724587Y-7167512D02*
X15732196Y-7186221D01*
X23927880Y-4540385D02*
X23938111Y-4523131D01*
X23927880Y-7239491D02*
X23938111Y-7222236D01*
X23927880Y-9938596D02*
X23938111Y-9921341D01*
X21147681Y-4540385D02*
X21157911Y-4523131D01*
X21147681Y-7239491D02*
X21157911Y-7222236D01*
X21147681Y-9938596D02*
X21157911Y-9921341D01*
X18367481Y-4540385D02*
X18377712Y-4523131D01*
X18367481Y-7239491D02*
X18377712Y-7222236D01*
X23784861Y-2149416D02*
X23767077Y-2139489D01*
X23784861Y-4848521D02*
X23767077Y-4838594D01*
X23784861Y-7547626D02*
X23767077Y-7537700D01*
X21004662Y-2149416D02*
X20986877Y-2139489D01*
X21004662Y-4848521D02*
X20986877Y-4838594D01*
X21004662Y-7547626D02*
X20986877Y-7537700D01*
X18224462Y-2149416D02*
X18206678Y-2139489D01*
X18224462Y-4848521D02*
X18206678Y-4838594D01*
X23947495Y-2323209D02*
X23938111Y-2305443D01*
X23947495Y-5022315D02*
X23938111Y-5004548D01*
X23947495Y-7721420D02*
X23938111Y-7703654D01*
X21167295Y-2323209D02*
X21157911Y-2305443D01*
X21167295Y-5022315D02*
X21157911Y-5004548D01*
X21167295Y-7721420D02*
X21157911Y-7703654D01*
X18387095Y-2323209D02*
X18377712Y-2305443D01*
X18387095Y-5022315D02*
X18377712Y-5004548D01*
X23650262Y-2098102D02*
X23629357Y-2094475D01*
X23650262Y-4797207D02*
X23629357Y-4793581D01*
X23650262Y-7496313D02*
X23629357Y-7492686D01*
X20870062Y-2098102D02*
X20849158Y-2094475D01*
X20870062Y-4797207D02*
X20849158Y-4793581D01*
X20870062Y-7496313D02*
X20849158Y-7492686D01*
X18089862Y-2098102D02*
X18068958Y-2094475D01*
X18089862Y-4797207D02*
X18068958Y-4793581D01*
X21577799Y-2102706D02*
X21557652Y-2108263D01*
X21577799Y-4801812D02*
X21557652Y-4807368D01*
X21577799Y-7500917D02*
X21557652Y-7506473D01*
X18797599Y-2102706D02*
X18777452Y-2108263D01*
X18797599Y-4801812D02*
X18777452Y-4807368D01*
X18797599Y-7500917D02*
X18777452Y-7506473D01*
X16017399Y-2102706D02*
X15997252Y-2108263D01*
X16017399Y-4801812D02*
X15997252Y-4807368D01*
X21264097Y-2439073D02*
X21261394Y-2459685D01*
X21264097Y-5138178D02*
X21261394Y-5158790D01*
X21264097Y-7837283D02*
X21261394Y-7857895D01*
X18483897Y-2439073D02*
X18481194Y-2459685D01*
X18483897Y-5138178D02*
X18481194Y-5158790D01*
X18483897Y-7837283D02*
X18481194Y-7857895D01*
X15703697Y-2439073D02*
X15700994Y-2459685D01*
X15703697Y-5138178D02*
X15700994Y-5158790D01*
X23916829Y-4557104D02*
X23927880Y-4540385D01*
X23916829Y-7256209D02*
X23927880Y-7239491D01*
X23916829Y-9955315D02*
X23927880Y-9938596D01*
X21136630Y-4557104D02*
X21147681Y-4540385D01*
X21136630Y-7256209D02*
X21147681Y-7239491D01*
X21136630Y-9955315D02*
X21147681Y-9938596D01*
X18356430Y-4557104D02*
X18367481Y-4540385D01*
X18356430Y-7256209D02*
X18367481Y-7239491D01*
X21413810Y-2183869D02*
X21398397Y-2196825D01*
X21413810Y-4882975D02*
X21398397Y-4895930D01*
X21413810Y-7582080D02*
X21398397Y-7595036D01*
X18633610Y-2183869D02*
X18618198Y-2196825D01*
X18633610Y-4882975D02*
X18618198Y-4895930D01*
X18633610Y-7582080D02*
X18618198Y-7595036D01*
X15853410Y-2183869D02*
X15837998Y-2196825D01*
X15853410Y-4882975D02*
X15837998Y-4895930D01*
X23956004Y-2341460D02*
X23947495Y-2323209D01*
X23956004Y-5040566D02*
X23947495Y-5022315D01*
X23956004Y-7739671D02*
X23947495Y-7721420D01*
X21175804Y-2341460D02*
X21167295Y-2323209D01*
X21175804Y-5040566D02*
X21167295Y-5022315D01*
X21175804Y-7739671D02*
X21167295Y-7721420D01*
X18395604Y-2341460D02*
X18387095Y-2323209D01*
X18395604Y-5040566D02*
X18387095Y-5022315D01*
X23802093Y-4668423D02*
X23818744Y-4656931D01*
X23802093Y-7367528D02*
X23818744Y-7356036D01*
X23802093Y-10066634D02*
X23818744Y-10055142D01*
X21021893Y-4668423D02*
X21038545Y-4656931D01*
X21021893Y-7367528D02*
X21038545Y-7356036D01*
X21021893Y-10066634D02*
X21038545Y-10055142D01*
X18241693Y-4668423D02*
X18258345Y-4656931D01*
X18241693Y-7367528D02*
X18258345Y-7356036D01*
X23970293Y-4449266D02*
X23976020Y-4429718D01*
X23970293Y-7148371D02*
X23976020Y-7128824D01*
X23970293Y-9847477D02*
X23976020Y-9827929D01*
X21190094Y-4449266D02*
X21195820Y-4429718D01*
X21190094Y-7148371D02*
X21195820Y-7128824D01*
X21190094Y-9847477D02*
X21195820Y-9827929D01*
X18409894Y-4449266D02*
X18415620Y-4429718D01*
X18409894Y-7148371D02*
X18415620Y-7128824D01*
X23834790Y-2183869D02*
X23818744Y-2171632D01*
X23834790Y-4882975D02*
X23818744Y-4870737D01*
X23834790Y-7582080D02*
X23818744Y-7569843D01*
X21054590Y-2183869D02*
X21038545Y-2171632D01*
X21054590Y-4882975D02*
X21038545Y-4870737D01*
X21054590Y-7582080D02*
X21038545Y-7569843D01*
X18274390Y-2183869D02*
X18258345Y-2171632D01*
X18274390Y-4882975D02*
X18258345Y-4870737D01*
X21331770Y-2271468D02*
X21320719Y-2288187D01*
X21331770Y-4970573D02*
X21320719Y-4987293D01*
X21331770Y-7669678D02*
X21320719Y-7686398D01*
X18551570Y-2271468D02*
X18540519Y-2288187D01*
X18551570Y-4970573D02*
X18540519Y-4987293D01*
X18551570Y-7669678D02*
X18540519Y-7686398D01*
X15771370Y-2271468D02*
X15760319Y-2288187D01*
X15771370Y-4970573D02*
X15760319Y-4987293D01*
X23963612Y-4468407D02*
X23970293Y-4449266D01*
X23963612Y-7167512D02*
X23970293Y-7148371D01*
X23963612Y-9866618D02*
X23970293Y-9847477D01*
X21183413Y-4468407D02*
X21190094Y-4449266D01*
X21183413Y-7167512D02*
X21190094Y-7148371D01*
X21183413Y-9866618D02*
X21190094Y-9847477D01*
X18403213Y-4468407D02*
X18409894Y-4449266D01*
X18403213Y-7167512D02*
X18409894Y-7148371D01*
X21383645Y-4618094D02*
X21398397Y-4631740D01*
X21383645Y-7317199D02*
X21398397Y-7330846D01*
X21383645Y-10016304D02*
X21398397Y-10029951D01*
X18603445Y-4618094D02*
X18618198Y-4631740D01*
X18603445Y-7317199D02*
X18618198Y-7330846D01*
X18603445Y-10016304D02*
X18618198Y-10029951D01*
X15823245Y-4618094D02*
X15837998Y-4631740D01*
X15823245Y-7317199D02*
X15837998Y-7330846D01*
X21310488Y-2305443D02*
X21301105Y-2323209D01*
X21310488Y-5004548D02*
X21301105Y-5022315D01*
X21310488Y-7703654D02*
X21301105Y-7721420D01*
X18530288Y-2305443D02*
X18520905Y-2323209D01*
X18530288Y-5004548D02*
X18520905Y-5022315D01*
X18530288Y-7703654D02*
X18520905Y-7721420D01*
X15750089Y-2305443D02*
X15740705Y-2323209D01*
X15750089Y-5004548D02*
X15740705Y-5022315D01*
X23989400Y-4326789D02*
X23989400Y-2501791D01*
X23989400Y-7025895D02*
X23989400Y-5200896D01*
X23989400Y-9725000D02*
X23989400Y-7900002D01*
X21209200Y-4326789D02*
X21209200Y-2501791D01*
X21209200Y-7025895D02*
X21209200Y-5200896D01*
X21209200Y-9725000D02*
X21209200Y-7900002D01*
X18429000Y-4326789D02*
X18429000Y-2501791D01*
X18429000Y-7025895D02*
X18429000Y-5200896D01*
X21284987Y-2360170D02*
X21278306Y-2379312D01*
X21284987Y-5059275D02*
X21278306Y-5078417D01*
X21284987Y-7758380D02*
X21278306Y-7777522D01*
X18504787Y-2360170D02*
X18498106Y-2379312D01*
X18504787Y-5059275D02*
X18498106Y-5078417D01*
X18504787Y-7758380D02*
X18498106Y-7777522D01*
X15724587Y-2360170D02*
X15717906Y-2379312D01*
X15724587Y-5059275D02*
X15717906Y-5078417D01*
X21383645Y-2210473D02*
X21369579Y-2224787D01*
X21383645Y-4909578D02*
X21369579Y-4923892D01*
X21383645Y-7608684D02*
X21369579Y-7622998D01*
X18603445Y-2210473D02*
X18589380Y-2224787D01*
X18603445Y-4909578D02*
X18589380Y-4923892D01*
X18603445Y-7608684D02*
X18589380Y-7622998D01*
X15823245Y-2210473D02*
X15809180Y-2224787D01*
X15823245Y-4909578D02*
X15809180Y-4923892D01*
X23963612Y-2360170D02*
X23956004Y-2341460D01*
X23963612Y-5059275D02*
X23956004Y-5040566D01*
X23963612Y-7758380D02*
X23956004Y-7739671D01*
X21183413Y-2360170D02*
X21175804Y-2341460D01*
X21183413Y-5059275D02*
X21175804Y-5040566D01*
X21183413Y-7758380D02*
X21175804Y-7739671D01*
X18403213Y-2360170D02*
X18395604Y-2341460D01*
X18403213Y-5059275D02*
X18395604Y-5040566D01*
X21518642Y-4706430D02*
X21537924Y-4713811D01*
X21518642Y-7405535D02*
X21537924Y-7412917D01*
X21518642Y-10104640D02*
X21537924Y-10112022D01*
X18738442Y-4706430D02*
X18757725Y-4713811D01*
X18738442Y-7405535D02*
X18757725Y-7412917D01*
X18738442Y-10104640D02*
X18757725Y-10112022D01*
X15958242Y-4706430D02*
X15977525Y-4713811D01*
X15958242Y-7405535D02*
X15977525Y-7412917D01*
X21463738Y-4679145D02*
X21481522Y-4689070D01*
X21463738Y-7378250D02*
X21481522Y-7388176D01*
X21463738Y-10077355D02*
X21481522Y-10087281D01*
X18683538Y-4679145D02*
X18701323Y-4689070D01*
X18683538Y-7378250D02*
X18701323Y-7388176D01*
X18683538Y-10077355D02*
X18701323Y-10087281D01*
X15903338Y-4679145D02*
X15921123Y-4689070D01*
X15903338Y-7378250D02*
X15921123Y-7388176D01*
X23586559Y-2090260D02*
X23564719Y-2089724D01*
X23586559Y-4789366D02*
X23564719Y-4788829D01*
X23586559Y-7488471D02*
X23564719Y-7487935D01*
X20806359Y-2090260D02*
X20784519Y-2089724D01*
X20806359Y-4789366D02*
X20784519Y-4788829D01*
X20806359Y-7488471D02*
X20784519Y-7487935D01*
X18026160Y-2090260D02*
X18004320Y-2089724D01*
X18026160Y-4789366D02*
X18004320Y-4788829D01*
X23984503Y-4389507D02*
X23987205Y-4368895D01*
X23984503Y-7088612D02*
X23987205Y-7068000D01*
X23984503Y-9787718D02*
X23987205Y-9767106D01*
X21204303Y-4389507D02*
X21207006Y-4368895D01*
X21204303Y-7088612D02*
X21207006Y-7068000D01*
X21204303Y-9787718D02*
X21207006Y-9767106D01*
X18424103Y-4389507D02*
X18426806Y-4368895D01*
X18424103Y-7088612D02*
X18426806Y-7068000D01*
X21369579Y-4603781D02*
X21383645Y-4618094D01*
X21369579Y-7302886D02*
X21383645Y-7317199D01*
X21369579Y-10001991D02*
X21383645Y-10016304D01*
X18589380Y-4603781D02*
X18603445Y-4618094D01*
X18589380Y-7302886D02*
X18603445Y-7317199D01*
X18589380Y-10001991D02*
X18603445Y-10016304D01*
X15809180Y-4603781D02*
X15823245Y-4618094D01*
X15809180Y-7302886D02*
X15823245Y-7317199D01*
X23818744Y-4656931D02*
X23834790Y-4644695D01*
X23818744Y-7356036D02*
X23834790Y-7343800D01*
X23818744Y-10055142D02*
X23834790Y-10042905D01*
X21038545Y-4656931D02*
X21054590Y-4644695D01*
X21038545Y-7356036D02*
X21054590Y-7343800D01*
X21038545Y-10055142D02*
X21054590Y-10042905D01*
X18258345Y-4656931D02*
X18274390Y-4644695D01*
X18258345Y-7356036D02*
X18274390Y-7343800D01*
X21598338Y-4730452D02*
X21619242Y-4734078D01*
X21598338Y-7429558D02*
X21619242Y-7433184D01*
X21598338Y-10128663D02*
X21619242Y-10132289D01*
X18818138Y-4730452D02*
X18839043Y-4734078D01*
X18818138Y-7429558D02*
X18839043Y-7433184D01*
X18818138Y-10128663D02*
X18839043Y-10132289D01*
X16037938Y-4730452D02*
X16058843Y-4734078D01*
X16037938Y-7429558D02*
X16058843Y-7433184D01*
X21259200Y-2501791D02*
X21259200Y-4326789D01*
X21259200Y-5200896D02*
X21259200Y-7025895D01*
X21259200Y-7900002D02*
X21259200Y-9725000D01*
X18479000Y-2501791D02*
X18479000Y-4326789D01*
X18479000Y-5200896D02*
X18479000Y-7025895D01*
X18479000Y-7900002D02*
X18479000Y-9725000D01*
X15698800Y-2501791D02*
X15698800Y-4326789D01*
X15698800Y-5200896D02*
X15698800Y-7025895D01*
X21343615Y-2255310D02*
X21331770Y-2271468D01*
X21343615Y-4954416D02*
X21331770Y-4970573D01*
X21343615Y-7653521D02*
X21331770Y-7669678D01*
X18563415Y-2255310D02*
X18551570Y-2271468D01*
X18563415Y-4954416D02*
X18551570Y-4970573D01*
X18563415Y-7653521D02*
X18551570Y-7669678D01*
X15783216Y-2255310D02*
X15771370Y-2271468D01*
X15783216Y-4954416D02*
X15771370Y-4970573D01*
X23729957Y-4706430D02*
X23748767Y-4698174D01*
X23729957Y-7405535D02*
X23748767Y-7397279D01*
X23729957Y-10104640D02*
X23748767Y-10096385D01*
X20949758Y-4706430D02*
X20968567Y-4698174D01*
X20949758Y-7405535D02*
X20968567Y-7397279D01*
X20949758Y-10104640D02*
X20968567Y-10096385D01*
X18169558Y-4706430D02*
X18188367Y-4698174D01*
X18169558Y-7405535D02*
X18188367Y-7397279D01*
X21331770Y-4557104D02*
X21343615Y-4573260D01*
X21331770Y-7256209D02*
X21343615Y-7272365D01*
X21331770Y-9955315D02*
X21343615Y-9971471D01*
X18551570Y-4557104D02*
X18563415Y-4573260D01*
X18551570Y-7256209D02*
X18563415Y-7272365D01*
X18551570Y-9955315D02*
X18563415Y-9971471D01*
X15771370Y-4557104D02*
X15783216Y-4573260D01*
X15771370Y-7256209D02*
X15783216Y-7272365D01*
X23710675Y-2114745D02*
X23690947Y-2108263D01*
X23710675Y-4813851D02*
X23690947Y-4807368D01*
X23710675Y-7512956D02*
X23690947Y-7506473D01*
X20930475Y-2114745D02*
X20910748Y-2108263D01*
X20930475Y-4813851D02*
X20910748Y-4807368D01*
X20930475Y-7512956D02*
X20910748Y-7506473D01*
X18150276Y-2114745D02*
X18130548Y-2108263D01*
X18150276Y-4813851D02*
X18130548Y-4807368D01*
X23850202Y-4631740D02*
X23864954Y-4618094D01*
X23850202Y-7330846D02*
X23864954Y-7317199D01*
X23850202Y-10029951D02*
X23864954Y-10016304D01*
X21070002Y-4631740D02*
X21084755Y-4618094D01*
X21070002Y-7330846D02*
X21084755Y-7317199D01*
X21070002Y-10029951D02*
X21084755Y-10016304D01*
X18289802Y-4631740D02*
X18304555Y-4618094D01*
X18289802Y-7330846D02*
X18304555Y-7317199D01*
X21537924Y-2114745D02*
X21518642Y-2122128D01*
X21537924Y-4813851D02*
X21518642Y-4821233D01*
X21537924Y-7512956D02*
X21518642Y-7520338D01*
X18757725Y-2114745D02*
X18738442Y-2122128D01*
X18757725Y-4813851D02*
X18738442Y-4821233D01*
X18757725Y-7512956D02*
X18738442Y-7520338D01*
X15977525Y-2114745D02*
X15958242Y-2122128D01*
X15977525Y-4813851D02*
X15958242Y-4821233D01*
X23879020Y-4603781D02*
X23892372Y-4588827D01*
X23879020Y-7302886D02*
X23892372Y-7287933D01*
X23879020Y-10001991D02*
X23892372Y-9987038D01*
X21098820Y-4603781D02*
X21112172Y-4588827D01*
X21098820Y-7302886D02*
X21112172Y-7287933D01*
X21098820Y-10001991D02*
X21112172Y-9987038D01*
X18318620Y-4603781D02*
X18331973Y-4588827D01*
X18318620Y-7302886D02*
X18331973Y-7287933D01*
X21292596Y-2341460D02*
X21284987Y-2360170D01*
X21292596Y-5040566D02*
X21284987Y-5059275D01*
X21292596Y-7739671D02*
X21284987Y-7758380D01*
X18512396Y-2341460D02*
X18504787Y-2360170D01*
X18512396Y-5040566D02*
X18504787Y-5059275D01*
X18512396Y-7739671D02*
X18504787Y-7758380D01*
X15732196Y-2341460D02*
X15724587Y-2360170D01*
X15732196Y-5040566D02*
X15724587Y-5059275D01*
X23938111Y-4523131D02*
X23947495Y-4505365D01*
X23938111Y-7222236D02*
X23947495Y-7204470D01*
X23938111Y-9921341D02*
X23947495Y-9903576D01*
X21157911Y-4523131D02*
X21167295Y-4505365D01*
X21157911Y-7222236D02*
X21167295Y-7204470D01*
X21157911Y-9921341D02*
X21167295Y-9903576D01*
X18377712Y-4523131D02*
X18387095Y-4505365D01*
X18377712Y-7222236D02*
X18387095Y-7204470D01*
X21537924Y-4713811D02*
X21557652Y-4720293D01*
X21537924Y-7412917D02*
X21557652Y-7419398D01*
X21537924Y-10112022D02*
X21557652Y-10118504D01*
X18757725Y-4713811D02*
X18777452Y-4720293D01*
X18757725Y-7412917D02*
X18777452Y-7419398D01*
X18757725Y-10112022D02*
X18777452Y-10118504D01*
X15977525Y-4713811D02*
X15997252Y-4720293D01*
X15977525Y-7412917D02*
X15997252Y-7419398D01*
X21640485Y-2091853D02*
X21619242Y-2094475D01*
X21640485Y-4790958D02*
X21619242Y-4793581D01*
X21640485Y-7490064D02*
X21619242Y-7492686D01*
X18860286Y-2091853D02*
X18839043Y-2094475D01*
X18860286Y-4790958D02*
X18839043Y-4793581D01*
X18860286Y-7490064D02*
X18839043Y-7492686D01*
X16080086Y-2091853D02*
X16058843Y-2094475D01*
X16080086Y-4790958D02*
X16058843Y-4793581D01*
X21398397Y-2196825D02*
X21383645Y-2210473D01*
X21398397Y-4895930D02*
X21383645Y-4909578D01*
X21398397Y-7595036D02*
X21383645Y-7608684D01*
X18618198Y-2196825D02*
X18603445Y-2210473D01*
X18618198Y-4895930D02*
X18603445Y-4909578D01*
X18618198Y-7595036D02*
X18603445Y-7608684D01*
X15837998Y-2196825D02*
X15823245Y-2210473D01*
X15837998Y-4895930D02*
X15823245Y-4909578D01*
X21272580Y-2398860D02*
X21267834Y-2418789D01*
X21272580Y-5097965D02*
X21267834Y-5117894D01*
X21272580Y-7797071D02*
X21267834Y-7817000D01*
X18492380Y-2398860D02*
X18487634Y-2418789D01*
X18492380Y-5097965D02*
X18487634Y-5117894D01*
X18492380Y-7797071D02*
X18487634Y-7817000D01*
X15712180Y-2398860D02*
X15707435Y-2418789D01*
X15712180Y-5097965D02*
X15707435Y-5117894D01*
X21292596Y-4487115D02*
X21301105Y-4505365D01*
X21292596Y-7186221D02*
X21301105Y-7204470D01*
X21292596Y-9885326D02*
X21301105Y-9903576D01*
X18512396Y-4487115D02*
X18520905Y-4505365D01*
X18512396Y-7186221D02*
X18520905Y-7204470D01*
X18512396Y-9885326D02*
X18520905Y-9903576D01*
X15732196Y-4487115D02*
X15740705Y-4505365D01*
X15732196Y-7186221D02*
X15740705Y-7204470D01*
X15732196Y-9885326D02*
X15740705Y-9903576D01*
X15712180Y-7797071D02*
X15707435Y-7817000D01*
X15837998Y-7595036D02*
X15823245Y-7608684D01*
X16080086Y-7490064D02*
X16058843Y-7492686D01*
X15977525Y-10112022D02*
X15997252Y-10118504D01*
X18377712Y-9921341D02*
X18387095Y-9903576D01*
X15732196Y-7739671D02*
X15724587Y-7758380D01*
X18318620Y-10001991D02*
X18331973Y-9987038D01*
X15977525Y-7512956D02*
X15958242Y-7520338D01*
X18289802Y-10029951D02*
X18304555Y-10016304D01*
X18150276Y-7512956D02*
X18130548Y-7506473D01*
X15771370Y-9955315D02*
X15783216Y-9971471D01*
X18169558Y-10104640D02*
X18188367Y-10096385D01*
X15783216Y-7653521D02*
X15771370Y-7669678D01*
X15698800Y-7900002D02*
X15698800Y-9725000D01*
X16037938Y-10128663D02*
X16058843Y-10132289D01*
X18258345Y-10055142D02*
X18274390Y-10042905D01*
X15809180Y-10001991D02*
X15823245Y-10016304D01*
X18424103Y-9787718D02*
X18426806Y-9767106D01*
X18026160Y-7488471D02*
X18004320Y-7487935D01*
X15903338Y-10077355D02*
X15921123Y-10087281D01*
X15958242Y-10104640D02*
X15977525Y-10112022D01*
X18403213Y-7758380D02*
X18395604Y-7739671D01*
X15823245Y-7608684D02*
X15809180Y-7622998D01*
X15724587Y-7758380D02*
X15717906Y-7777522D01*
X18429000Y-9725000D02*
X18429000Y-7900002D01*
X15750089Y-7703654D02*
X15740705Y-7721420D01*
X15823245Y-10016304D02*
X15837998Y-10029951D01*
X18403213Y-9866618D02*
X18409894Y-9847477D01*
X15771370Y-7669678D02*
X15760319Y-7686398D01*
X18274390Y-7582080D02*
X18258345Y-7569843D01*
X18409894Y-9847477D02*
X18415620Y-9827929D01*
X18241693Y-10066634D02*
X18258345Y-10055142D01*
X18395604Y-7739671D02*
X18387095Y-7721420D01*
X15853410Y-7582080D02*
X15837998Y-7595036D01*
X18356430Y-9955315D02*
X18367481Y-9938596D01*
X15703697Y-7837283D02*
X15700994Y-7857895D01*
X16017399Y-7500917D02*
X15997252Y-7506473D01*
X18089862Y-7496313D02*
X18068958Y-7492686D01*
X18387095Y-7721420D02*
X18377712Y-7703654D01*
X18224462Y-7547626D02*
X18206678Y-7537700D01*
X18367481Y-9938596D02*
X18377712Y-9921341D01*
X15724587Y-9866618D02*
X15732196Y-9885326D01*
X18089862Y-10128663D02*
X18110401Y-10124059D01*
X15869455Y-10055142D02*
X15886107Y-10066634D01*
X18429000Y-7900002D02*
X18428447Y-7878810D01*
X15717906Y-7777522D02*
X15712180Y-7797071D01*
X18426806Y-7857895D02*
X18424103Y-7837283D01*
X15703697Y-9787718D02*
X15707435Y-9808001D01*
X15783216Y-9971471D02*
X15795828Y-9987038D01*
X18188367Y-10096385D02*
X18206678Y-10087281D01*
X18289802Y-7595036D02*
X18274390Y-7582080D01*
X15717906Y-9847477D02*
X15724587Y-9866618D01*
X18188367Y-7528595D02*
X18169558Y-7520338D01*
X15707435Y-7817000D02*
X15703697Y-7837283D01*
X15921123Y-10087281D02*
X15939433Y-10096385D01*
X18331973Y-7637952D02*
X18318620Y-7622998D01*
X15760319Y-7686398D02*
X15750089Y-7703654D01*
X16037938Y-7496313D02*
X16017399Y-7500917D01*
X15700994Y-9767106D02*
X15703697Y-9787718D01*
X18110401Y-10124059D02*
X18130548Y-10118504D01*
X18395604Y-9885326D02*
X18403213Y-9866618D01*
X15921123Y-7537700D02*
X15903338Y-7547626D01*
X16080086Y-10134911D02*
X16101641Y-10136504D01*
X15750089Y-9921341D02*
X15760319Y-9938596D01*
X15712180Y-9827929D02*
X15717906Y-9847477D01*
X18409894Y-7777522D02*
X18403213Y-7758380D01*
X15707435Y-9808001D02*
X15712180Y-9827929D01*
X18420366Y-7817000D02*
X18415620Y-7797071D01*
X18415620Y-9827929D02*
X18420366Y-9808001D01*
X15886107Y-10066634D02*
X15903338Y-10077355D01*
X18068958Y-7492686D02*
X18047715Y-7490064D01*
X15699353Y-7878810D02*
X15698800Y-7900002D01*
X18068958Y-10132289D02*
X18089862Y-10128663D01*
X15795828Y-9987038D02*
X15809180Y-10001991D01*
X18241693Y-7558350D02*
X18224462Y-7547626D01*
X15869455Y-7569843D02*
X15853410Y-7582080D01*
X15698800Y-9725000D02*
X15699353Y-9746191D01*
X18377712Y-7703654D02*
X18367481Y-7686398D01*
X18110401Y-7500917D02*
X18089862Y-7496313D01*
X18047715Y-10134911D02*
X18068958Y-10132289D01*
X18304555Y-7608684D02*
X18289802Y-7595036D01*
X15997252Y-10118504D02*
X16017399Y-10124059D01*
X18304555Y-10016304D02*
X18318620Y-10001991D01*
X15939433Y-7528595D02*
X15921123Y-7537700D01*
X18387095Y-9903576D02*
X18395604Y-9885326D01*
X18428447Y-7878810D02*
X18426806Y-7857895D01*
X16058843Y-10132289D02*
X16080086Y-10134911D01*
X18224462Y-10077355D02*
X18241693Y-10066634D01*
X18344585Y-7653521D02*
X18331973Y-7637952D01*
X15809180Y-7622998D02*
X15795828Y-7637952D01*
X18274390Y-10042905D02*
X18289802Y-10029951D01*
X15700994Y-7857895D02*
X15699353Y-7878810D01*
X18426806Y-9767106D02*
X18428447Y-9746191D01*
X16123481Y-7487935D02*
X16101641Y-7488471D01*
X15699353Y-9746191D02*
X15700994Y-9767106D01*
X15740705Y-9903576D02*
X15750089Y-9921341D01*
X18424103Y-7837283D02*
X18420366Y-7817000D01*
X18004320Y-10137040D02*
X18026160Y-10136504D01*
X15939433Y-10096385D02*
X15958242Y-10104640D01*
X15795828Y-7637952D02*
X15783216Y-7653521D01*
X15903338Y-7547626D02*
X15886107Y-7558350D01*
X16123481Y-10137040D02*
X18004320Y-10137040D01*
X15760319Y-9938596D02*
X15771370Y-9955315D01*
X18415620Y-7797071D02*
X18409894Y-7777522D01*
X16058843Y-7492686D02*
X16037938Y-7496313D01*
X15886107Y-7558350D02*
X15869455Y-7569843D01*
X18428447Y-9746191D02*
X18429000Y-9725000D01*
X18258345Y-7569843D02*
X18241693Y-7558350D01*
X15958242Y-7520338D02*
X15939433Y-7528595D01*
X18356430Y-7669678D02*
X18344585Y-7653521D01*
X15837998Y-10029951D02*
X15853410Y-10042905D01*
X18150276Y-10112022D02*
X18169558Y-10104640D01*
X15997252Y-7506473D02*
X15977525Y-7512956D01*
X18331973Y-9987038D02*
X18344585Y-9971471D01*
X18206678Y-10087281D02*
X18224462Y-10077355D01*
X15853410Y-10042905D02*
X15869455Y-10055142D01*
X15740705Y-7721420D02*
X15732196Y-7739671D01*
X16101641Y-10136504D02*
X16123481Y-10137040D01*
X18130548Y-10118504D02*
X18150276Y-10112022D01*
X18344585Y-9971471D02*
X18356430Y-9955315D01*
X18206678Y-7537700D02*
X18188367Y-7528595D01*
X16101641Y-7488471D02*
X16080086Y-7490064D01*
X18420366Y-9808001D02*
X18424103Y-9787718D01*
X18047715Y-7490064D02*
X18026160Y-7488471D01*
X18130548Y-7506473D02*
X18110401Y-7500917D01*
X18169558Y-7520338D02*
X18150276Y-7512956D01*
X18004320Y-7487935D02*
X16123481Y-7487935D01*
X18026160Y-10136504D02*
X18047715Y-10134911D01*
X16017399Y-10124059D02*
X16037938Y-10128663D01*
X18318620Y-7622998D02*
X18304555Y-7608684D01*
X18367481Y-7686398D02*
X18356430Y-7669678D01*
D11*
D12*
X17398000Y-3395789D02*
X17438000Y-3435789D01*
X17438000Y-3395789D02*
X17398000Y-3435789D01*
X17398000Y-6094895D02*
X17438000Y-6134895D01*
X17438000Y-6094895D02*
X17398000Y-6134895D01*
X17398000Y-8794000D02*
X17438000Y-8834000D01*
X17438000Y-8794000D02*
X17398000Y-8834000D01*
X20178200Y-3395789D02*
X20218200Y-3435789D01*
X20218200Y-3395789D02*
X20178200Y-3435789D01*
X20178200Y-6094895D02*
X20218200Y-6134895D01*
X20218200Y-6094895D02*
X20178200Y-6134895D01*
X20178200Y-8794000D02*
X20218200Y-8834000D01*
X20218200Y-8794000D02*
X20178200Y-8834000D01*
X22958400Y-3395789D02*
X22998400Y-3435789D01*
X22998400Y-3395789D02*
X22958400Y-3435789D01*
X22958400Y-6094895D02*
X22998400Y-6134895D01*
X22998400Y-6094895D02*
X22958400Y-6134895D01*
X22958400Y-8794000D02*
X22998400Y-8834000D01*
X22998400Y-8794000D02*
X22958400Y-8834000D01*
D13*
X16983300Y-4293789D02*
G75*
G03*
X16983300Y-4293789I-50800J0D01*
G01*
X16983300Y-4547789D02*
G75*
G03*
X16983300Y-4547789I-50800J0D01*
G01*
X16983300Y-6992895D02*
G75*
G03*
X16983300Y-6992895I-50800J0D01*
G01*
X16983300Y-7246895D02*
G75*
G03*
X16983300Y-7246895I-50800J0D01*
G01*
X16983300Y-9692000D02*
G75*
G03*
X16983300Y-9692000I-50800J0D01*
G01*
X16983300Y-9946000D02*
G75*
G03*
X16983300Y-9946000I-50800J0D01*
G01*
X17237300Y-4293789D02*
G75*
G03*
X17237300Y-4293789I-50800J0D01*
G01*
X17237300Y-4547789D02*
G75*
G03*
X17237300Y-4547789I-50800J0D01*
G01*
X17237300Y-6992895D02*
G75*
G03*
X17237300Y-6992895I-50800J0D01*
G01*
X17237300Y-7246895D02*
G75*
G03*
X17237300Y-7246895I-50800J0D01*
G01*
X17237300Y-9692000D02*
G75*
G03*
X17237300Y-9692000I-50800J0D01*
G01*
X17237300Y-9946000D02*
G75*
G03*
X17237300Y-9946000I-50800J0D01*
G01*
X19763500Y-4293789D02*
G75*
G03*
X19763500Y-4293789I-50800J0D01*
G01*
X19763500Y-4547789D02*
G75*
G03*
X19763500Y-4547789I-50800J0D01*
G01*
X19763500Y-6992895D02*
G75*
G03*
X19763500Y-6992895I-50800J0D01*
G01*
X19763500Y-7246895D02*
G75*
G03*
X19763500Y-7246895I-50800J0D01*
G01*
X19763500Y-9692000D02*
G75*
G03*
X19763500Y-9692000I-50800J0D01*
G01*
X19763500Y-9946000D02*
G75*
G03*
X19763500Y-9946000I-50800J0D01*
G01*
X20017500Y-4293789D02*
G75*
G03*
X20017500Y-4293789I-50800J0D01*
G01*
X20017500Y-4547789D02*
G75*
G03*
X20017500Y-4547789I-50800J0D01*
G01*
X20017500Y-6992895D02*
G75*
G03*
X20017500Y-6992895I-50800J0D01*
G01*
X20017500Y-7246895D02*
G75*
G03*
X20017500Y-7246895I-50800J0D01*
G01*
X20017500Y-9692000D02*
G75*
G03*
X20017500Y-9692000I-50800J0D01*
G01*
X20017500Y-9946000D02*
G75*
G03*
X20017500Y-9946000I-50800J0D01*
G01*
X22543700Y-4293789D02*
G75*
G03*
X22543700Y-4293789I-50800J0D01*
G01*
X22543700Y-4547789D02*
G75*
G03*
X22543700Y-4547789I-50800J0D01*
G01*
X22543700Y-6992895D02*
G75*
G03*
X22543700Y-6992895I-50800J0D01*
G01*
X22543700Y-7246895D02*
G75*
G03*
X22543700Y-7246895I-50800J0D01*
G01*
X22543700Y-9692000D02*
G75*
G03*
X22543700Y-9692000I-50800J0D01*
G01*
X22543700Y-9946000D02*
G75*
G03*
X22543700Y-9946000I-50800J0D01*
G01*
X22797700Y-4293789D02*
G75*
G03*
X22797700Y-4293789I-50800J0D01*
G01*
X22797700Y-4547789D02*
G75*
G03*
X22797700Y-4547789I-50800J0D01*
G01*
X22797700Y-6992895D02*
G75*
G03*
X22797700Y-6992895I-50800J0D01*
G01*
X22797700Y-7246895D02*
G75*
G03*
X22797700Y-7246895I-50800J0D01*
G01*
X22797700Y-9692000D02*
G75*
G03*
X22797700Y-9692000I-50800J0D01*
G01*
X22797700Y-9946000D02*
G75*
G03*
X22797700Y-9946000I-50800J0D01*
G01*
D14*
X16045600Y-2335789D02*
X16045600Y-2455789D01*
X15985600Y-2395789D02*
X16105600Y-2395789D01*
X16045600Y-5034895D02*
X16045600Y-5154895D01*
X15985600Y-5094895D02*
X16105600Y-5094895D01*
X16045600Y-7734000D02*
X16045600Y-7854000D01*
X15985600Y-7794000D02*
X16105600Y-7794000D01*
X18096000Y-2341789D02*
X18096000Y-2461789D01*
X18036000Y-2401789D02*
X18156000Y-2401789D01*
X18096000Y-5040895D02*
X18096000Y-5160895D01*
X18036000Y-5100895D02*
X18156000Y-5100895D01*
X18096000Y-7740000D02*
X18096000Y-7860000D01*
X18036000Y-7800000D02*
X18156000Y-7800000D01*
X18825800Y-2335789D02*
X18825800Y-2455789D01*
X18765800Y-2395789D02*
X18885800Y-2395789D01*
X18825800Y-5034895D02*
X18825800Y-5154895D01*
X18765800Y-5094895D02*
X18885800Y-5094895D01*
X18825800Y-7734000D02*
X18825800Y-7854000D01*
X18765800Y-7794000D02*
X18885800Y-7794000D01*
X20876200Y-2341789D02*
X20876200Y-2461789D01*
X20816200Y-2401789D02*
X20936200Y-2401789D01*
X20876200Y-5040895D02*
X20876200Y-5160895D01*
X20816200Y-5100895D02*
X20936200Y-5100895D01*
X20876200Y-7740000D02*
X20876200Y-7860000D01*
X20816200Y-7800000D02*
X20936200Y-7800000D01*
X21606000Y-2335789D02*
X21606000Y-2455789D01*
X21546000Y-2395789D02*
X21666000Y-2395789D01*
X21606000Y-5034895D02*
X21606000Y-5154895D01*
X21546000Y-5094895D02*
X21666000Y-5094895D01*
X21606000Y-7734000D02*
X21606000Y-7854000D01*
X21546000Y-7794000D02*
X21666000Y-7794000D01*
X23656400Y-2341789D02*
X23656400Y-2461789D01*
X23596400Y-2401789D02*
X23716400Y-2401789D01*
X23656400Y-5040895D02*
X23656400Y-5160895D01*
X23596400Y-5100895D02*
X23716400Y-5100895D01*
X23656400Y-7740000D02*
X23656400Y-7860000D01*
X23596400Y-7800000D02*
X23716400Y-7800000D01*
D11*
X15944567Y-10451416D02*
X15944567Y-10251416D01*
X15944567Y-10251416D02*
X15992186Y-10251416D01*
X15992186Y-10251416D02*
X16020758Y-10260940D01*
X16020758Y-10260940D02*
X16039805Y-10279987D01*
X16039805Y-10279987D02*
X16049329Y-10299035D01*
X16049329Y-10299035D02*
X16058853Y-10337130D01*
X16058853Y-10337130D02*
X16058853Y-10365702D01*
X16058853Y-10365702D02*
X16049329Y-10403797D01*
X16049329Y-10403797D02*
X16039805Y-10422844D01*
X16039805Y-10422844D02*
X16020758Y-10441892D01*
X16020758Y-10441892D02*
X15992186Y-10451416D01*
X15992186Y-10451416D02*
X15944567Y-10451416D01*
X16144567Y-10451416D02*
X16144567Y-10318083D01*
X16144567Y-10356178D02*
X16154091Y-10337130D01*
X16154091Y-10337130D02*
X16163615Y-10327606D01*
X16163615Y-10327606D02*
X16182662Y-10318083D01*
X16182662Y-10318083D02*
X16201710Y-10318083D01*
X16268377Y-10451416D02*
X16268377Y-10318083D01*
X16268377Y-10251416D02*
X16258853Y-10260940D01*
X16258853Y-10260940D02*
X16268377Y-10270464D01*
X16268377Y-10270464D02*
X16277900Y-10260940D01*
X16277900Y-10260940D02*
X16268377Y-10251416D01*
X16268377Y-10251416D02*
X16268377Y-10270464D01*
X16392186Y-10451416D02*
X16373138Y-10441892D01*
X16373138Y-10441892D02*
X16363615Y-10422844D01*
X16363615Y-10422844D02*
X16363615Y-10251416D01*
X16496948Y-10451416D02*
X16477900Y-10441892D01*
X16477900Y-10441892D02*
X16468377Y-10422844D01*
X16468377Y-10422844D02*
X16468377Y-10251416D01*
X16725519Y-10451416D02*
X16725519Y-10251416D01*
X16725519Y-10251416D02*
X16792186Y-10394273D01*
X16792186Y-10394273D02*
X16858853Y-10251416D01*
X16858853Y-10251416D02*
X16858853Y-10451416D01*
X17039805Y-10451416D02*
X17039805Y-10346654D01*
X17039805Y-10346654D02*
X17030281Y-10327606D01*
X17030281Y-10327606D02*
X17011234Y-10318083D01*
X17011234Y-10318083D02*
X16973139Y-10318083D01*
X16973139Y-10318083D02*
X16954091Y-10327606D01*
X17039805Y-10441892D02*
X17020758Y-10451416D01*
X17020758Y-10451416D02*
X16973139Y-10451416D01*
X16973139Y-10451416D02*
X16954091Y-10441892D01*
X16954091Y-10441892D02*
X16944567Y-10422844D01*
X16944567Y-10422844D02*
X16944567Y-10403797D01*
X16944567Y-10403797D02*
X16954091Y-10384749D01*
X16954091Y-10384749D02*
X16973139Y-10375225D01*
X16973139Y-10375225D02*
X17020758Y-10375225D01*
X17020758Y-10375225D02*
X17039805Y-10365702D01*
X17135043Y-10318083D02*
X17135043Y-10518083D01*
X17135043Y-10327606D02*
X17154091Y-10318083D01*
X17154091Y-10318083D02*
X17192186Y-10318083D01*
X17192186Y-10318083D02*
X17211234Y-10327606D01*
X17211234Y-10327606D02*
X17220758Y-10337130D01*
X17220758Y-10337130D02*
X17230281Y-10356178D01*
X17230281Y-10356178D02*
X17230281Y-10413321D01*
X17230281Y-10413321D02*
X17220758Y-10432368D01*
X17220758Y-10432368D02*
X17211234Y-10441892D01*
X17211234Y-10441892D02*
X17192186Y-10451416D01*
X17192186Y-10451416D02*
X17154091Y-10451416D01*
X17154091Y-10451416D02*
X17135043Y-10441892D01*
X17315996Y-10432368D02*
X17325520Y-10441892D01*
X17325520Y-10441892D02*
X17315996Y-10451416D01*
X17315996Y-10451416D02*
X17306472Y-10441892D01*
X17306472Y-10441892D02*
X17315996Y-10432368D01*
X17315996Y-10432368D02*
X17315996Y-10451416D01*
X17315996Y-10327606D02*
X17325520Y-10337130D01*
X17325520Y-10337130D02*
X17315996Y-10346654D01*
X17315996Y-10346654D02*
X17306472Y-10337130D01*
X17306472Y-10337130D02*
X17315996Y-10327606D01*
X17315996Y-10327606D02*
X17315996Y-10346654D01*
D12*
X15656948Y-10758892D02*
X15696948Y-10798892D01*
X15696948Y-10758892D02*
X15656948Y-10798892D01*
D11*
X15982662Y-10671416D02*
X16001710Y-10671416D01*
X16001710Y-10671416D02*
X16020758Y-10680940D01*
X16020758Y-10680940D02*
X16030281Y-10690464D01*
X16030281Y-10690464D02*
X16039805Y-10709511D01*
X16039805Y-10709511D02*
X16049329Y-10747606D01*
X16049329Y-10747606D02*
X16049329Y-10795225D01*
X16049329Y-10795225D02*
X16039805Y-10833321D01*
X16039805Y-10833321D02*
X16030281Y-10852368D01*
X16030281Y-10852368D02*
X16020758Y-10861892D01*
X16020758Y-10861892D02*
X16001710Y-10871416D01*
X16001710Y-10871416D02*
X15982662Y-10871416D01*
X15982662Y-10871416D02*
X15963615Y-10861892D01*
X15963615Y-10861892D02*
X15954091Y-10852368D01*
X15954091Y-10852368D02*
X15944567Y-10833321D01*
X15944567Y-10833321D02*
X15935043Y-10795225D01*
X15935043Y-10795225D02*
X15935043Y-10747606D01*
X15935043Y-10747606D02*
X15944567Y-10709511D01*
X15944567Y-10709511D02*
X15954091Y-10690464D01*
X15954091Y-10690464D02*
X15963615Y-10680940D01*
X15963615Y-10680940D02*
X15982662Y-10671416D01*
X16135043Y-10852368D02*
X16144567Y-10861892D01*
X16144567Y-10861892D02*
X16135043Y-10871416D01*
X16135043Y-10871416D02*
X16125519Y-10861892D01*
X16125519Y-10861892D02*
X16135043Y-10852368D01*
X16135043Y-10852368D02*
X16135043Y-10871416D01*
X16315996Y-10738083D02*
X16315996Y-10871416D01*
X16268377Y-10661892D02*
X16220758Y-10804749D01*
X16220758Y-10804749D02*
X16344567Y-10804749D01*
X16458853Y-10671416D02*
X16477900Y-10671416D01*
X16477900Y-10671416D02*
X16496948Y-10680940D01*
X16496948Y-10680940D02*
X16506472Y-10690464D01*
X16506472Y-10690464D02*
X16515996Y-10709511D01*
X16515996Y-10709511D02*
X16525519Y-10747606D01*
X16525519Y-10747606D02*
X16525519Y-10795225D01*
X16525519Y-10795225D02*
X16515996Y-10833321D01*
X16515996Y-10833321D02*
X16506472Y-10852368D01*
X16506472Y-10852368D02*
X16496948Y-10861892D01*
X16496948Y-10861892D02*
X16477900Y-10871416D01*
X16477900Y-10871416D02*
X16458853Y-10871416D01*
X16458853Y-10871416D02*
X16439805Y-10861892D01*
X16439805Y-10861892D02*
X16430281Y-10852368D01*
X16430281Y-10852368D02*
X16420758Y-10833321D01*
X16420758Y-10833321D02*
X16411234Y-10795225D01*
X16411234Y-10795225D02*
X16411234Y-10747606D01*
X16411234Y-10747606D02*
X16420758Y-10709511D01*
X16420758Y-10709511D02*
X16430281Y-10690464D01*
X16430281Y-10690464D02*
X16439805Y-10680940D01*
X16439805Y-10680940D02*
X16458853Y-10671416D01*
X16649329Y-10671416D02*
X16668377Y-10671416D01*
X16668377Y-10671416D02*
X16687424Y-10680940D01*
X16687424Y-10680940D02*
X16696948Y-10690464D01*
X16696948Y-10690464D02*
X16706472Y-10709511D01*
X16706472Y-10709511D02*
X16715996Y-10747606D01*
X16715996Y-10747606D02*
X16715996Y-10795225D01*
X16715996Y-10795225D02*
X16706472Y-10833321D01*
X16706472Y-10833321D02*
X16696948Y-10852368D01*
X16696948Y-10852368D02*
X16687424Y-10861892D01*
X16687424Y-10861892D02*
X16668377Y-10871416D01*
X16668377Y-10871416D02*
X16649329Y-10871416D01*
X16649329Y-10871416D02*
X16630281Y-10861892D01*
X16630281Y-10861892D02*
X16620758Y-10852368D01*
X16620758Y-10852368D02*
X16611234Y-10833321D01*
X16611234Y-10833321D02*
X16601710Y-10795225D01*
X16601710Y-10795225D02*
X16601710Y-10747606D01*
X16601710Y-10747606D02*
X16611234Y-10709511D01*
X16611234Y-10709511D02*
X16620758Y-10690464D01*
X16620758Y-10690464D02*
X16630281Y-10680940D01*
X16630281Y-10680940D02*
X16649329Y-10671416D01*
X16801710Y-10871416D02*
X16801710Y-10738083D01*
X16801710Y-10757130D02*
X16811234Y-10747606D01*
X16811234Y-10747606D02*
X16830281Y-10738083D01*
X16830281Y-10738083D02*
X16858853Y-10738083D01*
X16858853Y-10738083D02*
X16877901Y-10747606D01*
X16877901Y-10747606D02*
X16887424Y-10766654D01*
X16887424Y-10766654D02*
X16887424Y-10871416D01*
X16887424Y-10766654D02*
X16896948Y-10747606D01*
X16896948Y-10747606D02*
X16915996Y-10738083D01*
X16915996Y-10738083D02*
X16944567Y-10738083D01*
X16944567Y-10738083D02*
X16963615Y-10747606D01*
X16963615Y-10747606D02*
X16973139Y-10766654D01*
X16973139Y-10766654D02*
X16973139Y-10871416D01*
X17068377Y-10871416D02*
X17068377Y-10738083D01*
X17068377Y-10757130D02*
X17077901Y-10747606D01*
X17077901Y-10747606D02*
X17096948Y-10738083D01*
X17096948Y-10738083D02*
X17125520Y-10738083D01*
X17125520Y-10738083D02*
X17144567Y-10747606D01*
X17144567Y-10747606D02*
X17154091Y-10766654D01*
X17154091Y-10766654D02*
X17154091Y-10871416D01*
X17154091Y-10766654D02*
X17163615Y-10747606D01*
X17163615Y-10747606D02*
X17182662Y-10738083D01*
X17182662Y-10738083D02*
X17211234Y-10738083D01*
X17211234Y-10738083D02*
X17230282Y-10747606D01*
X17230282Y-10747606D02*
X17239805Y-10766654D01*
X17239805Y-10766654D02*
X17239805Y-10871416D01*
X17630282Y-10661892D02*
X17458853Y-10919035D01*
X17887424Y-10671416D02*
X17906472Y-10671416D01*
X17906472Y-10671416D02*
X17925520Y-10680940D01*
X17925520Y-10680940D02*
X17935044Y-10690464D01*
X17935044Y-10690464D02*
X17944567Y-10709511D01*
X17944567Y-10709511D02*
X17954091Y-10747606D01*
X17954091Y-10747606D02*
X17954091Y-10795225D01*
X17954091Y-10795225D02*
X17944567Y-10833321D01*
X17944567Y-10833321D02*
X17935044Y-10852368D01*
X17935044Y-10852368D02*
X17925520Y-10861892D01*
X17925520Y-10861892D02*
X17906472Y-10871416D01*
X17906472Y-10871416D02*
X17887424Y-10871416D01*
X17887424Y-10871416D02*
X17868377Y-10861892D01*
X17868377Y-10861892D02*
X17858853Y-10852368D01*
X17858853Y-10852368D02*
X17849329Y-10833321D01*
X17849329Y-10833321D02*
X17839805Y-10795225D01*
X17839805Y-10795225D02*
X17839805Y-10747606D01*
X17839805Y-10747606D02*
X17849329Y-10709511D01*
X17849329Y-10709511D02*
X17858853Y-10690464D01*
X17858853Y-10690464D02*
X17868377Y-10680940D01*
X17868377Y-10680940D02*
X17887424Y-10671416D01*
X18039805Y-10852368D02*
X18049329Y-10861892D01*
X18049329Y-10861892D02*
X18039805Y-10871416D01*
X18039805Y-10871416D02*
X18030282Y-10861892D01*
X18030282Y-10861892D02*
X18039805Y-10852368D01*
X18039805Y-10852368D02*
X18039805Y-10871416D01*
X18173139Y-10671416D02*
X18192186Y-10671416D01*
X18192186Y-10671416D02*
X18211234Y-10680940D01*
X18211234Y-10680940D02*
X18220758Y-10690464D01*
X18220758Y-10690464D02*
X18230282Y-10709511D01*
X18230282Y-10709511D02*
X18239805Y-10747606D01*
X18239805Y-10747606D02*
X18239805Y-10795225D01*
X18239805Y-10795225D02*
X18230282Y-10833321D01*
X18230282Y-10833321D02*
X18220758Y-10852368D01*
X18220758Y-10852368D02*
X18211234Y-10861892D01*
X18211234Y-10861892D02*
X18192186Y-10871416D01*
X18192186Y-10871416D02*
X18173139Y-10871416D01*
X18173139Y-10871416D02*
X18154091Y-10861892D01*
X18154091Y-10861892D02*
X18144567Y-10852368D01*
X18144567Y-10852368D02*
X18135044Y-10833321D01*
X18135044Y-10833321D02*
X18125520Y-10795225D01*
X18125520Y-10795225D02*
X18125520Y-10747606D01*
X18125520Y-10747606D02*
X18135044Y-10709511D01*
X18135044Y-10709511D02*
X18144567Y-10690464D01*
X18144567Y-10690464D02*
X18154091Y-10680940D01*
X18154091Y-10680940D02*
X18173139Y-10671416D01*
X18430282Y-10871416D02*
X18315996Y-10871416D01*
X18373139Y-10871416D02*
X18373139Y-10671416D01*
X18373139Y-10671416D02*
X18354091Y-10699987D01*
X18354091Y-10699987D02*
X18335044Y-10719035D01*
X18335044Y-10719035D02*
X18315996Y-10728559D01*
X18611234Y-10671416D02*
X18515996Y-10671416D01*
X18515996Y-10671416D02*
X18506472Y-10766654D01*
X18506472Y-10766654D02*
X18515996Y-10757130D01*
X18515996Y-10757130D02*
X18535044Y-10747606D01*
X18535044Y-10747606D02*
X18582663Y-10747606D01*
X18582663Y-10747606D02*
X18601710Y-10757130D01*
X18601710Y-10757130D02*
X18611234Y-10766654D01*
X18611234Y-10766654D02*
X18620758Y-10785702D01*
X18620758Y-10785702D02*
X18620758Y-10833321D01*
X18620758Y-10833321D02*
X18611234Y-10852368D01*
X18611234Y-10852368D02*
X18601710Y-10861892D01*
X18601710Y-10861892D02*
X18582663Y-10871416D01*
X18582663Y-10871416D02*
X18535044Y-10871416D01*
X18535044Y-10871416D02*
X18515996Y-10861892D01*
X18515996Y-10861892D02*
X18506472Y-10852368D01*
X18687425Y-10671416D02*
X18820758Y-10671416D01*
X18820758Y-10671416D02*
X18735044Y-10871416D01*
X18887425Y-10671416D02*
X18887425Y-10709511D01*
X18963615Y-10671416D02*
X18963615Y-10709511D01*
X19258853Y-10947606D02*
X19249329Y-10938083D01*
X19249329Y-10938083D02*
X19230282Y-10909511D01*
X19230282Y-10909511D02*
X19220758Y-10890464D01*
X19220758Y-10890464D02*
X19211234Y-10861892D01*
X19211234Y-10861892D02*
X19201710Y-10814273D01*
X19201710Y-10814273D02*
X19201710Y-10776178D01*
X19201710Y-10776178D02*
X19211234Y-10728559D01*
X19211234Y-10728559D02*
X19220758Y-10699987D01*
X19220758Y-10699987D02*
X19230282Y-10680940D01*
X19230282Y-10680940D02*
X19249329Y-10652368D01*
X19249329Y-10652368D02*
X19258853Y-10642844D01*
X19344567Y-10871416D02*
X19382663Y-10871416D01*
X19382663Y-10871416D02*
X19401710Y-10861892D01*
X19401710Y-10861892D02*
X19411234Y-10852368D01*
X19411234Y-10852368D02*
X19430282Y-10823797D01*
X19430282Y-10823797D02*
X19439806Y-10785702D01*
X19439806Y-10785702D02*
X19439806Y-10709511D01*
X19439806Y-10709511D02*
X19430282Y-10690464D01*
X19430282Y-10690464D02*
X19420758Y-10680940D01*
X19420758Y-10680940D02*
X19401710Y-10671416D01*
X19401710Y-10671416D02*
X19363615Y-10671416D01*
X19363615Y-10671416D02*
X19344567Y-10680940D01*
X19344567Y-10680940D02*
X19335044Y-10690464D01*
X19335044Y-10690464D02*
X19325520Y-10709511D01*
X19325520Y-10709511D02*
X19325520Y-10757130D01*
X19325520Y-10757130D02*
X19335044Y-10776178D01*
X19335044Y-10776178D02*
X19344567Y-10785702D01*
X19344567Y-10785702D02*
X19363615Y-10795225D01*
X19363615Y-10795225D02*
X19401710Y-10795225D01*
X19401710Y-10795225D02*
X19420758Y-10785702D01*
X19420758Y-10785702D02*
X19430282Y-10776178D01*
X19430282Y-10776178D02*
X19439806Y-10757130D01*
X19677901Y-10871416D02*
X19677901Y-10671416D01*
X19763615Y-10871416D02*
X19763615Y-10766654D01*
X19763615Y-10766654D02*
X19754091Y-10747606D01*
X19754091Y-10747606D02*
X19735044Y-10738083D01*
X19735044Y-10738083D02*
X19706472Y-10738083D01*
X19706472Y-10738083D02*
X19687425Y-10747606D01*
X19687425Y-10747606D02*
X19677901Y-10757130D01*
X19887425Y-10871416D02*
X19868377Y-10861892D01*
X19868377Y-10861892D02*
X19858853Y-10852368D01*
X19858853Y-10852368D02*
X19849329Y-10833321D01*
X19849329Y-10833321D02*
X19849329Y-10776178D01*
X19849329Y-10776178D02*
X19858853Y-10757130D01*
X19858853Y-10757130D02*
X19868377Y-10747606D01*
X19868377Y-10747606D02*
X19887425Y-10738083D01*
X19887425Y-10738083D02*
X19915996Y-10738083D01*
X19915996Y-10738083D02*
X19935044Y-10747606D01*
X19935044Y-10747606D02*
X19944568Y-10757130D01*
X19944568Y-10757130D02*
X19954091Y-10776178D01*
X19954091Y-10776178D02*
X19954091Y-10833321D01*
X19954091Y-10833321D02*
X19944568Y-10852368D01*
X19944568Y-10852368D02*
X19935044Y-10861892D01*
X19935044Y-10861892D02*
X19915996Y-10871416D01*
X19915996Y-10871416D02*
X19887425Y-10871416D01*
X20068377Y-10871416D02*
X20049329Y-10861892D01*
X20049329Y-10861892D02*
X20039806Y-10842844D01*
X20039806Y-10842844D02*
X20039806Y-10671416D01*
X20220758Y-10861892D02*
X20201710Y-10871416D01*
X20201710Y-10871416D02*
X20163615Y-10871416D01*
X20163615Y-10871416D02*
X20144568Y-10861892D01*
X20144568Y-10861892D02*
X20135044Y-10842844D01*
X20135044Y-10842844D02*
X20135044Y-10766654D01*
X20135044Y-10766654D02*
X20144568Y-10747606D01*
X20144568Y-10747606D02*
X20163615Y-10738083D01*
X20163615Y-10738083D02*
X20201710Y-10738083D01*
X20201710Y-10738083D02*
X20220758Y-10747606D01*
X20220758Y-10747606D02*
X20230282Y-10766654D01*
X20230282Y-10766654D02*
X20230282Y-10785702D01*
X20230282Y-10785702D02*
X20135044Y-10804749D01*
X20306472Y-10861892D02*
X20325520Y-10871416D01*
X20325520Y-10871416D02*
X20363615Y-10871416D01*
X20363615Y-10871416D02*
X20382663Y-10861892D01*
X20382663Y-10861892D02*
X20392187Y-10842844D01*
X20392187Y-10842844D02*
X20392187Y-10833321D01*
X20392187Y-10833321D02*
X20382663Y-10814273D01*
X20382663Y-10814273D02*
X20363615Y-10804749D01*
X20363615Y-10804749D02*
X20335044Y-10804749D01*
X20335044Y-10804749D02*
X20315996Y-10795225D01*
X20315996Y-10795225D02*
X20306472Y-10776178D01*
X20306472Y-10776178D02*
X20306472Y-10766654D01*
X20306472Y-10766654D02*
X20315996Y-10747606D01*
X20315996Y-10747606D02*
X20335044Y-10738083D01*
X20335044Y-10738083D02*
X20363615Y-10738083D01*
X20363615Y-10738083D02*
X20382663Y-10747606D01*
X20458853Y-10947606D02*
X20468377Y-10938083D01*
X20468377Y-10938083D02*
X20487425Y-10909511D01*
X20487425Y-10909511D02*
X20496949Y-10890464D01*
X20496949Y-10890464D02*
X20506472Y-10861892D01*
X20506472Y-10861892D02*
X20515996Y-10814273D01*
X20515996Y-10814273D02*
X20515996Y-10776178D01*
X20515996Y-10776178D02*
X20506472Y-10728559D01*
X20506472Y-10728559D02*
X20496949Y-10699987D01*
X20496949Y-10699987D02*
X20487425Y-10680940D01*
X20487425Y-10680940D02*
X20468377Y-10652368D01*
X20468377Y-10652368D02*
X20458853Y-10642844D01*
D13*
X15696948Y-11042892D02*
G75*
G03*
X15696948Y-11042892I-50800J0D01*
G01*
D11*
X16049329Y-11135416D02*
X15935043Y-11135416D01*
X15992186Y-11135416D02*
X15992186Y-10935416D01*
X15992186Y-10935416D02*
X15973138Y-10963987D01*
X15973138Y-10963987D02*
X15954091Y-10983035D01*
X15954091Y-10983035D02*
X15935043Y-10992559D01*
X16135043Y-11116368D02*
X16144567Y-11125892D01*
X16144567Y-11125892D02*
X16135043Y-11135416D01*
X16135043Y-11135416D02*
X16125519Y-11125892D01*
X16125519Y-11125892D02*
X16135043Y-11116368D01*
X16135043Y-11116368D02*
X16135043Y-11135416D01*
X16268377Y-10935416D02*
X16287424Y-10935416D01*
X16287424Y-10935416D02*
X16306472Y-10944940D01*
X16306472Y-10944940D02*
X16315996Y-10954464D01*
X16315996Y-10954464D02*
X16325519Y-10973511D01*
X16325519Y-10973511D02*
X16335043Y-11011606D01*
X16335043Y-11011606D02*
X16335043Y-11059225D01*
X16335043Y-11059225D02*
X16325519Y-11097321D01*
X16325519Y-11097321D02*
X16315996Y-11116368D01*
X16315996Y-11116368D02*
X16306472Y-11125892D01*
X16306472Y-11125892D02*
X16287424Y-11135416D01*
X16287424Y-11135416D02*
X16268377Y-11135416D01*
X16268377Y-11135416D02*
X16249329Y-11125892D01*
X16249329Y-11125892D02*
X16239805Y-11116368D01*
X16239805Y-11116368D02*
X16230281Y-11097321D01*
X16230281Y-11097321D02*
X16220758Y-11059225D01*
X16220758Y-11059225D02*
X16220758Y-11011606D01*
X16220758Y-11011606D02*
X16230281Y-10973511D01*
X16230281Y-10973511D02*
X16239805Y-10954464D01*
X16239805Y-10954464D02*
X16249329Y-10944940D01*
X16249329Y-10944940D02*
X16268377Y-10935416D01*
X16525519Y-11135416D02*
X16411234Y-11135416D01*
X16468377Y-11135416D02*
X16468377Y-10935416D01*
X16468377Y-10935416D02*
X16449329Y-10963987D01*
X16449329Y-10963987D02*
X16430281Y-10983035D01*
X16430281Y-10983035D02*
X16411234Y-10992559D01*
X16696948Y-10935416D02*
X16658853Y-10935416D01*
X16658853Y-10935416D02*
X16639805Y-10944940D01*
X16639805Y-10944940D02*
X16630281Y-10954464D01*
X16630281Y-10954464D02*
X16611234Y-10983035D01*
X16611234Y-10983035D02*
X16601710Y-11021130D01*
X16601710Y-11021130D02*
X16601710Y-11097321D01*
X16601710Y-11097321D02*
X16611234Y-11116368D01*
X16611234Y-11116368D02*
X16620758Y-11125892D01*
X16620758Y-11125892D02*
X16639805Y-11135416D01*
X16639805Y-11135416D02*
X16677900Y-11135416D01*
X16677900Y-11135416D02*
X16696948Y-11125892D01*
X16696948Y-11125892D02*
X16706472Y-11116368D01*
X16706472Y-11116368D02*
X16715996Y-11097321D01*
X16715996Y-11097321D02*
X16715996Y-11049702D01*
X16715996Y-11049702D02*
X16706472Y-11030654D01*
X16706472Y-11030654D02*
X16696948Y-11021130D01*
X16696948Y-11021130D02*
X16677900Y-11011606D01*
X16677900Y-11011606D02*
X16639805Y-11011606D01*
X16639805Y-11011606D02*
X16620758Y-11021130D01*
X16620758Y-11021130D02*
X16611234Y-11030654D01*
X16611234Y-11030654D02*
X16601710Y-11049702D01*
X16801710Y-11135416D02*
X16801710Y-11002083D01*
X16801710Y-11021130D02*
X16811234Y-11011606D01*
X16811234Y-11011606D02*
X16830281Y-11002083D01*
X16830281Y-11002083D02*
X16858853Y-11002083D01*
X16858853Y-11002083D02*
X16877901Y-11011606D01*
X16877901Y-11011606D02*
X16887424Y-11030654D01*
X16887424Y-11030654D02*
X16887424Y-11135416D01*
X16887424Y-11030654D02*
X16896948Y-11011606D01*
X16896948Y-11011606D02*
X16915996Y-11002083D01*
X16915996Y-11002083D02*
X16944567Y-11002083D01*
X16944567Y-11002083D02*
X16963615Y-11011606D01*
X16963615Y-11011606D02*
X16973139Y-11030654D01*
X16973139Y-11030654D02*
X16973139Y-11135416D01*
X17068377Y-11135416D02*
X17068377Y-11002083D01*
X17068377Y-11021130D02*
X17077901Y-11011606D01*
X17077901Y-11011606D02*
X17096948Y-11002083D01*
X17096948Y-11002083D02*
X17125520Y-11002083D01*
X17125520Y-11002083D02*
X17144567Y-11011606D01*
X17144567Y-11011606D02*
X17154091Y-11030654D01*
X17154091Y-11030654D02*
X17154091Y-11135416D01*
X17154091Y-11030654D02*
X17163615Y-11011606D01*
X17163615Y-11011606D02*
X17182662Y-11002083D01*
X17182662Y-11002083D02*
X17211234Y-11002083D01*
X17211234Y-11002083D02*
X17230282Y-11011606D01*
X17230282Y-11011606D02*
X17239805Y-11030654D01*
X17239805Y-11030654D02*
X17239805Y-11135416D01*
X17630282Y-10925892D02*
X17458853Y-11183035D01*
X17887424Y-10935416D02*
X17906472Y-10935416D01*
X17906472Y-10935416D02*
X17925520Y-10944940D01*
X17925520Y-10944940D02*
X17935044Y-10954464D01*
X17935044Y-10954464D02*
X17944567Y-10973511D01*
X17944567Y-10973511D02*
X17954091Y-11011606D01*
X17954091Y-11011606D02*
X17954091Y-11059225D01*
X17954091Y-11059225D02*
X17944567Y-11097321D01*
X17944567Y-11097321D02*
X17935044Y-11116368D01*
X17935044Y-11116368D02*
X17925520Y-11125892D01*
X17925520Y-11125892D02*
X17906472Y-11135416D01*
X17906472Y-11135416D02*
X17887424Y-11135416D01*
X17887424Y-11135416D02*
X17868377Y-11125892D01*
X17868377Y-11125892D02*
X17858853Y-11116368D01*
X17858853Y-11116368D02*
X17849329Y-11097321D01*
X17849329Y-11097321D02*
X17839805Y-11059225D01*
X17839805Y-11059225D02*
X17839805Y-11011606D01*
X17839805Y-11011606D02*
X17849329Y-10973511D01*
X17849329Y-10973511D02*
X17858853Y-10954464D01*
X17858853Y-10954464D02*
X17868377Y-10944940D01*
X17868377Y-10944940D02*
X17887424Y-10935416D01*
X18039805Y-11116368D02*
X18049329Y-11125892D01*
X18049329Y-11125892D02*
X18039805Y-11135416D01*
X18039805Y-11135416D02*
X18030282Y-11125892D01*
X18030282Y-11125892D02*
X18039805Y-11116368D01*
X18039805Y-11116368D02*
X18039805Y-11135416D01*
X18173139Y-10935416D02*
X18192186Y-10935416D01*
X18192186Y-10935416D02*
X18211234Y-10944940D01*
X18211234Y-10944940D02*
X18220758Y-10954464D01*
X18220758Y-10954464D02*
X18230282Y-10973511D01*
X18230282Y-10973511D02*
X18239805Y-11011606D01*
X18239805Y-11011606D02*
X18239805Y-11059225D01*
X18239805Y-11059225D02*
X18230282Y-11097321D01*
X18230282Y-11097321D02*
X18220758Y-11116368D01*
X18220758Y-11116368D02*
X18211234Y-11125892D01*
X18211234Y-11125892D02*
X18192186Y-11135416D01*
X18192186Y-11135416D02*
X18173139Y-11135416D01*
X18173139Y-11135416D02*
X18154091Y-11125892D01*
X18154091Y-11125892D02*
X18144567Y-11116368D01*
X18144567Y-11116368D02*
X18135044Y-11097321D01*
X18135044Y-11097321D02*
X18125520Y-11059225D01*
X18125520Y-11059225D02*
X18125520Y-11011606D01*
X18125520Y-11011606D02*
X18135044Y-10973511D01*
X18135044Y-10973511D02*
X18144567Y-10954464D01*
X18144567Y-10954464D02*
X18154091Y-10944940D01*
X18154091Y-10944940D02*
X18173139Y-10935416D01*
X18411234Y-11002083D02*
X18411234Y-11135416D01*
X18363615Y-10925892D02*
X18315996Y-11068749D01*
X18315996Y-11068749D02*
X18439805Y-11068749D01*
X18554091Y-10935416D02*
X18573139Y-10935416D01*
X18573139Y-10935416D02*
X18592186Y-10944940D01*
X18592186Y-10944940D02*
X18601710Y-10954464D01*
X18601710Y-10954464D02*
X18611234Y-10973511D01*
X18611234Y-10973511D02*
X18620758Y-11011606D01*
X18620758Y-11011606D02*
X18620758Y-11059225D01*
X18620758Y-11059225D02*
X18611234Y-11097321D01*
X18611234Y-11097321D02*
X18601710Y-11116368D01*
X18601710Y-11116368D02*
X18592186Y-11125892D01*
X18592186Y-11125892D02*
X18573139Y-11135416D01*
X18573139Y-11135416D02*
X18554091Y-11135416D01*
X18554091Y-11135416D02*
X18535044Y-11125892D01*
X18535044Y-11125892D02*
X18525520Y-11116368D01*
X18525520Y-11116368D02*
X18515996Y-11097321D01*
X18515996Y-11097321D02*
X18506472Y-11059225D01*
X18506472Y-11059225D02*
X18506472Y-11011606D01*
X18506472Y-11011606D02*
X18515996Y-10973511D01*
X18515996Y-10973511D02*
X18525520Y-10954464D01*
X18525520Y-10954464D02*
X18535044Y-10944940D01*
X18535044Y-10944940D02*
X18554091Y-10935416D01*
X18744567Y-10935416D02*
X18763615Y-10935416D01*
X18763615Y-10935416D02*
X18782663Y-10944940D01*
X18782663Y-10944940D02*
X18792186Y-10954464D01*
X18792186Y-10954464D02*
X18801710Y-10973511D01*
X18801710Y-10973511D02*
X18811234Y-11011606D01*
X18811234Y-11011606D02*
X18811234Y-11059225D01*
X18811234Y-11059225D02*
X18801710Y-11097321D01*
X18801710Y-11097321D02*
X18792186Y-11116368D01*
X18792186Y-11116368D02*
X18782663Y-11125892D01*
X18782663Y-11125892D02*
X18763615Y-11135416D01*
X18763615Y-11135416D02*
X18744567Y-11135416D01*
X18744567Y-11135416D02*
X18725520Y-11125892D01*
X18725520Y-11125892D02*
X18715996Y-11116368D01*
X18715996Y-11116368D02*
X18706472Y-11097321D01*
X18706472Y-11097321D02*
X18696948Y-11059225D01*
X18696948Y-11059225D02*
X18696948Y-11011606D01*
X18696948Y-11011606D02*
X18706472Y-10973511D01*
X18706472Y-10973511D02*
X18715996Y-10954464D01*
X18715996Y-10954464D02*
X18725520Y-10944940D01*
X18725520Y-10944940D02*
X18744567Y-10935416D01*
X18887425Y-10935416D02*
X18887425Y-10973511D01*
X18963615Y-10935416D02*
X18963615Y-10973511D01*
X19258853Y-11211606D02*
X19249329Y-11202082D01*
X19249329Y-11202082D02*
X19230282Y-11173511D01*
X19230282Y-11173511D02*
X19220758Y-11154464D01*
X19220758Y-11154464D02*
X19211234Y-11125892D01*
X19211234Y-11125892D02*
X19201710Y-11078273D01*
X19201710Y-11078273D02*
X19201710Y-11040178D01*
X19201710Y-11040178D02*
X19211234Y-10992559D01*
X19211234Y-10992559D02*
X19220758Y-10963987D01*
X19220758Y-10963987D02*
X19230282Y-10944940D01*
X19230282Y-10944940D02*
X19249329Y-10916368D01*
X19249329Y-10916368D02*
X19258853Y-10906844D01*
X19315996Y-10935416D02*
X19439806Y-10935416D01*
X19439806Y-10935416D02*
X19373139Y-11011606D01*
X19373139Y-11011606D02*
X19401710Y-11011606D01*
X19401710Y-11011606D02*
X19420758Y-11021130D01*
X19420758Y-11021130D02*
X19430282Y-11030654D01*
X19430282Y-11030654D02*
X19439806Y-11049702D01*
X19439806Y-11049702D02*
X19439806Y-11097321D01*
X19439806Y-11097321D02*
X19430282Y-11116368D01*
X19430282Y-11116368D02*
X19420758Y-11125892D01*
X19420758Y-11125892D02*
X19401710Y-11135416D01*
X19401710Y-11135416D02*
X19344567Y-11135416D01*
X19344567Y-11135416D02*
X19325520Y-11125892D01*
X19325520Y-11125892D02*
X19315996Y-11116368D01*
X19611234Y-10935416D02*
X19573139Y-10935416D01*
X19573139Y-10935416D02*
X19554091Y-10944940D01*
X19554091Y-10944940D02*
X19544567Y-10954464D01*
X19544567Y-10954464D02*
X19525520Y-10983035D01*
X19525520Y-10983035D02*
X19515996Y-11021130D01*
X19515996Y-11021130D02*
X19515996Y-11097321D01*
X19515996Y-11097321D02*
X19525520Y-11116368D01*
X19525520Y-11116368D02*
X19535044Y-11125892D01*
X19535044Y-11125892D02*
X19554091Y-11135416D01*
X19554091Y-11135416D02*
X19592187Y-11135416D01*
X19592187Y-11135416D02*
X19611234Y-11125892D01*
X19611234Y-11125892D02*
X19620758Y-11116368D01*
X19620758Y-11116368D02*
X19630282Y-11097321D01*
X19630282Y-11097321D02*
X19630282Y-11049702D01*
X19630282Y-11049702D02*
X19620758Y-11030654D01*
X19620758Y-11030654D02*
X19611234Y-11021130D01*
X19611234Y-11021130D02*
X19592187Y-11011606D01*
X19592187Y-11011606D02*
X19554091Y-11011606D01*
X19554091Y-11011606D02*
X19535044Y-11021130D01*
X19535044Y-11021130D02*
X19525520Y-11030654D01*
X19525520Y-11030654D02*
X19515996Y-11049702D01*
X19868377Y-11135416D02*
X19868377Y-10935416D01*
X19954091Y-11135416D02*
X19954091Y-11030654D01*
X19954091Y-11030654D02*
X19944568Y-11011606D01*
X19944568Y-11011606D02*
X19925520Y-11002083D01*
X19925520Y-11002083D02*
X19896948Y-11002083D01*
X19896948Y-11002083D02*
X19877901Y-11011606D01*
X19877901Y-11011606D02*
X19868377Y-11021130D01*
X20077901Y-11135416D02*
X20058853Y-11125892D01*
X20058853Y-11125892D02*
X20049329Y-11116368D01*
X20049329Y-11116368D02*
X20039806Y-11097321D01*
X20039806Y-11097321D02*
X20039806Y-11040178D01*
X20039806Y-11040178D02*
X20049329Y-11021130D01*
X20049329Y-11021130D02*
X20058853Y-11011606D01*
X20058853Y-11011606D02*
X20077901Y-11002083D01*
X20077901Y-11002083D02*
X20106472Y-11002083D01*
X20106472Y-11002083D02*
X20125520Y-11011606D01*
X20125520Y-11011606D02*
X20135044Y-11021130D01*
X20135044Y-11021130D02*
X20144568Y-11040178D01*
X20144568Y-11040178D02*
X20144568Y-11097321D01*
X20144568Y-11097321D02*
X20135044Y-11116368D01*
X20135044Y-11116368D02*
X20125520Y-11125892D01*
X20125520Y-11125892D02*
X20106472Y-11135416D01*
X20106472Y-11135416D02*
X20077901Y-11135416D01*
X20258853Y-11135416D02*
X20239806Y-11125892D01*
X20239806Y-11125892D02*
X20230282Y-11106844D01*
X20230282Y-11106844D02*
X20230282Y-10935416D01*
X20411234Y-11125892D02*
X20392187Y-11135416D01*
X20392187Y-11135416D02*
X20354091Y-11135416D01*
X20354091Y-11135416D02*
X20335044Y-11125892D01*
X20335044Y-11125892D02*
X20325520Y-11106844D01*
X20325520Y-11106844D02*
X20325520Y-11030654D01*
X20325520Y-11030654D02*
X20335044Y-11011606D01*
X20335044Y-11011606D02*
X20354091Y-11002083D01*
X20354091Y-11002083D02*
X20392187Y-11002083D01*
X20392187Y-11002083D02*
X20411234Y-11011606D01*
X20411234Y-11011606D02*
X20420758Y-11030654D01*
X20420758Y-11030654D02*
X20420758Y-11049702D01*
X20420758Y-11049702D02*
X20325520Y-11068749D01*
X20496949Y-11125892D02*
X20515996Y-11135416D01*
X20515996Y-11135416D02*
X20554091Y-11135416D01*
X20554091Y-11135416D02*
X20573139Y-11125892D01*
X20573139Y-11125892D02*
X20582663Y-11106844D01*
X20582663Y-11106844D02*
X20582663Y-11097321D01*
X20582663Y-11097321D02*
X20573139Y-11078273D01*
X20573139Y-11078273D02*
X20554091Y-11068749D01*
X20554091Y-11068749D02*
X20525520Y-11068749D01*
X20525520Y-11068749D02*
X20506472Y-11059225D01*
X20506472Y-11059225D02*
X20496949Y-11040178D01*
X20496949Y-11040178D02*
X20496949Y-11030654D01*
X20496949Y-11030654D02*
X20506472Y-11011606D01*
X20506472Y-11011606D02*
X20525520Y-11002083D01*
X20525520Y-11002083D02*
X20554091Y-11002083D01*
X20554091Y-11002083D02*
X20573139Y-11011606D01*
X20649330Y-11211606D02*
X20658853Y-11202082D01*
X20658853Y-11202082D02*
X20677901Y-11173511D01*
X20677901Y-11173511D02*
X20687425Y-11154464D01*
X20687425Y-11154464D02*
X20696949Y-11125892D01*
X20696949Y-11125892D02*
X20706472Y-11078273D01*
X20706472Y-11078273D02*
X20706472Y-11040178D01*
X20706472Y-11040178D02*
X20696949Y-10992559D01*
X20696949Y-10992559D02*
X20687425Y-10963987D01*
X20687425Y-10963987D02*
X20677901Y-10944940D01*
X20677901Y-10944940D02*
X20658853Y-10916368D01*
X20658853Y-10916368D02*
X20649330Y-10906844D01*
D14*
X15636948Y-11246892D02*
X15636948Y-11366892D01*
X15576948Y-11306892D02*
X15696948Y-11306892D01*
D11*
X16049329Y-11399416D02*
X15935043Y-11399416D01*
X15992186Y-11399416D02*
X15992186Y-11199416D01*
X15992186Y-11199416D02*
X15973138Y-11227987D01*
X15973138Y-11227987D02*
X15954091Y-11247035D01*
X15954091Y-11247035D02*
X15935043Y-11256559D01*
X16135043Y-11380368D02*
X16144567Y-11389892D01*
X16144567Y-11389892D02*
X16135043Y-11399416D01*
X16135043Y-11399416D02*
X16125519Y-11389892D01*
X16125519Y-11389892D02*
X16135043Y-11380368D01*
X16135043Y-11380368D02*
X16135043Y-11399416D01*
X16220758Y-11218463D02*
X16230281Y-11208940D01*
X16230281Y-11208940D02*
X16249329Y-11199416D01*
X16249329Y-11199416D02*
X16296948Y-11199416D01*
X16296948Y-11199416D02*
X16315996Y-11208940D01*
X16315996Y-11208940D02*
X16325519Y-11218463D01*
X16325519Y-11218463D02*
X16335043Y-11237511D01*
X16335043Y-11237511D02*
X16335043Y-11256559D01*
X16335043Y-11256559D02*
X16325519Y-11285130D01*
X16325519Y-11285130D02*
X16211234Y-11399416D01*
X16211234Y-11399416D02*
X16335043Y-11399416D01*
X16458853Y-11199416D02*
X16477900Y-11199416D01*
X16477900Y-11199416D02*
X16496948Y-11208940D01*
X16496948Y-11208940D02*
X16506472Y-11218463D01*
X16506472Y-11218463D02*
X16515996Y-11237511D01*
X16515996Y-11237511D02*
X16525519Y-11275606D01*
X16525519Y-11275606D02*
X16525519Y-11323225D01*
X16525519Y-11323225D02*
X16515996Y-11361321D01*
X16515996Y-11361321D02*
X16506472Y-11380368D01*
X16506472Y-11380368D02*
X16496948Y-11389892D01*
X16496948Y-11389892D02*
X16477900Y-11399416D01*
X16477900Y-11399416D02*
X16458853Y-11399416D01*
X16458853Y-11399416D02*
X16439805Y-11389892D01*
X16439805Y-11389892D02*
X16430281Y-11380368D01*
X16430281Y-11380368D02*
X16420758Y-11361321D01*
X16420758Y-11361321D02*
X16411234Y-11323225D01*
X16411234Y-11323225D02*
X16411234Y-11275606D01*
X16411234Y-11275606D02*
X16420758Y-11237511D01*
X16420758Y-11237511D02*
X16430281Y-11218463D01*
X16430281Y-11218463D02*
X16439805Y-11208940D01*
X16439805Y-11208940D02*
X16458853Y-11199416D01*
X16649329Y-11199416D02*
X16668377Y-11199416D01*
X16668377Y-11199416D02*
X16687424Y-11208940D01*
X16687424Y-11208940D02*
X16696948Y-11218463D01*
X16696948Y-11218463D02*
X16706472Y-11237511D01*
X16706472Y-11237511D02*
X16715996Y-11275606D01*
X16715996Y-11275606D02*
X16715996Y-11323225D01*
X16715996Y-11323225D02*
X16706472Y-11361321D01*
X16706472Y-11361321D02*
X16696948Y-11380368D01*
X16696948Y-11380368D02*
X16687424Y-11389892D01*
X16687424Y-11389892D02*
X16668377Y-11399416D01*
X16668377Y-11399416D02*
X16649329Y-11399416D01*
X16649329Y-11399416D02*
X16630281Y-11389892D01*
X16630281Y-11389892D02*
X16620758Y-11380368D01*
X16620758Y-11380368D02*
X16611234Y-11361321D01*
X16611234Y-11361321D02*
X16601710Y-11323225D01*
X16601710Y-11323225D02*
X16601710Y-11275606D01*
X16601710Y-11275606D02*
X16611234Y-11237511D01*
X16611234Y-11237511D02*
X16620758Y-11218463D01*
X16620758Y-11218463D02*
X16630281Y-11208940D01*
X16630281Y-11208940D02*
X16649329Y-11199416D01*
X16801710Y-11399416D02*
X16801710Y-11266082D01*
X16801710Y-11285130D02*
X16811234Y-11275606D01*
X16811234Y-11275606D02*
X16830281Y-11266082D01*
X16830281Y-11266082D02*
X16858853Y-11266082D01*
X16858853Y-11266082D02*
X16877901Y-11275606D01*
X16877901Y-11275606D02*
X16887424Y-11294654D01*
X16887424Y-11294654D02*
X16887424Y-11399416D01*
X16887424Y-11294654D02*
X16896948Y-11275606D01*
X16896948Y-11275606D02*
X16915996Y-11266082D01*
X16915996Y-11266082D02*
X16944567Y-11266082D01*
X16944567Y-11266082D02*
X16963615Y-11275606D01*
X16963615Y-11275606D02*
X16973139Y-11294654D01*
X16973139Y-11294654D02*
X16973139Y-11399416D01*
X17068377Y-11399416D02*
X17068377Y-11266082D01*
X17068377Y-11285130D02*
X17077901Y-11275606D01*
X17077901Y-11275606D02*
X17096948Y-11266082D01*
X17096948Y-11266082D02*
X17125520Y-11266082D01*
X17125520Y-11266082D02*
X17144567Y-11275606D01*
X17144567Y-11275606D02*
X17154091Y-11294654D01*
X17154091Y-11294654D02*
X17154091Y-11399416D01*
X17154091Y-11294654D02*
X17163615Y-11275606D01*
X17163615Y-11275606D02*
X17182662Y-11266082D01*
X17182662Y-11266082D02*
X17211234Y-11266082D01*
X17211234Y-11266082D02*
X17230282Y-11275606D01*
X17230282Y-11275606D02*
X17239805Y-11294654D01*
X17239805Y-11294654D02*
X17239805Y-11399416D01*
X17630282Y-11189892D02*
X17458853Y-11447035D01*
X17887424Y-11199416D02*
X17906472Y-11199416D01*
X17906472Y-11199416D02*
X17925520Y-11208940D01*
X17925520Y-11208940D02*
X17935044Y-11218463D01*
X17935044Y-11218463D02*
X17944567Y-11237511D01*
X17944567Y-11237511D02*
X17954091Y-11275606D01*
X17954091Y-11275606D02*
X17954091Y-11323225D01*
X17954091Y-11323225D02*
X17944567Y-11361321D01*
X17944567Y-11361321D02*
X17935044Y-11380368D01*
X17935044Y-11380368D02*
X17925520Y-11389892D01*
X17925520Y-11389892D02*
X17906472Y-11399416D01*
X17906472Y-11399416D02*
X17887424Y-11399416D01*
X17887424Y-11399416D02*
X17868377Y-11389892D01*
X17868377Y-11389892D02*
X17858853Y-11380368D01*
X17858853Y-11380368D02*
X17849329Y-11361321D01*
X17849329Y-11361321D02*
X17839805Y-11323225D01*
X17839805Y-11323225D02*
X17839805Y-11275606D01*
X17839805Y-11275606D02*
X17849329Y-11237511D01*
X17849329Y-11237511D02*
X17858853Y-11218463D01*
X17858853Y-11218463D02*
X17868377Y-11208940D01*
X17868377Y-11208940D02*
X17887424Y-11199416D01*
X18039805Y-11380368D02*
X18049329Y-11389892D01*
X18049329Y-11389892D02*
X18039805Y-11399416D01*
X18039805Y-11399416D02*
X18030282Y-11389892D01*
X18030282Y-11389892D02*
X18039805Y-11380368D01*
X18039805Y-11380368D02*
X18039805Y-11399416D01*
X18173139Y-11199416D02*
X18192186Y-11199416D01*
X18192186Y-11199416D02*
X18211234Y-11208940D01*
X18211234Y-11208940D02*
X18220758Y-11218463D01*
X18220758Y-11218463D02*
X18230282Y-11237511D01*
X18230282Y-11237511D02*
X18239805Y-11275606D01*
X18239805Y-11275606D02*
X18239805Y-11323225D01*
X18239805Y-11323225D02*
X18230282Y-11361321D01*
X18230282Y-11361321D02*
X18220758Y-11380368D01*
X18220758Y-11380368D02*
X18211234Y-11389892D01*
X18211234Y-11389892D02*
X18192186Y-11399416D01*
X18192186Y-11399416D02*
X18173139Y-11399416D01*
X18173139Y-11399416D02*
X18154091Y-11389892D01*
X18154091Y-11389892D02*
X18144567Y-11380368D01*
X18144567Y-11380368D02*
X18135044Y-11361321D01*
X18135044Y-11361321D02*
X18125520Y-11323225D01*
X18125520Y-11323225D02*
X18125520Y-11275606D01*
X18125520Y-11275606D02*
X18135044Y-11237511D01*
X18135044Y-11237511D02*
X18144567Y-11218463D01*
X18144567Y-11218463D02*
X18154091Y-11208940D01*
X18154091Y-11208940D02*
X18173139Y-11199416D01*
X18411234Y-11266082D02*
X18411234Y-11399416D01*
X18363615Y-11189892D02*
X18315996Y-11332749D01*
X18315996Y-11332749D02*
X18439805Y-11332749D01*
X18496948Y-11199416D02*
X18630282Y-11199416D01*
X18630282Y-11199416D02*
X18544567Y-11399416D01*
X18696948Y-11218463D02*
X18706472Y-11208940D01*
X18706472Y-11208940D02*
X18725520Y-11199416D01*
X18725520Y-11199416D02*
X18773139Y-11199416D01*
X18773139Y-11199416D02*
X18792186Y-11208940D01*
X18792186Y-11208940D02*
X18801710Y-11218463D01*
X18801710Y-11218463D02*
X18811234Y-11237511D01*
X18811234Y-11237511D02*
X18811234Y-11256559D01*
X18811234Y-11256559D02*
X18801710Y-11285130D01*
X18801710Y-11285130D02*
X18687425Y-11399416D01*
X18687425Y-11399416D02*
X18811234Y-11399416D01*
X18887425Y-11199416D02*
X18887425Y-11237511D01*
X18963615Y-11199416D02*
X18963615Y-11237511D01*
X19258853Y-11475606D02*
X19249329Y-11466082D01*
X19249329Y-11466082D02*
X19230282Y-11437511D01*
X19230282Y-11437511D02*
X19220758Y-11418463D01*
X19220758Y-11418463D02*
X19211234Y-11389892D01*
X19211234Y-11389892D02*
X19201710Y-11342273D01*
X19201710Y-11342273D02*
X19201710Y-11304178D01*
X19201710Y-11304178D02*
X19211234Y-11256559D01*
X19211234Y-11256559D02*
X19220758Y-11227987D01*
X19220758Y-11227987D02*
X19230282Y-11208940D01*
X19230282Y-11208940D02*
X19249329Y-11180368D01*
X19249329Y-11180368D02*
X19258853Y-11170844D01*
X19439806Y-11399416D02*
X19325520Y-11399416D01*
X19382663Y-11399416D02*
X19382663Y-11199416D01*
X19382663Y-11199416D02*
X19363615Y-11227987D01*
X19363615Y-11227987D02*
X19344567Y-11247035D01*
X19344567Y-11247035D02*
X19325520Y-11256559D01*
X19554091Y-11285130D02*
X19535044Y-11275606D01*
X19535044Y-11275606D02*
X19525520Y-11266082D01*
X19525520Y-11266082D02*
X19515996Y-11247035D01*
X19515996Y-11247035D02*
X19515996Y-11237511D01*
X19515996Y-11237511D02*
X19525520Y-11218463D01*
X19525520Y-11218463D02*
X19535044Y-11208940D01*
X19535044Y-11208940D02*
X19554091Y-11199416D01*
X19554091Y-11199416D02*
X19592187Y-11199416D01*
X19592187Y-11199416D02*
X19611234Y-11208940D01*
X19611234Y-11208940D02*
X19620758Y-11218463D01*
X19620758Y-11218463D02*
X19630282Y-11237511D01*
X19630282Y-11237511D02*
X19630282Y-11247035D01*
X19630282Y-11247035D02*
X19620758Y-11266082D01*
X19620758Y-11266082D02*
X19611234Y-11275606D01*
X19611234Y-11275606D02*
X19592187Y-11285130D01*
X19592187Y-11285130D02*
X19554091Y-11285130D01*
X19554091Y-11285130D02*
X19535044Y-11294654D01*
X19535044Y-11294654D02*
X19525520Y-11304178D01*
X19525520Y-11304178D02*
X19515996Y-11323225D01*
X19515996Y-11323225D02*
X19515996Y-11361321D01*
X19515996Y-11361321D02*
X19525520Y-11380368D01*
X19525520Y-11380368D02*
X19535044Y-11389892D01*
X19535044Y-11389892D02*
X19554091Y-11399416D01*
X19554091Y-11399416D02*
X19592187Y-11399416D01*
X19592187Y-11399416D02*
X19611234Y-11389892D01*
X19611234Y-11389892D02*
X19620758Y-11380368D01*
X19620758Y-11380368D02*
X19630282Y-11361321D01*
X19630282Y-11361321D02*
X19630282Y-11323225D01*
X19630282Y-11323225D02*
X19620758Y-11304178D01*
X19620758Y-11304178D02*
X19611234Y-11294654D01*
X19611234Y-11294654D02*
X19592187Y-11285130D01*
X19868377Y-11399416D02*
X19868377Y-11199416D01*
X19954091Y-11399416D02*
X19954091Y-11294654D01*
X19954091Y-11294654D02*
X19944568Y-11275606D01*
X19944568Y-11275606D02*
X19925520Y-11266082D01*
X19925520Y-11266082D02*
X19896948Y-11266082D01*
X19896948Y-11266082D02*
X19877901Y-11275606D01*
X19877901Y-11275606D02*
X19868377Y-11285130D01*
X20077901Y-11399416D02*
X20058853Y-11389892D01*
X20058853Y-11389892D02*
X20049329Y-11380368D01*
X20049329Y-11380368D02*
X20039806Y-11361321D01*
X20039806Y-11361321D02*
X20039806Y-11304178D01*
X20039806Y-11304178D02*
X20049329Y-11285130D01*
X20049329Y-11285130D02*
X20058853Y-11275606D01*
X20058853Y-11275606D02*
X20077901Y-11266082D01*
X20077901Y-11266082D02*
X20106472Y-11266082D01*
X20106472Y-11266082D02*
X20125520Y-11275606D01*
X20125520Y-11275606D02*
X20135044Y-11285130D01*
X20135044Y-11285130D02*
X20144568Y-11304178D01*
X20144568Y-11304178D02*
X20144568Y-11361321D01*
X20144568Y-11361321D02*
X20135044Y-11380368D01*
X20135044Y-11380368D02*
X20125520Y-11389892D01*
X20125520Y-11389892D02*
X20106472Y-11399416D01*
X20106472Y-11399416D02*
X20077901Y-11399416D01*
X20258853Y-11399416D02*
X20239806Y-11389892D01*
X20239806Y-11389892D02*
X20230282Y-11370844D01*
X20230282Y-11370844D02*
X20230282Y-11199416D01*
X20411234Y-11389892D02*
X20392187Y-11399416D01*
X20392187Y-11399416D02*
X20354091Y-11399416D01*
X20354091Y-11399416D02*
X20335044Y-11389892D01*
X20335044Y-11389892D02*
X20325520Y-11370844D01*
X20325520Y-11370844D02*
X20325520Y-11294654D01*
X20325520Y-11294654D02*
X20335044Y-11275606D01*
X20335044Y-11275606D02*
X20354091Y-11266082D01*
X20354091Y-11266082D02*
X20392187Y-11266082D01*
X20392187Y-11266082D02*
X20411234Y-11275606D01*
X20411234Y-11275606D02*
X20420758Y-11294654D01*
X20420758Y-11294654D02*
X20420758Y-11313702D01*
X20420758Y-11313702D02*
X20325520Y-11332749D01*
X20496949Y-11389892D02*
X20515996Y-11399416D01*
X20515996Y-11399416D02*
X20554091Y-11399416D01*
X20554091Y-11399416D02*
X20573139Y-11389892D01*
X20573139Y-11389892D02*
X20582663Y-11370844D01*
X20582663Y-11370844D02*
X20582663Y-11361321D01*
X20582663Y-11361321D02*
X20573139Y-11342273D01*
X20573139Y-11342273D02*
X20554091Y-11332749D01*
X20554091Y-11332749D02*
X20525520Y-11332749D01*
X20525520Y-11332749D02*
X20506472Y-11323225D01*
X20506472Y-11323225D02*
X20496949Y-11304178D01*
X20496949Y-11304178D02*
X20496949Y-11294654D01*
X20496949Y-11294654D02*
X20506472Y-11275606D01*
X20506472Y-11275606D02*
X20525520Y-11266082D01*
X20525520Y-11266082D02*
X20554091Y-11266082D01*
X20554091Y-11266082D02*
X20573139Y-11275606D01*
X20649330Y-11475606D02*
X20658853Y-11466082D01*
X20658853Y-11466082D02*
X20677901Y-11437511D01*
X20677901Y-11437511D02*
X20687425Y-11418463D01*
X20687425Y-11418463D02*
X20696949Y-11389892D01*
X20696949Y-11389892D02*
X20706472Y-11342273D01*
X20706472Y-11342273D02*
X20706472Y-11304178D01*
X20706472Y-11304178D02*
X20696949Y-11256559D01*
X20696949Y-11256559D02*
X20687425Y-11227987D01*
X20687425Y-11227987D02*
X20677901Y-11208940D01*
X20677901Y-11208940D02*
X20658853Y-11180368D01*
X20658853Y-11180368D02*
X20649330Y-11170844D01*
M02*
