%TF.GenerationSoftware,KiCad,Pcbnew,7.0.2-0*%
%TF.CreationDate,2024-04-22T23:11:52-05:00*%
%TF.ProjectId,SAOpowerboard_panelized,53414f70-6f77-4657-9262-6f6172645f70,rev?*%
%TF.SameCoordinates,Original*%
%TF.FileFunction,Soldermask,Top*%
%TF.FilePolarity,Negative*%
%FSLAX46Y46*%
G04 Gerber Fmt 4.6, Leading zero omitted, Abs format (unit mm)*
G04 Created by KiCad (PCBNEW 7.0.2-0) date 2024-04-22 23:11:52*
%MOMM*%
%LPD*%
G01*
G04 APERTURE LIST*
%ADD10C,2.764001*%
%ADD11R,2.600000X5.560000*%
%ADD12C,17.800000*%
%ADD13R,1.727200X1.727200*%
%ADD14C,1.727200*%
%ADD15O,1.727200X1.727200*%
G04 APERTURE END LIST*
D10*
X237935996Y-24023892D02*
G75*
G03*
X237935996Y-24023892I-1382000J0D01*
G01*
X237935996Y-51014946D02*
G75*
G03*
X237935996Y-51014946I-1382000J0D01*
G01*
X237935996Y-78006000D02*
G75*
G03*
X237935996Y-78006000I-1382000J0D01*
G01*
X210133998Y-24023892D02*
G75*
G03*
X210133998Y-24023892I-1382000J0D01*
G01*
X210133998Y-51014946D02*
G75*
G03*
X210133998Y-51014946I-1382000J0D01*
G01*
X210133998Y-78006000D02*
G75*
G03*
X210133998Y-78006000I-1382000J0D01*
G01*
X182332000Y-24023892D02*
G75*
G03*
X182332000Y-24023892I-1382000J0D01*
G01*
X182332000Y-51014946D02*
G75*
G03*
X182332000Y-51014946I-1382000J0D01*
G01*
X217445996Y-23947892D02*
G75*
G03*
X217445996Y-23947892I-1382000J0D01*
G01*
X217445996Y-50938946D02*
G75*
G03*
X217445996Y-50938946I-1382000J0D01*
G01*
X217445996Y-77930000D02*
G75*
G03*
X217445996Y-77930000I-1382000J0D01*
G01*
X189643998Y-23947892D02*
G75*
G03*
X189643998Y-23947892I-1382000J0D01*
G01*
X189643998Y-50938946D02*
G75*
G03*
X189643998Y-50938946I-1382000J0D01*
G01*
X189643998Y-77930000D02*
G75*
G03*
X189643998Y-77930000I-1382000J0D01*
G01*
X161842000Y-23947892D02*
G75*
G03*
X161842000Y-23947892I-1382000J0D01*
G01*
X161842000Y-50938946D02*
G75*
G03*
X161842000Y-50938946I-1382000J0D01*
G01*
X161842000Y-77930000D02*
G75*
G03*
X161842000Y-77930000I-1382000J0D01*
G01*
X182332000Y-78006000D02*
G75*
G03*
X182332000Y-78006000I-1382000J0D01*
G01*
D11*
%TO.C,REF\u002A\u002A*%
X214348996Y-30827892D03*
X238158996Y-30827892D03*
D12*
X226253996Y-30827892D03*
%TD*%
D11*
%TO.C,REF\u002A\u002A*%
X214348996Y-57818946D03*
X238158996Y-57818946D03*
D12*
X226253996Y-57818946D03*
%TD*%
D11*
%TO.C,REF\u002A\u002A*%
X214348996Y-84810000D03*
X238158996Y-84810000D03*
D12*
X226253996Y-84810000D03*
%TD*%
D11*
%TO.C,REF\u002A\u002A*%
X186546998Y-30827892D03*
X210356998Y-30827892D03*
D12*
X198451998Y-30827892D03*
%TD*%
D11*
%TO.C,REF\u002A\u002A*%
X186546998Y-57818946D03*
X210356998Y-57818946D03*
D12*
X198451998Y-57818946D03*
%TD*%
D11*
%TO.C,REF\u002A\u002A*%
X186546998Y-84810000D03*
X210356998Y-84810000D03*
D12*
X198451998Y-84810000D03*
%TD*%
D11*
%TO.C,REF\u002A\u002A*%
X158745000Y-30827892D03*
X182555000Y-30827892D03*
D12*
X170650000Y-30827892D03*
%TD*%
D11*
%TO.C,REF\u002A\u002A*%
X158745000Y-57818946D03*
X182555000Y-57818946D03*
D12*
X170650000Y-57818946D03*
%TD*%
D13*
%TO.C,REF\u002A\u002A*%
X224928996Y-42937892D03*
D14*
X224928996Y-45477892D03*
D15*
X227468996Y-42937892D03*
X227468996Y-45477892D03*
%TD*%
D13*
%TO.C,REF\u002A\u002A*%
X224928996Y-69928946D03*
D14*
X224928996Y-72468946D03*
D15*
X227468996Y-69928946D03*
X227468996Y-72468946D03*
%TD*%
D13*
%TO.C,REF\u002A\u002A*%
X224928996Y-96920000D03*
D14*
X224928996Y-99460000D03*
D15*
X227468996Y-96920000D03*
X227468996Y-99460000D03*
%TD*%
D13*
%TO.C,REF\u002A\u002A*%
X197126998Y-42937892D03*
D14*
X197126998Y-45477892D03*
D15*
X199666998Y-42937892D03*
X199666998Y-45477892D03*
%TD*%
D13*
%TO.C,REF\u002A\u002A*%
X197126998Y-69928946D03*
D14*
X197126998Y-72468946D03*
D15*
X199666998Y-69928946D03*
X199666998Y-72468946D03*
%TD*%
D13*
%TO.C,REF\u002A\u002A*%
X197126998Y-96920000D03*
D14*
X197126998Y-99460000D03*
D15*
X199666998Y-96920000D03*
X199666998Y-99460000D03*
%TD*%
D13*
%TO.C,REF\u002A\u002A*%
X169325000Y-42937892D03*
D14*
X169325000Y-45477892D03*
D15*
X171865000Y-42937892D03*
X171865000Y-45477892D03*
%TD*%
D13*
%TO.C,REF\u002A\u002A*%
X169325000Y-69928946D03*
D14*
X169325000Y-72468946D03*
D15*
X171865000Y-69928946D03*
X171865000Y-72468946D03*
%TD*%
D13*
%TO.C,REF\u002A\u002A*%
X169325000Y-96920000D03*
D14*
X169325000Y-99460000D03*
D15*
X171865000Y-96920000D03*
X171865000Y-99460000D03*
%TD*%
D11*
%TO.C,REF\u002A\u002A*%
X158745000Y-84810000D03*
X182555000Y-84810000D03*
D12*
X170650000Y-84810000D03*
%TD*%
M02*
