%TF.GenerationSoftware,KiCad,Pcbnew,7.0.2-0*%
%TF.CreationDate,2024-04-22T23:11:48-05:00*%
%TF.ProjectId,SAOpowerboard_panelized,53414f70-6f77-4657-9262-6f6172645f70,rev?*%
%TF.SameCoordinates,Original*%
%TF.FileFunction,Drillmap*%
%TF.FilePolarity,Positive*%
%FSLAX45Y45*%
G04 Gerber Fmt 4.5, Leading zero omitted, Abs format (unit mm)*
G04 Created by KiCad (PCBNEW 7.0.2-0) date 2024-04-22 23:11:48*
%MOMM*%
%LPD*%
G01*
G04 APERTURE LIST*
%ADD10C,0.037041*%
%ADD11C,0.200000*%
G04 APERTURE END LIST*
D10*
X23927880Y-2288187D02*
X23916829Y-2271468D01*
X23927880Y-4987293D02*
X23916829Y-4970573D01*
X23927880Y-7686398D02*
X23916829Y-7669678D01*
X21147681Y-2288187D02*
X21136630Y-2271468D01*
X21147681Y-4987293D02*
X21136630Y-4970573D01*
X21147681Y-7686398D02*
X21136630Y-7669678D01*
X18367481Y-2288187D02*
X18356430Y-2271468D01*
X18367481Y-4987293D02*
X18356430Y-4970573D01*
X23879020Y-2224787D02*
X23864954Y-2210473D01*
X23879020Y-4923892D02*
X23864954Y-4909578D01*
X23879020Y-7622998D02*
X23864954Y-7608684D01*
X21098820Y-2224787D02*
X21084755Y-2210473D01*
X21098820Y-4923892D02*
X21084755Y-4909578D01*
X21098820Y-7622998D02*
X21084755Y-7608684D01*
X18318620Y-2224787D02*
X18304555Y-2210473D01*
X18318620Y-4923892D02*
X18304555Y-4909578D01*
X21577799Y-4725849D02*
X21598338Y-4730452D01*
X21577799Y-7424954D02*
X21598338Y-7429558D01*
X21577799Y-10124059D02*
X21598338Y-10128663D01*
X18797599Y-4725849D02*
X18818138Y-4730452D01*
X18797599Y-7424954D02*
X18818138Y-7429558D01*
X18797599Y-10124059D02*
X18818138Y-10128663D01*
X16017399Y-4725849D02*
X16037938Y-4730452D01*
X16017399Y-7424954D02*
X16037938Y-7429558D01*
X23586559Y-4738293D02*
X23608114Y-4736700D01*
X23586559Y-7437398D02*
X23608114Y-7435806D01*
X23586559Y-10136504D02*
X23608114Y-10134911D01*
X20806359Y-4738293D02*
X20827914Y-4736700D01*
X20806359Y-7437398D02*
X20827914Y-7435806D01*
X20806359Y-10136504D02*
X20827914Y-10134911D01*
X18026160Y-4738293D02*
X18047715Y-4736700D01*
X18026160Y-7437398D02*
X18047715Y-7435806D01*
X23564719Y-2089724D02*
X21683881Y-2089724D01*
X23564719Y-4788829D02*
X21683881Y-4788829D01*
X23564719Y-7487935D02*
X21683881Y-7487935D01*
X20784519Y-2089724D02*
X18903681Y-2089724D01*
X20784519Y-4788829D02*
X18903681Y-4788829D01*
X20784519Y-7487935D02*
X18903681Y-7487935D01*
X18004320Y-2089724D02*
X16123481Y-2089724D01*
X18004320Y-4788829D02*
X16123481Y-4788829D01*
X23729957Y-2122128D02*
X23710675Y-2114745D01*
X23729957Y-4821233D02*
X23710675Y-4813851D01*
X23729957Y-7520338D02*
X23710675Y-7512956D01*
X20949758Y-2122128D02*
X20930475Y-2114745D01*
X20949758Y-4821233D02*
X20930475Y-4813851D01*
X20949758Y-7520338D02*
X20930475Y-7512956D01*
X18169558Y-2122128D02*
X18150276Y-2114745D01*
X18169558Y-4821233D02*
X18150276Y-4813851D01*
X23690947Y-2108263D02*
X23670801Y-2102706D01*
X23690947Y-4807368D02*
X23670801Y-4801812D01*
X23690947Y-7506473D02*
X23670801Y-7500917D01*
X20910748Y-2108263D02*
X20890601Y-2102706D01*
X20910748Y-4807368D02*
X20890601Y-4801812D01*
X20910748Y-7506473D02*
X20890601Y-7500917D01*
X18130548Y-2108263D02*
X18110401Y-2102706D01*
X18130548Y-4807368D02*
X18110401Y-4801812D01*
X23608114Y-2091853D02*
X23586559Y-2090260D01*
X23608114Y-4790958D02*
X23586559Y-4789366D01*
X23608114Y-7490064D02*
X23586559Y-7488471D01*
X20827914Y-2091853D02*
X20806359Y-2090260D01*
X20827914Y-4790958D02*
X20806359Y-4789366D01*
X20827914Y-7490064D02*
X20806359Y-7488471D01*
X18047715Y-2091853D02*
X18026160Y-2090260D01*
X18047715Y-4790958D02*
X18026160Y-4789366D01*
X23980765Y-4409790D02*
X23984503Y-4389507D01*
X23980765Y-7108895D02*
X23984503Y-7088612D01*
X23980765Y-9808001D02*
X23984503Y-9787718D01*
X21200565Y-4409790D02*
X21204303Y-4389507D01*
X21200565Y-7108895D02*
X21204303Y-7088612D01*
X21200565Y-9808001D02*
X21204303Y-9787718D01*
X18420366Y-4409790D02*
X18424103Y-4389507D01*
X18420366Y-7108895D02*
X18424103Y-7088612D01*
X21662040Y-2090260D02*
X21640485Y-2091853D01*
X21662040Y-4789366D02*
X21640485Y-4790958D01*
X21662040Y-7488471D02*
X21640485Y-7490064D01*
X18881841Y-2090260D02*
X18860286Y-2091853D01*
X18881841Y-4789366D02*
X18860286Y-4790958D01*
X18881841Y-7488471D02*
X18860286Y-7490064D01*
X16101641Y-2090260D02*
X16080086Y-2091853D01*
X16101641Y-4789366D02*
X16080086Y-4790958D01*
X23767077Y-2139489D02*
X23748767Y-2130384D01*
X23767077Y-4838594D02*
X23748767Y-4829490D01*
X23767077Y-7537700D02*
X23748767Y-7528595D01*
X20986877Y-2139489D02*
X20968567Y-2130384D01*
X20986877Y-4838594D02*
X20968567Y-4829490D01*
X20986877Y-7537700D02*
X20968567Y-7528595D01*
X18206678Y-2139489D02*
X18188367Y-2130384D01*
X18206678Y-4838594D02*
X18188367Y-4829490D01*
X23904984Y-4573260D02*
X23916829Y-4557104D01*
X23904984Y-7272365D02*
X23916829Y-7256209D01*
X23904984Y-9971471D02*
X23916829Y-9955315D01*
X21124784Y-4573260D02*
X21136630Y-4557104D01*
X21124784Y-7272365D02*
X21136630Y-7256209D01*
X21124784Y-9971471D02*
X21136630Y-9955315D01*
X18344585Y-4573260D02*
X18356430Y-4557104D01*
X18344585Y-7272365D02*
X18356430Y-7256209D01*
X23690947Y-4720293D02*
X23710675Y-4713811D01*
X23690947Y-7419398D02*
X23710675Y-7412917D01*
X23690947Y-10118504D02*
X23710675Y-10112022D01*
X20910748Y-4720293D02*
X20930475Y-4713811D01*
X20910748Y-7419398D02*
X20930475Y-7412917D01*
X20910748Y-10118504D02*
X20930475Y-10112022D01*
X18130548Y-4720293D02*
X18150276Y-4713811D01*
X18130548Y-7419398D02*
X18150276Y-7412917D01*
X21662040Y-4738293D02*
X21683881Y-4738829D01*
X21662040Y-7437398D02*
X21683881Y-7437935D01*
X21662040Y-10136504D02*
X21683881Y-10137040D01*
X18881841Y-4738293D02*
X18903681Y-4738829D01*
X18881841Y-7437398D02*
X18903681Y-7437935D01*
X18881841Y-10136504D02*
X18903681Y-10137040D01*
X16101641Y-4738293D02*
X16123481Y-4738829D01*
X16101641Y-7437398D02*
X16123481Y-7437935D01*
X21301105Y-2323209D02*
X21292596Y-2341460D01*
X21301105Y-5022315D02*
X21292596Y-5040566D01*
X21301105Y-7721420D02*
X21292596Y-7739671D01*
X18520905Y-2323209D02*
X18512396Y-2341460D01*
X18520905Y-5022315D02*
X18512396Y-5040566D01*
X18520905Y-7721420D02*
X18512396Y-7739671D01*
X15740705Y-2323209D02*
X15732196Y-2341460D01*
X15740705Y-5022315D02*
X15732196Y-5040566D01*
X21413810Y-4644695D02*
X21429855Y-4656931D01*
X21413810Y-7343800D02*
X21429855Y-7356036D01*
X21413810Y-10042905D02*
X21429855Y-10055142D01*
X18633610Y-4644695D02*
X18649655Y-4656931D01*
X18633610Y-7343800D02*
X18649655Y-7356036D01*
X18633610Y-10042905D02*
X18649655Y-10055142D01*
X15853410Y-4644695D02*
X15869455Y-4656931D01*
X15853410Y-7343800D02*
X15869455Y-7356036D01*
X23767077Y-4689070D02*
X23784861Y-4679145D01*
X23767077Y-7388176D02*
X23784861Y-7378250D01*
X23767077Y-10087281D02*
X23784861Y-10077355D01*
X20986877Y-4689070D02*
X21004662Y-4679145D01*
X20986877Y-7388176D02*
X21004662Y-7378250D01*
X20986877Y-10087281D02*
X21004662Y-10077355D01*
X18206678Y-4689070D02*
X18224462Y-4679145D01*
X18206678Y-7388176D02*
X18224462Y-7378250D01*
X23892372Y-4588827D02*
X23904984Y-4573260D01*
X23892372Y-7287933D02*
X23904984Y-7272365D01*
X23892372Y-9987038D02*
X23904984Y-9971471D01*
X21112172Y-4588827D02*
X21124784Y-4573260D01*
X21112172Y-7287933D02*
X21124784Y-7272365D01*
X21112172Y-9987038D02*
X21124784Y-9971471D01*
X18331973Y-4588827D02*
X18344585Y-4573260D01*
X18331973Y-7287933D02*
X18344585Y-7272365D01*
X21557652Y-2108263D02*
X21537924Y-2114745D01*
X21557652Y-4807368D02*
X21537924Y-4813851D01*
X21557652Y-7506473D02*
X21537924Y-7512956D01*
X18777452Y-2108263D02*
X18757725Y-2114745D01*
X18777452Y-4807368D02*
X18757725Y-4813851D01*
X18777452Y-7506473D02*
X18757725Y-7512956D01*
X15997252Y-2108263D02*
X15977525Y-2114745D01*
X15997252Y-4807368D02*
X15977525Y-4813851D01*
X23710675Y-4713811D02*
X23729957Y-4706430D01*
X23710675Y-7412917D02*
X23729957Y-7405535D01*
X23710675Y-10112022D02*
X23729957Y-10104640D01*
X20930475Y-4713811D02*
X20949758Y-4706430D01*
X20930475Y-7412917D02*
X20949758Y-7405535D01*
X20930475Y-10112022D02*
X20949758Y-10104640D01*
X18150276Y-4713811D02*
X18169558Y-4706430D01*
X18150276Y-7412917D02*
X18169558Y-7405535D01*
X21398397Y-4631740D02*
X21413810Y-4644695D01*
X21398397Y-7330846D02*
X21413810Y-7343800D01*
X21398397Y-10029951D02*
X21413810Y-10042905D01*
X18618198Y-4631740D02*
X18633610Y-4644695D01*
X18618198Y-7330846D02*
X18633610Y-7343800D01*
X18618198Y-10029951D02*
X18633610Y-10042905D01*
X15837998Y-4631740D02*
X15853410Y-4644695D01*
X15837998Y-7330846D02*
X15853410Y-7343800D01*
X23916829Y-2271468D02*
X23904984Y-2255310D01*
X23916829Y-4970573D02*
X23904984Y-4954416D01*
X23916829Y-7669678D02*
X23904984Y-7653521D01*
X21136630Y-2271468D02*
X21124784Y-2255310D01*
X21136630Y-4970573D02*
X21124784Y-4954416D01*
X21136630Y-7669678D02*
X21124784Y-7653521D01*
X18356430Y-2271468D02*
X18344585Y-2255310D01*
X18356430Y-4970573D02*
X18344585Y-4954416D01*
X21518642Y-2122128D02*
X21499833Y-2130384D01*
X21518642Y-4821233D02*
X21499833Y-4829490D01*
X21518642Y-7520338D02*
X21499833Y-7528595D01*
X18738442Y-2122128D02*
X18719633Y-2130384D01*
X18738442Y-4821233D02*
X18719633Y-4829490D01*
X18738442Y-7520338D02*
X18719633Y-7528595D01*
X15958242Y-2122128D02*
X15939433Y-2130384D01*
X15958242Y-4821233D02*
X15939433Y-4829490D01*
X23818744Y-2171632D02*
X23802093Y-2160139D01*
X23818744Y-4870737D02*
X23802093Y-4859244D01*
X23818744Y-7569843D02*
X23802093Y-7558350D01*
X21038545Y-2171632D02*
X21021893Y-2160139D01*
X21038545Y-4870737D02*
X21021893Y-4859244D01*
X21038545Y-7569843D02*
X21021893Y-7558350D01*
X18258345Y-2171632D02*
X18241693Y-2160139D01*
X18258345Y-4870737D02*
X18241693Y-4859244D01*
X23988847Y-4347981D02*
X23989400Y-4326789D01*
X23988847Y-7047086D02*
X23989400Y-7025895D01*
X23988847Y-9746191D02*
X23989400Y-9725000D01*
X21208647Y-4347981D02*
X21209200Y-4326789D01*
X21208647Y-7047086D02*
X21209200Y-7025895D01*
X21208647Y-9746191D02*
X21209200Y-9725000D01*
X18428447Y-4347981D02*
X18429000Y-4326789D01*
X18428447Y-7047086D02*
X18429000Y-7025895D01*
X21446507Y-2160139D02*
X21429855Y-2171632D01*
X21446507Y-4859244D02*
X21429855Y-4870737D01*
X21446507Y-7558350D02*
X21429855Y-7569843D01*
X18666307Y-2160139D02*
X18649655Y-2171632D01*
X18666307Y-4859244D02*
X18649655Y-4870737D01*
X18666307Y-7558350D02*
X18649655Y-7569843D01*
X15886107Y-2160139D02*
X15869455Y-2171632D01*
X15886107Y-4859244D02*
X15869455Y-4870737D01*
X21619242Y-2094475D02*
X21598338Y-2098102D01*
X21619242Y-4793581D02*
X21598338Y-4797207D01*
X21619242Y-7492686D02*
X21598338Y-7496313D01*
X18839043Y-2094475D02*
X18818138Y-2098102D01*
X18839043Y-4793581D02*
X18818138Y-4797207D01*
X18839043Y-7492686D02*
X18818138Y-7496313D01*
X16058843Y-2094475D02*
X16037938Y-2098102D01*
X16058843Y-4793581D02*
X16037938Y-4797207D01*
X23976020Y-2398860D02*
X23970293Y-2379312D01*
X23976020Y-5097965D02*
X23970293Y-5078417D01*
X23976020Y-7797071D02*
X23970293Y-7777522D01*
X21195820Y-2398860D02*
X21190094Y-2379312D01*
X21195820Y-5097965D02*
X21190094Y-5078417D01*
X21195820Y-7797071D02*
X21190094Y-7777522D01*
X18415620Y-2398860D02*
X18409894Y-2379312D01*
X18415620Y-5097965D02*
X18409894Y-5078417D01*
X21320719Y-4540385D02*
X21331770Y-4557104D01*
X21320719Y-7239491D02*
X21331770Y-7256209D01*
X21320719Y-9938596D02*
X21331770Y-9955315D01*
X18540519Y-4540385D02*
X18551570Y-4557104D01*
X18540519Y-7239491D02*
X18551570Y-7256209D01*
X18540519Y-9938596D02*
X18551570Y-9955315D01*
X15760319Y-4540385D02*
X15771370Y-4557104D01*
X15760319Y-7239491D02*
X15771370Y-7256209D01*
X21683881Y-4738829D02*
X23564719Y-4738829D01*
X21683881Y-7437935D02*
X23564719Y-7437935D01*
X21683881Y-10137040D02*
X23564719Y-10137040D01*
X18903681Y-4738829D02*
X20784519Y-4738829D01*
X18903681Y-7437935D02*
X20784519Y-7437935D01*
X18903681Y-10137040D02*
X20784519Y-10137040D01*
X16123481Y-4738829D02*
X18004320Y-4738829D01*
X16123481Y-7437935D02*
X18004320Y-7437935D01*
X21463738Y-2149416D02*
X21446507Y-2160139D01*
X21463738Y-4848521D02*
X21446507Y-4859244D01*
X21463738Y-7547626D02*
X21446507Y-7558350D01*
X18683538Y-2149416D02*
X18666307Y-2160139D01*
X18683538Y-4848521D02*
X18666307Y-4859244D01*
X18683538Y-7547626D02*
X18666307Y-7558350D01*
X15903338Y-2149416D02*
X15886107Y-2160139D01*
X15903338Y-4848521D02*
X15886107Y-4859244D01*
X21356227Y-2239742D02*
X21343615Y-2255310D01*
X21356227Y-4938847D02*
X21343615Y-4954416D01*
X21356227Y-7637952D02*
X21343615Y-7653521D01*
X18576027Y-2239742D02*
X18563415Y-2255310D01*
X18576027Y-4938847D02*
X18563415Y-4954416D01*
X18576027Y-7637952D02*
X18563415Y-7653521D01*
X15795828Y-2239742D02*
X15783216Y-2255310D01*
X15795828Y-4938847D02*
X15783216Y-4954416D01*
X21499833Y-4698174D02*
X21518642Y-4706430D01*
X21499833Y-7397279D02*
X21518642Y-7405535D01*
X21499833Y-10096385D02*
X21518642Y-10104640D01*
X18719633Y-4698174D02*
X18738442Y-4706430D01*
X18719633Y-7397279D02*
X18738442Y-7405535D01*
X18719633Y-10096385D02*
X18738442Y-10104640D01*
X15939433Y-4698174D02*
X15958242Y-4706430D01*
X15939433Y-7397279D02*
X15958242Y-7405535D01*
X23564719Y-4738829D02*
X23586559Y-4738293D01*
X23564719Y-7437935D02*
X23586559Y-7437398D01*
X23564719Y-10137040D02*
X23586559Y-10136504D01*
X20784519Y-4738829D02*
X20806359Y-4738293D01*
X20784519Y-7437935D02*
X20806359Y-7437398D01*
X20784519Y-10137040D02*
X20806359Y-10136504D01*
X18004320Y-4738829D02*
X18026160Y-4738293D01*
X18004320Y-7437935D02*
X18026160Y-7437398D01*
X23984503Y-2439073D02*
X23980765Y-2418789D01*
X23984503Y-5138178D02*
X23980765Y-5117894D01*
X23984503Y-7837283D02*
X23980765Y-7817000D01*
X21204303Y-2439073D02*
X21200565Y-2418789D01*
X21204303Y-5138178D02*
X21200565Y-5117894D01*
X21204303Y-7837283D02*
X21200565Y-7817000D01*
X18424103Y-2439073D02*
X18420366Y-2418789D01*
X18424103Y-5138178D02*
X18420366Y-5117894D01*
X21301105Y-4505365D02*
X21310488Y-4523131D01*
X21301105Y-7204470D02*
X21310488Y-7222236D01*
X21301105Y-9903576D02*
X21310488Y-9921341D01*
X18520905Y-4505365D02*
X18530288Y-4523131D01*
X18520905Y-7204470D02*
X18530288Y-7222236D01*
X18520905Y-9903576D02*
X18530288Y-9921341D01*
X15740705Y-4505365D02*
X15750089Y-4523131D01*
X15740705Y-7204470D02*
X15750089Y-7222236D01*
X21259753Y-4347981D02*
X21261394Y-4368895D01*
X21259753Y-7047086D02*
X21261394Y-7068000D01*
X21259753Y-9746191D02*
X21261394Y-9767106D01*
X18479553Y-4347981D02*
X18481194Y-4368895D01*
X18479553Y-7047086D02*
X18481194Y-7068000D01*
X18479553Y-9746191D02*
X18481194Y-9767106D01*
X15699353Y-4347981D02*
X15700994Y-4368895D01*
X15699353Y-7047086D02*
X15700994Y-7068000D01*
X21683881Y-2089724D02*
X21662040Y-2090260D01*
X21683881Y-4788829D02*
X21662040Y-4789366D01*
X21683881Y-7487935D02*
X21662040Y-7488471D01*
X18903681Y-2089724D02*
X18881841Y-2090260D01*
X18903681Y-4788829D02*
X18881841Y-4789366D01*
X18903681Y-7487935D02*
X18881841Y-7488471D01*
X16123481Y-2089724D02*
X16101641Y-2090260D01*
X16123481Y-4788829D02*
X16101641Y-4789366D01*
X23987205Y-4368895D02*
X23988847Y-4347981D01*
X23987205Y-7068000D02*
X23988847Y-7047086D01*
X23987205Y-9767106D02*
X23988847Y-9746191D01*
X21207006Y-4368895D02*
X21208647Y-4347981D01*
X21207006Y-7068000D02*
X21208647Y-7047086D01*
X21207006Y-9767106D02*
X21208647Y-9746191D01*
X18426806Y-4368895D02*
X18428447Y-4347981D01*
X18426806Y-7068000D02*
X18428447Y-7047086D01*
X21261394Y-2459685D02*
X21259753Y-2480600D01*
X21261394Y-5158790D02*
X21259753Y-5179705D01*
X21261394Y-7857895D02*
X21259753Y-7878810D01*
X18481194Y-2459685D02*
X18479553Y-2480600D01*
X18481194Y-5158790D02*
X18479553Y-5179705D01*
X18481194Y-7857895D02*
X18479553Y-7878810D01*
X15700994Y-2459685D02*
X15699353Y-2480600D01*
X15700994Y-5158790D02*
X15699353Y-5179705D01*
X23834790Y-4644695D02*
X23850202Y-4631740D01*
X23834790Y-7343800D02*
X23850202Y-7330846D01*
X23834790Y-10042905D02*
X23850202Y-10029951D01*
X21054590Y-4644695D02*
X21070002Y-4631740D01*
X21054590Y-7343800D02*
X21070002Y-7330846D01*
X21054590Y-10042905D02*
X21070002Y-10029951D01*
X18274390Y-4644695D02*
X18289802Y-4631740D01*
X18274390Y-7343800D02*
X18289802Y-7330846D01*
X21369579Y-2224787D02*
X21356227Y-2239742D01*
X21369579Y-4923892D02*
X21356227Y-4938847D01*
X21369579Y-7622998D02*
X21356227Y-7637952D01*
X18589380Y-2224787D02*
X18576027Y-2239742D01*
X18589380Y-4923892D02*
X18576027Y-4938847D01*
X18589380Y-7622998D02*
X18576027Y-7637952D01*
X15809180Y-2224787D02*
X15795828Y-2239742D01*
X15809180Y-4923892D02*
X15795828Y-4938847D01*
X23904984Y-2255310D02*
X23892372Y-2239742D01*
X23904984Y-4954416D02*
X23892372Y-4938847D01*
X23904984Y-7653521D02*
X23892372Y-7637952D01*
X21124784Y-2255310D02*
X21112172Y-2239742D01*
X21124784Y-4954416D02*
X21112172Y-4938847D01*
X21124784Y-7653521D02*
X21112172Y-7637952D01*
X18344585Y-2255310D02*
X18331973Y-2239742D01*
X18344585Y-4954416D02*
X18331973Y-4938847D01*
X23784861Y-4679145D02*
X23802093Y-4668423D01*
X23784861Y-7378250D02*
X23802093Y-7367528D01*
X23784861Y-10077355D02*
X23802093Y-10066634D01*
X21004662Y-4679145D02*
X21021893Y-4668423D01*
X21004662Y-7378250D02*
X21021893Y-7367528D01*
X21004662Y-10077355D02*
X21021893Y-10066634D01*
X18224462Y-4679145D02*
X18241693Y-4668423D01*
X18224462Y-7378250D02*
X18241693Y-7367528D01*
X21619242Y-4734078D02*
X21640485Y-4736700D01*
X21619242Y-7433184D02*
X21640485Y-7435806D01*
X21619242Y-10132289D02*
X21640485Y-10134911D01*
X18839043Y-4734078D02*
X18860286Y-4736700D01*
X18839043Y-7433184D02*
X18860286Y-7435806D01*
X18839043Y-10132289D02*
X18860286Y-10134911D01*
X16058843Y-4734078D02*
X16080086Y-4736700D01*
X16058843Y-7433184D02*
X16080086Y-7435806D01*
X23988847Y-2480600D02*
X23987205Y-2459685D01*
X23988847Y-5179705D02*
X23987205Y-5158790D01*
X23988847Y-7878810D02*
X23987205Y-7857895D01*
X21208647Y-2480600D02*
X21207006Y-2459685D01*
X21208647Y-5179705D02*
X21207006Y-5158790D01*
X21208647Y-7878810D02*
X21207006Y-7857895D01*
X18428447Y-2480600D02*
X18426806Y-2459685D01*
X18428447Y-5179705D02*
X18426806Y-5158790D01*
X23947495Y-4505365D02*
X23956004Y-4487115D01*
X23947495Y-7204470D02*
X23956004Y-7186221D01*
X23947495Y-9903576D02*
X23956004Y-9885326D01*
X21167295Y-4505365D02*
X21175804Y-4487115D01*
X21167295Y-7204470D02*
X21175804Y-7186221D01*
X21167295Y-9903576D02*
X21175804Y-9885326D01*
X18387095Y-4505365D02*
X18395604Y-4487115D01*
X18387095Y-7204470D02*
X18395604Y-7186221D01*
X21499833Y-2130384D02*
X21481522Y-2139489D01*
X21499833Y-4829490D02*
X21481522Y-4838594D01*
X21499833Y-7528595D02*
X21481522Y-7537700D01*
X18719633Y-2130384D02*
X18701323Y-2139489D01*
X18719633Y-4829490D02*
X18701323Y-4838594D01*
X18719633Y-7528595D02*
X18701323Y-7537700D01*
X15939433Y-2130384D02*
X15921123Y-2139489D01*
X15939433Y-4829490D02*
X15921123Y-4838594D01*
X23864954Y-4618094D02*
X23879020Y-4603781D01*
X23864954Y-7317199D02*
X23879020Y-7302886D01*
X23864954Y-10016304D02*
X23879020Y-10001991D01*
X21084755Y-4618094D02*
X21098820Y-4603781D01*
X21084755Y-7317199D02*
X21098820Y-7302886D01*
X21084755Y-10016304D02*
X21098820Y-10001991D01*
X18304555Y-4618094D02*
X18318620Y-4603781D01*
X18304555Y-7317199D02*
X18318620Y-7302886D01*
X21557652Y-4720293D02*
X21577799Y-4725849D01*
X21557652Y-7419398D02*
X21577799Y-7424954D01*
X21557652Y-10118504D02*
X21577799Y-10124059D01*
X18777452Y-4720293D02*
X18797599Y-4725849D01*
X18777452Y-7419398D02*
X18797599Y-7424954D01*
X18777452Y-10118504D02*
X18797599Y-10124059D01*
X15997252Y-4720293D02*
X16017399Y-4725849D01*
X15997252Y-7419398D02*
X16017399Y-7424954D01*
X23864954Y-2210473D02*
X23850202Y-2196825D01*
X23864954Y-4909578D02*
X23850202Y-4895930D01*
X23864954Y-7608684D02*
X23850202Y-7595036D01*
X21084755Y-2210473D02*
X21070002Y-2196825D01*
X21084755Y-4909578D02*
X21070002Y-4895930D01*
X21084755Y-7608684D02*
X21070002Y-7595036D01*
X18304555Y-2210473D02*
X18289802Y-2196825D01*
X18304555Y-4909578D02*
X18289802Y-4895930D01*
X23608114Y-4736700D02*
X23629357Y-4734078D01*
X23608114Y-7435806D02*
X23629357Y-7433184D01*
X23608114Y-10134911D02*
X23629357Y-10132289D01*
X20827914Y-4736700D02*
X20849158Y-4734078D01*
X20827914Y-7435806D02*
X20849158Y-7433184D01*
X20827914Y-10134911D02*
X20849158Y-10132289D01*
X18047715Y-4736700D02*
X18068958Y-4734078D01*
X18047715Y-7435806D02*
X18068958Y-7433184D01*
X23670801Y-2102706D02*
X23650262Y-2098102D01*
X23670801Y-4801812D02*
X23650262Y-4797207D01*
X23670801Y-7500917D02*
X23650262Y-7496313D01*
X20890601Y-2102706D02*
X20870062Y-2098102D01*
X20890601Y-4801812D02*
X20870062Y-4797207D01*
X20890601Y-7500917D02*
X20870062Y-7496313D01*
X18110401Y-2102706D02*
X18089862Y-2098102D01*
X18110401Y-4801812D02*
X18089862Y-4797207D01*
X23938111Y-2305443D02*
X23927880Y-2288187D01*
X23938111Y-5004548D02*
X23927880Y-4987293D01*
X23938111Y-7703654D02*
X23927880Y-7686398D01*
X21157911Y-2305443D02*
X21147681Y-2288187D01*
X21157911Y-5004548D02*
X21147681Y-4987293D01*
X21157911Y-7703654D02*
X21147681Y-7686398D01*
X18377712Y-2305443D02*
X18367481Y-2288187D01*
X18377712Y-5004548D02*
X18367481Y-4987293D01*
X21259200Y-4326789D02*
X21259753Y-4347981D01*
X21259200Y-7025895D02*
X21259753Y-7047086D01*
X21259200Y-9725000D02*
X21259753Y-9746191D01*
X18479000Y-4326789D02*
X18479553Y-4347981D01*
X18479000Y-7025895D02*
X18479553Y-7047086D01*
X18479000Y-9725000D02*
X18479553Y-9746191D01*
X15698800Y-4326789D02*
X15699353Y-4347981D01*
X15698800Y-7025895D02*
X15699353Y-7047086D01*
X21429855Y-2171632D02*
X21413810Y-2183869D01*
X21429855Y-4870737D02*
X21413810Y-4882975D01*
X21429855Y-7569843D02*
X21413810Y-7582080D01*
X18649655Y-2171632D02*
X18633610Y-2183869D01*
X18649655Y-4870737D02*
X18633610Y-4882975D01*
X18649655Y-7569843D02*
X18633610Y-7582080D01*
X15869455Y-2171632D02*
X15853410Y-2183869D01*
X15869455Y-4870737D02*
X15853410Y-4882975D01*
X23802093Y-2160139D02*
X23784861Y-2149416D01*
X23802093Y-4859244D02*
X23784861Y-4848521D01*
X23802093Y-7558350D02*
X23784861Y-7547626D01*
X21021893Y-2160139D02*
X21004662Y-2149416D01*
X21021893Y-4859244D02*
X21004662Y-4848521D01*
X21021893Y-7558350D02*
X21004662Y-7547626D01*
X18241693Y-2160139D02*
X18224462Y-2149416D01*
X18241693Y-4859244D02*
X18224462Y-4848521D01*
X21356227Y-4588827D02*
X21369579Y-4603781D01*
X21356227Y-7287933D02*
X21369579Y-7302886D01*
X21356227Y-9987038D02*
X21369579Y-10001991D01*
X18576027Y-4588827D02*
X18589380Y-4603781D01*
X18576027Y-7287933D02*
X18589380Y-7302886D01*
X18576027Y-9987038D02*
X18589380Y-10001991D01*
X15795828Y-4588827D02*
X15809180Y-4603781D01*
X15795828Y-7287933D02*
X15809180Y-7302886D01*
X23629357Y-4734078D02*
X23650262Y-4730452D01*
X23629357Y-7433184D02*
X23650262Y-7429558D01*
X23629357Y-10132289D02*
X23650262Y-10128663D01*
X20849158Y-4734078D02*
X20870062Y-4730452D01*
X20849158Y-7433184D02*
X20870062Y-7429558D01*
X20849158Y-10132289D02*
X20870062Y-10128663D01*
X18068958Y-4734078D02*
X18089862Y-4730452D01*
X18068958Y-7433184D02*
X18089862Y-7429558D01*
X21259753Y-2480600D02*
X21259200Y-2501791D01*
X21259753Y-5179705D02*
X21259200Y-5200896D01*
X21259753Y-7878810D02*
X21259200Y-7900002D01*
X18479553Y-2480600D02*
X18479000Y-2501791D01*
X18479553Y-5179705D02*
X18479000Y-5200896D01*
X18479553Y-7878810D02*
X18479000Y-7900002D01*
X15699353Y-2480600D02*
X15698800Y-2501791D01*
X15699353Y-5179705D02*
X15698800Y-5200896D01*
X23629357Y-2094475D02*
X23608114Y-2091853D01*
X23629357Y-4793581D02*
X23608114Y-4790958D01*
X23629357Y-7492686D02*
X23608114Y-7490064D01*
X20849158Y-2094475D02*
X20827914Y-2091853D01*
X20849158Y-4793581D02*
X20827914Y-4790958D01*
X20849158Y-7492686D02*
X20827914Y-7490064D01*
X18068958Y-2094475D02*
X18047715Y-2091853D01*
X18068958Y-4793581D02*
X18047715Y-4790958D01*
X21446507Y-4668423D02*
X21463738Y-4679145D01*
X21446507Y-7367528D02*
X21463738Y-7378250D01*
X21446507Y-10066634D02*
X21463738Y-10077355D01*
X18666307Y-4668423D02*
X18683538Y-4679145D01*
X18666307Y-7367528D02*
X18683538Y-7378250D01*
X18666307Y-10066634D02*
X18683538Y-10077355D01*
X15886107Y-4668423D02*
X15903338Y-4679145D01*
X15886107Y-7367528D02*
X15903338Y-7378250D01*
X23976020Y-4429718D02*
X23980765Y-4409790D01*
X23976020Y-7128824D02*
X23980765Y-7108895D01*
X23976020Y-9827929D02*
X23980765Y-9808001D01*
X21195820Y-4429718D02*
X21200565Y-4409790D01*
X21195820Y-7128824D02*
X21200565Y-7108895D01*
X21195820Y-9827929D02*
X21200565Y-9808001D01*
X18415620Y-4429718D02*
X18420366Y-4409790D01*
X18415620Y-7128824D02*
X18420366Y-7108895D01*
X23980765Y-2418789D02*
X23976020Y-2398860D01*
X23980765Y-5117894D02*
X23976020Y-5097965D01*
X23980765Y-7817000D02*
X23976020Y-7797071D01*
X21200565Y-2418789D02*
X21195820Y-2398860D01*
X21200565Y-5117894D02*
X21195820Y-5097965D01*
X21200565Y-7817000D02*
X21195820Y-7797071D01*
X18420366Y-2418789D02*
X18415620Y-2398860D01*
X18420366Y-5117894D02*
X18415620Y-5097965D01*
X21267834Y-4409790D02*
X21272580Y-4429718D01*
X21267834Y-7108895D02*
X21272580Y-7128824D01*
X21267834Y-9808001D02*
X21272580Y-9827929D01*
X18487634Y-4409790D02*
X18492380Y-4429718D01*
X18487634Y-7108895D02*
X18492380Y-7128824D01*
X18487634Y-9808001D02*
X18492380Y-9827929D01*
X15707435Y-4409790D02*
X15712180Y-4429718D01*
X15707435Y-7108895D02*
X15712180Y-7128824D01*
X23970293Y-2379312D02*
X23963612Y-2360170D01*
X23970293Y-5078417D02*
X23963612Y-5059275D01*
X23970293Y-7777522D02*
X23963612Y-7758380D01*
X21190094Y-2379312D02*
X21183413Y-2360170D01*
X21190094Y-5078417D02*
X21183413Y-5059275D01*
X21190094Y-7777522D02*
X21183413Y-7758380D01*
X18409894Y-2379312D02*
X18403213Y-2360170D01*
X18409894Y-5078417D02*
X18403213Y-5059275D01*
X21272580Y-4429718D02*
X21278306Y-4449266D01*
X21272580Y-7128824D02*
X21278306Y-7148371D01*
X21272580Y-9827929D02*
X21278306Y-9847477D01*
X18492380Y-4429718D02*
X18498106Y-4449266D01*
X18492380Y-7128824D02*
X18498106Y-7148371D01*
X18492380Y-9827929D02*
X18498106Y-9847477D01*
X15712180Y-4429718D02*
X15717906Y-4449266D01*
X15712180Y-7128824D02*
X15717906Y-7148371D01*
X21310488Y-4523131D02*
X21320719Y-4540385D01*
X21310488Y-7222236D02*
X21320719Y-7239491D01*
X21310488Y-9921341D02*
X21320719Y-9938596D01*
X18530288Y-4523131D02*
X18540519Y-4540385D01*
X18530288Y-7222236D02*
X18540519Y-7239491D01*
X18530288Y-9921341D02*
X18540519Y-9938596D01*
X15750089Y-4523131D02*
X15760319Y-4540385D01*
X15750089Y-7222236D02*
X15760319Y-7239491D01*
X21640485Y-4736700D02*
X21662040Y-4738293D01*
X21640485Y-7435806D02*
X21662040Y-7437398D01*
X21640485Y-10134911D02*
X21662040Y-10136504D01*
X18860286Y-4736700D02*
X18881841Y-4738293D01*
X18860286Y-7435806D02*
X18881841Y-7437398D01*
X18860286Y-10134911D02*
X18881841Y-10136504D01*
X16080086Y-4736700D02*
X16101641Y-4738293D01*
X16080086Y-7435806D02*
X16101641Y-7437398D01*
X21481522Y-2139489D02*
X21463738Y-2149416D01*
X21481522Y-4838594D02*
X21463738Y-4848521D01*
X21481522Y-7537700D02*
X21463738Y-7547626D01*
X18701323Y-2139489D02*
X18683538Y-2149416D01*
X18701323Y-4838594D02*
X18683538Y-4848521D01*
X18701323Y-7537700D02*
X18683538Y-7547626D01*
X15921123Y-2139489D02*
X15903338Y-2149416D01*
X15921123Y-4838594D02*
X15903338Y-4848521D01*
X23956004Y-4487115D02*
X23963612Y-4468407D01*
X23956004Y-7186221D02*
X23963612Y-7167512D01*
X23956004Y-9885326D02*
X23963612Y-9866618D01*
X21175804Y-4487115D02*
X21183413Y-4468407D01*
X21175804Y-7186221D02*
X21183413Y-7167512D01*
X21175804Y-9885326D02*
X21183413Y-9866618D01*
X18395604Y-4487115D02*
X18403213Y-4468407D01*
X18395604Y-7186221D02*
X18403213Y-7167512D01*
X23670801Y-4725849D02*
X23690947Y-4720293D01*
X23670801Y-7424954D02*
X23690947Y-7419398D01*
X23670801Y-10124059D02*
X23690947Y-10118504D01*
X20890601Y-4725849D02*
X20910748Y-4720293D01*
X20890601Y-7424954D02*
X20910748Y-7419398D01*
X20890601Y-10124059D02*
X20910748Y-10118504D01*
X18110401Y-4725849D02*
X18130548Y-4720293D01*
X18110401Y-7424954D02*
X18130548Y-7419398D01*
X21261394Y-4368895D02*
X21264097Y-4389507D01*
X21261394Y-7068000D02*
X21264097Y-7088612D01*
X21261394Y-9767106D02*
X21264097Y-9787718D01*
X18481194Y-4368895D02*
X18483897Y-4389507D01*
X18481194Y-7068000D02*
X18483897Y-7088612D01*
X18481194Y-9767106D02*
X18483897Y-9787718D01*
X15700994Y-4368895D02*
X15703697Y-4389507D01*
X15700994Y-7068000D02*
X15703697Y-7088612D01*
X21598338Y-2098102D02*
X21577799Y-2102706D01*
X21598338Y-4797207D02*
X21577799Y-4801812D01*
X21598338Y-7496313D02*
X21577799Y-7500917D01*
X18818138Y-2098102D02*
X18797599Y-2102706D01*
X18818138Y-4797207D02*
X18797599Y-4801812D01*
X18818138Y-7496313D02*
X18797599Y-7500917D01*
X16037938Y-2098102D02*
X16017399Y-2102706D01*
X16037938Y-4797207D02*
X16017399Y-4801812D01*
X21320719Y-2288187D02*
X21310488Y-2305443D01*
X21320719Y-4987293D02*
X21310488Y-5004548D01*
X21320719Y-7686398D02*
X21310488Y-7703654D01*
X18540519Y-2288187D02*
X18530288Y-2305443D01*
X18540519Y-4987293D02*
X18530288Y-5004548D01*
X18540519Y-7686398D02*
X18530288Y-7703654D01*
X15760319Y-2288187D02*
X15750089Y-2305443D01*
X15760319Y-4987293D02*
X15750089Y-5004548D01*
X23892372Y-2239742D02*
X23879020Y-2224787D01*
X23892372Y-4938847D02*
X23879020Y-4923892D01*
X23892372Y-7637952D02*
X23879020Y-7622998D01*
X21112172Y-2239742D02*
X21098820Y-2224787D01*
X21112172Y-4938847D02*
X21098820Y-4923892D01*
X21112172Y-7637952D02*
X21098820Y-7622998D01*
X18331973Y-2239742D02*
X18318620Y-2224787D01*
X18331973Y-4938847D02*
X18318620Y-4923892D01*
X21481522Y-4689070D02*
X21499833Y-4698174D01*
X21481522Y-7388176D02*
X21499833Y-7397279D01*
X21481522Y-10087281D02*
X21499833Y-10096385D01*
X18701323Y-4689070D02*
X18719633Y-4698174D01*
X18701323Y-7388176D02*
X18719633Y-7397279D01*
X18701323Y-10087281D02*
X18719633Y-10096385D01*
X15921123Y-4689070D02*
X15939433Y-4698174D01*
X15921123Y-7388176D02*
X15939433Y-7397279D01*
X21267834Y-2418789D02*
X21264097Y-2439073D01*
X21267834Y-5117894D02*
X21264097Y-5138178D01*
X21267834Y-7817000D02*
X21264097Y-7837283D01*
X18487634Y-2418789D02*
X18483897Y-2439073D01*
X18487634Y-5117894D02*
X18483897Y-5138178D01*
X18487634Y-7817000D02*
X18483897Y-7837283D01*
X15707435Y-2418789D02*
X15703697Y-2439073D01*
X15707435Y-5117894D02*
X15703697Y-5138178D01*
X23748767Y-2130384D02*
X23729957Y-2122128D01*
X23748767Y-4829490D02*
X23729957Y-4821233D01*
X23748767Y-7528595D02*
X23729957Y-7520338D01*
X20968567Y-2130384D02*
X20949758Y-2122128D01*
X20968567Y-4829490D02*
X20949758Y-4821233D01*
X20968567Y-7528595D02*
X20949758Y-7520338D01*
X18188367Y-2130384D02*
X18169558Y-2122128D01*
X18188367Y-4829490D02*
X18169558Y-4821233D01*
X21278306Y-4449266D02*
X21284987Y-4468407D01*
X21278306Y-7148371D02*
X21284987Y-7167512D01*
X21278306Y-9847477D02*
X21284987Y-9866618D01*
X18498106Y-4449266D02*
X18504787Y-4468407D01*
X18498106Y-7148371D02*
X18504787Y-7167512D01*
X18498106Y-9847477D02*
X18504787Y-9866618D01*
X15717906Y-4449266D02*
X15724587Y-4468407D01*
X15717906Y-7148371D02*
X15724587Y-7167512D01*
X23850202Y-2196825D02*
X23834790Y-2183869D01*
X23850202Y-4895930D02*
X23834790Y-4882975D01*
X23850202Y-7595036D02*
X23834790Y-7582080D01*
X21070002Y-2196825D02*
X21054590Y-2183869D01*
X21070002Y-4895930D02*
X21054590Y-4882975D01*
X21070002Y-7595036D02*
X21054590Y-7582080D01*
X18289802Y-2196825D02*
X18274390Y-2183869D01*
X18289802Y-4895930D02*
X18274390Y-4882975D01*
X23748767Y-4698174D02*
X23767077Y-4689070D01*
X23748767Y-7397279D02*
X23767077Y-7388176D01*
X23748767Y-10096385D02*
X23767077Y-10087281D01*
X20968567Y-4698174D02*
X20986877Y-4689070D01*
X20968567Y-7397279D02*
X20986877Y-7388176D01*
X20968567Y-10096385D02*
X20986877Y-10087281D01*
X18188367Y-4698174D02*
X18206678Y-4689070D01*
X18188367Y-7397279D02*
X18206678Y-7388176D01*
X21343615Y-4573260D02*
X21356227Y-4588827D01*
X21343615Y-7272365D02*
X21356227Y-7287933D01*
X21343615Y-9971471D02*
X21356227Y-9987038D01*
X18563415Y-4573260D02*
X18576027Y-4588827D01*
X18563415Y-7272365D02*
X18576027Y-7287933D01*
X18563415Y-9971471D02*
X18576027Y-9987038D01*
X15783216Y-4573260D02*
X15795828Y-4588827D01*
X15783216Y-7272365D02*
X15795828Y-7287933D01*
X21264097Y-4389507D02*
X21267834Y-4409790D01*
X21264097Y-7088612D02*
X21267834Y-7108895D01*
X21264097Y-9787718D02*
X21267834Y-9808001D01*
X18483897Y-4389507D02*
X18487634Y-4409790D01*
X18483897Y-7088612D02*
X18487634Y-7108895D01*
X18483897Y-9787718D02*
X18487634Y-9808001D01*
X15703697Y-4389507D02*
X15707435Y-4409790D01*
X15703697Y-7088612D02*
X15707435Y-7108895D01*
X23987205Y-2459685D02*
X23984503Y-2439073D01*
X23987205Y-5158790D02*
X23984503Y-5138178D01*
X23987205Y-7857895D02*
X23984503Y-7837283D01*
X21207006Y-2459685D02*
X21204303Y-2439073D01*
X21207006Y-5158790D02*
X21204303Y-5138178D01*
X21207006Y-7857895D02*
X21204303Y-7837283D01*
X18426806Y-2459685D02*
X18424103Y-2439073D01*
X18426806Y-5158790D02*
X18424103Y-5138178D01*
X21278306Y-2379312D02*
X21272580Y-2398860D01*
X21278306Y-5078417D02*
X21272580Y-5097965D01*
X21278306Y-7777522D02*
X21272580Y-7797071D01*
X18498106Y-2379312D02*
X18492380Y-2398860D01*
X18498106Y-5078417D02*
X18492380Y-5097965D01*
X18498106Y-7777522D02*
X18492380Y-7797071D01*
X15717906Y-2379312D02*
X15712180Y-2398860D01*
X15717906Y-5078417D02*
X15712180Y-5097965D01*
X23989400Y-2501791D02*
X23988847Y-2480600D01*
X23989400Y-5200896D02*
X23988847Y-5179705D01*
X23989400Y-7900002D02*
X23988847Y-7878810D01*
X21209200Y-2501791D02*
X21208647Y-2480600D01*
X21209200Y-5200896D02*
X21208647Y-5179705D01*
X21209200Y-7900002D02*
X21208647Y-7878810D01*
X18429000Y-2501791D02*
X18428447Y-2480600D01*
X18429000Y-5200896D02*
X18428447Y-5179705D01*
X21429855Y-4656931D02*
X21446507Y-4668423D01*
X21429855Y-7356036D02*
X21446507Y-7367528D01*
X21429855Y-10055142D02*
X21446507Y-10066634D01*
X18649655Y-4656931D02*
X18666307Y-4668423D01*
X18649655Y-7356036D02*
X18666307Y-7367528D01*
X18649655Y-10055142D02*
X18666307Y-10066634D01*
X15869455Y-4656931D02*
X15886107Y-4668423D01*
X15869455Y-7356036D02*
X15886107Y-7367528D01*
X23650262Y-4730452D02*
X23670801Y-4725849D01*
X23650262Y-7429558D02*
X23670801Y-7424954D01*
X23650262Y-10128663D02*
X23670801Y-10124059D01*
X20870062Y-4730452D02*
X20890601Y-4725849D01*
X20870062Y-7429558D02*
X20890601Y-7424954D01*
X20870062Y-10128663D02*
X20890601Y-10124059D01*
X18089862Y-4730452D02*
X18110401Y-4725849D01*
X18089862Y-7429558D02*
X18110401Y-7424954D01*
X21284987Y-4468407D02*
X21292596Y-4487115D01*
X21284987Y-7167512D02*
X21292596Y-7186221D01*
X21284987Y-9866618D02*
X21292596Y-9885326D01*
X18504787Y-4468407D02*
X18512396Y-4487115D01*
X18504787Y-7167512D02*
X18512396Y-7186221D01*
X18504787Y-9866618D02*
X18512396Y-9885326D01*
X15724587Y-4468407D02*
X15732196Y-4487115D01*
X15724587Y-7167512D02*
X15732196Y-7186221D01*
X23927880Y-4540385D02*
X23938111Y-4523131D01*
X23927880Y-7239491D02*
X23938111Y-7222236D01*
X23927880Y-9938596D02*
X23938111Y-9921341D01*
X21147681Y-4540385D02*
X21157911Y-4523131D01*
X21147681Y-7239491D02*
X21157911Y-7222236D01*
X21147681Y-9938596D02*
X21157911Y-9921341D01*
X18367481Y-4540385D02*
X18377712Y-4523131D01*
X18367481Y-7239491D02*
X18377712Y-7222236D01*
X23784861Y-2149416D02*
X23767077Y-2139489D01*
X23784861Y-4848521D02*
X23767077Y-4838594D01*
X23784861Y-7547626D02*
X23767077Y-7537700D01*
X21004662Y-2149416D02*
X20986877Y-2139489D01*
X21004662Y-4848521D02*
X20986877Y-4838594D01*
X21004662Y-7547626D02*
X20986877Y-7537700D01*
X18224462Y-2149416D02*
X18206678Y-2139489D01*
X18224462Y-4848521D02*
X18206678Y-4838594D01*
X23947495Y-2323209D02*
X23938111Y-2305443D01*
X23947495Y-5022315D02*
X23938111Y-5004548D01*
X23947495Y-7721420D02*
X23938111Y-7703654D01*
X21167295Y-2323209D02*
X21157911Y-2305443D01*
X21167295Y-5022315D02*
X21157911Y-5004548D01*
X21167295Y-7721420D02*
X21157911Y-7703654D01*
X18387095Y-2323209D02*
X18377712Y-2305443D01*
X18387095Y-5022315D02*
X18377712Y-5004548D01*
X23650262Y-2098102D02*
X23629357Y-2094475D01*
X23650262Y-4797207D02*
X23629357Y-4793581D01*
X23650262Y-7496313D02*
X23629357Y-7492686D01*
X20870062Y-2098102D02*
X20849158Y-2094475D01*
X20870062Y-4797207D02*
X20849158Y-4793581D01*
X20870062Y-7496313D02*
X20849158Y-7492686D01*
X18089862Y-2098102D02*
X18068958Y-2094475D01*
X18089862Y-4797207D02*
X18068958Y-4793581D01*
X21577799Y-2102706D02*
X21557652Y-2108263D01*
X21577799Y-4801812D02*
X21557652Y-4807368D01*
X21577799Y-7500917D02*
X21557652Y-7506473D01*
X18797599Y-2102706D02*
X18777452Y-2108263D01*
X18797599Y-4801812D02*
X18777452Y-4807368D01*
X18797599Y-7500917D02*
X18777452Y-7506473D01*
X16017399Y-2102706D02*
X15997252Y-2108263D01*
X16017399Y-4801812D02*
X15997252Y-4807368D01*
X21264097Y-2439073D02*
X21261394Y-2459685D01*
X21264097Y-5138178D02*
X21261394Y-5158790D01*
X21264097Y-7837283D02*
X21261394Y-7857895D01*
X18483897Y-2439073D02*
X18481194Y-2459685D01*
X18483897Y-5138178D02*
X18481194Y-5158790D01*
X18483897Y-7837283D02*
X18481194Y-7857895D01*
X15703697Y-2439073D02*
X15700994Y-2459685D01*
X15703697Y-5138178D02*
X15700994Y-5158790D01*
X23916829Y-4557104D02*
X23927880Y-4540385D01*
X23916829Y-7256209D02*
X23927880Y-7239491D01*
X23916829Y-9955315D02*
X23927880Y-9938596D01*
X21136630Y-4557104D02*
X21147681Y-4540385D01*
X21136630Y-7256209D02*
X21147681Y-7239491D01*
X21136630Y-9955315D02*
X21147681Y-9938596D01*
X18356430Y-4557104D02*
X18367481Y-4540385D01*
X18356430Y-7256209D02*
X18367481Y-7239491D01*
X21413810Y-2183869D02*
X21398397Y-2196825D01*
X21413810Y-4882975D02*
X21398397Y-4895930D01*
X21413810Y-7582080D02*
X21398397Y-7595036D01*
X18633610Y-2183869D02*
X18618198Y-2196825D01*
X18633610Y-4882975D02*
X18618198Y-4895930D01*
X18633610Y-7582080D02*
X18618198Y-7595036D01*
X15853410Y-2183869D02*
X15837998Y-2196825D01*
X15853410Y-4882975D02*
X15837998Y-4895930D01*
X23956004Y-2341460D02*
X23947495Y-2323209D01*
X23956004Y-5040566D02*
X23947495Y-5022315D01*
X23956004Y-7739671D02*
X23947495Y-7721420D01*
X21175804Y-2341460D02*
X21167295Y-2323209D01*
X21175804Y-5040566D02*
X21167295Y-5022315D01*
X21175804Y-7739671D02*
X21167295Y-7721420D01*
X18395604Y-2341460D02*
X18387095Y-2323209D01*
X18395604Y-5040566D02*
X18387095Y-5022315D01*
X23802093Y-4668423D02*
X23818744Y-4656931D01*
X23802093Y-7367528D02*
X23818744Y-7356036D01*
X23802093Y-10066634D02*
X23818744Y-10055142D01*
X21021893Y-4668423D02*
X21038545Y-4656931D01*
X21021893Y-7367528D02*
X21038545Y-7356036D01*
X21021893Y-10066634D02*
X21038545Y-10055142D01*
X18241693Y-4668423D02*
X18258345Y-4656931D01*
X18241693Y-7367528D02*
X18258345Y-7356036D01*
X23970293Y-4449266D02*
X23976020Y-4429718D01*
X23970293Y-7148371D02*
X23976020Y-7128824D01*
X23970293Y-9847477D02*
X23976020Y-9827929D01*
X21190094Y-4449266D02*
X21195820Y-4429718D01*
X21190094Y-7148371D02*
X21195820Y-7128824D01*
X21190094Y-9847477D02*
X21195820Y-9827929D01*
X18409894Y-4449266D02*
X18415620Y-4429718D01*
X18409894Y-7148371D02*
X18415620Y-7128824D01*
X23834790Y-2183869D02*
X23818744Y-2171632D01*
X23834790Y-4882975D02*
X23818744Y-4870737D01*
X23834790Y-7582080D02*
X23818744Y-7569843D01*
X21054590Y-2183869D02*
X21038545Y-2171632D01*
X21054590Y-4882975D02*
X21038545Y-4870737D01*
X21054590Y-7582080D02*
X21038545Y-7569843D01*
X18274390Y-2183869D02*
X18258345Y-2171632D01*
X18274390Y-4882975D02*
X18258345Y-4870737D01*
X21331770Y-2271468D02*
X21320719Y-2288187D01*
X21331770Y-4970573D02*
X21320719Y-4987293D01*
X21331770Y-7669678D02*
X21320719Y-7686398D01*
X18551570Y-2271468D02*
X18540519Y-2288187D01*
X18551570Y-4970573D02*
X18540519Y-4987293D01*
X18551570Y-7669678D02*
X18540519Y-7686398D01*
X15771370Y-2271468D02*
X15760319Y-2288187D01*
X15771370Y-4970573D02*
X15760319Y-4987293D01*
X23963612Y-4468407D02*
X23970293Y-4449266D01*
X23963612Y-7167512D02*
X23970293Y-7148371D01*
X23963612Y-9866618D02*
X23970293Y-9847477D01*
X21183413Y-4468407D02*
X21190094Y-4449266D01*
X21183413Y-7167512D02*
X21190094Y-7148371D01*
X21183413Y-9866618D02*
X21190094Y-9847477D01*
X18403213Y-4468407D02*
X18409894Y-4449266D01*
X18403213Y-7167512D02*
X18409894Y-7148371D01*
X21383645Y-4618094D02*
X21398397Y-4631740D01*
X21383645Y-7317199D02*
X21398397Y-7330846D01*
X21383645Y-10016304D02*
X21398397Y-10029951D01*
X18603445Y-4618094D02*
X18618198Y-4631740D01*
X18603445Y-7317199D02*
X18618198Y-7330846D01*
X18603445Y-10016304D02*
X18618198Y-10029951D01*
X15823245Y-4618094D02*
X15837998Y-4631740D01*
X15823245Y-7317199D02*
X15837998Y-7330846D01*
X21310488Y-2305443D02*
X21301105Y-2323209D01*
X21310488Y-5004548D02*
X21301105Y-5022315D01*
X21310488Y-7703654D02*
X21301105Y-7721420D01*
X18530288Y-2305443D02*
X18520905Y-2323209D01*
X18530288Y-5004548D02*
X18520905Y-5022315D01*
X18530288Y-7703654D02*
X18520905Y-7721420D01*
X15750089Y-2305443D02*
X15740705Y-2323209D01*
X15750089Y-5004548D02*
X15740705Y-5022315D01*
X23989400Y-4326789D02*
X23989400Y-2501791D01*
X23989400Y-7025895D02*
X23989400Y-5200896D01*
X23989400Y-9725000D02*
X23989400Y-7900002D01*
X21209200Y-4326789D02*
X21209200Y-2501791D01*
X21209200Y-7025895D02*
X21209200Y-5200896D01*
X21209200Y-9725000D02*
X21209200Y-7900002D01*
X18429000Y-4326789D02*
X18429000Y-2501791D01*
X18429000Y-7025895D02*
X18429000Y-5200896D01*
X21284987Y-2360170D02*
X21278306Y-2379312D01*
X21284987Y-5059275D02*
X21278306Y-5078417D01*
X21284987Y-7758380D02*
X21278306Y-7777522D01*
X18504787Y-2360170D02*
X18498106Y-2379312D01*
X18504787Y-5059275D02*
X18498106Y-5078417D01*
X18504787Y-7758380D02*
X18498106Y-7777522D01*
X15724587Y-2360170D02*
X15717906Y-2379312D01*
X15724587Y-5059275D02*
X15717906Y-5078417D01*
X21383645Y-2210473D02*
X21369579Y-2224787D01*
X21383645Y-4909578D02*
X21369579Y-4923892D01*
X21383645Y-7608684D02*
X21369579Y-7622998D01*
X18603445Y-2210473D02*
X18589380Y-2224787D01*
X18603445Y-4909578D02*
X18589380Y-4923892D01*
X18603445Y-7608684D02*
X18589380Y-7622998D01*
X15823245Y-2210473D02*
X15809180Y-2224787D01*
X15823245Y-4909578D02*
X15809180Y-4923892D01*
X23963612Y-2360170D02*
X23956004Y-2341460D01*
X23963612Y-5059275D02*
X23956004Y-5040566D01*
X23963612Y-7758380D02*
X23956004Y-7739671D01*
X21183413Y-2360170D02*
X21175804Y-2341460D01*
X21183413Y-5059275D02*
X21175804Y-5040566D01*
X21183413Y-7758380D02*
X21175804Y-7739671D01*
X18403213Y-2360170D02*
X18395604Y-2341460D01*
X18403213Y-5059275D02*
X18395604Y-5040566D01*
X21518642Y-4706430D02*
X21537924Y-4713811D01*
X21518642Y-7405535D02*
X21537924Y-7412917D01*
X21518642Y-10104640D02*
X21537924Y-10112022D01*
X18738442Y-4706430D02*
X18757725Y-4713811D01*
X18738442Y-7405535D02*
X18757725Y-7412917D01*
X18738442Y-10104640D02*
X18757725Y-10112022D01*
X15958242Y-4706430D02*
X15977525Y-4713811D01*
X15958242Y-7405535D02*
X15977525Y-7412917D01*
X21463738Y-4679145D02*
X21481522Y-4689070D01*
X21463738Y-7378250D02*
X21481522Y-7388176D01*
X21463738Y-10077355D02*
X21481522Y-10087281D01*
X18683538Y-4679145D02*
X18701323Y-4689070D01*
X18683538Y-7378250D02*
X18701323Y-7388176D01*
X18683538Y-10077355D02*
X18701323Y-10087281D01*
X15903338Y-4679145D02*
X15921123Y-4689070D01*
X15903338Y-7378250D02*
X15921123Y-7388176D01*
X23586559Y-2090260D02*
X23564719Y-2089724D01*
X23586559Y-4789366D02*
X23564719Y-4788829D01*
X23586559Y-7488471D02*
X23564719Y-7487935D01*
X20806359Y-2090260D02*
X20784519Y-2089724D01*
X20806359Y-4789366D02*
X20784519Y-4788829D01*
X20806359Y-7488471D02*
X20784519Y-7487935D01*
X18026160Y-2090260D02*
X18004320Y-2089724D01*
X18026160Y-4789366D02*
X18004320Y-4788829D01*
X23984503Y-4389507D02*
X23987205Y-4368895D01*
X23984503Y-7088612D02*
X23987205Y-7068000D01*
X23984503Y-9787718D02*
X23987205Y-9767106D01*
X21204303Y-4389507D02*
X21207006Y-4368895D01*
X21204303Y-7088612D02*
X21207006Y-7068000D01*
X21204303Y-9787718D02*
X21207006Y-9767106D01*
X18424103Y-4389507D02*
X18426806Y-4368895D01*
X18424103Y-7088612D02*
X18426806Y-7068000D01*
X21369579Y-4603781D02*
X21383645Y-4618094D01*
X21369579Y-7302886D02*
X21383645Y-7317199D01*
X21369579Y-10001991D02*
X21383645Y-10016304D01*
X18589380Y-4603781D02*
X18603445Y-4618094D01*
X18589380Y-7302886D02*
X18603445Y-7317199D01*
X18589380Y-10001991D02*
X18603445Y-10016304D01*
X15809180Y-4603781D02*
X15823245Y-4618094D01*
X15809180Y-7302886D02*
X15823245Y-7317199D01*
X23818744Y-4656931D02*
X23834790Y-4644695D01*
X23818744Y-7356036D02*
X23834790Y-7343800D01*
X23818744Y-10055142D02*
X23834790Y-10042905D01*
X21038545Y-4656931D02*
X21054590Y-4644695D01*
X21038545Y-7356036D02*
X21054590Y-7343800D01*
X21038545Y-10055142D02*
X21054590Y-10042905D01*
X18258345Y-4656931D02*
X18274390Y-4644695D01*
X18258345Y-7356036D02*
X18274390Y-7343800D01*
X21598338Y-4730452D02*
X21619242Y-4734078D01*
X21598338Y-7429558D02*
X21619242Y-7433184D01*
X21598338Y-10128663D02*
X21619242Y-10132289D01*
X18818138Y-4730452D02*
X18839043Y-4734078D01*
X18818138Y-7429558D02*
X18839043Y-7433184D01*
X18818138Y-10128663D02*
X18839043Y-10132289D01*
X16037938Y-4730452D02*
X16058843Y-4734078D01*
X16037938Y-7429558D02*
X16058843Y-7433184D01*
X21259200Y-2501791D02*
X21259200Y-4326789D01*
X21259200Y-5200896D02*
X21259200Y-7025895D01*
X21259200Y-7900002D02*
X21259200Y-9725000D01*
X18479000Y-2501791D02*
X18479000Y-4326789D01*
X18479000Y-5200896D02*
X18479000Y-7025895D01*
X18479000Y-7900002D02*
X18479000Y-9725000D01*
X15698800Y-2501791D02*
X15698800Y-4326789D01*
X15698800Y-5200896D02*
X15698800Y-7025895D01*
X21343615Y-2255310D02*
X21331770Y-2271468D01*
X21343615Y-4954416D02*
X21331770Y-4970573D01*
X21343615Y-7653521D02*
X21331770Y-7669678D01*
X18563415Y-2255310D02*
X18551570Y-2271468D01*
X18563415Y-4954416D02*
X18551570Y-4970573D01*
X18563415Y-7653521D02*
X18551570Y-7669678D01*
X15783216Y-2255310D02*
X15771370Y-2271468D01*
X15783216Y-4954416D02*
X15771370Y-4970573D01*
X23729957Y-4706430D02*
X23748767Y-4698174D01*
X23729957Y-7405535D02*
X23748767Y-7397279D01*
X23729957Y-10104640D02*
X23748767Y-10096385D01*
X20949758Y-4706430D02*
X20968567Y-4698174D01*
X20949758Y-7405535D02*
X20968567Y-7397279D01*
X20949758Y-10104640D02*
X20968567Y-10096385D01*
X18169558Y-4706430D02*
X18188367Y-4698174D01*
X18169558Y-7405535D02*
X18188367Y-7397279D01*
X21331770Y-4557104D02*
X21343615Y-4573260D01*
X21331770Y-7256209D02*
X21343615Y-7272365D01*
X21331770Y-9955315D02*
X21343615Y-9971471D01*
X18551570Y-4557104D02*
X18563415Y-4573260D01*
X18551570Y-7256209D02*
X18563415Y-7272365D01*
X18551570Y-9955315D02*
X18563415Y-9971471D01*
X15771370Y-4557104D02*
X15783216Y-4573260D01*
X15771370Y-7256209D02*
X15783216Y-7272365D01*
X23710675Y-2114745D02*
X23690947Y-2108263D01*
X23710675Y-4813851D02*
X23690947Y-4807368D01*
X23710675Y-7512956D02*
X23690947Y-7506473D01*
X20930475Y-2114745D02*
X20910748Y-2108263D01*
X20930475Y-4813851D02*
X20910748Y-4807368D01*
X20930475Y-7512956D02*
X20910748Y-7506473D01*
X18150276Y-2114745D02*
X18130548Y-2108263D01*
X18150276Y-4813851D02*
X18130548Y-4807368D01*
X23850202Y-4631740D02*
X23864954Y-4618094D01*
X23850202Y-7330846D02*
X23864954Y-7317199D01*
X23850202Y-10029951D02*
X23864954Y-10016304D01*
X21070002Y-4631740D02*
X21084755Y-4618094D01*
X21070002Y-7330846D02*
X21084755Y-7317199D01*
X21070002Y-10029951D02*
X21084755Y-10016304D01*
X18289802Y-4631740D02*
X18304555Y-4618094D01*
X18289802Y-7330846D02*
X18304555Y-7317199D01*
X21537924Y-2114745D02*
X21518642Y-2122128D01*
X21537924Y-4813851D02*
X21518642Y-4821233D01*
X21537924Y-7512956D02*
X21518642Y-7520338D01*
X18757725Y-2114745D02*
X18738442Y-2122128D01*
X18757725Y-4813851D02*
X18738442Y-4821233D01*
X18757725Y-7512956D02*
X18738442Y-7520338D01*
X15977525Y-2114745D02*
X15958242Y-2122128D01*
X15977525Y-4813851D02*
X15958242Y-4821233D01*
X23879020Y-4603781D02*
X23892372Y-4588827D01*
X23879020Y-7302886D02*
X23892372Y-7287933D01*
X23879020Y-10001991D02*
X23892372Y-9987038D01*
X21098820Y-4603781D02*
X21112172Y-4588827D01*
X21098820Y-7302886D02*
X21112172Y-7287933D01*
X21098820Y-10001991D02*
X21112172Y-9987038D01*
X18318620Y-4603781D02*
X18331973Y-4588827D01*
X18318620Y-7302886D02*
X18331973Y-7287933D01*
X21292596Y-2341460D02*
X21284987Y-2360170D01*
X21292596Y-5040566D02*
X21284987Y-5059275D01*
X21292596Y-7739671D02*
X21284987Y-7758380D01*
X18512396Y-2341460D02*
X18504787Y-2360170D01*
X18512396Y-5040566D02*
X18504787Y-5059275D01*
X18512396Y-7739671D02*
X18504787Y-7758380D01*
X15732196Y-2341460D02*
X15724587Y-2360170D01*
X15732196Y-5040566D02*
X15724587Y-5059275D01*
X23938111Y-4523131D02*
X23947495Y-4505365D01*
X23938111Y-7222236D02*
X23947495Y-7204470D01*
X23938111Y-9921341D02*
X23947495Y-9903576D01*
X21157911Y-4523131D02*
X21167295Y-4505365D01*
X21157911Y-7222236D02*
X21167295Y-7204470D01*
X21157911Y-9921341D02*
X21167295Y-9903576D01*
X18377712Y-4523131D02*
X18387095Y-4505365D01*
X18377712Y-7222236D02*
X18387095Y-7204470D01*
X21537924Y-4713811D02*
X21557652Y-4720293D01*
X21537924Y-7412917D02*
X21557652Y-7419398D01*
X21537924Y-10112022D02*
X21557652Y-10118504D01*
X18757725Y-4713811D02*
X18777452Y-4720293D01*
X18757725Y-7412917D02*
X18777452Y-7419398D01*
X18757725Y-10112022D02*
X18777452Y-10118504D01*
X15977525Y-4713811D02*
X15997252Y-4720293D01*
X15977525Y-7412917D02*
X15997252Y-7419398D01*
X21640485Y-2091853D02*
X21619242Y-2094475D01*
X21640485Y-4790958D02*
X21619242Y-4793581D01*
X21640485Y-7490064D02*
X21619242Y-7492686D01*
X18860286Y-2091853D02*
X18839043Y-2094475D01*
X18860286Y-4790958D02*
X18839043Y-4793581D01*
X18860286Y-7490064D02*
X18839043Y-7492686D01*
X16080086Y-2091853D02*
X16058843Y-2094475D01*
X16080086Y-4790958D02*
X16058843Y-4793581D01*
X21398397Y-2196825D02*
X21383645Y-2210473D01*
X21398397Y-4895930D02*
X21383645Y-4909578D01*
X21398397Y-7595036D02*
X21383645Y-7608684D01*
X18618198Y-2196825D02*
X18603445Y-2210473D01*
X18618198Y-4895930D02*
X18603445Y-4909578D01*
X18618198Y-7595036D02*
X18603445Y-7608684D01*
X15837998Y-2196825D02*
X15823245Y-2210473D01*
X15837998Y-4895930D02*
X15823245Y-4909578D01*
X21272580Y-2398860D02*
X21267834Y-2418789D01*
X21272580Y-5097965D02*
X21267834Y-5117894D01*
X21272580Y-7797071D02*
X21267834Y-7817000D01*
X18492380Y-2398860D02*
X18487634Y-2418789D01*
X18492380Y-5097965D02*
X18487634Y-5117894D01*
X18492380Y-7797071D02*
X18487634Y-7817000D01*
X15712180Y-2398860D02*
X15707435Y-2418789D01*
X15712180Y-5097965D02*
X15707435Y-5117894D01*
X21292596Y-4487115D02*
X21301105Y-4505365D01*
X21292596Y-7186221D02*
X21301105Y-7204470D01*
X21292596Y-9885326D02*
X21301105Y-9903576D01*
X18512396Y-4487115D02*
X18520905Y-4505365D01*
X18512396Y-7186221D02*
X18520905Y-7204470D01*
X18512396Y-9885326D02*
X18520905Y-9903576D01*
X15732196Y-4487115D02*
X15740705Y-4505365D01*
X15732196Y-7186221D02*
X15740705Y-7204470D01*
X15732196Y-9885326D02*
X15740705Y-9903576D01*
X15712180Y-7797071D02*
X15707435Y-7817000D01*
X15837998Y-7595036D02*
X15823245Y-7608684D01*
X16080086Y-7490064D02*
X16058843Y-7492686D01*
X15977525Y-10112022D02*
X15997252Y-10118504D01*
X18377712Y-9921341D02*
X18387095Y-9903576D01*
X15732196Y-7739671D02*
X15724587Y-7758380D01*
X18318620Y-10001991D02*
X18331973Y-9987038D01*
X15977525Y-7512956D02*
X15958242Y-7520338D01*
X18289802Y-10029951D02*
X18304555Y-10016304D01*
X18150276Y-7512956D02*
X18130548Y-7506473D01*
X15771370Y-9955315D02*
X15783216Y-9971471D01*
X18169558Y-10104640D02*
X18188367Y-10096385D01*
X15783216Y-7653521D02*
X15771370Y-7669678D01*
X15698800Y-7900002D02*
X15698800Y-9725000D01*
X16037938Y-10128663D02*
X16058843Y-10132289D01*
X18258345Y-10055142D02*
X18274390Y-10042905D01*
X15809180Y-10001991D02*
X15823245Y-10016304D01*
X18424103Y-9787718D02*
X18426806Y-9767106D01*
X18026160Y-7488471D02*
X18004320Y-7487935D01*
X15903338Y-10077355D02*
X15921123Y-10087281D01*
X15958242Y-10104640D02*
X15977525Y-10112022D01*
X18403213Y-7758380D02*
X18395604Y-7739671D01*
X15823245Y-7608684D02*
X15809180Y-7622998D01*
X15724587Y-7758380D02*
X15717906Y-7777522D01*
X18429000Y-9725000D02*
X18429000Y-7900002D01*
X15750089Y-7703654D02*
X15740705Y-7721420D01*
X15823245Y-10016304D02*
X15837998Y-10029951D01*
X18403213Y-9866618D02*
X18409894Y-9847477D01*
X15771370Y-7669678D02*
X15760319Y-7686398D01*
X18274390Y-7582080D02*
X18258345Y-7569843D01*
X18409894Y-9847477D02*
X18415620Y-9827929D01*
X18241693Y-10066634D02*
X18258345Y-10055142D01*
X18395604Y-7739671D02*
X18387095Y-7721420D01*
X15853410Y-7582080D02*
X15837998Y-7595036D01*
X18356430Y-9955315D02*
X18367481Y-9938596D01*
X15703697Y-7837283D02*
X15700994Y-7857895D01*
X16017399Y-7500917D02*
X15997252Y-7506473D01*
X18089862Y-7496313D02*
X18068958Y-7492686D01*
X18387095Y-7721420D02*
X18377712Y-7703654D01*
X18224462Y-7547626D02*
X18206678Y-7537700D01*
X18367481Y-9938596D02*
X18377712Y-9921341D01*
X15724587Y-9866618D02*
X15732196Y-9885326D01*
X18089862Y-10128663D02*
X18110401Y-10124059D01*
X15869455Y-10055142D02*
X15886107Y-10066634D01*
X18429000Y-7900002D02*
X18428447Y-7878810D01*
X15717906Y-7777522D02*
X15712180Y-7797071D01*
X18426806Y-7857895D02*
X18424103Y-7837283D01*
X15703697Y-9787718D02*
X15707435Y-9808001D01*
X15783216Y-9971471D02*
X15795828Y-9987038D01*
X18188367Y-10096385D02*
X18206678Y-10087281D01*
X18289802Y-7595036D02*
X18274390Y-7582080D01*
X15717906Y-9847477D02*
X15724587Y-9866618D01*
X18188367Y-7528595D02*
X18169558Y-7520338D01*
X15707435Y-7817000D02*
X15703697Y-7837283D01*
X15921123Y-10087281D02*
X15939433Y-10096385D01*
X18331973Y-7637952D02*
X18318620Y-7622998D01*
X15760319Y-7686398D02*
X15750089Y-7703654D01*
X16037938Y-7496313D02*
X16017399Y-7500917D01*
X15700994Y-9767106D02*
X15703697Y-9787718D01*
X18110401Y-10124059D02*
X18130548Y-10118504D01*
X18395604Y-9885326D02*
X18403213Y-9866618D01*
X15921123Y-7537700D02*
X15903338Y-7547626D01*
X16080086Y-10134911D02*
X16101641Y-10136504D01*
X15750089Y-9921341D02*
X15760319Y-9938596D01*
X15712180Y-9827929D02*
X15717906Y-9847477D01*
X18409894Y-7777522D02*
X18403213Y-7758380D01*
X15707435Y-9808001D02*
X15712180Y-9827929D01*
X18420366Y-7817000D02*
X18415620Y-7797071D01*
X18415620Y-9827929D02*
X18420366Y-9808001D01*
X15886107Y-10066634D02*
X15903338Y-10077355D01*
X18068958Y-7492686D02*
X18047715Y-7490064D01*
X15699353Y-7878810D02*
X15698800Y-7900002D01*
X18068958Y-10132289D02*
X18089862Y-10128663D01*
X15795828Y-9987038D02*
X15809180Y-10001991D01*
X18241693Y-7558350D02*
X18224462Y-7547626D01*
X15869455Y-7569843D02*
X15853410Y-7582080D01*
X15698800Y-9725000D02*
X15699353Y-9746191D01*
X18377712Y-7703654D02*
X18367481Y-7686398D01*
X18110401Y-7500917D02*
X18089862Y-7496313D01*
X18047715Y-10134911D02*
X18068958Y-10132289D01*
X18304555Y-7608684D02*
X18289802Y-7595036D01*
X15997252Y-10118504D02*
X16017399Y-10124059D01*
X18304555Y-10016304D02*
X18318620Y-10001991D01*
X15939433Y-7528595D02*
X15921123Y-7537700D01*
X18387095Y-9903576D02*
X18395604Y-9885326D01*
X18428447Y-7878810D02*
X18426806Y-7857895D01*
X16058843Y-10132289D02*
X16080086Y-10134911D01*
X18224462Y-10077355D02*
X18241693Y-10066634D01*
X18344585Y-7653521D02*
X18331973Y-7637952D01*
X15809180Y-7622998D02*
X15795828Y-7637952D01*
X18274390Y-10042905D02*
X18289802Y-10029951D01*
X15700994Y-7857895D02*
X15699353Y-7878810D01*
X18426806Y-9767106D02*
X18428447Y-9746191D01*
X16123481Y-7487935D02*
X16101641Y-7488471D01*
X15699353Y-9746191D02*
X15700994Y-9767106D01*
X15740705Y-9903576D02*
X15750089Y-9921341D01*
X18424103Y-7837283D02*
X18420366Y-7817000D01*
X18004320Y-10137040D02*
X18026160Y-10136504D01*
X15939433Y-10096385D02*
X15958242Y-10104640D01*
X15795828Y-7637952D02*
X15783216Y-7653521D01*
X15903338Y-7547626D02*
X15886107Y-7558350D01*
X16123481Y-10137040D02*
X18004320Y-10137040D01*
X15760319Y-9938596D02*
X15771370Y-9955315D01*
X18415620Y-7797071D02*
X18409894Y-7777522D01*
X16058843Y-7492686D02*
X16037938Y-7496313D01*
X15886107Y-7558350D02*
X15869455Y-7569843D01*
X18428447Y-9746191D02*
X18429000Y-9725000D01*
X18258345Y-7569843D02*
X18241693Y-7558350D01*
X15958242Y-7520338D02*
X15939433Y-7528595D01*
X18356430Y-7669678D02*
X18344585Y-7653521D01*
X15837998Y-10029951D02*
X15853410Y-10042905D01*
X18150276Y-10112022D02*
X18169558Y-10104640D01*
X15997252Y-7506473D02*
X15977525Y-7512956D01*
X18331973Y-9987038D02*
X18344585Y-9971471D01*
X18206678Y-10087281D02*
X18224462Y-10077355D01*
X15853410Y-10042905D02*
X15869455Y-10055142D01*
X15740705Y-7721420D02*
X15732196Y-7739671D01*
X16101641Y-10136504D02*
X16123481Y-10137040D01*
X18130548Y-10118504D02*
X18150276Y-10112022D01*
X18344585Y-9971471D02*
X18356430Y-9955315D01*
X18206678Y-7537700D02*
X18188367Y-7528595D01*
X16101641Y-7488471D02*
X16080086Y-7490064D01*
X18420366Y-9808001D02*
X18424103Y-9787718D01*
X18047715Y-7490064D02*
X18026160Y-7488471D01*
X18130548Y-7506473D02*
X18110401Y-7500917D01*
X18169558Y-7520338D02*
X18150276Y-7512956D01*
X18004320Y-7487935D02*
X16123481Y-7487935D01*
X18026160Y-10136504D02*
X18047715Y-10134911D01*
X16017399Y-10124059D02*
X16037938Y-10128663D01*
X18318620Y-7622998D02*
X18304555Y-7608684D01*
X18367481Y-7686398D02*
X18356430Y-7669678D01*
D11*
X15944567Y-10451416D02*
X15944567Y-10251416D01*
X15944567Y-10251416D02*
X15992186Y-10251416D01*
X15992186Y-10251416D02*
X16020758Y-10260940D01*
X16020758Y-10260940D02*
X16039805Y-10279987D01*
X16039805Y-10279987D02*
X16049329Y-10299035D01*
X16049329Y-10299035D02*
X16058853Y-10337130D01*
X16058853Y-10337130D02*
X16058853Y-10365702D01*
X16058853Y-10365702D02*
X16049329Y-10403797D01*
X16049329Y-10403797D02*
X16039805Y-10422844D01*
X16039805Y-10422844D02*
X16020758Y-10441892D01*
X16020758Y-10441892D02*
X15992186Y-10451416D01*
X15992186Y-10451416D02*
X15944567Y-10451416D01*
X16144567Y-10451416D02*
X16144567Y-10318083D01*
X16144567Y-10356178D02*
X16154091Y-10337130D01*
X16154091Y-10337130D02*
X16163615Y-10327606D01*
X16163615Y-10327606D02*
X16182662Y-10318083D01*
X16182662Y-10318083D02*
X16201710Y-10318083D01*
X16268377Y-10451416D02*
X16268377Y-10318083D01*
X16268377Y-10251416D02*
X16258853Y-10260940D01*
X16258853Y-10260940D02*
X16268377Y-10270464D01*
X16268377Y-10270464D02*
X16277900Y-10260940D01*
X16277900Y-10260940D02*
X16268377Y-10251416D01*
X16268377Y-10251416D02*
X16268377Y-10270464D01*
X16392186Y-10451416D02*
X16373138Y-10441892D01*
X16373138Y-10441892D02*
X16363615Y-10422844D01*
X16363615Y-10422844D02*
X16363615Y-10251416D01*
X16496948Y-10451416D02*
X16477900Y-10441892D01*
X16477900Y-10441892D02*
X16468377Y-10422844D01*
X16468377Y-10422844D02*
X16468377Y-10251416D01*
X16725519Y-10451416D02*
X16725519Y-10251416D01*
X16725519Y-10251416D02*
X16792186Y-10394273D01*
X16792186Y-10394273D02*
X16858853Y-10251416D01*
X16858853Y-10251416D02*
X16858853Y-10451416D01*
X17039805Y-10451416D02*
X17039805Y-10346654D01*
X17039805Y-10346654D02*
X17030281Y-10327606D01*
X17030281Y-10327606D02*
X17011234Y-10318083D01*
X17011234Y-10318083D02*
X16973139Y-10318083D01*
X16973139Y-10318083D02*
X16954091Y-10327606D01*
X17039805Y-10441892D02*
X17020758Y-10451416D01*
X17020758Y-10451416D02*
X16973139Y-10451416D01*
X16973139Y-10451416D02*
X16954091Y-10441892D01*
X16954091Y-10441892D02*
X16944567Y-10422844D01*
X16944567Y-10422844D02*
X16944567Y-10403797D01*
X16944567Y-10403797D02*
X16954091Y-10384749D01*
X16954091Y-10384749D02*
X16973139Y-10375225D01*
X16973139Y-10375225D02*
X17020758Y-10375225D01*
X17020758Y-10375225D02*
X17039805Y-10365702D01*
X17135043Y-10318083D02*
X17135043Y-10518083D01*
X17135043Y-10327606D02*
X17154091Y-10318083D01*
X17154091Y-10318083D02*
X17192186Y-10318083D01*
X17192186Y-10318083D02*
X17211234Y-10327606D01*
X17211234Y-10327606D02*
X17220758Y-10337130D01*
X17220758Y-10337130D02*
X17230281Y-10356178D01*
X17230281Y-10356178D02*
X17230281Y-10413321D01*
X17230281Y-10413321D02*
X17220758Y-10432368D01*
X17220758Y-10432368D02*
X17211234Y-10441892D01*
X17211234Y-10441892D02*
X17192186Y-10451416D01*
X17192186Y-10451416D02*
X17154091Y-10451416D01*
X17154091Y-10451416D02*
X17135043Y-10441892D01*
X17315996Y-10432368D02*
X17325520Y-10441892D01*
X17325520Y-10441892D02*
X17315996Y-10451416D01*
X17315996Y-10451416D02*
X17306472Y-10441892D01*
X17306472Y-10441892D02*
X17315996Y-10432368D01*
X17315996Y-10432368D02*
X17315996Y-10451416D01*
X17315996Y-10327606D02*
X17325520Y-10337130D01*
X17325520Y-10337130D02*
X17315996Y-10346654D01*
X17315996Y-10346654D02*
X17306472Y-10337130D01*
X17306472Y-10337130D02*
X17315996Y-10327606D01*
X17315996Y-10327606D02*
X17315996Y-10346654D01*
M02*
