M48
; DRILL file {KiCad 7.0.2-0} date 2024 April 22, Monday 23:11:49
; FORMAT={-:-/ absolute / metric / decimal}
; #@! TF.CreationDate,2024-04-22T23:11:49-05:00
; #@! TF.GenerationSoftware,Kicad,Pcbnew,7.0.2-0
; #@! TF.FileFunction,Plated,1,2,PTH
FMAT,2
METRIC
; #@! TA.AperFunction,Plated,PTH,ViaDrill
T1C0.400
; #@! TA.AperFunction,Plated,PTH,ComponentDrill
T2C1.016
; #@! TA.AperFunction,Plated,PTH,ViaDrill
T3C1.200
%
G90
G05
T1
X174.18Y-34.158
X174.18Y-61.149
X174.18Y-88.14
X201.982Y-34.158
X201.982Y-61.149
X201.982Y-88.14
X229.784Y-34.158
X229.784Y-61.149
X229.784Y-88.14
T2
X169.325Y-42.938
X169.325Y-45.478
X169.325Y-69.929
X169.325Y-72.469
X169.325Y-96.92
X169.325Y-99.46
X171.865Y-42.938
X171.865Y-45.478
X171.865Y-69.929
X171.865Y-72.469
X171.865Y-96.92
X171.865Y-99.46
X197.127Y-42.938
X197.127Y-45.478
X197.127Y-69.929
X197.127Y-72.469
X197.127Y-96.92
X197.127Y-99.46
X199.667Y-42.938
X199.667Y-45.478
X199.667Y-69.929
X199.667Y-72.469
X199.667Y-96.92
X199.667Y-99.46
X224.929Y-42.938
X224.929Y-45.478
X224.929Y-69.929
X224.929Y-72.469
X224.929Y-96.92
X224.929Y-99.46
X227.469Y-42.938
X227.469Y-45.478
X227.469Y-69.929
X227.469Y-72.469
X227.469Y-96.92
X227.469Y-99.46
T3
X160.456Y-23.958
X160.456Y-50.949
X160.456Y-77.94
X180.96Y-24.018
X180.96Y-51.009
X180.96Y-78.0
X188.258Y-23.958
X188.258Y-50.949
X188.258Y-77.94
X208.762Y-24.018
X208.762Y-51.009
X208.762Y-78.0
X216.06Y-23.958
X216.06Y-50.949
X216.06Y-77.94
X236.564Y-24.018
X236.564Y-51.009
X236.564Y-78.0
T0
M30
