<?xml version="1.0" encoding="UTF-8" standalone="no"?>
<!DOCTYPE svg PUBLIC "-//W3C//DTD SVG 1.1//EN" "http://www.w3.org/Graphics/SVG/1.1/DTD/svg11.dtd">
<svg width="100%" height="100%" viewBox="0 0 89 112" version="1.1" xmlns="http://www.w3.org/2000/svg" xmlns:xlink="http://www.w3.org/1999/xlink" xml:space="preserve" xmlns:serif="http://www.serif.com/" style="fill-rule:evenodd;clip-rule:evenodd;stroke-linejoin:round;stroke-miterlimit:2;">
    <g transform="matrix(1,0,0,1,-256.614,-314.24)">
        <g transform="matrix(-0.147955,1.81193e-17,-1.81193e-17,-0.147955,352.226,430.527)">
            <g id="bare-pcb--soldermask-" serif:id="bare pcb (soldermask)">
                <path d="M216.24,435.42C222.19,435.64 228.03,434.36 234.01,434.83C242.03,435.43 249.98,434.56 258,434.75C266.79,434.92 275.55,434.5 284.33,435.24C292.62,435.15 300.83,435.91 309.04,434.96C315.28,434.32 321.41,434.9 327.62,435.41C332.79,435.87 337.81,434.85 342.96,434.96C354.93,435.84 366.99,435 379,435.2C400.66,433.67 421.67,436.77 442.97,434.75C457.29,434.63 471.6,436.62 485.98,434.86C497.93,434.33 509.92,434.96 521.88,434.53C529.62,434.6 537.28,433.57 545,433.94C549.01,434.16 553,433.93 557.01,433.9C561.21,433.89 565.15,434.53 569.18,434.09C571.04,433.94 572.88,433.78 574.75,433.69C579.88,433.59 584.88,434.37 589.98,434.66C596.2,435.01 602.21,434.25 608.42,434.29C611.31,434.36 614.2,434.42 617.08,434.17C623.07,433.6 628.63,433.06 634.29,435.6C640.85,438.23 644.43,444.97 645.73,451.58C646.99,457 645.68,462.4 643.35,467.31C641.36,471.46 637.46,474.32 632.92,475.06C627.13,475.91 621.22,476.12 615.37,476.46C615.18,483.43 615.26,490.37 615.5,497.33C615.64,502.64 614.68,508.39 615.74,513.59C617.01,516.8 619.96,519.33 621.75,522.29C624.54,526.42 625.17,530.83 626.86,535.37C628.77,540.59 634.85,543.04 635.23,549C636.12,558.26 635.39,567.77 635.49,577.06C635.32,585 635.8,593.05 635.06,600.94C634.44,606.48 630.15,608.03 627.14,611.94C625.74,614.83 625.37,618.24 624.27,621.27C621.94,627.76 618.97,634.03 616.68,640.54C614.69,645.96 615.36,652.25 615.28,658C615.23,669.78 615.41,681.56 615.47,693.35C615.71,705.62 610.47,719.05 600.65,726.71C590.53,734.05 578.26,735.59 566.08,735.45C567.42,741.36 568.55,746.91 567.08,752.96C563.17,765.73 548.94,773.75 535.99,772.21C528.9,771.54 522.39,767.43 518.53,761.47C516.68,758.57 515.2,755.41 513.97,752.19C513.38,747.53 513.59,743.07 513.6,738.37C505.56,739.21 498.01,740.38 489.98,740.31C482.97,740.23 476.08,741.35 469.08,741.58C461.69,742.18 454.39,742.18 447.08,743.53C448.03,746.03 449.06,748.52 449.9,751.05C453.45,765.19 444.52,781.4 430.15,784.98C423.45,786.56 415.25,786.5 409.25,782.78C402.58,778.89 397.34,772.85 395.69,765.17C394.29,759.56 395.17,754.06 396.93,748.65C397.51,746.78 398.13,744.92 398.74,743.06C390.55,741.96 382.5,742.56 374.22,742.23C366.46,742.32 358.77,741.33 351.01,741.41C346,741.44 341,741.48 336,741.16C323.59,740.19 311.17,740.69 298.75,739.93C288.81,739.86 278.89,740.16 268.95,739.95C266.94,740.03 264.52,739.86 262.66,740.72C259.05,743.21 256.62,747.4 252.71,749.73C248.9,752.06 244.33,752.39 239.97,752.33C235.53,752.2 230.85,751.51 227.19,748.81C224.08,746.53 222.16,742.81 220.26,739.54C218.19,739.31 216.12,739.09 214.05,738.92C205.89,738.42 197.64,738.06 189.47,738.49C189.29,740.62 189.23,742.74 189.09,744.87C188.68,749.62 187.89,754.09 185.11,758.08C180.16,765.08 171.68,769.58 163.03,769.1C157.74,768.79 151.85,767.64 147.41,764.6C143.57,761.67 140.75,757.25 138.23,753.19C137.23,749.55 136.83,745.94 137.06,742.17C137.19,740.76 137.37,739.35 137.53,737.94C133.3,737.8 129.24,737.83 125.05,737.15C118.02,736 111.46,735.29 104.92,732.17C96.7,728.49 90.07,721.63 86.41,713.44C84.18,708.38 82.04,703.68 81.77,698.06C81.33,689.06 81.88,680.01 81.7,671C81.43,660.56 81.89,650.13 81.52,639.69C81.62,633.1 80.92,626.58 81.38,620C81.76,602 81.85,584 81.36,566C81.81,551.26 80.93,536.62 81.54,521.85C82.01,511.19 81.13,500.64 81.25,489.98C81.41,485.84 81.62,481.71 81.53,477.56C74.5,477.45 66.96,478.56 60.31,475.74C55.78,473.88 53.07,469.87 51.52,465.39C48.81,456.62 50.34,445.78 57.55,439.53C61.01,436.4 65.07,435.72 69.49,434.86C77.67,434.57 85.82,434.71 94,434.82C101.48,434.75 108.88,435.54 116.36,435.04C128.4,436.09 140.28,434.05 152.31,435.04C159.29,434.8 166.15,434.57 173.14,435.05C187.48,434.46 201.93,434.26 216.24,435.42ZM413.19,744.36C417,743.66 421.14,744.07 424.99,744.25C423.13,748.21 420.92,751.97 418.65,755.71C417.39,757.94 415.65,760.98 416.17,763.62C416.76,767.38 422.79,767.22 424.88,764.9C429.71,760.15 432.01,753.11 436.25,747.73C437.75,751.42 439.04,754.96 438.84,759.02C438.7,764.66 435.72,770.04 430.69,772.71C426.38,775.14 421.73,774.86 417.07,773.78C411.54,772.6 406.89,767.51 406.31,761.87C405.7,756.86 406.62,751.65 409.4,747.38C410.38,745.96 411.38,744.67 413.19,744.36ZM540.97,736.95C539,741 536.09,744.78 534.68,749.04C534.22,753.3 539.68,754.88 542.63,752.69C547.55,749.32 550.46,742.6 553.61,737.66C554.59,738.86 555.74,740.1 556.4,741.51C557.19,744.35 556.47,747.73 555.6,750.49C554.55,753.55 553.27,756.61 550.33,758.29C545.58,760.99 539.43,761.25 534.27,759.7C529.8,758.41 526.35,754.14 525.31,749.71C524.42,745.62 525.79,741.77 526.89,737.87C531.59,737.03 536.2,736.67 540.97,736.95ZM151.44,738.54C154.94,737.42 159.14,737.93 162.77,738.07C161.26,740.85 159.25,743.84 158.65,746.98C158.72,750.56 162.53,752.33 165.58,750.81C169.99,748.36 172.95,743.27 176.64,739.81C176.81,744.17 177.73,750 174.52,753.53C169.53,758.82 160.97,760.02 154.75,756.19C150.32,753.71 148.55,748.63 148.48,743.79C148.54,741.68 149.24,739.32 151.44,738.54ZM235.82,740.62C237.745,740.445 239.725,740.35 241.637,740.344C243.55,740.337 245.395,740.42 247.32,740.6C247.283,740.611 247.31,740.611 247.303,740.633C247.292,740.668 247.259,740.73 247.235,740.762C247.196,740.817 247.166,740.875 247.127,740.97C247.02,741.23 246.79,741.587 246.58,741.975C246.458,742.201 246.262,742.448 246.064,742.682C245.644,743.177 245.127,743.652 244.666,744.017C244.11,744.455 243.4,744.861 242.685,745.113C242.145,745.302 241.573,745.392 241.227,745.403C240.01,745.44 238.815,745.036 237.934,744.167C237.217,743.46 236.684,742.589 236.341,741.825C236.201,741.514 236.065,741.261 235.992,741.021C235.944,740.863 236.008,740.668 235.82,740.62ZM409,732.37C397.02,732.46 400.815,732.269 400.815,732.269C400.843,732.266 400.929,732.258 400.953,732.255C410.833,730.965 419.33,721.88 424.44,713.55C428.94,705.2 430.56,695.41 429.98,685.99C429.78,672.99 429.81,659.94 430.43,646.95C430.6,632.52 430.01,618.1 430.2,603.66C429.66,593.08 429.98,582.54 430.45,571.97C430.88,563.93 429.71,556.03 429.83,547.99C429.91,537.29 429.05,526.92 430.09,516.23C430.67,509.97 431.22,503.93 429.3,497.83C425.72,497.42 420.653,497.538 417.063,497.708C417.123,499.64 318.11,498.63 300.3,498.19C288.52,498.31 276.78,497.97 265,498.37C246.63,498.11 228.23,498.82 209.89,497.89C203.65,497.85 197.44,498.4 191.19,498.07C181.71,497.81 172.24,498.58 162.75,498.06C153.12,497.51 143.56,498.66 133.94,498.24C126.24,497.9 118.75,498.86 111.06,498.03C105.243,497.392 99.455,496.973 93.599,496.832L93.53,496.83C93.532,497.049 93.519,497.36 93.53,496.83L93.528,496.757C93.367,490.532 92.962,484.366 93.45,478.14C104.54,476.87 115.84,478.21 127.04,477.82C134.71,477.51 142.34,477.84 150,478.03C166.09,477.55 181.95,478.71 198.09,477.63C203.76,477.27 209.37,477.68 215.03,477.96C232.02,478.34 249.03,477.45 266.01,478.07C272.38,478.09 278.66,477.2 285.05,477.51C291.56,477.82 298.04,478.14 304.56,477.86C316.72,477.47 328.85,478.25 341,477.88C356.35,477.66 371.66,478.53 387,478.21C410.33,478.11 433.67,478.32 457,478.26C467.35,478 477.64,477.38 488,477.81C505.33,477.36 522.66,477.23 540,477.21C546.43,477.21 552.8,476.73 559.23,476.88C567.16,477.12 575.07,476.51 583.01,476.68C590.31,476.94 597.19,475.56 604.46,476.82C603.64,485.16 604.3,493.47 603.84,501.82C598.25,500.89 592.72,500.2 587.04,500.71C577.67,501.47 568.38,500.51 559,500.83C548.6,501.19 538.21,500.97 527.81,501.51C511.53,501.45 495.27,501.83 479,501.44C474.76,501.48 470.63,501.39 467.11,504.1C464.75,505.82 463.5,508.2 463.13,511.07C462.1,519.28 462.25,527.74 462.31,536C462.36,544.11 461.97,552.14 462.37,560.25C463.05,574.55 461.73,588.81 462.55,603.12C462.61,614.08 462.6,625.05 462.61,636.02C462.72,640.19 462.83,645.14 465.24,648.73C467.25,651.79 470.54,653.36 474.08,653.85C480.28,654.66 486.75,654.14 492.98,653.82C500.03,653.32 507.05,653.6 514.11,653.41C523.41,653.26 532.69,652.69 541.99,652.76C551.36,652.87 560.63,651.65 570,651.89C581.38,652.12 592.41,650.35 603.74,651.07C604.17,660.05 603.52,669.02 603.97,678C604.2,687.73 605.49,697.62 601.74,706.84C598.87,714.41 592.56,720.52 584.68,722.59C577.77,724.36 570,724.26 562.89,724.46C541.23,725.09 519.8,727.43 498.21,728.65C483.81,729.69 469.41,730.62 455.03,731.99C439.75,732.82 424.29,732.03 409,732.37ZM93.423,508.841C98.833,507.551 258.391,505.763 263.411,508.363C266.901,510.143 422.723,504.246 420.333,507.806C417.613,511.136 428.455,707.243 412.848,714.48C412.318,714.726 393.321,729.317 384.948,729.447C335.998,730.209 178.875,732.771 119.086,726.383C104.726,724.848 97.636,710.448 97.101,709.607C95.211,704.267 88.693,510.031 93.423,508.841ZM506.06,528.222C507.418,530.288 510.32,534.67 510.32,534.67C512.84,538.82 515.45,543.69 519.22,546.82C521.64,548.84 524.99,548.62 527.95,548.74C538.3,548.66 548.65,548.65 559,548.9C570.7,548.91 582.4,548.42 594.11,548.64C604.11,548.8 613.98,547.95 623.97,548.98C624.77,561.33 623.83,573.77 624.21,586.14C624.36,590.61 624.35,595.06 623.85,599.51C613.22,599.55 602.64,598.68 592,599.18C571.98,599.89 551.97,599.69 531.95,599.8C525.73,599.79 520.02,602.19 516.31,607.29C512.81,612.29 503.29,636.32 500.17,641.57C499.473,641.854 495.336,642.18 492.767,642.271C484.455,642.567 476.175,644.042 476.5,642.59C476.819,641.179 476.034,637.01 475.828,628.508C475.279,605.86 474.217,565.366 474.267,561.498C474.477,546.488 474.411,530.714 474.491,515.704C474.488,514.978 474.012,513.239 475.77,512.76C480.542,511.461 491.515,512.535 495.16,515.84C499.657,519.917 503.413,524.566 506.06,528.222ZM536.31,610.44C535.73,616.92 532.45,623.13 530.32,629.38C528.76,633.25 527.45,638.37 524.34,641.29C521.16,643.65 515.59,642.69 511.86,642.64C512.95,637.86 514.85,633.43 517.13,629.1C519.76,624.08 522.06,618.78 525.13,614.01C527.07,610.43 532.8,610.83 536.31,610.44ZM561.98,610.21C572.66,610.38 583.36,610 594.03,610.53C591.45,616.96 587.1,622.3 584.76,628.81C583.32,632.73 581.95,636.68 580.47,640.59C565.99,641.56 551.42,641.08 536.91,641.55C538.91,633.79 543.17,627.07 545.41,619.39C546.36,616.9 547.21,613 549.52,611.45C553.27,609.92 557.99,610.3 561.98,610.21ZM607.56,610.6C610.12,609.79 613.13,610.13 615.79,610.11C614.02,620.31 609.78,630.06 605.31,639.37C601.19,639.81 597.17,639.92 593.03,639.7C595.15,631.73 599.1,624.95 602.61,617.57C603.88,615.2 605.27,612.12 607.56,610.6ZM189.616,532.072C194.866,532.062 199.46,534.309 203.67,537.309C208.23,540.919 210.122,541.876 211.432,547.756C212.802,554.116 213.799,558.898 210.789,564.938C207.279,572.248 202.748,577.732 194.648,579.442C184.698,581.962 178.972,580.449 172.232,572.849C166.722,567.119 163.933,559.15 165.133,551.44C166.633,544.91 168.825,540.698 174.015,536.418C179.105,532.258 183.186,532.132 189.616,532.072ZM327.409,532.318C330.703,532.065 340.001,532.449 346.317,536.789C350.326,539.545 352.069,543.165 353.029,545.505C355.989,552.485 355.233,560.281 352.423,567.181C350.033,572.151 345.086,577.198 336.187,578.029C331.76,579.926 322.386,579.135 316.219,575.133C310.809,571.623 308.318,565.256 307.706,561.284C306.086,551.654 307.092,542.529 314.502,536.549C318.722,533.119 322.139,532.768 327.409,532.318ZM520.61,515.37C526.9,521.66 531.65,529.73 534.66,538.08C531.72,538.01 528.38,538.27 525.59,537.29C522.94,535.53 521.39,531.91 519.68,529.3C516.34,523.49 511.64,519.02 507.86,513.55C512.15,511.59 517.18,511.87 520.61,515.37ZM573.66,512.24C576.59,513.02 578.47,515.4 580.22,517.7C584.71,524.14 589.47,529.9 592.05,537.45C580.39,538.03 568.67,537.71 556.99,537.86C553.83,537.75 550.14,538.03 547.16,536.86C545.06,534.56 543.94,531.23 542.53,528.47C539.79,522.49 535.85,517.68 532.24,512.25C542.21,511.19 552.07,512.57 562.04,511.94C565.77,511.85 570.02,511.28 573.66,512.24ZM590.45,511.96C593.14,511.9 596.13,511.6 598.75,512.29C600.96,512.98 602.78,515.02 604.22,516.75C609.07,522.91 613.33,529.4 615.83,536.89C612.89,537.32 608.6,538.66 605.89,537.1C602.95,534.84 601.44,530.48 599.69,527.29C597.05,521.88 592.93,517.48 590.45,511.96ZM506.26,528.5C508.836,532.084 510.306,534.647 510.306,534.647C510.178,534.435 507.645,530.592 506.26,528.5L506.06,528.222C505.665,527.621 505.401,527.216 505.375,527.171C505.357,527.137 505.722,527.686 506.26,528.5ZM124.639,444.404L127.855,444.404C240.142,444.42 448.849,446.672 450.057,446.052L450.06,446.05C459.7,445.8 469.33,445.38 478.96,445.64C487.66,445.85 496.31,445.18 505,445.16C515.25,445.05 525.43,445.95 535.68,445.53C547.75,445.04 559.79,445.21 571.86,445.42C584.93,445.62 597.93,444.61 611,445.03C616.62,445.19 622.38,444.39 627.95,445.05C631.88,445.42 633.73,449.53 634.14,452.99C634.39,455.67 634.37,459.47 632.55,461.64C629.67,464.24 624.75,464.63 621.05,464.76C613.03,464.88 605.02,465.33 597,465.31C574.34,465.16 551.66,465.19 529.02,466.01C523.68,466.09 518.36,465.84 513.02,466.13C499.73,466.88 486.35,466.52 473.04,466.54C460.65,466.72 448.37,467.4 436,467.09C423.17,466.93 410.34,467.33 397.51,467.24C384.66,466.68 371.81,467.18 358.95,466.84C349.97,466.57 340.99,467.17 332,466.99C309.99,466.84 287.99,467.09 265.98,466.96C248.69,466.1 231.53,467.04 214.27,466.69C206.82,467.15 199.43,466.76 191.98,466.63C181.29,466.92 170.63,467.21 159.94,466.9C150.61,467.03 141.34,466.33 132.02,466.94C121.35,467.17 110.67,466.83 100,467.01C90.97,467.25 82.02,466.26 73,466.88C70.2,466.87 65.96,467.27 63.71,465.31C61.463,461.963 61.699,460.249 61.417,458.111C61.595,458.15 62.231,444.989 69.22,444.814C80.623,444.528 100.197,444.41 124.639,444.404Z" style="fill:rgb(237,217,17);"/>
                <path d="M381.5,303.44C387.83,303.88 394.02,305.36 399.68,308.26C406.04,311.47 412.46,314.77 418.39,318.72C423.26,321.94 427.27,326.49 431.27,330.77C436.15,335.99 439.16,341.95 442.83,348.07C447.53,356.43 451.61,365.25 454.4,374.43C456.56,381.37 457.23,388.53 459.1,395.55C462.83,393.97 465.45,392.16 468.26,389.25C473.45,383.91 479.51,379.75 485.77,375.77C494.85,369.88 505.64,366.19 515.27,361.01C519.45,358.8 523.23,356.73 528.16,357.34C529.73,357.68 531.87,357.6 532.13,359.61C534.02,366.59 533.1,374.35 534.36,381.53C535.66,390.95 541.2,399.63 548.9,405.13C555.98,410.24 565.54,411.74 570.89,419.08C574.16,423.34 573.49,427.76 573.23,432.76C571.88,433.22 570.55,433.69 569.18,434.09C565.148,436.348 128.631,438.226 116.592,436.365C115.702,436.225 114.58,434.77 113.69,434.65C113.52,427.72 114.22,420.11 117,413.71C119.43,408.61 125.71,406.76 130.99,407.19C136.26,407.46 139.85,410.27 144.11,412.96C148.77,415.91 154.05,418.6 159.51,419.59C165.35,420.49 171.78,417.87 176.48,414.52C190.62,404.01 200.04,388.8 205.61,372.26C209.09,363.64 210.28,354.59 212.96,345.74C214.46,340.78 215.57,335.4 217.93,330.77C218.88,328.95 220.14,327.69 222.28,327.5C227.84,326.91 233.76,328.33 238.96,330.25C247.14,333.51 254.95,337.62 261.81,343.18C269.87,349.07 277.35,355.6 284.85,362.16C286.63,363.85 288.87,365.86 289.16,368.44C289.74,373.65 288.47,378.72 289.74,384.06C290.92,388.78 292.99,393.47 295.43,397.67C297.52,401.3 301.86,403.19 305.95,402.32C309.37,401.56 312.73,399.54 315.95,398.12C321.02,395.78 326.02,394.63 330.84,391.72C335.47,388.9 339.67,385.27 343.91,381.91C350.31,376.92 355.98,371.41 361.14,365.13C366.41,359.04 369.58,350.85 372.53,343.4C376.39,333.38 376.98,323.5 378.31,313C378.73,309.49 379.69,306.48 381.5,303.44Z" style="fill:rgb(237,217,17);fill-rule:nonzero;"/>
                <path d="M369.25,36.89C368.98,41.28 367.67,45.56 367.48,49.99C367.08,56.86 369.03,63.7 372.38,69.67C375.13,74.48 379.53,78.66 383.45,82.55C387.95,87.01 393.05,90.07 398.2,93.68C406.72,99.75 416.2,104.16 424.64,110.38C431.9,115.17 437.41,121.4 443.54,127.47C447.61,131.56 450.8,136.2 454.09,140.91C465.27,156.37 472.17,175.39 475.79,194.01C477.85,202.67 477.51,211.19 478.19,219.99C478.67,227.79 478.15,235.53 477.3,243.28C476.51,250.25 474.31,256.9 473.62,263.89C473.06,269.44 472.03,275.43 472.87,280.97C473.53,284.24 474.97,288.16 477.67,290.29C480.69,291.92 485.02,291.08 488.15,290.12C496.27,287.41 502.2,280.36 505.92,272.91C509.79,265.54 510.97,257.45 515.06,250.19C519.59,241.39 525.57,233.53 532.55,226.53C538.2,220.91 545.65,217.29 552.86,214.08C560.39,210.7 569.2,208.25 577.5,208.86C582.88,209.22 587.01,214.5 585.6,219.82C584.18,225.85 582.67,231.75 582.56,238C582.33,247.56 582.13,257.6 584.14,266.99C587.37,279.69 593.74,290.88 601.91,301.04C609.26,311.45 616.89,322.57 621.43,334.53C626.34,348.51 628.44,363.24 628.01,378.04C627.51,387.22 624.86,396.23 619.94,404.01C617.49,407.9 614.19,411.09 611.89,415C610.29,417.77 608.49,420.98 608.44,424.25C608.38,427.61 608.71,430.93 608.42,434.29C602.21,434.25 596.2,435.01 589.98,434.66C584.88,434.37 579.88,433.59 574.75,433.69C581.31,433.12 587.75,434.16 594.28,433.23C593.9,427.28 592.66,420.63 593.99,414.77C595.41,409.27 600.96,404.77 604.24,400.19C608.81,394.04 612.1,386.79 612.43,379.05C612.75,372.51 612.68,365.86 611.68,359.37C610.41,351.46 609.13,343.76 605.92,336.35C603,328.84 598.66,322.37 594.41,315.6C590.82,309.91 586.38,304.86 582.74,299.2C578.4,292.54 573.74,285.28 571.41,277.64C569.31,270.79 567.46,264.09 567.41,256.85C567.36,250.01 566.96,242.85 567.95,236.13C568.42,232.78 569.02,229.44 569.56,226.09C562.38,227.47 555.26,228.95 549.16,233.2C543.69,237.07 538.17,241.81 534.58,247.52C532.1,251.45 529.86,255.55 527.81,259.72C524.89,265.62 524.03,272.05 521.04,277.93C517.68,284.49 514.21,290.69 508.41,295.42C502.38,300.34 495.42,304.63 487.66,306.04C481.29,307.22 474.86,307.35 469.12,303.91C462.74,300.15 459.54,293.14 457.66,286.28C455.61,278.79 456.79,271.76 457.84,264.25C459.11,255.1 461.96,246.35 462.95,237.14C463.84,230.35 462.94,224.04 462.93,217.24C462.92,209.14 462.16,201.08 460.6,193.12C459.2,186.16 456.36,179.91 453.72,173.32C450.27,164.61 445.65,156.27 440.65,148.35C436.4,141.64 430.87,136.29 424.99,131.02C409.56,116.82 389.26,107.7 373,94C366.88,88.51 361.22,82.07 357.29,74.81C354.45,69.55 354.36,63.87 352.41,58.41C351.49,57.58 350.65,57.69 349.9,58.74C340.42,68.1 333.82,80.11 331.45,93.25C328.15,107.74 329.93,121.21 331.47,135.78C332.77,144.53 332.4,153.34 331.1,162.06C330.5,166.19 328.77,169.88 326.27,173.19C322.92,177.64 319.04,182.14 314.36,185.24C302.03,192.74 288.43,197.55 276.04,204.82C269.05,208.76 261.63,212.12 255.97,217.97C248.57,225.62 244.36,235.62 241.63,245.76C239.73,253.34 239.84,261.2 243.72,268.15C247.54,275.31 253.64,279.17 259.79,284.05C263.97,287.29 266.58,291.41 270.32,295.14C273.22,289.36 275,283.85 278.77,278.68C282.86,273.14 287.19,267.91 292.39,263.36C298.88,257.54 305.14,251.46 311.47,245.47C315.45,241.79 318.58,237.17 322.76,233.75C325.79,230.96 330.81,233.25 333.26,235.74C335.98,239.13 337.16,243.87 338.98,247.79C342.98,245.98 345.77,243.97 348.54,240.56C352.89,235.17 359.53,230.23 361.64,223.63C364.33,215.94 362.6,207.85 364.46,200.35C365.09,196.81 368.88,197.03 371.64,197.48C375.45,198.32 376.77,203.07 377.35,206.4C378.66,217.29 377.34,228.55 370.59,237.53C364.03,246.3 356.31,255.93 345.87,260.06C341.51,261.77 336.05,263.87 331.33,263.01C328.88,260.44 327.18,257.08 325.24,254.11C321.73,256.64 318.47,259.35 315.4,262.4C308.02,269.73 300.01,275.3 293.95,283.96C288.37,292.01 282.06,300.24 278.27,309.29C277.1,311.76 275.79,314.83 273.6,316.57C271.66,318.15 268.61,318.06 266.87,316.21C265.18,312.86 265.33,308.66 263.78,305.21C262.74,303.12 260.53,301.58 258.57,300.41C254.24,297.92 249.72,296.26 245.63,293.27C241.67,290.35 238.16,286.78 234.97,283.04C229.59,276.7 226.78,268.01 223.66,260.39C221.29,254.43 217.81,249.17 213.75,244.23C209.37,238.81 202.83,234.94 197.12,230.88C193.52,228.4 190.15,226.41 185.6,226.92C185.27,235.62 184.65,244.31 184.39,253.01C184.12,262.28 181.59,271.58 178.49,280.28C175.69,288.33 170.79,295.86 165.69,302.66C162.37,307.2 156.87,310.21 154.29,315.1C151.71,320.52 151.1,326.94 152.52,332.77C154.4,341.45 161.27,349.92 161.07,358.97C161.14,363.92 155.59,366.7 151.26,366.1C146.97,362.46 146.09,355.35 141.46,351.65C136.54,347.65 129.49,345.66 123.61,343.48C116.45,340.89 109.78,337 104.21,331.79C99.9,327.78 96.96,322.06 93.64,317.14C82.35,325.51 73.39,336.38 69.27,349.98C67.83,355.25 69.04,361.02 70.07,366.27C71.41,372.21 72.81,378.73 76.36,383.77C81.53,390.98 89.29,396.59 95.88,402.13C101.3,406.68 103.94,413.88 103.54,420.86C103.24,425.09 102.07,429.35 101.13,433.48C105.29,434.32 112.33,433.681 114.644,435.133C115.534,435.253 102.119,436.298 94.639,436.368C86.459,436.258 80.23,434.88 86.44,434.09C87.02,428.88 88.08,423.18 87.43,417.96C87.13,415.48 85.62,413.77 83.91,412.09C79.33,407.9 74.15,404.8 70.09,399.96C64.83,393.7 60.23,386.1 57.2,378.51C53.86,370.12 54.33,361.84 54.39,353C54.44,348.5 55.11,344.08 56.89,339.93C59.84,332.96 63.22,325.9 67.97,319.98C74.69,311.37 83.38,304.36 92.44,298.38C94.77,296.89 97.44,295.32 100.18,294.81C103.25,294.36 106.84,296.5 107.42,299.68C108.85,305.62 107.09,311.85 111.09,316.87C117.3,324.68 126.48,330.05 136.48,331.09C136.65,324.34 136.09,316.87 138.79,310.55C144.3,299.05 156.58,292.64 161.22,281.29C163.85,275.47 166.33,269.81 167.23,263.42C168.86,251.68 169.94,239.88 170.46,228.03C170.75,221.8 171.5,212.74 178.43,210.25C182.88,208.64 188.09,210.05 192.36,211.63C198.33,213.98 204.34,216.58 209.39,220.6C215.69,225.68 222.31,230.28 228.27,235.8C231.68,226.67 235.01,217.97 241.56,210.55C252.16,198.48 267.15,189.79 281.84,183.64C287.28,181.21 292.27,177.98 297.86,175.85C304.81,173.17 312.68,168.16 315.8,161.13C318.46,152.75 317.31,142.58 315.88,134.03C313.56,120.68 314.18,106.54 316.17,93.18C317.59,83.88 320.78,75.11 324.78,66.64C327.11,61.61 330.33,57.12 334.05,53.03C338.79,47.89 342.93,42.68 348.77,38.69C352.77,35.94 357.02,32.24 361.7,30.84C365.52,29.52 369.55,32.99 369.25,36.89Z" style="fill:rgb(237,217,17);fill-rule:nonzero;"/>
            </g>
        </g>
    </g>
</svg>
