%TF.GenerationSoftware,KiCad,Pcbnew,8.0.4*%
%TF.CreationDate,2024-09-12T22:18:10-07:00*%
%TF.ProjectId,SMDEMFbadgeforMAKE-sizedfor3inchbagLCSCassembly,534d4445-4d46-4626-9164-6765666f724d,rev?*%
%TF.SameCoordinates,Original*%
%TF.FileFunction,Copper,L2,Bot*%
%TF.FilePolarity,Positive*%
%FSLAX46Y46*%
G04 Gerber Fmt 4.6, Leading zero omitted, Abs format (unit mm)*
G04 Created by KiCad (PCBNEW 8.0.4) date 2024-09-12 22:18:10*
%MOMM*%
%LPD*%
G01*
G04 APERTURE LIST*
G04 Aperture macros list*
%AMRoundRect*
0 Rectangle with rounded corners*
0 $1 Rounding radius*
0 $2 $3 $4 $5 $6 $7 $8 $9 X,Y pos of 4 corners*
0 Add a 4 corners polygon primitive as box body*
4,1,4,$2,$3,$4,$5,$6,$7,$8,$9,$2,$3,0*
0 Add four circle primitives for the rounded corners*
1,1,$1+$1,$2,$3*
1,1,$1+$1,$4,$5*
1,1,$1+$1,$6,$7*
1,1,$1+$1,$8,$9*
0 Add four rect primitives between the rounded corners*
20,1,$1+$1,$2,$3,$4,$5,0*
20,1,$1+$1,$4,$5,$6,$7,0*
20,1,$1+$1,$6,$7,$8,$9,0*
20,1,$1+$1,$8,$9,$2,$3,0*%
%AMRotRect*
0 Rectangle, with rotation*
0 The origin of the aperture is its center*
0 $1 length*
0 $2 width*
0 $3 Rotation angle, in degrees counterclockwise*
0 Add horizontal line*
21,1,$1,$2,0,0,$3*%
G04 Aperture macros list end*
%TA.AperFunction,SMDPad,CuDef*%
%ADD10RotRect,2.100000X1.100000X210.000000*%
%TD*%
%TA.AperFunction,SMDPad,CuDef*%
%ADD11R,5.300000X6.613306*%
%TD*%
%TA.AperFunction,SMDPad,CuDef*%
%ADD12R,5.300000X6.693306*%
%TD*%
%TA.AperFunction,SMDPad,CuDef*%
%ADD13R,1.300000X0.850000*%
%TD*%
%TA.AperFunction,SMDPad,CuDef*%
%ADD14RoundRect,0.250000X0.625000X-0.400000X0.625000X0.400000X-0.625000X0.400000X-0.625000X-0.400000X0*%
%TD*%
%TA.AperFunction,SMDPad,CuDef*%
%ADD15RotRect,1.200000X2.500000X330.000000*%
%TD*%
%TA.AperFunction,SMDPad,CuDef*%
%ADD16RoundRect,0.250000X0.034924X-0.769049X0.710725X-0.295849X-0.034924X0.769049X-0.710725X0.295849X0*%
%TD*%
%TA.AperFunction,SMDPad,CuDef*%
%ADD17RoundRect,0.250000X0.650000X-0.412500X0.650000X0.412500X-0.650000X0.412500X-0.650000X-0.412500X0*%
%TD*%
%TA.AperFunction,SMDPad,CuDef*%
%ADD18RoundRect,0.150000X-0.825000X-0.150000X0.825000X-0.150000X0.825000X0.150000X-0.825000X0.150000X0*%
%TD*%
%TA.AperFunction,SMDPad,CuDef*%
%ADD19RoundRect,0.326924X-1.766759X1.875656X-2.366807X1.018698X1.766759X-1.875656X2.366807X-1.018698X0*%
%TD*%
%TA.AperFunction,SMDPad,CuDef*%
%ADD20RoundRect,0.250000X1.050000X0.550000X-1.050000X0.550000X-1.050000X-0.550000X1.050000X-0.550000X0*%
%TD*%
%TA.AperFunction,SMDPad,CuDef*%
%ADD21RoundRect,0.250000X0.769167X-0.032235X0.356667X0.682235X-0.769167X0.032235X-0.356667X-0.682235X0*%
%TD*%
%TA.AperFunction,SMDPad,CuDef*%
%ADD22RoundRect,0.326924X-2.446586X-0.808541X-1.923510X-1.714535X2.446586X0.808541X1.923510X1.714535X0*%
%TD*%
%TA.AperFunction,SMDPad,CuDef*%
%ADD23RoundRect,0.250000X-1.050000X-0.550000X1.050000X-0.550000X1.050000X0.550000X-1.050000X0.550000X0*%
%TD*%
%TA.AperFunction,ViaPad*%
%ADD24C,0.600000*%
%TD*%
%TA.AperFunction,Conductor*%
%ADD25C,0.400000*%
%TD*%
G04 APERTURE END LIST*
D10*
%TO.P,J1,R*%
%TO.N,Net-(C1-Pad2)*%
X195946232Y-84263013D03*
%TO.P,J1,S*%
%TO.N,GND*%
X200887166Y-79100962D03*
%TO.P,J1,T*%
%TO.N,Net-(C2-Pad2)*%
X204434127Y-85124480D03*
%TD*%
D11*
%TO.P,AAA_BATT1,1,+*%
%TO.N,+VDC*%
X222230001Y-87611653D03*
D12*
%TO.P,AAA_BATT1,2,-*%
%TO.N,Net-(AAA_Battery1--)*%
X222214999Y-143058347D03*
%TD*%
D11*
%TO.P,AAA_BATT2,1,+*%
%TO.N,Net-(AAA_Battery1--)*%
X186389999Y-143221647D03*
D12*
%TO.P,AAA_BATT2,2,-*%
%TO.N,Net-(AAA_Battery2--)*%
X186405001Y-87774953D03*
%TD*%
D13*
%TO.P,D1,2,K*%
%TO.N,Net-(D1-A)*%
X206339998Y-102894998D03*
%TO.P,D1,1,A*%
%TO.N,-VDC*%
X202809998Y-102884998D03*
%TD*%
D14*
%TO.P,R4,1*%
%TO.N,Net-(U1B--)*%
X209810000Y-101727500D03*
%TO.P,R4,2*%
%TO.N,Net-(C2-Pad1)*%
X209810000Y-98627500D03*
%TD*%
D15*
%TO.P,SW1,1,A*%
%TO.N,Net-(AAA_Battery1--)*%
X208063400Y-82121423D03*
%TO.P,SW1,2,B*%
%TO.N,GND*%
X210228464Y-83371420D03*
%TO.P,SW1,3,C*%
%TO.N,unconnected-(SW1A-C-Pad3)*%
X212393528Y-84621422D03*
%TO.P,SW1,4,A*%
%TO.N,-VDC*%
X210887056Y-77250700D03*
%TO.P,SW1,5,B*%
%TO.N,Net-(AAA_Battery2--)*%
X213052121Y-78500698D03*
%TO.P,SW1,6,C*%
%TO.N,unconnected-(SW1B-C-Pad6)*%
X215217185Y-79750695D03*
%TD*%
D14*
%TO.P,R5,1*%
%TO.N,Net-(D1-A)*%
X210610000Y-110215000D03*
%TO.P,R5,2*%
%TO.N,+VDC*%
X210610000Y-107115000D03*
%TD*%
D16*
%TO.P,C4,1*%
%TO.N,GND*%
X204480075Y-91011213D03*
%TO.P,C4,2*%
%TO.N,Net-(C2-Pad2)*%
X207039925Y-89218787D03*
%TD*%
D17*
%TO.P,C5,1*%
%TO.N,Net-(U1B--)*%
X213310000Y-102165000D03*
%TO.P,C5,2*%
%TO.N,Net-(C2-Pad1)*%
X213310000Y-99040000D03*
%TD*%
D18*
%TO.P,U1,1*%
%TO.N,Net-(C1-Pad1)*%
X201360004Y-99195002D03*
%TO.P,U1,2,-*%
%TO.N,Net-(U1A--)*%
X201359994Y-97924992D03*
%TO.P,U1,3,+*%
%TO.N,GND*%
X201360000Y-96655004D03*
%TO.P,U1,4,V-*%
%TO.N,-VDC*%
X201359994Y-95385003D03*
%TO.P,U1,5,+*%
%TO.N,GND*%
X206309996Y-95384998D03*
%TO.P,U1,6,-*%
%TO.N,Net-(U1B--)*%
X206310006Y-96655008D03*
%TO.P,U1,7*%
%TO.N,Net-(C2-Pad1)*%
X206310000Y-97924996D03*
%TO.P,U1,8,V+*%
%TO.N,+VDC*%
X206310006Y-99194997D03*
%TD*%
D19*
%TO.P,I2,1,1*%
%TO.N,GND*%
X196111209Y-147167395D03*
%TO.P,I2,2,2*%
%TO.N,Net-(I2-Pad2)*%
X193558791Y-150812605D03*
%TD*%
D17*
%TO.P,C6,1*%
%TO.N,Net-(U1A--)*%
X198534996Y-103601243D03*
%TO.P,C6,2*%
%TO.N,Net-(C1-Pad1)*%
X198534996Y-100476243D03*
%TD*%
D14*
%TO.P,R2,1*%
%TO.N,Net-(I1-Pad2)*%
X214085000Y-122215000D03*
%TO.P,R2,2*%
%TO.N,Net-(U1B--)*%
X214085000Y-119115000D03*
%TD*%
D20*
%TO.P,C1,1*%
%TO.N,Net-(C1-Pad1)*%
X198335000Y-96139999D03*
%TO.P,C1,2*%
%TO.N,Net-(C1-Pad2)*%
X194735000Y-96140001D03*
%TD*%
D21*
%TO.P,C3,1*%
%TO.N,GND*%
X197541250Y-89668165D03*
%TO.P,C3,2*%
%TO.N,Net-(C1-Pad2)*%
X195978750Y-86961835D03*
%TD*%
D22*
%TO.P,I1,1,1*%
%TO.N,GND*%
X212247509Y-147313089D03*
%TO.P,I1,2,2*%
%TO.N,Net-(I1-Pad2)*%
X214472491Y-151166911D03*
%TD*%
D14*
%TO.P,R3,1*%
%TO.N,Net-(U1A--)*%
X195635000Y-103651243D03*
%TO.P,R3,2*%
%TO.N,Net-(C1-Pad1)*%
X195635000Y-100551243D03*
%TD*%
%TO.P,R1,1*%
%TO.N,Net-(I2-Pad2)*%
X194385000Y-123815000D03*
%TO.P,R1,2*%
%TO.N,Net-(U1A--)*%
X194385000Y-120715000D03*
%TD*%
D23*
%TO.P,C2,1*%
%TO.N,Net-(C2-Pad1)*%
X209610002Y-95177502D03*
%TO.P,C2,2*%
%TO.N,Net-(C2-Pad2)*%
X213210000Y-95177500D03*
%TD*%
D24*
%TO.N,+VDC*%
X210485000Y-106090000D03*
X206860000Y-99815000D03*
X210485000Y-106090000D03*
X218697500Y-104202500D03*
%TO.N,-VDC*%
X199085000Y-108415000D03*
X209760000Y-76990000D03*
X201385000Y-94690000D03*
%TO.N,GND*%
X212635000Y-86965000D03*
X212709999Y-143165001D03*
%TO.N,Net-(AAA_Battery1--)*%
X186389999Y-143221647D03*
X222560000Y-105815000D03*
X222214999Y-143058347D03*
X209735000Y-81240000D03*
%TD*%
D25*
%TO.N,Net-(I2-Pad2)*%
X191781200Y-150511200D02*
X190525000Y-149255000D01*
X190535000Y-138180533D02*
X190535000Y-127111182D01*
X190525000Y-149255000D02*
X190525000Y-138190533D01*
X190525000Y-138190533D02*
X190535000Y-138180533D01*
X190535000Y-127111182D02*
X193781188Y-123864994D01*
%TO.N,GND*%
X212535005Y-147340000D02*
X196010000Y-147340000D01*
X212709999Y-143165001D02*
X212709999Y-147514994D01*
X212709999Y-147514994D02*
X212535005Y-147340000D01*
%TO.N,+VDC*%
X206860000Y-99815000D02*
X206310006Y-99265006D01*
X206310006Y-99265006D02*
X206310006Y-99194997D01*
X210485000Y-106090000D02*
X210610000Y-106215000D01*
X210610000Y-106215000D02*
X210610000Y-107115000D01*
X210485000Y-106090000D02*
X210485000Y-106990000D01*
X210485000Y-106990000D02*
X210610000Y-107115000D01*
%TO.N,GND*%
X197541250Y-89668165D02*
X199902321Y-87307094D01*
X199902321Y-87307094D02*
X199902321Y-80085807D01*
X199902321Y-80085807D02*
X201441564Y-78546564D01*
X201441564Y-78546564D02*
X206960000Y-84065000D01*
X206960000Y-84065000D02*
X209534884Y-84065000D01*
X209534884Y-84065000D02*
X210228464Y-83371420D01*
%TO.N,Net-(C1-Pad2)*%
X194285000Y-96115002D02*
X194285000Y-88740000D01*
X194285000Y-88740000D02*
X195946232Y-87078768D01*
X195946232Y-87078768D02*
X195946232Y-84263013D01*
%TO.N,Net-(C2-Pad2)*%
X213210000Y-95177500D02*
X212998638Y-95177500D01*
X212998638Y-95177500D02*
X204687593Y-86866455D01*
X204687593Y-86866455D02*
X204687593Y-84943498D01*
%TO.N,GND*%
X206309996Y-95384998D02*
X206309996Y-92841134D01*
X206309996Y-92841134D02*
X203137027Y-89668165D01*
X203137027Y-89668165D02*
X197541250Y-89668165D01*
%TO.N,-VDC*%
X202579996Y-103115000D02*
X202579996Y-104045004D01*
X202579996Y-104045004D02*
X201935000Y-104690000D01*
X201935000Y-104690000D02*
X201935000Y-105565000D01*
X201935000Y-105565000D02*
X199085000Y-108415000D01*
%TO.N,Net-(U1A--)*%
X198534996Y-103601243D02*
X199123757Y-103601243D01*
X199123757Y-103601243D02*
X202935000Y-99790000D01*
X202935000Y-99790000D02*
X202935000Y-98440000D01*
%TO.N,Net-(AAA_Battery1--)*%
X186389999Y-143221647D02*
X186025152Y-142856800D01*
X186025152Y-142856800D02*
X185585000Y-142856800D01*
X222214999Y-143058347D02*
X222214999Y-142711601D01*
X222435000Y-142491600D02*
X222435000Y-142390000D01*
X222214999Y-142711601D02*
X222435000Y-142491600D01*
X222435000Y-142390000D02*
X222560000Y-142265000D01*
X222560000Y-142265000D02*
X222560000Y-105815000D01*
%TO.N,+VDC*%
X218697500Y-104202500D02*
X222435000Y-100465000D01*
X222435000Y-100465000D02*
X222435000Y-87348200D01*
%TO.N,Net-(D1-A)*%
X210610000Y-110215000D02*
X208585000Y-108190000D01*
X208585000Y-108190000D02*
X208585000Y-105140000D01*
X208585000Y-105140000D02*
X206560000Y-103115000D01*
%TO.N,-VDC*%
X210020700Y-77250700D02*
X209760000Y-76990000D01*
X210887056Y-77250700D02*
X210020700Y-77250700D01*
X201359994Y-95385003D02*
X201359994Y-94715006D01*
X201359994Y-94715006D02*
X201385000Y-94690000D01*
%TO.N,GND*%
X203485000Y-95505003D02*
X203485000Y-95384998D01*
X210228464Y-86014940D02*
X210228464Y-83371420D01*
X211178524Y-86965000D02*
X210228464Y-86014940D01*
X202334999Y-96655004D02*
X203485000Y-95505003D01*
X203485000Y-95384998D02*
X206309996Y-95384998D01*
X201360000Y-96655004D02*
X202334999Y-96655004D01*
X212635000Y-86965000D02*
X211178524Y-86965000D01*
%TO.N,Net-(U1A--)*%
X202935000Y-98440000D02*
X202249991Y-97754992D01*
X195635000Y-103651243D02*
X195635000Y-118911182D01*
X198534996Y-103601243D02*
X195685000Y-103601243D01*
X198284998Y-103640002D02*
X198360000Y-103565000D01*
X195685000Y-103601243D02*
X195635000Y-103651243D01*
X202249991Y-97754992D02*
X201887491Y-98117492D01*
X201359994Y-97924992D02*
X202419992Y-97924992D01*
X202419992Y-97924992D02*
X202935000Y-98440000D01*
X195635000Y-118911182D02*
X193781188Y-120764994D01*
%TO.N,Net-(U1B--)*%
X204485000Y-99740000D02*
X205535000Y-100790000D01*
X213310000Y-103865000D02*
X213310000Y-102165000D01*
X205335007Y-96655008D02*
X204485000Y-97505015D01*
X214510000Y-105065000D02*
X213310000Y-103865000D01*
X214510000Y-119390000D02*
X214510000Y-105065000D01*
X210247500Y-102165000D02*
X209810000Y-101727500D01*
X206310006Y-96655008D02*
X205335007Y-96655008D01*
X205535000Y-100790000D02*
X208872500Y-100790000D01*
X213310000Y-102165000D02*
X210247500Y-102165000D01*
X204485000Y-97505015D02*
X204485000Y-99740000D01*
X208872500Y-100790000D02*
X209810000Y-101727500D01*
%TO.N,Net-(I1-Pad2)*%
X217435000Y-148890000D02*
X217435000Y-140540000D01*
X218010000Y-126140000D02*
X214085000Y-122215000D01*
X214934981Y-151368816D02*
X217413797Y-148890000D01*
X217435000Y-140540000D02*
X218010000Y-139965000D01*
X218010000Y-139965000D02*
X218010000Y-126140000D01*
X217413797Y-148890000D02*
X217435000Y-148890000D01*
%TO.N,Net-(C1-Pad1)*%
X198309998Y-100515002D02*
X198360000Y-100465000D01*
X198459996Y-100551243D02*
X198534996Y-100476243D01*
X195635000Y-100551243D02*
X198459996Y-100551243D01*
X197885000Y-99826247D02*
X198534996Y-100476243D01*
X197885000Y-96115000D02*
X197885000Y-99826247D01*
X200078763Y-100476243D02*
X201360004Y-99195002D01*
X198534996Y-100476243D02*
X200078763Y-100476243D01*
%TO.N,Net-(C2-Pad1)*%
X209132511Y-97950011D02*
X206335015Y-97950011D01*
X209810000Y-98627500D02*
X209810000Y-95377500D01*
X209810000Y-98627500D02*
X209132511Y-97950011D01*
X213310000Y-99040000D02*
X210222500Y-99040000D01*
X209810000Y-95377500D02*
X209610002Y-95177502D01*
X210222500Y-99040000D02*
X209810000Y-98627500D01*
%TO.N,Net-(AAA_Battery1--)*%
X208853577Y-82121423D02*
X209735000Y-81240000D01*
X208063400Y-82121423D02*
X208853577Y-82121423D01*
%TO.N,Net-(AAA_Battery2--)*%
X186586600Y-87713400D02*
X185585000Y-87713400D01*
X211312819Y-80240000D02*
X213052121Y-78500698D01*
X210360000Y-80240000D02*
X211312819Y-80240000D01*
X208678876Y-76740000D02*
X208678876Y-78558876D01*
X208678876Y-76740000D02*
X205128876Y-73190000D01*
X197435000Y-76865000D02*
X186586600Y-87713400D01*
X199510000Y-76865000D02*
X197435000Y-76865000D01*
X205128876Y-73190000D02*
X203185000Y-73190000D01*
X208678876Y-78558876D02*
X210360000Y-80240000D01*
X203185000Y-73190000D02*
X199510000Y-76865000D01*
%TD*%
M02*
