%TF.GenerationSoftware,KiCad,Pcbnew,8.0.4*%
%TF.CreationDate,2024-09-12T22:18:10-07:00*%
%TF.ProjectId,SMDEMFbadgeforMAKE-sizedfor3inchbagLCSCassembly,534d4445-4d46-4626-9164-6765666f724d,rev?*%
%TF.SameCoordinates,Original*%
%TF.FileFunction,Copper,L1,Top*%
%TF.FilePolarity,Positive*%
%FSLAX46Y46*%
G04 Gerber Fmt 4.6, Leading zero omitted, Abs format (unit mm)*
G04 Created by KiCad (PCBNEW 8.0.4) date 2024-09-12 22:18:10*
%MOMM*%
%LPD*%
G01*
G04 APERTURE LIST*
%TA.AperFunction,ViaPad*%
%ADD10C,0.600000*%
%TD*%
%TA.AperFunction,Conductor*%
%ADD11C,0.400000*%
%TD*%
G04 APERTURE END LIST*
D10*
%TO.N,+VDC*%
X210485000Y-106090000D03*
X206860000Y-99815000D03*
X210485000Y-106090000D03*
X218697500Y-104202500D03*
%TO.N,-VDC*%
X199085000Y-108415000D03*
X209760000Y-76990000D03*
X201385000Y-94690000D03*
%TO.N,GND*%
X212635000Y-86965000D03*
X212709999Y-143165001D03*
%TO.N,Net-(AAA_Battery1--)*%
X186389999Y-143221647D03*
X222560000Y-105815000D03*
X222214999Y-143058347D03*
X209735000Y-81240000D03*
%TD*%
D11*
%TO.N,GND*%
X214035000Y-86965000D02*
X212635000Y-86965000D01*
X212709999Y-143165001D02*
X213459999Y-143165001D01*
X213459999Y-143165001D02*
X220535000Y-136090000D01*
X220535000Y-136090000D02*
X220535000Y-93465000D01*
X220535000Y-93465000D02*
X214035000Y-86965000D01*
%TO.N,+VDC*%
X206860000Y-99815000D02*
X207410000Y-100365000D01*
X207410000Y-100365000D02*
X207410000Y-104290000D01*
X207410000Y-104290000D02*
X209210000Y-106090000D01*
X209210000Y-106090000D02*
X210485000Y-106090000D01*
X216335000Y-106565000D02*
X218697500Y-104202500D01*
X210485000Y-106090000D02*
X210960000Y-106565000D01*
X210960000Y-106565000D02*
X216335000Y-106565000D01*
%TO.N,-VDC*%
X188235000Y-93315000D02*
X189310000Y-92240000D01*
X189310000Y-92240000D02*
X198935000Y-92240000D01*
X198935000Y-92240000D02*
X201385000Y-94690000D01*
%TO.N,Net-(AAA_Battery1--)*%
X220858346Y-144415000D02*
X222214999Y-143058347D01*
X186389999Y-143221647D02*
X187583352Y-144415000D01*
X187583352Y-144415000D02*
X220858346Y-144415000D01*
%TO.N,-VDC*%
X188235000Y-107065000D02*
X188235000Y-93315000D01*
X189585000Y-108415000D02*
X188235000Y-107065000D01*
X199085000Y-108415000D02*
X189585000Y-108415000D01*
%TO.N,Net-(AAA_Battery1--)*%
X224310000Y-88065000D02*
X224310000Y-104065000D01*
X224310000Y-104065000D02*
X222560000Y-105815000D01*
X210335000Y-80640000D02*
X216885000Y-80640000D01*
X209735000Y-81240000D02*
X210335000Y-80640000D01*
X216885000Y-80640000D02*
X224310000Y-88065000D01*
%TO.N,-VDC*%
X209760000Y-76990000D02*
X208160000Y-78590000D01*
X204488819Y-78590000D02*
X204141571Y-78602689D01*
X204141571Y-78602689D02*
X204026247Y-78590000D01*
X208160000Y-78590000D02*
X204488819Y-78590000D01*
X188235000Y-85115000D02*
X188235000Y-93315000D01*
X204026247Y-78590000D02*
X194760000Y-78590000D01*
X194760000Y-78590000D02*
X188235000Y-85115000D01*
%TD*%
M02*
