<?xml version="1.0" standalone="no"?>
 <!DOCTYPE svg PUBLIC "-//W3C//DTD SVG 1.1//EN" 
 "http://www.w3.org/Graphics/SVG/1.1/DTD/svg11.dtd"> 
<svg
  xmlns:svg="http://www.w3.org/2000/svg"
  xmlns="http://www.w3.org/2000/svg"
  xmlns:xlink="http://www.w3.org/1999/xlink"
  version="1.1"
  width="49.6316mm" height="46.1264mm" viewBox="0.0000 0.0000 49.6316 46.1264">
<title>SVG Image created as HackthePlanetPin-Edge_Cuts.svg date 2024/08/25 23:08:07 </title>
  <desc>Image generated by PCBNEW </desc>
<g style="fill:#000000; fill-opacity:1.0000;stroke:#000000; stroke-opacity:1.0000;
stroke-linecap:round; stroke-linejoin:round;"
 transform="translate(0 0) scale(1 1)">
</g>
<g style="fill:none; 
stroke:#FFB45B; stroke-width:0.0794; stroke-opacity:1; 
stroke-linecap:round; stroke-linejoin:round;">
<path d="M6.4241 11.8163
L6.4244 11.8159
" />
<path d="M25.3474 36.1429
L24.1117 36.1854
" />
<path d="M38.4201 29.8765
L37.9334 30.4106
" />
<path d="M41.1861 25.7665
L40.8043 26.4940
" />
<path d="M11.7151 32.0015
L11.1071 31.4639
" />
<path d="M37.4067 5.3344
L38.3530 6.3494
" />
<path d="M7.2080 26.3092
L6.5894 24.9696
" />
<path d="M6.4282 11.8034
L6.4292 11.7987
" />
<path d="M24.1117 36.1854
L22.8305 36.1617
" />
<path d="M8.8047 7.4500
L9.6461 6.4249
" />
<path d="M6.0149 11.8287
L6.2798 11.8296
" />
<path d="M6.7475 10.8805
L7.0762 10.1798
" />
<path d="M14.4797 2.5023
L15.2601 2.0902
" />
<path d="M10.1195 5.9067
L10.6289 5.3894
" />
<path d="M11.1751 4.8766
L11.7586 4.3717
" />
<path d="M21.6083 36.0724
L20.4439 35.9217
" />
<path d="M32.9397 2.1052
L33.6940 2.5093
" />
<path d="M6.4251 11.8146
L6.4256 11.8136
" />
<path d="M15.2601 2.0902
L16.0819 1.7072
" />
<path d="M41.4001 11.3668
L41.5267 11.7783
" />
<path d="M40.8446 10.0744
L41.1748 10.7901
" />
<path d="M5.6342 24.4552
L5.6448 11.8260
" />
<path d="M6.5894 24.9696
L6.3923 24.4608
" />
<path d="M28.7336 35.6614
L27.6574 35.8768
" />
<path d="M6.4292 11.7987
L6.5336 11.4295
" />
<path d="M10.6289 5.3894
L11.1751 4.8766
" />
<path d="M33.6940 2.5093
L34.4083 2.9380
" />
<path d="M19.3362 35.7141
L18.2839 35.4539
" />
<path d="M9.0957 29.2667
L8.3255 28.2009
" />
<path d="M6.5336 11.4295
L6.7475 10.8805
" />
<path d="M42.4763 24.4272
L41.7429 24.4388
" />
<path d="M13.7400 2.9401
L14.4797 2.5023
" />
<path d="M10.0196 30.3660
L9.0957 29.2667
" />
<path d="M24.2253 0.1158
L25.3739 0.1508
" />
<path d="M37.9334 30.4106
L37.4072 30.9451
" />
<path d="M34.1497 33.4774
L33.3661 33.9268
" />
<path d="M6.4248 11.8154
L6.4251 11.8146
" />
<path d="M6.4221 11.8280
L6.4225 11.8245
" />
<path d="M17.2858 35.1455
L16.3407 34.7932
" />
<path d="M41.7429 24.4388
L41.6500 24.7175
" />
<path d="M14.6047 33.9743
L13.8113 33.5164
" />
<path d="M26.5290 36.0387
L25.3474 36.1429
" />
<path d="M16.3407 34.7932
L15.4474 34.4013
" />
<path d="M6.4256 11.8136
L6.4261 11.8121
" />
<path d="M18.2839 35.4539
L17.2858 35.1455
" />
<path d="M21.9185 0.2188
L23.0486 0.1386
" />
<path d="M15.4474 34.4013
L14.6047 33.9743
" />
<path d="M35.7200 3.8559
L36.3189 4.3384
" />
<path d="M25.3739 0.1508
L26.4757 0.2401
" />
<path d="M6.4267 11.8099
L6.4274 11.8071
" />
<path d="M13.0404 3.3999
L13.7400 2.9401
" />
<path d="M6.4233 11.8184
L6.4236 11.8175
" />
<path d="M41.4490 25.2058
L41.1861 25.7665
" />
<path d="M11.1071 31.4639
L10.0196 30.3660
" />
<path d="M8.0995 8.4363
L8.8047 7.4500
" />
<path d="M6.4236 11.8175
L6.4239 11.8168
" />
<path d="M5.6448 11.8260
L6.0149 11.8287
" />
<path d="M27.6574 35.8768
L26.5290 36.0387
" />
<path d="M35.5819 32.5090
L34.8880 33.0034
" />
<path d="M36.2324 31.9984
L35.5819 32.5090
" />
<path d="M6.4225 11.8245
L6.4228 11.8218
" />
<path d="M38.8684 29.3468
L38.4201 29.8765
" />
<path d="M7.6995 27.2035
L7.2080 26.3092
" />
<path d="M29.7587 35.3966
L28.7336 35.6614
" />
<path d="M6.4261 11.8121
L6.4267 11.8099
" />
<path d="M40.2960 27.3554
L39.6533 28.3173
" />
<path d="M9.6461 6.4249
L10.1195 5.9067
" />
<path d="M28.5416 0.5679
L29.5073 0.7999
" />
<path d="M33.3661 33.9268
L32.5362 34.3476
" />
<path d="M40.4035 9.2461
L40.8446 10.0744
" />
<path d="M26.4757 0.2401
L27.5313 0.3802
" />
<path d="M7.5251 9.3556
L8.0995 8.4363
" />
<path d="M19.7959 0.5372
L20.8345 0.3528
" />
<path d="M36.3189 4.3384
L37.4067 5.3344
" />
<path d="M6.4274 11.8071
L6.4282 11.8034
" />
<path d="M39.8452 8.3317
L40.4035 9.2461
" />
<path d="M32.5362 34.3476
L31.6589 34.7356
" />
<path d="M39.6533 28.3173
L38.8684 29.3468
" />
<path d="M16.9456 1.3569
L17.8521 1.0427
" />
<path d="M32.1446 1.7289
L32.9397 2.1052
" />
<path d="M34.8880 33.0034
L34.1497 33.4774
" />
<path d="M7.0762 10.1798
L7.5251 9.3556
" />
<path d="M30.4292 1.0730
L31.3081 1.3837
" />
<path d="M30.7334 35.0867
L29.7587 35.3966
" />
<path d="M29.5073 0.7999
L30.4292 1.0730
" />
<path d="M31.3081 1.3837
L32.1446 1.7289
" />
<path d="M17.8521 1.0427
L18.8020 0.7683
" />
<path d="M41.5267 11.7783
L42.4898 11.7846
" />
<path d="M6.1555 24.4575
L5.9212 24.4559
" />
<path d="M6.4239 11.8168
L6.4241 11.8163
" />
<path d="M36.8405 31.4758
L36.2324 31.9984
" />
<path d="M23.0486 0.1386
L24.2253 0.1158
" />
<path d="M13.8113 33.5164
L13.0660 33.0321
" />
<path d="M6.4231 11.8199
L6.4233 11.8184
" />
<path d="M38.3530 6.3494
L39.1638 7.3573
" />
<path d="M41.1748 10.7901
L41.4001 11.3668
" />
<path d="M41.6500 24.7175
L41.4490 25.2058
" />
<path d="M5.9212 24.4559
L5.6342 24.4552
" />
<path d="M11.7586 4.3717
L12.3801 3.8783
" />
<path d="M18.8020 0.7683
L19.7959 0.5372
" />
<path d="M35.0833 3.3880
L35.7200 3.8559
" />
<path d="M6.4228 11.8218
L6.4231 11.8199
" />
<path d="M6.4244 11.8159
L6.4248 11.8154
" />
<path d="M27.5313 0.3802
L28.5416 0.5679
" />
<path d="M12.3801 3.8783
L13.0404 3.3999
" />
<path d="M6.3923 24.4608
L6.1555 24.4575
" />
<path d="M34.4083 2.9380
L35.0833 3.3880
" />
<path d="M42.4898 11.7846
L42.4763 24.4272
" />
<path d="M31.6589 34.7356
L30.7334 35.0867
" />
<path d="M8.3255 28.2009
L7.6995 27.2035
" />
<path d="M37.4072 30.9451
L36.8405 31.4758
" />
<path d="M13.0660 33.0321
L12.3677 32.5257
" />
<path d="M22.8305 36.1617
L21.6083 36.0724
" />
<path d="M20.8345 0.3528
L21.9185 0.2188
" />
<path d="M39.1638 7.3573
L39.8452 8.3317
" />
<path d="M12.3677 32.5257
L11.7151 32.0015
" />
<path d="M40.8043 26.4940
L40.2960 27.3554
" />
<path d="M16.0819 1.7072
L16.9456 1.3569
" />
<path d="M6.2798 11.8296
L6.4221 11.8280
" />
<path d="M20.4439 35.9217
L19.3362 35.7141
" />
</g>
<g style="fill:none; 
stroke:#FFB45B; stroke-width:0.0794; stroke-opacity:1; 
stroke-linecap:round; stroke-linejoin:round;">
<path d="M6.4241 11.8163
L6.4244 11.8159
" />
<path d="M25.3474 36.1429
L24.1117 36.1854
" />
<path d="M38.4201 29.8765
L37.9334 30.4106
" />
<path d="M41.1861 25.7665
L40.8043 26.4940
" />
<path d="M11.7151 32.0015
L11.1071 31.4639
" />
<path d="M37.4067 5.3344
L38.3530 6.3494
" />
<path d="M7.2080 26.3092
L6.5894 24.9696
" />
<path d="M6.4282 11.8034
L6.4292 11.7987
" />
<path d="M24.1117 36.1854
L22.8305 36.1617
" />
<path d="M8.8047 7.4500
L9.6461 6.4249
" />
<path d="M6.0149 11.8287
L6.2798 11.8296
" />
<path d="M6.7475 10.8805
L7.0762 10.1798
" />
<path d="M14.4797 2.5023
L15.2601 2.0902
" />
<path d="M10.1195 5.9067
L10.6289 5.3894
" />
<path d="M11.1751 4.8766
L11.7586 4.3717
" />
<path d="M21.6083 36.0724
L20.4439 35.9217
" />
<path d="M32.9397 2.1052
L33.6940 2.5093
" />
<path d="M6.4251 11.8146
L6.4256 11.8136
" />
<path d="M15.2601 2.0902
L16.0819 1.7072
" />
<path d="M41.4001 11.3668
L41.5267 11.7783
" />
<path d="M40.8446 10.0744
L41.1748 10.7901
" />
<path d="M5.6342 24.4552
L5.6448 11.8260
" />
<path d="M6.5894 24.9696
L6.3923 24.4608
" />
<path d="M28.7336 35.6614
L27.6574 35.8768
" />
<path d="M6.4292 11.7987
L6.5336 11.4295
" />
<path d="M10.6289 5.3894
L11.1751 4.8766
" />
<path d="M33.6940 2.5093
L34.4083 2.9380
" />
<path d="M19.3362 35.7141
L18.2839 35.4539
" />
<path d="M9.0957 29.2667
L8.3255 28.2009
" />
<path d="M6.5336 11.4295
L6.7475 10.8805
" />
<path d="M42.4763 24.4272
L41.7429 24.4388
" />
<path d="M13.7400 2.9401
L14.4797 2.5023
" />
<path d="M10.0196 30.3660
L9.0957 29.2667
" />
<path d="M24.2253 0.1158
L25.3739 0.1508
" />
<path d="M37.9334 30.4106
L37.4072 30.9451
" />
<path d="M34.1497 33.4774
L33.3661 33.9268
" />
<path d="M6.4248 11.8154
L6.4251 11.8146
" />
<path d="M6.4221 11.8280
L6.4225 11.8245
" />
<path d="M17.2858 35.1455
L16.3407 34.7932
" />
<path d="M41.7429 24.4388
L41.6500 24.7175
" />
<path d="M14.6047 33.9743
L13.8113 33.5164
" />
<path d="M26.5290 36.0387
L25.3474 36.1429
" />
<path d="M16.3407 34.7932
L15.4474 34.4013
" />
<path d="M6.4256 11.8136
L6.4261 11.8121
" />
<path d="M18.2839 35.4539
L17.2858 35.1455
" />
<path d="M21.9185 0.2188
L23.0486 0.1386
" />
<path d="M15.4474 34.4013
L14.6047 33.9743
" />
<path d="M35.7200 3.8559
L36.3189 4.3384
" />
<path d="M25.3739 0.1508
L26.4757 0.2401
" />
<path d="M6.4267 11.8099
L6.4274 11.8071
" />
<path d="M13.0404 3.3999
L13.7400 2.9401
" />
<path d="M6.4233 11.8184
L6.4236 11.8175
" />
<path d="M41.4490 25.2058
L41.1861 25.7665
" />
<path d="M11.1071 31.4639
L10.0196 30.3660
" />
<path d="M8.0995 8.4363
L8.8047 7.4500
" />
<path d="M6.4236 11.8175
L6.4239 11.8168
" />
<path d="M5.6448 11.8260
L6.0149 11.8287
" />
<path d="M27.6574 35.8768
L26.5290 36.0387
" />
<path d="M35.5819 32.5090
L34.8880 33.0034
" />
<path d="M36.2324 31.9984
L35.5819 32.5090
" />
<path d="M6.4225 11.8245
L6.4228 11.8218
" />
<path d="M38.8684 29.3468
L38.4201 29.8765
" />
<path d="M7.6995 27.2035
L7.2080 26.3092
" />
<path d="M29.7587 35.3966
L28.7336 35.6614
" />
<path d="M6.4261 11.8121
L6.4267 11.8099
" />
<path d="M40.2960 27.3554
L39.6533 28.3173
" />
<path d="M9.6461 6.4249
L10.1195 5.9067
" />
<path d="M28.5416 0.5679
L29.5073 0.7999
" />
<path d="M33.3661 33.9268
L32.5362 34.3476
" />
<path d="M40.4035 9.2461
L40.8446 10.0744
" />
<path d="M26.4757 0.2401
L27.5313 0.3802
" />
<path d="M7.5251 9.3556
L8.0995 8.4363
" />
<path d="M19.7959 0.5372
L20.8345 0.3528
" />
<path d="M36.3189 4.3384
L37.4067 5.3344
" />
<path d="M6.4274 11.8071
L6.4282 11.8034
" />
<path d="M39.8452 8.3317
L40.4035 9.2461
" />
<path d="M32.5362 34.3476
L31.6589 34.7356
" />
<path d="M39.6533 28.3173
L38.8684 29.3468
" />
<path d="M16.9456 1.3569
L17.8521 1.0427
" />
<path d="M32.1446 1.7289
L32.9397 2.1052
" />
<path d="M34.8880 33.0034
L34.1497 33.4774
" />
<path d="M7.0762 10.1798
L7.5251 9.3556
" />
<path d="M30.4292 1.0730
L31.3081 1.3837
" />
<path d="M30.7334 35.0867
L29.7587 35.3966
" />
<path d="M29.5073 0.7999
L30.4292 1.0730
" />
<path d="M31.3081 1.3837
L32.1446 1.7289
" />
<path d="M17.8521 1.0427
L18.8020 0.7683
" />
<path d="M41.5267 11.7783
L42.4898 11.7846
" />
<path d="M6.1555 24.4575
L5.9212 24.4559
" />
<path d="M6.4239 11.8168
L6.4241 11.8163
" />
<path d="M36.8405 31.4758
L36.2324 31.9984
" />
<path d="M23.0486 0.1386
L24.2253 0.1158
" />
<path d="M13.8113 33.5164
L13.0660 33.0321
" />
<path d="M6.4231 11.8199
L6.4233 11.8184
" />
<path d="M38.3530 6.3494
L39.1638 7.3573
" />
<path d="M41.1748 10.7901
L41.4001 11.3668
" />
<path d="M41.6500 24.7175
L41.4490 25.2058
" />
<path d="M5.9212 24.4559
L5.6342 24.4552
" />
<path d="M11.7586 4.3717
L12.3801 3.8783
" />
<path d="M18.8020 0.7683
L19.7959 0.5372
" />
<path d="M35.0833 3.3880
L35.7200 3.8559
" />
<path d="M6.4228 11.8218
L6.4231 11.8199
" />
<path d="M6.4244 11.8159
L6.4248 11.8154
" />
<path d="M27.5313 0.3802
L28.5416 0.5679
" />
<path d="M12.3801 3.8783
L13.0404 3.3999
" />
<path d="M6.3923 24.4608
L6.1555 24.4575
" />
<path d="M34.4083 2.9380
L35.0833 3.3880
" />
<path d="M42.4898 11.7846
L42.4763 24.4272
" />
<path d="M31.6589 34.7356
L30.7334 35.0867
" />
<path d="M8.3255 28.2009
L7.6995 27.2035
" />
<path d="M37.4072 30.9451
L36.8405 31.4758
" />
<path d="M13.0660 33.0321
L12.3677 32.5257
" />
<path d="M22.8305 36.1617
L21.6083 36.0724
" />
<path d="M20.8345 0.3528
L21.9185 0.2188
" />
<path d="M39.1638 7.3573
L39.8452 8.3317
" />
<path d="M12.3677 32.5257
L11.7151 32.0015
" />
<path d="M40.8043 26.4940
L40.2960 27.3554
" />
<path d="M16.0819 1.7072
L16.9456 1.3569
" />
<path d="M6.2798 11.8296
L6.4221 11.8280
" />
<path d="M20.4439 35.9217
L19.3362 35.7141
" />
</g> 
</svg>
