%TF.GenerationSoftware,KiCad,Pcbnew,8.0.4*%
%TF.CreationDate,2024-08-25T23:20:03-07:00*%
%TF.ProjectId,HackthePlanetPin_panelized,4861636b-7468-4655-906c-616e65745069,rev?*%
%TF.SameCoordinates,Original*%
%TF.FileFunction,Other,Comment*%
%FSLAX46Y46*%
G04 Gerber Fmt 4.6, Leading zero omitted, Abs format (unit mm)*
G04 Created by KiCad (PCBNEW 8.0.4) date 2024-08-25 23:20:03*
%MOMM*%
%LPD*%
G01*
G04 APERTURE LIST*
%ADD10C,0.250000*%
%ADD11C,0.500000*%
G04 APERTURE END LIST*
D10*
X112586446Y-76217044D02*
X113253112Y-78217044D01*
X113253112Y-78217044D02*
X113919779Y-76217044D01*
X114586446Y-77455139D02*
X116110256Y-77455139D01*
X116967398Y-78121806D02*
X117253112Y-78217044D01*
X117253112Y-78217044D02*
X117729303Y-78217044D01*
X117729303Y-78217044D02*
X117919779Y-78121806D01*
X117919779Y-78121806D02*
X118015017Y-78026567D01*
X118015017Y-78026567D02*
X118110255Y-77836091D01*
X118110255Y-77836091D02*
X118110255Y-77645615D01*
X118110255Y-77645615D02*
X118015017Y-77455139D01*
X118015017Y-77455139D02*
X117919779Y-77359901D01*
X117919779Y-77359901D02*
X117729303Y-77264663D01*
X117729303Y-77264663D02*
X117348350Y-77169425D01*
X117348350Y-77169425D02*
X117157874Y-77074186D01*
X117157874Y-77074186D02*
X117062636Y-76978948D01*
X117062636Y-76978948D02*
X116967398Y-76788472D01*
X116967398Y-76788472D02*
X116967398Y-76597996D01*
X116967398Y-76597996D02*
X117062636Y-76407520D01*
X117062636Y-76407520D02*
X117157874Y-76312282D01*
X117157874Y-76312282D02*
X117348350Y-76217044D01*
X117348350Y-76217044D02*
X117824541Y-76217044D01*
X117824541Y-76217044D02*
X118110255Y-76312282D01*
X120110255Y-78026567D02*
X120015017Y-78121806D01*
X120015017Y-78121806D02*
X119729303Y-78217044D01*
X119729303Y-78217044D02*
X119538827Y-78217044D01*
X119538827Y-78217044D02*
X119253112Y-78121806D01*
X119253112Y-78121806D02*
X119062636Y-77931329D01*
X119062636Y-77931329D02*
X118967398Y-77740853D01*
X118967398Y-77740853D02*
X118872160Y-77359901D01*
X118872160Y-77359901D02*
X118872160Y-77074186D01*
X118872160Y-77074186D02*
X118967398Y-76693234D01*
X118967398Y-76693234D02*
X119062636Y-76502758D01*
X119062636Y-76502758D02*
X119253112Y-76312282D01*
X119253112Y-76312282D02*
X119538827Y-76217044D01*
X119538827Y-76217044D02*
X119729303Y-76217044D01*
X119729303Y-76217044D02*
X120015017Y-76312282D01*
X120015017Y-76312282D02*
X120110255Y-76407520D01*
X121348350Y-76217044D02*
X121729303Y-76217044D01*
X121729303Y-76217044D02*
X121919779Y-76312282D01*
X121919779Y-76312282D02*
X122110255Y-76502758D01*
X122110255Y-76502758D02*
X122205493Y-76883710D01*
X122205493Y-76883710D02*
X122205493Y-77550377D01*
X122205493Y-77550377D02*
X122110255Y-77931329D01*
X122110255Y-77931329D02*
X121919779Y-78121806D01*
X121919779Y-78121806D02*
X121729303Y-78217044D01*
X121729303Y-78217044D02*
X121348350Y-78217044D01*
X121348350Y-78217044D02*
X121157874Y-78121806D01*
X121157874Y-78121806D02*
X120967398Y-77931329D01*
X120967398Y-77931329D02*
X120872160Y-77550377D01*
X120872160Y-77550377D02*
X120872160Y-76883710D01*
X120872160Y-76883710D02*
X120967398Y-76502758D01*
X120967398Y-76502758D02*
X121157874Y-76312282D01*
X121157874Y-76312282D02*
X121348350Y-76217044D01*
X124205493Y-78217044D02*
X123538826Y-77264663D01*
X123062636Y-78217044D02*
X123062636Y-76217044D01*
X123062636Y-76217044D02*
X123824541Y-76217044D01*
X123824541Y-76217044D02*
X124015017Y-76312282D01*
X124015017Y-76312282D02*
X124110255Y-76407520D01*
X124110255Y-76407520D02*
X124205493Y-76597996D01*
X124205493Y-76597996D02*
X124205493Y-76883710D01*
X124205493Y-76883710D02*
X124110255Y-77074186D01*
X124110255Y-77074186D02*
X124015017Y-77169425D01*
X124015017Y-77169425D02*
X123824541Y-77264663D01*
X123824541Y-77264663D02*
X123062636Y-77264663D01*
X125062636Y-77169425D02*
X125729303Y-77169425D01*
X126015017Y-78217044D02*
X125062636Y-78217044D01*
X125062636Y-78217044D02*
X125062636Y-76217044D01*
X125062636Y-76217044D02*
X126015017Y-76217044D01*
D11*
X128560443Y-77304806D02*
X203271557Y-77304806D01*
D10*
X164828238Y-38380191D02*
X166828238Y-37713525D01*
X166828238Y-37713525D02*
X164828238Y-37046858D01*
X166066333Y-36380191D02*
X166066333Y-34856382D01*
X166733000Y-33999239D02*
X166828238Y-33713525D01*
X166828238Y-33713525D02*
X166828238Y-33237334D01*
X166828238Y-33237334D02*
X166733000Y-33046858D01*
X166733000Y-33046858D02*
X166637761Y-32951620D01*
X166637761Y-32951620D02*
X166447285Y-32856382D01*
X166447285Y-32856382D02*
X166256809Y-32856382D01*
X166256809Y-32856382D02*
X166066333Y-32951620D01*
X166066333Y-32951620D02*
X165971095Y-33046858D01*
X165971095Y-33046858D02*
X165875857Y-33237334D01*
X165875857Y-33237334D02*
X165780619Y-33618287D01*
X165780619Y-33618287D02*
X165685380Y-33808763D01*
X165685380Y-33808763D02*
X165590142Y-33904001D01*
X165590142Y-33904001D02*
X165399666Y-33999239D01*
X165399666Y-33999239D02*
X165209190Y-33999239D01*
X165209190Y-33999239D02*
X165018714Y-33904001D01*
X165018714Y-33904001D02*
X164923476Y-33808763D01*
X164923476Y-33808763D02*
X164828238Y-33618287D01*
X164828238Y-33618287D02*
X164828238Y-33142096D01*
X164828238Y-33142096D02*
X164923476Y-32856382D01*
X166637761Y-30856382D02*
X166733000Y-30951620D01*
X166733000Y-30951620D02*
X166828238Y-31237334D01*
X166828238Y-31237334D02*
X166828238Y-31427810D01*
X166828238Y-31427810D02*
X166733000Y-31713525D01*
X166733000Y-31713525D02*
X166542523Y-31904001D01*
X166542523Y-31904001D02*
X166352047Y-31999239D01*
X166352047Y-31999239D02*
X165971095Y-32094477D01*
X165971095Y-32094477D02*
X165685380Y-32094477D01*
X165685380Y-32094477D02*
X165304428Y-31999239D01*
X165304428Y-31999239D02*
X165113952Y-31904001D01*
X165113952Y-31904001D02*
X164923476Y-31713525D01*
X164923476Y-31713525D02*
X164828238Y-31427810D01*
X164828238Y-31427810D02*
X164828238Y-31237334D01*
X164828238Y-31237334D02*
X164923476Y-30951620D01*
X164923476Y-30951620D02*
X165018714Y-30856382D01*
X164828238Y-29618287D02*
X164828238Y-29237334D01*
X164828238Y-29237334D02*
X164923476Y-29046858D01*
X164923476Y-29046858D02*
X165113952Y-28856382D01*
X165113952Y-28856382D02*
X165494904Y-28761144D01*
X165494904Y-28761144D02*
X166161571Y-28761144D01*
X166161571Y-28761144D02*
X166542523Y-28856382D01*
X166542523Y-28856382D02*
X166733000Y-29046858D01*
X166733000Y-29046858D02*
X166828238Y-29237334D01*
X166828238Y-29237334D02*
X166828238Y-29618287D01*
X166828238Y-29618287D02*
X166733000Y-29808763D01*
X166733000Y-29808763D02*
X166542523Y-29999239D01*
X166542523Y-29999239D02*
X166161571Y-30094477D01*
X166161571Y-30094477D02*
X165494904Y-30094477D01*
X165494904Y-30094477D02*
X165113952Y-29999239D01*
X165113952Y-29999239D02*
X164923476Y-29808763D01*
X164923476Y-29808763D02*
X164828238Y-29618287D01*
X166828238Y-26761144D02*
X165875857Y-27427811D01*
X166828238Y-27904001D02*
X164828238Y-27904001D01*
X164828238Y-27904001D02*
X164828238Y-27142096D01*
X164828238Y-27142096D02*
X164923476Y-26951620D01*
X164923476Y-26951620D02*
X165018714Y-26856382D01*
X165018714Y-26856382D02*
X165209190Y-26761144D01*
X165209190Y-26761144D02*
X165494904Y-26761144D01*
X165494904Y-26761144D02*
X165685380Y-26856382D01*
X165685380Y-26856382D02*
X165780619Y-26951620D01*
X165780619Y-26951620D02*
X165875857Y-27142096D01*
X165875857Y-27142096D02*
X165875857Y-27904001D01*
X165780619Y-25904001D02*
X165780619Y-25237334D01*
X166828238Y-24951620D02*
X166828238Y-25904001D01*
X166828238Y-25904001D02*
X164828238Y-25904001D01*
X164828238Y-25904001D02*
X164828238Y-24951620D01*
D11*
X165916000Y-40735141D02*
X165916000Y-113874471D01*
M02*
