%TF.GenerationSoftware,KiCad,Pcbnew,8.0.4*%
%TF.CreationDate,2024-08-25T23:20:03-07:00*%
%TF.ProjectId,HackthePlanetPin_panelized,4861636b-7468-4655-906c-616e65745069,rev?*%
%TF.SameCoordinates,Original*%
%TF.FileFunction,Profile,NP*%
%FSLAX46Y46*%
G04 Gerber Fmt 4.6, Leading zero omitted, Abs format (unit mm)*
G04 Created by KiCad (PCBNEW 8.0.4) date 2024-08-25 23:20:03*
%MOMM*%
%LPD*%
G01*
G04 APERTURE LIST*
%TA.AperFunction,Profile*%
%ADD10C,0.079374*%
%TD*%
G04 APERTURE END LIST*
D10*
X180975710Y-76791120D02*
X179867995Y-76583517D01*
X180975710Y-113360785D02*
X179867995Y-113153182D01*
X143620153Y-76791120D02*
X142512438Y-76583517D01*
X166811591Y-52698951D02*
X166953876Y-52697399D01*
X166811591Y-89268616D02*
X166953876Y-89267064D01*
X129456034Y-52698951D02*
X129598319Y-52697399D01*
X176613619Y-42576558D02*
X177477413Y-42226232D01*
X176613619Y-79146223D02*
X177477413Y-78795897D01*
X139258062Y-42576558D02*
X140121856Y-42226232D01*
X201336110Y-67363418D02*
X200827812Y-68224732D01*
X201336110Y-103933083D02*
X200827812Y-104794397D01*
X163980553Y-67363418D02*
X163472255Y-68224732D01*
X172899483Y-73395063D02*
X172246897Y-72870880D01*
X172899483Y-109964728D02*
X172246897Y-109440545D01*
X135543926Y-73395063D02*
X134891340Y-72870880D01*
X199695562Y-48226705D02*
X200377014Y-49201055D01*
X199695562Y-84796370D02*
X200377014Y-85770720D01*
X162340005Y-48226705D02*
X163021457Y-49201055D01*
X181366308Y-41222204D02*
X182450295Y-41088162D01*
X181366308Y-77791869D02*
X182450295Y-77657827D01*
X144010751Y-41222204D02*
X145094738Y-41088162D01*
X183362233Y-77031120D02*
X182140052Y-76941773D01*
X183362233Y-113600785D02*
X182140052Y-113511438D01*
X146006676Y-77031120D02*
X144784495Y-76941773D01*
X173597792Y-73901491D02*
X172899483Y-73395063D01*
X173597792Y-110471156D02*
X172899483Y-109964728D01*
X136242235Y-73901491D02*
X135543926Y-73395063D01*
X197938930Y-71814475D02*
X197372254Y-72345131D01*
X197938930Y-108384140D02*
X197372254Y-108914796D01*
X160583373Y-71814475D02*
X160016697Y-72345131D01*
X168857303Y-69070277D02*
X168231307Y-68072833D01*
X168857303Y-105639942D02*
X168231307Y-104642498D01*
X131501746Y-69070277D02*
X130875750Y-68072833D01*
X192190697Y-75604991D02*
X191265186Y-75956046D01*
X192190697Y-112174656D02*
X191265186Y-112525711D01*
X154835140Y-75604991D02*
X153909629Y-75956046D01*
X203021557Y-52653980D02*
X203008062Y-65296589D01*
X203021557Y-89223645D02*
X203008062Y-101866254D01*
X165666000Y-52653980D02*
X165652505Y-65296589D01*
X194940031Y-43807408D02*
X195615112Y-44257341D01*
X194940031Y-80377073D02*
X195615112Y-80827006D01*
X157584474Y-43807408D02*
X158259555Y-44257341D01*
X166924031Y-65330166D02*
X166687265Y-65326913D01*
X166924031Y-101899831D02*
X166687265Y-101896578D01*
X129568474Y-65330166D02*
X129331708Y-65326913D01*
X172911902Y-44747647D02*
X173572167Y-44269265D01*
X172911902Y-81317312D02*
X173572167Y-80838930D01*
X135556345Y-44747647D02*
X136216610Y-44269265D01*
X188063068Y-41249578D02*
X189073361Y-41437303D01*
X188063068Y-77819243D02*
X189073361Y-78006968D01*
X150707511Y-41249578D02*
X151717804Y-41437303D01*
X166956188Y-52685253D02*
X166956525Y-52684739D01*
X166956188Y-89254918D02*
X166956525Y-89254404D01*
X129600631Y-52685253D02*
X129600968Y-52684739D01*
X166954554Y-52691217D02*
X166954839Y-52689236D01*
X166954554Y-89260882D02*
X166954839Y-89258901D01*
X129598997Y-52691217D02*
X129599282Y-52689236D01*
X195615112Y-44257341D02*
X196251735Y-44725233D01*
X195615112Y-80827006D02*
X196251735Y-81294898D01*
X158259555Y-44257341D02*
X158896178Y-44725233D01*
X179333783Y-41637704D02*
X180327693Y-41406561D01*
X179333783Y-78207369D02*
X180327693Y-77976226D01*
X141978226Y-41637704D02*
X142972136Y-41406561D01*
X172290341Y-45241052D02*
X172911902Y-44747647D01*
X172290341Y-81810717D02*
X172911902Y-81317312D01*
X134934784Y-45241052D02*
X135556345Y-44747647D01*
X166452934Y-65325256D02*
X166166000Y-65324611D01*
X166452934Y-101894921D02*
X166166000Y-101894276D01*
X129097377Y-65325256D02*
X128810443Y-65324611D01*
X202181769Y-65586867D02*
X201980791Y-66075163D01*
X202181769Y-102156532D02*
X201980791Y-102644828D01*
X164826212Y-65586867D02*
X164625234Y-66075163D01*
X201706539Y-51659439D02*
X201931845Y-52236202D01*
X201706539Y-88229104D02*
X201931845Y-88805867D01*
X164350982Y-51659439D02*
X164576288Y-52236202D01*
X198884769Y-47218815D02*
X199695562Y-48226705D01*
X198884769Y-83788480D02*
X199695562Y-84796370D01*
X161529212Y-47218815D02*
X162340005Y-48226705D01*
X166954839Y-52689236D02*
X166955103Y-52687821D01*
X166954839Y-89258901D02*
X166955103Y-89257486D01*
X129599282Y-52689236D02*
X129599546Y-52687821D01*
X174343037Y-74385809D02*
X173597792Y-73901491D01*
X174343037Y-110955474D02*
X173597792Y-110471156D01*
X136987480Y-74385809D02*
X136242235Y-73901491D01*
X183580321Y-41007965D02*
X184757052Y-40985141D01*
X183580321Y-77577630D02*
X184757052Y-77554806D01*
X146224764Y-41007965D02*
X147401495Y-40985141D01*
X197372254Y-72345131D02*
X196764149Y-72867826D01*
X197372254Y-108914796D02*
X196764149Y-109437491D01*
X160016697Y-72345131D02*
X159408592Y-72867826D01*
X166955616Y-52686177D02*
X166955889Y-52685690D01*
X166955616Y-89255842D02*
X166955889Y-89255355D01*
X129600059Y-52686177D02*
X129600332Y-52685690D01*
X166687265Y-65326913D02*
X166452934Y-65325256D01*
X166687265Y-101896578D02*
X166452934Y-101894921D01*
X129331708Y-65326913D02*
X129097377Y-65325256D01*
X202058420Y-52647709D02*
X203021557Y-52653980D01*
X202058420Y-89217374D02*
X203021557Y-89223645D01*
X164702863Y-52647709D02*
X165666000Y-52653980D01*
X178383912Y-41912104D02*
X179333783Y-41637704D01*
X178383912Y-78481769D02*
X179333783Y-78207369D01*
X141028355Y-41912104D02*
X141978226Y-41637704D01*
X191839824Y-42253112D02*
X192676389Y-42598284D01*
X191839824Y-78822777D02*
X192676389Y-79167949D01*
X154484267Y-42253112D02*
X155320832Y-42598284D01*
X190039075Y-41669328D02*
X190960974Y-41942363D01*
X190039075Y-78238993D02*
X190960974Y-78512028D01*
X152683518Y-41669328D02*
X153605417Y-41942363D01*
X191265186Y-75956046D02*
X190290417Y-76266020D01*
X191265186Y-112525711D02*
X190290417Y-112835685D01*
X153909629Y-75956046D02*
X152934860Y-76266020D01*
X190960974Y-41942363D02*
X191839824Y-42253112D01*
X190960974Y-78512028D02*
X191839824Y-78822777D01*
X153605417Y-41942363D02*
X154484267Y-42253112D01*
X167607997Y-51049129D02*
X168056886Y-50224979D01*
X167607997Y-87618794D02*
X168056886Y-86794644D01*
X130252440Y-51049129D02*
X130701329Y-50224979D01*
X195419735Y-73872775D02*
X194681470Y-74346749D01*
X195419735Y-110442440D02*
X194681470Y-110916414D01*
X158064178Y-73872775D02*
X157325913Y-74346749D01*
X192676389Y-42598284D02*
X193471435Y-42974586D01*
X192676389Y-79167949D02*
X193471435Y-79544251D01*
X155320832Y-42598284D02*
X156115878Y-42974586D01*
X177477413Y-42226232D02*
X178383912Y-41912104D01*
X177477413Y-78795897D02*
X178383912Y-78481769D01*
X140121856Y-42226232D02*
X141028355Y-41912104D01*
X200185105Y-69186680D02*
X199400162Y-70216141D01*
X200185105Y-105756345D02*
X199400162Y-106785806D01*
X162829548Y-69186680D02*
X162044605Y-70216141D01*
X193067929Y-75216997D02*
X192190697Y-75604991D01*
X193067929Y-111786662D02*
X192190697Y-112174656D01*
X155712372Y-75216997D02*
X154835140Y-75604991D01*
X200377014Y-49201055D02*
X200935246Y-50115523D01*
X200377014Y-85770720D02*
X200935246Y-86685188D01*
X163021457Y-49201055D02*
X163579689Y-50115523D01*
X166959195Y-52676477D02*
X166960007Y-52672784D01*
X166959195Y-89246142D02*
X166960007Y-89242449D01*
X129603638Y-52676477D02*
X129604450Y-52672784D01*
X196850666Y-45207791D02*
X197938511Y-46203730D01*
X196850666Y-81777456D02*
X197938511Y-82773395D01*
X159495109Y-45207791D02*
X160582954Y-46203730D01*
X180327693Y-41406561D02*
X181366308Y-41222204D01*
X180327693Y-77976226D02*
X181366308Y-77791869D01*
X142972136Y-41406561D02*
X144010751Y-41222204D01*
X168056886Y-50224979D02*
X168631264Y-49305639D01*
X168056886Y-86794644D02*
X168631264Y-85875304D01*
X130701329Y-50224979D02*
X131275707Y-49305639D01*
X187007428Y-41109448D02*
X188063068Y-41249578D01*
X187007428Y-77679113D02*
X188063068Y-77819243D01*
X149651871Y-41109448D02*
X150707511Y-41249578D01*
X200935246Y-50115523D02*
X201376380Y-50943765D01*
X200935246Y-86685188D02*
X201376380Y-87513430D01*
X163579689Y-50115523D02*
X164020823Y-50943765D01*
X193897860Y-74796203D02*
X193067929Y-75216997D01*
X193897860Y-111365868D02*
X193067929Y-111786662D01*
X156542303Y-74796203D02*
X155712372Y-75216997D01*
X189073361Y-41437303D02*
X190039075Y-41669328D01*
X189073361Y-78006968D02*
X190039075Y-78238993D01*
X151717804Y-41437303D02*
X152683518Y-41669328D01*
X170177824Y-47294324D02*
X170651228Y-46776117D01*
X170177824Y-83863989D02*
X170651228Y-83345782D01*
X132822267Y-47294324D02*
X133295671Y-46776117D01*
X200827812Y-68224732D02*
X200185105Y-69186680D01*
X200827812Y-104794397D02*
X200185105Y-105756345D01*
X163472255Y-68224732D02*
X162829548Y-69186680D01*
X166957883Y-52681436D02*
X166958491Y-52679318D01*
X166957883Y-89251101D02*
X166958491Y-89248983D01*
X129602326Y-52681436D02*
X129602934Y-52679318D01*
X190290417Y-76266020D02*
X189265412Y-76530776D01*
X190290417Y-112835685D02*
X189265412Y-113100441D01*
X152934860Y-76266020D02*
X151909855Y-76530776D01*
X168231307Y-68072833D02*
X167739748Y-67178572D01*
X168231307Y-104642498D02*
X167739748Y-103748237D01*
X130875750Y-68072833D02*
X130384191Y-67178572D01*
X199400162Y-70216141D02*
X198951905Y-70745840D01*
X199400162Y-106785806D02*
X198951905Y-107315505D01*
X162044605Y-70216141D02*
X161596348Y-70745840D01*
X166954237Y-52693895D02*
X166954554Y-52691217D01*
X166954237Y-89263560D02*
X166954554Y-89260882D01*
X129598680Y-52693895D02*
X129598997Y-52691217D01*
X196764149Y-72867826D02*
X196113636Y-73378421D01*
X196764149Y-109437491D02*
X196113636Y-109948086D01*
X159408592Y-72867826D02*
X158758079Y-73378421D01*
X196113636Y-73378421D02*
X195419735Y-73872775D01*
X196113636Y-109948086D02*
X195419735Y-110442440D01*
X158758079Y-73378421D02*
X158064178Y-73872775D01*
X188189193Y-76746172D02*
X187060781Y-76908069D01*
X188189193Y-113315837D02*
X187060781Y-113477734D01*
X150833636Y-76746172D02*
X149705224Y-76908069D01*
X166176557Y-52695335D02*
X166546702Y-52698034D01*
X166176557Y-89265000D02*
X166546702Y-89267699D01*
X128821000Y-52695335D02*
X129191145Y-52698034D01*
X166955358Y-52686845D02*
X166955616Y-52686177D01*
X166955358Y-89256510D02*
X166955616Y-89255842D01*
X129599801Y-52686845D02*
X129600059Y-52686177D01*
X168631264Y-49305639D02*
X169336466Y-48319343D01*
X168631264Y-85875304D02*
X169336466Y-84889008D01*
X131275707Y-49305639D02*
X131980909Y-48319343D01*
X171638824Y-72333296D02*
X170551369Y-71235349D01*
X171638824Y-108902961D02*
X170551369Y-107805014D01*
X134283267Y-72333296D02*
X133195812Y-71235349D01*
X201980791Y-66075163D02*
X201717828Y-66635855D01*
X201980791Y-102644828D02*
X201717828Y-103205520D01*
X164625234Y-66075163D02*
X164362271Y-66635855D01*
X166955103Y-52687821D02*
X166955358Y-52686845D01*
X166955103Y-89257486D02*
X166955358Y-89256510D01*
X129599546Y-52687821D02*
X129599801Y-52686845D01*
X173572167Y-44269265D02*
X174271805Y-43809436D01*
X173572167Y-80838930D02*
X174271805Y-80379101D01*
X136216610Y-44269265D02*
X136916248Y-43809436D01*
X166958491Y-52679318D02*
X166959195Y-52676477D01*
X166958491Y-89248983D02*
X166959195Y-89246142D01*
X129602934Y-52679318D02*
X129603638Y-52676477D01*
X185905678Y-41020205D02*
X187007428Y-41109448D01*
X185905678Y-77589870D02*
X187007428Y-77679113D01*
X148550121Y-41020205D02*
X149651871Y-41109448D01*
X196251735Y-44725233D02*
X196850666Y-45207791D01*
X196251735Y-81294898D02*
X196850666Y-81777456D01*
X158896178Y-44725233D02*
X159495109Y-45207791D01*
X175979180Y-75270694D02*
X175136429Y-74843662D01*
X175979180Y-111840359D02*
X175136429Y-111413327D01*
X138623623Y-75270694D02*
X137780872Y-74843662D01*
X182450295Y-41088162D02*
X183580321Y-41007965D01*
X182450295Y-77657827D02*
X183580321Y-77577630D01*
X145094738Y-41088162D02*
X146224764Y-41007965D01*
X178815696Y-76323317D02*
X177817602Y-76014877D01*
X178815696Y-112892982D02*
X177817602Y-112584542D01*
X141460139Y-76323317D02*
X140462045Y-76014877D01*
X166957361Y-52682959D02*
X166957883Y-52681436D01*
X166957361Y-89252624D02*
X166957883Y-89251101D01*
X129601804Y-52682959D02*
X129602326Y-52681436D01*
X176872500Y-75662551D02*
X175979180Y-75270694D01*
X176872500Y-112232216D02*
X175979180Y-111840359D01*
X139516943Y-75662551D02*
X138623623Y-75270694D01*
X187060781Y-76908069D02*
X185879198Y-77012327D01*
X187060781Y-113477734D02*
X185879198Y-113581992D01*
X149705224Y-76908069D02*
X148523641Y-77012327D01*
X175136429Y-74843662D02*
X174343037Y-74385809D01*
X175136429Y-111413327D02*
X174343037Y-110955474D01*
X137780872Y-74843662D02*
X136987480Y-74385809D01*
X202274638Y-65308180D02*
X202181769Y-65586867D01*
X202274638Y-101877845D02*
X202181769Y-102156532D01*
X164919081Y-65308180D02*
X164826212Y-65586867D01*
X177817602Y-76014877D02*
X176872500Y-75662551D01*
X177817602Y-112584542D02*
X176872500Y-112232216D01*
X140462045Y-76014877D02*
X139516943Y-75662551D01*
X166953876Y-52697399D02*
X166954237Y-52693895D01*
X166953876Y-89267064D02*
X166954237Y-89263560D01*
X129598319Y-52697399D02*
X129598680Y-52693895D01*
X166956525Y-52684739D02*
X166956912Y-52684017D01*
X166956525Y-89254404D02*
X166956912Y-89253682D01*
X129600968Y-52684739D02*
X129601355Y-52684017D01*
X194681470Y-74346749D02*
X193897860Y-74796203D01*
X194681470Y-110916414D02*
X193897860Y-111365868D01*
X157325913Y-74346749D02*
X156542303Y-74796203D01*
X198465154Y-71279998D02*
X197938930Y-71814475D01*
X198465154Y-107849663D02*
X197938930Y-108384140D01*
X161109597Y-71279998D02*
X160583373Y-71814475D01*
X184757052Y-40985141D02*
X185905678Y-41020205D01*
X184757052Y-77554806D02*
X185905678Y-77589870D01*
X147401495Y-40985141D02*
X148550121Y-41020205D01*
X170551369Y-71235349D02*
X169627426Y-70136062D01*
X170551369Y-107805014D02*
X169627426Y-106705727D01*
X133195812Y-71235349D02*
X132271869Y-70136062D01*
X174271805Y-43809436D02*
X175011482Y-43371689D01*
X174271805Y-80379101D02*
X175011482Y-79941354D01*
X136916248Y-43809436D02*
X137655925Y-43371689D01*
X203008062Y-65296589D02*
X202274638Y-65308180D01*
X203008062Y-101866254D02*
X202274638Y-101877845D01*
X165652505Y-65296589D02*
X164919081Y-65308180D01*
X167065358Y-52298927D02*
X167279266Y-51749856D01*
X167065358Y-88868592D02*
X167279266Y-88319521D01*
X129709801Y-52298927D02*
X129923709Y-51749856D01*
X169627426Y-70136062D02*
X168857303Y-69070277D01*
X169627426Y-106705727D02*
X168857303Y-105639942D01*
X132271869Y-70136062D02*
X131501746Y-69070277D01*
X179867995Y-76583517D02*
X178815696Y-76323317D01*
X179867995Y-113153182D02*
X178815696Y-112892982D01*
X142512438Y-76583517D02*
X141460139Y-76323317D01*
X194225727Y-43378725D02*
X194940031Y-43807408D01*
X194225727Y-79948390D02*
X194940031Y-80377073D01*
X156870170Y-43378725D02*
X157584474Y-43807408D01*
X171160671Y-46258816D02*
X171706820Y-45745951D01*
X171160671Y-82828481D02*
X171706820Y-82315616D01*
X133805114Y-46258816D02*
X134351263Y-45745951D01*
X166960940Y-52668109D02*
X167065358Y-52298927D01*
X166960940Y-89237774D02*
X167065358Y-88868592D01*
X129605383Y-52668109D02*
X129709801Y-52298927D01*
X189265412Y-76530776D02*
X188189193Y-76746172D01*
X189265412Y-113100441D02*
X188189193Y-113315837D01*
X151909855Y-76530776D02*
X150833636Y-76746172D01*
X167121169Y-65838960D02*
X166924031Y-65330166D01*
X167121169Y-102408625D02*
X166924031Y-101899831D01*
X129765612Y-65838960D02*
X129568474Y-65330166D01*
X166166000Y-65324611D02*
X166176557Y-52695335D01*
X166166000Y-101894276D02*
X166176557Y-89265000D01*
X128810443Y-65324611D02*
X128821000Y-52695335D01*
X201376380Y-50943765D02*
X201706539Y-51659439D01*
X201376380Y-87513430D02*
X201706539Y-88229104D01*
X164020823Y-50943765D02*
X164350982Y-51659439D01*
X201931845Y-52236202D02*
X202058420Y-52647709D01*
X201931845Y-88805867D02*
X202058420Y-89217374D01*
X164576288Y-52236202D02*
X164702863Y-52647709D01*
X175791865Y-42959554D02*
X176613619Y-42576558D01*
X175791865Y-79529219D02*
X176613619Y-79146223D01*
X138436308Y-42959554D02*
X139258062Y-42576558D01*
X166956912Y-52684017D02*
X166957361Y-52682959D01*
X166956912Y-89253682D02*
X166957361Y-89252624D01*
X129601355Y-52684017D02*
X129601804Y-52682959D01*
X193471435Y-42974586D02*
X194225727Y-43378725D01*
X193471435Y-79544251D02*
X194225727Y-79948390D01*
X156115878Y-42974586D02*
X156870170Y-43378725D01*
X182140052Y-76941773D02*
X180975710Y-76791120D01*
X182140052Y-113511438D02*
X180975710Y-113360785D01*
X144784495Y-76941773D02*
X143620153Y-76791120D01*
X171706820Y-45745951D02*
X172290341Y-45241052D01*
X171706820Y-82315616D02*
X172290341Y-81810717D01*
X134351263Y-45745951D02*
X134934784Y-45241052D01*
X170651228Y-46776117D02*
X171160671Y-46258816D01*
X170651228Y-83345782D02*
X171160671Y-82828481D01*
X133295671Y-46776117D02*
X133805114Y-46258816D01*
X175011482Y-43371689D02*
X175791865Y-42959554D01*
X175011482Y-79941354D02*
X175791865Y-79529219D01*
X137655925Y-43371689D02*
X138436308Y-42959554D01*
X167279266Y-51749856D02*
X167607997Y-51049129D01*
X167279266Y-88319521D02*
X167607997Y-87618794D01*
X129923709Y-51749856D02*
X130252440Y-51049129D01*
X166546702Y-52698034D02*
X166811591Y-52698951D01*
X166546702Y-89267699D02*
X166811591Y-89268616D01*
X129191145Y-52698034D02*
X129456034Y-52698951D01*
X169336466Y-48319343D02*
X170177824Y-47294324D01*
X169336466Y-84889008D02*
X170177824Y-83863989D01*
X131980909Y-48319343D02*
X132822267Y-47294324D01*
X184643465Y-77054806D02*
X183362233Y-77031120D01*
X184643465Y-113624471D02*
X183362233Y-113600785D01*
X147287908Y-77054806D02*
X146006676Y-77031120D01*
X166960007Y-52672784D02*
X166960940Y-52668109D01*
X166960007Y-89242449D02*
X166960940Y-89237774D01*
X129604450Y-52672784D02*
X129605383Y-52668109D01*
X167739748Y-67178572D02*
X167121169Y-65838960D01*
X167739748Y-103748237D02*
X167121169Y-102408625D01*
X130384191Y-67178572D02*
X129765612Y-65838960D01*
X197938511Y-46203730D02*
X198884769Y-47218815D01*
X197938511Y-82773395D02*
X198884769Y-83788480D01*
X160582954Y-46203730D02*
X161529212Y-47218815D01*
X172246897Y-72870880D02*
X171638824Y-72333296D01*
X172246897Y-109440545D02*
X171638824Y-108902961D01*
X134891340Y-72870880D02*
X134283267Y-72333296D01*
X201717828Y-66635855D02*
X201336110Y-67363418D01*
X201717828Y-103205520D02*
X201336110Y-103933083D01*
X164362271Y-66635855D02*
X163980553Y-67363418D01*
X198951905Y-70745840D02*
X198465154Y-71279998D01*
X198951905Y-107315505D02*
X198465154Y-107849663D01*
X161596348Y-70745840D02*
X161109597Y-71279998D01*
X185879198Y-77012327D02*
X184643465Y-77054806D01*
X185879198Y-113581992D02*
X184643465Y-113624471D01*
X148523641Y-77012327D02*
X147287908Y-77054806D01*
X166955889Y-52685690D02*
X166956188Y-52685253D01*
X166955889Y-89255355D02*
X166956188Y-89254918D01*
X129600332Y-52685690D02*
X129600631Y-52685253D01*
X129600332Y-89255355D02*
X129600631Y-89254918D01*
X148523641Y-113581992D02*
X147287908Y-113624471D01*
X161596348Y-107315505D02*
X161109597Y-107849663D01*
X164362271Y-103205520D02*
X163980553Y-103933083D01*
X134891340Y-109440545D02*
X134283267Y-108902961D01*
X160582954Y-82773395D02*
X161529212Y-83788480D01*
X130384191Y-103748237D02*
X129765612Y-102408625D01*
X129604450Y-89242449D02*
X129605383Y-89237774D01*
X147287908Y-113624471D02*
X146006676Y-113600785D01*
X131980909Y-84889008D02*
X132822267Y-83863989D01*
X129191145Y-89267699D02*
X129456034Y-89268616D01*
X129923709Y-88319521D02*
X130252440Y-87618794D01*
X137655925Y-79941354D02*
X138436308Y-79529219D01*
X133295671Y-83345782D02*
X133805114Y-82828481D01*
X134351263Y-82315616D02*
X134934784Y-81810717D01*
X144784495Y-113511438D02*
X143620153Y-113360785D01*
X156115878Y-79544251D02*
X156870170Y-79948390D01*
X129601355Y-89253682D02*
X129601804Y-89252624D01*
X138436308Y-79529219D02*
X139258062Y-79146223D01*
X164576288Y-88805867D02*
X164702863Y-89217374D01*
X164020823Y-87513430D02*
X164350982Y-88229104D01*
X128810443Y-101894276D02*
X128821000Y-89265000D01*
X129765612Y-102408625D02*
X129568474Y-101899831D01*
X151909855Y-113100441D02*
X150833636Y-113315837D01*
X129605383Y-89237774D02*
X129709801Y-88868592D01*
X133805114Y-82828481D02*
X134351263Y-82315616D01*
X156870170Y-79948390D02*
X157584474Y-80377073D01*
X142512438Y-113153182D02*
X141460139Y-112892982D01*
X132271869Y-106705727D02*
X131501746Y-105639942D01*
X129709801Y-88868592D02*
X129923709Y-88319521D01*
X165652505Y-101866254D02*
X164919081Y-101877845D01*
X136916248Y-80379101D02*
X137655925Y-79941354D01*
X133195812Y-107805014D02*
X132271869Y-106705727D01*
X147401495Y-77554806D02*
X148550121Y-77589870D01*
X161109597Y-107849663D02*
X160583373Y-108384140D01*
X157325913Y-110916414D02*
X156542303Y-111365868D01*
X129600968Y-89254404D02*
X129601355Y-89253682D01*
X129598319Y-89267064D02*
X129598680Y-89263560D01*
X140462045Y-112584542D02*
X139516943Y-112232216D01*
X164919081Y-101877845D02*
X164826212Y-102156532D01*
X137780872Y-111413327D02*
X136987480Y-110955474D01*
X149705224Y-113477734D02*
X148523641Y-113581992D01*
X139516943Y-112232216D02*
X138623623Y-111840359D01*
X129601804Y-89252624D02*
X129602326Y-89251101D01*
X141460139Y-112892982D02*
X140462045Y-112584542D01*
X145094738Y-77657827D02*
X146224764Y-77577630D01*
X138623623Y-111840359D02*
X137780872Y-111413327D01*
X158896178Y-81294898D02*
X159495109Y-81777456D01*
X148550121Y-77589870D02*
X149651871Y-77679113D01*
X129602934Y-89248983D02*
X129603638Y-89246142D01*
X136216610Y-80838930D02*
X136916248Y-80379101D01*
X129599546Y-89257486D02*
X129599801Y-89256510D01*
X164625234Y-102644828D02*
X164362271Y-103205520D01*
X134283267Y-108902961D02*
X133195812Y-107805014D01*
X131275707Y-85875304D02*
X131980909Y-84889008D01*
X129599801Y-89256510D02*
X129600059Y-89255842D01*
X128821000Y-89265000D02*
X129191145Y-89267699D01*
X150833636Y-113315837D02*
X149705224Y-113477734D01*
X158758079Y-109948086D02*
X158064178Y-110442440D01*
X159408592Y-109437491D02*
X158758079Y-109948086D01*
X129598680Y-89263560D02*
X129598997Y-89260882D01*
X162044605Y-106785806D02*
X161596348Y-107315505D01*
X130875750Y-104642498D02*
X130384191Y-103748237D01*
X152934860Y-112835685D02*
X151909855Y-113100441D01*
X129602326Y-89251101D02*
X129602934Y-89248983D01*
X163472255Y-104794397D02*
X162829548Y-105756345D01*
X132822267Y-83863989D02*
X133295671Y-83345782D01*
X151717804Y-78006968D02*
X152683518Y-78238993D01*
X156542303Y-111365868D02*
X155712372Y-111786662D01*
X163579689Y-86685188D02*
X164020823Y-87513430D01*
X149651871Y-77679113D02*
X150707511Y-77819243D01*
X130701329Y-86794644D02*
X131275707Y-85875304D01*
X142972136Y-77976226D02*
X144010751Y-77791869D01*
X159495109Y-81777456D02*
X160582954Y-82773395D01*
X129603638Y-89246142D02*
X129604450Y-89242449D01*
X163021457Y-85770720D02*
X163579689Y-86685188D01*
X155712372Y-111786662D02*
X154835140Y-112174656D01*
X162829548Y-105756345D02*
X162044605Y-106785806D01*
X140121856Y-78795897D02*
X141028355Y-78481769D01*
X155320832Y-79167949D02*
X156115878Y-79544251D01*
X158064178Y-110442440D02*
X157325913Y-110916414D01*
X130252440Y-87618794D02*
X130701329Y-86794644D01*
X153605417Y-78512028D02*
X154484267Y-78822777D01*
X153909629Y-112525711D02*
X152934860Y-112835685D01*
X152683518Y-78238993D02*
X153605417Y-78512028D01*
X154484267Y-78822777D02*
X155320832Y-79167949D01*
X141028355Y-78481769D02*
X141978226Y-78207369D01*
X164702863Y-89217374D02*
X165666000Y-89223645D01*
X129331708Y-101896578D02*
X129097377Y-101894921D01*
X129600059Y-89255842D02*
X129600332Y-89255355D01*
X160016697Y-108914796D02*
X159408592Y-109437491D01*
X146224764Y-77577630D02*
X147401495Y-77554806D01*
X136987480Y-110955474D02*
X136242235Y-110471156D01*
X129599282Y-89258901D02*
X129599546Y-89257486D01*
X161529212Y-83788480D02*
X162340005Y-84796370D01*
X164350982Y-88229104D02*
X164576288Y-88805867D01*
X164826212Y-102156532D02*
X164625234Y-102644828D01*
X129097377Y-101894921D02*
X128810443Y-101894276D01*
X134934784Y-81810717D02*
X135556345Y-81317312D01*
X141978226Y-78207369D02*
X142972136Y-77976226D01*
X158259555Y-80827006D02*
X158896178Y-81294898D01*
X129598997Y-89260882D02*
X129599282Y-89258901D01*
X129600631Y-89254918D02*
X129600968Y-89254404D01*
X150707511Y-77819243D02*
X151717804Y-78006968D01*
X135556345Y-81317312D02*
X136216610Y-80838930D01*
X129568474Y-101899831D02*
X129331708Y-101896578D01*
X157584474Y-80377073D02*
X158259555Y-80827006D01*
X165666000Y-89223645D02*
X165652505Y-101866254D01*
X154835140Y-112174656D02*
X153909629Y-112525711D01*
X131501746Y-105639942D02*
X130875750Y-104642498D01*
X160583373Y-108384140D02*
X160016697Y-108914796D01*
X136242235Y-110471156D02*
X135543926Y-109964728D01*
X146006676Y-113600785D02*
X144784495Y-113511438D01*
X144010751Y-77791869D02*
X145094738Y-77657827D01*
X162340005Y-84796370D02*
X163021457Y-85770720D01*
X135543926Y-109964728D02*
X134891340Y-109440545D01*
X163980553Y-103933083D02*
X163472255Y-104794397D01*
X139258062Y-79146223D02*
X140121856Y-78795897D01*
X129456034Y-89268616D02*
X129598319Y-89267064D01*
X143620153Y-113360785D02*
X142512438Y-113153182D01*
M02*
