%TF.GenerationSoftware,KiCad,Pcbnew,8.0.4*%
%TF.CreationDate,2024-08-25T23:20:03-07:00*%
%TF.ProjectId,HackthePlanetPin_panelized,4861636b-7468-4655-906c-616e65745069,rev?*%
%TF.SameCoordinates,Original*%
%TF.FileFunction,Copper,L1,Top*%
%TF.FilePolarity,Positive*%
%FSLAX46Y46*%
G04 Gerber Fmt 4.6, Leading zero omitted, Abs format (unit mm)*
G04 Created by KiCad (PCBNEW 8.0.4) date 2024-08-25 23:20:03*
%MOMM*%
%LPD*%
G01*
G04 APERTURE LIST*
%TA.AperFunction,NonConductor*%
%ADD10C,0.000000*%
%TD*%
G04 APERTURE END LIST*
D10*
%TA.AperFunction,NonConductor*%
G36*
X185875204Y-41021374D02*
G01*
X186976954Y-41110617D01*
X188032594Y-41250747D01*
X189042887Y-41438472D01*
X190008601Y-41670497D01*
X190930500Y-41943532D01*
X191809350Y-42254281D01*
X192645915Y-42599453D01*
X193440961Y-42975755D01*
X194195253Y-43379894D01*
X194909557Y-43808577D01*
X195584638Y-44258510D01*
X196221261Y-44726402D01*
X196820192Y-45208960D01*
X197908037Y-46204899D01*
X198854295Y-47219985D01*
X199665088Y-48227874D01*
X200346540Y-49202224D01*
X200904772Y-50116692D01*
X201345906Y-50944934D01*
X201676065Y-51660608D01*
X201901371Y-52237371D01*
X202027946Y-52648878D01*
X202991083Y-52655149D01*
X202977588Y-65297758D01*
X202244164Y-65309349D01*
X202151295Y-65588036D01*
X201950317Y-66076332D01*
X201687354Y-66637024D01*
X201305636Y-67364587D01*
X200797338Y-68225901D01*
X200154631Y-69187849D01*
X199369688Y-70217310D01*
X198921431Y-70747009D01*
X198434680Y-71281167D01*
X197908456Y-71815644D01*
X197341780Y-72346300D01*
X196733675Y-72868995D01*
X196083162Y-73379590D01*
X195389261Y-73873944D01*
X194650996Y-74347918D01*
X193867386Y-74797372D01*
X193037455Y-75218166D01*
X192160223Y-75606160D01*
X191234712Y-75957215D01*
X190259943Y-76267189D01*
X189234938Y-76531945D01*
X188158719Y-76747341D01*
X187030307Y-76909238D01*
X185848724Y-77013496D01*
X184612991Y-77055975D01*
X183331759Y-77032289D01*
X182109578Y-76942942D01*
X180945236Y-76792289D01*
X179837521Y-76584686D01*
X178785222Y-76324486D01*
X177787127Y-76016046D01*
X176842026Y-75663720D01*
X175948706Y-75271863D01*
X175105955Y-74844831D01*
X174312563Y-74386978D01*
X173567318Y-73902660D01*
X172869009Y-73396232D01*
X172216423Y-72872049D01*
X171608350Y-72334465D01*
X170520895Y-71236518D01*
X169596952Y-70137231D01*
X168826829Y-69071446D01*
X168200833Y-68074002D01*
X167709274Y-67179741D01*
X167090695Y-65840129D01*
X166893557Y-65331335D01*
X166656791Y-65328082D01*
X166422460Y-65326425D01*
X166135526Y-65325780D01*
X166146083Y-52696504D01*
X166516228Y-52699203D01*
X166781117Y-52700120D01*
X166923402Y-52698568D01*
X166923763Y-52695064D01*
X166924080Y-52692386D01*
X166924365Y-52690405D01*
X166924629Y-52688990D01*
X166924884Y-52688014D01*
X166925142Y-52687346D01*
X166925415Y-52686859D01*
X166925714Y-52686422D01*
X166926051Y-52685908D01*
X166926438Y-52685186D01*
X166926887Y-52684128D01*
X166927409Y-52682605D01*
X166928017Y-52680487D01*
X166928721Y-52677646D01*
X166929533Y-52673953D01*
X166930466Y-52669278D01*
X167034884Y-52300096D01*
X167248792Y-51751025D01*
X167577523Y-51050298D01*
X168026412Y-50226148D01*
X168600790Y-49306808D01*
X169305992Y-48320512D01*
X170147350Y-47295493D01*
X170620754Y-46777286D01*
X171130197Y-46259985D01*
X171676346Y-45747120D01*
X172259867Y-45242221D01*
X172881428Y-44748816D01*
X173541693Y-44270434D01*
X174241331Y-43810605D01*
X174981008Y-43372858D01*
X175761391Y-42960723D01*
X176583145Y-42577727D01*
X177446939Y-42227401D01*
X178353438Y-41913273D01*
X179303309Y-41638873D01*
X180297219Y-41407730D01*
X181335834Y-41223373D01*
X182419821Y-41089331D01*
X183549847Y-41009134D01*
X184726578Y-40986310D01*
X185875204Y-41021374D01*
G37*
%TD.AperFunction*%
%TA.AperFunction,NonConductor*%
G36*
X185875204Y-77591039D02*
G01*
X186976954Y-77680282D01*
X188032594Y-77820412D01*
X189042887Y-78008137D01*
X190008601Y-78240162D01*
X190930500Y-78513197D01*
X191809350Y-78823946D01*
X192645915Y-79169118D01*
X193440961Y-79545420D01*
X194195253Y-79949559D01*
X194909557Y-80378242D01*
X195584638Y-80828175D01*
X196221261Y-81296067D01*
X196820192Y-81778625D01*
X197908037Y-82774564D01*
X198854295Y-83789650D01*
X199665088Y-84797539D01*
X200346540Y-85771889D01*
X200904772Y-86686357D01*
X201345906Y-87514599D01*
X201676065Y-88230273D01*
X201901371Y-88807036D01*
X202027946Y-89218543D01*
X202991083Y-89224814D01*
X202977588Y-101867423D01*
X202244164Y-101879014D01*
X202151295Y-102157701D01*
X201950317Y-102645997D01*
X201687354Y-103206689D01*
X201305636Y-103934252D01*
X200797338Y-104795566D01*
X200154631Y-105757514D01*
X199369688Y-106786975D01*
X198921431Y-107316674D01*
X198434680Y-107850832D01*
X197908456Y-108385309D01*
X197341780Y-108915965D01*
X196733675Y-109438660D01*
X196083162Y-109949255D01*
X195389261Y-110443609D01*
X194650996Y-110917583D01*
X193867386Y-111367037D01*
X193037455Y-111787831D01*
X192160223Y-112175825D01*
X191234712Y-112526880D01*
X190259943Y-112836854D01*
X189234938Y-113101610D01*
X188158719Y-113317006D01*
X187030307Y-113478903D01*
X185848724Y-113583161D01*
X184612991Y-113625640D01*
X183331759Y-113601954D01*
X182109578Y-113512607D01*
X180945236Y-113361954D01*
X179837521Y-113154351D01*
X178785222Y-112894151D01*
X177787127Y-112585711D01*
X176842026Y-112233385D01*
X175948706Y-111841528D01*
X175105955Y-111414496D01*
X174312563Y-110956643D01*
X173567318Y-110472325D01*
X172869009Y-109965897D01*
X172216423Y-109441714D01*
X171608350Y-108904130D01*
X170520895Y-107806183D01*
X169596952Y-106706896D01*
X168826829Y-105641111D01*
X168200833Y-104643667D01*
X167709274Y-103749406D01*
X167090695Y-102409794D01*
X166893557Y-101901000D01*
X166656791Y-101897747D01*
X166422460Y-101896090D01*
X166135526Y-101895445D01*
X166146083Y-89266169D01*
X166516228Y-89268868D01*
X166781117Y-89269785D01*
X166923402Y-89268233D01*
X166923763Y-89264729D01*
X166924080Y-89262051D01*
X166924365Y-89260070D01*
X166924629Y-89258655D01*
X166924884Y-89257679D01*
X166925142Y-89257011D01*
X166925415Y-89256524D01*
X166925714Y-89256087D01*
X166926051Y-89255573D01*
X166926438Y-89254851D01*
X166926887Y-89253793D01*
X166927409Y-89252270D01*
X166928017Y-89250152D01*
X166928721Y-89247311D01*
X166929533Y-89243618D01*
X166930466Y-89238943D01*
X167034884Y-88869761D01*
X167248792Y-88320690D01*
X167577523Y-87619963D01*
X168026412Y-86795813D01*
X168600790Y-85876473D01*
X169305992Y-84890177D01*
X170147350Y-83865158D01*
X170620754Y-83346951D01*
X171130197Y-82829650D01*
X171676346Y-82316785D01*
X172259867Y-81811886D01*
X172881428Y-81318481D01*
X173541693Y-80840099D01*
X174241331Y-80380270D01*
X174981008Y-79942523D01*
X175761391Y-79530388D01*
X176583145Y-79147392D01*
X177446939Y-78797066D01*
X178353438Y-78482938D01*
X179303309Y-78208538D01*
X180297219Y-77977395D01*
X181335834Y-77793038D01*
X182419821Y-77658996D01*
X183549847Y-77578799D01*
X184726578Y-77555975D01*
X185875204Y-77591039D01*
G37*
%TD.AperFunction*%
%TA.AperFunction,NonConductor*%
G36*
X148519647Y-41021374D02*
G01*
X149621397Y-41110617D01*
X150677037Y-41250747D01*
X151687330Y-41438472D01*
X152653044Y-41670497D01*
X153574943Y-41943532D01*
X154453793Y-42254281D01*
X155290358Y-42599453D01*
X156085404Y-42975755D01*
X156839696Y-43379894D01*
X157554000Y-43808577D01*
X158229081Y-44258510D01*
X158865704Y-44726402D01*
X159464635Y-45208960D01*
X160552480Y-46204899D01*
X161498738Y-47219985D01*
X162309531Y-48227874D01*
X162990983Y-49202224D01*
X163549215Y-50116692D01*
X163990349Y-50944934D01*
X164320508Y-51660608D01*
X164545814Y-52237371D01*
X164672389Y-52648878D01*
X165635526Y-52655149D01*
X165622031Y-65297758D01*
X164888607Y-65309349D01*
X164795738Y-65588036D01*
X164594760Y-66076332D01*
X164331797Y-66637024D01*
X163950079Y-67364587D01*
X163441781Y-68225901D01*
X162799074Y-69187849D01*
X162014131Y-70217310D01*
X161565874Y-70747009D01*
X161079123Y-71281167D01*
X160552899Y-71815644D01*
X159986223Y-72346300D01*
X159378118Y-72868995D01*
X158727605Y-73379590D01*
X158033704Y-73873944D01*
X157295439Y-74347918D01*
X156511829Y-74797372D01*
X155681898Y-75218166D01*
X154804666Y-75606160D01*
X153879155Y-75957215D01*
X152904386Y-76267189D01*
X151879381Y-76531945D01*
X150803162Y-76747341D01*
X149674750Y-76909238D01*
X148493167Y-77013496D01*
X147257434Y-77055975D01*
X145976202Y-77032289D01*
X144754021Y-76942942D01*
X143589679Y-76792289D01*
X142481964Y-76584686D01*
X141429665Y-76324486D01*
X140431570Y-76016046D01*
X139486469Y-75663720D01*
X138593149Y-75271863D01*
X137750398Y-74844831D01*
X136957006Y-74386978D01*
X136211761Y-73902660D01*
X135513452Y-73396232D01*
X134860866Y-72872049D01*
X134252793Y-72334465D01*
X133165338Y-71236518D01*
X132241395Y-70137231D01*
X131471272Y-69071446D01*
X130845276Y-68074002D01*
X130353717Y-67179741D01*
X129735138Y-65840129D01*
X129538000Y-65331335D01*
X129301234Y-65328082D01*
X129066903Y-65326425D01*
X128779969Y-65325780D01*
X128790526Y-52696504D01*
X129160671Y-52699203D01*
X129425560Y-52700120D01*
X129567845Y-52698568D01*
X129568206Y-52695064D01*
X129568523Y-52692386D01*
X129568808Y-52690405D01*
X129569072Y-52688990D01*
X129569327Y-52688014D01*
X129569585Y-52687346D01*
X129569858Y-52686859D01*
X129570157Y-52686422D01*
X129570494Y-52685908D01*
X129570881Y-52685186D01*
X129571330Y-52684128D01*
X129571852Y-52682605D01*
X129572460Y-52680487D01*
X129573164Y-52677646D01*
X129573976Y-52673953D01*
X129574909Y-52669278D01*
X129679327Y-52300096D01*
X129893235Y-51751025D01*
X130221966Y-51050298D01*
X130670855Y-50226148D01*
X131245233Y-49306808D01*
X131950435Y-48320512D01*
X132791793Y-47295493D01*
X133265197Y-46777286D01*
X133774640Y-46259985D01*
X134320789Y-45747120D01*
X134904310Y-45242221D01*
X135525871Y-44748816D01*
X136186136Y-44270434D01*
X136885774Y-43810605D01*
X137625451Y-43372858D01*
X138405834Y-42960723D01*
X139227588Y-42577727D01*
X140091382Y-42227401D01*
X140997881Y-41913273D01*
X141947752Y-41638873D01*
X142941662Y-41407730D01*
X143980277Y-41223373D01*
X145064264Y-41089331D01*
X146194290Y-41009134D01*
X147371021Y-40986310D01*
X148519647Y-41021374D01*
G37*
%TD.AperFunction*%
%TA.AperFunction,NonConductor*%
G36*
X148519647Y-77591039D02*
G01*
X149621397Y-77680282D01*
X150677037Y-77820412D01*
X151687330Y-78008137D01*
X152653044Y-78240162D01*
X153574943Y-78513197D01*
X154453793Y-78823946D01*
X155290358Y-79169118D01*
X156085404Y-79545420D01*
X156839696Y-79949559D01*
X157554000Y-80378242D01*
X158229081Y-80828175D01*
X158865704Y-81296067D01*
X159464635Y-81778625D01*
X160552480Y-82774564D01*
X161498738Y-83789650D01*
X162309531Y-84797539D01*
X162990983Y-85771889D01*
X163549215Y-86686357D01*
X163990349Y-87514599D01*
X164320508Y-88230273D01*
X164545814Y-88807036D01*
X164672389Y-89218543D01*
X165635526Y-89224814D01*
X165622031Y-101867423D01*
X164888607Y-101879014D01*
X164795738Y-102157701D01*
X164594760Y-102645997D01*
X164331797Y-103206689D01*
X163950079Y-103934252D01*
X163441781Y-104795566D01*
X162799074Y-105757514D01*
X162014131Y-106786975D01*
X161565874Y-107316674D01*
X161079123Y-107850832D01*
X160552899Y-108385309D01*
X159986223Y-108915965D01*
X159378118Y-109438660D01*
X158727605Y-109949255D01*
X158033704Y-110443609D01*
X157295439Y-110917583D01*
X156511829Y-111367037D01*
X155681898Y-111787831D01*
X154804666Y-112175825D01*
X153879155Y-112526880D01*
X152904386Y-112836854D01*
X151879381Y-113101610D01*
X150803162Y-113317006D01*
X149674750Y-113478903D01*
X148493167Y-113583161D01*
X147257434Y-113625640D01*
X145976202Y-113601954D01*
X144754021Y-113512607D01*
X143589679Y-113361954D01*
X142481964Y-113154351D01*
X141429665Y-112894151D01*
X140431570Y-112585711D01*
X139486469Y-112233385D01*
X138593149Y-111841528D01*
X137750398Y-111414496D01*
X136957006Y-110956643D01*
X136211761Y-110472325D01*
X135513452Y-109965897D01*
X134860866Y-109441714D01*
X134252793Y-108904130D01*
X133165338Y-107806183D01*
X132241395Y-106706896D01*
X131471272Y-105641111D01*
X130845276Y-104643667D01*
X130353717Y-103749406D01*
X129735138Y-102409794D01*
X129538000Y-101901000D01*
X129301234Y-101897747D01*
X129066903Y-101896090D01*
X128779969Y-101895445D01*
X128790526Y-89266169D01*
X129160671Y-89268868D01*
X129425560Y-89269785D01*
X129567845Y-89268233D01*
X129568206Y-89264729D01*
X129568523Y-89262051D01*
X129568808Y-89260070D01*
X129569072Y-89258655D01*
X129569327Y-89257679D01*
X129569585Y-89257011D01*
X129569858Y-89256524D01*
X129570157Y-89256087D01*
X129570494Y-89255573D01*
X129570881Y-89254851D01*
X129571330Y-89253793D01*
X129571852Y-89252270D01*
X129572460Y-89250152D01*
X129573164Y-89247311D01*
X129573976Y-89243618D01*
X129574909Y-89238943D01*
X129679327Y-88869761D01*
X129893235Y-88320690D01*
X130221966Y-87619963D01*
X130670855Y-86795813D01*
X131245233Y-85876473D01*
X131950435Y-84890177D01*
X132791793Y-83865158D01*
X133265197Y-83346951D01*
X133774640Y-82829650D01*
X134320789Y-82316785D01*
X134904310Y-81811886D01*
X135525871Y-81318481D01*
X136186136Y-80840099D01*
X136885774Y-80380270D01*
X137625451Y-79942523D01*
X138405834Y-79530388D01*
X139227588Y-79147392D01*
X140091382Y-78797066D01*
X140997881Y-78482938D01*
X141947752Y-78208538D01*
X142941662Y-77977395D01*
X143980277Y-77793038D01*
X145064264Y-77658996D01*
X146194290Y-77578799D01*
X147371021Y-77555975D01*
X148519647Y-77591039D01*
G37*
%TD.AperFunction*%
M02*
