%TF.GenerationSoftware,KiCad,Pcbnew,8.0.4*%
%TF.CreationDate,2024-08-24T22:44:35-07:00*%
%TF.ProjectId,SMDemfExplorerLEDvariationSingleCell_panelized,534d4465-6d66-4457-9870-6c6f7265724c,rev?*%
%TF.SameCoordinates,Original*%
%TF.FileFunction,Paste,Top*%
%TF.FilePolarity,Positive*%
%FSLAX46Y46*%
G04 Gerber Fmt 4.6, Leading zero omitted, Abs format (unit mm)*
G04 Created by KiCad (PCBNEW 8.0.4) date 2024-08-24 22:44:35*
%MOMM*%
%LPD*%
G01*
G04 APERTURE LIST*
G04 Aperture macros list*
%AMRoundRect*
0 Rectangle with rounded corners*
0 $1 Rounding radius*
0 $2 $3 $4 $5 $6 $7 $8 $9 X,Y pos of 4 corners*
0 Add a 4 corners polygon primitive as box body*
4,1,4,$2,$3,$4,$5,$6,$7,$8,$9,$2,$3,0*
0 Add four circle primitives for the rounded corners*
1,1,$1+$1,$2,$3*
1,1,$1+$1,$4,$5*
1,1,$1+$1,$6,$7*
1,1,$1+$1,$8,$9*
0 Add four rect primitives between the rounded corners*
20,1,$1+$1,$2,$3,$4,$5,0*
20,1,$1+$1,$4,$5,$6,$7,0*
20,1,$1+$1,$6,$7,$8,$9,0*
20,1,$1+$1,$8,$9,$2,$3,0*%
G04 Aperture macros list end*
%ADD10RoundRect,0.250000X-0.425000X0.537500X-0.425000X-0.537500X0.425000X-0.537500X0.425000X0.537500X0*%
%ADD11RoundRect,0.237500X-0.250000X-0.237500X0.250000X-0.237500X0.250000X0.237500X-0.250000X0.237500X0*%
%ADD12RoundRect,0.237500X0.237500X-0.300000X0.237500X0.300000X-0.237500X0.300000X-0.237500X-0.300000X0*%
%ADD13RoundRect,0.237500X-0.300000X-0.237500X0.300000X-0.237500X0.300000X0.237500X-0.300000X0.237500X0*%
%ADD14RoundRect,0.250001X-1.074999X0.462499X-1.074999X-0.462499X1.074999X-0.462499X1.074999X0.462499X0*%
%ADD15RoundRect,0.250000X-0.537500X-0.425000X0.537500X-0.425000X0.537500X0.425000X-0.537500X0.425000X0*%
%ADD16R,2.200000X2.800000*%
%ADD17R,2.000000X2.800000*%
%ADD18R,2.800000X2.800000*%
%ADD19R,2.600000X2.800000*%
%ADD20RoundRect,0.237500X-0.237500X0.300000X-0.237500X-0.300000X0.237500X-0.300000X0.237500X0.300000X0*%
%ADD21RoundRect,0.150000X-0.150000X0.587500X-0.150000X-0.587500X0.150000X-0.587500X0.150000X0.587500X0*%
%ADD22R,1.000000X1.600000*%
%ADD23RoundRect,0.237500X0.250000X0.237500X-0.250000X0.237500X-0.250000X-0.237500X0.250000X-0.237500X0*%
%ADD24RoundRect,0.237500X0.237500X-0.250000X0.237500X0.250000X-0.237500X0.250000X-0.237500X-0.250000X0*%
%ADD25RoundRect,0.250001X1.074999X-0.462499X1.074999X0.462499X-1.074999X0.462499X-1.074999X-0.462499X0*%
%ADD26RoundRect,0.237500X-0.237500X0.250000X-0.237500X-0.250000X0.237500X-0.250000X0.237500X0.250000X0*%
%ADD27RoundRect,0.150000X0.825000X0.150000X-0.825000X0.150000X-0.825000X-0.150000X0.825000X-0.150000X0*%
%ADD28RoundRect,0.250000X-0.250000X0.750000X-0.250000X-0.750000X0.250000X-0.750000X0.250000X0.750000X0*%
%ADD29RoundRect,0.150000X-0.825000X-0.150000X0.825000X-0.150000X0.825000X0.150000X-0.825000X0.150000X0*%
%ADD30R,6.350000X5.080000*%
%ADD31RoundRect,0.237500X0.300000X0.237500X-0.300000X0.237500X-0.300000X-0.237500X0.300000X-0.237500X0*%
G04 APERTURE END LIST*
D10*
%TO.C,C10*%
X181300000Y-29824063D03*
X181300000Y-32699063D03*
%TD*%
D11*
%TO.C,R12*%
X184775007Y-35049066D03*
X186599993Y-35049064D03*
%TD*%
D12*
%TO.C,C5*%
X179450002Y-13349065D03*
X179450000Y-11624063D03*
%TD*%
D13*
%TO.C,C11*%
X172349992Y-34999075D03*
X174075000Y-34999063D03*
%TD*%
D14*
%TO.C,L2*%
X224350000Y-30649063D03*
X224350008Y-33624075D03*
%TD*%
D15*
%TO.C,C1*%
X183100000Y-11049063D03*
X185975000Y-11049063D03*
%TD*%
D16*
%TO.C,J2*%
X163925486Y-4806089D03*
D17*
X161125480Y-4806088D03*
D16*
X162025480Y-12206081D03*
D18*
X171425481Y-12206078D03*
D19*
X175425481Y-7756087D03*
%TD*%
D20*
%TO.C,C15*%
X179524992Y-3574061D03*
X179525000Y-5299063D03*
%TD*%
D21*
%TO.C,U4*%
X176599997Y-29624068D03*
X174699996Y-29624062D03*
X175650000Y-31499063D03*
%TD*%
D11*
%TO.C,R5*%
X198950000Y-30924063D03*
X200775000Y-30924063D03*
%TD*%
D22*
%TO.C,SW1*%
X158350000Y-31124063D03*
X160850000Y-31124063D03*
X163350000Y-31124063D03*
X158350000Y-33524063D03*
X160850000Y-33524063D03*
X163350000Y-33524063D03*
%TD*%
D23*
%TO.C,R16*%
X200804897Y-35579176D03*
X198979895Y-35579178D03*
%TD*%
D24*
%TO.C,R8*%
X194200594Y-9622521D03*
X194200592Y-7797521D03*
%TD*%
D25*
%TO.C,L4*%
X169025004Y-32674065D03*
X169025000Y-29699063D03*
%TD*%
%TO.C,L1*%
X224475000Y-8549063D03*
X224474996Y-5574061D03*
%TD*%
D20*
%TO.C,C7*%
X190009754Y-7786069D03*
X190009752Y-9511071D03*
%TD*%
D24*
%TO.C,R7*%
X216050002Y-33636562D03*
X216049998Y-31811564D03*
%TD*%
D11*
%TO.C,R11*%
X184850000Y-30624063D03*
X186675000Y-30624063D03*
%TD*%
D20*
%TO.C,C8*%
X210449992Y-8424061D03*
X210450000Y-10149063D03*
%TD*%
D24*
%TO.C,R9*%
X206134752Y-10261071D03*
X206134746Y-8436073D03*
%TD*%
D26*
%TO.C,R10*%
X215200000Y-8399063D03*
X215200006Y-10224065D03*
%TD*%
D27*
%TO.C,U3*%
X195557801Y-35490795D03*
X195557801Y-34220795D03*
X195557801Y-32950795D03*
X195557801Y-31680795D03*
X190607801Y-31680795D03*
X190607801Y-32950795D03*
X190607801Y-34220795D03*
X190607801Y-35490795D03*
%TD*%
D28*
%TO.C,D2*%
X219499992Y-20124067D03*
X219500000Y-23124063D03*
%TD*%
D15*
%TO.C,C2*%
X183025000Y-5349063D03*
X185900000Y-5349063D03*
%TD*%
D29*
%TO.C,U2*%
X197630812Y-7389839D03*
X197630812Y-8659839D03*
X197630812Y-9929839D03*
X197630812Y-11199839D03*
X202580812Y-11199839D03*
X202580812Y-9929839D03*
X202580812Y-8659839D03*
X202580812Y-7389839D03*
%TD*%
D30*
%TO.C,BT2*%
X159428303Y-21299065D03*
X214571697Y-21299061D03*
%TD*%
D31*
%TO.C,C14*%
X177850008Y-34899059D03*
X176125000Y-34899063D03*
%TD*%
%TO.C,C14*%
X177850008Y-72524996D03*
X176125000Y-72525000D03*
%TD*%
D30*
%TO.C,BT2*%
X159428303Y-58925002D03*
X214571697Y-58924998D03*
%TD*%
D29*
%TO.C,U2*%
X197630812Y-45015776D03*
X197630812Y-46285776D03*
X197630812Y-47555776D03*
X197630812Y-48825776D03*
X202580812Y-48825776D03*
X202580812Y-47555776D03*
X202580812Y-46285776D03*
X202580812Y-45015776D03*
%TD*%
D15*
%TO.C,C2*%
X183025000Y-42975000D03*
X185900000Y-42975000D03*
%TD*%
D28*
%TO.C,D2*%
X219499992Y-57750004D03*
X219500000Y-60750000D03*
%TD*%
D27*
%TO.C,U3*%
X195557801Y-73116732D03*
X195557801Y-71846732D03*
X195557801Y-70576732D03*
X195557801Y-69306732D03*
X190607801Y-69306732D03*
X190607801Y-70576732D03*
X190607801Y-71846732D03*
X190607801Y-73116732D03*
%TD*%
D26*
%TO.C,R10*%
X215200000Y-46025000D03*
X215200006Y-47850002D03*
%TD*%
D24*
%TO.C,R9*%
X206134752Y-47887008D03*
X206134746Y-46062010D03*
%TD*%
D20*
%TO.C,C8*%
X210449992Y-46049998D03*
X210450000Y-47775000D03*
%TD*%
D11*
%TO.C,R11*%
X184850000Y-68250000D03*
X186675000Y-68250000D03*
%TD*%
D24*
%TO.C,R7*%
X216050002Y-71262499D03*
X216049998Y-69437501D03*
%TD*%
D20*
%TO.C,C7*%
X190009754Y-45412006D03*
X190009752Y-47137008D03*
%TD*%
D25*
%TO.C,L1*%
X224475000Y-46175000D03*
X224474996Y-43199998D03*
%TD*%
%TO.C,L4*%
X169025004Y-70300002D03*
X169025000Y-67325000D03*
%TD*%
D24*
%TO.C,R8*%
X194200594Y-47248458D03*
X194200592Y-45423458D03*
%TD*%
D23*
%TO.C,R16*%
X200804897Y-73205113D03*
X198979895Y-73205115D03*
%TD*%
D22*
%TO.C,SW1*%
X158350000Y-68750000D03*
X160850000Y-68750000D03*
X163350000Y-68750000D03*
X158350000Y-71150000D03*
X160850000Y-71150000D03*
X163350000Y-71150000D03*
%TD*%
D11*
%TO.C,R5*%
X198950000Y-68550000D03*
X200775000Y-68550000D03*
%TD*%
D21*
%TO.C,U4*%
X176599997Y-67250005D03*
X174699996Y-67249999D03*
X175650000Y-69125000D03*
%TD*%
D20*
%TO.C,C15*%
X179524992Y-41199998D03*
X179525000Y-42925000D03*
%TD*%
D16*
%TO.C,J2*%
X163925486Y-42432026D03*
D17*
X161125480Y-42432025D03*
D16*
X162025480Y-49832018D03*
D18*
X171425481Y-49832015D03*
D19*
X175425481Y-45382024D03*
%TD*%
D15*
%TO.C,C1*%
X183100000Y-48675000D03*
X185975000Y-48675000D03*
%TD*%
D14*
%TO.C,L2*%
X224350000Y-68275000D03*
X224350008Y-71250012D03*
%TD*%
D13*
%TO.C,C11*%
X172349992Y-72625012D03*
X174075000Y-72625000D03*
%TD*%
D12*
%TO.C,C5*%
X179450002Y-50975002D03*
X179450000Y-49250000D03*
%TD*%
D11*
%TO.C,R12*%
X184775007Y-72675003D03*
X186599993Y-72675001D03*
%TD*%
D10*
%TO.C,C10*%
X181300000Y-67450000D03*
X181300000Y-70325000D03*
%TD*%
M02*
