%TF.GenerationSoftware,KiCad,Pcbnew,8.0.4*%
%TF.CreationDate,2024-08-24T22:44:35-07:00*%
%TF.ProjectId,SMDemfExplorerLEDvariationSingleCell_panelized,534d4465-6d66-4457-9870-6c6f7265724c,rev?*%
%TF.SameCoordinates,Original*%
%TF.FileFunction,Copper,L1,Top*%
%TF.FilePolarity,Positive*%
%FSLAX46Y46*%
G04 Gerber Fmt 4.6, Leading zero omitted, Abs format (unit mm)*
G04 Created by KiCad (PCBNEW 8.0.4) date 2024-08-24 22:44:35*
%MOMM*%
%LPD*%
G01*
G04 APERTURE LIST*
G04 Aperture macros list*
%AMRoundRect*
0 Rectangle with rounded corners*
0 $1 Rounding radius*
0 $2 $3 $4 $5 $6 $7 $8 $9 X,Y pos of 4 corners*
0 Add a 4 corners polygon primitive as box body*
4,1,4,$2,$3,$4,$5,$6,$7,$8,$9,$2,$3,0*
0 Add four circle primitives for the rounded corners*
1,1,$1+$1,$2,$3*
1,1,$1+$1,$4,$5*
1,1,$1+$1,$6,$7*
1,1,$1+$1,$8,$9*
0 Add four rect primitives between the rounded corners*
20,1,$1+$1,$2,$3,$4,$5,0*
20,1,$1+$1,$4,$5,$6,$7,0*
20,1,$1+$1,$6,$7,$8,$9,0*
20,1,$1+$1,$8,$9,$2,$3,0*%
G04 Aperture macros list end*
%TA.AperFunction,SMDPad,CuDef*%
%ADD10RoundRect,0.250000X-0.425000X0.537500X-0.425000X-0.537500X0.425000X-0.537500X0.425000X0.537500X0*%
%TD*%
%TA.AperFunction,SMDPad,CuDef*%
%ADD11RoundRect,0.237500X-0.250000X-0.237500X0.250000X-0.237500X0.250000X0.237500X-0.250000X0.237500X0*%
%TD*%
%TA.AperFunction,SMDPad,CuDef*%
%ADD12RoundRect,0.237500X0.237500X-0.300000X0.237500X0.300000X-0.237500X0.300000X-0.237500X-0.300000X0*%
%TD*%
%TA.AperFunction,SMDPad,CuDef*%
%ADD13RoundRect,0.237500X-0.300000X-0.237500X0.300000X-0.237500X0.300000X0.237500X-0.300000X0.237500X0*%
%TD*%
%TA.AperFunction,SMDPad,CuDef*%
%ADD14RoundRect,0.250001X-1.074999X0.462499X-1.074999X-0.462499X1.074999X-0.462499X1.074999X0.462499X0*%
%TD*%
%TA.AperFunction,SMDPad,CuDef*%
%ADD15RoundRect,0.250000X-0.537500X-0.425000X0.537500X-0.425000X0.537500X0.425000X-0.537500X0.425000X0*%
%TD*%
%TA.AperFunction,SMDPad,CuDef*%
%ADD16R,2.200000X2.800000*%
%TD*%
%TA.AperFunction,SMDPad,CuDef*%
%ADD17R,2.000000X2.800000*%
%TD*%
%TA.AperFunction,SMDPad,CuDef*%
%ADD18R,2.800000X2.800000*%
%TD*%
%TA.AperFunction,SMDPad,CuDef*%
%ADD19R,2.600000X2.800000*%
%TD*%
%TA.AperFunction,SMDPad,CuDef*%
%ADD20RoundRect,0.237500X-0.237500X0.300000X-0.237500X-0.300000X0.237500X-0.300000X0.237500X0.300000X0*%
%TD*%
%TA.AperFunction,SMDPad,CuDef*%
%ADD21RoundRect,0.150000X-0.150000X0.587500X-0.150000X-0.587500X0.150000X-0.587500X0.150000X0.587500X0*%
%TD*%
%TA.AperFunction,SMDPad,CuDef*%
%ADD22R,1.000000X1.600000*%
%TD*%
%TA.AperFunction,SMDPad,CuDef*%
%ADD23RoundRect,0.237500X0.250000X0.237500X-0.250000X0.237500X-0.250000X-0.237500X0.250000X-0.237500X0*%
%TD*%
%TA.AperFunction,SMDPad,CuDef*%
%ADD24RoundRect,0.237500X0.237500X-0.250000X0.237500X0.250000X-0.237500X0.250000X-0.237500X-0.250000X0*%
%TD*%
%TA.AperFunction,SMDPad,CuDef*%
%ADD25RoundRect,0.250001X1.074999X-0.462499X1.074999X0.462499X-1.074999X0.462499X-1.074999X-0.462499X0*%
%TD*%
%TA.AperFunction,SMDPad,CuDef*%
%ADD26RoundRect,0.237500X-0.237500X0.250000X-0.237500X-0.250000X0.237500X-0.250000X0.237500X0.250000X0*%
%TD*%
%TA.AperFunction,SMDPad,CuDef*%
%ADD27RoundRect,0.150000X0.825000X0.150000X-0.825000X0.150000X-0.825000X-0.150000X0.825000X-0.150000X0*%
%TD*%
%TA.AperFunction,SMDPad,CuDef*%
%ADD28RoundRect,0.250000X-0.250000X0.750000X-0.250000X-0.750000X0.250000X-0.750000X0.250000X0.750000X0*%
%TD*%
%TA.AperFunction,SMDPad,CuDef*%
%ADD29RoundRect,0.150000X-0.825000X-0.150000X0.825000X-0.150000X0.825000X0.150000X-0.825000X0.150000X0*%
%TD*%
%TA.AperFunction,SMDPad,CuDef*%
%ADD30R,6.350000X5.080000*%
%TD*%
%TA.AperFunction,SMDPad,CuDef*%
%ADD31RoundRect,0.237500X0.300000X0.237500X-0.300000X0.237500X-0.300000X-0.237500X0.300000X-0.237500X0*%
%TD*%
%TA.AperFunction,ViaPad*%
%ADD32C,0.600000*%
%TD*%
%TA.AperFunction,Conductor*%
%ADD33C,0.500000*%
%TD*%
G04 APERTURE END LIST*
D10*
%TO.P,C10,1*%
%TO.N,+1V5*%
X181300000Y-29824063D03*
%TO.P,C10,2*%
%TO.N,-1V5*%
X181300000Y-32699063D03*
%TD*%
D11*
%TO.P,R12,1*%
%TO.N,-1V5*%
X184775007Y-35049066D03*
%TO.P,R12,2*%
%TO.N,Net-(U3B-+)*%
X186599993Y-35049064D03*
%TD*%
D12*
%TO.P,C5,1*%
%TO.N,Net-(C1-Pad1)*%
X179450002Y-13349065D03*
%TO.P,C5,2*%
%TO.N,GND*%
X179450000Y-11624063D03*
%TD*%
D13*
%TO.P,C11,1*%
%TO.N,Net-(SW1B-B)*%
X172349992Y-34999075D03*
%TO.P,C11,2*%
%TO.N,-1V5*%
X174075000Y-34999063D03*
%TD*%
D14*
%TO.P,L2,1,1*%
%TO.N,GND*%
X224350000Y-30649063D03*
%TO.P,L2,2,2*%
%TO.N,Net-(L2-Pad2)*%
X224350008Y-33624075D03*
%TD*%
D15*
%TO.P,C1,1*%
%TO.N,Net-(C1-Pad1)*%
X183100000Y-11049063D03*
%TO.P,C1,2*%
%TO.N,Net-(C1-Pad2)*%
X185975000Y-11049063D03*
%TD*%
D16*
%TO.P,J2,R*%
%TO.N,Net-(C15-Pad1)*%
X163925486Y-4806089D03*
D17*
%TO.P,J2,RN*%
%TO.N,unconnected-(J2-PadRN)*%
X161125480Y-4806088D03*
D16*
%TO.P,J2,S*%
%TO.N,GND*%
X162025480Y-12206081D03*
D18*
%TO.P,J2,T*%
%TO.N,Net-(C1-Pad1)*%
X171425481Y-12206078D03*
D19*
%TO.P,J2,TN*%
%TO.N,unconnected-(J2-PadTN)*%
X175425481Y-7756087D03*
%TD*%
D20*
%TO.P,C15,1*%
%TO.N,Net-(C15-Pad1)*%
X179524992Y-3574061D03*
%TO.P,C15,2*%
%TO.N,GND*%
X179525000Y-5299063D03*
%TD*%
D21*
%TO.P,U4,1,VOUT*%
%TO.N,+1V5*%
X176599997Y-29624068D03*
%TO.P,U4,2,LX*%
%TO.N,Net-(U4-LX)*%
X174699996Y-29624062D03*
%TO.P,U4,3,GND*%
%TO.N,-1V5*%
X175650000Y-31499063D03*
%TD*%
D11*
%TO.P,R5,1*%
%TO.N,-1V5*%
X198950000Y-30924063D03*
%TO.P,R5,2*%
%TO.N,Net-(D2-K)*%
X200775000Y-30924063D03*
%TD*%
D22*
%TO.P,SW1,1*%
%TO.N,N/C*%
X158350000Y-31124063D03*
%TO.P,SW1,2*%
X160850000Y-31124063D03*
%TO.P,SW1,3*%
X163350000Y-31124063D03*
%TO.P,SW1,4,A*%
%TO.N,Net-(BT2-+)*%
X158350000Y-33524063D03*
%TO.P,SW1,5,B*%
%TO.N,Net-(SW1B-B)*%
X160850000Y-33524063D03*
%TO.P,SW1,6,C*%
%TO.N,unconnected-(SW1B-C-Pad6)*%
X163350000Y-33524063D03*
%TD*%
D23*
%TO.P,R16,1*%
%TO.N,Net-(D2-K)*%
X200804897Y-35579176D03*
%TO.P,R16,2*%
%TO.N,Net-(U3A--)*%
X198979895Y-35579178D03*
%TD*%
D24*
%TO.P,R8,1*%
%TO.N,Net-(U2A--)*%
X194200594Y-9622521D03*
%TO.P,R8,2*%
%TO.N,Net-(C1-Pad2)*%
X194200592Y-7797521D03*
%TD*%
D25*
%TO.P,L4,1,1*%
%TO.N,Net-(SW1B-B)*%
X169025004Y-32674065D03*
%TO.P,L4,2,2*%
%TO.N,Net-(U4-LX)*%
X169025000Y-29699063D03*
%TD*%
%TO.P,L1,1,1*%
%TO.N,GND*%
X224475000Y-8549063D03*
%TO.P,L1,2,2*%
%TO.N,Net-(L1-Pad2)*%
X224474996Y-5574061D03*
%TD*%
D20*
%TO.P,C7,1*%
%TO.N,Net-(C1-Pad2)*%
X190009754Y-7786069D03*
%TO.P,C7,2*%
%TO.N,Net-(U2A--)*%
X190009752Y-9511071D03*
%TD*%
D24*
%TO.P,R7,1*%
%TO.N,Net-(L2-Pad2)*%
X216050002Y-33636562D03*
%TO.P,R7,2*%
%TO.N,Net-(U2A--)*%
X216049998Y-31811564D03*
%TD*%
D11*
%TO.P,R11,1*%
%TO.N,Net-(U3B-+)*%
X184850000Y-30624063D03*
%TO.P,R11,2*%
%TO.N,+1V5*%
X186675000Y-30624063D03*
%TD*%
D20*
%TO.P,C8,1*%
%TO.N,Net-(U3A-+)*%
X210449992Y-8424061D03*
%TO.P,C8,2*%
%TO.N,Net-(U2B--)*%
X210450000Y-10149063D03*
%TD*%
D24*
%TO.P,R9,1*%
%TO.N,Net-(U2B--)*%
X206134752Y-10261071D03*
%TO.P,R9,2*%
%TO.N,Net-(U3A-+)*%
X206134746Y-8436073D03*
%TD*%
D26*
%TO.P,R10,1*%
%TO.N,Net-(L1-Pad2)*%
X215200000Y-8399063D03*
%TO.P,R10,2*%
%TO.N,Net-(U2B--)*%
X215200006Y-10224065D03*
%TD*%
D27*
%TO.P,U3,1*%
%TO.N,Net-(U3A--)*%
X195557801Y-35490795D03*
%TO.P,U3,2,-*%
X195557801Y-34220795D03*
%TO.P,U3,3,+*%
%TO.N,Net-(U3A-+)*%
X195557801Y-32950795D03*
%TO.P,U3,4,V-*%
%TO.N,-1V5*%
X195557801Y-31680795D03*
%TO.P,U3,5,+*%
%TO.N,Net-(U3B-+)*%
X190607801Y-31680795D03*
%TO.P,U3,6,-*%
%TO.N,GND*%
X190607801Y-32950795D03*
%TO.P,U3,7*%
X190607801Y-34220795D03*
%TO.P,U3,8,V+*%
%TO.N,+1V5*%
X190607801Y-35490795D03*
%TD*%
D28*
%TO.P,D2,1,K*%
%TO.N,Net-(D2-K)*%
X219499992Y-20124067D03*
%TO.P,D2,2,A*%
%TO.N,+1V5*%
X219500000Y-23124063D03*
%TD*%
D15*
%TO.P,C2,1*%
%TO.N,Net-(C15-Pad1)*%
X183025000Y-5349063D03*
%TO.P,C2,2*%
%TO.N,Net-(U3A-+)*%
X185900000Y-5349063D03*
%TD*%
D29*
%TO.P,U2,1*%
%TO.N,Net-(C1-Pad2)*%
X197630812Y-7389839D03*
%TO.P,U2,2,-*%
%TO.N,Net-(U2A--)*%
X197630812Y-8659839D03*
%TO.P,U2,3,+*%
%TO.N,GND*%
X197630812Y-9929839D03*
%TO.P,U2,4,V-*%
%TO.N,-1V5*%
X197630812Y-11199839D03*
%TO.P,U2,5,+*%
%TO.N,GND*%
X202580812Y-11199839D03*
%TO.P,U2,6,-*%
%TO.N,Net-(U2B--)*%
X202580812Y-9929839D03*
%TO.P,U2,7*%
%TO.N,Net-(U3A-+)*%
X202580812Y-8659839D03*
%TO.P,U2,8,V+*%
%TO.N,+1V5*%
X202580812Y-7389839D03*
%TD*%
D30*
%TO.P,BT2,1,+*%
%TO.N,Net-(BT2-+)*%
X159428303Y-21299065D03*
%TO.P,BT2,2,-*%
%TO.N,-1V5*%
X214571697Y-21299061D03*
%TD*%
D31*
%TO.P,C14,1*%
%TO.N,Net-(U3B-+)*%
X177850008Y-34899059D03*
%TO.P,C14,2*%
%TO.N,-1V5*%
X176125000Y-34899063D03*
%TD*%
%TO.P,C14,1*%
%TO.N,Net-(U3B-+)*%
X177850008Y-72524996D03*
%TO.P,C14,2*%
%TO.N,-1V5*%
X176125000Y-72525000D03*
%TD*%
D30*
%TO.P,BT2,1,+*%
%TO.N,Net-(BT2-+)*%
X159428303Y-58925002D03*
%TO.P,BT2,2,-*%
%TO.N,-1V5*%
X214571697Y-58924998D03*
%TD*%
D29*
%TO.P,U2,1*%
%TO.N,Net-(C1-Pad2)*%
X197630812Y-45015776D03*
%TO.P,U2,2,-*%
%TO.N,Net-(U2A--)*%
X197630812Y-46285776D03*
%TO.P,U2,3,+*%
%TO.N,GND*%
X197630812Y-47555776D03*
%TO.P,U2,4,V-*%
%TO.N,-1V5*%
X197630812Y-48825776D03*
%TO.P,U2,5,+*%
%TO.N,GND*%
X202580812Y-48825776D03*
%TO.P,U2,6,-*%
%TO.N,Net-(U2B--)*%
X202580812Y-47555776D03*
%TO.P,U2,7*%
%TO.N,Net-(U3A-+)*%
X202580812Y-46285776D03*
%TO.P,U2,8,V+*%
%TO.N,+1V5*%
X202580812Y-45015776D03*
%TD*%
D15*
%TO.P,C2,1*%
%TO.N,Net-(C15-Pad1)*%
X183025000Y-42975000D03*
%TO.P,C2,2*%
%TO.N,Net-(U3A-+)*%
X185900000Y-42975000D03*
%TD*%
D28*
%TO.P,D2,1,K*%
%TO.N,Net-(D2-K)*%
X219499992Y-57750004D03*
%TO.P,D2,2,A*%
%TO.N,+1V5*%
X219500000Y-60750000D03*
%TD*%
D27*
%TO.P,U3,1*%
%TO.N,Net-(U3A--)*%
X195557801Y-73116732D03*
%TO.P,U3,2,-*%
X195557801Y-71846732D03*
%TO.P,U3,3,+*%
%TO.N,Net-(U3A-+)*%
X195557801Y-70576732D03*
%TO.P,U3,4,V-*%
%TO.N,-1V5*%
X195557801Y-69306732D03*
%TO.P,U3,5,+*%
%TO.N,Net-(U3B-+)*%
X190607801Y-69306732D03*
%TO.P,U3,6,-*%
%TO.N,GND*%
X190607801Y-70576732D03*
%TO.P,U3,7*%
X190607801Y-71846732D03*
%TO.P,U3,8,V+*%
%TO.N,+1V5*%
X190607801Y-73116732D03*
%TD*%
D26*
%TO.P,R10,1*%
%TO.N,Net-(L1-Pad2)*%
X215200000Y-46025000D03*
%TO.P,R10,2*%
%TO.N,Net-(U2B--)*%
X215200006Y-47850002D03*
%TD*%
D24*
%TO.P,R9,1*%
%TO.N,Net-(U2B--)*%
X206134752Y-47887008D03*
%TO.P,R9,2*%
%TO.N,Net-(U3A-+)*%
X206134746Y-46062010D03*
%TD*%
D20*
%TO.P,C8,1*%
%TO.N,Net-(U3A-+)*%
X210449992Y-46049998D03*
%TO.P,C8,2*%
%TO.N,Net-(U2B--)*%
X210450000Y-47775000D03*
%TD*%
D11*
%TO.P,R11,1*%
%TO.N,Net-(U3B-+)*%
X184850000Y-68250000D03*
%TO.P,R11,2*%
%TO.N,+1V5*%
X186675000Y-68250000D03*
%TD*%
D24*
%TO.P,R7,1*%
%TO.N,Net-(L2-Pad2)*%
X216050002Y-71262499D03*
%TO.P,R7,2*%
%TO.N,Net-(U2A--)*%
X216049998Y-69437501D03*
%TD*%
D20*
%TO.P,C7,1*%
%TO.N,Net-(C1-Pad2)*%
X190009754Y-45412006D03*
%TO.P,C7,2*%
%TO.N,Net-(U2A--)*%
X190009752Y-47137008D03*
%TD*%
D25*
%TO.P,L1,1,1*%
%TO.N,GND*%
X224475000Y-46175000D03*
%TO.P,L1,2,2*%
%TO.N,Net-(L1-Pad2)*%
X224474996Y-43199998D03*
%TD*%
%TO.P,L4,1,1*%
%TO.N,Net-(SW1B-B)*%
X169025004Y-70300002D03*
%TO.P,L4,2,2*%
%TO.N,Net-(U4-LX)*%
X169025000Y-67325000D03*
%TD*%
D24*
%TO.P,R8,1*%
%TO.N,Net-(U2A--)*%
X194200594Y-47248458D03*
%TO.P,R8,2*%
%TO.N,Net-(C1-Pad2)*%
X194200592Y-45423458D03*
%TD*%
D23*
%TO.P,R16,1*%
%TO.N,Net-(D2-K)*%
X200804897Y-73205113D03*
%TO.P,R16,2*%
%TO.N,Net-(U3A--)*%
X198979895Y-73205115D03*
%TD*%
D22*
%TO.P,SW1,1*%
%TO.N,N/C*%
X158350000Y-68750000D03*
%TO.P,SW1,2*%
X160850000Y-68750000D03*
%TO.P,SW1,3*%
X163350000Y-68750000D03*
%TO.P,SW1,4,A*%
%TO.N,Net-(BT2-+)*%
X158350000Y-71150000D03*
%TO.P,SW1,5,B*%
%TO.N,Net-(SW1B-B)*%
X160850000Y-71150000D03*
%TO.P,SW1,6,C*%
%TO.N,unconnected-(SW1B-C-Pad6)*%
X163350000Y-71150000D03*
%TD*%
D11*
%TO.P,R5,1*%
%TO.N,-1V5*%
X198950000Y-68550000D03*
%TO.P,R5,2*%
%TO.N,Net-(D2-K)*%
X200775000Y-68550000D03*
%TD*%
D21*
%TO.P,U4,1,VOUT*%
%TO.N,+1V5*%
X176599997Y-67250005D03*
%TO.P,U4,2,LX*%
%TO.N,Net-(U4-LX)*%
X174699996Y-67249999D03*
%TO.P,U4,3,GND*%
%TO.N,-1V5*%
X175650000Y-69125000D03*
%TD*%
D20*
%TO.P,C15,1*%
%TO.N,Net-(C15-Pad1)*%
X179524992Y-41199998D03*
%TO.P,C15,2*%
%TO.N,GND*%
X179525000Y-42925000D03*
%TD*%
D16*
%TO.P,J2,R*%
%TO.N,Net-(C15-Pad1)*%
X163925486Y-42432026D03*
D17*
%TO.P,J2,RN*%
%TO.N,unconnected-(J2-PadRN)*%
X161125480Y-42432025D03*
D16*
%TO.P,J2,S*%
%TO.N,GND*%
X162025480Y-49832018D03*
D18*
%TO.P,J2,T*%
%TO.N,Net-(C1-Pad1)*%
X171425481Y-49832015D03*
D19*
%TO.P,J2,TN*%
%TO.N,unconnected-(J2-PadTN)*%
X175425481Y-45382024D03*
%TD*%
D15*
%TO.P,C1,1*%
%TO.N,Net-(C1-Pad1)*%
X183100000Y-48675000D03*
%TO.P,C1,2*%
%TO.N,Net-(C1-Pad2)*%
X185975000Y-48675000D03*
%TD*%
D14*
%TO.P,L2,1,1*%
%TO.N,GND*%
X224350000Y-68275000D03*
%TO.P,L2,2,2*%
%TO.N,Net-(L2-Pad2)*%
X224350008Y-71250012D03*
%TD*%
D13*
%TO.P,C11,1*%
%TO.N,Net-(SW1B-B)*%
X172349992Y-72625012D03*
%TO.P,C11,2*%
%TO.N,-1V5*%
X174075000Y-72625000D03*
%TD*%
D12*
%TO.P,C5,1*%
%TO.N,Net-(C1-Pad1)*%
X179450002Y-50975002D03*
%TO.P,C5,2*%
%TO.N,GND*%
X179450000Y-49250000D03*
%TD*%
D11*
%TO.P,R12,1*%
%TO.N,-1V5*%
X184775007Y-72675003D03*
%TO.P,R12,2*%
%TO.N,Net-(U3B-+)*%
X186599993Y-72675001D03*
%TD*%
D10*
%TO.P,C10,1*%
%TO.N,+1V5*%
X181300000Y-67450000D03*
%TO.P,C10,2*%
%TO.N,-1V5*%
X181300000Y-70325000D03*
%TD*%
D32*
%TO.N,Net-(U3B-+)*%
X185637500Y-32936563D03*
X188875000Y-31724063D03*
%TO.N,Net-(U2A--)*%
X212275000Y-31549063D03*
X193450000Y-10749063D03*
%TO.N,GND*%
X187775000Y-15074063D03*
X192875000Y-30349063D03*
%TO.N,+1V5*%
X218325000Y-6849063D03*
X218325000Y-17149063D03*
%TO.N,Net-(U3A-+)*%
X197200000Y-32949063D03*
X208350000Y-14374063D03*
X208375000Y-8424061D03*
X197675000Y-24899063D03*
%TO.N,-1V5*%
X199800000Y-11224063D03*
X211125000Y-22524063D03*
X211125000Y-60150000D03*
X199800000Y-48850000D03*
%TO.N,Net-(U3A-+)*%
X197675000Y-62525000D03*
X208375000Y-46049998D03*
X208350000Y-52000000D03*
X197200000Y-70575000D03*
%TO.N,+1V5*%
X218325000Y-54775000D03*
X218325000Y-44475000D03*
%TO.N,GND*%
X192875000Y-67975000D03*
X187775000Y-52700000D03*
%TO.N,Net-(U2A--)*%
X193450000Y-48375000D03*
X212275000Y-69175000D03*
%TO.N,Net-(U3B-+)*%
X188875000Y-69350000D03*
X185637500Y-70562500D03*
%TD*%
D33*
%TO.N,Net-(U3A--)*%
X195646189Y-35579178D02*
X195557808Y-35490797D01*
X198979895Y-35579178D02*
X195646189Y-35579178D01*
X195557800Y-35490789D02*
X195557808Y-35490797D01*
X195557800Y-34220787D02*
X195557800Y-35490789D01*
%TO.N,Net-(U4-LX)*%
X169025000Y-29699063D02*
X174624995Y-29699063D01*
X174624995Y-29699063D02*
X174699996Y-29624062D01*
%TO.N,Net-(L2-Pad2)*%
X223587521Y-33636562D02*
X223700008Y-33524075D01*
X216050002Y-33636562D02*
X223587521Y-33636562D01*
%TO.N,Net-(L1-Pad2)*%
X222500002Y-5574061D02*
X219675000Y-8399063D01*
X219675000Y-8399063D02*
X215200000Y-8399063D01*
X224474996Y-5574061D02*
X222500002Y-5574061D01*
%TO.N,Net-(D2-K)*%
X200775000Y-30924063D02*
X200775000Y-35549279D01*
X200775000Y-35549279D02*
X200804897Y-35579176D01*
%TO.N,Net-(U3B-+)*%
X184850000Y-30624063D02*
X184850000Y-32149063D01*
X185399994Y-36249063D02*
X186599993Y-35049064D01*
X185637500Y-32936563D02*
X186599993Y-33899056D01*
X184850000Y-32149063D02*
X185637500Y-32936563D01*
X190607794Y-31680793D02*
X188918270Y-31680793D01*
X177850008Y-34899059D02*
X182399996Y-34899059D01*
X183850000Y-36349063D02*
X183950000Y-36249063D01*
X188918270Y-31680793D02*
X188875000Y-31724063D01*
X186599993Y-33899056D02*
X186599993Y-35049064D01*
X183950000Y-36249063D02*
X185399994Y-36249063D01*
X182399996Y-34899059D02*
X183850000Y-36349063D01*
%TO.N,Net-(SW1B-B)*%
X171350014Y-34999075D02*
X169025004Y-32674065D01*
X160850000Y-33524063D02*
X162100000Y-34774063D01*
X162100000Y-34774063D02*
X162125000Y-34774063D01*
X162125000Y-34774063D02*
X162350000Y-34999063D01*
X162350000Y-34999063D02*
X166700006Y-34999063D01*
X172349992Y-34999075D02*
X171350014Y-34999075D01*
X166700006Y-34999063D02*
X169025004Y-32674065D01*
%TO.N,Net-(U2B--)*%
X206246760Y-10149063D02*
X206134752Y-10261071D01*
X215200006Y-10224065D02*
X210525002Y-10224065D01*
X210450000Y-10149063D02*
X206246760Y-10149063D01*
X202912048Y-10261071D02*
X202580812Y-9929835D01*
X206134752Y-10261071D02*
X202912048Y-10261071D01*
X210525002Y-10224065D02*
X210450000Y-10149063D01*
%TO.N,Net-(U2A--)*%
X193450000Y-10749063D02*
X193450000Y-10373115D01*
X212537501Y-31811564D02*
X212275000Y-31549063D01*
X194089144Y-9511071D02*
X194200594Y-9622521D01*
X196064224Y-8659839D02*
X197630812Y-8659839D01*
X212275000Y-31599063D02*
X212275000Y-31549063D01*
X193450000Y-10373115D02*
X194200594Y-9622521D01*
X190009752Y-9511071D02*
X194089144Y-9511071D01*
X194200594Y-9622521D02*
X195101542Y-9622521D01*
X216049998Y-31811564D02*
X212537501Y-31811564D01*
X195101542Y-9622521D02*
X196064224Y-8659839D01*
%TO.N,GND*%
X193225000Y-15074063D02*
X196150000Y-12149063D01*
X162025480Y-12206081D02*
X168932498Y-5299063D01*
X192900000Y-31599063D02*
X192900000Y-30374063D01*
X192900000Y-30374063D02*
X192875000Y-30349063D01*
X190607797Y-34220785D02*
X190607797Y-32950808D01*
X179450000Y-11624063D02*
X179450000Y-5374063D01*
X223700000Y-12674063D02*
X223650000Y-12624063D01*
X224475000Y-8549063D02*
X224475000Y-11799063D01*
X202580817Y-11199837D02*
X201631591Y-12149063D01*
X204425000Y-12599063D02*
X204450000Y-12624063D01*
X204450000Y-12624063D02*
X223650000Y-12624063D01*
X223700000Y-30549063D02*
X223700000Y-12674063D01*
X190607801Y-32950795D02*
X191548268Y-32950795D01*
X196655807Y-9929830D02*
X197630806Y-9929830D01*
X202580817Y-11199837D02*
X203980043Y-12599063D01*
X191548268Y-32950795D02*
X192900000Y-31599063D01*
X162025480Y-12206081D02*
X164893462Y-15074063D01*
X187775000Y-15074063D02*
X193225000Y-15074063D01*
X203980043Y-12599063D02*
X204425000Y-12599063D01*
X179450000Y-5374063D02*
X179525000Y-5299063D01*
X195875000Y-12149063D02*
X195875000Y-10710637D01*
X190607797Y-32950808D02*
X190607802Y-32950803D01*
X195875000Y-10710637D02*
X196655807Y-9929830D01*
X224475000Y-11799063D02*
X223650000Y-12624063D01*
X201631591Y-12149063D02*
X196150000Y-12149063D01*
X196150000Y-12149063D02*
X195875000Y-12149063D01*
X168932498Y-5299063D02*
X179525000Y-5299063D01*
X164893462Y-15074063D02*
X187775000Y-15074063D01*
%TO.N,+1V5*%
X220850000Y-18799063D02*
X220850000Y-21774063D01*
X190607807Y-35490796D02*
X189141733Y-35490796D01*
X187675000Y-34024063D02*
X187675000Y-31499063D01*
X220850000Y-21774063D02*
X219500000Y-23124063D01*
X209125000Y-17149063D02*
X197250000Y-29024063D01*
X217400000Y-5924063D02*
X218325000Y-6849063D01*
X189141733Y-35490796D02*
X187675000Y-34024063D01*
X203850000Y-5924063D02*
X217400000Y-5924063D01*
X188100000Y-29024063D02*
X188100000Y-29199063D01*
X188100000Y-29199063D02*
X186675000Y-30624063D01*
X197250000Y-29024063D02*
X188100000Y-29024063D01*
X176599997Y-29624068D02*
X181100005Y-29624068D01*
X218325000Y-17149063D02*
X209125000Y-17149063D01*
X218325000Y-17149063D02*
X219200000Y-17149063D01*
X219200000Y-17149063D02*
X220850000Y-18799063D01*
X203850000Y-6120651D02*
X203850000Y-5924063D01*
X187550000Y-31499063D02*
X186675000Y-30624063D01*
X186675000Y-30624063D02*
X186675000Y-30099063D01*
X202580812Y-7389839D02*
X203850000Y-6120651D01*
X186675000Y-30099063D02*
X185725000Y-29149063D01*
X185725000Y-29149063D02*
X181975000Y-29149063D01*
X187675000Y-31499063D02*
X187550000Y-31499063D01*
X181100005Y-29624068D02*
X181300000Y-29824063D01*
X181975000Y-29149063D02*
X181300000Y-29824063D01*
%TO.N,Net-(U3A-+)*%
X206146758Y-8424061D02*
X206134746Y-8436073D01*
X210449992Y-8424061D02*
X208375000Y-8424061D01*
X200075000Y-7129026D02*
X200075000Y-5774063D01*
X201605813Y-8659839D02*
X200075000Y-7129026D01*
X197675000Y-24899063D02*
X208200000Y-14374063D01*
X202804593Y-8436073D02*
X202580818Y-8659848D01*
X202580812Y-8659839D02*
X201605813Y-8659839D01*
X208200000Y-14374063D02*
X208350000Y-14374063D01*
X199650000Y-5349063D02*
X185900000Y-5349063D01*
X208375000Y-8424061D02*
X206146758Y-8424061D01*
X197198268Y-32950795D02*
X197200000Y-32949063D01*
X200075000Y-5774063D02*
X199650000Y-5349063D01*
X195557801Y-32950795D02*
X197198268Y-32950795D01*
X206134746Y-8436073D02*
X202804593Y-8436073D01*
%TO.N,Net-(C15-Pad1)*%
X179524992Y-3574061D02*
X181249998Y-3574061D01*
X165157514Y-3574061D02*
X179524992Y-3574061D01*
X181249998Y-3574061D02*
X183025000Y-5349063D01*
X163925486Y-4806089D02*
X165157514Y-3574061D01*
%TO.N,Net-(C1-Pad2)*%
X194200592Y-7797521D02*
X190021206Y-7797521D01*
X195251542Y-7797521D02*
X195659224Y-7389839D01*
X189237994Y-7786069D02*
X190009754Y-7786069D01*
X190021206Y-7797521D02*
X190009754Y-7786069D01*
X185975000Y-11049063D02*
X189237994Y-7786069D01*
X195659224Y-7389839D02*
X197630812Y-7389839D01*
X194200592Y-7797521D02*
X195251542Y-7797521D01*
%TO.N,Net-(C1-Pad1)*%
X180850000Y-13299063D02*
X180775000Y-13299063D01*
X183100000Y-11049063D02*
X180850000Y-13299063D01*
X179450002Y-13349065D02*
X174800002Y-13349065D01*
X174800002Y-13349065D02*
X173657015Y-12206078D01*
X180724998Y-13349065D02*
X179450002Y-13349065D01*
X173657015Y-12206078D02*
X171425481Y-12206078D01*
X180775000Y-13299063D02*
X180724998Y-13349065D01*
%TO.N,Net-(BT2-+)*%
X159441623Y-26982440D02*
X156725000Y-29699063D01*
X157550000Y-33524063D02*
X158350000Y-33524063D01*
X156725000Y-29699063D02*
X156725000Y-32699063D01*
X156725000Y-32699063D02*
X157550000Y-33524063D01*
X159441623Y-21618395D02*
X159441623Y-26982440D01*
%TO.N,-1V5*%
X175650000Y-31499063D02*
X176025000Y-31499063D01*
X176025000Y-34999063D02*
X176125000Y-34899063D01*
X193400000Y-37274063D02*
X192925000Y-37274063D01*
X201375000Y-37274063D02*
X192925000Y-37274063D01*
X192925000Y-37274063D02*
X176350000Y-37274063D01*
X177225000Y-32699063D02*
X181300000Y-32699063D01*
X176125000Y-31974063D02*
X175650000Y-31499063D01*
X197630812Y-11199839D02*
X199775776Y-11199839D01*
X176025000Y-31499063D02*
X177225000Y-32699063D01*
X212030672Y-21618391D02*
X211125000Y-22524063D01*
X203050000Y-30599063D02*
X203050000Y-35599063D01*
X176125000Y-34899063D02*
X176125000Y-31974063D01*
X176350000Y-37274063D02*
X174075000Y-34999063D01*
X198950000Y-30924063D02*
X196314526Y-30924063D01*
X194582802Y-31680795D02*
X193400000Y-32863597D01*
X199775776Y-11199839D02*
X199800000Y-11224063D01*
X214585017Y-21618391D02*
X212030672Y-21618391D01*
X184775007Y-34974070D02*
X182500000Y-32699063D01*
X203050000Y-35599063D02*
X201375000Y-37274063D01*
X184775007Y-35049066D02*
X184775007Y-34974070D01*
X174075000Y-34999063D02*
X176025000Y-34999063D01*
X193400000Y-32863597D02*
X193400000Y-37274063D01*
X182500000Y-32699063D02*
X181300000Y-32699063D01*
X211125000Y-22524063D02*
X203050000Y-30599063D01*
X184850000Y-34974070D02*
X184775003Y-35049067D01*
X195557801Y-31680795D02*
X194582802Y-31680795D01*
X184624995Y-34899059D02*
X184775003Y-35049067D01*
X196314526Y-30924063D02*
X195557795Y-31680794D01*
%TO.N,Net-(D2-K)*%
X219499992Y-19349055D02*
X219499992Y-20124067D01*
X218300000Y-18149063D02*
X219499992Y-19349055D01*
X210475000Y-18149063D02*
X218300000Y-18149063D01*
X200775000Y-27849063D02*
X210475000Y-18149063D01*
X200775000Y-30924063D02*
X200775000Y-27849063D01*
X200775000Y-68550000D02*
X200775000Y-65475000D01*
X200775000Y-65475000D02*
X210475000Y-55775000D01*
X210475000Y-55775000D02*
X218300000Y-55775000D01*
X218300000Y-55775000D02*
X219499992Y-56974992D01*
X219499992Y-56974992D02*
X219499992Y-57750004D01*
%TO.N,-1V5*%
X196314526Y-68550000D02*
X195557795Y-69306731D01*
X184624995Y-72524996D02*
X184775003Y-72675004D01*
X195557801Y-69306732D02*
X194582802Y-69306732D01*
X184850000Y-72600007D02*
X184775003Y-72675004D01*
X211125000Y-60150000D02*
X203050000Y-68225000D01*
X182500000Y-70325000D02*
X181300000Y-70325000D01*
X193400000Y-70489534D02*
X193400000Y-74900000D01*
X174075000Y-72625000D02*
X176025000Y-72625000D01*
X184775007Y-72675003D02*
X184775007Y-72600007D01*
X203050000Y-73225000D02*
X201375000Y-74900000D01*
X184775007Y-72600007D02*
X182500000Y-70325000D01*
X214585017Y-59244328D02*
X212030672Y-59244328D01*
X199775776Y-48825776D02*
X199800000Y-48850000D01*
X194582802Y-69306732D02*
X193400000Y-70489534D01*
X198950000Y-68550000D02*
X196314526Y-68550000D01*
X176350000Y-74900000D02*
X174075000Y-72625000D01*
X176125000Y-72525000D02*
X176125000Y-69600000D01*
X203050000Y-68225000D02*
X203050000Y-73225000D01*
X212030672Y-59244328D02*
X211125000Y-60150000D01*
X176025000Y-69125000D02*
X177225000Y-70325000D01*
X197630812Y-48825776D02*
X199775776Y-48825776D01*
X176125000Y-69600000D02*
X175650000Y-69125000D01*
X177225000Y-70325000D02*
X181300000Y-70325000D01*
X192925000Y-74900000D02*
X176350000Y-74900000D01*
X201375000Y-74900000D02*
X192925000Y-74900000D01*
X193400000Y-74900000D02*
X192925000Y-74900000D01*
X176025000Y-72625000D02*
X176125000Y-72525000D01*
X175650000Y-69125000D02*
X176025000Y-69125000D01*
%TO.N,Net-(BT2-+)*%
X159441623Y-59244332D02*
X159441623Y-64608377D01*
X156725000Y-70325000D02*
X157550000Y-71150000D01*
X156725000Y-67325000D02*
X156725000Y-70325000D01*
X157550000Y-71150000D02*
X158350000Y-71150000D01*
X159441623Y-64608377D02*
X156725000Y-67325000D01*
%TO.N,Net-(C1-Pad1)*%
X180775000Y-50925000D02*
X180724998Y-50975002D01*
X173657015Y-49832015D02*
X171425481Y-49832015D01*
X180724998Y-50975002D02*
X179450002Y-50975002D01*
X174800002Y-50975002D02*
X173657015Y-49832015D01*
X179450002Y-50975002D02*
X174800002Y-50975002D01*
X183100000Y-48675000D02*
X180850000Y-50925000D01*
X180850000Y-50925000D02*
X180775000Y-50925000D01*
%TO.N,Net-(C1-Pad2)*%
X194200592Y-45423458D02*
X195251542Y-45423458D01*
X195659224Y-45015776D02*
X197630812Y-45015776D01*
X185975000Y-48675000D02*
X189237994Y-45412006D01*
X190021206Y-45423458D02*
X190009754Y-45412006D01*
X189237994Y-45412006D02*
X190009754Y-45412006D01*
X195251542Y-45423458D02*
X195659224Y-45015776D01*
X194200592Y-45423458D02*
X190021206Y-45423458D01*
%TO.N,Net-(C15-Pad1)*%
X163925486Y-42432026D02*
X165157514Y-41199998D01*
X181249998Y-41199998D02*
X183025000Y-42975000D01*
X165157514Y-41199998D02*
X179524992Y-41199998D01*
X179524992Y-41199998D02*
X181249998Y-41199998D01*
%TO.N,Net-(U3A-+)*%
X206134746Y-46062010D02*
X202804593Y-46062010D01*
X195557801Y-70576732D02*
X197198268Y-70576732D01*
X200075000Y-43400000D02*
X199650000Y-42975000D01*
X197198268Y-70576732D02*
X197200000Y-70575000D01*
X208375000Y-46049998D02*
X206146758Y-46049998D01*
X199650000Y-42975000D02*
X185900000Y-42975000D01*
X208200000Y-52000000D02*
X208350000Y-52000000D01*
X202580812Y-46285776D02*
X201605813Y-46285776D01*
X202804593Y-46062010D02*
X202580818Y-46285785D01*
X197675000Y-62525000D02*
X208200000Y-52000000D01*
X201605813Y-46285776D02*
X200075000Y-44754963D01*
X200075000Y-44754963D02*
X200075000Y-43400000D01*
X210449992Y-46049998D02*
X208375000Y-46049998D01*
X206146758Y-46049998D02*
X206134746Y-46062010D01*
%TO.N,+1V5*%
X181975000Y-66775000D02*
X181300000Y-67450000D01*
X181100005Y-67250005D02*
X181300000Y-67450000D01*
X187675000Y-69125000D02*
X187550000Y-69125000D01*
X185725000Y-66775000D02*
X181975000Y-66775000D01*
X186675000Y-67725000D02*
X185725000Y-66775000D01*
X202580812Y-45015776D02*
X203850000Y-43746588D01*
X186675000Y-68250000D02*
X186675000Y-67725000D01*
X187550000Y-69125000D02*
X186675000Y-68250000D01*
X203850000Y-43746588D02*
X203850000Y-43550000D01*
X219200000Y-54775000D02*
X220850000Y-56425000D01*
X218325000Y-54775000D02*
X219200000Y-54775000D01*
X218325000Y-54775000D02*
X209125000Y-54775000D01*
X176599997Y-67250005D02*
X181100005Y-67250005D01*
X197250000Y-66650000D02*
X188100000Y-66650000D01*
X188100000Y-66825000D02*
X186675000Y-68250000D01*
X188100000Y-66650000D02*
X188100000Y-66825000D01*
X203850000Y-43550000D02*
X217400000Y-43550000D01*
X189141733Y-73116733D02*
X187675000Y-71650000D01*
X217400000Y-43550000D02*
X218325000Y-44475000D01*
X209125000Y-54775000D02*
X197250000Y-66650000D01*
X220850000Y-59400000D02*
X219500000Y-60750000D01*
X187675000Y-71650000D02*
X187675000Y-69125000D01*
X190607807Y-73116733D02*
X189141733Y-73116733D01*
X220850000Y-56425000D02*
X220850000Y-59400000D01*
%TO.N,GND*%
X164893462Y-52700000D02*
X187775000Y-52700000D01*
X168932498Y-42925000D02*
X179525000Y-42925000D01*
X196150000Y-49775000D02*
X195875000Y-49775000D01*
X201631591Y-49775000D02*
X196150000Y-49775000D01*
X224475000Y-49425000D02*
X223650000Y-50250000D01*
X195875000Y-48336574D02*
X196655807Y-47555767D01*
X190607797Y-70576745D02*
X190607802Y-70576740D01*
X195875000Y-49775000D02*
X195875000Y-48336574D01*
X179450000Y-43000000D02*
X179525000Y-42925000D01*
X203980043Y-50225000D02*
X204425000Y-50225000D01*
X187775000Y-52700000D02*
X193225000Y-52700000D01*
X162025480Y-49832018D02*
X164893462Y-52700000D01*
X191548268Y-70576732D02*
X192900000Y-69225000D01*
X202580817Y-48825774D02*
X203980043Y-50225000D01*
X196655807Y-47555767D02*
X197630806Y-47555767D01*
X190607801Y-70576732D02*
X191548268Y-70576732D01*
X223700000Y-68175000D02*
X223700000Y-50300000D01*
X204450000Y-50250000D02*
X223650000Y-50250000D01*
X204425000Y-50225000D02*
X204450000Y-50250000D01*
X202580817Y-48825774D02*
X201631591Y-49775000D01*
X224475000Y-46175000D02*
X224475000Y-49425000D01*
X223700000Y-50300000D02*
X223650000Y-50250000D01*
X179450000Y-49250000D02*
X179450000Y-43000000D01*
X190607797Y-71846722D02*
X190607797Y-70576745D01*
X192900000Y-68000000D02*
X192875000Y-67975000D01*
X192900000Y-69225000D02*
X192900000Y-68000000D01*
X162025480Y-49832018D02*
X168932498Y-42925000D01*
X193225000Y-52700000D02*
X196150000Y-49775000D01*
%TO.N,Net-(U2A--)*%
X195101542Y-47248458D02*
X196064224Y-46285776D01*
X216049998Y-69437501D02*
X212537501Y-69437501D01*
X194200594Y-47248458D02*
X195101542Y-47248458D01*
X190009752Y-47137008D02*
X194089144Y-47137008D01*
X193450000Y-47999052D02*
X194200594Y-47248458D01*
X212275000Y-69225000D02*
X212275000Y-69175000D01*
X196064224Y-46285776D02*
X197630812Y-46285776D01*
X194089144Y-47137008D02*
X194200594Y-47248458D01*
X212537501Y-69437501D02*
X212275000Y-69175000D01*
X193450000Y-48375000D02*
X193450000Y-47999052D01*
%TO.N,Net-(U2B--)*%
X210525002Y-47850002D02*
X210450000Y-47775000D01*
X206134752Y-47887008D02*
X202912048Y-47887008D01*
X202912048Y-47887008D02*
X202580812Y-47555772D01*
X210450000Y-47775000D02*
X206246760Y-47775000D01*
X215200006Y-47850002D02*
X210525002Y-47850002D01*
X206246760Y-47775000D02*
X206134752Y-47887008D01*
%TO.N,Net-(SW1B-B)*%
X166700006Y-72625000D02*
X169025004Y-70300002D01*
X172349992Y-72625012D02*
X171350014Y-72625012D01*
X162350000Y-72625000D02*
X166700006Y-72625000D01*
X162125000Y-72400000D02*
X162350000Y-72625000D01*
X162100000Y-72400000D02*
X162125000Y-72400000D01*
X160850000Y-71150000D02*
X162100000Y-72400000D01*
X171350014Y-72625012D02*
X169025004Y-70300002D01*
%TO.N,Net-(U3B-+)*%
X182399996Y-72524996D02*
X183850000Y-73975000D01*
X183950000Y-73875000D02*
X185399994Y-73875000D01*
X186599993Y-71524993D02*
X186599993Y-72675001D01*
X188918270Y-69306730D02*
X188875000Y-69350000D01*
X183850000Y-73975000D02*
X183950000Y-73875000D01*
X177850008Y-72524996D02*
X182399996Y-72524996D01*
X190607794Y-69306730D02*
X188918270Y-69306730D01*
X184850000Y-69775000D02*
X185637500Y-70562500D01*
X185637500Y-70562500D02*
X186599993Y-71524993D01*
X185399994Y-73875000D02*
X186599993Y-72675001D01*
X184850000Y-68250000D02*
X184850000Y-69775000D01*
%TO.N,Net-(D2-K)*%
X200775000Y-73175216D02*
X200804897Y-73205113D01*
X200775000Y-68550000D02*
X200775000Y-73175216D01*
%TO.N,Net-(L1-Pad2)*%
X224474996Y-43199998D02*
X222500002Y-43199998D01*
X219675000Y-46025000D02*
X215200000Y-46025000D01*
X222500002Y-43199998D02*
X219675000Y-46025000D01*
%TO.N,Net-(L2-Pad2)*%
X216050002Y-71262499D02*
X223587521Y-71262499D01*
X223587521Y-71262499D02*
X223700008Y-71150012D01*
%TO.N,Net-(U4-LX)*%
X174624995Y-67325000D02*
X174699996Y-67249999D01*
X169025000Y-67325000D02*
X174624995Y-67325000D01*
%TO.N,Net-(U3A--)*%
X195557800Y-71846724D02*
X195557800Y-73116726D01*
X195557800Y-73116726D02*
X195557808Y-73116734D01*
X198979895Y-73205115D02*
X195646189Y-73205115D01*
X195646189Y-73205115D02*
X195557808Y-73116734D01*
%TD*%
M02*
