M48
; DRILL file {KiCad 8.0.4} date 2024-08-24T22:44:35-0700
; FORMAT={-:-/ absolute / inch / decimal}
; #@! TF.CreationDate,2024-08-24T22:44:35-07:00
; #@! TF.GenerationSoftware,Kicad,Pcbnew,8.0.4
; #@! TF.FileFunction,Plated,1,2,PTH
FMAT,2
INCH
; #@! TA.AperFunction,Plated,PTH,ViaDrill
T1C0.0118
%
G90
G05
T1
X7.3086Y-1.2967
X7.3086Y-2.7781
X7.3927Y-0.5935
X7.3927Y-2.0748
X7.436Y-1.249
X7.436Y-2.7303
X7.5935Y-1.1948
X7.5935Y-2.6762
X7.6161Y-0.4232
X7.6161Y-1.9045
X7.7638Y-1.2972
X7.7638Y-2.7785
X7.7825Y-0.9803
X7.7825Y-2.4616
X7.8661Y-0.4419
X7.8661Y-1.9232
X8.2028Y-0.5659
X8.2028Y-2.0472
X8.2037Y-0.3317
X8.2037Y-1.813
X8.312Y-0.8868
X8.312Y-2.3681
X8.3573Y-1.2421
X8.3573Y-2.7234
X8.5955Y-0.2696
X8.5955Y-0.6752
X8.5955Y-1.751
X8.5955Y-2.1565
M30
