%TF.GenerationSoftware,KiCad,Pcbnew,(6.0.4-0)*%
%TF.CreationDate,2022-05-05T12:21:51-07:00*%
%TF.ProjectId,GlowArtPCBv2,476c6f77-4172-4745-9043-4276322e6b69,rev?*%
%TF.SameCoordinates,Original*%
%TF.FileFunction,AssemblyDrawing,Bot*%
%FSLAX46Y46*%
G04 Gerber Fmt 4.6, Leading zero omitted, Abs format (unit mm)*
G04 Created by KiCad (PCBNEW (6.0.4-0)) date 2022-05-05 12:21:51*
%MOMM*%
%LPD*%
G01*
G04 APERTURE LIST*
%ADD10C,0.150000*%
%ADD11C,0.100000*%
G04 APERTURE END LIST*
D10*
%TO.C,BT1*%
X72683974Y-52930361D02*
X72647379Y-53076431D01*
X72661955Y-53142179D01*
X72716692Y-53233511D01*
X72837176Y-53310269D01*
X72943085Y-53321278D01*
X73008832Y-53306703D01*
X73100165Y-53251965D01*
X73304851Y-52930673D01*
X72461459Y-52393374D01*
X72282359Y-52674504D01*
X72271349Y-52780413D01*
X72285925Y-52846160D01*
X72340663Y-52937493D01*
X72420986Y-52988664D01*
X72526894Y-52999674D01*
X72592641Y-52985098D01*
X72683974Y-52930361D01*
X72863074Y-52649231D01*
X72537280Y-54135518D02*
X72095503Y-53854076D01*
X72040766Y-53762743D01*
X72051776Y-53656834D01*
X72154119Y-53496188D01*
X72245452Y-53441451D01*
X72497118Y-54109933D02*
X72588451Y-54055195D01*
X72716380Y-53854388D01*
X72727390Y-53748479D01*
X72672652Y-53657146D01*
X72592329Y-53605975D01*
X72486421Y-53594965D01*
X72395088Y-53649702D01*
X72267159Y-53850510D01*
X72175826Y-53905247D01*
X71795919Y-54058449D02*
X71591233Y-54379741D01*
X71438031Y-53999834D02*
X72160938Y-54460376D01*
X72215676Y-54551709D01*
X72204666Y-54657618D01*
X72153494Y-54737941D01*
X71488891Y-54540387D02*
X71284205Y-54861679D01*
X71131003Y-54481772D02*
X71853910Y-54942314D01*
X71908647Y-55033647D01*
X71897637Y-55139556D01*
X71846466Y-55219879D01*
X71422519Y-55796715D02*
X71513852Y-55741978D01*
X71616195Y-55581332D01*
X71627205Y-55475423D01*
X71572467Y-55384091D01*
X71251175Y-55179405D01*
X71145267Y-55168395D01*
X71053934Y-55223132D01*
X70951591Y-55383778D01*
X70940581Y-55489687D01*
X70995318Y-55581020D01*
X71075641Y-55632191D01*
X71411821Y-55281748D01*
X71206824Y-56223916D02*
X70644563Y-55865716D01*
X70805209Y-55968059D02*
X70699300Y-55957049D01*
X70633553Y-55971625D01*
X70542220Y-56026362D01*
X70491048Y-56106685D01*
X70363120Y-56307493D02*
X70797452Y-56866500D01*
X70107263Y-56709108D02*
X70797452Y-56866500D01*
X71049431Y-56914106D01*
X71115179Y-56899530D01*
X71206511Y-56844792D01*
X70673090Y-57238963D02*
X70263719Y-57881547D01*
X69668116Y-58461950D02*
X69733863Y-58447374D01*
X69850782Y-58352475D01*
X69901953Y-58272152D01*
X69938549Y-58126082D01*
X69909397Y-57994588D01*
X69854660Y-57903255D01*
X69719600Y-57760751D01*
X69599115Y-57683994D01*
X69412883Y-57621812D01*
X69306975Y-57610802D01*
X69175480Y-57639954D01*
X69058562Y-57734853D01*
X69007390Y-57815176D01*
X68970795Y-57961246D01*
X68985370Y-58026993D01*
X69273321Y-59170281D02*
X69364654Y-59115544D01*
X69466996Y-58954898D01*
X69478006Y-58848989D01*
X69423269Y-58757656D01*
X69101977Y-58552971D01*
X68996068Y-58541961D01*
X68904735Y-58596698D01*
X68802393Y-58757344D01*
X68791383Y-58863253D01*
X68846120Y-58954586D01*
X68926443Y-59005757D01*
X69262623Y-58655314D01*
X68980868Y-59717966D02*
X68991878Y-59612058D01*
X68937141Y-59520725D01*
X68214234Y-59060182D01*
X68699425Y-60159743D02*
X68710435Y-60053834D01*
X68655698Y-59962501D01*
X67932791Y-59501959D01*
X82828702Y-37006327D02*
X82792107Y-37152397D01*
X82806682Y-37218145D01*
X82861420Y-37309478D01*
X82981904Y-37386235D01*
X83087813Y-37397244D01*
X83153560Y-37382669D01*
X83244893Y-37327931D01*
X83449579Y-37006639D01*
X82606187Y-36469340D01*
X82427087Y-36750470D01*
X82416077Y-36856379D01*
X82430653Y-36922126D01*
X82485390Y-37013459D01*
X82565713Y-37064630D01*
X82671622Y-37075640D01*
X82737369Y-37061065D01*
X82828702Y-37006327D01*
X83007802Y-36725197D01*
X82145645Y-37192247D02*
X81838616Y-37674185D01*
X82835522Y-37970515D02*
X81992130Y-37433216D01*
X82221465Y-38934391D02*
X82528494Y-38452453D01*
X82374979Y-38693422D02*
X81531588Y-38156123D01*
X81703244Y-38152557D01*
X81834738Y-38123405D01*
X81926071Y-38068668D01*
%TO.C,BT2*%
X107990760Y-54063899D02*
X108103427Y-54163807D01*
X108168476Y-54181237D01*
X108274764Y-54174857D01*
X108398482Y-54103429D01*
X108457151Y-54014570D01*
X108474581Y-53949521D01*
X108468201Y-53843233D01*
X108277725Y-53513319D01*
X107411700Y-54013319D01*
X107578367Y-54301994D01*
X107667225Y-54360663D01*
X107732274Y-54378093D01*
X107838562Y-54371713D01*
X107921040Y-54324094D01*
X107979710Y-54235236D01*
X107997139Y-54170187D01*
X107990760Y-54063899D01*
X107824093Y-53775224D01*
X108992011Y-54750498D02*
X108538379Y-55012403D01*
X108432091Y-55018783D01*
X108343232Y-54960113D01*
X108247994Y-54795156D01*
X108241614Y-54688868D01*
X108950772Y-54774308D02*
X108944392Y-54668019D01*
X108825344Y-54461823D01*
X108736486Y-54403154D01*
X108630198Y-54409534D01*
X108547719Y-54457153D01*
X108489050Y-54546011D01*
X108495430Y-54652299D01*
X108614478Y-54858496D01*
X108620857Y-54964784D01*
X108581327Y-55372507D02*
X108771804Y-55702421D01*
X108364081Y-55662891D02*
X109106388Y-55234320D01*
X109212676Y-55227940D01*
X109301535Y-55286609D01*
X109349154Y-55369088D01*
X108867042Y-55867378D02*
X109057518Y-56197293D01*
X108649795Y-56157763D02*
X109392103Y-55729191D01*
X109498391Y-55722812D01*
X109587249Y-55781481D01*
X109634868Y-55863959D01*
X109950772Y-56506358D02*
X109944392Y-56400070D01*
X109849154Y-56235113D01*
X109760295Y-56176444D01*
X109654007Y-56182824D01*
X109324093Y-56373300D01*
X109265424Y-56462158D01*
X109271804Y-56568446D01*
X109367042Y-56733404D01*
X109455900Y-56792073D01*
X109562188Y-56785693D01*
X109644667Y-56738074D01*
X109489050Y-56278062D01*
X110230106Y-56894942D02*
X109652756Y-57228275D01*
X109817713Y-57133037D02*
X109759044Y-57221895D01*
X109741614Y-57286944D01*
X109747994Y-57393232D01*
X109795613Y-57475711D01*
X109914661Y-57681908D02*
X110611059Y-57554771D01*
X110152756Y-58094301D02*
X110611059Y-57554771D01*
X110769636Y-57353245D01*
X110787066Y-57288196D01*
X110780686Y-57181908D01*
X110884013Y-57837066D02*
X111264966Y-58496895D01*
X111504770Y-59293201D02*
X111522200Y-59228152D01*
X111492011Y-59080625D01*
X111444392Y-58998146D01*
X111331724Y-58898238D01*
X111201626Y-58863378D01*
X111095338Y-58869758D01*
X110906572Y-58923757D01*
X110782854Y-58995186D01*
X110641706Y-59131663D01*
X110583037Y-59220521D01*
X110548177Y-59350619D01*
X110578367Y-59498146D01*
X110625986Y-59580625D01*
X110738653Y-59680533D01*
X110803702Y-59697963D01*
X111950772Y-59970460D02*
X111944392Y-59864172D01*
X111849154Y-59699215D01*
X111760295Y-59640546D01*
X111654007Y-59646925D01*
X111324093Y-59837401D01*
X111265424Y-59926260D01*
X111271804Y-60032548D01*
X111367042Y-60197505D01*
X111455900Y-60256174D01*
X111562188Y-60249795D01*
X111644667Y-60202175D01*
X111489050Y-59742163D01*
X112301535Y-60482761D02*
X112212676Y-60424092D01*
X112106388Y-60430472D01*
X111364081Y-60859044D01*
X112563440Y-60936394D02*
X112474581Y-60877725D01*
X112368293Y-60884104D01*
X111625986Y-61312676D01*
X120550283Y-75817632D02*
X120662951Y-75917541D01*
X120728000Y-75934970D01*
X120834288Y-75928591D01*
X120958006Y-75857162D01*
X121016675Y-75768304D01*
X121034105Y-75703255D01*
X121027725Y-75596967D01*
X120837249Y-75267052D01*
X119971224Y-75767052D01*
X120137890Y-76055727D01*
X120226749Y-76114397D01*
X120291798Y-76131826D01*
X120398086Y-76125447D01*
X120480564Y-76077828D01*
X120539233Y-75988969D01*
X120556663Y-75923920D01*
X120550283Y-75817632D01*
X120383617Y-75528957D01*
X120399795Y-76509360D02*
X120685509Y-77004232D01*
X121408678Y-76256796D02*
X120542652Y-76756796D01*
X120910845Y-77204048D02*
X120893415Y-77269097D01*
X120899795Y-77375385D01*
X121018843Y-77581582D01*
X121107701Y-77640251D01*
X121172750Y-77657681D01*
X121279038Y-77651301D01*
X121361517Y-77603682D01*
X121461425Y-77491014D01*
X121670582Y-76710428D01*
X121980106Y-77246539D01*
%TO.C,SW1*%
X91303333Y-104974761D02*
X91160476Y-105022380D01*
X90922380Y-105022380D01*
X90827142Y-104974761D01*
X90779523Y-104927142D01*
X90731904Y-104831904D01*
X90731904Y-104736666D01*
X90779523Y-104641428D01*
X90827142Y-104593809D01*
X90922380Y-104546190D01*
X91112857Y-104498571D01*
X91208095Y-104450952D01*
X91255714Y-104403333D01*
X91303333Y-104308095D01*
X91303333Y-104212857D01*
X91255714Y-104117619D01*
X91208095Y-104070000D01*
X91112857Y-104022380D01*
X90874761Y-104022380D01*
X90731904Y-104070000D01*
X90398571Y-104022380D02*
X90160476Y-105022380D01*
X89970000Y-104308095D01*
X89779523Y-105022380D01*
X89541428Y-104022380D01*
X88636666Y-105022380D02*
X89208095Y-105022380D01*
X88922380Y-105022380D02*
X88922380Y-104022380D01*
X89017619Y-104165238D01*
X89112857Y-104260476D01*
X89208095Y-104308095D01*
D11*
%TO.C,BT1*%
X78435446Y-31937767D02*
X51570465Y-74107339D01*
X89399534Y-38922662D02*
X83917490Y-35430214D01*
X51570465Y-74107339D02*
X62534554Y-81092234D01*
X83917490Y-35430214D02*
X78435446Y-31937767D01*
X62534554Y-81092234D02*
X89399534Y-38922662D01*
%TO.C,BT2*%
X122355000Y-78800636D02*
X127984165Y-75550636D01*
X102984165Y-32249365D02*
X91725835Y-38749365D01*
X116725835Y-82050636D02*
X122355000Y-78800636D01*
X127984165Y-75550636D02*
X102984165Y-32249365D01*
X91725835Y-38749365D02*
X116725835Y-82050636D01*
%TO.C,flat side*%
X113348079Y-80569310D02*
X113675740Y-80339879D01*
X113068964Y-82315132D02*
X113068964Y-82315132D01*
X113068964Y-82315132D02*
X112340522Y-81274809D01*
X112340522Y-81274809D02*
X113068964Y-82315132D01*
X109252319Y-83437192D02*
X105753503Y-78440364D01*
X110988318Y-83772016D02*
X110988318Y-83772016D01*
X109252319Y-83437192D02*
X113348079Y-80569310D01*
X110988318Y-83772016D02*
X110259876Y-82731693D01*
X110259876Y-82731693D02*
X110988318Y-83772016D01*
X113102164Y-79520727D02*
X112774503Y-79750158D01*
X113348079Y-80569310D02*
X109849263Y-75572482D01*
X110259876Y-82731693D02*
X110259876Y-82731693D01*
X112774503Y-79750158D02*
X113348079Y-80569310D01*
X112340522Y-81274809D02*
X112340522Y-81274809D01*
X113675740Y-80339879D02*
X113102164Y-79520727D01*
X109849263Y-75572482D02*
G75*
G03*
X105753503Y-78440364I-2047880J-1433941D01*
G01*
%TO.C,SW1*%
X85470000Y-102470000D02*
X85470000Y-106470000D01*
X91720000Y-106470000D02*
X91720000Y-108470000D01*
X85470000Y-106470000D02*
X94470000Y-106470000D01*
X91720000Y-108470000D02*
X90220000Y-108470000D01*
X93470000Y-102470000D02*
X85470000Y-102470000D01*
X90220000Y-108470000D02*
X90220000Y-106470000D01*
X93470000Y-102470000D02*
X94470000Y-103470000D01*
X94470000Y-106470000D02*
X94470000Y-103470000D01*
%TO.C,flat side*%
X65235925Y-84664990D02*
X69156929Y-79992119D01*
X66178159Y-85455619D02*
X65361819Y-86428495D01*
X65235925Y-84664990D02*
X69066147Y-87878928D01*
X69372565Y-88136043D02*
X70015352Y-87369998D01*
X65361819Y-86428495D02*
X65361819Y-86428495D01*
X65361819Y-86428495D02*
X66178159Y-85455619D01*
X69708934Y-87112883D02*
X69066147Y-87878928D01*
X67307572Y-88061176D02*
X68123912Y-87088299D01*
X69066147Y-87878928D02*
X72987151Y-83206057D01*
X68123912Y-87088299D02*
X67307572Y-88061176D01*
X66178159Y-85455619D02*
X66178159Y-85455619D01*
X70015352Y-87369998D02*
X69708934Y-87112883D01*
X69066147Y-87878928D02*
X69372565Y-88136043D01*
X68123912Y-87088299D02*
X68123912Y-87088299D01*
X67307572Y-88061176D02*
X67307572Y-88061176D01*
X72987151Y-83206057D02*
G75*
G03*
X69156929Y-79992119I-1915111J1606969D01*
G01*
%TD*%
M02*
