%TF.GenerationSoftware,KiCad,Pcbnew,(6.0.4-0)*%
%TF.CreationDate,2022-05-05T12:21:51-07:00*%
%TF.ProjectId,GlowArtPCBv2,476c6f77-4172-4745-9043-4276322e6b69,rev?*%
%TF.SameCoordinates,Original*%
%TF.FileFunction,Copper,L2,Bot*%
%TF.FilePolarity,Positive*%
%FSLAX46Y46*%
G04 Gerber Fmt 4.6, Leading zero omitted, Abs format (unit mm)*
G04 Created by KiCad (PCBNEW (6.0.4-0)) date 2022-05-05 12:21:51*
%MOMM*%
%LPD*%
G01*
G04 APERTURE LIST*
G04 Aperture macros list*
%AMRotRect*
0 Rectangle, with rotation*
0 The origin of the aperture is its center*
0 $1 length*
0 $2 width*
0 $3 Rotation angle, in degrees counterclockwise*
0 Add horizontal line*
21,1,$1,$2,0,0,$3*%
G04 Aperture macros list end*
%TA.AperFunction,ComponentPad*%
%ADD10R,1.800000X1.800000*%
%TD*%
%TA.AperFunction,ComponentPad*%
%ADD11C,1.800000*%
%TD*%
%TA.AperFunction,ComponentPad*%
%ADD12RotRect,2.000000X2.000000X237.500000*%
%TD*%
%TA.AperFunction,ComponentPad*%
%ADD13C,2.000000*%
%TD*%
%TA.AperFunction,ComponentPad*%
%ADD14RotRect,2.000000X2.000000X120.000000*%
%TD*%
%TA.AperFunction,ComponentPad*%
%ADD15RotRect,1.800000X1.800000X35.000000*%
%TD*%
%TA.AperFunction,ComponentPad*%
%ADD16R,1.400000X1.400000*%
%TD*%
%TA.AperFunction,ComponentPad*%
%ADD17C,1.400000*%
%TD*%
%TA.AperFunction,ComponentPad*%
%ADD18RotRect,1.800000X1.800000X320.000000*%
%TD*%
%TA.AperFunction,Conductor*%
%ADD19C,0.250000*%
%TD*%
G04 APERTURE END LIST*
D10*
%TO.P,flat side,1,K*%
%TO.N,Net-(D1-Pad1)*%
X87757000Y-85471000D03*
D11*
%TO.P,flat side,2,A*%
%TO.N,Net-(D1-Pad2)*%
X90297000Y-85471000D03*
%TD*%
D12*
%TO.P,BT1,1,+*%
%TO.N,Net-(BT1-Pad1)*%
X82466781Y-37707371D03*
D13*
%TO.P,BT1,2,-*%
%TO.N,Net-(D1-Pad1)*%
X58449489Y-75406969D03*
%TD*%
%TO.P,BT2,2,-*%
%TO.N,Net-(BT1-Pad1)*%
X98655000Y-37751031D03*
D14*
%TO.P,BT2,1,+*%
%TO.N,Net-(SW1-Pad2)*%
X121005000Y-76462367D03*
%TD*%
D15*
%TO.P,flat side,1,K*%
%TO.N,Net-(D1-Pad1)*%
X110988318Y-83772016D03*
D11*
%TO.P,flat side,2,A*%
%TO.N,Net-(D1-Pad2)*%
X113068964Y-82315132D03*
%TD*%
D16*
%TO.P,SW1,1,A*%
%TO.N,unconnected-(SW1-Pad1)*%
X92470000Y-102820000D03*
D17*
%TO.P,SW1,2,B*%
%TO.N,Net-(SW1-Pad2)*%
X89970000Y-102820000D03*
%TO.P,SW1,3,C*%
%TO.N,Net-(D1-Pad2)*%
X87470000Y-102820000D03*
%TD*%
D18*
%TO.P,flat side,1,K*%
%TO.N,Net-(D1-Pad1)*%
X65361819Y-86428495D03*
D11*
%TO.P,flat side,2,A*%
%TO.N,Net-(D1-Pad2)*%
X67307572Y-88061176D03*
%TD*%
D19*
%TO.N,Net-(D1-Pad1)*%
X58449489Y-75406969D02*
X58449489Y-75770511D01*
X58449489Y-75770511D02*
X55810000Y-78580000D01*
X55810000Y-78580000D02*
X55460000Y-81320000D01*
X55460000Y-81320000D02*
X55630000Y-81880000D01*
X55630000Y-81880000D02*
X56000000Y-82950000D01*
X56000000Y-82950000D02*
X56610000Y-84170000D01*
X58978495Y-86428495D02*
X65361819Y-86428495D01*
X56610000Y-84170000D02*
X58978495Y-86428495D01*
X65361819Y-86428495D02*
X67220314Y-84570000D01*
X67220314Y-84570000D02*
X71990000Y-86380000D01*
X71990000Y-86380000D02*
X76990000Y-84070000D01*
X76990000Y-84070000D02*
X87460000Y-84070000D01*
X87460000Y-84070000D02*
X87757000Y-84367000D01*
X87757000Y-84367000D02*
X87757000Y-85471000D01*
%TO.N,Net-(D1-Pad2)*%
X113068964Y-82315132D02*
X113830000Y-83076168D01*
X112150000Y-87300000D02*
X108860000Y-87300000D01*
X103270000Y-85570000D02*
X102080000Y-84380000D01*
X113830000Y-83076168D02*
X113830000Y-85620000D01*
X113830000Y-85620000D02*
X112150000Y-87300000D01*
X108860000Y-87300000D02*
X107130000Y-85570000D01*
X102080000Y-84380000D02*
X91388000Y-84380000D01*
X107130000Y-85570000D02*
X103270000Y-85570000D01*
X91388000Y-84380000D02*
X90297000Y-85471000D01*
%TO.N,Net-(D1-Pad1)*%
X110988318Y-83772016D02*
X110360334Y-84400000D01*
X110360334Y-84400000D02*
X105060000Y-84400000D01*
X102500000Y-81840000D02*
X88740000Y-81840000D01*
X88740000Y-81840000D02*
X87757000Y-82823000D01*
X105060000Y-84400000D02*
X102500000Y-81840000D01*
X87757000Y-82823000D02*
X87757000Y-85471000D01*
%TO.N,Net-(SW1-Pad2)*%
X89905000Y-102885000D02*
X92940000Y-99850000D01*
X92940000Y-99850000D02*
X104730000Y-99850000D01*
X104730000Y-99850000D02*
X115380000Y-89200000D01*
X115750000Y-82380000D02*
X116890000Y-83520000D01*
X120300000Y-83520000D02*
X122410000Y-81410000D01*
X115380000Y-82750000D02*
X115750000Y-82380000D01*
X122410000Y-81410000D02*
X122320000Y-78300000D01*
X115380000Y-89200000D02*
X115380000Y-82750000D01*
X116890000Y-83520000D02*
X120300000Y-83520000D01*
X122320000Y-78300000D02*
X121005000Y-76462367D01*
%TO.N,Net-(D1-Pad2)*%
X86350000Y-100020000D02*
X87490000Y-101160000D01*
X87490000Y-101160000D02*
X87490000Y-102800000D01*
X87490000Y-102800000D02*
X87405000Y-102885000D01*
%TO.N,Net-(BT1-Pad1)*%
X98655000Y-37751031D02*
X95221031Y-37751031D01*
X93050000Y-35580000D02*
X84590000Y-35580000D01*
X95221031Y-37751031D02*
X93050000Y-35580000D01*
X84590000Y-35580000D02*
X84190000Y-35980000D01*
X84190000Y-35980000D02*
X84190000Y-35984152D01*
X84190000Y-35984152D02*
X82466781Y-37707371D01*
%TO.N,Net-(D1-Pad2)*%
X74940000Y-100020000D02*
X82830000Y-100020000D01*
X74770000Y-99850000D02*
X74940000Y-100020000D01*
X67307572Y-92387572D02*
X74770000Y-99850000D01*
X86350000Y-100020000D02*
X90297000Y-96073000D01*
X67307572Y-88061176D02*
X67307572Y-92387572D01*
X82830000Y-100020000D02*
X86350000Y-100020000D01*
X90297000Y-96073000D02*
X90297000Y-85471000D01*
%TD*%
M02*
