<?xml version="1.0" encoding="UTF-8" standalone="no"?>
<!DOCTYPE svg PUBLIC "-//W3C//DTD SVG 1.1//EN" "http://www.w3.org/Graphics/SVG/1.1/DTD/svg11.dtd">
<svg width="100%" height="100%" viewBox="0 0 833 871" version="1.1" xmlns="http://www.w3.org/2000/svg" xmlns:xlink="http://www.w3.org/1999/xlink" xml:space="preserve" xmlns:serif="http://www.serif.com/" style="fill-rule:evenodd;clip-rule:evenodd;">
    <g transform="matrix(1,0,0,1,-165.872,-64.7955)">
        <g id="p1" transform="matrix(0.972342,-0.0132399,0.013284,0.975583,8.06923,18.6798)">
            <path d="M266.63,54.36C270.06,57.12 273.74,60.26 276.83,63.38C277.76,65.99 277.22,69.27 277.15,72C276.88,76.5 277.07,80.77 277.87,85.2C279.06,94.99 283.99,104.3 290.17,111.86C293.12,116.11 298.99,117.65 303.66,119.3C308.64,120.72 312.44,123.59 316.84,126.15C321.79,129.25 326.98,131.93 331.82,135.18C344.38,144.13 356.46,153.79 368.21,163.79C377.14,172.53 385.9,181.45 394.77,190.24C397.51,192.88 399.51,196.11 402.26,198.73C404.31,200.73 406.23,202.78 407.93,205.08C414.98,213.51 422.04,221.55 428.47,230.55C435.68,239.78 442.44,249.34 448.84,259.15C451.23,264.03 454.39,268.31 457.47,272.76C460.1,269.3 463.21,266.28 465.95,262.91C470.32,259.98 475.55,259.29 480.65,260.29C484.54,261.61 487.02,265.43 485.76,269.52C483.8,271.02 482.56,271.91 479.99,271.51C480.95,274.29 481.54,277.2 481.96,280.11C482.03,283.04 480.4,285.94 480.22,288.87C483.08,293.25 482.01,299.1 478.41,302.73C481.37,305.67 490.79,325.74 492.13,327.9C493.52,330.82 502.2,340.09 504.72,342.27C509.276,348.41 523.978,357.741 537.78,359.21C541.497,359.606 545.292,359.723 549.104,359.618C574.546,358.911 600.764,348.244 609.73,343.69C618.189,339.393 630.4,333.939 642.25,333.039C656.501,331.956 672.52,334.65 683.29,344.7C689.43,350.52 693.08,359.44 691.97,367.91C691.27,374.9 687.35,381.52 682.12,386.1C677.82,389.48 672.58,392.19 666.94,391.4C663.69,390.89 660.17,389.6 657.78,387.25C654.86,384.14 652.91,380.02 651.99,375.88C651.78,371.22 653.51,367.01 656.39,363.4C653.52,363.02 650.93,361.95 648,362C641.61,361.54 634.87,363.55 629.09,366.18C625.89,367.6 623.29,370.29 620.5,372.5C616.62,375.6 614.35,380.38 611.27,384.27C608.61,387.64 607.25,391.61 606.85,395.87C606,400.65 605.58,405.31 606.99,410.04C608.14,413.55 608.41,417.05 611.89,419.07C615.2,421.36 618.01,421.37 621.75,420.21C621.7,418.1 621.24,415.82 621.66,413.75C623.71,410.93 626.71,410.49 629.6,412.36C633.28,415.1 633.06,419.89 633.15,424.03C633.33,427.83 630.25,430.71 629.13,434.21C627.85,438.01 628.52,441.77 629.56,445.53C630.89,448.16 632.86,450.09 634.57,452.42C637.52,456.86 1001.57,942.572 1004.68,946.3C1008.07,950.356 1001.31,952.06 996.825,952.339C986.723,952.967 983.96,952.15 973.45,948.6C961.82,945.09 950.39,940.79 939.43,935.56C929.85,930.58 920.43,925.37 911.18,919.81C902.78,914.22 894.29,908.74 886.03,902.96C869.46,890.48 853.02,877.27 837.63,863.38C831.83,859.14 827.61,853.49 822.05,848.97C815.34,843.7 810.22,836.82 803.39,831.6C794.97,824.09 655.39,676.02 648.88,669.13C646.25,665.43 524.08,537.17 516.41,533.14C513.69,531.7 511.05,529.99 508.29,528.66C505.34,530.09 502.32,533.05 499.03,533.32C495.09,533.56 490.64,533.33 487.71,530.32C483.78,527.32 483.82,521.24 486.36,517.39C488.72,515.52 491.12,516.1 493.92,515.88C494.62,517.51 495.28,519.16 495.97,520.79C497.49,518.9 498.81,516.91 499.62,514.61C500.65,508.59 500.57,502.65 495.77,498.23C489.88,493.89 482.31,491.92 475.06,492.01C464.44,493.61 454.12,496.86 445.58,503.59C436.99,510.1 431.03,519.56 429.81,530.37C434.44,530.77 438.56,530.6 442.49,533.5C446.82,536.07 448.64,540.55 449.89,545.2C451.65,557.17 440.54,570.81 428.04,569.74C419.88,570.22 411.51,567.01 405.62,561.38C401.58,557.57 400.12,552.79 398.26,547.72C395.63,539.99 395.91,531.84 398.04,524.04C400.76,514.09 406.69,504.93 412.29,496.3C419.37,485.8 427.81,476.28 434.58,465.58C438.63,458.06 443.58,449.89 444.19,441.17C445.31,435.81 445.07,430.46 444.96,425.02C443.94,416.34 441.21,408.28 437.63,400.35C434.06,394.2 429.95,388.13 424.77,383.23C416.76,375.16 407.53,368.43 396.99,364.05C395.07,363.16 393.19,362.84 391.72,361.3C390.4,360.1 389.31,359.33 387.84,358.33C387.835,358.327 387.842,358.322 387.84,358.33C387.12,360.94 388.52,365.52 385.42,366.54C383.32,367.84 381.5,366.38 379.75,365.24C376.94,363.13 375.99,360.14 375.1,356.89C375.43,354.04 377.183,350.115 376.97,348.33C376.819,347.068 375.025,346.584 373.82,346.18C371.865,345.525 368.13,344.82 365.24,344.4C362.63,345.09 362.01,347.16 360.57,349.15C361.46,350.1 362.37,351.04 363.28,351.97C363.02,352.822 361.25,354.82 359.86,355.04C355.52,354.6 351.77,350.11 353.63,345.71C352.21,347.39 350.8,350.682 349.1,350.49C347.4,350.298 344.13,347.75 343.43,344.56C343.22,341.91 343.16,339.03 344.61,336.69C345.5,334.79 347.22,334.05 348.48,332.47C349.71,330.82 351.06,329.27 352.43,327.73C348.77,324.58 344.5,322.33 340.8,319.22C336.91,316 332.74,313.21 328.47,310.52C320.84,304.81 313.23,299.1 305.67,293.31C297.44,285.63 288.83,278.38 281.7,269.31C274.7,262.47 268.94,254.7 263.05,246.94C259.71,243.25 256.58,239.41 253.39,235.6C250.01,230.98 245.43,227.56 242,222.98C239.09,219.79 236.78,216.21 234.26,212.73C232.65,210.43 223.53,189.61 221.72,180.96C220.42,174.93 215.26,171 211,166.99C208.13,163.97 203.73,163.89 199.89,163.13C192.29,161.64 183.56,163.58 176.21,164.03C173.89,162.88 172.03,160.61 169.87,159.12C163.39,154.21 160.58,145.92 160.85,138C160.59,130.79 163.5,123.4 167.51,117.5C169.24,114.67 172.02,113.64 174.2,111.2C178.36,105.98 185.77,103.46 192.07,102.08C198.82,101.91 204.92,101.26 211.33,103.67C216.29,105.21 220.27,108.27 224.89,110.42C223.28,107.3 221.17,104.53 219.4,101.53C218.33,98.38 217.85,94.99 217.22,91.73C216.54,87.61 217.67,84.21 218.07,80.1C219.22,74.37 221.91,69.21 226.11,65.11C230.19,58.73 236.63,54.98 243.66,52.59C250.97,50.04 259.77,50.9 266.63,54.36Z" style="fill-opacity:0;fill-rule:nonzero;stroke:black;stroke-width:0.2px;"/>
        </g>
    </g>
</svg>
