<?xml version="1.0" encoding="UTF-8" standalone="no"?>
<!DOCTYPE svg PUBLIC "-//W3C//DTD SVG 1.1//EN" "http://www.w3.org/Graphics/SVG/1.1/DTD/svg11.dtd">
<svg width="100%" height="100%" viewBox="0 0 270 231" version="1.1" xmlns="http://www.w3.org/2000/svg" xmlns:xlink="http://www.w3.org/1999/xlink" xml:space="preserve" xmlns:serif="http://www.serif.com/" style="fill-rule:evenodd;clip-rule:evenodd;stroke-linejoin:round;stroke-miterlimit:2;">
    <g transform="matrix(1,0,0,1,-75.3208,-198.962)">
        <g id="PANEL-EDGECUTS" transform="matrix(0.243415,0,0,0.243415,210.051,314.097)">
            <g transform="matrix(1,0,0,1,-553.5,-473)">
                <clipPath id="_clip1">
                    <rect x="0" y="0" width="1107" height="946"/>
                </clipPath>
                <g clip-path="url(#_clip1)">
                    <g>
                        <path d="M929.05,0L931.21,0C930.96,1.18 932.94,1.59 932.98,3C933.27,5.04 932.72,7.11 932.58,9C931.57,12.68 931.84,16.97 933.54,20.45C934.73,25.23 939.15,29.1 942.46,32.54C947.37,36.42 952.61,39.94 958,43.11C970.27,49.72 980.37,59.57 987.46,71.54C989.79,75.42 992.09,79.64 993.33,84C995.55,88.41 996.64,93.67 997.46,98.55C998.78,101.32 997.94,104.39 998.94,107C999.26,116.48 1000.15,127.84 997.32,137C997.27,138.83 996.25,140.25 996.42,142C996.05,147.52 994.84,152.79 998.46,157.54C1001.51,159.35 1004.73,157.83 1007.66,156.63C1013.51,153.02 1016.18,147.27 1018.25,141C1021.25,131.47 1027.55,122.62 1035.33,116.35C1041.4,112.47 1047.98,109.8 1055,108.42C1056.67,108.29 1058.32,108.2 1060,108.36C1063.38,109.25 1065.51,112.51 1064.59,116C1061.95,123.18 1062.76,132.38 1063.04,140C1064.04,148.84 1068.98,157.62 1074.46,164.54C1081.32,173.86 1087.17,183.4 1089.04,195C1090.02,197.76 1089.88,201.08 1090.15,204C1090.65,210.85 1090.35,217.16 1087.46,223.45C1085.71,228.28 1081.78,231.22 1079.64,235.72C1077.8,238.6 1078.54,241.3 1078.46,244.56C1079.14,245.18 1079.98,245.44 1081,245.32C1084.67,245.21 1088.38,244.63 1092,245.35C1098.8,247.21 1102.2,254.31 1101.15,261C1100.47,264.14 1099.39,267.74 1096.33,269.37C1092.78,271.64 1087.43,270.72 1083.36,271.4C1082.85,272.09 1082.62,272.96 1082.69,274C1082.5,279.04 1083.17,283.98 1082.67,289C1082.68,291.33 1082.49,294.03 1084.23,295.83C1086.86,298.77 1088.37,302.14 1089.31,305.94C1090.64,310.3 1094.62,311.28 1094.88,316C1095.01,325.98 1095.05,336.02 1094.78,346C1094.61,350.06 1091.75,351.08 1089.73,353.95C1088.24,357.59 1087.42,361.96 1085.46,365.45C1084.73,368.52 1082.82,370.71 1082.87,374C1082.31,384.28 1083.01,394.7 1082.78,405C1082.05,413.7 1077.55,422.71 1069,426.04C1066.56,427.34 1064,427.27 1061.54,428.54C1058.9,428.78 1055.72,428.43 1053.24,429.17C1053.5,432.57 1054.19,435.93 1053.54,439.54C1051.78,442.58 1050.52,445.46 1047.4,447.41C1046.37,448.31 1044.44,448.79 1045.46,450.54C1048.65,450.9 1052.92,449.98 1055.81,451.04L1056.13,452C1056.13,462.33 1056.14,472.67 1056.12,483L1055.8,483.84C1053,484.79 1049.38,483.73 1046.44,484.43L1046.46,485.54C1049.78,487.39 1051.52,490.43 1053.54,493.46C1054.55,496.4 1053.67,499.72 1054.44,502.56C1058.94,502.92 1063.67,502.91 1068,504.16C1074.79,505.6 1080.88,509.77 1084.14,516C1086.51,520.13 1088.13,525.19 1087.9,530C1087.85,540 1087.9,550 1087.9,560C1088.28,574.34 1087.6,588.65 1087.98,603C1088.04,621.37 1087.91,639.62 1087.98,658C1087.87,658.97 1087.99,659.86 1088.33,660.66C1092.17,661.03 1096.98,660.07 1101,662.03C1103.37,663.11 1105.22,665.56 1106.01,668C1106.75,669.23 1105.87,671.31 1107,672.05L1107,674.46L1106.46,674.46C1106.82,679.2 1104.5,683.09 1100.58,685.57C1095.68,687.54 1090.69,687.31 1085.46,687.46L1084.46,688.46C1084.53,691.45 1083.77,694.76 1084.42,697.63C1085.59,700.64 1088.03,701.61 1090.24,703.72C1095.77,707.97 1099.82,714.19 1102.46,720.56C1104.31,724.45 1104.29,728.73 1104.42,733C1105.34,744.84 1097.85,756.7 1089.11,764.16C1085.86,766.71 1082.75,769.26 1079.05,771.25C1077,772.47 1074.05,772.56 1072.39,770.62C1070.51,767.69 1071.78,763.52 1070.54,760.45C1068.13,756.11 1063.58,752.91 1059,751.2C1057.27,750.91 1056.24,749.97 1054.46,750.46C1054.41,754.03 1054.47,757.46 1053.72,761C1050.84,769.01 1043.12,772.39 1039.69,779.87C1037.6,783.85 1036.48,787.68 1035.42,792C1035.31,794.95 1035.13,798.17 1034.42,801C1034.03,807.21 1034.34,813.82 1032.66,819.77C1030.91,823.9 1027.04,824.54 1023,823.68C1018.77,822.28 1014.73,820.61 1011,818.13C1007.18,815.28 1002.8,811.58 999,808.94C997.53,809.38 997.2,812.81 996.28,814.07C992.1,824.59 982.41,831.58 972.75,836.67C968.69,838.71 964.51,840.25 960.57,842.56C954.68,845.26 948.5,847.15 945.46,853.45C943.25,862.42 946.36,871.07 946.41,880C946.14,888.85 946.01,896.82 942.34,905C939.77,914.22 933.62,920.41 926.81,926.75C923.75,928.93 920.57,931.73 917,932.72C914.93,933.08 912.67,931.12 912.75,929C912.72,925.06 914.27,922.09 913.71,918C913.71,914.52 911.97,910.94 910.16,908C903.71,899.03 894.3,893.65 885,888.1C866.54,877.35 853.72,858.64 848.96,838C846.29,829.27 846.65,819.12 846.58,810C846.53,803.35 847.87,797.28 849.57,791C849.34,786.93 850.85,781.75 848.93,778C848.14,776.26 847.16,774.61 845,774.57C838.59,774.15 833.23,779.17 830.54,784.54C828.64,787.51 827.75,790.63 826.72,793.95C825.34,797.93 823.37,801.52 821,805C816.82,810.99 812.13,816.36 805.32,819.36C799.31,822.35 790.74,825.95 784.04,823.75C779.6,821.34 780.97,816.33 782.54,812.55C783.26,805.43 783.29,798.12 782.58,791C780.74,782.69 776.82,775.18 771.42,768.58C765.66,760.24 759.57,751.65 757.46,741.58C756.37,736.22 755.47,731.54 755.58,726C755.56,720.96 755.32,716.23 757.54,711.55C758.98,705.89 762.97,702.68 765.74,697.9C767.53,695.02 767.56,691.21 766.84,688.04C764.17,686.83 760.02,688.22 757,687.86C751.9,688.06 746.76,684.49 745.54,679.45C742.53,673.96 745.09,664.45 751.44,662.46C755.05,661.76 758.87,661.79 762.54,661.54C762.95,660.81 763.12,659.96 763.05,659C763.06,653 763,647 763.05,641C763.18,637.9 760.94,636.83 759.59,634.41C756.5,630.38 756.87,624.01 752.25,621.3C751.19,625.02 752.35,629.74 751.61,633.62C750.81,633.92 749.94,634.04 749,633.97C739.33,633.96 729.67,633.97 720,633.96L719.17,634.23C717.71,644.29 719.28,657.42 718.58,668L719.04,668.84C722.17,669.55 725.74,668.8 729,669.42C733.43,670.57 736.77,674.39 737.18,679C738.44,685.79 735.29,693.69 728.04,695.25C724.23,696.4 719.25,695.39 715.46,696.46C715.12,700.03 713.77,705.68 716.46,708.54C719.31,711.05 722.34,713.36 725.06,715.96C730.1,722.17 734.1,728.93 734.93,737C735.01,742.4 735.46,747.62 733.66,752.79C731.73,757.04 729.9,761.3 726.98,765C722.44,770.96 716.19,775.86 709.82,779.71C707.54,780.74 703.96,780.97 702.46,778.54C701.73,775.56 702.1,772.49 701.54,769.46C699.05,765.07 694.68,761.67 690,759.91C688.39,759.78 686.84,758.38 685.27,759.21C684.76,763.23 685.37,767.08 683.76,771C680.23,778.15 673.21,781.49 669.99,789C664.59,799.61 665.01,812.77 664.54,824.55C663.37,827.38 663.18,830.31 660,831.84C657.02,832.99 652.16,832.33 649.54,830.46C642.11,828.65 635.49,821.14 629.27,817.29C628.25,818.74 627.94,820.42 627.12,822C624.66,828.27 620.27,833.82 614.85,837.79C608.59,842.96 601.6,846.07 594.31,849.36C588.42,852.92 582.34,853.83 577.96,859C573.83,863.81 575.42,870.78 575.46,876.54C576.08,877.87 576.69,879.51 576.61,881C577.67,893.83 576.9,906.29 571.21,918C569.02,923.76 564.91,927.51 560.96,932C557.83,935.2 553.92,937.99 550.06,940.27C548.33,941.29 545.56,941.65 544.21,939.83C542.52,938.1 543.3,935.07 543.87,933C544.42,928.61 544.45,924.28 542.7,920.15C539.73,913.33 533.12,907.86 527.09,903.77C520.97,899.45 514.23,896.2 508.22,891.73C494.97,881.34 484.88,866.61 480.58,850.34C479.12,844.14 477.7,840.46 477.37,834C476.96,826.46 476.71,818.95 477.46,811.43C479.36,804.4 480.22,798.35 480.4,791C480.31,788.21 479.28,783.61 476,783C470.66,782.39 465.3,786.25 462.61,790.63C457.95,797.02 457.66,804 453.54,810.54C448.99,817.62 443.86,824.27 436,827.85C431.07,830.34 426.56,832.24 421,832.89C418.56,832.99 416.08,833.4 414,831.86C411.23,830.08 411.29,826.26 412.54,823.55C412.75,821.94 412.89,820.05 413.54,818.56C413.69,811.96 414.21,804.38 412.82,798C412.23,794.47 410.64,791.98 409.39,788.65C406.65,782.43 402.35,777.85 398.7,772.25C393.35,764.57 388.99,756.33 387.58,747C387.38,745.9 386.95,744.57 386.46,743.55C386.18,738 385.66,732.61 386.2,727C387.02,722.12 388.64,717.5 391.35,713.31C393.38,710.71 395.7,708.02 397.03,705C398.35,702.45 397.96,699.07 397.67,696.31C393.14,695.19 388.04,697.25 383.31,695.6C373.93,692.45 372,677.52 379.96,671.85C383.75,669.43 389.62,670.78 393.59,669.6C394.13,665.17 393.63,660.46 393.66,656C393.8,653.14 393.98,650.31 393.54,647.46C390.52,643.7 387.84,639.79 386.91,635C386.33,633.6 384.61,630.52 383.12,630.29C381.99,633.13 382.99,637.4 382.54,640.55C381.84,641.08 380.99,641.3 380,641.23C369.97,641.37 359.4,640.91 349.46,641.46C348.46,651.35 349.85,661.15 349.17,671C349.07,671.92 349.14,672.8 349.38,673.62C352.81,674.49 356.99,673.26 360.43,674.54C365.04,675.48 368.11,680.49 368.1,685C368.59,690.17 366.78,696.2 361.88,698.72C357.29,701.59 350.76,699.99 346.31,701.25C345.82,704.93 344.53,710.62 347.46,713.54C349.57,715.07 351.41,716.96 353.54,718.46C358.45,723.02 362.11,729.26 364.54,735.45C366.53,741.07 365.81,748.06 365.58,754C363.29,761.08 359.8,768.09 354.44,773.44C350.24,777.83 345.22,781.81 339.86,784.7C337.63,785.71 335.05,785.54 333.46,783.54C332.61,781.01 332.72,778.09 332.54,775.44C330.54,769.01 322.77,764.34 316.45,763.46C315.36,766.27 316.06,769.95 315.58,773C313.34,780.14 306.69,784.52 302.43,790.42C298.1,797.74 296.24,806.59 295.97,815C294.97,817.31 295.64,819.5 295.37,822C294.82,826.34 295.79,831.23 292.79,834.86C290.51,838.05 285.14,837.33 282,836.04C273.44,833.29 267.77,827.7 260.8,822.22C258.88,821.76 259.25,823.79 258.71,825C255.81,832.31 251.4,838.32 245,842.95C239.89,847 233.9,850.13 227.93,852.71C224.56,853.97 221.47,856.41 218,857.33C213.19,859.68 208.57,862.14 206.46,867.45C205.48,872.37 206.14,877.09 206.43,882C208.57,888.51 207.59,896.19 207.58,903C206.83,906.06 206.29,909.8 205.66,913C203.98,918.15 202.41,922.79 199.44,927.42C193.95,935.34 187.44,941.53 178.95,946L175.82,946C176.08,944.83 174.12,944.38 174.1,943C173.67,938.13 175.6,934.86 174.91,930C173.88,921.53 166.62,914.72 160,909.98C154.92,906.17 149.39,903.17 144,899.85C135.61,894.58 128.34,887.37 122.74,879.22C115.51,869.42 111.16,856.83 108.96,845C108.24,842.25 109.06,839.57 108.05,837C107.88,828.68 107.12,819.12 109.31,811.06C110.68,805.11 111.74,798.09 110.69,792C110.02,790.44 108.92,787.99 107,787.79C100.88,787.01 96.01,791.24 92.84,796C90.45,799.89 88.93,803.61 87.79,808C86.12,812.32 83.77,816.25 81.06,820C77.34,824.8 73.52,829.11 68,831.89C64.3,833.65 60.53,835.99 56.45,836.46C53.39,837.96 50.35,837.77 47,837.64C43.97,836.8 41.49,833.7 42.46,830.43C44.93,822.12 44.51,813.64 43.93,805C42.32,795.28 37.32,787.36 31.32,779.71C25.88,771.89 19.88,762.59 18.58,753C17.78,749.95 17.14,747.22 17.01,744C16.76,737.86 16.18,730.65 18.69,724.91C20.08,720.56 22.66,717.03 25.54,713.54C28.39,709.86 29.23,705.51 27.96,701.11C23.77,699.94 17.31,702.31 13,699.85C4.76,696.07 3.46,683.75 9.46,677.46C13.87,674.06 18.55,675.42 23.69,674.62C24.28,673.97 24.53,673.1 24.43,672C24.43,668.66 24.44,665.33 24.27,662C24.15,658.65 25.06,654.4 23.67,651.29C21.15,648.12 18.9,645.04 18.05,641C17.39,637.81 15.28,636.08 13.34,633.7C11.59,630.69 12.18,626.39 12.06,623C12.23,615.01 11.93,606.98 12.38,599C13.06,595.4 15.91,594.5 17.61,591.66C18.67,587.73 19.88,583.58 21.72,579.95C22.36,576.99 24.26,575.19 24.24,572C24.7,562.08 24.27,551.95 24.32,542C24.34,535.21 27.1,528.71 31.89,523.88C38.02,518.5 45.6,517.26 53.54,517.54C54.1,516.59 54.15,515.43 53.67,514.07C51.58,506.71 56.64,499.04 63.54,496.54L63.54,495.46C60.41,495.06 56.08,496.12 53.31,494.83C52.85,484.67 53.23,473.32 53.12,463L53.31,462.25C55.39,461.22 58.33,462.23 60.58,461.59C60.86,460.76 60.66,460.22 60,459.95C56.21,457.28 52.93,452.75 52.86,448C52.62,446.48 53.24,444.74 52.7,443.32C50.53,442.65 47.64,443.54 45.55,442.46C36.35,442.11 27.49,438.43 22.96,430C20.72,425.58 18.83,421.06 19.09,416C19.12,401.99 19.13,388.01 18.95,374C19.34,351.32 18.75,328.69 19.1,306C18.75,299.31 19.35,291.75 18.73,285.28C14.7,284.49 9.3,286.01 5.46,283.54C2.32,281.67 0.41,278.09 0.54,274.45L0,273.96L0,269.56L0.54,269.56C0.71,265.61 3.06,262.47 6.24,260.32C11.22,257.87 16.22,258.78 21.54,258.54C23.33,257.33 22.27,255.85 22.63,254C22.9,251.85 22.93,249.6 22.54,247.46C21.4,245.94 20.05,244.61 18.55,243.46C12.72,239.42 8.53,233.82 5.54,227.45C2.87,222.63 2.51,217.41 2.59,212C2.62,208.05 2.59,203.3 4.68,199.84C8.2,190.61 14.87,183.42 22.85,177.77C25.65,175.97 29.46,172.49 33,174.01C36.02,175.27 35.62,179.33 35.85,182C35.66,186.43 39.31,189.05 42.31,191.67C44.91,193.1 48.95,196 51.96,194.93C53.05,192.95 51.89,190.02 52.67,187.93C53.65,177.68 64.72,173.81 68.13,164C70.43,158.8 71.77,153.71 71.99,148C73.17,145.28 72.23,141.98 72.86,139C73.32,133.77 72.06,125.56 77.45,122.45C80.33,121.43 84.91,121.68 87.46,123.54C94.5,125.47 99.36,130.48 105.17,134.76C106.17,135.41 107.34,137.33 108.67,136.72C110.94,131.24 112.7,126.32 116.84,121.86C120.84,117.46 125.88,113.85 131,110.88C136.6,107.67 142.6,105.48 148.23,102.33C153.66,100.31 158.5,97.71 161.54,92.54C162.58,87.57 162.58,81.9 161.43,77C160.5,69.32 160.26,61.73 161.32,54.06C162.58,44.04 166.23,32.92 173.64,25.64C177.54,20.62 182.94,16.56 188.46,13.46C190.91,12.41 193.39,13.45 194.16,16C194.51,19.41 193.4,21.82 193.21,25C192.94,30.9 195.14,36.55 199.22,40.82C206.96,49.81 218.05,54.83 227.7,61.33C232.48,64.54 236.16,68.75 240.22,72.78C248.39,82.14 254.13,93.02 257.28,105C258.43,107.84 258.11,110.65 259.54,113.45C260.49,124.4 261.02,135.64 259.54,146.56C258.45,149.08 258.89,151.89 257.46,154.46C257.54,158.68 256.59,162.33 257.46,166.55C258.25,168.17 259.05,170.53 261,171.09C265.56,171.97 270.18,169.43 273.12,166.08C279.22,159.27 279.26,150.75 284.7,142.77C289.34,135.52 294.84,129.14 302.96,125.75C308.45,123.35 314.91,120.51 321,121.34C324.28,122.08 326.52,124.47 325.91,128C323.31,135.93 323.87,143.73 324.12,152C324.12,155.29 325.37,157.88 326.26,160.96C330.25,172.77 338.53,179.52 344.3,190.82C348.76,198.49 350.77,208.23 351.4,217C351.38,222.55 351.88,227.65 350.01,233C348.61,238.22 345.43,241.98 342.26,246.17C339.68,249.57 339.2,253.83 340.15,257.86C344.31,258.99 349.86,256.92 354.08,258.68C361.71,260.8 364.81,271.47 361.18,278C359.89,281.4 356.68,283.65 353,283.42C350.13,284.37 347.3,283.84 344.37,284.37C343.37,290.49 344.29,297.66 343.92,304C343.59,308.54 347.34,309.85 348.93,314C350.47,318.67 351.47,322.38 355.54,325.54C355.63,321.37 355.54,317.17 355.59,313L356.05,312.28C365.68,311.77 376.24,312.19 386,312.07C386.97,312.14 387.81,311.96 388.54,311.54C388.67,301.21 388.57,290.8 388.54,280.46C386.33,279.49 383.4,280.28 381,279.98C376.14,280.02 372.13,277.51 370.32,273C369.06,267.74 369.13,261.27 373.25,257.24C375.33,254.85 378.14,254.25 381,253.42C384.37,253.21 388.4,253.57 391.58,252.58C392.02,249.34 392.59,245.44 391.66,242.27C389.36,238.89 385.03,236.51 382.33,233.68C379.31,230.12 376.73,226.27 374.75,222.05C371.96,217.37 371.95,212.33 372.02,207C372.11,203.24 371.66,199.16 373.68,195.83C376.4,188.98 380.29,182.72 385.88,177.83C389.5,174.8 393.27,171.68 397.41,169.43C399.41,168.53 401.54,168.15 403.4,169.59C406.41,172.27 403.91,177.81 406.24,180.94C408.42,184.53 412.22,187.26 416,188.95C417.55,189.55 420.22,190.76 421.73,189.92C422.44,185.71 421.28,181.7 423.62,177.68C426.19,172.63 431.3,168.8 434.54,164.54C437.14,160.55 439.39,155.74 440.33,151.07C441.12,149.05 440.56,146.48 441.54,144.55C441.73,138.39 442.51,132.18 442.43,126C443.24,122.69 443.35,119.57 446.65,117.62C449.92,115.76 454.79,117.4 458,118.78C464.82,121.22 469.25,125.75 475,130.09C475.93,130.51 476.74,131.99 477.79,131.78C478.96,130.15 479.44,127.97 480.31,126.15C485.38,114.56 496.88,107.04 508,102.02C512.47,100.22 516.47,97.58 521,95.9C525.7,93.8 530.62,90.41 531.58,85C532.09,80.18 532.13,74.52 530.42,70C529.78,59.35 529.5,49.16 532.73,38.95C534.92,32.69 537.32,26.88 541.82,21.84C545.26,18.16 548.44,14.42 552.75,11.71C555.44,9.94 558.16,7 561.65,8.38C564.82,10.18 563.83,14.16 563.05,17C562.6,21.08 562.61,25.13 564.28,28.95C567.98,37.68 576.41,43.12 583.96,48.2C591.5,52.73 598.83,56.52 604.96,63.04C615.37,72.72 622.87,85.63 626.62,99.25C627.97,104.47 629.75,110.65 629.69,116C629.87,121.85 630.43,128.16 629.69,133.94C629.13,143.21 625.28,152.56 627.18,162C627.98,163.74 628.75,166.03 631,166.16C636.73,166.77 641.4,162.94 644.54,158.54C649.03,151.61 649.68,143.67 654.72,136.8C658.43,131.38 662.26,126.41 668,123.03C674.23,119.52 681.72,116.08 689,116.18C692.3,115.91 695.44,118.63 695.33,122C695.03,124.44 694.52,127.24 693.46,129.46C693.25,135.66 693.24,141.8 693.42,148C694.99,154.92 697.38,161.58 701.54,167.45C707.92,176.36 715.61,186.24 718.28,197C719.46,199.87 719.06,202.66 720.54,205.46C720.81,213.04 722.14,221.88 719.07,229C717.44,234.83 713.22,238.31 710.37,243.33C708.68,246.31 708.87,250.29 709.46,253.54C711.17,253.43 713.52,253.94 715.04,253.26C719.92,252.47 724.83,252.76 728.33,256.68C730.24,258.36 730.17,260.45 731.54,262.45C733.05,268.01 731.17,276.26 725.05,278.26C721.68,279.35 716.92,278.63 713.46,279.46C712.9,282.54 713.3,285.87 713.25,289C713.7,293.28 712.75,297.33 713.46,301.54C715.42,304.76 718.13,307.12 719.06,311C720.18,314.45 721.08,317.71 724.54,319.55C725.15,315.05 724.08,309.45 725.11,305.18L726,304.86C735.67,304.84 745.33,304.85 755,304.85C755.9,304.92 756.75,304.82 757.55,304.56C758.5,295.67 757.5,285.97 757.86,277C757.82,275.5 758.13,273.78 757.66,272.34C754.59,271.7 751.16,272.42 748,271.87C742.66,271.16 739.01,266.22 738.95,261C738.51,256.03 739.85,251.14 744.04,248.15C745.89,246.45 748.51,246.38 750.45,245.46C753.72,245.24 757.67,245.65 760.74,244.8C761.27,241.21 762.58,235.21 759.55,232.45C757.51,230.85 755.61,229 753.46,227.54C748.48,222.74 744.77,216.41 742.31,210C740.79,204.6 741.32,198.69 741.43,193C742.23,188.76 744.33,184.95 746.26,181.09C750.52,173.35 757.95,167.08 765.28,162.34C767.64,161 769.92,159.93 772.54,161.46C774.89,163.46 774.23,167.76 774.46,170.55C776.74,176.98 784.1,181.58 790.55,182.54C791.94,180.14 790.68,176.58 791.65,173.92C792.64,165.6 802.82,160.34 806.04,153C807.44,149.93 808.78,147.28 809.61,144C810.14,140.06 810.79,137.04 810.97,133C812.14,130.57 811.27,127.82 811.68,125C812.33,120.16 810.98,114.53 814.71,110.71C816.74,108.54 819.28,108.86 822,109.06C831.94,111.39 838.53,117.52 846.21,123.76C848.25,124.3 847.72,121.9 848.66,120.79C851.66,112.12 857.95,105.43 865.59,100.58C870.97,96.77 876.83,94.47 882.71,91.65C886.2,89.49 889.93,88.6 893.4,86.41C897.33,84.09 900.65,80.8 900.97,76C901.72,69.3 900.02,63.54 899.58,57C899.63,51.57 899.29,45.35 900.29,40.05C901.17,32.11 904.11,24.19 908.38,17.37C913.77,10.63 919.16,4.7 927,0.78C927.95,0.77 928.63,0.5 929.05,0Z" style="fill-opacity:0;fill-rule:nonzero;stroke:black;stroke-width:0.2px;"/>
                        <path d="M454.46,438.46C459.81,438.3 465.19,438.45 470.54,438.46C471.78,439.2 472.87,438.83 473.61,440.36C475.46,443.99 478.83,446.73 483,446.85C485.97,446.86 489.99,447.38 492.46,445.46C495.18,444.14 496.83,441.06 499.46,439.46C518.31,438.84 536.14,440.22 555,440.22C557.36,440.55 559.72,440.16 562,440.77C568.06,441.1 574.78,440.49 580.69,441.32C581.34,443.17 579.05,445.02 579.35,447C577.8,454.4 580.71,460.92 587,464.93C591.22,467.66 596.8,467.71 601.55,466.54C610.28,463.6 614.85,454 612.63,445.25C612.2,444.07 611.25,442.74 611.46,441.46C616.73,440.66 622.22,440.63 627.55,440.54C633.49,438.63 638.89,439.93 645,439.08C646.76,439.22 649.24,438.28 650.76,439.05C651.39,441.53 650.72,444.33 651.33,446.85C652.74,450 653.97,453.03 656.68,455.32C657.23,455.98 658.88,456.76 658.68,457.74C656.4,458.94 653.01,457.83 650.46,458.46C650.09,469.36 650.23,480.69 650.39,491.61C653.81,492.77 658.11,491.32 661.55,492.46L661.54,493.54C658.25,495.22 655.5,497.54 654.02,501C652.62,503.97 652.87,507.32 652.54,510.54C647.07,511.43 641.01,510.48 635.45,510.54C633.04,509.54 633.06,507.45 631.26,505.76C627.86,501.89 621.58,501.73 616.95,502.72C612.35,503.65 610.84,508.13 607,509.75C592.73,510.33 579.15,509.41 565,509.58C560.12,508.11 553.9,509.85 549,508.42C541.65,508.13 533.41,508.9 526.27,507.75C526.06,504.87 528.27,502.07 527.99,499C528.55,489.9 520.22,481.16 511,481.95C508.86,481.81 507.18,482.72 505,482.94C496.84,485.79 492.56,494.69 494.1,503C494.04,504.58 496.07,506.39 494.95,507.73C489.43,509.58 482.67,508.01 477,509.58C471.99,509.55 467,509.7 462,510.07C460.29,510.74 458.25,510.66 456.37,510.63C455.35,507.98 456.64,504.32 455.37,501.73C454,497.62 450.77,492.91 446.46,491.54L446.46,490.46C449.91,490.02 454.57,491.09 457.68,489.8L457.87,489C457.75,478.75 458.12,467.33 457.69,457.27C454.59,456.21 450.57,457.3 447.32,456.66C445.77,454.89 448.92,453.94 449.73,452.74C454.04,449.01 454.22,443.76 454.46,438.46Z" style="fill:rgb(128,128,128);fill-opacity:0;fill-rule:nonzero;stroke:black;stroke-width:0.2px;"/>
                        <path d="M824.2,431.08L825,430.63C830.33,430.42 835.68,430.8 841,431.06C842.97,431.25 843.46,433.99 844.75,435.21C848.27,439.85 856.04,439.69 861,438.02C864.83,436.76 866.15,432.01 870,431.64C883.44,431.36 896.57,431.81 910,432.05C915.8,433.2 922.88,432.15 929,432.75C935.86,433.27 942.99,432.54 949.75,433.34C950.13,434.08 950.12,434.97 949.72,436C948.12,440.01 948.27,444.86 949.3,449C951.41,453.6 955.23,457.11 960,458.83C964.86,459.82 971.33,459.73 975.28,456.32C981.38,452.03 983.78,444.11 981.83,437C981.37,435.72 980.55,434.85 981.44,433.46C991.11,432 1004.41,431.96 1014.55,431.54C1015.86,430.91 1018.6,430.57 1019.93,431.11C1020.98,433.75 1019.58,437.39 1021.1,440C1022.69,443.64 1024.44,446.87 1028,448.95C1028.73,449.16 1028.91,449.69 1028.54,450.54C1026.05,450.9 1022.47,449.93 1020.32,451.19L1020.13,452C1020.24,462.26 1019.87,473.63 1020.33,483.72C1023.05,484.84 1026.77,483.78 1029.68,484.35C1030.1,485.2 1029.88,485.8 1029,486.17C1026.42,487.72 1024.28,490.18 1023.19,493C1022.33,496.24 1022.17,498.73 1021.73,501.81C1017.67,502.9 1012.29,501.92 1008,502.02C1005.86,501.72 1003.86,502.48 1002.72,500.16C1000.92,496.8 997.94,494.2 994,494.03C990.1,493.89 986.26,493.38 982.95,495.81C980.66,497.21 978.81,501.06 976,501.15C962.65,501.38 949.35,501.14 936,500.87C929.97,500.14 922.65,501.04 916.94,500.3C909.92,499.51 902.5,500.39 895.46,499.54C895.38,497.38 897.08,495.28 897.06,493C898.52,486.21 895.24,479.09 889.22,475.7C885.39,472.94 879.42,473.28 875,474.17C866.09,477.14 861.58,486.55 863.46,495.54C864.2,496.7 865.38,498.13 864.54,499.54C861.08,499.99 857.25,499.68 854,500.57C846.36,500.73 838.65,501.15 831,501.43C829.36,501.73 827.02,502.56 825.4,501.62C825.76,495.22 824.59,489.74 819.71,485.31C818.99,484.71 817.3,483.41 819,482.81C821.81,482.47 824.74,482.94 827.54,482.54C827.74,481.72 827.82,480.88 827.77,480C827.66,470 827.97,459.27 827.61,449.38C824.07,448.35 819.78,449.49 816.15,448.74L815.7,448C817.93,445.15 821.66,443.78 822.46,439.45C824.53,436.89 823.05,433.96 824.2,431.08Z" style="fill:rgb(128,128,128);fill-opacity:0;fill-rule:nonzero;stroke:black;stroke-width:0.2px;"/>
                        <path d="M354.87,363.26C355.9,365.6 354.92,368.98 355.46,371.54C365.44,372.03 375.94,371.62 386,371.75C387.01,371.66 387.85,371.89 388.54,372.46C388.66,385.26 388.63,398.19 388.61,411C388.5,421.69 394.84,431.87 405,435.68C409.84,437.33 416.69,437.63 421.87,438.29C422.74,440.75 421.62,444.54 422.78,447.04C424.72,450.19 427.11,453.78 430.54,455.46L430.54,456.54C427.94,457.34 424.72,456.28 422.22,457.18L421.93,458C421.92,468.33 421.92,478.67 421.93,489L422.22,489.93C425.43,491 430.03,490.03 433.54,490.46L433.54,491.54C428.92,492.87 425.21,496.69 423.29,501C422.6,503.83 422.32,507.16 423.24,509.96C423.62,510.64 423.72,511.5 423.54,512.54C417.62,512.85 412.05,512.79 406.68,515.62C398.65,519.11 394.26,527.58 393.77,536C393.5,546.82 394.25,557.76 393.54,568.56C391.19,574.79 388.46,580.47 386.84,587C386.27,588.21 384.39,590.49 383.13,590.67C382.03,588.48 382.98,584.94 382.55,582.44C381.85,581.82 381,581.56 380,581.66C369.89,581.59 359.54,581.84 349.46,581.54C348.67,567.78 349.33,553.8 349.07,540C347.82,530.14 341.8,521.07 332,518.08C326.52,516.1 320.77,516.25 315.46,515.54C315.2,512.36 316.02,507.69 313.79,505.04C312.36,502.74 310.41,500.24 308,498.93C307.47,498.46 305.38,497.93 305.38,497.37C309.16,496.34 313.84,497.8 317.54,496.54C317.6,485.55 317.6,474.45 317.54,463.46C313.97,462.86 309.53,463.94 306.18,462.86L306.18,462.18C310.79,459.09 315.05,454.97 314.96,449C315.29,446.46 314.15,443.8 314.46,441.46C319.36,441.43 323.9,441.54 328.46,439.46C337.67,437.13 342.93,427.93 343.9,419C344.19,408.02 343.63,396.97 344.1,386C345.81,379.54 349.25,373.57 350.93,367C351.62,365.81 353.62,363.5 354.87,363.26Z" style="fill:rgb(128,128,128);fill-opacity:0;fill-rule:nonzero;stroke:black;stroke-width:0.2px;"/>
                        <path d="M724.46,357.46L724.54,357.46C725.21,359.25 723.65,363.85 726,364.33C736.45,364.44 747.12,364.18 757.54,364.46C757.8,365.26 757.92,366.1 757.88,367C757.97,379.33 757.94,391.67 757.94,404C758.07,405.91 757.91,408.3 758.72,410.05C760.81,416.94 764.86,423.29 771.58,426.44C773.93,428.13 777.2,428.31 780,429.04C783.61,430.33 787.92,429.7 791.58,430.43C791.78,433.51 791.36,436.55 792.4,439.62C794.11,442.27 795.69,444.76 798.27,446.68C799.32,447.2 800.03,447.4 800.54,448.54C798.02,449.58 794.78,448.43 792.21,449.24L791.89,450C791.85,459.99 791.89,470.01 791.87,480C791.79,480.99 791.96,481.85 792.39,482.59C794.79,483.04 797.74,482.17 799.96,483.1L800.06,484C797.66,486 795.06,487.77 793.66,490.75C791.49,494.29 791.9,498.05 792.4,502C792.59,503.26 792.12,503.94 791,504.06C783.28,503.85 773.72,506.39 768.73,512.76C765.31,516.86 763.79,521.78 763.07,527C762.91,537.66 763.21,548.34 762.98,559C763.12,561.5 761.42,562.74 761.08,565C758.89,569.64 757.53,574.16 755.96,579C755.36,580 753.44,582.47 752.16,581.96C751.33,579.65 752.29,576.84 751.54,574.46C741.56,573.95 731.06,574.39 721,574.24C720,574.34 719.15,574.1 718.46,573.55C718.38,562.06 718.35,550.49 718.42,539C718.63,529.26 713.47,518.74 704.26,514.64C700.3,512.66 697.24,512.8 693.06,511.69C690.61,510.87 687.53,511.49 685.08,510.76C684.33,508.47 685.34,505.34 684.31,502.94C683.19,499.75 680.77,496.86 678.15,494.74C676.8,493.58 675.48,494.17 674.46,492.46C677.98,491.38 682.25,492.62 685.82,491.76L686.16,491C686.19,481 686.18,471 686.17,461C686.27,459.99 686.09,459.12 685.63,458.4C682.86,457.94 679.66,458.76 677,457.94C676.46,457.73 676.28,457.23 676.45,456.44C680.74,453.79 684.41,449.28 684.36,444C684.62,441.79 683.47,439.17 684.1,437.13L685,436.78C692.32,436.73 701.14,434.95 706.4,429.39C710.79,424.82 713.37,418.34 713.29,412C713.27,403 713.19,394 713.18,385C712.77,377.48 718.67,370.94 719.46,363.46C720.62,360.89 722.64,359.49 724.46,357.46Z" style="fill:rgb(128,128,128);fill-opacity:0;fill-rule:nonzero;stroke:black;stroke-width:0.2px;"/>
                        <path d="M85.46,443.46C91.33,443.45 97.95,442.92 103.54,444.46C104.8,446.36 105.6,448.17 107.37,449.62C111.42,452.42 117.47,452.66 122,451.03C125.74,449.71 127.1,446.09 130.45,444.46C138.59,444.39 146.85,444.42 155,444.42C161.31,445.47 168.86,444.13 175,445.57C182.01,445.55 188.99,445.52 196,445.88C200.91,446.19 206.11,445.55 210.94,446.31C211.7,447.25 210.81,449.28 210.41,450.32C209.57,453.54 209.33,456.72 210.05,460C212.13,467.71 219.9,473.48 228,472.2C239.19,472.23 247.31,458.44 242.46,448.55C242.13,447.84 242.13,447.15 242.46,446.46C244.69,445.7 247.33,446.41 249.45,445.46C253.32,445.49 257.14,445.24 261,444.99C264.92,443.67 269.84,444.92 274,444.26C276.82,444.32 278.73,443.02 281.54,443.46C281.94,446.79 281.07,450.89 282.8,454C284.38,457.46 286.39,460.34 289.74,462.27L289.74,462.85C287.72,463.89 284.71,462.91 282.45,463.46C281.96,464.23 281.7,465.08 281.66,466C281.73,475.99 281.62,486.01 281.71,496L282.12,496.76C285.43,497.56 289.33,496.45 292.61,497.39C292.34,498.72 290.06,499.13 289.17,500.22C285.74,502.88 283.65,506.71 283.41,511C283.11,512.42 283.84,514.91 282,515.39C276.52,515.44 270.61,515.46 265.21,514.7C263.1,512.41 262.24,509.58 259,508.18C254,506.54 247.07,505.99 243.04,510.07C240.94,511.67 239.91,514.17 237,514.4C215.96,514.76 195.02,513.58 174,513.58C168.83,512.27 162.59,513.68 157.28,512.66C156.57,511.13 157.63,508.84 158.54,507.54C158.57,505.29 159.09,503.24 158.7,501C157.58,492.2 148.94,485.25 140,486.78C130.1,487.2 123,497.52 124.83,507C124.72,508.97 126.88,510.96 125.58,512.55C116.77,513.89 104.24,514.02 95,514.42C92.39,514 89.66,515.93 87.18,514.88C86.87,514 86.77,513.04 86.86,512C87.21,505.95 83.57,499.7 78.45,496.55L78.46,495.46C81.63,495.36 84.83,495.48 88,495.4C88.84,495.11 89.19,494.31 89.05,493C89.06,483 89.07,473 89.05,463L88.78,462.17C85.03,461.2 80.31,462.28 76.41,461.59L76.46,460.46C79.42,459.09 81.54,456.78 83.23,454.04C85.23,450.63 84.46,446.98 85.46,443.46Z" style="fill:rgb(128,128,128);fill-opacity:0;fill-rule:nonzero;stroke:black;stroke-width:0.2px;"/>
                    </g>
                </g>
            </g>
        </g>
    </g>
</svg>
