<?xml version="1.0" encoding="UTF-8" standalone="no"?>
<!DOCTYPE svg PUBLIC "-//W3C//DTD SVG 1.1//EN" "http://www.w3.org/Graphics/SVG/1.1/DTD/svg11.dtd">
<svg width="100%" height="100%" viewBox="0 0 727 729" version="1.1" xmlns="http://www.w3.org/2000/svg" xmlns:xlink="http://www.w3.org/1999/xlink" xml:space="preserve" xmlns:serif="http://www.serif.com/" style="fill-rule:evenodd;clip-rule:evenodd;stroke-linejoin:round;stroke-miterlimit:2;">
    <g transform="matrix(1,0,0,1,-59.6174,-57.1555)">
        <g id="copper-layer" serif:id="copper layer">
            <path id="path2241" d="M423.075,57.156C623.668,57.156 786.526,220.554 786.526,421.817C786.526,566.759 702.061,692.064 579.866,750.843C560.902,759.965 541.029,767.485 520.423,773.227C489.435,781.862 477.348,784.432 427.173,786.042C365.643,784.142 356.258,781.798 325.077,773.047C172.016,730.087 59.617,589.018 59.617,421.817C59.617,220.554 222.475,57.156 423.075,57.156ZM448.699,737.571C448.699,736.386 447.736,735.423 446.55,735.423L430.838,735.423C429.653,735.423 428.69,736.386 428.69,737.571L428.69,753.73C428.69,754.916 429.653,755.879 430.838,755.879L446.55,755.879C447.736,755.879 448.699,754.916 448.699,753.73L448.699,737.571ZM415.327,735.923C420.696,735.923 425.055,740.282 425.055,745.651C425.055,751.02 420.696,755.379 415.327,755.379C409.958,755.379 405.599,751.02 405.599,745.651C405.599,740.282 409.958,735.923 415.327,735.923ZM391.727,736.423C397.072,736.423 401.412,740.67 401.412,745.901C401.412,751.132 397.072,755.379 391.727,755.379C386.381,755.379 382.042,751.132 382.042,745.901C382.042,740.67 386.381,736.423 391.727,736.423ZM703.083,493.815C702.796,493.809 702.509,493.805 702.221,493.805C680.156,493.805 662.239,511.835 662.239,534.05L662.239,534.613C661.451,531.485 660.686,528.395 660.094,525.905L658.714,520.963C657.094,516.058 656.119,512.555 654.574,508.618C646.054,486.98 635.306,464.735 623.404,444.598C608.051,417.898 590.149,392.338 570.971,368.255C564.199,359.675 557.186,351.215 549.821,343.138C544.614,336.748 538.382,331.228 533.026,324.973C530.804,322.993 528.988,320.728 526.572,318.958C526.592,316.73 531.145,316.363 532.796,316.37C535.451,314.893 538.903,315.913 541.631,314.863C544.204,313.048 545.288,311.053 547.298,308.675C548.505,309.628 550.616,310.693 551.981,311.413C553.841,313.423 555.814,315.733 558.476,316.55C561.589,320.398 564.701,322.34 567.229,326.773C568.481,329.18 570.304,331.595 571.271,334.145C574.886,339.628 577.759,344.63 583.946,347.728C586.361,347.855 589.504,347.113 591.731,348.148C595.219,350.09 599.276,351.62 603.289,351.673C606.776,352.475 610.294,352.873 613.871,352.445C617.696,351.088 621.274,351.35 624.814,353.188C626.464,352.243 629.089,352.573 630.979,352.678C631.681,353.24 632.133,353.862 632.497,354.516C633.496,355.179 634.616,356.03 635.456,356.848L636.349,356.728L638.014,356.488C648.491,373.018 666.956,384.005 687.979,384.005C720.589,384.005 747.064,357.575 747.064,325.018C747.064,292.46 720.589,266.03 687.979,266.03C655.376,266.03 628.901,292.46 628.901,325.018C628.901,330.733 629.719,336.26 631.241,341.488L630.769,341.443C629.921,341.443 629.074,341.42 628.226,341.405C627.724,341.383 627.214,341.36 626.711,341.315C619.864,341.51 612.356,341.435 605.554,341.668C604.616,342.05 601.526,341.795 600.551,341.983C598.789,340.715 601.204,339.515 600.664,337.693C599.824,336.148 597.581,334.52 596.314,333.335C592.631,327.613 587.599,323.66 582.131,319.73C578.996,316.94 574.991,316.745 572.044,313.94C569.171,311.465 565.331,310.588 562.391,308.203C559.286,305.878 555.649,302.848 552.386,300.778C551.674,298.535 552.169,295.738 553.421,293.848C553.492,293.671 553.103,293.343 552.761,293.002C550.111,293.206 547.432,293.391 546.396,293.353C543.299,293.923 539.659,295.79 536.525,296.3C532.837,296.713 528.984,298.168 525.306,298.355C520.577,300.545 515.786,300.808 511.444,303.913C509.784,302.968 508.908,301.145 507.194,300.223C501.505,295.693 496.176,290.593 490.258,286.535C487.427,283.543 484.818,281.383 481.205,279.358C481.115,278.795 480.339,278.435 479.609,278.113L479.969,278.03C479.784,276.86 480.163,277.498 480.607,276.62C481.162,276.05 481.615,275.443 481.983,274.813C483.98,271.385 483.499,267.185 483.405,263.233C484.775,262.19 486.104,261.005 487.598,260.135C488.04,259.948 488.462,259.775 488.84,259.595C492.501,258.47 496.026,256.88 499.676,255.718C504.008,254.098 507.59,249.02 512.457,249.215C512.412,249.229 512.573,249.224 512.457,249.215C513.316,248.938 514.193,248.698 515.071,248.503L515.321,248.37C515.913,248.128 516.715,247.348 517.961,246.868C518.295,246.725 518.68,246.628 519.053,246.523C530.131,273.05 556.541,291.74 587.321,291.74C628.076,291.74 661.159,258.995 661.159,218.66C661.159,178.52 628.391,145.895 587.906,145.588C587.126,145.055 586.301,144.425 585.401,144.358C583.699,144.815 582.049,145.363 580.391,145.903C542.889,149.36 513.487,180.635 513.487,218.66C513.487,220.738 513.575,222.793 513.748,224.833C513.286,225.328 512.836,225.838 512.392,226.348C511.801,227.06 511.21,227.773 510.61,228.485C510.471,228.62 510.451,228.658 509.454,229.138C504.266,231.71 483.746,240.32 482.76,241.048C482.785,241.056 482.676,241.19 482.318,241.37C482.238,241.183 482.146,241.003 482.044,240.823C481.467,238.91 480.575,237.59 480.277,236.503C480.265,236.458 478.988,233.78 479.056,233.518C478.382,232.753 477.683,232.07 477.305,231.11C496.272,215.63 508.394,192.073 508.394,165.703C508.394,158.322 507.445,151.162 505.662,144.338C505.504,143.733 504.547,142.489 505.169,142.532C524.047,143.846 520.997,123.936 517.538,121.938C516.757,121.487 519.226,122.839 520.207,122.994C521.429,123.187 522.699,123.03 523.66,122.36C523.901,122.278 523.728,122.285 523.946,122.15C525.371,121.99 526.735,122.178 527.948,122.898C529.42,123.768 530.518,123.607 532.256,123.659C535.395,123.749 537.89,123.732 541.03,123.77C541.239,123.612 541.404,123.38 541.53,123.238C541.659,123.238 541.685,122.887 541.814,122.887C541.977,122.472 541.983,122.304 542.055,122.022C542.103,121.812 542.109,121.688 542.266,121.47L542.478,121.302C542.91,121.302 543.499,121.227 544.184,121.025C544.988,120.853 545.789,120.583 546.339,120.253C548.297,120.08 550.264,120.163 552.229,120.02C552.634,119.833 552.979,119.645 553.279,119.473C553.369,119.428 553.451,119.375 553.534,119.323C555.859,117.883 555.296,116.915 556.571,115.873C560.884,115.048 564.486,111.065 567.193,107.862C567.238,107.637 567.298,106.88 567.328,106.663L567.335,106.586C567.477,104.983 567.347,104.049 566.114,103.06C565.424,102.505 564.748,101.99 563.961,101.607C562.633,103.01 562.009,104.72 560.794,106.198C559.556,107.18 556.198,109.13 554.953,110.097C554.466,109.182 553.936,108.852 552.999,109.017C552.826,108.845 552.364,109.405 552.161,109.307C551.786,109.675 551.634,109.411 551.206,109.794C550.801,110.011 550.391,110.083 549.904,110.398C547.022,112.243 546.166,112.793 542.657,113.475C542.41,113.438 541.935,113.697 541.686,113.63L541.444,112.98L541.206,112.01C540.87,111.972 540.614,112.032 540.344,112.032C539.179,112.13 538.917,111.99 538.394,112.41C537.94,112.627 537.16,113.135 536.598,113.547C534.306,114.32 530.845,116.225 528.643,115.865C528.614,115.812 529.002,115.37 528.985,115.318C529.227,114.808 529.412,114.139 529.172,113.524C529.22,113.194 528.743,113.014 528.536,112.759C528.03,112.654 527.915,112.485 527.237,112.523C526.494,112.455 525.899,112.564 525.014,112.377C523.476,112.047 522.147,111.484 520.087,111.334C519.985,111.289 518.89,111.244 518.791,111.177C515.335,110.989 512.042,110.637 508.576,110.9C508.333,110.63 508.708,110.241 508.52,110.024C508.38,109.386 508.058,109.127 507.459,108.917C506.498,108.51 506.258,108.621 502.072,109.056C501.443,109.123 499.931,109.3 499.437,109.398C498.466,109.587 497.184,110.095 496.048,110.651L495.938,110.705C495.623,110.863 495.281,111.035 494.906,111.208C494.6,111.35 491.407,112.565 491.03,112.79C490.822,112.895 490.53,113.143 490.209,113.39C474.746,93.853 450.829,81.313 424.007,81.313C407.034,81.313 391.226,86.338 377.983,94.97C376.84,93.598 375.277,91.37 374.192,90.08C373.735,89.503 373.349,89.668 373.045,89.398C372.695,88.828 372.722,88.228 372.207,87.77C371.282,86.803 369.863,86.113 368.345,86.413C367.893,86.698 367.783,86.9 367.636,87.02C367.463,87.088 367.298,87.148 367.14,87.185C367.048,87.192 366.938,87.2 366.806,87.2C365.163,87.508 364.766,86.278 363.575,85.475C360.143,83.54 356.529,83.773 353.133,81.508L353.093,81.485C352.428,81.493 351.764,81.523 351.098,81.575C350.027,83.113 349.991,84.89 348.698,86.218C345.032,85.483 341.319,81.958 337.394,81.598C335.178,82.003 334.172,83.615 333.044,85.378C331.236,85.393 329.749,85.445 327.985,85.228C327.272,84.928 326.03,85.145 325.222,85.235C324.456,85.205 324.104,84.47 323.093,84.628C321.808,84.838 320.79,86.12 319.996,86.998C318.353,87.088 315.266,87.883 313.65,88.205C311.438,89.345 309.268,90.74 306.867,94.573L305.424,98.098C306.303,97.88 306.953,97.73 307.483,97.58C308.577,97.723 309.77,95.983 310.592,95.12C312.359,93.95 313.395,94.43 313.395,94.43C316.151,93.41 315.89,93.485 318.167,93.35C318.713,96.14 320.846,95.6 322.942,95.03C326.14,93.305 329.323,91.43 332.423,90.403L332.444,90.433C332.506,91.303 333.336,91.115 333.989,91.378L334.271,91.76C334.346,91.678 334.426,91.595 334.509,91.528C335.702,91.775 336.896,92.188 337.949,92.068C339.411,91.895 340.631,92.023 341.79,91.048C342.044,90.838 342.806,90.298 343.274,90.013C344.828,89.9 346.387,90.59 347.921,90.83C348.005,91.678 348.081,91.708 348.183,92.548C348.488,92.803 349.071,92.45 350.01,92.368C351.152,92.42 351.64,92.27 352.526,91.745C352.883,91.723 353.648,92.413 353.897,92.398C354.5,92.36 354.76,91.85 355.321,91.468C355.625,91.438 355.968,91.85 356.267,91.753C358.283,91.858 361.301,92.24 363.08,92.218C362.781,94.213 363.399,94.693 365.606,95.705C366.126,95.945 366.524,96.155 366.543,96.181C367.326,96.575 367.82,97.04 368.957,97.873C369.474,98.248 369.909,98.375 370.418,98.78C370.709,98.81 371.21,99.095 371.765,99.44C366.87,103.307 362.413,107.705 358.481,112.545C358.232,112.851 356.018,115.561 355.795,115.886C355.7,116.023 351.125,112.652 350.949,112.877C344.622,120.909 341.371,126.41 337.769,133.237C337.282,134.158 343.171,137.42 344.117,138.341C344.221,138.442 343.616,139.982 343.588,140.07C341.01,148.155 339.618,156.767 339.618,165.703C339.618,166.205 339.623,166.7 339.632,167.195C339.304,164.638 339.308,162.088 338.901,159.5C338.236,158.788 337.691,158.008 337.202,157.175C336.476,155.825 335.354,154.963 334.191,154.063L332.732,152.99C332.236,152.773 331.345,152.728 330.929,152.428C329.656,151.115 328.865,149.368 327.504,148.085C326.257,146.668 324.831,145.423 322.574,144.965C321.181,143.728 319.945,142.528 318.746,141.305C317.524,139.985 315.802,139.85 314.654,138.583C311.933,138.65 309.642,135.62 307.07,134.533C306.869,134.435 307.46,133.28 307.318,133.175C306.807,132.245 307.073,131.045 306.82,129.785C306.365,128.87 305.969,127.948 305.526,127.033C305.317,126.583 305.094,126.133 304.838,125.675C303.63,124.64 300.2,124.475 300.218,122.713C300.116,122.578 301.367,121.198 301.259,121.063C300.802,119.9 299.601,119.045 298.416,118.925C298.259,118.895 298.112,118.888 297.978,118.91C297.139,118.963 296.357,119.42 295.914,120.448C295.388,124.43 296.117,129.148 295.544,132.98C293.966,135.635 295.609,137.053 296.043,139.58C299.081,143.083 301.445,146.84 305.49,149.323C310.514,154.445 318.557,155.855 323.138,161.188C324.002,162.088 325.682,162.65 326.71,163.55C327.049,164.045 328.005,164.57 328.025,165.238C327.76,165.238 326.764,165.283 326.501,165.298C326.072,165.193 326.215,165.875 325.373,166.063C325.353,166.13 325.327,166.205 325.295,166.28C324.902,166.333 324.512,166.408 324.127,166.49C323.855,167.435 324.073,170.473 322.953,169.558C322.238,170.375 322.461,169.198 322.164,169.753C320.609,172.573 319.49,173.15 319.065,173.93L318.857,174.32C305.366,156.508 284.052,144.995 260.087,144.995C219.335,144.995 186.251,178.265 186.251,219.245C186.251,247.37 201.786,271.733 224.736,284.333C223.869,284.258 223.087,284.128 222.242,283.738C220.182,282.951 216.262,283.918 214.2,284L214.183,284.001C213.947,284.635 212.654,285.025 210.281,285.177C209.699,285.169 208.381,285.13 207.032,284.949L202.089,285.867C191.318,274.46 176.196,267.38 159.427,267.38C126.819,267.38 100.346,294.23 100.346,327.313C100.346,360.388 126.909,387.155 159.517,387.155C192.125,387.155 218.508,360.388 218.508,327.313C218.508,314.51 214.511,302.512 207.763,292.777C207.718,292.709 208.116,292.736 208.397,292.698C208.977,292.579 209.529,292.528 209.529,292.528C209.49,292.828 209.517,293.005 209.646,293.2C209.793,293.425 209.94,293.509 210.082,293.584C210.291,293.689 210.526,293.722 210.835,293.812C211.389,293.923 212.146,293.942 213.288,294.107C213.423,294.115 213.526,293.967 213.729,293.997C215.473,294.255 218.378,294.388 218.378,294.388C218.497,295.37 218.761,295.788 219.458,296.343C222.638,296.926 225.838,298.625 229.036,299.555C236.901,304.355 246.599,308.713 255.91,308.248C257.873,310.49 259.84,312.89 263.057,313.13C264.929,312.485 267.835,310.988 269.42,309.758C274.261,306.136 278.941,302.368 283.034,297.935C285.486,294.973 288.856,293.135 292.737,292.7C293.604,293.525 295.089,295.169 295.716,296.204C297.31,298.994 300.221,299.571 301.3,302.593C302.517,305.721 304.874,307.153 306.525,309.913C308.24,311.855 310.627,314.376 312.692,315.981C311.834,318.359 309.458,318.808 308.094,321.028C304.541,324.403 301.078,327.838 297.693,331.318C284.025,345.373 271.631,360.268 259.674,376.01C238.525,403.715 220.704,433.34 205.981,464.945C199.454,479.998 193.996,492.74 189.137,508.4C187.505,512.158 186.165,520.171 184.69,524.026C184.325,525.318 183.937,526.668 183.531,528.073C183.434,527.735 183.331,527.398 183.224,527.06C178.016,510.673 162.947,498.808 145.188,498.808C123.121,498.808 105.205,517.13 105.205,539.69C105.205,562.258 123.121,580.58 145.188,580.58C156.708,580.58 167.096,575.585 174.395,567.605C174.221,568.79 174.054,569.99 173.895,571.205C173.891,571.238 173.885,571.299 173.863,571.319C173.867,574.65 173.6,577.976 173.483,581.308C171.999,585.628 173.456,589.933 172.008,594.185C171.953,601.453 171.851,610.04 172.211,617.233C173.252,619.408 172.331,622.31 173.4,624.553C173.879,626.803 173.409,628.963 174.461,631.108C176.36,639.575 178.941,646.858 185.173,653.27C187.266,654.395 188.197,656.06 190.631,655.873C192.761,655.963 194.171,654.77 195.83,653.638C198.044,651.943 201.077,650.96 203.529,649.64C204.155,649.318 204.782,649.003 205.4,648.665C208.489,647.338 211.236,645.335 214.537,644.353C218.455,642.635 222.668,640.415 225.848,637.535C228.909,635.84 232.46,633.823 235.16,631.603C238.04,629.233 241.77,624.433 243.139,623.578C243.57,623.308 243.767,623.428 243.629,624.133C242.129,631.873 243.451,648.695 246.668,659.24C248.703,665.915 257.155,684.403 267.228,697.843C277.043,710.945 292.236,719.413 295.928,717.98C295.928,717.98 296.769,703.873 298.355,697.858C300.497,689.72 305.357,672.748 313.508,656.03C325.368,631.7 334.469,612.793 343.066,598.423C351.011,585.14 358.515,575.698 363.106,567.095C363.953,565.513 365.729,560.78 365.333,562.408C364.12,567.38 377.534,583.43 392.128,591.808C401.585,597.23 411.365,597.005 418.298,596.81C423.728,596.66 429.968,596.008 435.77,593.195C443.549,589.43 450.776,582.613 456.487,575.885C459.239,572.638 461.759,568.888 464.499,563.285C465.162,561.926 466.074,557.098 467.986,560.07L468.008,560.105C475.631,571.123 477.23,576.688 481.361,584.24C484.839,590.6 490.616,598.393 498.257,611.795C506.133,625.618 519.833,647.87 529.145,670.408C535.806,686.533 541.461,707.698 545.144,717.215C546.394,720.44 546.104,735.178 546.104,735.178C546.104,735.178 556.466,727.978 566.141,717.343C573.641,709.1 580.144,698.788 584.824,688.22C595.054,665.12 601.819,638.578 605.299,630.65C606.056,628.918 606.214,626.488 606.716,626.968C614.606,633.283 623.209,639.193 629.351,641.713C636.446,644.63 639.056,645.815 645.919,649.333C650.156,650.728 653.651,653.6 657.686,654.275C663.866,652.055 666.844,646.865 669.634,641.3C671.674,637.16 672.386,632.855 673.474,628.423C674.276,625.138 674.576,623.203 674.876,620.105C675.686,611.578 672.169,574.273 671.561,570.02C671.359,568.573 670.451,564.395 670.339,562.933C669.507,559.844 668.626,557.012 667.789,554.503C674.756,566.345 687.574,574.288 702.221,574.288C724.286,574.288 742.204,556.258 742.204,534.05C742.204,522.402 737.277,511.904 729.41,504.553C729.281,504.432 729.151,504.313 729.02,504.194L734.071,501.211C734.748,500.811 734.974,499.936 734.574,499.259L725.946,484.649C726.047,484.625 726.148,484.6 726.249,484.575C726.513,484.51 726.775,484.443 727.037,484.373C747.244,479.01 762.139,460.758 762.139,439.091C762.139,413.219 740.899,392.213 714.736,392.213C688.574,392.213 667.334,413.219 667.334,439.091C667.334,463.534 686.291,483.633 710.446,485.78L711.542,485.865L703.016,490.899C702.339,491.299 702.114,492.174 702.514,492.852L703.083,493.815ZM255.787,576.26C252.963,579.418 252.933,579.188 255.737,575.898C262.013,569.908 263.281,561.019 263.558,552.77C264.837,554.4 265.651,556.446 266.344,558.524C266.273,558.539 266.197,558.562 266.117,558.591C263.338,563.639 261.888,570.763 257.438,574.663C256.929,575.218 256.377,575.757 255.787,576.26ZM239.784,533.07C239.043,531.43 238.732,529.633 239.026,527.998C239.977,523.498 241.602,518.877 243.717,514.767C245.425,512.765 247.891,511.378 249.876,509.623C251.916,508.093 255.296,508.895 257.346,510.065C265.462,513.845 271.519,521.998 277.021,528.808C280.909,533.27 284.464,538.738 285.72,544.611C286.116,547.633 284.907,550.813 283.993,553.685C283.439,560.128 279.478,565.041 274.486,568.731C273.94,569.173 273.365,569.6 272.757,570.005C271.823,570.208 270.306,571.295 269.457,570.635L269.437,570.592C270.309,570.969 271.669,570.027 272.533,569.841C275.48,567.877 278.532,564.968 280.515,562.059C280.515,562.059 282.766,555.507 281.689,551.749C280.344,545.598 276.529,541.477 273.315,536.365C267.63,529.327 261.374,520.905 252.991,517.004C250.873,515.793 247.383,514.963 245.275,516.547C242.509,520.047 241.498,524.663 239.991,528.831C239.559,530.166 239.511,531.645 239.784,533.07ZM269.18,570.355L269.176,570.343C269.178,570.379 269.192,570.41 269.216,570.435L269.18,570.355ZM578.613,566.288C577.537,565.96 576.467,565.567 575.406,565.13C569.931,562.123 564.756,558.801 560.511,554.166C555.966,549.238 551.061,543.53 548.586,537.253C545.65,531.673 543.535,526.003 542.076,519.875C541.079,515.008 540.22,510.26 541.475,505.363C541.559,502.911 542.298,501.134 543.72,499.192C544.818,499.019 545.585,499.1 546.295,500.053C547.579,501.913 548.521,504.005 549.831,505.865C549.883,506.027 549.931,506.189 549.975,506.351C547.877,506.633 547.463,510.767 546.673,512.452C545.567,517.677 546.663,522.649 547.909,527.742C549.689,534.15 552.136,540.044 555.436,545.807C561.685,554.356 568.963,561.972 578.613,566.288ZM256.518,545.77C256.665,547.76 256.683,549.762 256.538,551.778C255.68,556.108 254.86,560.075 250.902,562.65C247.02,565.121 243.482,562.259 240.22,560.18C237.244,558.521 234.994,556.06 232.724,553.571C228.155,547.2 224.121,540.018 221.956,532.445L221.822,532.035C219.238,525.121 218.608,517.071 217.769,509.804C217.779,505.512 217.302,500.953 218.723,496.852C219.591,496.079 220.277,496.041 220.764,496.737C222.542,499.338 223.888,502.081 225.113,504.879L224.225,504.26C224.234,511.092 226.229,517.97 227.171,524.615L227.3,525.012C228.823,527.93 229.498,531.224 231.225,534.089C235.537,542.961 240.956,550.641 250.392,554.481C252.063,554.766 253.67,554.533 255.323,554.255C256.279,551.465 256.592,548.626 256.518,545.77ZM179.281,543.478L174.928,543.613L171.709,548.968L174.248,556.145L167.353,560.39L161.781,554.975L155.593,556.475L152.522,563.165L144.859,561.41L144.877,553.303L139.961,550.663L132.559,553.34L128.378,546.755L133.986,541.055L132.71,534.905L125.518,531.53L127.283,524.038L135.038,523.7L138.517,518.173L135.918,511.295L142.788,506.923L147.772,512.308L154.114,511.055L157.408,503.893L164.948,505.363L165.116,512.878L168.187,514.918L159.922,526.288C154.831,524.21 150.503,525.748 149.054,527.683C141.63,537.583 152.988,544.498 158.711,540.943C163.682,537.853 163.079,531.823 163.079,531.823L176.951,529.108L177.71,532.505L181.675,534.568C180.891,537.358 180.081,540.328 179.281,543.478L179.281,543.478ZM467.752,559.747C467.747,559.754 467.991,560.127 468.145,560.356C468.3,560.585 468.366,560.67 468.008,560.105L467.752,559.747ZM711.037,507.286L708.895,512.864L712.373,518.309L720.129,518.643L721.894,526.015L714.701,529.337L713.426,535.385L719.034,540.997L714.853,547.479L707.451,544.842L702.535,547.439L702.552,555.425L694.889,557.15L691.817,550.563L685.629,549.092L680.058,554.42L673.163,550.241L675.701,543.174L672.482,537.903L664.547,537.667L663.043,530.381L669.701,526.973L670.46,523.63L684.332,526.304C684.332,526.304 683.728,532.234 688.699,535.275C694.422,538.775 705.781,531.968 698.357,522.228C696.907,520.326 692.581,518.809 687.49,520.851L679.225,509.664L682.295,507.657L682.464,500.261L690.004,498.816L693.298,505.858L699.64,507.097L704.623,501.791L709.655,504.944L711.037,507.286ZM552.818,510.887C552.619,506.776 553.821,502.507 555.411,498.853C558.988,490.198 567.591,483.748 575.901,479.99C577.341,479.165 579.801,478.806 580.521,477.201C579.471,477.186 578.428,477.164 577.37,477.134C577.108,472.852 580.055,469.446 583.745,467.699C587.643,465.741 592.297,465.53 596.756,465.686C598.242,465.738 599.707,465.831 601.115,465.913C610.903,467.541 622.1,471.719 628.37,479.812C631.127,483.446 633.35,487.917 634.382,492.568C633.338,489.146 631.707,485.882 629.761,483.037C624.16,476.039 616.123,471.646 607.439,469.942L607.439,469.942C601.067,468.058 593.734,468.749 588.021,472.275C585.479,474.444 582.961,477.423 583.433,481.034C587.448,479.743 590.906,477.79 595.283,478.065C602.247,478.569 609.416,480.548 615.118,484.761L615.736,485.234C618.903,487.636 621.571,490.613 623.252,494.254C625.162,497.828 625.646,502.482 623.479,506.052C621.96,508.65 619.837,510.412 616.88,511.105C609.195,512.65 601.298,510.339 594.857,505.989C592.272,504.131 589.393,503.894 586.705,505.757C584.771,507.161 586.244,509.952 586.751,511.766C589.64,515.681 592.997,518.729 594.664,523.493C596.131,526.372 595.763,529.528 595.853,532.755C594.803,536.963 591.377,542.124 586.791,542.668C586.731,543.587 581.157,543.819 580.94,542.988C573.823,542.549 566.976,536.732 562.423,531.546C561.027,530.172 559.734,528.7 558.575,527.135C562.535,531.22 567.657,534.998 573.074,535.543C574.731,535.153 576.958,535.289 578.675,535.461C583.078,535.124 586.551,530.361 587.713,526.423C587.751,523.363 588.223,520.393 586.933,517.611C585.515,513.043 582.425,510.036 579.815,506.218C579.32,505.393 578.466,503.692 578.466,503.692C578.466,503.692 581.941,500.756 586.828,498.768C587.339,498.607 587.62,498.852 587.498,499.42C588.07,501.128 591.155,501.636 592.577,502.624C597.23,505.754 603.223,507.12 608.744,506.04C611.412,505.403 613.259,503.759 615.226,501.987C617.433,498.69 617.147,494.267 615.457,490.814C613.989,487.306 611.551,484.389 608.615,481.997L608.042,481.526L605.032,481.073C605.032,481.073 603.445,481.125 598.759,480.223L598.759,480.223C588.252,478.459 579.273,483.337 571.03,489.13C566.98,492.414 563.444,496.085 560.758,500.538C557.612,506.582 556.057,514.195 557.992,520.81C558.348,521.424 558.836,521.962 559.458,522.418C557.802,522.387 557.397,520.263 556.829,518.968C556.499,517.356 554.189,517.176 553.821,515.766C553.499,514.941 553.26,514.094 553.095,513.233C553.033,512.46 552.954,511.66 552.818,510.887ZM243.17,538.609C244.555,539.576 246.278,539.996 248.222,539.503C248.289,536.928 247.411,534.525 248.241,531.883C248.594,530.662 248.785,528.24 250.444,528.24C251.503,529.345 252.296,530.784 253.065,532.226C251.653,532.363 250.233,532.483 248.851,532.745C248.722,534.478 249.793,536.803 248.823,538.281C248.687,538.326 248.55,538.362 248.414,538.392C248.444,538.812 248.458,539.241 248.447,539.668C246.396,540.187 244.59,539.691 243.17,538.609ZM315.197,470.477C315.527,469.36 315.715,468.162 315.736,466.882C318.469,466.762 321.508,468.111 324.056,469.101C327.057,469.828 329.567,472.596 330.878,475.296C332.457,479.263 330.611,483.329 327.5,485.901L326.962,486.322C326.501,486.862 326.005,487.356 325.495,487.829C318.071,494.226 308.136,497.983 300.072,503.368C299.239,507.83 297.707,513.201 294.277,516.336C294.132,516.464 293.986,516.591 293.836,516.718C293.598,516.958 293.348,517.191 293.086,517.423C289.252,520.671 283.988,522.71 278.933,522.32C277.765,522.44 276.58,522.245 275.486,521.81C275.398,521.795 275.31,521.772 275.221,521.758C272.535,520.52 270.807,518.728 269.505,516.096C269.459,514.213 269.385,512.293 269.606,510.418C270.493,507.358 272.562,504.636 274.511,502.168C275.664,500.563 277.704,499.955 277.03,497.676C276.322,496.157 277.585,498.415 278.622,501.193C277.077,503.959 272.547,505.838 271.564,509.319C270.677,511.722 269.533,515.032 270.935,517.407C272.099,520.43 275.475,522.481 278.708,522.156C283.763,522.547 289.027,520.506 292.861,517.254C296.686,513.954 298.021,509.138 298.326,504.255C306.633,498.284 317.372,494.469 325.269,487.66C327.387,485.724 329.266,483.187 329.39,480.211C328.684,476.539 326.09,474.784 323.248,472.772C320.783,471.816 317.874,470.535 315.197,470.477ZM602.034,521.054C602.047,521.02 602.062,520.987 602.078,520.954C602.586,521.248 603.099,521.527 603.616,521.79C603.084,521.562 602.557,521.316 602.034,521.054ZM203.978,515.718L203.921,515.091C203.524,504.869 203.183,494.908 208.197,485.623C209.979,482.983 212.233,480.906 215.557,480.673C217.292,480.793 219.738,480.718 221.562,481.356C226.329,483.021 225.315,482.758 228.416,484.498L231.594,486.5C232.335,486.973 232.773,487.371 233.312,487.896C236.811,492.974 240.818,498.785 242.184,504.868C242.95,508.018 242.95,511.325 241.26,514.19C240.245,514.333 239.221,514.416 238.196,514.454C237.824,515.204 237.556,516.081 237.208,516.891C237.141,518.909 236.732,520.97 234.951,521.195C234.403,520.923 233.895,520.604 233.424,520.246C233.831,520.537 234.265,520.8 234.726,521.029C237.578,520.676 236.911,515.583 236.958,513.571C235.785,506.017 230.826,498.74 226.391,492.665L225.923,491.94C223.177,489.842 221.527,487.219 218.007,486.161L218.008,486.161C214.813,484.74 211.35,487.057 209.634,489.747C205.381,497.777 203.891,506.827 203.978,515.718ZM531.018,505.452C532.772,505.474 530.706,505.979 529.711,505.649C528.52,502.821 527.44,499.514 527.634,496.425L527.634,496.342C527.038,492.113 528.646,488.722 529.165,484.732C528.563,484.777 527.975,484.792 527.45,484.687C526.643,484.574 525.863,484.364 525.112,484.079C523.011,483.479 521.099,482.385 519.481,480.735C514.458,476.28 511.577,469.387 509.435,463.155C507.062,455.798 508.289,447.816 512.574,441.389C516.175,434.984 523.018,430.237 529.361,426.817C538.474,422.669 547.994,418.964 557.75,416.677L557.75,415.432C557.487,415.379 558.921,414.744 564.667,416.747L564.875,417.555C559.732,419.087 554.338,420.003 549.228,421.678C542.415,424.344 535.519,426.209 529.143,429.896C523.3,432.762 518.486,437.1 514.415,442.104C511.675,446.569 509.119,452.263 509.671,457.581C509.403,462.543 511.975,466.821 513.609,471.617C516.121,477.085 520.823,483.576 527.23,484.524C528.771,484.83 530.866,484.074 532.216,484.75C531.988,487.277 530.729,489.846 530.251,492.39C529.456,495.001 529.937,498.042 528.985,500.544L528.988,500.63C529.934,502.238 529.455,504.141 531.018,505.452ZM126.926,498.459C131.034,498.206 136.398,497.09 139.347,490.373C139.474,490.084 139.972,490.281 140.282,490.231C162.834,486.57 180.079,466.898 180.079,443.213C180.079,416.924 158.838,395.582 132.676,395.582C106.514,395.582 85.273,416.924 85.273,443.213C85.273,462.819 97.089,479.674 113.951,486.975C114.356,487.151 115.205,487.044 115.176,487.485C114.927,491.27 120.758,498.838 126.926,498.459ZM239.089,448.101C238.78,453.029 237.795,452.878 237.992,448.603C238.048,444.831 237.688,441.194 238.713,437.511C239.091,434.159 240.421,431.196 243.126,429.089C243.523,428.884 243.982,428.827 244.471,428.867C245.938,428.99 247.664,430.004 248.731,430.634L248.934,430.716C250.845,431.309 252.295,431.916 253.726,433.356C259.598,438.846 264.049,445.851 269.284,451.956C278.167,463.386 287.279,474.703 295.7,486.486C296.448,487.318 296.743,488.556 298.111,487.926C301.84,484.881 305.746,482.046 309.273,478.769C311.508,476.879 313.367,474.785 314.508,472.315C313.885,476.61 311.348,479.916 307.978,482.757C304.335,486.143 300.301,489.071 296.447,492.219C295.036,492.867 294.731,491.589 293.958,490.731C285.26,478.561 275.847,466.868 266.672,455.061C261.264,448.757 256.667,441.527 250.601,435.853C249.123,434.365 247.626,433.735 245.651,433.125L245.442,433.039C240.311,435.824 239.804,443.103 239.089,448.101ZM151.504,407.671L153.114,417.063L159.872,420.913L168.48,416.033L174.786,423.278L169.653,431.3L170.896,435.471L154.16,441.072C154.16,441.072 151.15,434.132 143.865,433.833C135.479,433.489 128.258,449.134 140.73,453.835C149.449,457.121 154.415,449.744 154.716,449.281L154.731,449.258L170.002,456.344L167.905,460.461L171.953,467.985L165.044,474.27L157.055,469.245L149.393,471.787L147.256,480.739L137.123,480.212L135.765,471.114L128.617,467.231L119.978,471.649L113.501,464.574L119.268,456.457L116.915,448.972L107.348,446.219L106.387,436.278L117.564,434.813L121.303,428.902L116.346,420.071L123.611,413.43L131.023,418.828L138.66,416.638L141.424,407.299L151.504,407.671ZM692.87,436.103L676.322,430.928L677.896,426.692L672.575,419.179L679.025,412.256L687.538,416.9L694.785,413.531L695.819,404.607L705.87,403.919L708.299,412.57L715.81,415.484L723.796,410.182L731.028,416.267L726.317,424.813L729.533,431.783L739.293,433.317L739.932,442.832L730.59,445.574L727.613,451.742L733.557,459.708L727.192,467L719.239,462.649L711.974,465.675L710.369,475.047L700.388,475.88L697.676,466.974L690.553,464.045L682.461,469.575L675.552,463.386L679.667,455.143L677.942,451.251L693.767,443.845C693.767,443.845 697.566,450.209 704.782,449.636C713.09,448.977 719.371,433.922 704.736,429.583C701.877,428.735 696.434,430.363 692.87,436.103ZM521.33,465.138C521.605,466.556 522.383,467.922 523.886,469.155C528.641,471.225 534.513,470.422 539.351,469.155C543.451,464.378 548.584,460.327 553.774,456.802C562.767,450.989 572.803,446.399 583.243,443.932C587.068,443.639 589.984,442.155 593.861,443.46C598.669,444.015 603.072,446.924 604.954,451.447C606.042,455.047 606.44,459.045 602.69,461.205L602.479,461.242C601.871,461.699 603.114,460.775 603.89,458.5C604.219,455.491 603.506,452.084 601.411,449.802C598.772,446.139 593.771,445.463 589.604,444.943C584.288,445.273 579.206,446.63 574.301,448.681C563.828,453.197 554.139,459.019 545.862,466.905C544.09,468.733 542.542,470.65 540.31,471.985C535.31,473.454 529.216,474.479 524.193,472.491C520.943,471.143 521.293,465.853 521.33,465.138C521.327,465.124 521.325,465.111 521.322,465.097C521.334,465.031 521.334,465.049 521.33,465.138ZM250.952,471.733C251.336,472.746 247.969,465.771 247.511,461.165C247.473,457.903 247.425,454.641 247.425,451.389C248.179,451.627 248.722,452.028 249.056,452.591C250.173,454.41 251.307,456.216 252.452,458.015L251.675,457.574C250.909,462.591 255.397,467.466 255.563,472.176C254.787,472.828 253.307,472.588 250.952,471.733ZM322.174,380.885C322.176,380.888 322.184,380.898 322.181,380.895L322.177,380.892L321.954,380.636C321.367,379.997 319.734,378.373 318.201,378.021C318.1,379.634 319.513,380.421 319.808,381.966C318.174,382.153 315.836,381.52 314.201,381.468C316.316,384.88 319.707,388.454 321.868,391.874C328.681,403.237 334.203,416.098 336.271,429.238C337.01,431.991 336.843,434.714 336.909,437.519C337.499,445.694 334.757,454.702 329.051,460.687C328.733,461.024 328.399,461.339 328.052,461.632C327.745,461.984 327.426,462.328 327.096,462.666C323.901,465.411 323.677,465.245 326.872,462.499C332.718,456.509 334.883,448.383 334.979,440.21C333.853,423.166 326.948,406.219 317.353,392.18C312.499,385.122 306.414,378.789 297.935,376.376C292.022,375.06 287.12,377.339 282.819,381.25C275.933,388.899 273.796,399.685 274.092,409.709C274.004,412.874 274.297,416.046 275.061,419.072C274.821,418.505 274.589,417.933 274.363,417.358C272.755,410.886 272.913,404.422 273.254,397.807C274.427,390.877 275.803,384.404 280.401,378.824C283.309,374.309 288.6,371.294 293.863,370.559C299.652,370.139 303.391,373.469 308.322,375.427C308.727,376.094 309.052,376.243 309.515,376.876C311.642,379.346 314.227,381.778 317.755,381.521C317.164,378.431 311.48,374.32 313.235,370.515C315.695,373.433 317.803,376.456 320.693,379.022C321.29,379.805 321.686,380.302 321.918,380.586L322.181,380.895C322.182,380.896 322.179,380.892 322.174,380.885L322.174,380.885ZM286.575,432.757C286.706,433.237 284.764,428.851 284.249,426.085C282.876,420.191 281.979,414.354 282.428,408.298C283.343,402.947 284.297,396.233 288.245,392.141L288.98,391.397C291.698,388.012 301.323,388.474 296.633,388.816C294.223,388.733 292.791,390.219 290.741,391.17L290.031,391.89C288.424,395.75 286.079,398.88 285.829,403.34C286.873,403.201 287.714,402.581 288.342,401.501C289.496,399.996 292.108,399.654 293.844,399.193C296.429,399.331 299.07,400.413 301.489,401.299C302.163,403.1 302.856,405.084 302.847,407.032C302.33,409.239 300.899,411.086 300.834,413.495C300.529,418.417 302.395,422.517 304.177,426.948C306.808,433.643 311.102,439.718 316.023,444.916C317.768,446.477 320.103,448.563 322.587,448.277C325.034,447.676 325.735,445.166 326.363,443.051C326.563,441.539 326.713,446.118 324.526,449.614C323.333,451.33 321.464,451.931 319.518,451.092C316.228,450.071 314.435,447.544 312.032,445.198C307.883,440.095 304.354,434.688 302.027,428.507C300.024,423.882 298.45,418.55 298.832,413.476C299.452,411.168 300.453,409.023 301.207,406.772C300.453,404.998 297.735,404.387 296.009,404.063C292.556,403.605 288.875,404.035 287.168,407.497C284.974,411.35 285.661,415.05 285.594,419.275C286.225,424.383 287.629,428.963 289.466,433.375C288.356,433.247 287.417,433.05 286.575,432.757ZM485.051,447.892C486.141,449.69 486.742,450.246 486.024,450.096C485.719,450.036 485.404,449.925 485.079,449.925C483.803,449.445 483.595,448.258 482.681,446.976C481.606,445.468 480.575,442.117 480.506,441.802C480.044,439.755 479.047,437.782 478.642,435.689C476.335,427.867 475.911,419.805 474.443,411.855C474.369,410.092 474.231,408.449 473.344,406.867C468.266,404.212 464.471,400.514 462.476,395.091C461.701,390.666 461.552,385.784 464.017,381.839C464.83,379.994 466.317,379.049 467.644,377.834C470.897,377.872 481.402,379.378 481.367,379.408C485.753,381.066 488.93,385.222 489.391,389.879C491.275,390.149 492.345,390.044 494.136,389.399C501.653,389.204 509.168,386.909 516.49,385.266C523.48,383.714 530.192,381.193 537.191,379.798L537.311,379.093C539.31,379.525 538.798,379.202 541.369,380.187C542.608,380.661 545.374,381.083 545.394,382.752C541.455,383.467 537.716,384.87 533.787,385.652C518.098,389.323 503.716,393.644 487.388,392.986C487.197,392.261 487.035,391.517 486.92,390.773C486.443,385.957 483.163,381.665 478.632,379.958C474.817,379.109 471.594,380.139 468.942,382.943C465.261,387.635 464.984,394.55 467.254,399.91C468.504,402.285 470.669,404.164 472.576,406.061C474.197,407.788 476.563,407.454 476.973,410.105C477.688,416.343 478.155,422.552 478.957,428.789C480.511,435.608 480.864,441.912 485.051,447.892ZM502.752,441.793C501.634,443.616 499.967,444.554 501.398,441.932C502.094,441.016 501.942,440.282 500.94,439.728C494.464,435.599 492.833,428.112 490.84,421.188C490.296,417.878 488.704,414.941 488.189,411.66C490.926,411.096 491.002,411.151 491.543,411.111C492.26,415.131 493.652,419.053 494.728,422.983C496.52,428.361 498.061,433.843 503.332,436.858C505.179,437.901 503.638,440.541 502.752,441.793ZM587.257,424.456C587.548,423.747 587.974,422.4 588.088,420.619C586.619,416.469 582.455,414.234 578.637,412.601C573.704,410.093 568.019,408.499 562.456,408.607C560.106,408.001 558.027,408.373 555.723,408.914L555.723,408.914C550.137,408.976 543.741,410.894 541.105,416.18C540.494,414.807 540.237,413.179 541.319,411.997C544.486,407.684 550.198,406.101 555.29,405.718C557.155,405.212 558.91,405.076 560.637,405.125C563.515,405.207 566.315,405.807 569.413,406.079C576.08,407.856 584.174,410.713 588.704,416.158C589.094,418.033 589.273,420.509 588.665,422.339C588.247,423.029 587.77,423.757 587.257,424.456C586.972,425.152 586.819,425.232 587.224,424.499L587.225,424.499L587.257,424.456ZM339.76,313.578C338.184,313.392 336.577,313.689 334.776,313.468L334.147,312.029C338.856,306.479 344.96,304.641 351.553,302.264C353.025,301.705 354.63,301.511 356.259,301.461C357.889,301.411 359.544,301.506 361.118,301.529C365.476,302.504 369.815,304.732 373.823,306.689C384.155,312.907 391.393,322.634 395.899,333.704C398.272,338.189 400.026,343.138 400.783,348.163C402.03,351.261 401.394,354.659 401.551,358.124C401.929,362.632 399.574,367.161 396.85,370.596C396.166,371.218 395.574,372.096 394.805,372.546L394.805,372.547C392.991,374.82 391.242,376.941 388.695,378.209C387.814,378.801 386.848,379.296 385.744,379.656C381.718,381.306 377.885,380.728 373.711,380.286C374.137,384.186 377.432,388.874 376.694,393.209C376.763,395.691 375.087,398.729 372.793,400.011C372.689,400.364 373.625,394.873 372.261,391.449C370.774,385.784 367.474,380.891 365.738,375.36C367.521,375.474 368.523,376.647 370.087,377.362C375.456,379.661 381.15,380.929 386.768,378.717C390.363,377.629 392.471,375.026 394.712,372.212C396.544,368.636 397.221,364.897 397.526,360.92C396.916,354.702 395.666,348.703 393.129,342.961C390.478,337 388.17,331.364 384.116,326.166C378.575,318.545 370.383,312.623 361.389,309.819L361.389,309.819C355.476,307.473 347.951,309.485 342.448,312.213C341.59,312.663 340.678,313.109 339.76,313.578ZM304.29,356.932C304.254,354.204 304.418,351.455 304.711,348.697C309.143,344.092 316.281,345.922 321.443,348.127C325.893,349.642 328.644,352.897 331.719,356.249C336.861,362.969 341.488,369.622 347.369,375.735C351.007,379.432 354.045,383.158 358.597,385.783C359.631,386.496 361.164,386.481 362.373,386.654L363.63,385.437C363.752,386.665 363.66,387.899 363.23,389.112C362.266,391.554 359.577,392.136 357.345,391.058C351.794,388.502 348.685,384.287 344.355,380.224C339.081,374.282 334.284,367.997 329.572,361.607C324.355,354.663 316.105,351.097 307.455,352.355C306.558,352.851 305.042,353.347 304.699,354.396C304.523,355.237 304.387,356.083 304.29,356.932ZM563.586,381.928C563.653,382.183 563.585,382.052 563.563,382.562C558.269,376.21 548.36,373.444 540.482,372.242L540.482,372.242C534.255,371.615 528.488,371.429 523.452,375.418C522.149,375.005 520.834,374.661 519.519,374.279C519.529,373.739 519.564,373.199 519.629,372.651C521.208,370.776 522.926,369.126 525.226,368.166C530.212,366.103 536.452,366.907 541.725,367.192C548.446,368.579 556.137,370.529 561.5,375.014C563.78,376.574 563.023,379.475 563.586,381.928ZM186.659,335.17L206.703,336.4L206.792,330.974L215.706,324.801L211.667,314.285L200.519,315.878L194.12,309.011L196.771,298.552L186.215,293.504L179.941,302.183L170.605,302.26L164.224,292.91L153.851,296.666L155.328,308.265L148.915,314.724L137.735,312.294L133.028,322.706L141.953,329.759L142.562,337.95L132.785,344.366L136.576,355.262L146.996,353.759L153.56,360.248L151.336,371.453L161.756,376.635L168.442,367.788L177.366,367.53L183.765,377.181L193.833,373.171L192.872,362.166L196.376,358.529L182.423,343.481C182.423,343.481 175.637,349.012 168.091,345.299C159.404,341.024 158.979,321.449 176.606,322.802C180.049,323.066 185.236,327.209 186.659,335.17L186.659,335.17ZM463.569,350.138C459.427,352.055 457.62,355.156 457.906,359.197C458.22,363.629 461.609,366.456 465.201,368.586C466.087,368.721 466.964,368.894 467.823,369.127C475.883,371.534 485.265,370.687 493.667,371.032C495.292,371.865 496.208,375.188 495.744,375.174C484.896,375.227 471.298,375.101 461.601,369.805C457.638,367.655 453.88,364.773 453.428,360.122C454.532,354.884 458.925,352.221 463.569,350.138L464.017,349.939L463.569,350.138ZM660.754,332.755L640.71,333.965L640.621,328.625L631.707,322.55L635.746,312.199L646.894,313.767L653.293,307.009L650.642,296.715L661.199,291.746L667.472,300.289L676.808,300.364L683.189,291.162L693.563,294.859L692.085,306.275L698.498,312.632L709.679,310.24L714.385,320.487L705.461,327.429L704.851,335.491L714.629,341.806L710.837,352.53L700.418,351.051L693.854,357.437L696.077,368.466L685.658,373.566L678.971,364.858L670.047,364.604L663.648,374.103L653.58,370.156L654.542,359.325L651.037,355.746L664.99,340.935C664.99,340.935 671.776,346.379 679.322,342.724C688.01,338.517 688.434,319.25 670.808,320.582C667.364,320.842 662.177,324.92 660.754,332.755ZM340.683,337.372C340.627,335.238 340.415,333.367 341.912,331.364C344.489,329.317 347.203,329.842 350.242,330.119C354.331,331.072 358.274,333.043 361.515,335.721C366.289,339.028 368.236,343.821 372.197,348.096C375.207,351.876 378.477,355.341 382.152,358.454C383.554,359.167 387.536,360.858 389.8,360.596C389.703,361.07 389.611,361.555 389.534,362.055C389.124,363.81 388.465,365.345 386.539,365.765C382.514,367.272 377.917,363.466 375.237,360.786C369.782,355.865 365.948,349.79 361.293,344.163C357.173,340.119 352.042,337.134 346.243,336.399C344.236,335.758 342.555,336.728 340.683,337.372ZM442.155,365.994C438.628,363.367 435.637,360.101 433.843,356.016C433.318,353.826 433.291,350.144 433.872,347.939C435.165,345.142 437.233,342.674 439.2,340.304C449.338,330.269 463.603,324.645 477.526,322.485C483.684,321.097 489.808,322.199 495.994,321.179C508.099,322.192 519.584,324.314 528.827,332.894C529.211,333.339 529.566,333.807 529.899,334.305C529.03,333.66 528.102,333.073 527.066,332.584C515.534,326.681 501.113,325.321 488.293,326.614L488.293,326.615C480.126,327.38 471.945,329.253 464.227,331.999C454.826,335.843 445.532,340.84 439.645,349.174C436.716,352.865 436.407,358.077 439.003,362.007C439.949,363.471 441.005,364.792 442.155,365.994ZM518.303,342.9C517.571,342.396 516.193,341.956 517.427,342.123C521.079,342.62 526.02,344.494 527.896,347.731C527.632,349.311 525.441,350.188 524.235,351.09C518.415,355.015 511.854,355.199 505.134,356.377C503.647,356.82 501.054,356.881 501.456,359.027C501.219,360.156 502.176,361.12 502.881,362.07C501.117,360.535 499.186,359.324 497.388,357.817C496.04,356.902 496.132,354.674 496.427,353.264C497.692,352.341 499.105,352.236 500.573,351.884C506.242,350.871 512.945,350.092 517.848,346.972C518.817,346.297 519.806,346.267 519.89,344.91C519.648,343.878 518.969,343.36 518.303,342.9ZM301.37,280.805C314.588,271.813 324.761,258.635 329.998,243.178C331.794,244.192 333.844,244.686 334.734,244.752C336.715,244.418 338.367,245.741 340.184,246.493C343.38,247.258 346.631,248.533 349.955,248.645C352.596,249.86 355.089,249.26 357.906,249.583C358.193,254.645 356.502,258.763 356.863,263.75C356.863,266.015 357.86,267.935 357.694,270.245C357.321,273.095 360.643,275.158 360.696,277.685C358.62,277.993 357.125,279.568 354.974,279.703C353.582,279.68 352.54,280.258 351.434,281.053C348.797,282.463 347.22,284.93 344.713,286.595C339.799,290.908 333.812,296.36 328.668,300.44C326.474,299.593 325.43,298.775 323.559,297.343C320.996,295.858 317.695,294.733 315.639,292.423C312.422,290.203 309.89,288.125 306.899,285.83L301.37,280.805ZM287.543,274.806C287.209,274.745 281.515,277.288 281.515,277.288L280.479,283.866L264.554,287.316L263.064,275.533L252.279,269.811L240.884,276.456L231.476,266.113L239.961,254.856L236.241,244.543L222.847,240.853L223.967,226.956L238.046,225.373L242.645,215.331L235.62,202.686L246.063,193.746L257.586,202.656L267.692,197.886L270.63,184.693L284.492,185.226L286.267,198.898C292.56,201.568 296.841,204.426 296.841,204.426L308.475,197.646L310.802,200.083C310.526,202.843 311.834,210.576 312.233,214.393L309.277,218.106C311.451,221.563 312.348,224.518 312.685,225.936C311.787,226.851 311.084,227.758 312.082,228.996C315.629,233.398 321.234,237.658 325.883,240.673L325.033,247.071L313.014,248.293L309.791,253.791L288.209,244.161C289.514,238.746 290.567,233.113 284.898,226.753C280.774,222.118 273.362,220.551 266.522,224.946C254.907,232.416 260.88,246.786 269.012,250.611C273.953,252.936 279.629,252.606 279.684,251.983C279.698,251.834 287.1,273.905 287.538,274.796L287.543,274.806C287.554,274.806 287.56,274.806 287.558,274.82C287.556,274.82 287.552,274.82 287.543,274.806ZM543.768,200.173L550.571,204.073C550.571,204.073 554.846,201.26 561.146,198.635L562.916,185.173L576.776,184.655L579.716,197.63L589.826,202.325L601.346,193.558L611.794,202.355L604.766,214.805L609.364,224.69L623.441,226.25L624.566,239.923L611.171,243.56L607.451,253.708L615.934,264.785L606.529,274.963L595.129,268.423L584.344,274.055L582.859,285.658L566.929,282.253L565.894,275.788C565.894,275.788 560.201,273.283 559.864,273.335C559.855,273.35 559.855,273.358 559.85,273.35C559.85,273.341 559.858,273.341 559.864,273.335C560.254,272.63 567.709,250.73 567.724,250.88C567.784,251.488 573.454,251.81 578.396,249.53C586.526,245.765 592.504,231.62 580.886,224.27C574.046,219.943 566.636,221.488 562.511,226.048C556.841,232.31 557.899,237.853 559.204,243.178L537.618,252.658L534.396,247.25L522.084,246.193L521.921,244.303C524.588,243.388 527.57,242.053 529.089,239.698C529.2,237.673 529.929,235.408 528.396,233.855C528.245,233.518 528.166,233.203 528.149,232.91L534.815,227.825L534.544,226.123C534.544,226.123 534.64,225.44 534.984,224.285C537.732,219.935 540.645,215.263 542.304,210.688C542.977,207.163 544.926,204.088 543.311,200.465L543.768,200.173ZM214.184,283.997C214.258,283.992 214.342,283.982 214.193,283.972C214.19,283.98 214.187,283.989 214.184,283.997L214.126,284.002L214.183,284.001L214.184,283.997ZM361.881,277.408C361.881,277.49 361.877,277.573 361.87,277.648C361.689,277.634 361.513,277.625 361.341,277.625C361.582,277.513 361.735,277.475 361.881,277.408L361.881,277.408ZM338.749,227.011C338.258,226.465 337.864,225.851 337.607,225.14L336.899,223.28C336.487,222.448 336.144,221.405 335.747,221.008C335.63,219.763 335.651,219.289 334.65,218.907C334.587,210.694 332.466,202.558 329.954,195.193C330.878,193.97 331.763,192.748 332.267,191.9C332.403,191.68 331.996,192.07 332.797,190.824C332.815,190.796 332.93,190.31 332.949,190.28C333.029,189.793 333.995,188.51 335.225,187.003C335.298,186.328 335.237,186.365 335.727,185.87C336.248,185.21 337.04,184.655 337.47,183.905C338.319,181.985 338.19,179.533 338.126,177.478C340.26,174.433 339.643,173.893 339.866,172.198C341.579,194.585 352.064,214.603 367.839,228.71L367.59,228.943C367.412,229.093 367.243,229.243 367.082,229.401C366.669,229.745 366.609,229.821 366.298,230.122C366.254,230.126 365.899,230.431 365.368,231.291L364.796,232.468C364.618,232.801 364.457,233.134 364.307,233.455L364.158,233.788C363.687,234.516 363.336,235.191 363.105,236.023C362.246,238.191 361.129,240.246 360.159,242.376C356.225,238.851 351.497,237.306 348.016,233.301C345.656,230.743 341.1,229.633 338.753,227.016L338.749,227.011ZM364.307,233.455L364.307,233.455ZM338.702,226.942C338.718,226.965 338.733,226.988 338.749,227.011C338.808,227.076 338.868,227.14 338.929,227.203L338.954,227.209C338.865,227.125 338.781,227.036 338.702,226.942ZM460.843,141.44L463.999,139.528L474.753,150.748L466.35,164.3L471.774,176.285L486.532,179.413L486.05,195.89L471.066,198.44L465.872,210.598L473.984,223.573C473.756,223.25 473.496,224.157 473.146,223.902C471.336,222.349 468.594,219.733 467.135,217.835C464.789,214.955 465.859,207.538 465.425,208.183C463.865,203.578 460.614,200.938 456.431,198.778C452.405,195.523 446.817,195.47 441.941,196.34C442.373,194.803 443.065,193.835 442.638,192.418C443.182,191.023 443.522,189.673 443.68,188.413C445.554,185.21 448.408,182.053 446.065,178.97C446.517,175.948 449.144,174.508 449.468,171.365C451.093,168.088 451.61,166.558 450.022,163.01C451.823,159.785 452.986,156.395 454.454,153.035C454.685,151.55 453.965,150.568 453.392,149.308C455.563,146.893 458.148,144.808 460.18,142.28C460.424,142.01 460.634,141.718 460.843,141.44ZM398.827,144.95L404.387,148.535L414.59,143.083L418.585,127.565L434.679,127.685L437.925,143.473L447.287,147.05C447.252,147.08 447.215,147.11 447.178,147.133C446.149,147.898 446.356,147.598 446.297,147.703C444.385,151.295 441.949,155.54 442.051,159.553C442.383,161.78 440.693,161.113 439.511,162.253C438.542,166.13 440.831,168.943 439.16,172.61C438.38,173.015 437.574,173.375 436.745,173.69C426.08,164.975 409.924,174.68 409.482,185.608C409.145,193.933 414.482,199.168 417.679,201.538C416.804,201.523 415.933,201.5 415.067,201.485C413.792,202.52 411.89,201.92 410.33,202.4C409.018,200.863 409.184,197.615 408.215,195.793C407.328,194.563 406.424,193.295 405.352,192.238C403.911,191.608 402.665,191.33 401.705,189.973C401.778,185.953 400.199,181.955 399.193,178.1C398.279,177.283 397.041,177.065 396.265,176.158C397.226,172.753 396.653,169.453 398.592,166.25C399.461,164.728 401.354,162.41 399.857,160.738C398.832,159.163 396.828,159.44 396.237,157.678C398.528,154.085 398.093,150.193 399.017,146.338C398.996,145.813 398.932,145.355 398.827,144.95ZM390.385,139.753C390.875,140.623 391.256,141.433 391.468,142.093C389.03,142.618 390.447,149.653 389.977,156.928C387.472,158.698 388.158,159.89 387.804,162.358C387.742,162.793 387.649,163.258 387.502,163.775L387.197,164.75C387.39,165.725 387.78,166.835 387.974,167.803C387.152,171.088 388.307,174.83 389.47,177.935C388.934,179.87 388.076,181.175 388.621,183.328C390.985,186.755 394.051,189.718 396.812,192.823C397.301,193.805 397.203,194.78 397.552,195.973C395.723,196.378 393.422,195.793 391.557,195.86C388.274,195.973 384.805,198.388 383.028,199.895C382.174,200.615 381.944,201.05 381.944,201.05L381.814,201.193L380.715,198.89L365.506,195.32L366.238,178.948L381.94,175.423L386.553,163.265L378.675,150.703L390.385,139.753ZM567.329,106.66L567.328,106.663C567.273,107.138 567.336,106.66 567.33,106.659L567.329,106.66Z" style="fill:white;"/>
        </g>
    </g>
</svg>
