<?xml version="1.0" encoding="UTF-8" standalone="no"?>
<!DOCTYPE svg PUBLIC "-//W3C//DTD SVG 1.1//EN" "http://www.w3.org/Graphics/SVG/1.1/DTD/svg11.dtd">
<svg width="100%" height="100%" viewBox="0 0 132 135" version="1.1" xmlns="http://www.w3.org/2000/svg" xmlns:xlink="http://www.w3.org/1999/xlink" xml:space="preserve" xmlns:serif="http://www.serif.com/" style="fill-rule:evenodd;clip-rule:evenodd;stroke-linejoin:round;stroke-miterlimit:2;">
    <g transform="matrix(1,0,0,1,-581.738,-498.569)">
        <g id="g2474" transform="matrix(0.0978828,0,0,0.0978828,626.544,482.313)">
            <path id="path2949" d="M-80.801,1369.92L-378.926,1196.7L-378.645,1019.88C-378.49,922.627 -378.217,842.804 -378.038,842.494C-377.859,842.185 -375.032,841.932 -371.757,841.932L-365.801,841.932L-365.801,1188.1L-73.983,1355.96L217.836,1523.82L235.287,1513.81C244.885,1508.31 376.299,1432.76 527.317,1345.93L801.896,1188.06L801.947,886.402L805.861,887.417C808.013,887.975 811.061,888.432 812.634,888.432C814.244,888.432 815.641,888.842 815.829,889.369C816.104,890.138 818.421,1196.84 818.155,1197.16C817.778,1197.61 218.217,1543.18 217.83,1543.16C217.551,1543.15 83.167,1465.2 -80.802,1369.92L-80.801,1369.92ZM197.074,1407.76C175.266,1404.8 154.263,1397.57 135.314,1386.5C115.265,1374.79 94.682,1354.68 80.843,1333.29C72.032,1319.67 63.381,1298.13 59.816,1280.94C56.113,1263.09 55.517,1239.93 58.322,1222.93C68.172,1163.24 110.07,1114.19 167.177,1095.5C213.154,1080.45 262.917,1086.27 303.154,1111.41C322.931,1123.77 343.114,1143.95 355.472,1163.73C376.683,1197.68 384.251,1239.97 376.266,1279.93C362.846,1347.09 307.003,1398.9 238.473,1407.79C227.692,1409.18 207.458,1409.17 197.074,1407.76ZM-317.988,1190.5L-344.051,1175.45L-344.048,836.307L-340.692,834.187C-329.769,827.286 -323.095,812.994 -323.063,796.435C-323.031,779.071 -329.343,764.959 -340.329,757.841L-344.051,755.429L-344.051,624.329L-338.238,624.819C-327.223,625.748 -307.794,623.154 -295.301,619.085C-292.62,618.212 -286.65,615.671 -282.036,613.438C-244.26,595.157 -222.278,555.972 -226.228,513.954C-227.643,498.911 -231.566,485.629 -238.052,473.923L-240.62,469.289L-235.335,466.235C-226.077,460.886 -219.97,457.409 -218.426,456.608C-216.959,455.847 -216.924,456.082 -216.849,467.193C-216.788,476.255 -216.45,479.742 -215.183,484.407C-213.031,492.326 -209.029,499.671 -203.692,505.494C-198.31,511.369 -193.89,514.689 -186.512,518.404C-183.439,519.95 -179.329,522.596 -177.378,524.283C-170.9,529.884 -166.292,531.967 -137.801,542.17C-135.532,542.983 -135.145,543.481 -134.946,545.843C-134.453,551.71 -139.611,557.49 -146.801,559.127C-160.588,562.266 -178.717,555.615 -194.716,541.548C-197.35,539.232 -199.769,537.611 -200.09,537.947C-201.823,539.756 -226.339,587.013 -225.907,587.712C-225.194,588.866 -216.274,594.513 -208.665,598.627C-205.165,600.519 -202.301,602.335 -202.301,602.662C-202.301,603.624 -193.507,609.032 -185.426,613.04C-167.019,622.168 -145.107,626.309 -124.849,624.486C-87.336,621.11 -64.033,601.325 -59.741,569.205C-57.351,551.318 -61.815,533.66 -71.534,522.549C-73.447,520.362 -76.102,516.319 -77.435,513.565C-85.259,497.388 -99.424,487.191 -126.514,478.237C-133.711,475.857 -139.715,473.564 -139.856,473.141C-140.321,471.746 -136.174,467.643 -132.266,465.633C-129.154,464.032 -127.097,463.595 -121.419,463.327C-110.803,462.827 -102.152,465.563 -91.517,472.785L-87.12,475.771L-77.13,456.307C-71.636,445.601 -67.261,436.734 -67.408,436.601C-68.104,435.974 -77.065,431.756 -80.202,430.579L-83.729,429.256L-80.703,423.238C-78.309,418.475 -77.886,417.081 -78.677,416.549C-84.516,412.616 -103.84,404.947 -114.369,402.383C-118.187,401.453 -121.225,400.623 -121.119,400.539C-120.379,399.95 215.103,207.216 216.486,206.585C218.058,205.869 241.711,219.284 444.657,335.995C569.186,407.61 671.164,466.467 671.273,466.788C671.382,467.11 670.032,468.075 668.273,468.934C666.514,469.792 663.227,471.887 660.969,473.588C658.712,475.29 656.602,476.682 656.282,476.682C655.961,476.682 655.699,474.151 655.699,471.057L655.699,465.432L629.886,465.432C615.688,465.432 603.538,465.637 602.886,465.887C601.391,466.461 601.357,470.366 602.824,472.932L603.896,474.807L603.947,470.682L650.447,470.682L650.492,492.057L652.382,489.807C659.298,481.574 661.542,479.391 666.487,476.084C669.537,474.044 674.179,471.647 676.801,470.759C682.497,468.83 695.004,467.333 699.632,468.027L702.945,468.524L702.945,512.496L697.882,510.588C693.587,508.969 691.513,508.671 684.195,508.618C670.724,508.522 663.127,511.69 657.608,519.704C651.53,528.528 650.492,536.531 650.464,574.744L650.444,601.932L603.944,601.932L603.944,475.932L598.694,475.932L598.694,607.143L610.132,607.35L621.569,607.557L621.787,613.744L622.005,619.932L668.444,619.932L668.444,588.106C668.444,553.678 668.807,549.579 672.547,541.672C673.568,539.515 675.607,536.343 677.08,534.623C684.589,525.85 702.624,523.084 716.632,528.558L718.694,529.364L718.694,607.143L730.132,607.35L741.569,607.556L741.787,613.744L742.005,619.931L780.194,619.931L780.194,802.597L777.083,806.702C773.205,811.819 770.023,818.686 768.485,825.259C767.046,831.408 766.88,844.42 768.162,850.556C769.378,856.376 773.432,865.16 777.211,870.165L780.194,874.117L780.18,1024.71L780.169,1175.31L753.562,1190.56L726.954,1205.81L724.362,1204.21C719.877,1201.44 710.12,1196.88 703.98,1194.69C700.729,1193.54 676.132,1186.83 649.32,1179.79L600.57,1166.99L597.891,1156.15C596.418,1150.18 594.139,1141.72 592.828,1137.34C591.517,1132.96 590.445,1128.95 590.445,1128.43C590.445,1127.92 607.769,1110.24 628.944,1089.15C669.14,1049.12 672.231,1045.63 679.221,1032.4C684.063,1023.24 685.743,1017.57 686.207,1008.81C687.209,989.871 677.218,972.416 660.551,963.984C651.587,959.449 646.78,958.556 631.32,958.557C613.807,958.557 616.905,957.904 555.401,974.602L508.732,987.272L494.463,973.044C486.615,965.219 480.194,958.518 480.194,958.154C480.194,957.79 485.906,936.637 492.886,911.149C506.97,859.72 508.6,852.51 509.204,838.931C509.902,823.267 506.995,811.508 499.993,801.672C497.576,798.276 496.694,796.322 496.694,794.36C496.694,791.725 496.645,791.681 493.623,791.681C491.829,791.681 489.723,791.097 488.56,790.276C480.707,784.734 471.036,781.671 461.444,781.688C452.408,781.705 446.006,783.296 436.036,788.005L428.252,791.681L396.194,791.681L396.194,819.814L338.57,877.424L329.32,874.792L320.069,872.16L320.069,842.306L335.819,841.852C347.787,841.507 352.56,841.081 355.694,840.08C369.587,835.644 378.711,827.003 383.23,814.006C385.803,806.605 386.491,791.584 384.638,783.256C380.983,766.827 370.946,756.225 354.515,751.436C350.658,750.312 345.482,750.104 315.393,749.864L280.717,749.587L280.319,794.306L278.17,786.056C268.522,749.017 256.718,729.681 238.569,721.188C224.39,714.553 207.277,715.421 193.593,723.469C182.427,730.037 170.879,745.62 165.137,761.869C164.176,764.588 164.024,764.681 160.561,764.681L156.979,764.681L156.569,791.306L146.444,791.75L146.444,807.028C146.444,818.157 146.686,822.387 147.335,822.603C147.962,822.812 147.14,827.047 144.559,836.903C142.542,844.605 140.653,850.519 140.36,850.045C139.998,849.459 139.056,849.835 137.405,851.225C125.55,861.2 109.167,859.087 103.617,846.867C100.626,840.281 102.555,829.489 107.542,824.905C110.727,821.978 116.266,820.012 121.248,820.04C126.249,820.069 134.272,822.61 134.951,824.379C135.188,824.996 136.408,825.431 137.9,825.431L140.444,825.431L140.444,794.599L136.375,792.799C126.786,788.558 112.873,787.642 101.819,790.523C84.146,795.13 70.165,808.955 65.758,826.181C65.072,828.862 64.468,833.998 64.415,837.593L64.319,844.129L59.312,839.167C54.797,834.694 54.253,833.829 53.785,830.381C52.332,819.686 47.134,808.704 40.278,801.848C32.172,793.742 21.461,789.387 6.901,788.276C2.604,787.948 -1.216,787.214 -2.815,786.409C-13.316,781.121 -28.118,780.008 -39.239,783.67C-42.572,784.767 -47.406,787.028 -49.983,788.693L-54.667,791.721L-76.681,791.306L-76.459,782.681C-76.337,777.938 -75.887,772.954 -75.459,771.606C-73.842,766.513 -67.293,765.716 -58.613,769.554L-54.527,771.361L-54.729,754.778L-54.931,738.194L-60.139,736.438C-73.102,732.066 -88.739,735.842 -99.853,746.026C-109.779,755.121 -112.309,761.627 -112.869,779.494L-113.25,791.681L-124.306,791.681L-124.306,822.431L-113.056,822.431L-113.056,885.431L-76.306,885.431L-76.306,822.431L-74.618,822.432C-72.933,822.432 -72.931,822.451 -72.887,835.744C-72.832,852.585 -72.95,852.033 -56.723,911.187C-49.717,936.73 -44.084,958.006 -44.207,958.467C-44.33,958.929 -50.843,965.59 -58.681,973.27L-72.931,987.233L-120.556,974.246C-146.749,967.103 -171.387,960.651 -175.306,959.908C-180.559,958.911 -186.076,958.556 -196.306,958.556C-208.752,958.556 -210.76,958.737 -215.806,960.312C-224.366,962.984 -229.875,966.241 -235.681,972.064C-250.09,986.515 -253.973,1005.31 -246.614,1024.98C-244.249,1031.3 -237.911,1041.87 -232.145,1049.12C-229.271,1052.73 -210.52,1071.88 -190.475,1091.68L-154.03,1127.67L-156.166,1134.99C-157.341,1139.01 -159.697,1147.84 -161.403,1154.6L-164.503,1166.89L-211.342,1179.17C-237.103,1185.92 -260.881,1192.34 -264.181,1193.43C-271.689,1195.9 -281.706,1200.27 -286.901,1203.34C-289.085,1204.63 -291.11,1205.65 -291.401,1205.62C-291.692,1205.58 -303.659,1198.78 -317.993,1190.5L-317.988,1190.5ZM630.949,905.682C630.949,889.336 631.209,880.932 631.715,880.932C632.137,880.932 633.74,881.753 635.278,882.756C642.821,887.677 656.185,889.65 666.785,887.408C684.131,883.739 697.797,870.087 702.589,851.638C704.437,844.522 704.277,832.454 702.234,825.011C697.698,808.476 685.585,795.647 669.949,790.817C658.307,787.22 643.519,789.007 635.064,795.032L631.324,797.698L630.863,791.682L594.949,791.682L594.949,930.432L630.949,930.432L630.949,905.682ZM597.199,928.182L597.199,793.932L628.699,793.932L628.699,803.887L632.262,800.573C639.622,793.726 646.028,791.394 657.199,791.494C681.377,791.71 700.053,810.572 701.27,836.005C701.747,845.971 700.296,853.056 696.016,861.647C684.067,885.632 653.355,893.498 632.661,877.874L628.699,874.883L628.699,928.182L597.199,928.182ZM656.179,857.282C657.474,856.757 659.974,855.029 661.734,853.442C675.519,841.015 666.813,818.671 648.199,818.706C637.434,818.725 629.287,826.188 628.165,837.057C626.671,851.532 642.38,862.873 656.179,857.282ZM642.544,855.384C639.315,854.445 634.179,849.82 632.305,846.164C630.34,842.331 630.208,836.046 632.004,831.807C636.115,822.106 647.171,818.149 656.551,823.022C669.217,829.602 669.158,847.432 656.448,854.119C652.321,856.291 647.25,856.752 642.545,855.384L642.544,855.384ZM-256.676,888.41C-241.219,886.67 -231.255,881.642 -223.734,871.786C-220.906,868.08 -217.097,860.293 -215.459,854.869L-214.95,853.182L-249.926,853.182L-252.022,855.809C-255.185,859.773 -259.056,861.435 -265.083,861.415C-273.389,861.39 -277.897,858.505 -280.186,851.757C-282.151,845.966 -284.884,846.433 -248.988,846.42C-231.354,846.415 -216.564,846.161 -216.121,845.858C-214.607,844.821 -214.435,842.9 -215.106,834.554C-215.957,823.961 -218.597,815.734 -223.492,808.415C-229.642,799.22 -238.341,793.217 -250.075,790.071C-258.353,787.852 -273.748,787.852 -282.026,790.071C-291.104,792.505 -297.83,796.375 -304.306,802.892C-313.727,812.37 -317.801,823.138 -317.801,838.557C-317.801,859.716 -308.289,875.357 -290.426,883.573C-280.039,888.349 -269.526,889.856 -256.676,888.41ZM-278.426,885.125C-300.78,880.031 -314.109,864.295 -315.33,841.557C-316.317,823.163 -309.543,808.051 -296.355,799.231C-287.994,793.638 -280.811,791.542 -268.534,791.109C-251.501,790.509 -240.044,794.299 -230.714,803.619C-222.426,811.898 -218.327,822.003 -217.531,836.119L-217.076,844.182L-283.509,844.182L-283.101,848.682C-282.532,854.959 -279.989,859.047 -274.947,861.791C-267.267,865.971 -255.233,864.249 -250.868,858.345L-249.269,856.182L-218.7,856.182L-219.176,857.869C-220.197,861.487 -224.237,868.744 -227.086,872.077C-231.257,876.956 -238.108,881.308 -245.308,883.652C-250.588,885.37 -252.967,885.678 -262.676,885.897C-270.345,886.07 -275.358,885.824 -278.426,885.125ZM-247.689,822.66C-250.813,815.182 -256.867,811.202 -265.137,811.189C-272.67,811.178 -277.966,814.21 -281.119,820.339C-283.855,825.658 -284.592,825.432 -264.541,825.432L-246.531,825.432L-247.689,822.66ZM-279.551,822.66C-279.551,821.124 -275.306,816.368 -272.925,815.236C-266.132,812.007 -258.425,813.259 -253.488,818.393C-251.735,820.217 -250.301,822.04 -250.301,822.445C-250.301,822.902 -255.85,823.182 -264.926,823.182C-272.97,823.182 -279.551,822.947 -279.551,822.66ZM-164.647,860.494C-164.415,836.93 -164.313,835.368 -162.808,832.123C-158.276,822.357 -146.619,819.225 -133.863,824.346L-129.551,826.077L-129.551,790.369L-131.895,789.901C-141.369,788.006 -153.953,791.514 -161.812,798.241L-164.801,800.799L-164.801,791.682L-182.426,791.682C-198.711,791.682 -200.051,791.782 -200.051,792.994C-200.052,794.21 -198.867,794.291 -183.926,794.091L-167.801,793.875L-167.801,808.091L-161.959,802.25C-157.39,797.68 -155.16,796.05 -151.718,794.762C-146.67,792.873 -137.361,791.507 -134.052,792.169L-131.801,792.619L-131.801,822.256L-134.988,821.068C-137.036,820.305 -140.724,819.867 -145.301,819.844C-151.447,819.812 -152.94,820.064 -156.17,821.682C-158.357,822.777 -160.923,824.897 -162.339,826.777C-166.765,832.659 -167.189,835.371 -167.608,860.494L-167.986,883.182L-199.301,883.182L-199.301,839.399C-199.301,801.395 -199.449,795.492 -200.426,794.682C-201.424,793.854 -201.551,798.927 -201.551,839.59L-201.551,885.432L-164.893,885.432L-164.647,860.494ZM549.949,862.714C549.949,837.59 550.507,833.254 554.361,828.432C555.514,826.988 557.947,824.964 559.766,823.935C564.453,821.283 573.73,821.36 580.512,824.108L585.199,826.008L585.199,790.369L582.856,789.901C573.381,788.006 560.797,791.514 552.938,798.241L549.949,800.799L549.949,791.682L532.324,791.682C517.158,791.682 514.699,791.839 514.699,792.807C514.699,793.773 517.033,793.932 531.199,793.932L547.699,793.932L547.699,807.594L551.172,803.732C555.148,799.31 559.387,796.252 564.101,794.406C568.103,792.839 577.628,791.555 580.698,792.169L582.949,792.619L582.949,822.355L580.15,821.186C578.61,820.542 574.797,819.841 571.675,819.627C560.951,818.892 554.209,822.315 550.167,830.546L548.074,834.807L547.605,883.182L515.449,883.182L515.449,839.399C515.449,801.395 515.301,795.492 514.324,794.682C513.326,793.854 513.199,798.927 513.199,839.59L513.199,885.432L549.949,885.432L549.949,862.714ZM753.949,885.432L753.949,736.182L717.199,736.182L717.199,885.432L753.949,885.432ZM719.633,810.994L719.824,738.807L735.387,738.604L750.949,738.401L750.949,883.182L719.442,883.182L719.633,810.994ZM518.904,621.581C525.653,619.45 532.458,615.573 537.27,611.119C539.61,608.954 541.902,607.182 542.362,607.182C542.913,607.182 543.199,609.367 543.199,613.567L543.199,619.953L590.074,619.557L590.074,488.307L583.887,488.089L577.699,487.871L577.699,465.432L520.699,465.432L520.699,472.267L517.512,470.3C512.447,467.174 508.091,465.42 500.449,463.427C494.025,461.752 492.254,461.602 482.449,461.906C470.197,462.286 462.598,464.074 453.272,468.77C440.943,474.979 429.234,486.447 422.603,498.807C421.994,499.943 421.793,497.941 421.774,490.557C421.727,471.611 416.797,456.418 407.415,446.307C406.267,445.069 403.916,441.316 402.191,437.966C392.506,419.159 375.742,408.144 351.574,404.708C348.545,404.277 326.254,403.955 298.887,403.947L251.449,403.932L251.449,607.182L273.889,607.182L274.106,613.37L274.324,619.557L299.637,619.755L324.949,619.953L324.949,555.579L347.637,555.251C369.066,554.941 370.725,554.816 377.538,552.996C393.04,548.855 403.685,541.768 411.412,530.442C412.56,528.76 413.601,527.281 413.725,527.157C413.85,527.032 413.796,529.622 413.605,532.911C413.172,540.398 414.555,551.654 416.905,559.764C422.458,578.926 436.162,595.565 453.692,604.431C455.819,605.507 459.869,608.142 462.692,610.286C469.504,615.46 480.299,620.502 488.321,622.256C496.785,624.107 511.967,623.772 518.904,621.582L518.904,621.581ZM475.745,605.617C461.748,603.805 447.938,596.757 438.077,586.393C406.454,553.158 415.08,494.489 454.576,474.175C465.75,468.428 470.431,467.35 484.324,467.327C494.82,467.31 497.029,467.526 501.949,469.055C508.937,471.228 515.625,474.894 521.465,479.755L525.949,483.486L525.949,470.682L572.449,470.682L572.449,601.932L525.949,601.932L525.949,587.691L521.378,592.193C509.888,603.505 494.472,608.04 475.745,605.617ZM505.699,565.011C513.4,562.711 520.668,556.545 524.291,549.237C533.276,531.117 520.303,508.632 499.875,506.919C485.659,505.727 472.538,514.341 468.55,527.483C467.147,532.106 467.163,540.561 468.584,545.243C473.289,560.754 490.056,569.684 505.699,565.011ZM492.825,560.653C490.9,560.335 488.369,559.618 487.2,559.06C485.369,558.186 485.043,557.55 484.845,554.481C484.149,543.632 491.415,531.862 501.721,527.143C506.257,525.066 514.422,523.511 517.169,524.201C520.671,525.08 522.961,534.272 521.47,541.459C518.834,554.156 505.907,562.817 492.825,560.653ZM256.699,601.932L256.699,409.101L353.074,409.61L360.502,411.632C378.106,416.424 390.296,425.901 397.387,440.307C402.786,451.275 404.013,457.383 404.017,473.307C404.017,484.704 403.765,487.824 402.381,493.339C395.932,519.038 378.196,533.814 349.475,537.415C346.114,537.837 335.17,538.182 325.156,538.182L306.949,538.182L306.949,601.932L256.699,601.932ZM336.729,495.903C341.688,494.303 346.597,490.572 348.718,486.791C351.222,482.328 352.28,474.696 351.23,468.669C350.138,462.399 348.286,458.764 344.556,455.575C339.187,450.984 335.945,450.209 320.637,449.855L306.949,449.539L306.949,497.83L319.887,497.497C329.185,497.257 333.922,496.809 336.729,495.903ZM324.949,492.432L324.949,466.932L345.857,466.932L346.354,470.247C347.369,477.01 344.812,484.935 340.572,488.169C337.949,490.169 330.767,492.432 327.042,492.432L324.949,492.432ZM22.88,579.994L23.074,540.057L72.949,539.662L72.949,607.182L95.389,607.182L95.824,619.557L146.449,619.952L146.449,426.432L133.699,426.432L133.699,403.932L72.949,403.932L72.949,478.182L22.699,478.182L22.699,426.432L10.699,426.432L10.699,403.932L-50.051,403.932L-50.051,607.182L-27.551,607.182L-27.551,619.932L22.686,619.932L22.88,579.994ZM-44.801,601.932L-44.801,409.182L5.449,409.182L5.449,483.432L78.199,483.432L78.199,409.182L128.449,409.182L128.449,601.932L78.199,601.932L78.199,522.432L5.449,522.432L5.449,601.932L-44.801,601.932ZM181.446,1045.83C165.248,1043.75 146.979,1033.33 137.215,1020.6C123.766,1003.07 119.074,982.352 123.672,960.807C124.329,957.728 126.683,951.705 129.363,946.243C133.587,937.636 134.507,936.35 141.504,929.284C162.231,908.35 189.211,902.771 218.637,913.335L222.949,914.883L222.949,955.343L218.494,951.218C203.738,937.558 181.952,937.679 168.132,951.499C163.146,956.485 160.679,960.899 158.921,967.98C153.608,989.383 167.206,1010.06 188.572,1013.06C198.85,1014.5 210.135,1010.89 218.319,1003.53C220.368,1001.69 222.248,1000.18 222.497,1000.18C222.746,1000.18 222.949,1009.11 222.949,1020.02L222.949,1039.86L215.7,1042.18C203.351,1046.14 192.679,1047.28 181.446,1045.83ZM378.574,1044.44C370.577,1042.62 357.199,1037.15 357.199,1035.69C357.199,1035.29 367.58,1014.44 368.074,1013.84C368.172,1013.73 370.237,1014.81 372.663,1016.26C382.031,1021.84 393.938,1024.15 399.198,1021.42C402.277,1019.82 403.745,1017.15 403.169,1014.2C402.595,1011.26 400.553,1010.17 391.606,1007.99C372.22,1003.28 365.865,998.482 364.096,987.203C363.741,984.936 363.726,980.781 364.065,977.971C366.09,961.149 380.971,950.662 402.928,950.584C413.244,950.547 421.899,951.973 429.273,954.924L432.141,956.071L427.733,964.814C421.522,977.134 422.185,976.517 417.199,974.616C408.048,971.128 399.618,971.297 396.404,975.034C394.174,977.626 394.235,980.207 396.568,982.043C397.596,982.852 402.237,984.422 406.881,985.531C425.073,989.879 432.31,995.726 434.532,1007.87C436.229,1017.14 433.495,1026.25 426.832,1033.54C422.474,1038.31 413.625,1042.94 405.426,1044.75C398.266,1046.32 386.234,1046.18 378.574,1044.44ZM9.199,1042.93L9.199,911.584L42.387,911.879C71.28,912.136 76.156,912.345 80.074,913.493C94.726,917.79 104.14,927.359 107.959,941.837C109.639,948.206 109.646,962.881 107.972,969.225C104.906,980.845 97.574,990.008 87.687,994.576C79.95,998.151 71.684,999.432 56.351,999.432L43.699,999.432L43.699,1042.93L9.199,1042.93ZM62.537,970.92C69.18,969.075 72.851,964.611 73.479,957.615C73.971,952.14 72.745,947.606 69.895,944.36C66.623,940.634 62.306,939.432 52.191,939.432L43.699,939.432L43.699,971.682L51.762,971.673C56.196,971.673 61.045,971.33 62.537,970.916L62.537,970.92ZM244.512,1042.5C244.202,1042.19 243.949,1012.6 243.949,976.755L243.949,911.578L274.887,911.86C302.183,912.109 306.31,912.301 309.949,913.495C324.436,918.245 330.576,926.334 332.072,942.642C332.68,949.26 331.096,957.646 328.355,962.322C327.315,964.097 324.587,967.222 322.293,969.266L318.122,972.984L321.627,973.867C330.577,976.12 337.902,981.874 341.548,989.514C343.528,993.662 343.928,995.503 344.255,1001.97C344.708,1010.9 343.756,1016.33 340.648,1022.55C337.795,1028.26 330.912,1034.83 324.79,1037.68C315.58,1041.98 312.592,1042.3 277.324,1042.7C259.587,1042.91 244.821,1042.82 244.512,1042.5ZM300.016,1014.79C307.006,1012.72 309.949,1008.99 309.949,1002.21C309.949,993.477 304.712,989.933 290.076,988.758C284.937,988.346 280.219,988.206 279.591,988.447C278.625,988.817 278.449,991.042 278.449,1002.9L278.449,1016.91L287.369,1016.4C292.275,1016.13 297.966,1015.4 300.016,1014.79ZM293.714,961.651C298.794,959.529 301.66,953.853 300.685,947.845C299.623,941.301 294.179,937.932 284.665,937.932L278.449,937.932L278.449,963.653L284.867,963.16C288.396,962.889 292.378,962.21 293.714,961.651ZM-9.176,885.114C-28.366,880.695 -41.251,868.306 -45.223,850.455C-47.165,841.724 -46.464,829.319 -43.552,820.899C-36.757,801.249 -20.666,790.952 3.267,790.937C18.586,790.929 29.596,794.908 38.523,803.682C46.664,811.683 50.804,821.992 51.702,836.494L52.177,844.182L-14.893,844.182L-14.408,847.744C-13.672,853.154 -10.611,858.955 -7.355,861.11C0.487,866.3 13.919,864.555 18.703,857.726C19.735,856.253 20.488,856.182 35.167,856.182L50.55,856.182L50.041,857.869C49.072,861.078 45.813,867.07 43.111,870.615C38.361,876.845 31.852,881.182 23.074,883.965C16.363,886.093 -2.072,886.75 -9.176,885.114ZM21.561,822.66C18.478,815.28 12.262,811.182 4.153,811.182C-1.415,811.182 -5.211,812.58 -8.672,815.907C-11.091,818.233 -13.301,822.286 -13.301,824.398C-13.301,825.248 -10.09,825.432 4.709,825.432L22.719,825.432L21.561,822.66ZM108.32,885.408C92.154,883.198 78.055,873.389 71.592,859.856C67.954,852.236 66.949,847.71 66.949,838.932C66.949,828.303 69.464,819.893 75.084,811.724C87.11,794.246 111.702,786.72 132.762,794.073L137.449,795.709L137.449,822.457L133.887,820.672C123.443,815.44 112.629,816.552 105.599,823.582C97.647,831.534 97.566,845.61 105.425,853.81C109.808,858.384 112.941,859.537 121.012,859.547C127.627,859.556 128.568,859.367 132.824,857.174L137.449,854.791L137.449,880.912L134.97,881.948C127.687,884.991 116.189,886.484 108.32,885.408ZM428.126,884.665C410.384,880.928 400.884,871.205 399.184,855.043C398.795,851.338 398.47,836.072 398.463,821.119L398.448,793.932L430.698,793.932L430.715,821.869C430.73,847.37 430.852,850.069 432.109,852.807C434.585,858.198 439.025,860.616 446.449,860.616C454.036,860.616 458.286,858.225 460.995,852.432C462.494,849.227 462.586,847.668 462.818,821.494L463.063,793.932L494.562,793.932L494.27,825.994C494.013,854.12 493.814,858.563 492.647,862.182C487.302,878.755 472.776,886.221 446.074,886.119C438.076,886.088 432.888,885.668 428.126,884.665ZM806.756,885.113C783.532,879.836 769.67,862.58 769.712,838.999C769.748,819.014 778.434,803.649 793.856,796.286C802.086,792.357 808.889,790.932 819.415,790.932C834.588,790.932 845.645,794.948 854.513,803.682C862.735,811.778 866.858,822.022 867.718,836.494L868.175,844.182L801.228,844.182L801.66,847.744C802.305,853.052 805.237,858.658 808.582,860.976C816.3,866.324 829.862,864.637 834.703,857.726C835.735,856.253 836.488,856.182 851.167,856.182L866.55,856.182L866.041,857.869C865.072,861.078 861.813,867.07 859.111,870.615C854.361,876.845 847.852,881.182 839.074,883.965C832.359,886.095 813.955,886.748 806.756,885.113ZM837.561,822.66C834.478,815.28 828.262,811.182 820.153,811.182C812.572,811.182 807.287,814.202 804.131,820.339C801.395,825.658 800.658,825.432 820.709,825.432L838.719,825.432L837.561,822.66ZM805.699,822.708C805.699,821.326 809.097,817.058 811.263,815.72C815.049,813.38 815.449,813.664 815.449,818.682L815.449,823.182L810.574,823.182C807.893,823.182 805.699,822.969 805.699,822.708ZM-425.801,883.182L-425.801,751.821L-392.988,752.116C-364.808,752.369 -359.541,752.593 -355.676,753.7C-340.834,757.953 -332.165,765.96 -327.741,779.499C-326.134,784.416 -325.83,786.802 -325.759,795.057C-325.664,806.129 -326.501,810.489 -330.234,818.386C-332.962,824.157 -340.064,831.637 -345.388,834.345C-353.241,838.339 -357.838,839.14 -374.988,839.503L-391.301,839.847L-391.301,883.182L-425.801,883.182ZM-370.979,810.782C-364.609,808.534 -361.334,803.45 -361.334,795.807C-361.334,787.872 -365.202,782.415 -372.176,780.51C-373.826,780.059 -378.804,779.688 -383.238,779.686L-391.301,779.683L-391.301,811.933L-382.77,811.933C-377.021,811.933 -373.176,811.558 -370.979,810.783L-370.979,810.782ZM-378.38,795.994L-378.176,782.307L-375.926,782.467C-372.161,782.735 -370.518,783.346 -368.109,785.373L-365.801,787.315L-365.801,795.909C-365.801,804.135 -365.882,804.579 -367.694,806.258C-368.736,807.223 -371.079,808.389 -372.901,808.847C-379.008,810.385 -378.609,811.321 -378.38,795.994ZM-110.801,883.182L-110.801,820.182L-122.051,820.182L-122.051,793.932L-110.801,793.932L-110.788,786.244C-110.77,775.992 -109.61,765.499 -108.055,761.535C-104.622,752.785 -97.389,745.418 -87.926,741.033C-78.464,736.65 -70.239,735.842 -61.755,738.462L-56.801,739.992L-56.801,767.66L-60.578,766.171C-65.686,764.158 -71.725,764.192 -74.34,766.248C-78.037,769.156 -78.752,771.686 -79.145,783.243L-79.508,793.932L-56.801,793.932L-56.801,820.182L-67.588,820.182C-78.141,820.182 -78.386,820.218 -78.828,821.869C-79.077,822.797 -79.285,836.972 -79.29,853.369L-79.301,883.182L-110.801,883.182ZM159.199,883.182L159.199,820.182L148.699,820.182L148.699,793.932L159.199,793.932L159.199,766.932L190.699,766.932L190.699,793.932L208.699,793.932L208.699,820.182L190.699,820.182L190.699,883.182L159.199,883.182ZM282.949,883.182L282.949,751.821L315.762,752.131C352.313,752.477 353.753,752.645 363.32,757.672C377.146,764.937 384.262,779.791 383.207,799.182C382.971,803.513 382.222,808.913 381.542,811.182C377.502,824.664 368.044,833.902 354.165,837.921C351.233,838.771 345.456,839.211 333.762,839.477L317.449,839.847L317.449,883.182L282.949,883.182ZM340.337,809.827C344.86,807.238 346.955,803.682 347.318,797.983C347.751,791.193 346.997,788.266 343.948,784.891C340.364,780.924 335.98,779.682 325.563,779.682L317.449,779.682L317.449,812.079L327.387,811.815C336.096,811.584 337.697,811.339 340.337,809.827ZM319.699,809.848L319.699,781.739L327.762,782.084C337.829,782.514 341.557,784.108 343.739,788.913C346.931,795.945 344.624,804.789 338.824,807.753C336.501,808.94 334.005,809.349 327.762,809.567L319.699,809.848ZM812.074,860.021C810.424,859.264 808.452,857.943 807.69,857.087C806.096,855.295 804.28,850.585 804.232,848.119C804.201,846.507 804.467,846.432 810.199,846.432L816.199,846.432L816.199,853.932C816.199,858.057 815.946,861.424 815.637,861.415C815.327,861.407 813.724,860.779 812.074,860.021ZM801.982,689.554L802.014,588.807L813.806,601.509L814.234,612.783C814.469,618.984 814.755,661.013 814.868,706.182L815.074,788.307L810.949,788.759C808.68,789.008 805.727,789.457 804.387,789.757L801.949,790.301L801.981,689.554L801.982,689.554ZM-377.801,683.227C-377.801,630.378 -377.609,616.842 -376.863,617.117C-376.348,617.307 -373.648,618.214 -370.863,619.133L-365.801,620.804L-365.801,749.682L-377.801,749.682L-377.801,683.227ZM-369.926,606.1C-393.5,602.173 -412.793,592.552 -428.433,576.922C-449.763,555.608 -460.07,526.865 -457.314,496.381C-455.114,472.047 -445.352,451.019 -428.494,434.302C-424.331,430.174 -418.289,424.992 -415.065,422.787C-403.396,414.8 -388.681,408.722 -373.649,405.68C-364.045,403.736 -337.55,403.738 -327.926,405.682C-285.718,414.214 -256.131,441.633 -246.053,481.556C-244.564,487.455 -244.074,491.67 -243.756,501.299C-243.287,515.546 -244.196,523.83 -247.424,534.712C-255.383,561.546 -272.892,582.495 -298.029,595.26C-307.415,600.026 -314.842,602.676 -325.301,604.992C-334.44,607.015 -360.539,607.663 -369.926,606.099L-369.926,606.1ZM-336.926,557.201C-321.086,553.159 -308.003,542.722 -301.214,528.711C-297.591,521.233 -296.077,514.408 -296.077,505.557C-296.077,496.535 -297.629,489.724 -301.45,481.98C-304.005,476.802 -305.934,474.238 -311.398,468.754C-322.768,457.343 -334.399,452.567 -350.801,452.573C-357.901,452.575 -360.619,452.925 -366.176,454.55C-389.81,461.463 -404.85,481.298 -404.85,505.557C-404.85,533.138 -385.09,554.987 -356.801,558.686C-352.543,559.242 -341.775,558.438 -336.926,557.201ZM-344.051,553.314L-344.051,528.763L-301.676,504.405L-301.432,507.606C-301.035,512.81 -302.677,519.351 -306.232,526.727C-311.543,537.746 -321.118,546.275 -332.994,550.563C-335.569,551.492 -339.11,552.492 -340.863,552.783L-344.051,553.314ZM-372.75,548.552L-377.824,546.186L-377.625,525.872L-377.426,505.557L-347.801,488.588C-316,470.373 -316.954,470.765 -313.027,474.297C-311.671,475.516 -307.301,481.504 -307.301,482.142C-307.301,482.315 -320.463,490.016 -336.55,499.257L-365.799,516.057L-365.8,533.494C-365.801,546.948 -366.015,550.93 -366.738,550.925C-367.254,550.922 -369.959,549.853 -372.75,548.552ZM-166.676,606.666C-178.44,605.141 -192.9,600.652 -204.012,595.076C-214.416,589.855 -219.729,586.231 -219.161,584.742C-218.469,582.928 -199.215,546.893 -198.56,546.186C-198.244,545.845 -196.847,546.538 -195.455,547.726C-176.738,563.706 -153.7,569.435 -139.277,561.695C-133.744,558.726 -129.66,552.451 -129.588,546.807C-129.528,542.109 -131.123,538.628 -135.123,534.725C-139.424,530.529 -143.755,528.591 -165.926,520.941C-183.937,514.726 -190.25,511.315 -197.801,503.72C-204.707,496.772 -207.853,491.457 -210.253,482.682C-212.25,475.376 -212.114,458.925 -209.986,450.359C-204.276,427.383 -189.029,412.316 -165.176,406.078C-159.233,404.524 -156.721,404.313 -144.176,404.31C-132.045,404.307 -128.699,404.569 -121.676,406.071C-111.285,408.293 -100.416,411.852 -91.481,415.96L-84.536,419.152L-94.38,438.355C-99.794,448.916 -104.347,457.69 -104.496,457.853C-104.646,458.016 -107.297,456.441 -110.388,454.352C-122.889,445.907 -138.281,443.088 -148.123,447.442C-155.738,450.811 -158.898,455.093 -158.962,462.131C-159.041,471.001 -153.48,474.991 -130.873,482.284C-100.134,492.2 -85.447,503.554 -79.66,521.873C-76.39,532.224 -75.898,549.037 -78.562,559.355C-85.074,584.575 -104.545,601.097 -133.587,606.047C-139.735,607.095 -160.386,607.481 -166.676,606.666ZM723.949,601.932L723.949,389.682L770.441,389.682L770.632,453.905L770.824,518.129L819.574,470.741L851.432,470.711L883.29,470.682L881.432,472.506C880.41,473.509 865.737,487.015 848.824,502.519C831.912,518.024 818.074,531.019 818.074,531.398C818.074,531.778 833.544,547.803 852.452,567.01L886.829,601.932L821.656,601.932L796.24,575.301L770.824,548.671L770.43,601.932L723.949,601.932ZM788.449,492.432C788.449,492.019 788.807,491.682 789.244,491.682C789.68,491.682 789.829,492.019 789.574,492.432C789.319,492.844 788.962,493.182 788.78,493.182C788.598,493.182 788.449,492.844 788.449,492.432ZM468.101,324.355L217.878,180.385L26.741,290.314C-120.556,375.03 -165.604,400.61 -169.661,401.84C-180.6,405.157 -189.426,410.17 -197.514,417.661C-200.875,420.773 -208.73,425.725 -226.875,436.171C-240.5,444.014 -251.992,450.432 -252.413,450.432C-252.834,450.432 -253.942,449.166 -254.875,447.619C-255.807,446.072 -257.563,443.526 -258.776,441.96C-259.989,440.394 -260.857,439 -260.704,438.861C-260.114,438.328 214.76,166.872 216.453,166.101C218.075,165.362 241.96,178.841 468.472,308.323L718.699,451.362L718.699,459.897C718.699,464.591 718.615,468.408 718.512,468.379C718.409,468.35 605.724,403.539 468.101,324.355Z" style="fill-rule:nonzero;"/>
        </g>
    </g>
</svg>
