<?xml version="1.0" encoding="UTF-8" standalone="no"?>
<!DOCTYPE svg PUBLIC "-//W3C//DTD SVG 1.1//EN" "http://www.w3.org/Graphics/SVG/1.1/DTD/svg11.dtd">
<svg width="100%" height="100%" viewBox="0 0 727 729" version="1.1" xmlns="http://www.w3.org/2000/svg" xmlns:xlink="http://www.w3.org/1999/xlink" xml:space="preserve" xmlns:serif="http://www.serif.com/" style="fill-rule:evenodd;clip-rule:evenodd;stroke-linejoin:round;stroke-miterlimit:2;">
    <g transform="matrix(1,0,0,1,-59.6583,-57.3409)">
        <g id="copper-layer" serif:id="copper layer">
            <g>
                <path id="path2241" d="M422.992,57.341C623.517,57.341 786.32,220.617 786.32,421.728C786.32,566.562 701.884,691.773 579.73,750.508C560.773,759.623 540.907,767.137 520.307,772.875C489.33,781.504 477.247,784.072 427.089,785.68C365.58,783.782 356.198,781.439 325.028,772.695C172.019,729.768 59.658,588.804 59.658,421.728C59.658,220.617 222.461,57.341 422.992,57.341ZM458.604,737.246C458.604,736.061 457.642,735.099 456.456,735.099L440.75,735.099C439.564,735.099 438.602,736.061 438.602,737.246L438.602,753.393C438.602,754.578 439.564,755.54 440.75,755.54L456.456,755.54C457.642,755.54 458.604,754.578 458.604,753.393L458.604,737.246ZM401.652,736.098C406.995,736.098 411.334,740.342 411.334,745.569C411.334,750.797 406.995,755.04 401.652,755.04C396.308,755.04 391.969,750.797 391.969,745.569C391.969,740.342 396.308,736.098 401.652,736.098ZM425.243,735.599C430.611,735.599 434.968,739.955 434.968,745.32C434.968,750.685 430.611,755.04 425.243,755.04C419.876,755.04 415.519,750.685 415.519,745.32C415.519,739.955 419.876,735.599 425.243,735.599ZM518.591,123.206C519.813,123.398 522.582,123.166 523.544,122.496C523.784,122.414 523.611,122.421 523.829,122.286C525.253,122.126 526.618,122.315 527.83,123.034C529.301,123.904 530.399,123.742 532.136,123.795C535.275,123.885 537.768,123.867 540.907,123.905C541.117,123.748 541.281,123.516 541.407,123.373C541.536,123.373 541.562,123.023 541.691,123.023C541.854,122.608 541.86,122.441 541.932,122.158C541.98,121.949 541.986,121.825 542.143,121.607L542.355,121.439C542.786,121.439 543.375,121.364 544.061,121.162C544.864,120.99 545.665,120.72 546.215,120.391C548.172,120.218 550.138,120.301 552.102,120.158C552.507,119.971 552.852,119.783 553.152,119.611C553.242,119.566 553.325,119.514 553.407,119.461C555.731,118.022 555.169,117.055 556.443,116.014C560.755,115.189 564.355,111.21 567.062,108.009C567.107,107.785 567.167,107.028 567.197,106.811L567.204,106.734C567.345,105.132 567.215,104.2 565.983,103.211C565.293,102.656 564.618,102.141 563.83,101.759C562.503,103.161 561.879,104.87 560.665,106.346C559.427,107.328 556.071,109.276 554.826,110.243C554.339,109.329 553.809,108.999 552.872,109.164C552.7,108.991 552.237,109.551 552.035,109.454C551.66,109.821 551.508,109.557 551.08,109.94C550.675,110.157 550.266,110.228 549.778,110.543C546.898,112.387 546.042,112.936 542.534,113.618C542.287,113.581 541.812,113.84 541.563,113.773L541.321,113.123L541.083,112.154C540.747,112.116 540.491,112.176 540.222,112.176C539.057,112.274 538.795,112.134 538.272,112.554C537.818,112.771 537.039,113.278 536.477,113.69C534.186,114.462 530.726,116.366 528.524,116.006C528.496,115.954 528.884,115.512 528.866,115.459C529.108,114.95 529.294,114.282 529.054,113.667C529.101,113.337 528.625,113.157 528.417,112.902C527.912,112.797 527.796,112.629 527.119,112.666C526.376,112.599 525.781,112.708 524.896,112.52C523.36,112.191 522.031,111.629 519.972,111.479C519.869,111.434 518.774,111.389 518.676,111.321C515.221,111.134 511.929,110.783 508.464,111.045C508.222,110.775 508.597,110.387 508.409,110.17C508.268,109.533 507.946,109.274 507.348,109.064C506.387,108.657 506.147,108.768 501.963,109.202C501.334,109.27 499.822,109.446 499.328,109.544C498.358,109.733 497.076,110.24 495.94,110.796L495.831,110.85C495.515,111.008 495.174,111.18 494.799,111.352C494.493,111.495 491.301,112.709 490.924,112.934C490.716,113.039 490.425,113.286 490.104,113.533C474.645,94.01 450.737,81.48 423.924,81.48C406.957,81.48 391.154,86.501 377.916,95.127C376.773,93.756 375.21,91.53 374.126,90.241C373.669,89.664 373.283,89.829 372.979,89.559C372.63,88.989 372.656,88.39 372.142,87.932C371.217,86.966 369.798,86.276 368.281,86.576C367.829,86.861 367.719,87.063 367.572,87.183C367.399,87.25 367.234,87.31 367.076,87.348C366.984,87.355 366.875,87.363 366.743,87.363C365.1,87.67 364.703,86.441 363.512,85.639C360.082,83.706 356.469,83.938 353.074,81.675L353.035,81.652C352.37,81.66 351.705,81.69 351.04,81.742C349.97,83.279 349.933,85.055 348.64,86.381C344.976,85.647 341.264,82.124 337.341,81.765C335.125,82.169 334.119,83.781 332.992,85.542C331.185,85.557 329.698,85.609 327.935,85.392C327.222,85.092 325.981,85.31 325.172,85.399C324.407,85.369 324.055,84.635 323.045,84.792C321.76,85.002 320.742,86.284 319.948,87.161C318.306,87.25 315.22,88.045 313.605,88.367C311.393,89.506 309.224,90.9 306.824,94.73L305.381,98.252C306.26,98.035 306.909,97.885 307.44,97.735C308.533,97.878 309.726,96.139 310.548,95.277C312.314,94.108 313.35,94.587 313.35,94.587C316.105,93.568 315.844,93.643 318.12,93.508C318.665,96.296 320.798,95.757 322.893,95.187C326.09,93.463 329.272,91.59 332.371,90.563L332.392,90.593C332.454,91.462 333.284,91.275 333.936,91.537L334.219,91.919C334.294,91.837 334.373,91.755 334.457,91.687C335.649,91.934 336.842,92.347 337.895,92.227C339.357,92.054 340.577,92.182 341.735,91.208C341.989,90.998 342.751,90.458 343.219,90.173C344.772,90.061 346.33,90.75 347.864,90.99C347.947,91.837 348.024,91.867 348.126,92.706C348.431,92.961 349.014,92.609 349.952,92.527C351.094,92.579 351.581,92.429 352.468,91.904C352.825,91.882 353.589,92.571 353.837,92.556C354.44,92.519 354.7,92.009 355.261,91.627C355.565,91.597 355.908,92.009 356.207,91.912C358.222,92.017 361.24,92.399 363.017,92.377C362.719,94.37 363.337,94.85 365.543,95.862C366.063,96.101 366.46,96.311 366.48,96.337C367.262,96.731 367.756,97.196 368.892,98.027C369.41,98.402 369.845,98.53 370.353,98.934C370.645,98.964 371.145,99.249 371.7,99.594C366.807,103.458 362.351,107.852 358.42,112.689C358.301,112.835 358.347,112.767 358.404,112.691C358.048,112.648 352.442,109.055 352.269,109.274C345.944,117.3 339.058,125.479 335.457,132.301C334.986,133.193 342.118,138.9 343.424,140.092L343.532,140.193C340.955,148.272 339.564,156.878 339.564,165.806C339.564,166.309 339.568,166.803 339.577,167.298C339.25,164.742 339.254,162.194 338.847,159.609C338.182,158.897 337.638,158.117 337.148,157.285C336.423,155.936 335.302,155.075 334.139,154.175L332.681,153.104C332.184,152.886 331.294,152.841 330.878,152.542C329.605,151.23 328.814,149.484 327.454,148.202C326.207,146.786 324.782,145.542 322.526,145.085C321.133,143.848 319.897,142.649 318.699,141.427C317.477,140.108 315.756,139.973 314.608,138.707C311.889,138.774 309.598,135.747 307.027,134.66C306.826,134.563 307.416,133.408 307.275,133.303C306.764,132.374 307.029,131.175 306.777,129.916C306.322,129.002 305.927,128.08 305.484,127.166C305.274,126.716 305.052,126.266 304.796,125.809C303.588,124.775 300.159,124.61 300.178,122.849C300.075,122.714 301.325,121.335 301.218,121.2C300.761,120.038 299.561,119.184 298.376,119.064C298.219,119.034 298.072,119.027 297.938,119.049C297.099,119.102 296.318,119.559 295.875,120.586C295.348,124.565 296.077,129.279 295.505,133.109C293.927,135.762 295.57,137.178 296.004,139.704C299.041,143.204 301.404,146.958 305.448,149.439C310.469,154.557 318.51,155.966 323.089,161.295C323.953,162.194 325.633,162.756 326.66,163.656C326.999,164.15 327.955,164.675 327.975,165.342C327.71,165.342 326.714,165.387 326.451,165.402C326.023,165.297 326.165,165.979 325.323,166.166C325.303,166.234 325.278,166.309 325.246,166.384C324.853,166.436 324.463,166.511 324.078,166.593C323.806,167.538 324.024,170.573 322.905,169.659C322.189,170.476 322.413,169.299 322.116,169.854C320.562,172.671 319.442,173.248 319.018,174.028L318.81,174.418C305.324,156.619 284.017,145.115 260.059,145.115C219.322,145.115 186.248,178.36 186.248,219.309C186.248,247.413 201.778,271.757 224.721,284.348C223.854,284.273 223.072,284.143 222.227,283.754C220.169,282.967 216.249,283.933 214.188,284.015L214.171,284.016C213.935,284.649 212.643,285.04 210.271,285.192C209.688,285.183 208.371,285.144 207.023,284.963L202.081,285.881C191.314,274.483 176.197,267.408 159.434,267.408C126.837,267.408 100.373,294.238 100.373,327.295C100.373,360.346 126.927,387.093 159.524,387.093C192.121,387.093 218.495,360.346 218.495,327.295C218.495,314.503 214.5,302.513 207.753,292.785C207.708,292.718 208.107,292.744 208.388,292.706C208.967,292.587 209.519,292.537 209.519,292.537C209.48,292.836 209.507,293.013 209.635,293.208C209.783,293.433 209.929,293.517 210.072,293.592C210.281,293.697 210.516,293.73 210.825,293.82C211.378,293.931 212.135,293.95 213.277,294.114C213.411,294.123 213.515,293.974 213.717,294.004C215.46,294.263 218.365,294.395 218.365,294.395C218.484,295.377 218.748,295.794 219.444,296.349C222.623,296.931 225.822,298.629 229.02,299.559C236.882,304.355 246.576,308.709 255.884,308.245C257.847,310.486 259.813,312.884 263.029,313.124C264.9,312.479 267.805,310.983 269.39,309.754C274.229,306.134 278.907,302.369 282.999,297.94C285.45,294.98 288.819,293.144 292.699,292.709C293.566,293.533 295.05,295.175 295.676,296.21C297.27,298.997 300.18,299.574 301.259,302.594C302.475,305.72 304.832,307.151 306.482,309.908C308.196,311.85 310.582,314.369 312.646,315.973C311.789,318.348 309.414,318.797 308.051,321.015C304.498,324.388 301.037,327.82 297.653,331.298C283.99,345.342 271.599,360.226 259.647,375.957C238.505,403.641 220.69,433.244 205.972,464.825C199.447,479.866 193.991,492.599 189.134,508.247C187.503,512.002 186.163,520.009 184.688,523.861C184.323,525.152 183.935,526.501 183.53,527.905C183.432,527.568 183.33,527.23 183.223,526.893C178.016,510.518 162.952,498.662 145.2,498.662C123.14,498.662 105.23,516.971 105.23,539.514C105.23,562.064 123.14,580.373 145.2,580.373C156.716,580.373 167.1,575.382 174.397,567.408C174.223,568.592 174.056,569.791 173.897,571.005C173.893,571.037 173.887,571.098 173.865,571.118C173.869,574.448 173.602,577.77 173.486,581.1C172.002,585.417 173.458,589.719 172.011,593.968C171.955,601.23 171.854,609.811 172.213,616.998C173.255,619.171 172.333,622.072 173.402,624.313C173.881,626.561 173.411,628.719 174.462,630.863C176.361,639.324 178.941,646.601 185.171,653.008C187.264,654.133 188.194,655.796 190.627,655.609C192.756,655.699 194.166,654.507 195.825,653.376C198.037,651.682 201.069,650.7 203.521,649.381C204.147,649.059 204.774,648.744 205.392,648.407C208.479,647.08 211.225,645.079 214.525,644.098C218.442,642.381 222.653,640.163 225.833,637.285C228.892,635.592 232.442,633.576 235.142,631.357C238.02,628.989 241.749,624.193 243.117,623.338C243.548,623.069 243.746,623.188 243.608,623.893C242.108,631.627 243.429,648.437 246.645,658.974C248.68,665.644 257.129,684.118 267.198,697.548C277.01,710.64 292.198,719.101 295.889,717.67C295.889,717.67 296.729,703.573 298.314,697.563C300.456,689.431 305.314,672.471 313.462,655.766C325.319,631.455 334.417,612.561 343.01,598.202C350.952,584.93 358.454,575.494 363.044,566.898C363.89,565.317 365.666,560.588 365.27,562.214C364.057,567.183 377.466,583.221 392.056,591.592C401.51,597.011 411.286,596.786 418.217,596.591C423.645,596.441 429.883,595.789 435.683,592.979C443.459,589.216 450.684,582.404 456.393,575.682C459.144,572.436 461.664,568.689 464.402,563.091C465.066,561.732 465.977,556.908 467.888,559.878L467.91,559.913C475.53,570.923 477.129,576.483 481.259,584.03C484.735,590.386 490.51,598.172 498.148,611.565C506.022,625.377 519.718,647.613 529.027,670.133C535.685,686.246 541.338,707.395 545.02,716.906C546.269,720.128 545.979,734.855 545.979,734.855C545.979,734.855 556.338,727.66 566.01,717.033C573.508,708.797 580.008,698.492 584.686,687.932C594.913,664.85 601.676,638.327 605.154,630.405C605.912,628.674 606.069,626.246 606.571,626.726C614.459,633.036 623.058,638.942 629.199,641.46C636.291,644.375 638.9,645.559 645.761,649.074C649.997,650.468 653.49,653.338 657.524,654.013C663.702,651.794 666.678,646.608 669.467,641.047C671.507,636.911 672.219,632.609 673.306,628.18C674.108,624.897 674.408,622.964 674.708,619.868C675.518,611.347 672.002,574.07 671.394,569.821C671.192,568.375 670.285,564.2 670.172,562.739C669.341,559.652 668.46,556.823 667.623,554.315C674.588,566.149 687.401,574.085 702.044,574.085C724.101,574.085 742.013,556.069 742.013,533.878C742.013,523.698 738.246,514.398 732.04,507.312C731.251,506.41 731.964,507.201 732.045,507.309L732.04,507.312C732.055,507.325 732.055,507.322 732.045,507.309L737.775,503.56C738.452,503.16 735.539,499.135 735.139,498.458L726.852,484.239C726.872,484.234 726.879,484.231 726.851,484.238L726.852,484.239C726.8,484.253 726.662,484.288 726.851,484.238C747.052,478.879 761.941,460.64 761.941,438.99C761.941,413.137 740.708,392.147 714.554,392.147C688.402,392.147 667.168,413.137 667.168,438.99C667.168,463.415 686.119,483.498 710.266,485.644L702.222,490.479C701.544,490.879 700.994,491.061 701.72,492.515L702.043,493.661C702.115,493.662 702.189,493.663 702.044,493.663C679.986,493.663 662.075,511.68 662.075,533.878L662.075,534.44C661.288,531.315 660.523,528.227 659.931,525.739L658.551,520.8C656.932,515.899 655.957,512.399 654.413,508.465C645.895,486.843 635.152,464.615 623.253,444.493C607.906,417.813 590.009,392.272 570.838,368.207C564.068,359.634 557.058,351.18 549.696,343.109C544.49,336.723 538.261,331.208 532.906,324.957C530.684,322.979 528.869,320.715 526.454,318.947C526.474,316.721 531.025,316.354 532.676,316.361C535.33,314.885 538.781,315.904 541.508,314.855C544.08,313.041 545.163,311.048 547.173,308.672C548.38,309.624 550.49,310.688 551.855,311.407C553.714,313.416 555.686,315.724 558.348,316.541C561.459,320.386 564.571,322.327 567.097,326.756C568.349,329.162 570.171,331.575 571.138,334.123C574.752,339.601 577.624,344.6 583.809,347.695C586.223,347.823 589.365,347.081 591.591,348.115C595.078,350.056 599.134,351.585 603.145,351.637C606.631,352.439 610.148,352.836 613.724,352.409C617.548,351.053 621.124,351.315 624.663,353.151C626.312,352.207 628.936,352.537 630.826,352.642C631.528,353.204 631.979,353.825 632.343,354.478C633.342,355.141 634.462,355.991 635.302,356.808L636.194,356.689L637.858,356.449C648.332,372.966 666.791,383.946 687.806,383.946C720.405,383.946 746.871,357.535 746.871,325.002C746.871,292.469 720.405,266.059 687.806,266.059C655.215,266.059 628.749,292.469 628.749,325.002C628.749,330.713 629.566,336.236 631.088,341.46L630.616,341.415C629.768,341.415 628.921,341.392 628.074,341.378C627.572,341.355 627.062,341.332 626.56,341.287C619.714,341.482 612.209,341.407 605.409,341.64C604.472,342.022 601.383,341.767 600.408,341.954C598.647,340.688 601.061,339.489 600.521,337.668C599.681,336.124 597.439,334.498 596.172,333.313C592.491,327.595 587.46,323.646 581.995,319.719C578.861,316.931 574.857,316.736 571.911,313.933C569.039,311.46 565.2,310.583 562.261,308.2C559.157,305.877 555.521,302.849 552.26,300.78C551.548,298.54 552.042,295.744 553.294,293.856C553.365,293.679 552.976,293.351 552.634,293.01C549.986,293.214 547.307,293.399 546.272,293.361C543.175,293.93 539.537,295.797 536.403,296.306C532.717,296.718 528.866,298.172 525.189,298.36C520.461,300.548 515.671,300.81 511.331,303.913C509.672,302.969 508.796,301.148 507.082,300.226C501.396,295.699 496.069,290.603 490.152,286.549C487.323,283.558 484.714,281.4 481.102,279.376C481.013,278.814 480.237,278.455 479.507,278.132L479.867,278.05C479.682,276.881 480.062,277.518 480.505,276.641C481.06,276.071 481.512,275.464 481.88,274.835C483.877,271.41 483.396,267.213 483.302,263.264C484.672,262.222 486,261.038 487.494,260.168C487.935,259.981 488.357,259.809 488.735,259.629C492.395,258.505 495.919,256.916 499.568,255.754C503.897,254.135 507.479,249.062 512.344,249.257C512.299,249.271 512.46,249.265 512.344,249.257C513.203,248.979 514.08,248.739 514.957,248.545L515.207,248.411C515.799,248.17 516.6,247.39 517.846,246.911C518.18,246.768 518.565,246.671 518.938,246.566C530.013,273.074 556.413,291.75 587.183,291.75C627.924,291.75 660.995,259.029 660.995,218.724C660.995,178.615 628.239,146.014 587.768,145.707C586.988,145.175 586.163,144.545 585.264,144.478C583.562,144.935 581.912,145.482 580.255,146.021C542.766,149.476 513.374,180.728 513.374,218.724C513.374,220.8 513.462,222.854 513.634,224.892C513.173,225.387 512.723,225.897 512.28,226.406C511.689,227.118 511.098,227.83 510.498,228.542C510.359,228.677 510.339,228.715 509.342,229.194C504.156,231.765 483.643,240.368 482.657,241.095C482.683,241.104 482.573,241.238 482.215,241.417C482.135,241.23 482.043,241.05 481.941,240.87C481.365,238.959 480.473,237.64 480.175,236.553C480.163,236.508 478.886,233.833 478.954,233.571C478.28,232.806 477.582,232.124 477.204,231.165C496.165,215.697 508.283,192.157 508.283,165.807C508.283,158.432 507.559,152.156 505.776,145.337C524.082,146.625 522.048,125.202 518.591,123.206L518.502,123.191C517.651,123.039 517.822,122.786 518.519,123.166L518.591,123.206ZM253.926,577.853C252.936,578.878 253.465,578.114 255.529,575.691C261.805,569.698 263.074,560.805 263.35,552.551C263.409,552.625 263.466,552.701 263.523,552.778L263.53,552.583C264.808,554.212 265.622,556.257 266.315,558.333C266.243,558.348 266.168,558.371 266.088,558.4C263.309,563.444 261.861,570.563 257.412,574.46C256.903,575.015 256.351,575.554 255.761,576.056C253.808,578.239 253.192,578.802 253.926,577.853ZM239.47,532.176C239.496,532.399 239.531,532.621 239.573,532.841C238.832,531.2 238.521,529.403 238.815,527.767C239.766,523.264 241.392,518.642 243.506,514.53C245.215,512.526 247.681,511.138 249.667,509.383C251.533,507.982 254.521,508.535 256.586,509.536C256.845,509.654 257.09,509.78 257.319,509.911C265.433,513.688 271.488,521.834 276.988,528.639C280.874,533.098 284.429,538.562 285.684,544.43C286.08,547.45 284.871,550.628 283.957,553.498C283.404,559.936 279.445,564.845 274.454,568.532C273.909,568.974 273.334,569.401 272.726,569.806C271.956,569.972 270.792,570.739 269.931,570.635C269.679,570.637 269.447,570.578 269.25,570.425L269.231,570.382C269.299,570.411 269.369,570.433 269.443,570.447L269.427,570.435L269.407,570.392C269.499,570.432 269.597,570.457 269.7,570.47C270.54,570.468 271.606,569.786 272.326,569.631C275.274,567.666 278.326,564.755 280.31,561.845C280.31,561.845 282.561,555.289 281.484,551.53C280.139,545.375 276.323,541.253 273.109,536.138C267.424,529.096 261.166,520.671 252.782,516.768C252.475,516.593 252.14,516.425 251.785,516.273C249.707,515.423 247.003,515.073 245.253,516.387C242.488,519.885 241.477,524.498 239.971,528.662C239.538,529.997 239.49,531.474 239.764,532.898C239.657,532.661 239.558,532.42 239.47,532.176ZM269.15,570.155L269.145,570.144C269.148,570.18 269.162,570.21 269.186,570.235L269.15,570.155ZM268.974,570.145L268.969,570.134C268.971,570.169 268.985,570.2 269.01,570.225L268.974,570.145ZM567.362,560.064C564.842,558.272 562.477,556.275 560.346,553.948C555.8,549.018 550.894,543.307 548.419,537.026C545.482,531.443 543.367,525.771 541.908,519.64C540.912,514.77 540.052,510.021 541.308,505.121C541.391,502.667 542.13,500.89 543.552,498.946C544.651,498.774 545.417,498.855 546.128,499.808C547.412,501.669 548.354,503.762 549.664,505.623L549.683,505.682L549.705,505.714C549.758,505.876 549.806,506.037 549.85,506.199C547.752,506.481 547.338,510.612 546.548,512.296C545.443,517.517 546.538,522.485 547.784,527.574C549.564,533.978 552.009,539.867 555.309,545.626C560.186,552.296 565.691,558.398 572.462,562.806L572.792,563.018L572.854,563.057C574.63,564.187 576.491,565.2 578.451,566.076L578.429,566.07L578.477,566.092C577.402,565.763 576.332,565.371 575.271,564.934C572.699,563.522 570.194,562.041 567.819,560.386L567.805,560.376L567.435,560.115L567.365,560.066L567.362,560.064ZM247.081,563.371C244.581,563.162 242.231,561.382 240.009,559.965C237.033,558.305 234.782,555.843 232.512,553.352C227.943,546.978 223.908,539.793 221.742,532.217L221.609,531.806C219.024,524.888 218.394,516.835 217.555,509.564C217.564,505.27 217.088,500.708 218.509,496.605C219.194,495.995 219.766,495.843 220.216,496.149C220.415,496.22 220.593,496.368 220.75,496.593C222.527,499.192 223.873,501.932 225.098,504.728L224.871,504.57L224.9,504.636L224.211,504.155C224.228,510.967 226.216,517.825 227.155,524.45L227.284,524.847C228.807,527.762 229.481,531.053 231.207,533.916C235.518,542.781 240.934,550.454 250.366,554.292C251.971,554.531 253.521,554.305 255.114,554.037C256.07,551.246 256.383,548.406 256.309,545.548C256.38,546.504 256.421,547.462 256.428,548.424C256.498,547.482 256.516,546.536 256.492,545.589C256.639,547.577 256.657,549.578 256.512,551.592C255.654,555.919 254.834,559.883 250.878,562.456C249.574,563.286 248.31,563.514 247.081,563.371ZM179.281,543.298L174.93,543.433L171.712,548.784L174.25,555.956L167.357,560.198L161.787,554.787L155.601,556.286L152.531,562.971L144.871,561.217L144.889,553.116L139.974,550.478L132.575,553.153L128.395,546.573L134.002,540.878L132.726,534.732L125.536,531.36L127.3,523.873L135.054,523.536L138.531,518.012L135.933,511.14L142.801,506.771L147.783,512.152L154.123,510.9L157.415,503.743L164.953,505.212L165.121,512.721L168.191,514.76L159.929,526.121C154.839,524.045 150.513,525.582 149.064,527.515C141.643,537.408 152.997,544.317 158.719,540.765C163.688,537.677 163.084,531.652 163.084,531.652L176.952,528.939L177.71,532.334L181.674,534.395C180.891,537.183 180.081,540.151 179.281,543.298L179.281,543.298ZM467.654,559.555C467.65,559.563 467.893,559.935 468.047,560.163C468.202,560.392 468.268,560.478 467.91,559.913L467.654,559.555ZM710.532,508.813L708.715,512.708L712.193,518.148L719.946,518.482L721.71,525.849L714.52,529.168L713.244,535.212L718.85,540.819L714.671,547.296L707.272,544.661L702.358,547.257L702.375,555.236L694.714,556.961L691.644,550.378L685.458,548.909L679.888,554.232L672.995,550.057L675.533,542.995L672.315,537.727L664.382,537.492L662.879,530.211L669.535,526.806L670.293,523.465L684.161,526.137C684.161,526.137 683.557,532.063 688.527,535.101C694.247,538.599 705.602,531.798 698.181,522.065C696.732,520.164 692.407,518.648 687.317,520.688L679.055,509.51L682.125,507.505L682.293,500.114L689.83,498.67L693.123,505.707L699.463,506.945L704.445,501.642L707.19,503.642L710.532,508.813ZM577.229,476.878L577.207,476.878C576.945,472.593 579.893,469.186 583.583,467.438C587.482,465.479 592.136,465.268 596.596,465.424C598.083,465.476 599.548,465.569 600.956,465.651C610.745,467.28 621.944,471.46 628.215,479.557C630.972,483.193 633.196,487.666 634.227,492.319L634.132,492.013C634.165,492.151 634.197,492.289 634.227,492.427C633.184,489.007 631.554,485.745 629.608,482.903C624.009,475.91 615.975,471.52 607.294,469.817L607.294,469.817C600.924,467.935 593.593,468.626 587.882,472.149C585.371,474.291 582.882,477.224 583.281,480.776C587.292,479.484 590.749,477.534 595.123,477.809C602.088,478.313 609.258,480.293 614.961,484.508L615.579,484.982C618.746,487.384 621.415,490.363 623.096,494.006C624.055,495.802 624.655,497.87 624.739,499.936C624.842,502.015 624.424,504.096 623.329,505.901C621.81,508.496 619.688,510.257 616.732,510.95C609.049,512.494 601.155,510.184 594.716,505.838C592.131,503.981 589.254,503.744 586.567,505.606C585.38,506.467 585.476,507.85 585.846,509.21C586.076,510.036 586.4,510.85 586.589,511.527C589.479,515.444 592.836,518.493 594.504,523.26C594.788,523.818 595.004,524.388 595.167,524.966C595.868,527.385 595.639,529.961 595.712,532.583C594.662,536.788 591.237,541.946 586.653,542.489C586.593,543.395 581.171,543.632 580.816,542.842C580.808,542.831 580.801,542.82 580.795,542.808C573.684,542.365 566.842,536.556 562.293,531.376C560.898,530.003 559.605,528.532 558.447,526.968L558.496,527.018L558.41,526.904C562.37,530.99 567.493,534.771 572.91,535.316C574.568,534.926 576.795,535.061 578.513,535.234C582.916,534.896 586.39,530.131 587.552,526.191C587.585,523.551 587.94,520.977 587.209,518.533C587.097,518.169 586.96,517.808 586.794,517.45C585.377,512.886 582.288,509.881 579.679,506.067C579.184,505.242 578.33,503.542 578.33,503.542L578.345,503.53L578.303,503.448C578.303,503.448 581.779,500.511 586.666,498.522C587.059,498.399 587.315,498.514 587.359,498.83C587.395,498.938 587.398,499.079 587.364,499.25C588.001,500.899 591.015,501.406 592.416,502.38C597.07,505.512 603.064,506.879 608.586,505.798C611.255,505.16 613.102,503.516 615.069,501.742C616.338,499.846 616.783,497.577 616.61,495.334C616.472,493.713 616.012,492.11 615.309,490.674C613.842,487.168 611.405,484.253 608.469,481.864L607.897,481.393L604.888,480.94C604.888,480.94 603.302,480.992 598.616,480.091L598.616,480.091C588.113,478.328 579.137,483.203 570.897,488.991C566.849,492.272 563.314,495.941 560.629,500.391C557.487,506.424 555.932,514.022 557.858,520.628C558.21,521.221 558.689,521.741 559.293,522.184L559.233,522.182L559.329,522.254C558.442,522.238 557.914,521.621 557.528,520.853C557.172,520.171 556.937,519.356 556.663,518.733C556.633,518.589 556.588,518.456 556.529,518.332C555.938,517.223 554.269,516.906 553.781,515.849C553.728,515.75 553.685,515.643 553.655,515.529C553.333,514.703 553.094,513.856 552.929,512.995C552.867,512.221 552.788,511.421 552.652,510.647C552.453,506.534 553.655,502.263 555.245,498.608C558.823,489.948 567.427,483.495 575.738,479.735C577.14,478.932 579.509,478.57 580.297,477.07C579.277,477.055 578.263,477.033 577.235,477.004L577.229,476.878ZM250.298,528.076C250.338,528.073 250.379,528.071 250.42,528.071C251.479,529.176 252.271,530.614 253.04,532.055C251.628,532.192 250.209,532.312 248.828,532.574C248.699,534.305 249.769,536.629 248.8,538.105C248.663,538.15 248.527,538.187 248.391,538.217C248.42,538.636 248.435,539.064 248.423,539.491C247.279,539.781 246.211,539.754 245.244,539.486C244.405,539.284 243.638,538.901 242.959,538.384C243.258,538.592 243.573,538.776 243.902,538.929C243.64,538.783 243.389,538.617 243.148,538.434C243.715,538.829 244.339,539.133 245.012,539.32C245.931,539.544 246.938,539.55 248.012,539.278C248.079,536.701 247.201,534.297 248.031,531.654C248.384,530.432 248.575,528.009 250.235,528.009L250.298,528.076ZM315.188,470.224C315.124,470.221 315.06,470.219 314.997,470.217C315.327,469.1 315.515,467.901 315.536,466.62C318.269,466.5 321.308,467.85 323.857,468.84C325.277,469.185 326.588,469.986 327.713,471.022C329.033,472.193 330.109,473.69 330.827,475.167C332.406,479.132 330.56,483.194 327.45,485.765L326.912,486.185C326.451,486.724 325.955,487.219 325.445,487.691C318.024,494.084 308.093,497.837 300.031,503.218C299.198,507.678 297.667,513.044 294.238,516.177C294.094,516.304 293.947,516.432 293.798,516.559C293.559,516.799 293.31,517.031 293.048,517.263C289.215,520.508 283.953,522.546 278.899,522.156C277.732,522.276 276.547,522.082 275.454,521.647C275.365,521.632 275.277,521.608 275.189,521.594L275.053,521.53L275.015,521.523C272.328,520.285 270.601,518.493 269.299,515.859C269.252,513.975 269.178,512.054 269.4,510.178C270.286,507.117 272.356,504.393 274.305,501.924C275.458,500.318 277.499,499.71 276.825,497.429C276.441,496.607 276.636,496.892 277.059,497.767C277.042,497.69 277.021,497.611 276.997,497.53C276.289,496.013 277.552,498.27 278.589,501.045C277.044,503.809 272.515,505.687 271.533,509.165C270.647,511.567 269.503,514.874 270.904,517.247C271.628,519.127 273.208,520.63 275.078,521.42C276.165,521.85 277.343,522.039 278.503,521.922C283.558,522.314 288.824,520.272 292.658,517.018C296.483,513.716 297.819,508.897 298.124,504.012C306.432,498.038 317.173,494.222 325.071,487.408C327.188,485.471 329.067,482.933 329.191,479.956C328.755,477.687 327.599,476.149 326.108,474.831C325.223,474.067 324.227,473.373 323.199,472.645C320.735,471.69 317.828,470.41 315.151,470.352L315.188,470.224ZM601.913,520.838L601.875,520.819C601.888,520.786 601.903,520.753 601.919,520.719C602.427,521.013 602.94,521.293 603.457,521.556C603.191,521.442 602.927,521.323 602.663,521.2C602.932,521.347 603.201,521.489 603.472,521.626C602.941,521.398 602.413,521.153 601.891,520.891C601.898,520.873 601.905,520.856 601.913,520.838ZM203.808,512.086C203.766,513.219 203.751,514.351 203.762,515.481L203.705,514.854C203.308,504.626 202.967,494.66 207.982,485.371C209.764,482.729 212.018,480.651 215.342,480.418C217.078,480.538 219.525,480.464 221.349,481.101C226.116,482.767 225.102,482.504 228.204,484.245L228.307,484.31L228.4,484.362L231.576,486.363C232.318,486.836 232.755,487.234 233.294,487.758C236.792,492.832 240.797,498.639 242.163,504.717C242.929,507.865 242.928,511.17 241.239,514.033C240.224,514.175 239.201,514.259 238.176,514.296C237.805,515.045 237.537,515.922 237.189,516.732C237.121,518.748 236.713,520.807 234.932,521.032L234.781,520.955L234.739,520.961C234.192,520.688 233.683,520.37 233.212,520.011C233.543,520.248 233.891,520.466 234.258,520.662C233.961,520.483 233.677,520.29 233.406,520.084C233.768,520.343 234.15,520.579 234.556,520.789C237.36,520.393 236.699,515.336 236.747,513.333C235.574,505.775 230.613,498.495 226.178,492.416L225.711,491.691C223.58,490.063 222.11,488.12 219.915,486.835C219.335,486.513 218.702,486.237 217.995,486.024L217.995,486.024C214.801,484.604 211.34,486.92 209.624,489.607C205.372,497.631 203.883,506.675 203.97,515.559L203.913,514.933C203.876,513.982 203.84,513.033 203.808,512.086ZM511.572,468.933C510.698,466.919 509.943,464.872 509.263,462.892C506.889,455.53 508.117,447.545 512.402,441.115C516.004,434.706 522.847,429.957 529.192,426.535C538.306,422.385 547.827,418.679 557.585,416.39L557.585,415.145C557.322,415.092 558.756,414.456 564.502,416.461L564.711,417.269L564.694,417.274L564.744,417.47C559.603,419 554.21,419.917 549.102,421.59C542.292,424.254 535.399,426.117 529.025,429.802C523.184,432.666 518.371,437 514.301,442.001C511.563,446.462 509.007,452.152 509.559,457.466C509.292,462.413 511.851,466.68 513.485,471.46C516.008,476.908 520.692,483.328 527.06,484.271C528.601,484.577 530.697,483.821 532.047,484.498L532.038,484.587L532.097,484.615C531.868,487.14 530.61,489.706 530.132,492.249C529.338,494.858 529.818,497.897 528.867,500.396L528.869,500.474L528.903,500.537L528.938,500.605C529.59,501.811 529.502,503.168 530.1,504.31C530.281,504.631 530.519,504.933 530.849,505.21C531.457,505.217 531.606,505.283 531.499,505.351C531.951,505.476 530.41,505.769 529.592,505.497L529.556,505.411L529.542,505.406C528.351,502.577 527.27,499.269 527.464,496.178L527.464,496.096C526.874,491.907 528.444,488.541 528.979,484.601C528.401,484.642 527.837,484.652 527.332,484.551C526.525,484.439 525.746,484.229 524.994,483.944C522.894,483.344 520.983,482.251 519.366,480.602C515.903,477.532 513.459,473.304 511.572,468.933ZM111.105,485.48C111.836,497.028 118.485,502.811 127.924,500.992C134.875,499.654 136.82,496.628 140.523,490.142C140.535,490.121 142.141,489.768 142.158,489.75L142.489,489.681C163.948,485.143 180.079,466.003 180.079,443.108C180.079,416.84 158.845,395.514 132.692,395.514C106.539,395.514 85.305,416.84 85.305,443.108C85.305,461.569 95.793,477.588 111.105,485.48ZM701.964,493.66C701.99,493.661 702.017,493.662 702.044,493.663L702.043,493.661L701.964,493.66ZM238.159,451.528C237.889,451.631 237.68,450.523 237.781,448.333C237.836,444.558 237.476,440.92 238.502,437.235C238.88,433.881 240.21,430.917 242.916,428.808C243.313,428.604 243.772,428.546 244.261,428.587C245.727,428.71 247.455,429.724 248.521,430.354L248.725,430.436C250.636,431.029 252.086,431.637 253.517,433.077C253.838,433.378 254.155,433.683 254.469,433.993C259.965,439.36 264.251,446.014 269.254,451.845C278.134,463.267 287.243,474.575 295.66,486.349C296.075,486.81 296.351,487.396 296.748,487.719C297.038,487.885 297.399,487.909 297.908,487.674C301.638,484.628 305.544,481.792 309.072,478.513C311.308,476.622 313.166,474.528 314.308,472.056C314.274,472.288 314.235,472.518 314.19,472.744C314.285,472.562 314.376,472.376 314.462,472.189C313.84,476.481 311.303,479.784 307.935,482.623C304.293,486.007 300.26,488.932 296.408,492.077C295.796,492.358 295.392,492.277 295.068,492.026C294.549,491.744 294.247,491.028 293.755,490.481C285.056,478.305 275.641,466.607 266.465,454.793C261.231,448.69 256.757,441.721 250.977,436.132C250.845,436.005 250.711,435.879 250.577,435.754L250.501,435.679L250.392,435.576L250.308,435.493C248.916,434.191 247.483,433.601 245.629,433.028L245.419,432.942C240.29,435.725 239.784,442.999 239.069,447.993C238.878,451.043 238.427,452.146 238.159,451.528ZM111.105,485.48C111.105,485.48 111.105,485.48 111.105,485.48ZM524.732,483.764C524.802,483.785 524.871,483.806 524.942,483.826C525.196,483.922 525.454,484.01 525.715,484.089C525.382,483.995 525.054,483.886 524.732,483.764ZM151.514,407.593L153.123,416.979L159.879,420.826L168.484,415.949L174.788,423.188L169.657,431.204L170.899,435.372L154.169,440.969C154.169,440.969 151.16,434.035 143.878,433.736C135.494,433.392 128.275,449.025 140.744,453.722C149.46,457.006 154.424,449.635 154.725,449.172L154.739,449.149L170.006,456.23L167.909,460.344L171.956,467.862L165.049,474.142L157.062,469.121L149.404,471.662L147.267,480.607L138.744,480.163L137.891,479.464L136.948,478.479L135.78,470.988L128.634,467.109L119.998,471.523L113.524,464.454L119.288,456.342L116.936,448.863L107.373,446.112L106.412,436.178L117.585,434.715L121.323,428.808L116.368,419.984L123.63,413.348L131.039,418.742L138.674,416.553L141.437,407.222L151.514,407.593ZM692.696,436.004L676.153,430.833L677.727,426.6L672.408,419.093L678.855,412.175L687.366,416.816L694.61,413.449L695.644,404.532L705.691,403.844L708.12,412.489L715.628,415.4L723.612,410.103L730.841,416.183L726.131,424.722L729.346,431.688L739.103,433.22L739.742,442.728L730.403,445.468L727.427,451.631L733.369,459.591L727.007,466.878L719.056,462.53L711.793,465.554L710.189,474.919L700.211,475.752L697.5,466.852L690.379,463.925L682.29,469.45L675.384,463.266L679.497,455.03L677.773,451.141L693.593,443.74C693.593,443.74 697.39,450.1 704.604,449.527C712.909,448.868 719.188,433.825 704.557,429.489C701.7,428.641 696.258,430.268 692.696,436.004ZM521.488,465.99C521.897,467.009 522.61,467.987 523.715,468.895C528.471,470.966 534.345,470.163 539.183,468.895C543.284,464.115 548.418,460.062 553.608,456.535C562.602,450.72 572.639,446.128 583.081,443.659C586.906,443.366 589.823,441.881 593.701,443.187C598.509,443.742 602.913,446.652 604.796,451.177C605.141,452.321 605.417,453.505 605.512,454.658C605.757,457.189 605.157,459.584 602.546,461.087L602.335,461.124C602.079,461.317 602.152,461.264 602.381,460.967L602.32,460.977C601.712,461.435 602.955,460.511 603.731,458.234C603.824,457.391 603.834,456.518 603.755,455.647C603.531,453.459 602.741,451.297 601.268,449.693C598.63,446.033 593.631,445.357 589.465,444.837C584.15,445.167 579.071,446.523 574.167,448.573C563.698,453.085 554.012,458.903 545.738,466.783C543.966,468.61 542.418,470.525 540.188,471.859C535.189,473.327 529.097,474.351 524.076,472.365C522.926,471.888 522.227,470.918 521.806,469.832C520.974,467.821 521.135,465.348 521.159,464.875C521.157,464.862 521.154,464.848 521.152,464.835C521.164,464.768 521.164,464.787 521.159,464.875C521.174,464.953 521.191,465.03 521.209,465.107L521.214,465.017C521.211,465.004 521.209,464.99 521.206,464.977C521.218,464.91 521.219,464.929 521.214,465.017C521.277,465.344 521.368,465.669 521.488,465.99ZM250.846,471.511L250.742,471.474C251.127,472.487 247.759,465.509 247.301,460.9C247.263,457.637 247.216,454.374 247.216,451.12C247.705,451.275 248.107,451.499 248.419,451.791C248.671,451.984 248.875,452.214 249.033,452.479C250.15,454.297 251.282,456.102 252.428,457.899L251.651,457.459C250.885,462.473 255.372,467.343 255.537,472.049C254.762,472.701 253.282,472.462 250.927,471.607C250.99,471.772 250.953,471.725 250.846,471.511ZM313.986,375.319C312.937,373.631 312.258,371.888 313.034,370.205C315.495,373.125 317.603,376.15 320.493,378.716C321.09,379.5 321.487,379.997 321.719,380.281L321.982,380.591C321.983,380.591 321.98,380.588 321.974,380.58L321.975,380.58C321.977,380.584 321.985,380.593 321.982,380.591L321.978,380.588L321.755,380.331C321.679,380.249 321.585,380.149 321.476,380.038C321.64,380.245 321.77,380.407 321.87,380.529L322.132,380.837C322.133,380.838 322.131,380.835 322.125,380.827L322.125,380.827C322.128,380.831 322.136,380.84 322.132,380.838L322.129,380.835L321.906,380.579C321.319,379.941 319.686,378.317 318.154,377.966C318.111,378.645 318.338,379.178 318.636,379.682C318.791,379.926 318.955,380.167 319.105,380.421C319.388,380.866 319.651,381.335 319.76,381.908C318.127,382.095 315.79,381.462 314.156,381.41C316.247,384.7 319.464,388.134 321.575,391.429C321.658,391.555 321.739,391.682 321.819,391.808C328.631,403.162 334.15,416.014 336.218,429.144C336.957,431.895 336.79,434.616 336.855,437.419C337.445,445.588 334.705,454.589 329.001,460.569C328.683,460.907 328.349,461.221 328.002,461.513C327.695,461.866 327.376,462.21 327.046,462.547C324.541,464.698 323.863,465.06 325.227,463.793C323.768,464.951 324.179,464.38 326.673,462.235C332.521,456.242 334.686,448.112 334.781,439.935C333.695,423.482 327.227,407.117 318.153,393.369C317.872,392.947 317.591,392.529 317.307,392.113C312.454,385.061 306.371,378.733 297.895,376.322C291.984,375.007 287.084,377.284 282.784,381.192C275.9,388.835 273.764,399.614 274.06,409.63C273.972,412.792 274.265,415.962 275.029,418.986C274.927,418.746 274.827,418.505 274.728,418.264C274.769,418.439 274.811,418.613 274.855,418.787C274.615,418.219 274.383,417.647 274.157,417.072C272.549,410.596 272.706,404.129 273.048,397.511C274.221,390.577 275.597,384.101 280.196,378.518C283.105,374.001 288.396,370.985 293.659,370.25C299.45,369.829 303.189,373.161 308.121,375.12C308.526,375.787 308.851,375.936 309.314,376.569C311.441,379.041 314.026,381.474 317.556,381.216C317.445,380.639 317.157,380.026 316.773,379.386C315.968,378.109 314.828,376.731 313.986,375.319ZM286.436,432.5L286.371,432.478C286.501,432.958 284.56,428.57 284.045,425.803C282.671,419.906 281.774,414.066 282.223,408.007C283.138,402.654 284.092,395.936 288.041,391.842L288.776,391.098C291.494,387.711 301.121,388.173 296.43,388.515C295.714,388.49 295.084,388.604 294.499,388.801C297.243,388.318 299.296,388.555 296.593,388.752C294.184,388.669 292.753,390.154 290.703,391.104L289.993,391.825C288.417,395.609 286.13,398.692 285.81,403.016C286.768,402.832 287.547,402.223 288.138,401.207C289.292,399.701 291.904,399.359 293.64,398.897C296.226,399.036 298.867,400.118 301.287,401.005L301.356,401.193L301.447,401.226C302.121,403.025 302.814,405.009 302.805,406.955C302.288,409.16 300.857,411.005 300.793,413.413C300.488,418.331 302.353,422.428 304.134,426.856C306.62,433.176 310.588,438.944 315.168,443.942C315.385,444.178 315.603,444.412 315.823,444.644C317.568,446.205 319.904,448.292 322.388,448.006C324.835,447.405 325.537,444.893 326.165,442.778C326.235,442.244 326.3,442.469 326.257,443.138L326.313,442.947C326.513,441.436 326.664,446.011 324.476,449.505C323.285,451.22 321.416,451.82 319.471,450.982C316.182,449.962 314.389,447.436 311.987,445.092L311.935,445.028L311.831,444.925C307.682,439.82 304.152,434.41 301.825,428.227C299.822,423.599 298.248,418.265 298.629,413.188C299.249,410.879 300.251,408.732 301.005,406.48C300.94,406.328 300.861,406.185 300.77,406.05C299.71,404.766 297.467,404.269 295.969,403.988C292.518,403.531 288.838,403.96 287.131,407.419C284.938,411.269 285.625,414.967 285.558,419.189C286.189,424.293 287.593,428.87 289.429,433.278C288.319,433.15 287.38,432.953 286.539,432.66C286.562,432.744 286.521,432.679 286.436,432.5ZM462.378,395.009L462.297,394.794C461.522,390.366 461.373,385.482 463.839,381.535C464.651,379.689 466.138,378.743 467.466,377.528C470.719,377.566 481.225,379.073 481.191,379.103C484.899,380.505 487.743,383.693 488.813,387.461C489.024,388.151 489.175,388.862 489.261,389.585C491.117,389.847 492.185,389.739 493.962,389.098C501.479,388.903 508.996,386.607 516.318,384.964C523.309,383.411 530.022,380.889 537.022,379.493L537.143,378.788C539.142,379.22 538.63,378.897 541.201,379.882C542.414,380.346 545.087,380.76 545.221,382.341C545.252,382.452 545.268,382.569 545.27,382.693C541.332,383.408 537.595,384.809 533.667,385.59C517.983,389.26 503.606,393.577 487.283,392.919L487.224,392.688L487.212,392.687C487.021,391.962 486.859,391.218 486.745,390.473C486.669,389.704 486.521,388.949 486.308,388.215C485.14,384.459 482.258,381.305 478.531,379.901C474.717,379.053 471.495,380.082 468.844,382.884C465.385,387.29 464.933,393.658 466.775,398.855C466.87,399.112 466.97,399.365 467.076,399.615C468.325,401.991 470.491,403.871 472.398,405.77C473.89,407.358 476.011,407.203 476.661,409.233C476.754,409.464 476.825,409.726 476.872,410.026C477.587,416.259 478.054,422.463 478.855,428.696C480.038,433.884 480.525,438.775 482.539,443.451C483.156,444.859 483.915,446.249 484.875,447.621C485.564,448.758 486.058,449.398 486.146,449.678C486.303,449.972 486.256,450.057 485.92,449.986C485.615,449.927 485.3,449.815 484.975,449.815C483.7,449.336 483.491,448.15 482.578,446.869C482.237,446.39 481.9,445.725 481.596,445.03C480.909,443.495 480.379,441.751 480.329,441.528C479.867,439.479 478.87,437.506 478.466,435.412C476.158,427.586 475.733,419.52 474.265,411.566C474.21,410.238 474.118,408.978 473.697,407.761C473.573,407.434 473.424,407.111 473.244,406.79C468.168,404.137 464.374,400.441 462.38,395.023L462.378,395.009ZM491.407,411.032L491.437,411.03C492.154,415.047 493.545,418.967 494.621,422.894C494.999,424.027 495.365,425.165 495.758,426.283C497.218,430.401 499.061,434.237 503.159,436.582C503.594,436.827 503.841,437.161 503.953,437.545C504.483,438.793 503.352,440.687 502.643,441.69C501.838,443.001 500.749,443.854 500.736,443.252C500.584,443.138 500.68,442.655 501.225,441.658C501.59,441.177 501.722,440.746 501.619,440.365C501.489,440.091 501.226,439.845 500.831,439.627C496.782,437.046 494.628,433.152 493.095,428.905C492.142,426.302 491.43,423.561 490.665,420.903C490.121,417.592 488.528,414.653 488.013,411.371C490.752,410.807 490.827,410.861 491.368,410.821L491.407,411.032ZM540.542,414.748C540.284,413.679 540.359,412.574 541.151,411.708C544.319,407.393 550.031,405.809 555.125,405.426C556.99,404.92 558.745,404.783 560.472,404.833C563.351,404.915 566.15,405.515 569.249,405.787C575.918,407.565 584.012,410.424 588.543,415.871C588.656,416.417 588.752,417.012 588.815,417.628C588.995,419.185 588.977,420.895 588.527,422.25C588.108,422.94 587.632,423.667 587.119,424.366C586.834,425.062 586.68,425.141 587.086,424.409L587.087,424.409L587.119,424.366C587.174,424.232 587.233,424.076 587.294,423.899C587.229,423.991 587.163,424.082 587.096,424.173C586.811,424.87 586.658,424.949 587.063,424.216L587.064,424.216L587.096,424.173C587.38,423.479 587.795,422.174 587.919,420.449C586.425,416.355 582.292,414.14 578.502,412.519C573.57,410.013 567.888,408.421 562.326,408.529C559.976,407.923 557.899,408.294 555.595,408.836L555.595,408.836C550.011,408.897 543.617,410.814 540.983,416.096C540.79,415.665 540.633,415.208 540.542,414.748ZM473.126,406.554L473.173,406.588L473.167,406.575L473.126,406.554ZM334.095,312.022L333.95,311.69C338.659,306.137 344.764,304.299 351.358,301.92C352.831,301.361 354.435,301.167 356.065,301.117C357.695,301.067 359.35,301.162 360.924,301.184C365.283,302.16 369.623,304.389 373.631,306.348C383.964,312.568 391.204,322.3 395.711,333.376C396.68,335.209 397.546,337.119 398.283,339.081C399.408,342.01 400.245,345.056 400.708,348.13C401.954,351.225 401.319,354.621 401.475,358.084C401.854,362.588 399.499,367.114 396.776,370.546C396.093,371.168 395.501,372.045 394.732,372.494L394.732,372.496C392.918,374.767 391.17,376.887 388.624,378.153C387.743,378.745 386.778,379.24 385.674,379.599C381.649,381.248 377.818,380.671 373.645,380.229C374.071,384.126 377.365,388.81 376.627,393.142C376.697,395.623 375.021,398.658 372.727,399.94C372.709,400.001 372.723,399.884 372.751,399.629C372.701,399.659 372.651,399.688 372.601,399.716C372.497,400.069 373.434,394.575 372.07,391.15C370.581,385.482 367.281,380.587 365.545,375.052C367.329,375.167 368.33,376.34 369.895,377.056C375.265,379.356 380.96,380.625 386.578,378.411C390.174,377.323 392.282,374.718 394.524,371.903C396.355,368.325 397.032,364.585 397.338,360.605C396.789,355.019 395.726,349.609 393.677,344.404C393.48,343.911 393.273,343.421 393.057,342.932C390.406,336.976 388.099,331.343 384.047,326.149C378.508,318.535 370.318,312.616 361.327,309.814L361.327,309.814C355.416,307.47 347.894,309.481 342.392,312.207C341.535,312.656 340.623,313.102 339.706,313.571C338.13,313.385 336.524,313.681 334.723,313.461L334.579,313.13L334.578,313.13L334.405,312.732L334.095,312.023L334.095,312.022ZM304.247,355.448C304.186,355.836 304.133,356.226 304.089,356.615C304.052,353.886 304.216,351.135 304.51,348.376C308.942,343.769 316.081,345.6 321.244,347.806C325.694,349.322 328.445,352.578 331.521,355.932C336.664,362.656 341.291,369.312 347.173,375.427C350.812,379.127 353.851,382.855 358.403,385.481C359.438,386.194 360.971,386.179 362.18,386.352L363.437,385.135C363.448,385.248 363.457,385.362 363.464,385.476L363.567,385.376C363.689,386.603 363.597,387.836 363.167,389.049C362.204,391.488 359.516,392.07 357.285,390.993C351.736,388.439 348.628,384.226 344.299,380.167C339.027,374.229 334.231,367.949 329.521,361.564C324.306,354.626 316.059,351.061 307.412,352.319C306.515,352.815 305,353.31 304.656,354.359C304.481,355.198 304.345,356.044 304.248,356.892C304.242,356.412 304.241,355.93 304.247,355.448ZM519.41,373.988L519.348,373.971C519.358,373.43 519.393,372.89 519.458,372.342C521.037,370.466 522.756,368.815 525.056,367.855C530.043,365.791 536.284,366.595 541.557,366.88C548.279,368.268 555.972,370.219 561.335,374.706C562.51,375.511 562.879,376.671 563.036,377.942C563.187,378.94 563.179,380.019 563.314,381.055C563.343,381.247 563.378,381.437 563.421,381.624C563.452,381.738 563.454,381.775 563.446,381.827L563.455,381.87C563.523,382.124 563.455,381.994 563.432,382.503C558.141,376.156 548.235,373.392 540.36,372.191L540.36,372.191C534.135,371.564 528.37,371.379 523.336,375.365C522.033,374.952 520.718,374.608 519.404,374.226C519.405,374.147 519.407,374.068 519.41,373.988ZM390.592,376.56C389.899,377.124 389.151,377.621 388.316,378.027C388.38,377.987 388.443,377.945 388.506,377.903C389.264,377.525 389.952,377.071 390.592,376.56ZM186.657,335.147L206.694,336.376L206.783,330.953L215.694,324.786L211.657,314.277L200.512,315.869L194.116,309.008L196.765,298.556L186.212,293.512L179.941,302.185L170.608,302.261L164.229,292.919L153.859,296.672L155.336,308.262L148.925,314.716L137.749,312.288L133.044,322.692L141.965,329.739L142.575,337.925L132.801,344.336L136.591,355.223L147.007,353.722L153.569,360.206L151.346,371.403L161.762,376.581L168.446,367.74L177.367,367.483L183.764,377.126L193.828,373.119L192.867,362.123L196.371,358.489L182.422,343.452C182.422,343.452 175.639,348.978 168.095,345.268C159.411,340.997 158.986,321.436 176.607,322.788C180.049,323.051 185.234,327.192 186.657,335.147L186.657,335.147ZM453.691,361.866C453.47,361.22 453.319,360.536 453.248,359.808C454.352,354.567 458.746,351.902 463.39,349.818L463.839,349.619L463.39,349.818C462.393,350.28 461.531,350.81 460.802,351.406C461.667,350.94 462.565,350.51 463.473,350.104L463.921,349.905L463.473,350.104C459.332,352.019 457.526,355.118 457.812,359.155C457.859,359.824 457.976,360.455 458.154,361.054C459.225,364.279 462.055,366.515 465.022,368.275C465.908,368.411 466.786,368.584 467.645,368.816C475.706,371.225 485.089,370.378 493.493,370.723C494.588,371.284 495.361,372.977 495.606,374.018C495.79,374.653 495.813,375.126 495.637,375.121C484.792,375.173 471.199,375.048 461.505,369.756C458.078,367.897 454.804,365.491 453.691,361.866ZM660.59,332.733L640.554,333.943L640.464,328.606L631.554,322.536L635.591,312.193L646.735,313.76L653.132,307.007L650.482,296.72L661.035,291.755L667.307,300.292L676.64,300.367L683.018,291.172L693.388,294.866L691.911,306.273L698.322,312.625L709.499,310.236L714.203,320.475L705.282,327.412L704.672,335.468L714.447,341.778L710.657,352.493L700.241,351.016L693.679,357.397L695.902,368.418L685.486,373.514L678.802,364.813L669.881,364.559L663.484,374.051L653.419,370.107L654.38,359.284L650.877,355.707L664.825,340.908C664.825,340.908 671.609,346.347 679.153,342.695C687.837,338.491 688.261,319.239 670.641,320.57C667.199,320.829 662.013,324.904 660.59,332.733ZM340.618,336.999L340.487,337.045C340.43,334.91 340.219,333.039 341.716,331.035C344.293,328.987 347.008,329.512 350.046,329.789C354.137,330.742 358.08,332.715 361.322,335.394C366.096,338.703 368.043,343.498 372.005,347.775C375.016,351.557 378.286,355.024 381.961,358.138C383.363,358.852 387.346,360.544 389.61,360.281L389.553,360.569C389.612,360.565 389.671,360.56 389.728,360.553C389.632,361.027 389.54,361.512 389.462,362.011C389.052,363.765 388.395,365.299 386.469,365.719C382.445,367.225 377.85,363.422 375.171,360.744C369.717,355.826 365.885,349.756 361.232,344.133C357.113,340.092 351.984,337.109 346.187,336.375C344.18,335.734 342.5,336.704 340.629,337.347L340.618,336.999ZM433.729,355.854L433.66,355.699C433.135,353.508 433.108,349.824 433.689,347.618C434.982,344.819 437.05,342.351 439.018,339.98C449.157,329.94 463.424,324.312 477.349,322.151C483.508,320.763 489.632,321.866 495.819,320.845C507.926,321.858 519.413,323.981 528.657,332.565C529.042,333.011 529.397,333.479 529.73,333.977C529.619,333.895 529.508,333.814 529.395,333.733C529.527,333.912 529.655,334.095 529.78,334.282C528.911,333.637 527.983,333.051 526.948,332.562C515.42,326.664 501.004,325.305 488.188,326.598L488.188,326.598C480.024,327.363 471.846,329.234 464.131,331.978C454.732,335.819 445.442,340.812 439.557,349.14C437.222,352.082 436.552,355.991 437.694,359.444C437.975,360.225 438.35,360.98 438.821,361.693C439.767,363.158 440.823,364.479 441.973,365.682C441.799,365.552 441.626,365.42 441.454,365.286C441.655,365.511 441.859,365.731 442.066,365.947C438.54,363.322 435.55,360.059 433.757,355.977L433.729,355.854ZM517.251,342.087C516.75,341.836 516.461,341.691 517.256,341.799C520.908,342.296 525.85,344.171 527.727,347.41C527.718,347.461 527.708,347.511 527.695,347.56L527.778,347.699C527.514,349.277 525.323,350.153 524.118,351.055C518.3,354.977 511.741,355.16 505.024,356.338C503.537,356.78 500.945,356.842 501.347,358.986C501.301,359.208 501.3,359.423 501.335,359.632C501.566,360.385 502.201,361.074 502.707,361.756C502.568,361.635 502.428,361.515 502.287,361.398C502.45,361.609 502.616,361.818 502.771,362.026C501.007,360.493 499.077,359.283 497.28,357.776C496.701,357.384 496.388,356.749 496.243,356.041C495.962,355.038 496.068,353.831 496.253,352.946C497.518,352.023 498.931,351.918 500.399,351.565C506.069,350.552 512.773,349.772 517.676,346.651C518.629,345.987 519.601,345.947 519.713,344.658C519.431,343.771 518.804,343.296 518.188,342.871C517.469,342.376 516.126,341.942 517.251,342.087ZM301.328,280.823C314.542,271.837 324.711,258.67 329.947,243.224C331.743,244.237 333.792,244.731 334.682,244.797C336.662,244.463 338.313,245.785 340.13,246.536C343.325,247.301 346.574,248.575 349.898,248.687C352.537,249.901 355.03,249.302 357.846,249.624C358.132,254.683 356.442,258.797 356.803,263.781C356.803,266.044 357.799,267.963 357.633,270.271C357.261,273.119 360.581,275.18 360.635,277.705C358.559,278.012 357.065,279.586 354.914,279.721C353.523,279.699 352.481,280.276 351.375,281.07C348.739,282.479 347.163,284.945 344.657,286.609C339.745,290.918 333.76,296.366 328.618,300.443C326.425,299.596 325.381,298.779 323.51,297.348C320.948,295.864 317.648,294.74 315.593,292.432C312.377,290.213 309.845,288.137 306.855,285.844L301.328,280.823ZM287.506,274.828C287.172,274.768 281.48,277.308 281.48,277.308L280.445,283.881L264.526,287.328L263.036,275.555L252.255,269.836L240.863,276.476L231.458,266.142L239.941,254.893L236.222,244.588L222.832,240.901L223.952,227.013L238.027,225.432L242.623,215.397L235.601,202.762L246.041,193.828L257.56,202.732L267.663,197.965L270.599,184.783L284.457,185.315L286.231,198.977C292.522,201.645 296.801,204.5 296.801,204.5L308.431,197.725L310.758,200.161C310.481,202.919 311.789,210.646 312.188,214.46L309.233,218.17C311.406,221.625 312.303,224.578 312.64,225.994C311.742,226.909 311.04,227.815 312.037,229.052C315.582,233.451 321.186,237.708 325.833,240.721L324.984,247.114L312.969,248.335L309.747,253.828L288.173,244.206C289.476,238.795 290.529,233.166 284.862,226.811C280.74,222.18 273.33,220.613 266.492,225.005C254.882,232.469 260.853,246.829 268.982,250.651C273.921,252.974 279.595,252.644 279.65,252.022C279.664,251.873 287.064,273.928 287.501,274.818L287.506,274.828C287.518,274.828 287.523,274.828 287.521,274.842C287.52,274.842 287.515,274.842 287.506,274.828ZM543.644,200.251L550.445,204.148C550.445,204.148 554.719,201.338 561.017,198.715L562.786,185.262L576.642,184.745L579.581,197.71L589.687,202.402L601.203,193.641L611.647,202.432L604.622,214.872L609.218,224.75L623.291,226.309L624.415,239.971L611.025,243.606L607.306,253.746L615.786,264.815L606.384,274.985L594.988,268.45L584.206,274.078L582.722,285.672L566.797,282.269L565.763,275.809C565.763,275.809 560.072,273.306 559.735,273.359C559.726,273.373 559.726,273.381 559.721,273.373C559.721,273.364 559.729,273.364 559.735,273.359C560.125,272.654 567.577,250.77 567.592,250.92C567.652,251.527 573.32,251.85 578.261,249.571C586.388,245.809 592.364,231.675 580.75,224.33C573.912,220.006 566.505,221.55 562.381,226.106C556.713,232.364 557.77,237.903 559.075,243.224L537.497,252.697L534.276,247.293L521.968,246.236L521.804,244.348C524.471,243.433 527.451,242.099 528.97,239.746C529.081,237.723 529.81,235.459 528.278,233.908C528.126,233.571 528.048,233.256 528.03,232.964L534.695,227.883L534.423,226.181C534.423,226.181 534.52,225.499 534.863,224.345C537.61,219.999 540.522,215.33 542.181,210.758C542.854,207.236 544.802,204.163 543.187,200.543L543.644,200.251ZM214.173,284.012C214.246,284.007 214.33,283.997 214.181,283.987C214.179,283.996 214.176,284.004 214.173,284.012L214.114,284.017L214.171,284.016L214.173,284.012ZM361.819,277.428C361.819,277.51 361.816,277.593 361.808,277.668C361.627,277.654 361.451,277.645 361.279,277.645C361.52,277.533 361.673,277.495 361.819,277.428L361.819,277.428ZM338.695,227.069C338.205,226.524 337.81,225.909 337.553,225.2L336.846,223.341C336.434,222.509 336.091,221.467 335.694,221.07C335.577,219.826 335.598,219.353 334.597,218.971C334.535,210.764 332.414,202.634 329.903,195.275C330.827,194.053 331.711,192.831 332.216,191.985C332.351,191.765 331.945,192.154 332.745,190.909C332.763,190.881 332.878,190.395 332.897,190.366C332.977,189.879 333.942,188.597 335.173,187.091C335.245,186.416 335.184,186.454 335.674,185.959C336.195,185.3 336.986,184.745 337.417,183.996C338.265,182.077 338.136,179.626 338.072,177.573C340.206,174.53 339.589,173.991 339.811,172.297C341.524,194.668 352.006,214.67 367.775,228.767L367.526,229C367.349,229.149 367.179,229.299 367.018,229.457C366.605,229.801 366.546,229.876 366.235,230.177C366.191,230.182 365.836,230.486 365.305,231.345L364.733,232.522C364.555,232.855 364.394,233.187 364.244,233.508L364.096,233.841C363.625,234.568 363.274,235.242 363.043,236.074C362.184,238.24 361.067,240.293 360.098,242.422C356.165,238.9 351.439,237.356 347.959,233.354C345.6,230.798 341.045,229.689 338.699,227.073L338.695,227.069ZM338.648,227C338.664,227.023 338.679,227.046 338.695,227.069C338.754,227.134 338.814,227.198 338.875,227.261L338.9,227.267C338.811,227.183 338.727,227.094 338.648,227ZM460.747,141.562L463.902,139.651L474.653,150.863L466.253,164.405L471.675,176.381L486.428,179.506L485.946,195.972L470.967,198.52L465.775,210.668L473.884,223.633C473.656,223.311 473.396,224.217 473.046,223.962C471.237,222.411 468.496,219.796 467.037,217.9C464.693,215.022 465.762,207.61 465.328,208.255C463.768,203.653 460.519,201.015 456.337,198.857C452.312,195.604 446.726,195.552 441.852,196.421C442.283,194.885 442.975,193.918 442.549,192.502C443.092,191.108 443.432,189.759 443.59,188.5C445.464,185.3 448.317,182.144 445.974,179.064C446.427,176.044 449.053,174.605 449.376,171.465C451.001,168.19 451.518,166.661 449.93,163.116C451.73,159.894 452.893,156.506 454.361,153.149C454.592,151.665 453.871,150.683 453.299,149.424C455.469,147.011 458.054,144.927 460.085,142.402C460.328,142.132 460.539,141.84 460.747,141.562ZM398.753,145.07L404.311,148.652L414.511,143.204L418.504,127.698L434.593,127.818L437.837,143.593L447.197,147.168C447.161,147.198 447.125,147.228 447.087,147.251C446.058,148.015 446.265,147.715 446.206,147.82C444.295,151.41 441.86,155.652 441.962,159.661C442.294,161.887 440.605,161.22 439.423,162.359C438.454,166.234 440.743,169.044 439.072,172.709C438.293,173.114 437.487,173.473 436.657,173.788C425.997,165.08 409.846,174.778 409.404,185.697C409.068,194.016 414.402,199.247 417.598,201.615C416.723,201.6 415.853,201.577 414.987,201.562C413.713,202.597 411.812,201.997 410.251,202.477C408.94,200.94 409.107,197.695 408.137,195.874C407.251,194.645 406.347,193.379 405.275,192.322C403.835,191.692 402.589,191.415 401.629,190.059C401.703,186.042 400.125,182.047 399.118,178.195C398.204,177.378 396.967,177.161 396.191,176.254C397.152,172.851 396.58,169.554 398.518,166.354C399.386,164.832 401.278,162.517 399.783,160.845C398.758,159.272 396.754,159.549 396.164,157.788C398.453,154.198 398.019,150.308 398.943,146.456C398.921,145.932 398.858,145.475 398.753,145.07ZM390.313,139.876C390.803,140.746 391.185,141.555 391.396,142.214C388.959,142.739 390.376,149.769 389.905,157.038C387.401,158.807 388.087,159.999 387.733,162.464C387.671,162.899 387.578,163.364 387.431,163.881L387.126,164.855C387.32,165.829 387.709,166.938 387.904,167.905C387.082,171.188 388.236,174.927 389.399,178.03C388.863,179.964 388.005,181.268 388.55,183.419C390.913,186.843 393.978,189.804 396.738,192.906C397.227,193.888 397.129,194.862 397.478,196.054C395.65,196.459 393.35,195.874 391.485,195.942C388.203,196.054 384.735,198.467 382.959,199.974C382.105,200.693 381.875,201.128 381.875,201.128L381.745,201.27L380.647,198.969L365.443,195.402L366.175,179.042L381.871,175.519L386.483,163.371L378.608,150.818L390.313,139.876ZM343.558,140.17L343.551,140.169C343.547,140.169 343.542,140.172 343.538,140.179L343.532,140.193C343.61,140.269 343.587,140.181 343.558,140.17ZM358.404,112.691C358.412,112.693 358.418,112.692 358.42,112.689C358.536,112.52 358.464,112.609 358.404,112.691ZM567.198,106.808L567.197,106.811C567.141,107.286 567.204,106.808 567.198,106.807L567.198,106.808Z"/>
            </g>
        </g>
    </g>
</svg>
