<?xml version="1.0" encoding="UTF-8" standalone="no"?>
<!-- Created with Inkscape (http://www.inkscape.org/) -->

<svg
   width="210mm"
   height="297mm"
   viewBox="0 0 210 297"
   version="1.1"
   id="svg1330"
   inkscape:version="1.1.2 (b8e25be8, 2022-02-05)"
   sodipodi:docname="giftfromTUG.svg"
   xmlns:inkscape="http://www.inkscape.org/namespaces/inkscape"
   xmlns:sodipodi="http://sodipodi.sourceforge.net/DTD/sodipodi-0.dtd"
   xmlns="http://www.w3.org/2000/svg"
   xmlns:svg="http://www.w3.org/2000/svg">
  <sodipodi:namedview
     id="namedview1332"
     pagecolor="#ffffff"
     bordercolor="#666666"
     borderopacity="1.0"
     inkscape:pageshadow="2"
     inkscape:pageopacity="0.0"
     inkscape:pagecheckerboard="0"
     inkscape:document-units="mm"
     showgrid="false"
     inkscape:zoom="1.2130214"
     inkscape:cx="397.3549"
     inkscape:cy="483.91561"
     inkscape:window-width="1312"
     inkscape:window-height="872"
     inkscape:window-x="0"
     inkscape:window-y="0"
     inkscape:window-maximized="0"
     inkscape:current-layer="g2407" />
  <defs
     id="defs1327" />
  <g
     inkscape:label="Layer 1"
     inkscape:groupmode="layer"
     id="layer1"
     style="display:inline">
    <g
       transform="matrix(0.25666514,0,0,0.25666514,-6.1153809,-33.67821)"
       id="g2471"
       style="clip-rule:evenodd;display:inline;fill:#000000;fill-opacity:1;fill-rule:evenodd;stroke:none;stroke-linejoin:round;stroke-miterlimit:10">
      <g
         transform="matrix(1.11195,0,0,1.11195,111.876,87.9509)"
         id="g2407"
         style="fill:#000000;fill-opacity:1;stroke:none">
        <g
           transform="matrix(29.6509,0,0,29.6509,170.876,421.985)"
           id="g2369"
           style="fill:#000000;fill-opacity:1;stroke:none;stroke-width:0.00000118;stroke-miterlimit:4;stroke-dasharray:none">
          <path
             d="M 0.273,0 V -0.091 H 0.182 V -0.364 H 0.091 v -0.09 h 0.091 v -0.273 h 0.182 v 0.273 h 0.181 v 0.09 H 0.364 v 0.273 H 0.545 V 0 Z"
             style="fill:#000000;fill-opacity:1;fill-rule:nonzero;stroke:none;stroke-width:0.00000118;stroke-miterlimit:4;stroke-dasharray:none"
             id="path2367" />
        </g>
        <g
           transform="matrix(29.6509,0,0,29.6509,188.395,421.985)"
           id="g2373"
           style="fill:#000000;fill-opacity:1;stroke:none;stroke-width:0.00000118;stroke-miterlimit:4;stroke-dasharray:none">
          <path
             d="m 0.091,0 v -0.727 h 0.182 v 0.273 h 0.363 v 0.09 H 0.727 V 0 H 0.545 V -0.364 H 0.273 V 0 Z"
             style="fill:#000000;fill-opacity:1;fill-rule:nonzero;stroke:none;stroke-width:0.00000118;stroke-miterlimit:4;stroke-dasharray:none"
             id="path2371" />
        </g>
        <g
           transform="matrix(29.6509,0,0,29.6509,211.306,421.985)"
           id="g2377"
           style="fill:#000000;fill-opacity:1;stroke:none;stroke-width:0.00000118;stroke-miterlimit:4;stroke-dasharray:none">
          <path
             d="M 0.545,-0.273 V -0.364 H 0.273 v 0.091 z M 0.182,0 V -0.091 H 0.091 v -0.273 h 0.091 v -0.09 h 0.454 v 0.09 h 0.091 v 0.182 H 0.273 v 0.091 H 0.636 V 0 Z"
             style="fill:#000000;fill-opacity:1;fill-rule:nonzero;stroke:none;stroke-width:0.00000118;stroke-miterlimit:4;stroke-dasharray:none"
             id="path2375" />
        </g>
        <g
           transform="matrix(29.6509,0,0,29.6509,234.217,421.985)"
           id="g2381"
           style="fill:#000000;fill-opacity:1;stroke:none;stroke-width:0.00000118;stroke-miterlimit:4;stroke-dasharray:none">
          <path
             d="m 0.091,0 v -0.454 h 0.182 v 0.09 h 0.091 v 0.091 H 0.273 V 0 Z m 0.273,-0.364 v -0.09 h 0.272 v 0.09 z"
             style="fill:#000000;fill-opacity:1;fill-rule:nonzero;stroke:none;stroke-width:0.00000118;stroke-miterlimit:4;stroke-dasharray:none"
             id="path2379" />
        </g>
        <g
           transform="matrix(29.6509,0,0,29.6509,254.429,421.985)"
           id="g2385"
           style="fill:#000000;fill-opacity:1;stroke:none;stroke-width:0.00000118;stroke-miterlimit:4;stroke-dasharray:none">
          <path
             d="M 0.545,-0.273 V -0.364 H 0.273 v 0.091 z M 0.182,0 V -0.091 H 0.091 v -0.273 h 0.091 v -0.09 h 0.454 v 0.09 h 0.091 v 0.182 H 0.273 v 0.091 H 0.636 V 0 Z"
             style="fill:#000000;fill-opacity:1;fill-rule:nonzero;stroke:none;stroke-width:0.00000118;stroke-miterlimit:4;stroke-dasharray:none"
             id="path2383" />
        </g>
        <g
           transform="matrix(29.6509,0,0,29.6509,288.119,421.985)"
           id="g2389"
           style="fill:#000000;fill-opacity:1;stroke:none;stroke-width:0.00000118;stroke-miterlimit:4;stroke-dasharray:none">
          <path
             d="M 0.182,0 V -0.091 H 0.091 v -0.636 h 0.182 v 0.636 h 0.272 v -0.636 h 0.182 v 0.636 H 0.636 V 0 Z"
             style="fill:#000000;fill-opacity:1;fill-rule:nonzero;stroke:none;stroke-width:0.00000118;stroke-miterlimit:4;stroke-dasharray:none"
             id="path2387" />
        </g>
        <g
           transform="matrix(29.6509,0,0,29.6509,321.809,421.985)"
           id="g2393"
           style="fill:#000000;fill-opacity:1;stroke:none;stroke-width:0.00000118;stroke-miterlimit:4;stroke-dasharray:none">
          <path
             d="M 0.545,-0.091 V -0.364 H 0.273 v 0.273 z M 0.182,0.273 V 0.182 H 0.545 V 0 H 0.182 V -0.091 H 0.091 v -0.273 h 0.091 v -0.09 H 0.727 V 0.182 H 0.636 v 0.091 z"
             style="fill:#000000;fill-opacity:1;fill-rule:nonzero;stroke:none;stroke-width:0.00000118;stroke-miterlimit:4;stroke-dasharray:none"
             id="path2391" />
        </g>
        <g
           transform="matrix(29.6509,0,0,29.6509,344.72,421.985)"
           id="g2397"
           style="fill:#000000;fill-opacity:1;stroke:none;stroke-width:0.00000118;stroke-miterlimit:4;stroke-dasharray:none">
          <path
             d="M 0.182,0 V -0.091 H 0.091 v -0.636 h 0.182 v 0.636 H 0.364 V 0 Z"
             style="fill:#000000;fill-opacity:1;fill-rule:nonzero;stroke:none;stroke-width:0.00000118;stroke-miterlimit:4;stroke-dasharray:none"
             id="path2395" />
        </g>
        <g
           transform="matrix(29.6509,0,0,29.6509,356.846,421.985)"
           id="g2401"
           style="fill:#000000;fill-opacity:1;stroke:none;stroke-width:0.00000118;stroke-miterlimit:4;stroke-dasharray:none">
          <path
             d="M 0.545,-0.091 V -0.364 H 0.273 v 0.273 z M 0.182,0 V -0.091 H 0.091 v -0.273 h 0.091 v -0.09 h 0.454 v 0.09 h 0.091 v 0.273 H 0.636 V 0 Z"
             style="fill:#000000;fill-opacity:1;fill-rule:nonzero;stroke:none;stroke-width:0.00000118;stroke-miterlimit:4;stroke-dasharray:none"
             id="path2399" />
        </g>
        <g
           transform="matrix(29.6509,0,0,29.6509,379.757,421.985)"
           id="g2405"
           style="fill:#000000;fill-opacity:1;stroke:none;stroke-width:0.00000118;stroke-miterlimit:4;stroke-dasharray:none">
          <path
             d="M 0.182,0 V -0.091 H 0.091 v -0.363 h 0.182 v 0.363 H 0.364 V 0 Z m 0.182,-0.091 v -0.363 h 0.09 v 0.363 z M 0.454,0 v -0.091 h 0.091 v -0.363 h 0.182 v 0.363 H 0.636 V 0 Z"
             style="fill:#000000;fill-opacity:1;fill-rule:nonzero;stroke:none;stroke-width:0.00000118;stroke-miterlimit:4;stroke-dasharray:none"
             id="path2403" />
        </g>
      </g>
      <g
         transform="matrix(0.806142,0,0,0.806142,36.0121,116.145)"
         id="g2469"
         style="fill:#000000;fill-opacity:1;stroke:none;stroke-width:0.00004834;stroke-miterlimit:4;stroke-dasharray:none">
        <g
           transform="matrix(31.2304,0,0,31.2304,364.665,505.804)"
           id="g2411"
           style="fill:#000000;fill-opacity:1;stroke:none;stroke-width:0.00000155;stroke-miterlimit:4;stroke-dasharray:none">
          <path
             d="m 0.313,-0.157 c -0.003,0.03 -0.004,0.056 -0.004,0.076 0.001,0.057 0.017,0.082 0.037,0.091 0.009,0.004 0.015,10e-4 0.015,-0.009 0.002,-0.053 0.008,-0.108 0.015,-0.16 0.017,0.001 0.031,0.003 0.043,0.006 0.009,0.003 0.013,0 0.011,-0.009 -0.004,-0.021 -0.015,-0.041 -0.045,-0.051 0.019,-0.11 0.047,-0.212 0.073,-0.291 0.009,-0.027 0.01,-0.049 0,-0.073 C 0.448,-0.602 0.445,-0.604 0.435,-0.618 0.425,-0.632 0.415,-0.632 0.399,-0.619 0.293,-0.532 0.154,-0.334 0.076,-0.198 0.06,-0.199 0.045,-0.201 0.031,-0.203 0.016,-0.205 0.014,-0.201 0.019,-0.188 0.022,-0.181 0.03,-0.166 0.052,-0.154 0.04,-0.132 0.031,-0.112 0.025,-0.097 0.004,-0.041 0.008,-0.011 0.02,0.005 0.025,0.012 0.034,0.012 0.038,0.003 0.058,-0.041 0.084,-0.09 0.114,-0.141 0.161,-0.14 0.242,-0.152 0.313,-0.157 Z M 0.152,-0.201 c 0.076,-0.119 0.167,-0.24 0.243,-0.325 -0.031,0.078 -0.059,0.204 -0.074,0.308 -0.047,0.001 -0.108,0.012 -0.169,0.017 z"
             style="fill:#000000;fill-opacity:1;fill-rule:nonzero;stroke:none;stroke-width:0.00000155;stroke-miterlimit:4;stroke-dasharray:none"
             id="path2409" />
        </g>
        <g
           transform="matrix(31.2304,0,0,31.2304,385.339,505.804)"
           id="g2415"
           style="fill:#000000;fill-opacity:1;stroke:none;stroke-width:0.00000155;stroke-miterlimit:4;stroke-dasharray:none">
          <path
             d="M 0.415,-0.09 C 0.432,-0.117 0.437,-0.139 0.435,-0.148 0.433,-0.158 0.424,-0.158 0.418,-0.15 0.378,-0.097 0.323,-0.042 0.239,0 0.281,-0.097 0.344,-0.218 0.374,-0.278 0.399,-0.327 0.391,-0.37 0.376,-0.388 0.369,-0.397 0.359,-0.396 0.351,-0.382 0.341,-0.365 0.33,-0.347 0.318,-0.327 0.319,-0.362 0.299,-0.393 0.259,-0.393 c -0.051,0 -0.132,0.045 -0.21,0.161 -0.081,0.12 -0.063,0.245 0.029,0.245 0.037,0 0.072,-0.021 0.101,-0.05 C 0.169,-0.014 0.16,0.01 0.15,0.032 0.051,0.07 -0.035,0.131 -0.064,0.221 -0.083,0.28 -0.065,0.315 -0.044,0.345 -0.026,0.371 -0.006,0.374 0.014,0.366 0.095,0.334 0.166,0.175 0.221,0.041 0.304,0.011 0.376,-0.029 0.415,-0.09 Z M 0.231,-0.168 C 0.18,-0.08 0.129,-0.017 0.09,-0.018 0.05,-0.019 0.061,-0.107 0.115,-0.193 0.17,-0.28 0.243,-0.344 0.274,-0.342 0.303,-0.34 0.294,-0.278 0.231,-0.168 Z M 0.133,0.073 C 0.068,0.225 -0.011,0.329 -0.024,0.31 -0.041,0.286 0.003,0.149 0.133,0.073 Z"
             style="fill:#000000;fill-opacity:1;fill-rule:nonzero;stroke:none;stroke-width:0.00000155;stroke-miterlimit:4;stroke-dasharray:none"
             id="path2413" />
        </g>
        <g
           transform="matrix(31.2304,0,0,31.2304,397.863,505.804)"
           id="g2419"
           style="fill:#000000;fill-opacity:1;stroke:none;stroke-width:0.00000155;stroke-miterlimit:4;stroke-dasharray:none">
          <path
             d="M 0.232,-0.459 C 0.219,-0.486 0.19,-0.498 0.174,-0.481 c -0.016,0.017 -0.021,0.047 -0.005,0.074 0.015,0.026 0.043,0.029 0.056,0.015 0.013,-0.014 0.02,-0.041 0.007,-0.067 z M 0.069,0.015 c 0.056,0 0.119,-0.042 0.149,-0.104 0.012,-0.025 0.015,-0.046 0.007,-0.062 -0.004,-0.008 -0.011,-0.009 -0.016,0 -0.03,0.069 -0.085,0.135 -0.13,0.137 -0.032,0.002 -0.034,-0.037 -0.01,-0.095 0.021,-0.05 0.063,-0.118 0.084,-0.162 0.024,-0.05 0.016,-0.093 0.001,-0.109 -0.008,-0.009 -0.015,-0.006 -0.024,0.006 -0.037,0.052 -0.103,0.17 -0.128,0.243 -0.028,0.082 -0.009,0.146 0.067,0.146 z"
             style="fill:#000000;fill-opacity:1;fill-rule:nonzero;stroke:none;stroke-width:0.00000155;stroke-miterlimit:4;stroke-dasharray:none"
             id="path2417" />
        </g>
        <g
           transform="matrix(31.2304,0,0,31.2304,403.828,505.804)"
           id="g2423"
           style="fill:#000000;fill-opacity:1;stroke:none;stroke-width:0.00000155;stroke-miterlimit:4;stroke-dasharray:none">
          <path
             d="M 0.106,-0.184 C 0.16,-0.289 0.229,-0.402 0.27,-0.47 0.313,-0.543 0.316,-0.586 0.304,-0.62 0.3,-0.632 0.287,-0.633 0.279,-0.621 0.168,-0.455 -0.062,-0.072 -0.09,0.151 -0.101,0.236 -0.071,0.275 -0.046,0.296 -0.016,0.322 0.009,0.318 0.043,0.276 0.091,0.216 0.135,0.105 0.151,0.004 0.211,-0.017 0.261,-0.076 0.271,-0.1 0.28,-0.123 0.286,-0.145 0.281,-0.16 0.276,-0.174 0.266,-0.173 0.26,-0.161 0.234,-0.109 0.194,-0.059 0.156,-0.034 0.157,-0.046 0.158,-0.057 0.158,-0.068 0.159,-0.134 0.144,-0.172 0.106,-0.184 Z M 0.101,-0.018 C 0.082,-0.022 0.073,-0.043 0.074,-0.075 c 0.001,-0.023 0.01,-0.076 0.02,-0.08 0.007,-0.003 0.017,0.028 0.016,0.065 -0.001,0.023 -0.004,0.048 -0.009,0.072 z M 0.034,-0.029 c 0.012,0.024 0.032,0.037 0.061,0.04 -0.033,0.137 -0.108,0.275 -0.13,0.246 -0.023,-0.029 0.013,-0.153 0.069,-0.286 z"
             style="fill:#000000;fill-opacity:1;fill-rule:nonzero;stroke:none;stroke-width:0.00000155;stroke-miterlimit:4;stroke-dasharray:none"
             id="path2421" />
        </g>
        <g
           transform="matrix(31.2304,0,0,31.2304,411.479,505.804)"
           id="g2427"
           style="fill:#000000;fill-opacity:1;stroke:none;stroke-width:0.00000155;stroke-miterlimit:4;stroke-dasharray:none">
          <path
             d="M 0.125,-0.389 C 0.082,-0.31 0.04,-0.226 0.019,-0.176 -0.029,-0.061 0.024,0.013 0.09,0.015 0.17,0.018 0.236,-0.07 0.249,-0.099 0.259,-0.122 0.264,-0.14 0.259,-0.156 0.255,-0.17 0.244,-0.168 0.238,-0.156 0.201,-0.081 0.144,-0.01 0.099,-0.012 0.057,-0.014 0.046,-0.076 0.079,-0.149 0.117,-0.233 0.174,-0.33 0.213,-0.397 0.238,-0.401 0.269,-0.404 0.291,-0.401 0.306,-0.401 0.31,-0.408 0.303,-0.42 0.295,-0.433 0.28,-0.451 0.241,-0.45 0.265,-0.502 0.265,-0.535 0.254,-0.563 0.249,-0.575 0.239,-0.576 0.23,-0.563 0.213,-0.541 0.185,-0.494 0.154,-0.439 0.127,-0.436 0.099,-0.434 0.071,-0.435 0.056,-0.436 0.05,-0.429 0.06,-0.415 c 0.008,0.011 0.031,0.026 0.065,0.026 z"
             style="fill:#000000;fill-opacity:1;fill-rule:nonzero;stroke:none;stroke-width:0.00000155;stroke-miterlimit:4;stroke-dasharray:none"
             id="path2425" />
        </g>
        <g
           transform="matrix(31.2304,0,0,31.2304,425.033,505.804)"
           id="g2431"
           style="fill:#000000;fill-opacity:1;stroke:none;stroke-width:0.00000155;stroke-miterlimit:4;stroke-dasharray:none">
          <path
             d="M 0.106,-0.184 C 0.16,-0.289 0.229,-0.402 0.27,-0.47 0.313,-0.543 0.316,-0.586 0.304,-0.62 0.3,-0.632 0.287,-0.633 0.279,-0.621 0.168,-0.455 -0.062,-0.072 -0.09,0.151 -0.101,0.236 -0.071,0.275 -0.046,0.296 -0.016,0.322 0.009,0.318 0.043,0.276 0.091,0.216 0.135,0.105 0.151,0.004 0.211,-0.017 0.261,-0.076 0.271,-0.1 0.28,-0.123 0.286,-0.145 0.281,-0.16 0.276,-0.174 0.266,-0.173 0.26,-0.161 0.234,-0.109 0.194,-0.059 0.156,-0.034 0.157,-0.046 0.158,-0.057 0.158,-0.068 0.159,-0.134 0.144,-0.172 0.106,-0.184 Z M 0.101,-0.018 C 0.082,-0.022 0.073,-0.043 0.074,-0.075 c 0.001,-0.023 0.01,-0.076 0.02,-0.08 0.007,-0.003 0.017,0.028 0.016,0.065 -0.001,0.023 -0.004,0.048 -0.009,0.072 z M 0.034,-0.029 c 0.012,0.024 0.032,0.037 0.061,0.04 -0.033,0.137 -0.108,0.275 -0.13,0.246 -0.023,-0.029 0.013,-0.153 0.069,-0.286 z"
             style="fill:#000000;fill-opacity:1;fill-rule:nonzero;stroke:none;stroke-width:0.00000155;stroke-miterlimit:4;stroke-dasharray:none"
             id="path2429" />
        </g>
        <g
           transform="matrix(31.2304,0,0,31.2304,432.685,505.804)"
           id="g2435"
           style="fill:#000000;fill-opacity:1;stroke:none;stroke-width:0.00000155;stroke-miterlimit:4;stroke-dasharray:none">
          <path
             d="M 0.656,-0.085 C 0.668,-0.111 0.664,-0.138 0.659,-0.15 0.655,-0.159 0.648,-0.157 0.644,-0.148 0.612,-0.075 0.561,-0.008 0.521,-0.011 0.489,-0.013 0.477,-0.052 0.496,-0.107 0.514,-0.16 0.562,-0.228 0.609,-0.281 0.639,-0.315 0.614,-0.362 0.596,-0.383 0.588,-0.393 0.579,-0.39 0.566,-0.381 c -0.038,0.026 -0.073,0.043 -0.108,0.048 0.02,-0.053 0.038,-0.126 0.003,-0.125 -0.04,0.001 -0.138,0.133 -0.064,0.165 -0.021,0.038 -0.05,0.057 -0.078,0.062 0,-0.006 0.002,-0.011 0.002,-0.016 C 0.326,-0.32 0.297,-0.326 0.273,-0.357 0.252,-0.384 0.236,-0.394 0.206,-0.391 c -0.06,0.005 -0.123,0.061 -0.161,0.13 -0.043,0.079 -0.058,0.166 -0.015,0.225 0.039,0.053 0.091,0.055 0.127,0.043 0.074,-0.024 0.136,-0.127 0.156,-0.212 0.055,-0.002 0.096,-0.036 0.124,-0.081 0.032,0 0.076,-0.01 0.121,-0.039 -0.042,0.049 -0.105,0.123 -0.125,0.19 -0.025,0.082 0.006,0.149 0.083,0.153 0.055,0.003 0.113,-0.043 0.14,-0.103 z M 0.257,-0.247 C 0.238,-0.263 0.229,-0.288 0.232,-0.313 0.236,-0.342 0.258,-0.35 0.262,-0.317 0.264,-0.3 0.263,-0.276 0.257,-0.247 Z m -0.009,0.029 c -0.007,0.025 -0.019,0.052 -0.035,0.082 -0.05,0.091 -0.112,0.127 -0.138,0.104 -0.026,-0.023 -0.012,-0.114 0.031,-0.19 0.022,-0.038 0.05,-0.071 0.077,-0.094 0.001,0.036 0.026,0.076 0.065,0.098 z"
             style="fill:#000000;fill-opacity:1;fill-rule:nonzero;stroke:none;stroke-width:0.00000155;stroke-miterlimit:4;stroke-dasharray:none"
             id="path2433" />
        </g>
        <g
           transform="matrix(31.2304,0,0,31.2304,459.324,505.804)"
           id="g2439"
           style="fill:#000000;fill-opacity:1;stroke:none;stroke-width:0.00000155;stroke-miterlimit:4;stroke-dasharray:none">
          <path
             d="M 0.386,-0.097 C 0.403,-0.123 0.406,-0.146 0.404,-0.155 0.402,-0.165 0.393,-0.164 0.388,-0.157 0.348,-0.102 0.289,-0.045 0.211,-0.003 0.253,-0.1 0.314,-0.22 0.344,-0.278 0.37,-0.329 0.362,-0.372 0.348,-0.39 0.339,-0.398 0.332,-0.396 0.323,-0.383 0.288,-0.332 0.245,-0.242 0.202,-0.168 0.151,-0.081 0.101,-0.017 0.062,-0.02 0.039,-0.022 0.037,-0.057 0.057,-0.106 c 0.019,-0.047 0.041,-0.088 0.077,-0.146 0.037,-0.059 0.043,-0.101 0.019,-0.133 -0.007,-0.01 -0.017,-0.011 -0.025,0 -0.065,0.09 -0.114,0.189 -0.136,0.253 -0.023,0.066 -0.021,0.139 0.051,0.145 0.04,0.003 0.078,-0.023 0.109,-0.055 -0.011,0.024 -0.021,0.049 -0.031,0.072 -0.099,0.039 -0.184,0.099 -0.214,0.189 -0.02,0.059 0,0.094 0.02,0.124 0.019,0.028 0.038,0.028 0.057,0.021 C 0.067,0.332 0.138,0.171 0.194,0.037 0.277,0.003 0.347,-0.035 0.386,-0.097 Z M 0.104,0.072 C 0.042,0.219 -0.04,0.328 -0.053,0.309 -0.071,0.284 -0.026,0.147 0.104,0.072 Z"
             style="fill:#000000;fill-opacity:1;fill-rule:nonzero;stroke:none;stroke-width:0.00000155;stroke-miterlimit:4;stroke-dasharray:none"
             id="path2437" />
        </g>
        <g
           transform="matrix(31.2304,0,0,31.2304,471.036,505.804)"
           id="g2443"
           style="fill:#000000;fill-opacity:1;stroke:none;stroke-width:0.00000155;stroke-miterlimit:4;stroke-dasharray:none">
          <path
             d="M 0.79,-0.09 C 0.804,-0.117 0.804,-0.143 0.799,-0.152 0.794,-0.161 0.786,-0.16 0.781,-0.151 0.743,-0.081 0.691,-0.015 0.65,-0.013 0.614,-0.011 0.61,-0.052 0.636,-0.11 0.659,-0.162 0.708,-0.235 0.73,-0.28 0.754,-0.33 0.746,-0.373 0.731,-0.391 0.723,-0.4 0.715,-0.398 0.706,-0.385 0.675,-0.342 0.646,-0.273 0.584,-0.172 0.531,-0.085 0.475,-0.017 0.436,-0.02 0.414,-0.022 0.411,-0.057 0.431,-0.106 0.45,-0.153 0.473,-0.193 0.509,-0.252 0.545,-0.311 0.55,-0.353 0.528,-0.386 0.52,-0.395 0.511,-0.396 0.503,-0.385 0.491,-0.368 0.475,-0.346 0.465,-0.33 0.431,-0.275 0.376,-0.228 0.319,-0.227 0.32,-0.235 0.321,-0.241 0.321,-0.247 0.326,-0.321 0.298,-0.327 0.274,-0.357 0.253,-0.384 0.236,-0.393 0.206,-0.391 c -0.06,0.004 -0.122,0.06 -0.16,0.129 -0.044,0.08 -0.059,0.166 -0.015,0.225 0.039,0.052 0.09,0.056 0.127,0.044 0.071,-0.024 0.132,-0.123 0.155,-0.207 0.031,0.003 0.062,-0.005 0.09,-0.018 -0.017,0.031 -0.03,0.061 -0.038,0.086 -0.022,0.066 -0.02,0.139 0.051,0.145 0.057,0.005 0.108,-0.048 0.143,-0.094 -0.008,0.058 0.017,0.098 0.082,0.098 0.059,0 0.12,-0.05 0.149,-0.107 z M 0.263,-0.318 C 0.265,-0.301 0.264,-0.276 0.256,-0.247 0.238,-0.263 0.23,-0.288 0.233,-0.315 0.236,-0.343 0.259,-0.35 0.263,-0.318 Z m -0.014,0.1 C 0.24,-0.193 0.23,-0.166 0.214,-0.137 0.164,-0.046 0.102,-0.01 0.076,-0.033 0.05,-0.056 0.064,-0.147 0.106,-0.222 c 0.022,-0.039 0.052,-0.073 0.078,-0.095 0,0.041 0.031,0.08 0.065,0.099 z"
             style="fill:#000000;fill-opacity:1;fill-rule:nonzero;stroke:none;stroke-width:0.00000155;stroke-miterlimit:4;stroke-dasharray:none"
             id="path2441" />
        </g>
        <g
           transform="matrix(31.2304,0,0,31.2304,501.798,505.804)"
           id="g2447"
           style="fill:#000000;fill-opacity:1;stroke:none;stroke-width:0.00000155;stroke-miterlimit:4;stroke-dasharray:none">
          <path
             d="M 0.105,-0.184 C 0.158,-0.289 0.229,-0.402 0.269,-0.47 0.312,-0.544 0.317,-0.586 0.303,-0.62 0.298,-0.632 0.288,-0.634 0.279,-0.621 0.167,-0.455 -0.062,-0.072 -0.09,0.15 -0.101,0.235 -0.075,0.27 -0.049,0.293 -0.021,0.318 0.01,0.327 0.048,0.28 0.097,0.219 0.145,0.103 0.163,-0.001 c 0.09,-0.037 0.166,-0.163 0.209,-0.286 0.032,0 0.075,-0.01 0.119,-0.037 -0.043,0.048 -0.103,0.122 -0.124,0.189 -0.025,0.08 0.005,0.149 0.081,0.151 0.055,0.001 0.115,-0.041 0.14,-0.101 C 0.6,-0.114 0.598,-0.139 0.593,-0.15 0.588,-0.16 0.582,-0.159 0.578,-0.15 0.545,-0.075 0.494,-0.01 0.454,-0.012 0.423,-0.014 0.41,-0.054 0.429,-0.109 0.447,-0.16 0.495,-0.229 0.543,-0.282 0.573,-0.315 0.548,-0.362 0.529,-0.384 0.52,-0.394 0.512,-0.39 0.499,-0.381 0.46,-0.354 0.424,-0.338 0.389,-0.334 0.411,-0.4 0.419,-0.462 0.388,-0.46 0.346,-0.457 0.254,-0.322 0.333,-0.293 0.292,-0.176 0.23,-0.071 0.168,-0.032 0.169,-0.042 0.169,-0.051 0.17,-0.06 0.174,-0.132 0.154,-0.171 0.105,-0.184 Z m -0.004,0.167 c -0.02,-0.002 -0.028,-0.026 -0.028,-0.058 0,-0.024 0.01,-0.076 0.021,-0.08 0.008,-0.003 0.018,0.028 0.016,0.065 -0.001,0.023 -0.004,0.048 -0.009,0.073 z M 0.095,0.01 C 0.062,0.147 -0.013,0.285 -0.035,0.257 -0.058,0.228 -0.022,0.104 0.034,-0.029 0.045,-0.005 0.066,0.007 0.095,0.01 Z"
             style="fill:#000000;fill-opacity:1;fill-rule:nonzero;stroke:none;stroke-width:0.00000155;stroke-miterlimit:4;stroke-dasharray:none"
             id="path2445" />
        </g>
        <g
           transform="matrix(31.2304,0,0,31.2304,519.474,505.804)"
           id="g2451"
           style="fill:#000000;fill-opacity:1;stroke:none;stroke-width:0.00000155;stroke-miterlimit:4;stroke-dasharray:none">
          <path
             d="M 0.954,-0.151 C 0.949,-0.158 0.942,-0.16 0.937,-0.151 0.899,-0.08 0.854,-0.015 0.814,-0.013 0.777,-0.011 0.764,-0.058 0.792,-0.115 0.816,-0.164 0.864,-0.23 0.883,-0.275 0.903,-0.323 0.895,-0.382 0.859,-0.383 0.827,-0.384 0.76,-0.337 0.713,-0.292 0.725,-0.336 0.708,-0.389 0.674,-0.39 0.638,-0.391 0.565,-0.332 0.52,-0.282 0.535,-0.321 0.538,-0.36 0.522,-0.386 0.516,-0.396 0.506,-0.396 0.5,-0.386 0.449,-0.305 0.384,-0.231 0.32,-0.23 0.322,-0.235 0.322,-0.241 0.322,-0.246 0.328,-0.32 0.298,-0.325 0.274,-0.356 0.253,-0.383 0.238,-0.392 0.207,-0.39 c -0.06,0.004 -0.121,0.063 -0.159,0.13 -0.045,0.079 -0.06,0.167 -0.017,0.225 0.04,0.054 0.091,0.055 0.127,0.043 0.074,-0.024 0.137,-0.128 0.157,-0.214 0.035,0.003 0.065,-0.006 0.093,-0.025 -0.029,0.056 -0.054,0.107 -0.064,0.14 -0.016,0.05 -0.011,0.084 0.01,0.101 0.01,0.008 0.015,0.005 0.019,-0.003 0.04,-0.094 0.088,-0.186 0.146,-0.249 0.064,-0.07 0.114,-0.097 0.124,-0.093 0.019,0.008 -0.088,0.145 -0.12,0.228 -0.027,0.071 -0.015,0.109 0.001,0.125 0.009,0.009 0.018,0.006 0.023,-0.006 0.042,-0.093 0.091,-0.188 0.173,-0.27 0.064,-0.064 0.099,-0.077 0.107,-0.074 0.015,0.006 -0.074,0.116 -0.11,0.2 -0.035,0.081 -0.005,0.149 0.081,0.15 0.057,0.001 0.121,-0.051 0.149,-0.106 0.012,-0.024 0.012,-0.056 0.007,-0.063 z M 0.258,-0.246 c -0.02,-0.017 -0.027,-0.046 -0.024,-0.067 0.004,-0.03 0.025,-0.035 0.03,-0.003 0.003,0.018 0,0.041 -0.006,0.07 z M 0.25,-0.221 c -0.007,0.026 -0.019,0.055 -0.036,0.086 -0.049,0.09 -0.11,0.127 -0.137,0.103 -0.026,-0.023 -0.013,-0.114 0.031,-0.189 0.022,-0.038 0.05,-0.072 0.077,-0.095 0.002,0.039 0.03,0.076 0.065,0.095 z"
             style="fill:#000000;fill-opacity:1;fill-rule:nonzero;stroke:none;stroke-width:0.00000155;stroke-miterlimit:4;stroke-dasharray:none"
             id="path2449" />
        </g>
        <g
           transform="matrix(31.2304,0,0,31.2304,555.17,505.804)"
           id="g2455"
           style="fill:#000000;fill-opacity:1;stroke:none;stroke-width:0.00000155;stroke-miterlimit:4;stroke-dasharray:none">
          <path
             d="M 0.247,-0.386 C 0.197,-0.416 0.096,-0.362 0.032,-0.236 -0.033,-0.107 0.01,0.017 0.137,0.015 0.213,0.014 0.292,-0.035 0.33,-0.094 0.347,-0.121 0.351,-0.146 0.348,-0.154 0.344,-0.164 0.335,-0.163 0.33,-0.155 0.289,-0.092 0.217,-0.012 0.133,-0.013 0.074,-0.014 0.053,-0.097 0.108,-0.21 c 0.045,-0.091 0.12,-0.155 0.137,-0.141 0.014,0.011 -0.016,0.054 -0.027,0.09 -0.014,0.045 0,0.075 0.024,0.087 0.013,0.007 0.017,0.004 0.021,-0.008 0.02,-0.054 0.06,-0.107 0.039,-0.149 C 0.29,-0.354 0.274,-0.37 0.247,-0.386 Z"
             style="fill:#000000;fill-opacity:1;fill-rule:nonzero;stroke:none;stroke-width:0.00000155;stroke-miterlimit:4;stroke-dasharray:none"
             id="path2453" />
        </g>
        <g
           transform="matrix(31.2304,0,0,31.2304,564.883,505.804)"
           id="g2459"
           style="fill:#000000;fill-opacity:1;stroke:none;stroke-width:0.00000155;stroke-miterlimit:4;stroke-dasharray:none">
          <path
             d="m 0.324,-0.325 c 0.002,-0.039 -0.018,-0.072 -0.061,-0.072 -0.05,0 -0.129,0.045 -0.21,0.163 -0.083,0.121 -0.064,0.248 0.029,0.248 0.048,0 0.093,-0.037 0.125,-0.078 0,0.047 0.028,0.079 0.082,0.082 C 0.344,0.021 0.407,-0.034 0.433,-0.089 0.446,-0.117 0.446,-0.142 0.442,-0.151 0.438,-0.16 0.431,-0.159 0.426,-0.15 0.391,-0.081 0.336,-0.013 0.295,-0.011 0.261,-0.009 0.262,-0.052 0.287,-0.108 0.311,-0.161 0.361,-0.236 0.383,-0.281 0.407,-0.331 0.399,-0.374 0.384,-0.392 0.377,-0.401 0.369,-0.399 0.36,-0.386 0.349,-0.37 0.337,-0.349 0.324,-0.325 Z M 0.237,-0.17 C 0.186,-0.082 0.134,-0.018 0.093,-0.019 0.054,-0.02 0.067,-0.108 0.12,-0.194 0.175,-0.283 0.248,-0.348 0.28,-0.345 0.309,-0.342 0.3,-0.28 0.237,-0.17 Z"
             style="fill:#000000;fill-opacity:1;fill-rule:nonzero;stroke:none;stroke-width:0.00000155;stroke-miterlimit:4;stroke-dasharray:none"
             id="path2457" />
        </g>
        <g
           transform="matrix(31.2304,0,0,31.2304,577.594,505.804)"
           id="g2463"
           style="fill:#000000;fill-opacity:1;stroke:none;stroke-width:0.00000155;stroke-miterlimit:4;stroke-dasharray:none">
          <path
             d="m 0.158,-0.284 c 0.015,-0.04 0.018,-0.079 0.001,-0.107 -0.006,-0.01 -0.014,-0.011 -0.021,0 -0.063,0.094 -0.136,0.235 -0.157,0.298 -0.017,0.051 -0.012,0.084 0.01,0.103 C 0,0.018 0.006,0.014 0.01,0.005 0.05,-0.089 0.098,-0.182 0.157,-0.246 0.221,-0.316 0.27,-0.343 0.282,-0.338 0.302,-0.331 0.194,-0.193 0.161,-0.11 0.132,-0.038 0.146,0.001 0.163,0.016 0.172,0.026 0.18,0.023 0.186,0.011 c 0.042,-0.094 0.091,-0.19 0.174,-0.273 0.065,-0.065 0.099,-0.076 0.107,-0.073 0.015,0.005 -0.074,0.117 -0.111,0.2 -0.037,0.082 -0.005,0.151 0.082,0.151 0.058,0 0.122,-0.05 0.15,-0.107 C 0.599,-0.114 0.602,-0.147 0.597,-0.154 0.592,-0.161 0.584,-0.161 0.579,-0.152 0.54,-0.082 0.495,-0.016 0.454,-0.015 0.418,-0.014 0.404,-0.06 0.432,-0.117 0.457,-0.167 0.506,-0.233 0.524,-0.278 0.544,-0.328 0.536,-0.387 0.5,-0.388 0.467,-0.389 0.4,-0.342 0.352,-0.295 0.365,-0.339 0.347,-0.392 0.313,-0.393 0.277,-0.394 0.202,-0.335 0.158,-0.284 Z"
             style="fill:#000000;fill-opacity:1;fill-rule:nonzero;stroke:none;stroke-width:0.00000155;stroke-miterlimit:4;stroke-dasharray:none"
             id="path2461" />
        </g>
        <g
           transform="matrix(31.2304,0,0,31.2304,595.239,505.804)"
           id="g2467"
           style="fill:#000000;fill-opacity:1;stroke:none;stroke-width:0.00000155;stroke-miterlimit:4;stroke-dasharray:none">
          <path
             d="M 0.209,-0.004 C 0.247,-0.027 0.284,-0.075 0.314,-0.141 0.351,-0.223 0.373,-0.312 0.325,-0.363 0.282,-0.408 0.223,-0.38 0.179,-0.342 0.18,-0.359 0.178,-0.374 0.173,-0.387 0.168,-0.399 0.159,-0.401 0.149,-0.388 0.086,-0.304 -0.082,0.013 -0.112,0.11 c -0.019,0.061 -0.014,0.089 0.001,0.11 0.006,0.009 0.013,0.007 0.017,-0.002 0.048,-0.111 0.099,-0.213 0.146,-0.299 0.003,0.025 0.013,0.048 0.034,0.067 0.035,0.032 0.077,0.041 0.141,0.037 0.072,-0.005 0.14,-0.038 0.178,-0.107 0.017,-0.031 0.015,-0.057 0.013,-0.066 -0.002,-0.01 -0.013,-0.014 -0.019,0 -0.032,0.068 -0.092,0.14 -0.19,0.146 z M 0.108,-0.181 C 0.12,-0.202 0.131,-0.22 0.142,-0.238 0.189,-0.315 0.251,-0.365 0.275,-0.353 0.3,-0.341 0.289,-0.258 0.25,-0.178 0.203,-0.082 0.138,-0.009 0.106,-0.035 0.078,-0.058 0.083,-0.118 0.108,-0.181 Z"
             style="fill:#000000;fill-opacity:1;fill-rule:nonzero;stroke:none;stroke-width:0.00000155;stroke-miterlimit:4;stroke-dasharray:none"
             id="path2465" />
        </g>
      </g>
    </g>
  </g>
</svg>
