<?xml version="1.0" encoding="UTF-8" standalone="no"?>
<svg
   width="100%"
   height="100%"
   viewBox="0 0 565 155"
   version="1.1"
   xml:space="preserve"
   style="fill-rule:evenodd;clip-rule:evenodd;stroke-linejoin:round;stroke-miterlimit:2;"
   id="svg3776"
   sodipodi:docname="lightquote.svg"
   inkscape:version="1.1.2 (b8e25be8, 2022-02-05)"
   xmlns:inkscape="http://www.inkscape.org/namespaces/inkscape"
   xmlns:sodipodi="http://sodipodi.sourceforge.net/DTD/sodipodi-0.dtd"
   xmlns="http://www.w3.org/2000/svg"
   xmlns:svg="http://www.w3.org/2000/svg"><defs
   id="defs3780" /><sodipodi:namedview
   id="namedview3778"
   pagecolor="#ffffff"
   bordercolor="#666666"
   borderopacity="1.0"
   inkscape:pageshadow="2"
   inkscape:pageopacity="0.0"
   inkscape:pagecheckerboard="0"
   showgrid="false"
   inkscape:zoom="0.75527732"
   inkscape:cx="267.45143"
   inkscape:cy="74.144951"
   inkscape:window-width="1296"
   inkscape:window-height="872"
   inkscape:window-x="0"
   inkscape:window-y="0"
   inkscape:window-maximized="0"
   inkscape:current-layer="layer1" />
    
<g
   inkscape:groupmode="layer"
   id="layer1"
   inkscape:label="Layer 1"><g
     transform="translate(-136.08965,-577.85342)"
     id="g3774"
     style="clip-rule:evenodd;fill-rule:evenodd;stroke-linejoin:round;stroke-miterlimit:4;stroke:none;stroke-width:0;stroke-dasharray:none;fill:#000000;fill-opacity:1">
        <g
   transform="matrix(0.957431,0.0142182,-0.0149585,1.00728,23.3984,-41.2439)"
   id="g3772"
   style="stroke:none;stroke-width:0;stroke-miterlimit:4;stroke-dasharray:none;fill:#000000;fill-opacity:1">
            <g
   transform="matrix(12.9649,18.0293,-18.9681,12.3233,129.44,619.316)"
   id="g3462"
   style="stroke:none;stroke-width:0;stroke-miterlimit:4;stroke-dasharray:none;fill:#000000;fill-opacity:1">
                <path
   d="M 0.276,-0.525 C 0.183,-0.384 0.075,-0.167 0.052,-0.085 0.039,-0.037 0.051,-0.007 0.065,0.006 0.072,0.013 0.077,0.013 0.081,0.003 0.159,-0.18 0.244,-0.32 0.304,-0.429 0.331,-0.478 0.338,-0.511 0.337,-0.535 0.395,-0.545 0.458,-0.555 0.507,-0.55 0.52,-0.549 0.522,-0.557 0.519,-0.565 0.504,-0.604 0.466,-0.615 0.424,-0.616 0.367,-0.618 0.201,-0.581 0.112,-0.588 c -0.01,-0.001 -0.014,0.004 -0.011,0.013 0.011,0.037 0.054,0.059 0.114,0.057 0.018,-0.001 0.038,-0.003 0.061,-0.007 z"
   style="fill:#000000;fill-rule:nonzero;stroke:none;stroke-width:0;stroke-miterlimit:4;stroke-dasharray:none;fill-opacity:1"
   id="path3460" />
            </g>
            <g
   transform="matrix(13.2605,17.8341,-18.7627,12.6042,133.617,625.17)"
   id="g3466"
   style="stroke:none;stroke-width:0;stroke-miterlimit:4;stroke-dasharray:none;fill:#000000;fill-opacity:1">
                <path
   d="M 0.399,-0.091 C 0.414,-0.121 0.414,-0.142 0.409,-0.153 0.405,-0.161 0.395,-0.161 0.391,-0.152 0.36,-0.088 0.305,-0.016 0.264,-0.014 0.227,-0.012 0.222,-0.059 0.247,-0.117 0.27,-0.169 0.318,-0.242 0.34,-0.286 0.366,-0.337 0.335,-0.387 0.301,-0.391 c -0.027,-0.003 -0.079,0.03 -0.12,0.07 0.043,-0.067 0.096,-0.148 0.12,-0.188 0.038,-0.063 0.041,-0.113 0.028,-0.142 -0.005,-0.012 -0.015,-0.013 -0.024,-0.001 -0.081,0.101 -0.289,0.453 -0.324,0.553 -0.021,0.06 -0.012,0.088 0.004,0.106 0.006,0.007 0.013,0.005 0.017,-0.004 0.024,-0.061 0.061,-0.131 0.097,-0.19 0.058,-0.095 0.167,-0.163 0.181,-0.155 0.016,0.009 -0.071,0.113 -0.104,0.21 -0.03,0.087 -0.009,0.148 0.075,0.148 0.059,0 0.12,-0.05 0.148,-0.107 z"
   style="fill:#000000;fill-rule:nonzero;stroke:none;stroke-width:0;stroke-miterlimit:4;stroke-dasharray:none;fill-opacity:1"
   id="path3464" />
            </g>
            <g
   transform="matrix(13.9139,17.3785,-18.2834,13.2252,138.565,631.926)"
   id="g3470"
   style="stroke:none;stroke-width:0;stroke-miterlimit:4;stroke-dasharray:none;fill:#000000;fill-opacity:1">
                <path
   d="M 0.667,-0.088 C 0.679,-0.116 0.677,-0.142 0.672,-0.153 0.668,-0.162 0.661,-0.16 0.657,-0.152 0.625,-0.078 0.574,-0.012 0.532,-0.014 0.502,-0.015 0.49,-0.055 0.507,-0.11 0.524,-0.164 0.575,-0.232 0.622,-0.284 0.652,-0.317 0.627,-0.365 0.607,-0.387 0.6,-0.397 0.591,-0.392 0.579,-0.384 0.54,-0.358 0.505,-0.342 0.47,-0.337 0.495,-0.402 0.505,-0.463 0.474,-0.462 0.432,-0.46 0.334,-0.327 0.411,-0.295 0.356,-0.168 0.246,-0.01 0.136,-0.015 0.085,-0.017 0.06,-0.082 0.092,-0.173 c 0.07,0.056 0.137,0.031 0.184,-0.03 0.04,-0.051 0.05,-0.11 0.033,-0.134 C 0.293,-0.359 0.275,-0.373 0.25,-0.388 0.2,-0.417 0.098,-0.361 0.035,-0.237 -0.03,-0.109 0.013,0.015 0.14,0.013 0.259,0.011 0.367,-0.115 0.45,-0.289 c 0.031,0 0.076,-0.01 0.12,-0.038 -0.043,0.048 -0.103,0.122 -0.124,0.189 -0.025,0.081 0.005,0.149 0.081,0.153 0.055,0.003 0.115,-0.043 0.14,-0.103 z M 0.101,-0.195 c 0.003,-0.005 0.005,-0.012 0.008,-0.017 0.046,-0.092 0.128,-0.155 0.15,-0.136 0.013,0.011 -0.008,0.063 -0.04,0.104 -0.03,0.038 -0.069,0.079 -0.118,0.049 z"
   style="fill:#000000;fill-rule:nonzero;stroke:none;stroke-width:0;stroke-miterlimit:4;stroke-dasharray:none;fill-opacity:1"
   id="path3468" />
            </g>
            <g
   transform="matrix(14.4883,16.9491,-17.8317,13.7712,147.582,643.116)"
   id="g3474"
   style="stroke:none;stroke-width:0;stroke-miterlimit:4;stroke-dasharray:none;fill:#000000;fill-opacity:1">
                <path
   d="M 0.092,-0.171 C 0.162,-0.114 0.229,-0.14 0.278,-0.2 0.32,-0.251 0.328,-0.312 0.31,-0.336 0.294,-0.358 0.276,-0.373 0.251,-0.388 0.201,-0.417 0.099,-0.365 0.034,-0.236 -0.031,-0.107 0.013,0.018 0.14,0.016 0.217,0.015 0.294,-0.031 0.336,-0.092 0.354,-0.118 0.357,-0.146 0.353,-0.154 0.349,-0.163 0.341,-0.163 0.336,-0.155 0.293,-0.089 0.22,-0.009 0.137,-0.013 0.084,-0.016 0.06,-0.079 0.092,-0.171 Z m 0.009,-0.022 c 0.002,-0.005 0.005,-0.011 0.008,-0.017 0.047,-0.095 0.13,-0.155 0.151,-0.138 0.014,0.011 -0.008,0.063 -0.04,0.105 -0.029,0.038 -0.07,0.081 -0.119,0.05 z"
   style="fill:#000000;fill-rule:nonzero;stroke:none;stroke-width:0;stroke-miterlimit:4;stroke-dasharray:none;fill-opacity:1"
   id="path3472" />
            </g>
            <g
   transform="matrix(15.3213,16.2739,-17.1213,14.563,155.395,652.27)"
   id="g3478"
   style="stroke:none;stroke-width:0;stroke-miterlimit:4;stroke-dasharray:none;fill:#000000;fill-opacity:1">
                <path
   d="m 0.209,-0.069 c -0.001,0.051 0.029,0.086 0.084,0.082 0.107,-0.008 0.197,-0.159 0.246,-0.3 0.031,0 0.074,-0.011 0.118,-0.037 -0.043,0.048 -0.104,0.122 -0.124,0.188 -0.024,0.08 0.006,0.149 0.082,0.152 0.055,0.002 0.114,-0.042 0.14,-0.102 0.012,-0.028 0.009,-0.053 0.004,-0.065 -0.004,-0.01 -0.011,-0.008 -0.015,0 C 0.712,-0.076 0.662,-0.01 0.62,-0.013 0.589,-0.015 0.578,-0.054 0.595,-0.109 c 0.016,-0.05 0.067,-0.12 0.114,-0.174 0.029,-0.034 0.005,-0.08 -0.014,-0.101 -0.009,-0.01 -0.016,-0.008 -0.03,0.002 -0.038,0.026 -0.075,0.043 -0.111,0.047 0.021,-0.069 0.031,-0.128 0,-0.126 -0.04,0.003 -0.135,0.139 -0.054,0.168 -0.047,0.147 -0.137,0.27 -0.201,0.276 -0.031,0.003 -0.035,-0.034 -0.011,-0.091 0.022,-0.051 0.075,-0.129 0.095,-0.174 0.022,-0.05 0.015,-0.092 -0.001,-0.11 -0.008,-0.009 -0.016,-0.006 -0.024,0.006 -0.007,0.01 -0.02,0.03 -0.035,0.055 0,-0.035 -0.02,-0.066 -0.059,-0.066 -0.051,0 -0.13,0.046 -0.21,0.161 -0.083,0.12 -0.063,0.247 0.029,0.247 0.049,0 0.094,-0.039 0.126,-0.08 z m 0.07,-0.277 c 0.029,0.002 0.02,0.065 -0.042,0.174 -0.051,0.09 -0.103,0.151 -0.143,0.15 C 0.055,-0.023 0.066,-0.11 0.12,-0.196 0.175,-0.284 0.248,-0.348 0.279,-0.346 Z"
   style="fill:#000000;fill-rule:nonzero;stroke:none;stroke-width:0;stroke-miterlimit:4;stroke-dasharray:none;fill-opacity:1"
   id="path3476" />
            </g>
            <g
   transform="matrix(15.881,15.7817,-16.6034,15.095,166.672,664.156)"
   id="g3482"
   style="stroke:none;stroke-width:0;stroke-miterlimit:4;stroke-dasharray:none;fill:#000000;fill-opacity:1">
                <path
   d="M 0.092,-0.171 C 0.162,-0.114 0.229,-0.14 0.278,-0.2 0.32,-0.251 0.328,-0.312 0.31,-0.336 0.294,-0.358 0.276,-0.373 0.251,-0.388 0.201,-0.417 0.099,-0.365 0.034,-0.236 -0.031,-0.107 0.013,0.018 0.14,0.016 0.217,0.015 0.294,-0.031 0.336,-0.092 0.354,-0.118 0.357,-0.146 0.353,-0.154 0.349,-0.163 0.341,-0.163 0.336,-0.155 0.293,-0.089 0.22,-0.009 0.137,-0.013 0.084,-0.016 0.06,-0.079 0.092,-0.171 Z m 0.009,-0.022 c 0.002,-0.005 0.005,-0.011 0.008,-0.017 0.047,-0.095 0.13,-0.155 0.151,-0.138 0.014,0.011 -0.008,0.063 -0.04,0.105 -0.029,0.038 -0.07,0.081 -0.119,0.05 z"
   style="fill:#000000;fill-rule:nonzero;stroke:none;stroke-width:0;stroke-miterlimit:4;stroke-dasharray:none;fill-opacity:1"
   id="path3480" />
            </g>
            <g
   transform="matrix(16.4934,15.2035,-15.9952,15.6771,175.304,672.665)"
   id="g3486"
   style="stroke:none;stroke-width:0;stroke-miterlimit:4;stroke-dasharray:none;fill:#000000;fill-opacity:1">
                <path
   d="m 0.277,-0.108 c 0.05,-0.106 0.146,-0.271 0.194,-0.357 0.042,-0.075 0.045,-0.118 0.031,-0.151 -0.005,-0.013 -0.014,-0.014 -0.024,0 -0.036,0.051 -0.112,0.187 -0.166,0.29 0.001,-0.037 -0.019,-0.068 -0.06,-0.068 -0.05,0 -0.13,0.045 -0.209,0.161 -0.082,0.12 -0.064,0.247 0.029,0.247 0.047,0 0.092,-0.037 0.124,-0.077 0,0.047 0.027,0.077 0.081,0.08 C 0.332,0.02 0.394,-0.033 0.421,-0.088 0.434,-0.115 0.433,-0.141 0.429,-0.15 0.425,-0.158 0.418,-0.158 0.413,-0.149 0.378,-0.08 0.324,-0.013 0.283,-0.011 0.249,-0.009 0.25,-0.05 0.277,-0.108 Z M 0.268,-0.343 c 0.029,0.001 0.014,0.064 -0.044,0.175 -0.047,0.091 -0.101,0.15 -0.141,0.149 -0.039,-0.001 -0.028,-0.088 0.026,-0.174 0.055,-0.088 0.128,-0.151 0.159,-0.15 z"
   style="fill:#000000;fill-rule:nonzero;stroke:none;stroke-width:0;stroke-miterlimit:4;stroke-dasharray:none;fill-opacity:1"
   id="path3484" />
            </g>
            <g
   transform="matrix(16.9989,14.6919,-15.4569,16.1576,181.855,678.817)"
   id="g3490"
   style="stroke:none;stroke-width:0;stroke-miterlimit:4;stroke-dasharray:none;fill:#000000;fill-opacity:1">
                <path
   d="m 0.209,-0.069 c -0.001,0.051 0.029,0.086 0.084,0.082 0.107,-0.008 0.197,-0.159 0.246,-0.3 0.031,0 0.074,-0.011 0.118,-0.037 -0.043,0.048 -0.104,0.122 -0.124,0.188 -0.024,0.08 0.006,0.149 0.082,0.152 0.055,0.002 0.114,-0.042 0.14,-0.102 0.012,-0.028 0.009,-0.053 0.004,-0.065 -0.004,-0.01 -0.011,-0.008 -0.015,0 C 0.712,-0.076 0.662,-0.01 0.62,-0.013 0.589,-0.015 0.578,-0.054 0.595,-0.109 c 0.016,-0.05 0.067,-0.12 0.114,-0.174 0.029,-0.034 0.005,-0.08 -0.014,-0.101 -0.009,-0.01 -0.016,-0.008 -0.03,0.002 -0.038,0.026 -0.075,0.043 -0.111,0.047 0.021,-0.069 0.031,-0.128 0,-0.126 -0.04,0.003 -0.135,0.139 -0.054,0.168 -0.047,0.147 -0.137,0.27 -0.201,0.276 -0.031,0.003 -0.035,-0.034 -0.011,-0.091 0.022,-0.051 0.075,-0.129 0.095,-0.174 0.022,-0.05 0.015,-0.092 -0.001,-0.11 -0.008,-0.009 -0.016,-0.006 -0.024,0.006 -0.007,0.01 -0.02,0.03 -0.035,0.055 0,-0.035 -0.02,-0.066 -0.059,-0.066 -0.051,0 -0.13,0.046 -0.21,0.161 -0.083,0.12 -0.063,0.247 0.029,0.247 0.049,0 0.094,-0.039 0.126,-0.08 z m 0.07,-0.277 c 0.029,0.002 0.02,0.065 -0.042,0.174 -0.051,0.09 -0.103,0.151 -0.143,0.15 C 0.055,-0.023 0.066,-0.11 0.12,-0.196 0.175,-0.284 0.248,-0.348 0.279,-0.346 Z"
   style="fill:#000000;fill-rule:nonzero;stroke:none;stroke-width:0;stroke-miterlimit:4;stroke-dasharray:none;fill-opacity:1"
   id="path3488" />
            </g>
            <g
   transform="matrix(17.49,14.1616,-14.899,16.6244,194.319,689.516)"
   id="g3494"
   style="stroke:none;stroke-width:0;stroke-miterlimit:4;stroke-dasharray:none;fill:#000000;fill-opacity:1">
                <path
   d="M 0.182,-0.347 C 0.209,-0.396 0.248,-0.466 0.272,-0.507 0.314,-0.58 0.316,-0.62 0.301,-0.65 0.295,-0.662 0.285,-0.661 0.276,-0.649 c -0.089,0.121 -0.255,0.45 -0.283,0.541 -0.019,0.061 -0.014,0.093 0.001,0.11 C 0.001,0.01 0.009,0.008 0.012,0 0.089,-0.184 0.134,-0.272 0.209,-0.329 0.262,-0.37 0.306,-0.381 0.317,-0.363 0.332,-0.337 0.266,-0.25 0.142,-0.209 0.123,-0.203 0.121,-0.2 0.121,-0.182 0.119,-0.047 0.178,0.01 0.248,0.011 0.327,0.012 0.373,-0.052 0.397,-0.094 0.412,-0.119 0.414,-0.143 0.409,-0.155 0.404,-0.167 0.395,-0.166 0.389,-0.154 0.359,-0.092 0.304,-0.015 0.263,-0.019 0.225,-0.023 0.197,-0.08 0.193,-0.162 0.256,-0.181 0.298,-0.21 0.332,-0.243 0.369,-0.279 0.372,-0.321 0.353,-0.36 0.333,-0.402 0.309,-0.417 0.271,-0.404 0.245,-0.395 0.214,-0.378 0.182,-0.347 Z"
   style="fill:#000000;fill-rule:nonzero;stroke:none;stroke-width:0;stroke-miterlimit:4;stroke-dasharray:none;fill-opacity:1"
   id="path3492" />
            </g>
            <g
   transform="matrix(17.8035,13.8041,-14.5229,16.9224,200.72,694.706)"
   id="g3498"
   style="stroke:none;stroke-width:0;stroke-miterlimit:4;stroke-dasharray:none;fill:#000000;fill-opacity:1">
                <path
   d="m 0.16,-0.294 c 0.011,-0.036 0.012,-0.07 -0.003,-0.095 -0.006,-0.01 -0.014,-0.011 -0.021,0 -0.063,0.093 -0.14,0.232 -0.16,0.295 -0.016,0.05 -0.01,0.083 0.01,0.103 0.009,0.009 0.015,0.005 0.019,-0.004 0.043,-0.094 0.087,-0.19 0.146,-0.254 0.064,-0.07 0.122,-0.098 0.132,-0.094 0.018,0.008 -0.07,0.114 -0.103,0.212 -0.029,0.087 -0.009,0.149 0.076,0.149 0.058,0 0.121,-0.051 0.148,-0.107 C 0.418,-0.118 0.42,-0.141 0.413,-0.152 0.408,-0.16 0.401,-0.16 0.396,-0.151 0.358,-0.081 0.309,-0.015 0.268,-0.013 0.232,-0.011 0.226,-0.058 0.252,-0.116 0.275,-0.168 0.324,-0.242 0.345,-0.286 0.37,-0.338 0.339,-0.387 0.306,-0.392 0.273,-0.397 0.205,-0.342 0.16,-0.294 Z"
   style="fill:#000000;fill-rule:nonzero;stroke:none;stroke-width:0;stroke-miterlimit:4;stroke-dasharray:none;fill-opacity:1"
   id="path3496" />
            </g>
            <g
   transform="matrix(18.1147,13.4333,-14.1328,17.2182,207.549,699.997)"
   id="g3502"
   style="stroke:none;stroke-width:0;stroke-miterlimit:4;stroke-dasharray:none;fill:#000000;fill-opacity:1">
                <path
   d="M 0.092,-0.171 C 0.162,-0.114 0.229,-0.14 0.278,-0.2 0.32,-0.251 0.328,-0.312 0.31,-0.336 0.294,-0.358 0.276,-0.373 0.251,-0.388 0.201,-0.417 0.099,-0.365 0.034,-0.236 -0.031,-0.107 0.013,0.018 0.14,0.016 0.217,0.015 0.294,-0.031 0.336,-0.092 0.354,-0.118 0.357,-0.146 0.353,-0.154 0.349,-0.163 0.341,-0.163 0.336,-0.155 0.293,-0.089 0.22,-0.009 0.137,-0.013 0.084,-0.016 0.06,-0.079 0.092,-0.171 Z m 0.009,-0.022 c 0.002,-0.005 0.005,-0.011 0.008,-0.017 0.047,-0.095 0.13,-0.155 0.151,-0.138 0.014,0.011 -0.008,0.063 -0.04,0.105 -0.029,0.038 -0.07,0.081 -0.119,0.05 z"
   style="fill:#000000;fill-rule:nonzero;stroke:none;stroke-width:0;stroke-miterlimit:4;stroke-dasharray:none;fill-opacity:1"
   id="path3500" />
            </g>
            <g
   transform="matrix(18.3615,13.1271,-13.8107,17.4528,213.271,704.247)"
   id="g3506"
   style="stroke:none;stroke-width:0;stroke-miterlimit:4;stroke-dasharray:none;fill:#000000;fill-opacity:1">
                <path
   d="M 0.039,-0.164 C 0.038,-0.172 0.038,-0.18 0.037,-0.188 0.036,-0.204 0.028,-0.208 0.016,-0.198 -0.018,-0.17 -0.021,-0.104 0.003,-0.059 0.037,0.003 0.093,0.018 0.151,0.016 0.222,0.013 0.29,-0.025 0.328,-0.094 0.345,-0.125 0.346,-0.151 0.342,-0.16 0.338,-0.168 0.328,-0.171 0.323,-0.16 0.298,-0.106 0.256,-0.046 0.189,-0.021 0.225,-0.045 0.232,-0.087 0.234,-0.126 0.237,-0.195 0.218,-0.273 0.225,-0.365 0.229,-0.372 0.232,-0.378 0.236,-0.384 0.249,-0.407 0.254,-0.418 0.244,-0.428 0.235,-0.437 0.212,-0.433 0.19,-0.413 0.169,-0.394 0.159,-0.375 0.154,-0.336 0.125,-0.285 0.08,-0.22 0.039,-0.164 Z m 0.113,-0.108 c 0.004,0.08 0.019,0.237 -0.027,0.251 -0.033,0.01 -0.062,-0.031 -0.077,-0.089 0.038,-0.054 0.075,-0.109 0.104,-0.162 z"
   style="fill:#000000;fill-rule:nonzero;stroke:none;stroke-width:0;stroke-miterlimit:4;stroke-dasharray:none;fill-opacity:1"
   id="path3504" />
            </g>
            <g
   transform="matrix(18.602,12.8176,-13.485,17.6814,218.807,708.212)"
   id="g3510"
   style="stroke:none;stroke-width:0;stroke-miterlimit:4;stroke-dasharray:none;fill:#000000;fill-opacity:1">
                <path
   d="M 0.039,-0.164 C 0.038,-0.172 0.038,-0.18 0.037,-0.188 0.036,-0.204 0.028,-0.208 0.016,-0.198 -0.018,-0.17 -0.021,-0.104 0.003,-0.059 0.037,0.003 0.093,0.018 0.151,0.016 0.222,0.013 0.29,-0.025 0.328,-0.094 0.345,-0.125 0.346,-0.151 0.342,-0.16 0.338,-0.168 0.328,-0.171 0.323,-0.16 0.298,-0.106 0.256,-0.046 0.189,-0.021 0.225,-0.045 0.232,-0.087 0.234,-0.126 0.237,-0.195 0.218,-0.273 0.225,-0.365 0.229,-0.372 0.232,-0.378 0.236,-0.384 0.249,-0.407 0.254,-0.418 0.244,-0.428 0.235,-0.437 0.212,-0.433 0.19,-0.413 0.169,-0.394 0.159,-0.375 0.154,-0.336 0.125,-0.285 0.08,-0.22 0.039,-0.164 Z m 0.113,-0.108 c 0.004,0.08 0.019,0.237 -0.027,0.251 -0.033,0.01 -0.062,-0.031 -0.077,-0.089 0.038,-0.054 0.075,-0.109 0.104,-0.162 z"
   style="fill:#000000;fill-rule:nonzero;stroke:none;stroke-width:0;stroke-miterlimit:4;stroke-dasharray:none;fill-opacity:1"
   id="path3508" />
            </g>
            <g
   transform="matrix(18.8473,12.4897,-13.14,17.9145,224.398,712.075)"
   id="g3514"
   style="stroke:none;stroke-width:0;stroke-miterlimit:4;stroke-dasharray:none;fill:#000000;fill-opacity:1">
                <path
   d="M 0.092,-0.171 C 0.162,-0.114 0.229,-0.14 0.278,-0.2 0.32,-0.251 0.328,-0.312 0.31,-0.336 0.294,-0.358 0.276,-0.373 0.251,-0.388 0.201,-0.417 0.099,-0.365 0.034,-0.236 -0.031,-0.107 0.013,0.018 0.14,0.016 0.217,0.015 0.294,-0.031 0.336,-0.092 0.354,-0.118 0.357,-0.146 0.353,-0.154 0.349,-0.163 0.341,-0.163 0.336,-0.155 0.293,-0.089 0.22,-0.009 0.137,-0.013 0.084,-0.016 0.06,-0.079 0.092,-0.171 Z m 0.009,-0.022 c 0.002,-0.005 0.005,-0.011 0.008,-0.017 0.047,-0.095 0.13,-0.155 0.151,-0.138 0.014,0.011 -0.008,0.063 -0.04,0.105 -0.029,0.038 -0.07,0.081 -0.119,0.05 z"
   style="fill:#000000;fill-rule:nonzero;stroke:none;stroke-width:0;stroke-miterlimit:4;stroke-dasharray:none;fill-opacity:1"
   id="path3512" />
            </g>
            <g
   transform="matrix(19.077,12.1705,-12.8042,18.1328,230.321,716.008)"
   id="g3518"
   style="stroke:none;stroke-width:0;stroke-miterlimit:4;stroke-dasharray:none;fill:#000000;fill-opacity:1">
                <path
   d="M 0.039,-0.164 C 0.038,-0.172 0.038,-0.18 0.037,-0.188 0.036,-0.204 0.028,-0.208 0.016,-0.198 -0.018,-0.17 -0.021,-0.104 0.003,-0.059 0.037,0.003 0.093,0.018 0.151,0.016 0.222,0.013 0.29,-0.025 0.328,-0.094 0.345,-0.125 0.346,-0.151 0.342,-0.16 0.338,-0.168 0.328,-0.171 0.323,-0.16 0.298,-0.106 0.256,-0.046 0.189,-0.021 0.225,-0.045 0.232,-0.087 0.234,-0.126 0.237,-0.195 0.218,-0.273 0.225,-0.365 0.229,-0.372 0.232,-0.378 0.236,-0.384 0.249,-0.407 0.254,-0.418 0.244,-0.428 0.235,-0.437 0.212,-0.433 0.19,-0.413 0.169,-0.394 0.159,-0.375 0.154,-0.336 0.125,-0.285 0.08,-0.22 0.039,-0.164 Z m 0.113,-0.108 c 0.004,0.08 0.019,0.237 -0.027,0.251 -0.033,0.01 -0.062,-0.031 -0.077,-0.089 0.038,-0.054 0.075,-0.109 0.104,-0.162 z"
   style="fill:#000000;fill-rule:nonzero;stroke:none;stroke-width:0;stroke-miterlimit:4;stroke-dasharray:none;fill-opacity:1"
   id="path3516" />
            </g>
            <g
   transform="matrix(19.4284,11.6575,-12.2645,18.4668,240.312,722.293)"
   id="g3522"
   style="stroke:none;stroke-width:0;stroke-miterlimit:4;stroke-dasharray:none;fill:#000000;fill-opacity:1">
                <path
   d="M 0.232,-0.459 C 0.219,-0.486 0.19,-0.498 0.174,-0.481 c -0.016,0.017 -0.021,0.047 -0.005,0.074 0.015,0.026 0.043,0.029 0.056,0.015 0.013,-0.014 0.02,-0.041 0.007,-0.067 z M 0.069,0.015 c 0.056,0 0.119,-0.042 0.149,-0.104 0.012,-0.025 0.015,-0.046 0.007,-0.062 -0.004,-0.008 -0.011,-0.009 -0.016,0 -0.03,0.069 -0.085,0.135 -0.13,0.137 -0.032,0.002 -0.034,-0.037 -0.01,-0.095 0.021,-0.05 0.063,-0.118 0.084,-0.162 0.024,-0.05 0.016,-0.093 0.001,-0.109 -0.008,-0.009 -0.015,-0.006 -0.024,0.006 -0.037,0.052 -0.103,0.17 -0.128,0.243 -0.028,0.082 -0.009,0.146 0.067,0.146 z"
   style="fill:#000000;fill-rule:nonzero;stroke:none;stroke-width:0;stroke-miterlimit:4;stroke-dasharray:none;fill-opacity:1"
   id="path3520" />
            </g>
            <g
   transform="matrix(19.6333,11.343,-11.9336,18.6616,244.217,724.659)"
   id="g3526"
   style="stroke:none;stroke-width:0;stroke-miterlimit:4;stroke-dasharray:none;fill:#000000;fill-opacity:1">
                <path
   d="m 0.16,-0.294 c 0.011,-0.036 0.012,-0.07 -0.003,-0.095 -0.006,-0.01 -0.014,-0.011 -0.021,0 -0.063,0.093 -0.14,0.232 -0.16,0.295 -0.016,0.05 -0.01,0.083 0.01,0.103 0.009,0.009 0.015,0.005 0.019,-0.004 0.043,-0.094 0.087,-0.19 0.146,-0.254 0.064,-0.07 0.122,-0.098 0.132,-0.094 0.018,0.008 -0.07,0.114 -0.103,0.212 -0.029,0.087 -0.009,0.149 0.076,0.149 0.058,0 0.121,-0.051 0.148,-0.107 C 0.418,-0.118 0.42,-0.141 0.413,-0.152 0.408,-0.16 0.401,-0.16 0.396,-0.151 0.358,-0.081 0.309,-0.015 0.268,-0.013 0.232,-0.011 0.226,-0.058 0.252,-0.116 0.275,-0.168 0.324,-0.242 0.345,-0.286 0.37,-0.338 0.339,-0.387 0.306,-0.392 0.273,-0.397 0.205,-0.342 0.16,-0.294 Z"
   style="fill:#000000;fill-rule:nonzero;stroke:none;stroke-width:0;stroke-miterlimit:4;stroke-dasharray:none;fill-opacity:1"
   id="path3524" />
            </g>
            <g
   transform="matrix(20.0547,10.6561,-11.211,19.0622,256.103,731.416)"
   id="g3530"
   style="stroke:none;stroke-width:0;stroke-miterlimit:4;stroke-dasharray:none;fill:#000000;fill-opacity:1">
                <path
   d="M 0.098,-0.2 C 0.187,-0.258 0.299,-0.378 0.33,-0.501 0.342,-0.548 0.336,-0.585 0.307,-0.611 0.293,-0.624 0.279,-0.622 0.264,-0.606 0.162,-0.5 0.048,-0.319 0.011,-0.145 -0.012,-0.037 0.025,0.011 0.094,0.013 0.174,0.015 0.247,-0.068 0.261,-0.098 0.272,-0.122 0.276,-0.144 0.271,-0.16 0.267,-0.174 0.256,-0.173 0.249,-0.16 0.21,-0.083 0.14,-0.011 0.092,-0.015 0.047,-0.019 0.058,-0.102 0.098,-0.2 Z m 0.018,-0.043 c 0.007,-0.016 0.015,-0.032 0.024,-0.048 0.069,-0.128 0.143,-0.239 0.156,-0.231 0.013,0.008 -0.043,0.168 -0.18,0.279 z"
   style="fill:#000000;fill-rule:nonzero;stroke:none;stroke-width:0;stroke-miterlimit:4;stroke-dasharray:none;fill-opacity:1"
   id="path3528" />
            </g>
            <g
   transform="matrix(20.1816,10.4376,-10.981,19.1827,260.738,733.887)"
   id="g3534"
   style="stroke:none;stroke-width:0;stroke-miterlimit:4;stroke-dasharray:none;fill:#000000;fill-opacity:1">
                <path
   d="M 0.232,-0.459 C 0.219,-0.486 0.19,-0.498 0.174,-0.481 c -0.016,0.017 -0.021,0.047 -0.005,0.074 0.015,0.026 0.043,0.029 0.056,0.015 0.013,-0.014 0.02,-0.041 0.007,-0.067 z M 0.069,0.015 c 0.056,0 0.119,-0.042 0.149,-0.104 0.012,-0.025 0.015,-0.046 0.007,-0.062 -0.004,-0.008 -0.011,-0.009 -0.016,0 -0.03,0.069 -0.085,0.135 -0.13,0.137 -0.032,0.002 -0.034,-0.037 -0.01,-0.095 0.021,-0.05 0.063,-0.118 0.084,-0.162 0.024,-0.05 0.016,-0.093 0.001,-0.109 -0.008,-0.009 -0.015,-0.006 -0.024,0.006 -0.037,0.052 -0.103,0.17 -0.128,0.243 -0.028,0.082 -0.009,0.146 0.067,0.146 z"
   style="fill:#000000;fill-rule:nonzero;stroke:none;stroke-width:0;stroke-miterlimit:4;stroke-dasharray:none;fill-opacity:1"
   id="path3532" />
            </g>
            <g
   transform="matrix(20.316,10.1993,-10.7304,19.3105,264.596,735.887)"
   id="g3538"
   style="stroke:none;stroke-width:0;stroke-miterlimit:4;stroke-dasharray:none;fill:#000000;fill-opacity:1">
                <path
   d="M 0.106,-0.184 C 0.16,-0.289 0.229,-0.402 0.27,-0.47 0.313,-0.543 0.316,-0.586 0.304,-0.62 0.3,-0.632 0.287,-0.633 0.279,-0.621 0.168,-0.455 -0.062,-0.072 -0.09,0.151 -0.101,0.236 -0.071,0.275 -0.046,0.296 -0.016,0.322 0.009,0.318 0.043,0.276 0.091,0.216 0.135,0.105 0.151,0.004 0.211,-0.017 0.261,-0.076 0.271,-0.1 0.28,-0.123 0.286,-0.145 0.281,-0.16 0.276,-0.174 0.266,-0.173 0.26,-0.161 0.234,-0.109 0.194,-0.059 0.156,-0.034 0.157,-0.046 0.158,-0.057 0.158,-0.068 0.159,-0.134 0.144,-0.172 0.106,-0.184 Z M 0.101,-0.018 C 0.082,-0.022 0.073,-0.043 0.074,-0.075 c 0.001,-0.023 0.01,-0.076 0.02,-0.08 0.007,-0.003 0.017,0.028 0.016,0.065 -0.001,0.023 -0.004,0.048 -0.009,0.072 z M 0.034,-0.029 c 0.012,0.024 0.032,0.037 0.061,0.04 -0.033,0.137 -0.108,0.275 -0.13,0.246 -0.023,-0.029 0.013,-0.153 0.069,-0.286 z"
   style="fill:#000000;fill-rule:nonzero;stroke:none;stroke-width:0;stroke-miterlimit:4;stroke-dasharray:none;fill-opacity:1"
   id="path3536" />
            </g>
            <g
   transform="matrix(20.5328,9.79908,-10.3093,19.5166,269.215,738.222)"
   id="g3542"
   style="stroke:none;stroke-width:0;stroke-miterlimit:4;stroke-dasharray:none;fill:#000000;fill-opacity:1">
                <path
   d="M 0.092,-0.171 C 0.162,-0.114 0.229,-0.14 0.278,-0.2 0.32,-0.251 0.328,-0.312 0.31,-0.336 0.294,-0.358 0.276,-0.373 0.251,-0.388 0.201,-0.417 0.099,-0.365 0.034,-0.236 -0.031,-0.107 0.013,0.018 0.14,0.016 0.217,0.015 0.294,-0.031 0.336,-0.092 0.354,-0.118 0.357,-0.146 0.353,-0.154 0.349,-0.163 0.341,-0.163 0.336,-0.155 0.293,-0.089 0.22,-0.009 0.137,-0.013 0.084,-0.016 0.06,-0.079 0.092,-0.171 Z m 0.009,-0.022 c 0.002,-0.005 0.005,-0.011 0.008,-0.017 0.047,-0.095 0.13,-0.155 0.151,-0.138 0.014,0.011 -0.008,0.063 -0.04,0.105 -0.029,0.038 -0.07,0.081 -0.119,0.05 z"
   style="fill:#000000;fill-rule:nonzero;stroke:none;stroke-width:0;stroke-miterlimit:4;stroke-dasharray:none;fill-opacity:1"
   id="path3540" />
            </g>
            <g
   transform="matrix(20.9676,8.92863,-9.39354,19.9299,280.33,743.46)"
   id="g3546"
   style="stroke:none;stroke-width:0;stroke-miterlimit:4;stroke-dasharray:none;fill:#000000;fill-opacity:1">
                <path
   d="m 0.324,-0.325 c 0.002,-0.039 -0.018,-0.072 -0.061,-0.072 -0.05,0 -0.129,0.045 -0.21,0.163 -0.083,0.121 -0.064,0.248 0.029,0.248 0.048,0 0.093,-0.037 0.125,-0.078 0,0.047 0.028,0.079 0.082,0.082 C 0.344,0.021 0.407,-0.034 0.433,-0.089 0.446,-0.117 0.446,-0.142 0.442,-0.151 0.438,-0.16 0.431,-0.159 0.426,-0.15 0.391,-0.081 0.336,-0.013 0.295,-0.011 0.261,-0.009 0.262,-0.052 0.287,-0.108 0.311,-0.161 0.361,-0.236 0.383,-0.281 0.407,-0.331 0.399,-0.374 0.384,-0.392 0.377,-0.401 0.369,-0.399 0.36,-0.386 0.349,-0.37 0.337,-0.349 0.324,-0.325 Z M 0.237,-0.17 C 0.186,-0.082 0.134,-0.018 0.093,-0.019 0.054,-0.02 0.067,-0.108 0.12,-0.194 0.175,-0.283 0.248,-0.348 0.28,-0.345 0.309,-0.342 0.3,-0.28 0.237,-0.17 Z"
   style="fill:#000000;fill-rule:nonzero;stroke:none;stroke-width:0;stroke-miterlimit:4;stroke-dasharray:none;fill-opacity:1"
   id="path3544" />
            </g>
            <g
   transform="matrix(21.2638,8.27153,-8.70222,20.2114,288.867,747.101)"
   id="g3550"
   style="stroke:none;stroke-width:0;stroke-miterlimit:4;stroke-dasharray:none;fill:#000000;fill-opacity:1">
                <path
   d="m 0.16,-0.294 c 0.011,-0.036 0.012,-0.07 -0.003,-0.095 -0.006,-0.01 -0.014,-0.011 -0.021,0 -0.063,0.093 -0.14,0.232 -0.16,0.295 -0.016,0.05 -0.01,0.083 0.01,0.103 0.009,0.009 0.015,0.005 0.019,-0.004 0.043,-0.094 0.087,-0.19 0.146,-0.254 0.064,-0.07 0.122,-0.098 0.132,-0.094 0.018,0.008 -0.07,0.114 -0.103,0.212 -0.029,0.087 -0.009,0.149 0.076,0.149 0.058,0 0.121,-0.051 0.148,-0.107 C 0.418,-0.118 0.42,-0.141 0.413,-0.152 0.408,-0.16 0.401,-0.16 0.396,-0.151 0.358,-0.081 0.309,-0.015 0.268,-0.013 0.232,-0.011 0.226,-0.058 0.252,-0.116 0.275,-0.168 0.324,-0.242 0.345,-0.286 0.37,-0.338 0.339,-0.387 0.306,-0.392 0.273,-0.397 0.205,-0.342 0.16,-0.294 Z"
   style="fill:#000000;fill-rule:nonzero;stroke:none;stroke-width:0;stroke-miterlimit:4;stroke-dasharray:none;fill-opacity:1"
   id="path3548" />
            </g>
            <g
   transform="matrix(21.6401,7.33714,-7.71918,20.5691,297.021,750.313)"
   id="g3554"
   style="stroke:none;stroke-width:0;stroke-miterlimit:4;stroke-dasharray:none;fill:#000000;fill-opacity:1">
                <path
   d="m 0.277,-0.108 c 0.05,-0.106 0.146,-0.271 0.194,-0.357 0.042,-0.075 0.045,-0.118 0.031,-0.151 -0.005,-0.013 -0.014,-0.014 -0.024,0 -0.036,0.051 -0.112,0.187 -0.166,0.29 0.001,-0.037 -0.019,-0.068 -0.06,-0.068 -0.05,0 -0.13,0.045 -0.209,0.161 -0.082,0.12 -0.064,0.247 0.029,0.247 0.047,0 0.092,-0.037 0.124,-0.077 0,0.047 0.027,0.077 0.081,0.08 C 0.332,0.02 0.394,-0.033 0.421,-0.088 0.434,-0.115 0.433,-0.141 0.429,-0.15 0.425,-0.158 0.418,-0.158 0.413,-0.149 0.378,-0.08 0.324,-0.013 0.283,-0.011 0.249,-0.009 0.25,-0.05 0.277,-0.108 Z M 0.268,-0.343 c 0.029,0.001 0.014,0.064 -0.044,0.175 -0.047,0.091 -0.101,0.15 -0.141,0.149 -0.039,-0.001 -0.028,-0.088 0.026,-0.174 0.055,-0.088 0.128,-0.151 0.159,-0.15 z"
   style="fill:#000000;fill-rule:nonzero;stroke:none;stroke-width:0;stroke-miterlimit:4;stroke-dasharray:none;fill-opacity:1"
   id="path3552" />
            </g>
            <g
   transform="matrix(22.1595,5.76877,-6.06915,21.0628,310.527,754.735)"
   id="g3558"
   style="stroke:none;stroke-width:0;stroke-miterlimit:4;stroke-dasharray:none;fill:#000000;fill-opacity:1">
                <path
   d="M 0.125,-0.389 C 0.082,-0.31 0.04,-0.226 0.019,-0.176 -0.029,-0.061 0.024,0.013 0.09,0.015 0.17,0.018 0.236,-0.07 0.249,-0.099 0.259,-0.122 0.264,-0.14 0.259,-0.156 0.255,-0.17 0.244,-0.168 0.238,-0.156 0.201,-0.081 0.144,-0.01 0.099,-0.012 0.057,-0.014 0.046,-0.076 0.079,-0.149 0.117,-0.233 0.174,-0.33 0.213,-0.397 0.238,-0.401 0.269,-0.404 0.291,-0.401 0.306,-0.401 0.31,-0.408 0.303,-0.42 0.295,-0.433 0.28,-0.451 0.241,-0.45 0.265,-0.502 0.265,-0.535 0.254,-0.563 0.249,-0.575 0.239,-0.576 0.23,-0.563 0.213,-0.541 0.185,-0.494 0.154,-0.439 0.127,-0.436 0.099,-0.434 0.071,-0.435 0.056,-0.436 0.05,-0.429 0.06,-0.415 c 0.008,0.011 0.031,0.026 0.065,0.026 z"
   style="fill:#000000;fill-rule:nonzero;stroke:none;stroke-width:0;stroke-miterlimit:4;stroke-dasharray:none;fill-opacity:1"
   id="path3556" />
            </g>
            <g
   transform="matrix(22.4531,4.63078,-4.8719,21.3419,315.249,756.052)"
   id="g3562"
   style="stroke:none;stroke-width:0;stroke-miterlimit:4;stroke-dasharray:none;fill:#000000;fill-opacity:1">
                <path
   d="M 0.399,-0.091 C 0.414,-0.121 0.414,-0.142 0.409,-0.153 0.405,-0.161 0.395,-0.161 0.391,-0.152 0.36,-0.088 0.305,-0.016 0.264,-0.014 0.227,-0.012 0.222,-0.059 0.247,-0.117 0.27,-0.169 0.318,-0.242 0.34,-0.286 0.366,-0.337 0.335,-0.387 0.301,-0.391 c -0.027,-0.003 -0.079,0.03 -0.12,0.07 0.043,-0.067 0.096,-0.148 0.12,-0.188 0.038,-0.063 0.041,-0.113 0.028,-0.142 -0.005,-0.012 -0.015,-0.013 -0.024,-0.001 -0.081,0.101 -0.289,0.453 -0.324,0.553 -0.021,0.06 -0.012,0.088 0.004,0.106 0.006,0.007 0.013,0.005 0.017,-0.004 0.024,-0.061 0.061,-0.131 0.097,-0.19 0.058,-0.095 0.167,-0.163 0.181,-0.155 0.016,0.009 -0.071,0.113 -0.104,0.21 -0.03,0.087 -0.009,0.148 0.075,0.148 0.059,0 0.12,-0.05 0.148,-0.107 z"
   style="fill:#000000;fill-rule:nonzero;stroke:none;stroke-width:0;stroke-miterlimit:4;stroke-dasharray:none;fill-opacity:1"
   id="path3560" />
            </g>
            <g
   transform="matrix(22.9428,-1.16774,1.22854,21.8073,323.698,758.607)"
   id="g3566"
   style="stroke:none;stroke-width:0;stroke-miterlimit:4;stroke-dasharray:none;fill:#000000;fill-opacity:1">
                <path
   d="M 0.667,-0.088 C 0.679,-0.116 0.677,-0.142 0.672,-0.153 0.668,-0.162 0.661,-0.16 0.657,-0.152 0.625,-0.078 0.574,-0.012 0.532,-0.014 0.502,-0.015 0.49,-0.055 0.507,-0.11 0.524,-0.164 0.575,-0.232 0.622,-0.284 0.652,-0.317 0.627,-0.365 0.607,-0.387 0.6,-0.397 0.591,-0.392 0.579,-0.384 0.54,-0.358 0.505,-0.342 0.47,-0.337 0.495,-0.402 0.505,-0.463 0.474,-0.462 0.432,-0.46 0.334,-0.327 0.411,-0.295 0.356,-0.168 0.246,-0.01 0.136,-0.015 0.085,-0.017 0.06,-0.082 0.092,-0.173 c 0.07,0.056 0.137,0.031 0.184,-0.03 0.04,-0.051 0.05,-0.11 0.033,-0.134 C 0.293,-0.359 0.275,-0.373 0.25,-0.388 0.2,-0.417 0.098,-0.361 0.035,-0.237 -0.03,-0.109 0.013,0.015 0.14,0.013 0.259,0.011 0.367,-0.115 0.45,-0.289 c 0.031,0 0.076,-0.01 0.12,-0.038 -0.043,0.048 -0.103,0.122 -0.124,0.189 -0.025,0.081 0.005,0.149 0.081,0.153 0.055,0.003 0.115,-0.043 0.14,-0.103 z M 0.101,-0.195 c 0.003,-0.005 0.005,-0.012 0.008,-0.017 0.046,-0.092 0.128,-0.155 0.15,-0.136 0.013,0.011 -0.008,0.063 -0.04,0.104 -0.03,0.038 -0.069,0.079 -0.118,0.049 z"
   style="fill:#000000;fill-rule:nonzero;stroke:none;stroke-width:0;stroke-miterlimit:4;stroke-dasharray:none;fill-opacity:1"
   id="path3564" />
            </g>
            <g
   transform="matrix(21.5268,-7.63225,8.02965,20.4614,338.497,757.409)"
   id="g3570"
   style="stroke:none;stroke-width:0;stroke-miterlimit:4;stroke-dasharray:none;fill:#000000;fill-opacity:1">
                <path
   d="M 0.092,-0.171 C 0.162,-0.114 0.229,-0.14 0.278,-0.2 0.32,-0.251 0.328,-0.312 0.31,-0.336 0.294,-0.358 0.276,-0.373 0.251,-0.388 0.201,-0.417 0.099,-0.365 0.034,-0.236 -0.031,-0.107 0.013,0.018 0.14,0.016 0.217,0.015 0.294,-0.031 0.336,-0.092 0.354,-0.118 0.357,-0.146 0.353,-0.154 0.349,-0.163 0.341,-0.163 0.336,-0.155 0.293,-0.089 0.22,-0.009 0.137,-0.013 0.084,-0.016 0.06,-0.079 0.092,-0.171 Z m 0.009,-0.022 c 0.002,-0.005 0.005,-0.011 0.008,-0.017 0.047,-0.095 0.13,-0.155 0.151,-0.138 0.014,0.011 -0.008,0.063 -0.04,0.105 -0.029,0.038 -0.07,0.081 -0.119,0.05 z"
   style="fill:#000000;fill-rule:nonzero;stroke:none;stroke-width:0;stroke-miterlimit:4;stroke-dasharray:none;fill-opacity:1"
   id="path3568" />
            </g>
            <g
   transform="matrix(18.6422,-12.7647,13.4293,17.7196,350.016,752.911)"
   id="g3574"
   style="stroke:none;stroke-width:0;stroke-miterlimit:4;stroke-dasharray:none;fill:#000000;fill-opacity:1">
                <path
   d="m 0.209,-0.069 c -0.001,0.051 0.029,0.086 0.084,0.082 0.107,-0.008 0.197,-0.159 0.246,-0.3 0.031,0 0.074,-0.011 0.118,-0.037 -0.043,0.048 -0.104,0.122 -0.124,0.188 -0.024,0.08 0.006,0.149 0.082,0.152 0.055,0.002 0.114,-0.042 0.14,-0.102 0.012,-0.028 0.009,-0.053 0.004,-0.065 -0.004,-0.01 -0.011,-0.008 -0.015,0 C 0.712,-0.076 0.662,-0.01 0.62,-0.013 0.589,-0.015 0.578,-0.054 0.595,-0.109 c 0.016,-0.05 0.067,-0.12 0.114,-0.174 0.029,-0.034 0.005,-0.08 -0.014,-0.101 -0.009,-0.01 -0.016,-0.008 -0.03,0.002 -0.038,0.026 -0.075,0.043 -0.111,0.047 0.021,-0.069 0.031,-0.128 0,-0.126 -0.04,0.003 -0.135,0.139 -0.054,0.168 -0.047,0.147 -0.137,0.27 -0.201,0.276 -0.031,0.003 -0.035,-0.034 -0.011,-0.091 0.022,-0.051 0.075,-0.129 0.095,-0.174 0.022,-0.05 0.015,-0.092 -0.001,-0.11 -0.008,-0.009 -0.016,-0.006 -0.024,0.006 -0.007,0.01 -0.02,0.03 -0.035,0.055 0,-0.035 -0.02,-0.066 -0.059,-0.066 -0.051,0 -0.13,0.046 -0.21,0.161 -0.083,0.12 -0.063,0.247 0.029,0.247 0.049,0 0.094,-0.039 0.126,-0.08 z m 0.07,-0.277 c 0.029,0.002 0.02,0.065 -0.042,0.174 -0.051,0.09 -0.103,0.151 -0.143,0.15 C 0.055,-0.023 0.066,-0.11 0.12,-0.196 0.175,-0.284 0.248,-0.348 0.279,-0.346 Z"
   style="fill:#000000;fill-rule:nonzero;stroke:none;stroke-width:0;stroke-miterlimit:4;stroke-dasharray:none;fill-opacity:1"
   id="path3572" />
            </g>
            <g
   transform="matrix(18.4875,-12.9664,13.6415,17.5725,363.601,743.439)"
   id="g3578"
   style="stroke:none;stroke-width:0;stroke-miterlimit:4;stroke-dasharray:none;fill:#000000;fill-opacity:1">
                <path
   d="M 0.092,-0.171 C 0.162,-0.114 0.229,-0.14 0.278,-0.2 0.32,-0.251 0.328,-0.312 0.31,-0.336 0.294,-0.358 0.276,-0.373 0.251,-0.388 0.201,-0.417 0.099,-0.365 0.034,-0.236 -0.031,-0.107 0.013,0.018 0.14,0.016 0.217,0.015 0.294,-0.031 0.336,-0.092 0.354,-0.118 0.357,-0.146 0.353,-0.154 0.349,-0.163 0.341,-0.163 0.336,-0.155 0.293,-0.089 0.22,-0.009 0.137,-0.013 0.084,-0.016 0.06,-0.079 0.092,-0.171 Z m 0.009,-0.022 c 0.002,-0.005 0.005,-0.011 0.008,-0.017 0.047,-0.095 0.13,-0.155 0.151,-0.138 0.014,0.011 -0.008,0.063 -0.04,0.105 -0.029,0.038 -0.07,0.081 -0.119,0.05 z"
   style="fill:#000000;fill-rule:nonzero;stroke:none;stroke-width:0;stroke-miterlimit:4;stroke-dasharray:none;fill-opacity:1"
   id="path3576" />
            </g>
            <g
   transform="matrix(19.606,-11.3856,11.9785,18.6356,373.643,736.527)"
   id="g3582"
   style="stroke:none;stroke-width:0;stroke-miterlimit:4;stroke-dasharray:none;fill:#000000;fill-opacity:1">
                <path
   d="M 0.098,-0.2 C 0.187,-0.258 0.299,-0.378 0.33,-0.501 0.342,-0.548 0.336,-0.585 0.307,-0.611 0.293,-0.624 0.279,-0.622 0.264,-0.606 0.162,-0.5 0.048,-0.319 0.011,-0.145 -0.012,-0.037 0.025,0.011 0.094,0.013 0.174,0.015 0.247,-0.068 0.261,-0.098 0.272,-0.122 0.276,-0.144 0.271,-0.16 0.267,-0.174 0.256,-0.173 0.249,-0.16 0.21,-0.083 0.14,-0.011 0.092,-0.015 0.047,-0.019 0.058,-0.102 0.098,-0.2 Z m 0.018,-0.043 c 0.007,-0.016 0.015,-0.032 0.024,-0.048 0.069,-0.128 0.143,-0.239 0.156,-0.231 0.013,0.008 -0.043,0.168 -0.18,0.279 z"
   style="fill:#000000;fill-rule:nonzero;stroke:none;stroke-width:0;stroke-miterlimit:4;stroke-dasharray:none;fill-opacity:1"
   id="path3580" />
            </g>
            <g
   transform="matrix(20.1059,-10.5687,11.119,19.1108,378.138,733.885)"
   id="g3586"
   style="stroke:none;stroke-width:0;stroke-miterlimit:4;stroke-dasharray:none;fill:#000000;fill-opacity:1">
                <path
   d="M 0.232,-0.459 C 0.219,-0.486 0.19,-0.498 0.174,-0.481 c -0.016,0.017 -0.021,0.047 -0.005,0.074 0.015,0.026 0.043,0.029 0.056,0.015 0.013,-0.014 0.02,-0.041 0.007,-0.067 z M 0.069,0.015 c 0.056,0 0.119,-0.042 0.149,-0.104 0.012,-0.025 0.015,-0.046 0.007,-0.062 -0.004,-0.008 -0.011,-0.009 -0.016,0 -0.03,0.069 -0.085,0.135 -0.13,0.137 -0.032,0.002 -0.034,-0.037 -0.01,-0.095 0.021,-0.05 0.063,-0.118 0.084,-0.162 0.024,-0.05 0.016,-0.093 0.001,-0.109 -0.008,-0.009 -0.015,-0.006 -0.024,0.006 -0.037,0.052 -0.103,0.17 -0.128,0.243 -0.028,0.082 -0.009,0.146 0.067,0.146 z"
   style="fill:#000000;fill-rule:nonzero;stroke:none;stroke-width:0;stroke-miterlimit:4;stroke-dasharray:none;fill-opacity:1"
   id="path3584" />
            </g>
            <g
   transform="matrix(20.8,-9.2761,9.7591,19.7705,382.157,731.711)"
   id="g3590"
   style="stroke:none;stroke-width:0;stroke-miterlimit:4;stroke-dasharray:none;fill:#000000;fill-opacity:1">
                <path
   d="M 0.415,-0.09 C 0.432,-0.117 0.437,-0.139 0.435,-0.148 0.433,-0.158 0.424,-0.158 0.418,-0.15 0.378,-0.097 0.323,-0.042 0.239,0 0.281,-0.097 0.344,-0.218 0.374,-0.278 0.399,-0.327 0.391,-0.37 0.376,-0.388 0.369,-0.397 0.359,-0.396 0.351,-0.382 0.341,-0.365 0.33,-0.347 0.318,-0.327 0.319,-0.362 0.299,-0.393 0.259,-0.393 c -0.051,0 -0.132,0.045 -0.21,0.161 -0.081,0.12 -0.063,0.245 0.029,0.245 0.037,0 0.072,-0.021 0.101,-0.05 C 0.169,-0.014 0.16,0.01 0.15,0.032 0.051,0.07 -0.035,0.131 -0.064,0.221 -0.083,0.28 -0.065,0.315 -0.044,0.345 -0.026,0.371 -0.006,0.374 0.014,0.366 0.095,0.334 0.166,0.175 0.221,0.041 0.304,0.011 0.376,-0.029 0.415,-0.09 Z M 0.231,-0.168 C 0.18,-0.08 0.129,-0.017 0.09,-0.018 0.05,-0.019 0.061,-0.107 0.115,-0.193 0.17,-0.28 0.243,-0.344 0.274,-0.342 0.303,-0.34 0.294,-0.278 0.231,-0.168 Z M 0.133,0.073 C 0.068,0.225 -0.011,0.329 -0.024,0.31 -0.041,0.286 0.003,0.149 0.133,0.073 Z"
   style="fill:#000000;fill-rule:nonzero;stroke:none;stroke-width:0;stroke-miterlimit:4;stroke-dasharray:none;fill-opacity:1"
   id="path3588" />
            </g>
            <g
   transform="matrix(21.3271,-8.12304,8.546,20.2716,390.518,728.018)"
   id="g3594"
   style="stroke:none;stroke-width:0;stroke-miterlimit:4;stroke-dasharray:none;fill:#000000;fill-opacity:1">
                <path
   d="M 0.399,-0.091 C 0.414,-0.121 0.414,-0.142 0.409,-0.153 0.405,-0.161 0.395,-0.161 0.391,-0.152 0.36,-0.088 0.305,-0.016 0.264,-0.014 0.227,-0.012 0.222,-0.059 0.247,-0.117 0.27,-0.169 0.318,-0.242 0.34,-0.286 0.366,-0.337 0.335,-0.387 0.301,-0.391 c -0.027,-0.003 -0.079,0.03 -0.12,0.07 0.043,-0.067 0.096,-0.148 0.12,-0.188 0.038,-0.063 0.041,-0.113 0.028,-0.142 -0.005,-0.012 -0.015,-0.013 -0.024,-0.001 -0.081,0.101 -0.289,0.453 -0.324,0.553 -0.021,0.06 -0.012,0.088 0.004,0.106 0.006,0.007 0.013,0.005 0.017,-0.004 0.024,-0.061 0.061,-0.131 0.097,-0.19 0.058,-0.095 0.167,-0.163 0.181,-0.155 0.016,0.009 -0.071,0.113 -0.104,0.21 -0.03,0.087 -0.009,0.148 0.075,0.148 0.059,0 0.12,-0.05 0.148,-0.107 z"
   style="fill:#000000;fill-rule:nonzero;stroke:none;stroke-width:0;stroke-miterlimit:4;stroke-dasharray:none;fill-opacity:1"
   id="path3592" />
            </g>
            <g
   transform="matrix(21.6408,-7.33534,7.71729,20.5697,398.561,724.972)"
   id="g3598"
   style="stroke:none;stroke-width:0;stroke-miterlimit:4;stroke-dasharray:none;fill:#000000;fill-opacity:1">
                <path
   d="M 0.125,-0.389 C 0.082,-0.31 0.04,-0.226 0.019,-0.176 -0.029,-0.061 0.024,0.013 0.09,0.015 0.17,0.018 0.236,-0.07 0.249,-0.099 0.259,-0.122 0.264,-0.14 0.259,-0.156 0.255,-0.17 0.244,-0.168 0.238,-0.156 0.201,-0.081 0.144,-0.01 0.099,-0.012 0.057,-0.014 0.046,-0.076 0.079,-0.149 0.117,-0.233 0.174,-0.33 0.213,-0.397 0.238,-0.401 0.269,-0.404 0.291,-0.401 0.306,-0.401 0.31,-0.408 0.303,-0.42 0.295,-0.433 0.28,-0.451 0.241,-0.45 0.265,-0.502 0.265,-0.535 0.254,-0.563 0.249,-0.575 0.239,-0.576 0.23,-0.563 0.213,-0.541 0.185,-0.494 0.154,-0.439 0.127,-0.436 0.099,-0.434 0.071,-0.435 0.056,-0.436 0.05,-0.429 0.06,-0.415 c 0.008,0.011 0.031,0.026 0.065,0.026 z"
   style="fill:#000000;fill-rule:nonzero;stroke:none;stroke-width:0;stroke-miterlimit:4;stroke-dasharray:none;fill-opacity:1"
   id="path3596" />
            </g>
            <g
   transform="matrix(21.8241,-6.82698,7.18246,20.744,403.167,723.381)"
   id="g3602"
   style="stroke:none;stroke-width:0;stroke-miterlimit:4;stroke-dasharray:none;fill:#000000;fill-opacity:1">
                <path
   d="M 0.039,-0.164 C 0.038,-0.172 0.038,-0.18 0.037,-0.188 0.036,-0.204 0.028,-0.208 0.016,-0.198 -0.018,-0.17 -0.021,-0.104 0.003,-0.059 0.037,0.003 0.093,0.018 0.151,0.016 0.222,0.013 0.29,-0.025 0.328,-0.094 0.345,-0.125 0.346,-0.151 0.342,-0.16 0.338,-0.168 0.328,-0.171 0.323,-0.16 0.298,-0.106 0.256,-0.046 0.189,-0.021 0.225,-0.045 0.232,-0.087 0.234,-0.126 0.237,-0.195 0.218,-0.273 0.225,-0.365 0.229,-0.372 0.232,-0.378 0.236,-0.384 0.249,-0.407 0.254,-0.418 0.244,-0.428 0.235,-0.437 0.212,-0.433 0.19,-0.413 0.169,-0.394 0.159,-0.375 0.154,-0.336 0.125,-0.285 0.08,-0.22 0.039,-0.164 Z m 0.113,-0.108 c 0.004,0.08 0.019,0.237 -0.027,0.251 -0.033,0.01 -0.062,-0.031 -0.077,-0.089 0.038,-0.054 0.075,-0.109 0.104,-0.162 z"
   style="fill:#000000;fill-rule:nonzero;stroke:none;stroke-width:0;stroke-miterlimit:4;stroke-dasharray:none;fill-opacity:1"
   id="path3600" />
            </g>
            <g
   transform="matrix(22.0171,-6.24222,6.56724,20.9274,409.772,721.324)"
   id="g3606"
   style="stroke:none;stroke-width:0;stroke-miterlimit:4;stroke-dasharray:none;fill:#000000;fill-opacity:1">
                <path
   d="M 0.086,0.016 C 0.077,0.024 0.067,0.029 0.059,0.032 0.054,0.034 0.052,0.041 0.059,0.044 0.094,0.058 0.136,0.029 0.149,-0.01 0.161,-0.046 0.146,-0.077 0.122,-0.078 0.101,-0.079 0.077,-0.061 0.07,-0.031 0.065,-0.009 0.073,0.009 0.086,0.016 Z"
   style="fill:#000000;fill-rule:nonzero;stroke:none;stroke-width:0;stroke-miterlimit:4;stroke-dasharray:none;fill-opacity:1"
   id="path3604" />
            </g>
            <g
   transform="matrix(22.6388,-3.72557,3.91955,21.5184,419.909,718.476)"
   id="g3610"
   style="stroke:none;stroke-width:0;stroke-miterlimit:4;stroke-dasharray:none;fill:#000000;fill-opacity:1">
                <path
   d="m 0.324,-0.325 c 0.002,-0.039 -0.018,-0.072 -0.061,-0.072 -0.05,0 -0.129,0.045 -0.21,0.163 -0.083,0.121 -0.064,0.248 0.029,0.248 0.048,0 0.093,-0.037 0.125,-0.078 0,0.047 0.028,0.079 0.082,0.082 C 0.344,0.021 0.407,-0.034 0.433,-0.089 0.446,-0.117 0.446,-0.142 0.442,-0.151 0.438,-0.16 0.431,-0.159 0.426,-0.15 0.391,-0.081 0.336,-0.013 0.295,-0.011 0.261,-0.009 0.262,-0.052 0.287,-0.108 0.311,-0.161 0.361,-0.236 0.383,-0.281 0.407,-0.331 0.399,-0.374 0.384,-0.392 0.377,-0.401 0.369,-0.399 0.36,-0.386 0.349,-0.37 0.337,-0.349 0.324,-0.325 Z M 0.237,-0.17 C 0.186,-0.082 0.134,-0.018 0.093,-0.019 0.054,-0.02 0.067,-0.108 0.12,-0.194 0.175,-0.283 0.248,-0.348 0.28,-0.345 0.309,-0.342 0.3,-0.28 0.237,-0.17 Z"
   style="fill:#000000;fill-rule:nonzero;stroke:none;stroke-width:0;stroke-miterlimit:4;stroke-dasharray:none;fill-opacity:1"
   id="path3608" />
            </g>
            <g
   transform="matrix(22.8586,2.20171,-2.31635,21.7272,429.142,717.021)"
   id="g3614"
   style="stroke:none;stroke-width:0;stroke-miterlimit:4;stroke-dasharray:none;fill:#000000;fill-opacity:1">
                <path
   d="m 0.16,-0.294 c 0.011,-0.036 0.012,-0.07 -0.003,-0.095 -0.006,-0.01 -0.014,-0.011 -0.021,0 -0.063,0.093 -0.14,0.232 -0.16,0.295 -0.016,0.05 -0.01,0.083 0.01,0.103 0.009,0.009 0.015,0.005 0.019,-0.004 0.043,-0.094 0.087,-0.19 0.146,-0.254 0.064,-0.07 0.122,-0.098 0.132,-0.094 0.018,0.008 -0.07,0.114 -0.103,0.212 -0.029,0.087 -0.009,0.149 0.076,0.149 0.058,0 0.121,-0.051 0.148,-0.107 C 0.418,-0.118 0.42,-0.141 0.413,-0.152 0.408,-0.16 0.401,-0.16 0.396,-0.151 0.358,-0.081 0.309,-0.015 0.268,-0.013 0.232,-0.011 0.226,-0.058 0.252,-0.116 0.275,-0.168 0.324,-0.242 0.345,-0.286 0.37,-0.338 0.339,-0.387 0.306,-0.392 0.273,-0.397 0.205,-0.342 0.16,-0.294 Z"
   style="fill:#000000;fill-rule:nonzero;stroke:none;stroke-width:0;stroke-miterlimit:4;stroke-dasharray:none;fill-opacity:1"
   id="path3612" />
            </g>
            <g
   transform="matrix(22.4346,4.71134,-4.95666,21.3242,437.951,717.846)"
   id="g3618"
   style="stroke:none;stroke-width:0;stroke-miterlimit:4;stroke-dasharray:none;fill:#000000;fill-opacity:1">
                <path
   d="m 0.277,-0.108 c 0.05,-0.106 0.146,-0.271 0.194,-0.357 0.042,-0.075 0.045,-0.118 0.031,-0.151 -0.005,-0.013 -0.014,-0.014 -0.024,0 -0.036,0.051 -0.112,0.187 -0.166,0.29 0.001,-0.037 -0.019,-0.068 -0.06,-0.068 -0.05,0 -0.13,0.045 -0.209,0.161 -0.082,0.12 -0.064,0.247 0.029,0.247 0.047,0 0.092,-0.037 0.124,-0.077 0,0.047 0.027,0.077 0.081,0.08 C 0.332,0.02 0.394,-0.033 0.421,-0.088 0.434,-0.115 0.433,-0.141 0.429,-0.15 0.425,-0.158 0.418,-0.158 0.413,-0.149 0.378,-0.08 0.324,-0.013 0.283,-0.011 0.249,-0.009 0.25,-0.05 0.277,-0.108 Z M 0.268,-0.343 c 0.029,0.001 0.014,0.064 -0.044,0.175 -0.047,0.091 -0.101,0.15 -0.141,0.149 -0.039,-0.001 -0.028,-0.088 0.026,-0.174 0.055,-0.088 0.128,-0.151 0.159,-0.15 z"
   style="fill:#000000;fill-rule:nonzero;stroke:none;stroke-width:0;stroke-miterlimit:4;stroke-dasharray:none;fill-opacity:1"
   id="path3616" />
            </g>
            <g
   transform="matrix(21.8414,6.77674,-7.1296,20.7604,451.845,721.019)"
   id="g3622"
   style="stroke:none;stroke-width:0;stroke-miterlimit:4;stroke-dasharray:none;fill:#000000;fill-opacity:1">
                <path
   d="M 0.386,-0.097 C 0.403,-0.123 0.406,-0.146 0.404,-0.155 0.402,-0.165 0.393,-0.164 0.388,-0.157 0.348,-0.102 0.289,-0.045 0.211,-0.003 0.253,-0.1 0.314,-0.22 0.344,-0.278 0.37,-0.329 0.362,-0.372 0.348,-0.39 0.339,-0.398 0.332,-0.396 0.323,-0.383 0.288,-0.332 0.245,-0.242 0.202,-0.168 0.151,-0.081 0.101,-0.017 0.062,-0.02 0.039,-0.022 0.037,-0.057 0.057,-0.106 c 0.019,-0.047 0.041,-0.088 0.077,-0.146 0.037,-0.059 0.043,-0.101 0.019,-0.133 -0.007,-0.01 -0.017,-0.011 -0.025,0 -0.065,0.09 -0.114,0.189 -0.136,0.253 -0.023,0.066 -0.021,0.139 0.051,0.145 0.04,0.003 0.078,-0.023 0.109,-0.055 -0.011,0.024 -0.021,0.049 -0.031,0.072 -0.099,0.039 -0.184,0.099 -0.214,0.189 -0.02,0.059 0,0.094 0.02,0.124 0.019,0.028 0.038,0.028 0.057,0.021 C 0.067,0.332 0.138,0.171 0.194,0.037 0.277,0.003 0.347,-0.035 0.386,-0.097 Z M 0.104,0.072 C 0.042,0.219 -0.04,0.328 -0.053,0.309 -0.071,0.284 -0.026,0.147 0.104,0.072 Z"
   style="fill:#000000;fill-rule:nonzero;stroke:none;stroke-width:0;stroke-miterlimit:4;stroke-dasharray:none;fill-opacity:1"
   id="path3620" />
            </g>
            <g
   transform="matrix(20.7724,9.33186,-9.81777,19.7443,460.14,723.286)"
   id="g3626"
   style="stroke:none;stroke-width:0;stroke-miterlimit:4;stroke-dasharray:none;fill:#000000;fill-opacity:1">
                <path
   d="M 0.79,-0.09 C 0.804,-0.117 0.804,-0.143 0.799,-0.152 0.794,-0.161 0.786,-0.16 0.781,-0.151 0.743,-0.081 0.691,-0.015 0.65,-0.013 0.614,-0.011 0.61,-0.052 0.636,-0.11 0.659,-0.162 0.708,-0.235 0.73,-0.28 0.754,-0.33 0.746,-0.373 0.731,-0.391 0.723,-0.4 0.715,-0.398 0.706,-0.385 0.675,-0.342 0.646,-0.273 0.584,-0.172 0.531,-0.085 0.475,-0.017 0.436,-0.02 0.414,-0.022 0.411,-0.057 0.431,-0.106 0.45,-0.153 0.473,-0.193 0.509,-0.252 0.545,-0.311 0.55,-0.353 0.528,-0.386 0.52,-0.395 0.511,-0.396 0.503,-0.385 0.491,-0.368 0.475,-0.346 0.465,-0.33 0.431,-0.275 0.376,-0.228 0.319,-0.227 0.32,-0.235 0.321,-0.241 0.321,-0.247 0.326,-0.321 0.298,-0.327 0.274,-0.357 0.253,-0.384 0.236,-0.393 0.206,-0.391 c -0.06,0.004 -0.122,0.06 -0.16,0.129 -0.044,0.08 -0.059,0.166 -0.015,0.225 0.039,0.052 0.09,0.056 0.127,0.044 0.071,-0.024 0.132,-0.123 0.155,-0.207 0.031,0.003 0.062,-0.005 0.09,-0.018 -0.017,0.031 -0.03,0.061 -0.038,0.086 -0.022,0.066 -0.02,0.139 0.051,0.145 0.057,0.005 0.108,-0.048 0.143,-0.094 -0.008,0.058 0.017,0.098 0.082,0.098 0.059,0 0.12,-0.05 0.149,-0.107 z M 0.263,-0.318 C 0.265,-0.301 0.264,-0.276 0.256,-0.247 0.238,-0.263 0.23,-0.288 0.233,-0.315 0.236,-0.343 0.259,-0.35 0.263,-0.318 Z m -0.014,0.1 C 0.24,-0.193 0.23,-0.166 0.214,-0.137 0.164,-0.046 0.102,-0.01 0.076,-0.033 0.05,-0.056 0.064,-0.147 0.106,-0.222 c 0.022,-0.039 0.052,-0.073 0.078,-0.095 0,0.041 0.031,0.08 0.065,0.099 z"
   style="fill:#000000;fill-rule:nonzero;stroke:none;stroke-width:0;stroke-miterlimit:4;stroke-dasharray:none;fill-opacity:1"
   id="path3624" />
            </g>
            <g
   transform="matrix(18.8821,12.4421,-13.0899,17.9476,480.183,733.243)"
   id="g3630"
   style="stroke:none;stroke-width:0;stroke-miterlimit:4;stroke-dasharray:none;fill:#000000;fill-opacity:1">
                <path
   d="m 0.209,-0.069 c -0.001,0.051 0.029,0.086 0.084,0.082 0.107,-0.008 0.197,-0.159 0.246,-0.3 0.031,0 0.074,-0.011 0.118,-0.037 -0.043,0.048 -0.104,0.122 -0.124,0.188 -0.024,0.08 0.006,0.149 0.082,0.152 0.055,0.002 0.114,-0.042 0.14,-0.102 0.012,-0.028 0.009,-0.053 0.004,-0.065 -0.004,-0.01 -0.011,-0.008 -0.015,0 C 0.712,-0.076 0.662,-0.01 0.62,-0.013 0.589,-0.015 0.578,-0.054 0.595,-0.109 c 0.016,-0.05 0.067,-0.12 0.114,-0.174 0.029,-0.034 0.005,-0.08 -0.014,-0.101 -0.009,-0.01 -0.016,-0.008 -0.03,0.002 -0.038,0.026 -0.075,0.043 -0.111,0.047 0.021,-0.069 0.031,-0.128 0,-0.126 -0.04,0.003 -0.135,0.139 -0.054,0.168 -0.047,0.147 -0.137,0.27 -0.201,0.276 -0.031,0.003 -0.035,-0.034 -0.011,-0.091 0.022,-0.051 0.075,-0.129 0.095,-0.174 0.022,-0.05 0.015,-0.092 -0.001,-0.11 -0.008,-0.009 -0.016,-0.006 -0.024,0.006 -0.007,0.01 -0.02,0.03 -0.035,0.055 0,-0.035 -0.02,-0.066 -0.059,-0.066 -0.051,0 -0.13,0.046 -0.21,0.161 -0.083,0.12 -0.063,0.247 0.029,0.247 0.049,0 0.094,-0.039 0.126,-0.08 z m 0.07,-0.277 c 0.029,0.002 0.02,0.065 -0.042,0.174 -0.051,0.09 -0.103,0.151 -0.143,0.15 C 0.055,-0.023 0.066,-0.11 0.12,-0.196 0.175,-0.284 0.248,-0.348 0.279,-0.346 Z"
   style="fill:#000000;fill-rule:nonzero;stroke:none;stroke-width:0;stroke-miterlimit:4;stroke-dasharray:none;fill-opacity:1"
   id="path3628" />
            </g>
            <g
   transform="matrix(18.8281,12.5158,-13.1675,17.8963,494.009,742.416)"
   id="g3634"
   style="stroke:none;stroke-width:0;stroke-miterlimit:4;stroke-dasharray:none;fill:#000000;fill-opacity:1">
                <path
   d="M 0.092,-0.171 C 0.162,-0.114 0.229,-0.14 0.278,-0.2 0.32,-0.251 0.328,-0.312 0.31,-0.336 0.294,-0.358 0.276,-0.373 0.251,-0.388 0.201,-0.417 0.099,-0.365 0.034,-0.236 -0.031,-0.107 0.013,0.018 0.14,0.016 0.217,0.015 0.294,-0.031 0.336,-0.092 0.354,-0.118 0.357,-0.146 0.353,-0.154 0.349,-0.163 0.341,-0.163 0.336,-0.155 0.293,-0.089 0.22,-0.009 0.137,-0.013 0.084,-0.016 0.06,-0.079 0.092,-0.171 Z m 0.009,-0.022 c 0.002,-0.005 0.005,-0.011 0.008,-0.017 0.047,-0.095 0.13,-0.155 0.151,-0.138 0.014,0.011 -0.008,0.063 -0.04,0.105 -0.029,0.038 -0.07,0.081 -0.119,0.05 z"
   style="fill:#000000;fill-rule:nonzero;stroke:none;stroke-width:0;stroke-miterlimit:4;stroke-dasharray:none;fill-opacity:1"
   id="path3632" />
            </g>
            <g
   transform="matrix(20.0966,10.5847,-11.1359,19.1019,504.003,749.42)"
   id="g3638"
   style="stroke:none;stroke-width:0;stroke-miterlimit:4;stroke-dasharray:none;fill:#000000;fill-opacity:1">
                <path
   d="M 0.769,-0.089 C 0.784,-0.12 0.784,-0.14 0.779,-0.152 0.776,-0.16 0.766,-0.16 0.762,-0.152 0.723,-0.08 0.676,-0.015 0.636,-0.014 0.598,-0.013 0.593,-0.058 0.619,-0.115 0.643,-0.167 0.69,-0.239 0.712,-0.284 0.737,-0.335 0.706,-0.386 0.673,-0.39 0.639,-0.394 0.573,-0.34 0.528,-0.293 0.539,-0.328 0.539,-0.362 0.524,-0.387 0.518,-0.396 0.51,-0.396 0.503,-0.385 0.449,-0.303 0.384,-0.23 0.321,-0.229 0.322,-0.235 0.322,-0.242 0.322,-0.247 0.328,-0.319 0.298,-0.325 0.274,-0.357 0.254,-0.384 0.237,-0.393 0.207,-0.39 c -0.06,0.005 -0.12,0.062 -0.159,0.13 -0.045,0.078 -0.06,0.166 -0.016,0.225 0.039,0.053 0.09,0.054 0.126,0.042 0.074,-0.024 0.138,-0.127 0.158,-0.212 0.035,0.002 0.066,-0.007 0.093,-0.025 -0.03,0.053 -0.052,0.105 -0.063,0.136 -0.017,0.05 -0.01,0.082 0.008,0.102 0.009,0.01 0.016,0.004 0.019,-0.003 0.041,-0.094 0.088,-0.19 0.146,-0.253 0.064,-0.07 0.12,-0.096 0.132,-0.092 0.017,0.006 -0.07,0.112 -0.104,0.21 -0.029,0.085 -0.008,0.147 0.075,0.147 0.059,0 0.12,-0.05 0.147,-0.106 z M 0.258,-0.247 c -0.02,-0.016 -0.027,-0.045 -0.024,-0.067 0.004,-0.029 0.025,-0.035 0.03,-0.003 0.003,0.018 0,0.042 -0.006,0.07 z M 0.251,-0.22 c -0.008,0.025 -0.02,0.053 -0.037,0.085 -0.048,0.09 -0.11,0.125 -0.137,0.103 -0.027,-0.022 -0.013,-0.115 0.031,-0.19 0.022,-0.037 0.05,-0.072 0.078,-0.095 0.001,0.039 0.03,0.078 0.065,0.097 z"
   style="fill:#000000;fill-rule:nonzero;stroke:none;stroke-width:0;stroke-miterlimit:4;stroke-dasharray:none;fill-opacity:1"
   id="path3636" />
            </g>
            <g
   transform="matrix(22.7297,3.18642,-3.35234,21.6048,519.252,757.233)"
   id="g3642"
   style="stroke:none;stroke-width:0;stroke-miterlimit:4;stroke-dasharray:none;fill:#000000;fill-opacity:1">
                <path
   d="M 0.092,-0.171 C 0.162,-0.114 0.229,-0.14 0.278,-0.2 0.32,-0.251 0.328,-0.312 0.31,-0.336 0.294,-0.358 0.276,-0.373 0.251,-0.388 0.201,-0.417 0.099,-0.365 0.034,-0.236 -0.031,-0.107 0.013,0.018 0.14,0.016 0.217,0.015 0.294,-0.031 0.336,-0.092 0.354,-0.118 0.357,-0.146 0.353,-0.154 0.349,-0.163 0.341,-0.163 0.336,-0.155 0.293,-0.089 0.22,-0.009 0.137,-0.013 0.084,-0.016 0.06,-0.079 0.092,-0.171 Z m 0.009,-0.022 c 0.002,-0.005 0.005,-0.011 0.008,-0.017 0.047,-0.095 0.13,-0.155 0.151,-0.138 0.014,0.011 -0.008,0.063 -0.04,0.105 -0.029,0.038 -0.07,0.081 -0.119,0.05 z"
   style="fill:#000000;fill-rule:nonzero;stroke:none;stroke-width:0;stroke-miterlimit:4;stroke-dasharray:none;fill-opacity:1"
   id="path3640" />
            </g>
            <g
   transform="matrix(22.0326,-6.19244,6.51488,20.9422,531.443,756.835)"
   id="g3646"
   style="stroke:none;stroke-width:0;stroke-miterlimit:4;stroke-dasharray:none;fill:#000000;fill-opacity:1">
                <path
   d="m 0.342,-0.215 c 0.004,-0.005 0.004,-0.01 -0.003,-0.01 -0.008,0 -0.014,0.002 -0.02,0.002 C 0.32,-0.231 0.32,-0.238 0.321,-0.246 0.327,-0.318 0.297,-0.325 0.274,-0.356 0.254,-0.383 0.237,-0.392 0.206,-0.39 c -0.06,0.004 -0.121,0.062 -0.159,0.13 -0.045,0.08 -0.06,0.167 -0.016,0.225 0.04,0.052 0.09,0.056 0.126,0.044 0.074,-0.025 0.137,-0.126 0.158,-0.211 0.01,-0.001 0.02,-0.005 0.027,-0.013 z M 0.256,-0.242 C 0.24,-0.257 0.229,-0.286 0.234,-0.313 c 0.005,-0.029 0.025,-0.035 0.03,-0.003 0.003,0.018 0,0.043 -0.008,0.074 z m -0.007,0.027 c -0.008,0.024 -0.02,0.052 -0.035,0.08 -0.049,0.092 -0.11,0.127 -0.138,0.104 -0.026,-0.022 -0.011,-0.114 0.031,-0.19 0.021,-0.038 0.05,-0.071 0.077,-0.094 0.001,0.037 0.025,0.072 0.046,0.088 0.006,0.005 0.012,0.009 0.019,0.012 z"
   style="fill:#000000;fill-rule:nonzero;stroke:none;stroke-width:0;stroke-miterlimit:4;stroke-dasharray:none;fill-opacity:1"
   id="path3644" />
            </g>
            <g
   transform="matrix(21.862,-6.71654,7.06627,20.78,538.757,754.765)"
   id="g3650"
   style="stroke:none;stroke-width:0;stroke-miterlimit:4;stroke-dasharray:none;fill:#000000;fill-opacity:1">
                <path
   d="M 0.106,-0.184 C 0.16,-0.289 0.229,-0.402 0.27,-0.47 0.313,-0.543 0.316,-0.586 0.304,-0.62 0.3,-0.632 0.287,-0.633 0.279,-0.621 0.168,-0.455 -0.062,-0.072 -0.09,0.151 -0.101,0.236 -0.071,0.275 -0.046,0.296 -0.016,0.322 0.009,0.318 0.043,0.276 0.091,0.216 0.135,0.105 0.151,0.004 0.211,-0.017 0.261,-0.076 0.271,-0.1 0.28,-0.123 0.286,-0.145 0.281,-0.16 0.276,-0.174 0.266,-0.173 0.26,-0.161 0.234,-0.109 0.194,-0.059 0.156,-0.034 0.157,-0.046 0.158,-0.057 0.158,-0.068 0.159,-0.134 0.144,-0.172 0.106,-0.184 Z M 0.101,-0.018 C 0.082,-0.022 0.073,-0.043 0.074,-0.075 c 0.001,-0.023 0.01,-0.076 0.02,-0.08 0.007,-0.003 0.017,0.028 0.016,0.065 -0.001,0.023 -0.004,0.048 -0.009,0.072 z M 0.034,-0.029 c 0.012,0.024 0.032,0.037 0.061,0.04 -0.033,0.137 -0.108,0.275 -0.13,0.246 -0.023,-0.029 0.013,-0.153 0.069,-0.286 z"
   style="fill:#000000;fill-rule:nonzero;stroke:none;stroke-width:0;stroke-miterlimit:4;stroke-dasharray:none;fill-opacity:1"
   id="path3648" />
            </g>
            <g
   transform="matrix(21.5285,-7.62791,8.02509,20.463,548.919,751.535)"
   id="g3654"
   style="stroke:none;stroke-width:0;stroke-miterlimit:4;stroke-dasharray:none;fill:#000000;fill-opacity:1">
                <path
   d="M 0.125,-0.389 C 0.082,-0.31 0.04,-0.226 0.019,-0.176 -0.029,-0.061 0.024,0.013 0.09,0.015 0.17,0.018 0.236,-0.07 0.249,-0.099 0.259,-0.122 0.264,-0.14 0.259,-0.156 0.255,-0.17 0.244,-0.168 0.238,-0.156 0.201,-0.081 0.144,-0.01 0.099,-0.012 0.057,-0.014 0.046,-0.076 0.079,-0.149 0.117,-0.233 0.174,-0.33 0.213,-0.397 0.238,-0.401 0.269,-0.404 0.291,-0.401 0.306,-0.401 0.31,-0.408 0.303,-0.42 0.295,-0.433 0.28,-0.451 0.241,-0.45 0.265,-0.502 0.265,-0.535 0.254,-0.563 0.249,-0.575 0.239,-0.576 0.23,-0.563 0.213,-0.541 0.185,-0.494 0.154,-0.439 0.127,-0.436 0.099,-0.434 0.071,-0.435 0.056,-0.436 0.05,-0.429 0.06,-0.415 c 0.008,0.011 0.031,0.026 0.065,0.026 z"
   style="fill:#000000;fill-rule:nonzero;stroke:none;stroke-width:0;stroke-miterlimit:4;stroke-dasharray:none;fill-opacity:1"
   id="path3652" />
            </g>
            <g
   transform="matrix(21.3609,-8.04233,8.46109,20.3037,553.526,749.933)"
   id="g3658"
   style="stroke:none;stroke-width:0;stroke-miterlimit:4;stroke-dasharray:none;fill:#000000;fill-opacity:1">
                <path
   d="M 0.399,-0.091 C 0.414,-0.121 0.414,-0.142 0.409,-0.153 0.405,-0.161 0.395,-0.161 0.391,-0.152 0.36,-0.088 0.305,-0.016 0.264,-0.014 0.227,-0.012 0.222,-0.059 0.247,-0.117 0.27,-0.169 0.318,-0.242 0.34,-0.286 0.366,-0.337 0.335,-0.387 0.301,-0.391 c -0.027,-0.003 -0.079,0.03 -0.12,0.07 0.043,-0.067 0.096,-0.148 0.12,-0.188 0.038,-0.063 0.041,-0.113 0.028,-0.142 -0.005,-0.012 -0.015,-0.013 -0.024,-0.001 -0.081,0.101 -0.289,0.453 -0.324,0.553 -0.021,0.06 -0.012,0.088 0.004,0.106 0.006,0.007 0.013,0.005 0.017,-0.004 0.024,-0.061 0.061,-0.131 0.097,-0.19 0.058,-0.095 0.167,-0.163 0.181,-0.155 0.016,0.009 -0.071,0.113 -0.104,0.21 -0.03,0.087 -0.009,0.148 0.075,0.148 0.059,0 0.12,-0.05 0.148,-0.107 z"
   style="fill:#000000;fill-rule:nonzero;stroke:none;stroke-width:0;stroke-miterlimit:4;stroke-dasharray:none;fill-opacity:1"
   id="path3656" />
            </g>
            <g
   transform="matrix(21.1109,-8.61825,9.067,20.066,561.552,746.908)"
   id="g3662"
   style="stroke:none;stroke-width:0;stroke-miterlimit:4;stroke-dasharray:none;fill:#000000;fill-opacity:1">
                <path
   d="M 0.092,-0.171 C 0.162,-0.114 0.229,-0.14 0.278,-0.2 0.32,-0.251 0.328,-0.312 0.31,-0.336 0.294,-0.358 0.276,-0.373 0.251,-0.388 0.201,-0.417 0.099,-0.365 0.034,-0.236 -0.031,-0.107 0.013,0.018 0.14,0.016 0.217,0.015 0.294,-0.031 0.336,-0.092 0.354,-0.118 0.357,-0.146 0.353,-0.154 0.349,-0.163 0.341,-0.163 0.336,-0.155 0.293,-0.089 0.22,-0.009 0.137,-0.013 0.084,-0.016 0.06,-0.079 0.092,-0.171 Z m 0.009,-0.022 c 0.002,-0.005 0.005,-0.011 0.008,-0.017 0.047,-0.095 0.13,-0.155 0.151,-0.138 0.014,0.011 -0.008,0.063 -0.04,0.105 -0.029,0.038 -0.07,0.081 -0.119,0.05 z"
   style="fill:#000000;fill-rule:nonzero;stroke:none;stroke-width:0;stroke-miterlimit:4;stroke-dasharray:none;fill-opacity:1"
   id="path3660" />
            </g>
            <g
   transform="matrix(20.7325,-9.41154,9.90159,19.7064,572.93,742.171)"
   id="g3666"
   style="stroke:none;stroke-width:0;stroke-miterlimit:4;stroke-dasharray:none;fill:#000000;fill-opacity:1">
                <path
   d="M 0.098,-0.2 C 0.187,-0.258 0.299,-0.378 0.33,-0.501 0.342,-0.548 0.336,-0.585 0.307,-0.611 0.293,-0.624 0.279,-0.622 0.264,-0.606 0.162,-0.5 0.048,-0.319 0.011,-0.145 -0.012,-0.037 0.025,0.011 0.094,0.013 0.174,0.015 0.247,-0.068 0.261,-0.098 0.272,-0.122 0.276,-0.144 0.271,-0.16 0.267,-0.174 0.256,-0.173 0.249,-0.16 0.21,-0.083 0.14,-0.011 0.092,-0.015 0.047,-0.019 0.058,-0.102 0.098,-0.2 Z m 0.018,-0.043 c 0.007,-0.016 0.015,-0.032 0.024,-0.048 0.069,-0.128 0.143,-0.239 0.156,-0.231 0.013,0.008 -0.043,0.168 -0.18,0.279 z"
   style="fill:#000000;fill-rule:nonzero;stroke:none;stroke-width:0;stroke-miterlimit:4;stroke-dasharray:none;fill-opacity:1"
   id="path3664" />
            </g>
            <g
   transform="matrix(20.6041,-9.66305,10.1662,19.5843,577.711,740.009)"
   id="g3670"
   style="stroke:none;stroke-width:0;stroke-miterlimit:4;stroke-dasharray:none;fill:#000000;fill-opacity:1">
                <path
   d="M 0.232,-0.459 C 0.219,-0.486 0.19,-0.498 0.174,-0.481 c -0.016,0.017 -0.021,0.047 -0.005,0.074 0.015,0.026 0.043,0.029 0.056,0.015 0.013,-0.014 0.02,-0.041 0.007,-0.067 z M 0.069,0.015 c 0.056,0 0.119,-0.042 0.149,-0.104 0.012,-0.025 0.015,-0.046 0.007,-0.062 -0.004,-0.008 -0.011,-0.009 -0.016,0 -0.03,0.069 -0.085,0.135 -0.13,0.137 -0.032,0.002 -0.034,-0.037 -0.01,-0.095 0.021,-0.05 0.063,-0.118 0.084,-0.162 0.024,-0.05 0.016,-0.093 0.001,-0.109 -0.008,-0.009 -0.015,-0.006 -0.024,0.006 -0.037,0.052 -0.103,0.17 -0.128,0.243 -0.028,0.082 -0.009,0.146 0.067,0.146 z"
   style="fill:#000000;fill-rule:nonzero;stroke:none;stroke-width:0;stroke-miterlimit:4;stroke-dasharray:none;fill-opacity:1"
   id="path3668" />
            </g>
            <g
   transform="matrix(20.4031,-10.0409,10.5637,19.3933,581.853,738.089)"
   id="g3674"
   style="stroke:none;stroke-width:0;stroke-miterlimit:4;stroke-dasharray:none;fill:#000000;fill-opacity:1">
                <path
   d="M 0.415,-0.09 C 0.432,-0.117 0.437,-0.139 0.435,-0.148 0.433,-0.158 0.424,-0.158 0.418,-0.15 0.378,-0.097 0.323,-0.042 0.239,0 0.281,-0.097 0.344,-0.218 0.374,-0.278 0.399,-0.327 0.391,-0.37 0.376,-0.388 0.369,-0.397 0.359,-0.396 0.351,-0.382 0.341,-0.365 0.33,-0.347 0.318,-0.327 0.319,-0.362 0.299,-0.393 0.259,-0.393 c -0.051,0 -0.132,0.045 -0.21,0.161 -0.081,0.12 -0.063,0.245 0.029,0.245 0.037,0 0.072,-0.021 0.101,-0.05 C 0.169,-0.014 0.16,0.01 0.15,0.032 0.051,0.07 -0.035,0.131 -0.064,0.221 -0.083,0.28 -0.065,0.315 -0.044,0.345 -0.026,0.371 -0.006,0.374 0.014,0.366 0.095,0.334 0.166,0.175 0.221,0.041 0.304,0.011 0.376,-0.029 0.415,-0.09 Z M 0.231,-0.168 C 0.18,-0.08 0.129,-0.017 0.09,-0.018 0.05,-0.019 0.061,-0.107 0.115,-0.193 0.17,-0.28 0.243,-0.344 0.274,-0.342 0.303,-0.34 0.294,-0.278 0.231,-0.168 Z M 0.133,0.073 C 0.068,0.225 -0.011,0.329 -0.024,0.31 -0.041,0.286 0.003,0.149 0.133,0.073 Z"
   style="fill:#000000;fill-rule:nonzero;stroke:none;stroke-width:0;stroke-miterlimit:4;stroke-dasharray:none;fill-opacity:1"
   id="path3672" />
            </g>
            <g
   transform="matrix(20.0856,-10.6035,11.1557,19.0915,590.046,734.046)"
   id="g3678"
   style="stroke:none;stroke-width:0;stroke-miterlimit:4;stroke-dasharray:none;fill:#000000;fill-opacity:1">
                <path
   d="M 0.399,-0.091 C 0.414,-0.121 0.414,-0.142 0.409,-0.153 0.405,-0.161 0.395,-0.161 0.391,-0.152 0.36,-0.088 0.305,-0.016 0.264,-0.014 0.227,-0.012 0.222,-0.059 0.247,-0.117 0.27,-0.169 0.318,-0.242 0.34,-0.286 0.366,-0.337 0.335,-0.387 0.301,-0.391 c -0.027,-0.003 -0.079,0.03 -0.12,0.07 0.043,-0.067 0.096,-0.148 0.12,-0.188 0.038,-0.063 0.041,-0.113 0.028,-0.142 -0.005,-0.012 -0.015,-0.013 -0.024,-0.001 -0.081,0.101 -0.289,0.453 -0.324,0.553 -0.021,0.06 -0.012,0.088 0.004,0.106 0.006,0.007 0.013,0.005 0.017,-0.004 0.024,-0.061 0.061,-0.131 0.097,-0.19 0.058,-0.095 0.167,-0.163 0.181,-0.155 0.016,0.009 -0.071,0.113 -0.104,0.21 -0.03,0.087 -0.009,0.148 0.075,0.148 0.059,0 0.12,-0.05 0.148,-0.107 z"
   style="fill:#000000;fill-rule:nonzero;stroke:none;stroke-width:0;stroke-miterlimit:4;stroke-dasharray:none;fill-opacity:1"
   id="path3676" />
            </g>
            <g
   transform="matrix(19.8132,-11.0568,11.6325,18.8326,597.616,730.04)"
   id="g3682"
   style="stroke:none;stroke-width:0;stroke-miterlimit:4;stroke-dasharray:none;fill:#000000;fill-opacity:1">
                <path
   d="M 0.125,-0.389 C 0.082,-0.31 0.04,-0.226 0.019,-0.176 -0.029,-0.061 0.024,0.013 0.09,0.015 0.17,0.018 0.236,-0.07 0.249,-0.099 0.259,-0.122 0.264,-0.14 0.259,-0.156 0.255,-0.17 0.244,-0.168 0.238,-0.156 0.201,-0.081 0.144,-0.01 0.099,-0.012 0.057,-0.014 0.046,-0.076 0.079,-0.149 0.117,-0.233 0.174,-0.33 0.213,-0.397 0.238,-0.401 0.269,-0.404 0.291,-0.401 0.306,-0.401 0.31,-0.408 0.303,-0.42 0.295,-0.433 0.28,-0.451 0.241,-0.45 0.265,-0.502 0.265,-0.535 0.254,-0.563 0.249,-0.575 0.239,-0.576 0.23,-0.563 0.213,-0.541 0.185,-0.494 0.154,-0.439 0.127,-0.436 0.099,-0.434 0.071,-0.435 0.056,-0.436 0.05,-0.429 0.06,-0.415 c 0.008,0.011 0.031,0.026 0.065,0.026 z"
   style="fill:#000000;fill-rule:nonzero;stroke:none;stroke-width:0;stroke-miterlimit:4;stroke-dasharray:none;fill-opacity:1"
   id="path3680" />
            </g>
            <g
   transform="matrix(19.627,-11.353,11.9441,18.6556,601.874,727.684)"
   id="g3686"
   style="stroke:none;stroke-width:0;stroke-miterlimit:4;stroke-dasharray:none;fill:#000000;fill-opacity:1">
                <path
   d="M 0.039,-0.164 C 0.038,-0.172 0.038,-0.18 0.037,-0.188 0.036,-0.204 0.028,-0.208 0.016,-0.198 -0.018,-0.17 -0.021,-0.104 0.003,-0.059 0.037,0.003 0.093,0.018 0.151,0.016 0.222,0.013 0.29,-0.025 0.328,-0.094 0.345,-0.125 0.346,-0.151 0.342,-0.16 0.338,-0.168 0.328,-0.171 0.323,-0.16 0.298,-0.106 0.256,-0.046 0.189,-0.021 0.225,-0.045 0.232,-0.087 0.234,-0.126 0.237,-0.195 0.218,-0.273 0.225,-0.365 0.229,-0.372 0.232,-0.378 0.236,-0.384 0.249,-0.407 0.254,-0.418 0.244,-0.428 0.235,-0.437 0.212,-0.433 0.19,-0.413 0.169,-0.394 0.159,-0.375 0.154,-0.336 0.125,-0.285 0.08,-0.22 0.039,-0.164 Z m 0.113,-0.108 c 0.004,0.08 0.019,0.237 -0.027,0.251 -0.033,0.01 -0.062,-0.031 -0.077,-0.089 0.038,-0.054 0.075,-0.109 0.104,-0.162 z"
   style="fill:#000000;fill-rule:nonzero;stroke:none;stroke-width:0;stroke-miterlimit:4;stroke-dasharray:none;fill-opacity:1"
   id="path3684" />
            </g>
            <g
   transform="matrix(19.4263,-11.6607,12.2678,18.4648,607.78,724.261)"
   id="g3690"
   style="stroke:none;stroke-width:0;stroke-miterlimit:4;stroke-dasharray:none;fill:#000000;fill-opacity:1">
                <path
   d="M 0.086,0.016 C 0.077,0.024 0.067,0.029 0.059,0.032 0.054,0.034 0.052,0.041 0.059,0.044 0.094,0.058 0.136,0.029 0.149,-0.01 0.161,-0.046 0.146,-0.077 0.122,-0.078 0.101,-0.079 0.077,-0.061 0.07,-0.031 0.065,-0.009 0.073,0.009 0.086,0.016 Z"
   style="fill:#000000;fill-rule:nonzero;stroke:none;stroke-width:0;stroke-miterlimit:4;stroke-dasharray:none;fill-opacity:1"
   id="path3688" />
            </g>
            <g
   transform="matrix(18.9854,-12.2993,12.9397,18.0457,616.658,718.84)"
   id="g3694"
   style="stroke:none;stroke-width:0;stroke-miterlimit:4;stroke-dasharray:none;fill:#000000;fill-opacity:1">
                <path
   d="M 0.125,-0.389 C 0.082,-0.31 0.04,-0.226 0.019,-0.176 -0.029,-0.061 0.024,0.013 0.09,0.015 0.17,0.018 0.236,-0.07 0.249,-0.099 0.259,-0.122 0.264,-0.14 0.259,-0.156 0.255,-0.17 0.244,-0.168 0.238,-0.156 0.201,-0.081 0.144,-0.01 0.099,-0.012 0.057,-0.014 0.046,-0.076 0.079,-0.149 0.117,-0.233 0.174,-0.33 0.213,-0.397 0.238,-0.401 0.269,-0.404 0.291,-0.401 0.306,-0.401 0.31,-0.408 0.303,-0.42 0.295,-0.433 0.28,-0.451 0.241,-0.45 0.265,-0.502 0.265,-0.535 0.254,-0.563 0.249,-0.575 0.239,-0.576 0.23,-0.563 0.213,-0.541 0.185,-0.494 0.154,-0.439 0.127,-0.436 0.099,-0.434 0.071,-0.435 0.056,-0.436 0.05,-0.429 0.06,-0.415 c 0.008,0.011 0.031,0.026 0.065,0.026 z"
   style="fill:#000000;fill-rule:nonzero;stroke:none;stroke-width:0;stroke-miterlimit:4;stroke-dasharray:none;fill-opacity:1"
   id="path3692" />
            </g>
            <g
   transform="matrix(18.7619,-12.6053,13.2617,17.8333,620.715,716.242)"
   id="g3698"
   style="stroke:none;stroke-width:0;stroke-miterlimit:4;stroke-dasharray:none;fill:#000000;fill-opacity:1">
                <path
   d="M 0.399,-0.091 C 0.414,-0.121 0.414,-0.142 0.409,-0.153 0.405,-0.161 0.395,-0.161 0.391,-0.152 0.36,-0.088 0.305,-0.016 0.264,-0.014 0.227,-0.012 0.222,-0.059 0.247,-0.117 0.27,-0.169 0.318,-0.242 0.34,-0.286 0.366,-0.337 0.335,-0.387 0.301,-0.391 c -0.027,-0.003 -0.079,0.03 -0.12,0.07 0.043,-0.067 0.096,-0.148 0.12,-0.188 0.038,-0.063 0.041,-0.113 0.028,-0.142 -0.005,-0.012 -0.015,-0.013 -0.024,-0.001 -0.081,0.101 -0.289,0.453 -0.324,0.553 -0.021,0.06 -0.012,0.088 0.004,0.106 0.006,0.007 0.013,0.005 0.017,-0.004 0.024,-0.061 0.061,-0.131 0.097,-0.19 0.058,-0.095 0.167,-0.163 0.181,-0.155 0.016,0.009 -0.071,0.113 -0.104,0.21 -0.03,0.087 -0.009,0.148 0.075,0.148 0.059,0 0.12,-0.05 0.148,-0.107 z"
   style="fill:#000000;fill-rule:nonzero;stroke:none;stroke-width:0;stroke-miterlimit:4;stroke-dasharray:none;fill-opacity:1"
   id="path3696" />
            </g>
            <g
   transform="matrix(18.4261,-13.0451,13.7243,17.5142,627.789,711.486)"
   id="g3702"
   style="stroke:none;stroke-width:0;stroke-miterlimit:4;stroke-dasharray:none;fill:#000000;fill-opacity:1">
                <path
   d="M 0.092,-0.171 C 0.162,-0.114 0.229,-0.14 0.278,-0.2 0.32,-0.251 0.328,-0.312 0.31,-0.336 0.294,-0.358 0.276,-0.373 0.251,-0.388 0.201,-0.417 0.099,-0.365 0.034,-0.236 -0.031,-0.107 0.013,0.018 0.14,0.016 0.217,0.015 0.294,-0.031 0.336,-0.092 0.354,-0.118 0.357,-0.146 0.353,-0.154 0.349,-0.163 0.341,-0.163 0.336,-0.155 0.293,-0.089 0.22,-0.009 0.137,-0.013 0.084,-0.016 0.06,-0.079 0.092,-0.171 Z m 0.009,-0.022 c 0.002,-0.005 0.005,-0.011 0.008,-0.017 0.047,-0.095 0.13,-0.155 0.151,-0.138 0.014,0.011 -0.008,0.063 -0.04,0.105 -0.029,0.038 -0.07,0.081 -0.119,0.05 z"
   style="fill:#000000;fill-rule:nonzero;stroke:none;stroke-width:0;stroke-miterlimit:4;stroke-dasharray:none;fill-opacity:1"
   id="path3700" />
            </g>
            <g
   transform="matrix(17.9209,-13.6662,14.3777,17.034,637.721,704.361)"
   id="g3706"
   style="stroke:none;stroke-width:0;stroke-miterlimit:4;stroke-dasharray:none;fill:#000000;fill-opacity:1">
                <path
   d="M 0.098,-0.2 C 0.187,-0.258 0.299,-0.378 0.33,-0.501 0.342,-0.548 0.336,-0.585 0.307,-0.611 0.293,-0.624 0.279,-0.622 0.264,-0.606 0.162,-0.5 0.048,-0.319 0.011,-0.145 -0.012,-0.037 0.025,0.011 0.094,0.013 0.174,0.015 0.247,-0.068 0.261,-0.098 0.272,-0.122 0.276,-0.144 0.271,-0.16 0.267,-0.174 0.256,-0.173 0.249,-0.16 0.21,-0.083 0.14,-0.011 0.092,-0.015 0.047,-0.019 0.058,-0.102 0.098,-0.2 Z m 0.018,-0.043 c 0.007,-0.016 0.015,-0.032 0.024,-0.048 0.069,-0.128 0.143,-0.239 0.156,-0.231 0.013,0.008 -0.043,0.168 -0.18,0.279 z"
   style="fill:#000000;fill-rule:nonzero;stroke:none;stroke-width:0;stroke-miterlimit:4;stroke-dasharray:none;fill-opacity:1"
   id="path3704" />
            </g>
            <g
   transform="matrix(17.7523,-13.8635,14.5854,16.8737,641.826,701.239)"
   id="g3710"
   style="stroke:none;stroke-width:0;stroke-miterlimit:4;stroke-dasharray:none;fill:#000000;fill-opacity:1">
                <path
   d="M 0.232,-0.459 C 0.219,-0.486 0.19,-0.498 0.174,-0.481 c -0.016,0.017 -0.021,0.047 -0.005,0.074 0.015,0.026 0.043,0.029 0.056,0.015 0.013,-0.014 0.02,-0.041 0.007,-0.067 z M 0.069,0.015 c 0.056,0 0.119,-0.042 0.149,-0.104 0.012,-0.025 0.015,-0.046 0.007,-0.062 -0.004,-0.008 -0.011,-0.009 -0.016,0 -0.03,0.069 -0.085,0.135 -0.13,0.137 -0.032,0.002 -0.034,-0.037 -0.01,-0.095 0.021,-0.05 0.063,-0.118 0.084,-0.162 0.024,-0.05 0.016,-0.093 0.001,-0.109 -0.008,-0.009 -0.015,-0.006 -0.024,0.006 -0.037,0.052 -0.103,0.17 -0.128,0.243 -0.028,0.082 -0.009,0.146 0.067,0.146 z"
   style="fill:#000000;fill-rule:nonzero;stroke:none;stroke-width:0;stroke-miterlimit:4;stroke-dasharray:none;fill-opacity:1"
   id="path3708" />
            </g>
            <g
   transform="matrix(17.4877,-14.1642,14.9017,16.6222,645.395,698.476)"
   id="g3714"
   style="stroke:none;stroke-width:0;stroke-miterlimit:4;stroke-dasharray:none;fill:#000000;fill-opacity:1">
                <path
   d="M 0.415,-0.09 C 0.432,-0.117 0.437,-0.139 0.435,-0.148 0.433,-0.158 0.424,-0.158 0.418,-0.15 0.378,-0.097 0.323,-0.042 0.239,0 0.281,-0.097 0.344,-0.218 0.374,-0.278 0.399,-0.327 0.391,-0.37 0.376,-0.388 0.369,-0.397 0.359,-0.396 0.351,-0.382 0.341,-0.365 0.33,-0.347 0.318,-0.327 0.319,-0.362 0.299,-0.393 0.259,-0.393 c -0.051,0 -0.132,0.045 -0.21,0.161 -0.081,0.12 -0.063,0.245 0.029,0.245 0.037,0 0.072,-0.021 0.101,-0.05 C 0.169,-0.014 0.16,0.01 0.15,0.032 0.051,0.07 -0.035,0.131 -0.064,0.221 -0.083,0.28 -0.065,0.315 -0.044,0.345 -0.026,0.371 -0.006,0.374 0.014,0.366 0.095,0.334 0.166,0.175 0.221,0.041 0.304,0.011 0.376,-0.029 0.415,-0.09 Z M 0.231,-0.168 C 0.18,-0.08 0.129,-0.017 0.09,-0.018 0.05,-0.019 0.061,-0.107 0.115,-0.193 0.17,-0.28 0.243,-0.344 0.274,-0.342 0.303,-0.34 0.294,-0.278 0.231,-0.168 Z M 0.133,0.073 C 0.068,0.225 -0.011,0.329 -0.024,0.31 -0.041,0.286 0.003,0.149 0.133,0.073 Z"
   style="fill:#000000;fill-rule:nonzero;stroke:none;stroke-width:0;stroke-miterlimit:4;stroke-dasharray:none;fill-opacity:1"
   id="path3712" />
            </g>
            <g
   transform="matrix(17.0726,-14.6146,15.3755,16.2276,652.42,692.774)"
   id="g3718"
   style="stroke:none;stroke-width:0;stroke-miterlimit:4;stroke-dasharray:none;fill:#000000;fill-opacity:1">
                <path
   d="M 0.399,-0.091 C 0.414,-0.121 0.414,-0.142 0.409,-0.153 0.405,-0.161 0.395,-0.161 0.391,-0.152 0.36,-0.088 0.305,-0.016 0.264,-0.014 0.227,-0.012 0.222,-0.059 0.247,-0.117 0.27,-0.169 0.318,-0.242 0.34,-0.286 0.366,-0.337 0.335,-0.387 0.301,-0.391 c -0.027,-0.003 -0.079,0.03 -0.12,0.07 0.043,-0.067 0.096,-0.148 0.12,-0.188 0.038,-0.063 0.041,-0.113 0.028,-0.142 -0.005,-0.012 -0.015,-0.013 -0.024,-0.001 -0.081,0.101 -0.289,0.453 -0.324,0.553 -0.021,0.06 -0.012,0.088 0.004,0.106 0.006,0.007 0.013,0.005 0.017,-0.004 0.024,-0.061 0.061,-0.131 0.097,-0.19 0.058,-0.095 0.167,-0.163 0.181,-0.155 0.016,0.009 -0.071,0.113 -0.104,0.21 -0.03,0.087 -0.009,0.148 0.075,0.148 0.059,0 0.12,-0.05 0.148,-0.107 z"
   style="fill:#000000;fill-rule:nonzero;stroke:none;stroke-width:0;stroke-miterlimit:4;stroke-dasharray:none;fill-opacity:1"
   id="path3716" />
            </g>
            <g
   transform="matrix(16.7199,-14.9783,15.7583,15.8924,658.867,687.244)"
   id="g3722"
   style="stroke:none;stroke-width:0;stroke-miterlimit:4;stroke-dasharray:none;fill:#000000;fill-opacity:1">
                <path
   d="M 0.125,-0.389 C 0.082,-0.31 0.04,-0.226 0.019,-0.176 -0.029,-0.061 0.024,0.013 0.09,0.015 0.17,0.018 0.236,-0.07 0.249,-0.099 0.259,-0.122 0.264,-0.14 0.259,-0.156 0.255,-0.17 0.244,-0.168 0.238,-0.156 0.201,-0.081 0.144,-0.01 0.099,-0.012 0.057,-0.014 0.046,-0.076 0.079,-0.149 0.117,-0.233 0.174,-0.33 0.213,-0.397 0.238,-0.401 0.269,-0.404 0.291,-0.401 0.306,-0.401 0.31,-0.408 0.303,-0.42 0.295,-0.433 0.28,-0.451 0.241,-0.45 0.265,-0.502 0.265,-0.535 0.254,-0.563 0.249,-0.575 0.239,-0.576 0.23,-0.563 0.213,-0.541 0.185,-0.494 0.154,-0.439 0.127,-0.436 0.099,-0.434 0.071,-0.435 0.056,-0.436 0.05,-0.429 0.06,-0.415 c 0.008,0.011 0.031,0.026 0.065,0.026 z"
   style="fill:#000000;fill-rule:nonzero;stroke:none;stroke-width:0;stroke-miterlimit:4;stroke-dasharray:none;fill-opacity:1"
   id="path3720" />
            </g>
            <g
   transform="matrix(16.2402,-15.4479,16.2523,15.4364,666.074,680.74)"
   id="g3726"
   style="stroke:none;stroke-width:0;stroke-miterlimit:4;stroke-dasharray:none;fill:#000000;fill-opacity:1">
                <path
   d="m 0.342,-0.215 c 0.004,-0.005 0.004,-0.01 -0.003,-0.01 -0.008,0 -0.014,0.002 -0.02,0.002 C 0.32,-0.231 0.32,-0.238 0.321,-0.246 0.327,-0.318 0.297,-0.325 0.274,-0.356 0.254,-0.383 0.237,-0.392 0.206,-0.39 c -0.06,0.004 -0.121,0.062 -0.159,0.13 -0.045,0.08 -0.06,0.167 -0.016,0.225 0.04,0.052 0.09,0.056 0.126,0.044 0.074,-0.025 0.137,-0.126 0.158,-0.211 0.01,-0.001 0.02,-0.005 0.027,-0.013 z M 0.256,-0.242 C 0.24,-0.257 0.229,-0.286 0.234,-0.313 c 0.005,-0.029 0.025,-0.035 0.03,-0.003 0.003,0.018 0,0.043 -0.008,0.074 z m -0.007,0.027 c -0.008,0.024 -0.02,0.052 -0.035,0.08 -0.049,0.092 -0.11,0.127 -0.138,0.104 -0.026,-0.022 -0.011,-0.114 0.031,-0.19 0.021,-0.038 0.05,-0.071 0.077,-0.094 0.001,0.037 0.025,0.072 0.046,0.088 0.006,0.005 0.012,0.009 0.019,0.012 z"
   style="fill:#000000;fill-rule:nonzero;stroke:none;stroke-width:0;stroke-miterlimit:4;stroke-dasharray:none;fill-opacity:1"
   id="path3724" />
            </g>
            <g
   transform="matrix(15.9529,-15.716,16.5344,15.1633,671.469,675.595)"
   id="g3730"
   style="stroke:none;stroke-width:0;stroke-miterlimit:4;stroke-dasharray:none;fill:#000000;fill-opacity:1">
                <path
   d="M 0.106,-0.184 C 0.16,-0.289 0.229,-0.402 0.27,-0.47 0.313,-0.543 0.316,-0.586 0.304,-0.62 0.3,-0.632 0.287,-0.633 0.279,-0.621 0.168,-0.455 -0.062,-0.072 -0.09,0.151 -0.101,0.236 -0.071,0.275 -0.046,0.296 -0.016,0.322 0.009,0.318 0.043,0.276 0.091,0.216 0.135,0.105 0.151,0.004 0.211,-0.017 0.261,-0.076 0.271,-0.1 0.28,-0.123 0.286,-0.145 0.281,-0.16 0.276,-0.174 0.266,-0.173 0.26,-0.161 0.234,-0.109 0.194,-0.059 0.156,-0.034 0.157,-0.046 0.158,-0.057 0.158,-0.068 0.159,-0.134 0.144,-0.172 0.106,-0.184 Z M 0.101,-0.018 C 0.082,-0.022 0.073,-0.043 0.074,-0.075 c 0.001,-0.023 0.01,-0.076 0.02,-0.08 0.007,-0.003 0.017,0.028 0.016,0.065 -0.001,0.023 -0.004,0.048 -0.009,0.072 z M 0.034,-0.029 c 0.012,0.024 0.032,0.037 0.061,0.04 -0.033,0.137 -0.108,0.275 -0.13,0.246 -0.023,-0.029 0.013,-0.153 0.069,-0.286 z"
   style="fill:#000000;fill-rule:nonzero;stroke:none;stroke-width:0;stroke-miterlimit:4;stroke-dasharray:none;fill-opacity:1"
   id="path3728" />
            </g>
            <g
   transform="matrix(15.3178,-16.2769,17.1244,14.5597,678.851,668.243)"
   id="g3734"
   style="stroke:none;stroke-width:0;stroke-miterlimit:4;stroke-dasharray:none;fill:#000000;fill-opacity:1">
                <path
   d="m 0.324,-0.325 c 0.002,-0.039 -0.018,-0.072 -0.061,-0.072 -0.05,0 -0.129,0.045 -0.21,0.163 -0.083,0.121 -0.064,0.248 0.029,0.248 0.048,0 0.093,-0.037 0.125,-0.078 0,0.047 0.028,0.079 0.082,0.082 C 0.344,0.021 0.407,-0.034 0.433,-0.089 0.446,-0.117 0.446,-0.142 0.442,-0.151 0.438,-0.16 0.431,-0.159 0.426,-0.15 0.391,-0.081 0.336,-0.013 0.295,-0.011 0.261,-0.009 0.262,-0.052 0.287,-0.108 0.311,-0.161 0.361,-0.236 0.383,-0.281 0.407,-0.331 0.399,-0.374 0.384,-0.392 0.377,-0.401 0.369,-0.399 0.36,-0.386 0.349,-0.37 0.337,-0.349 0.324,-0.325 Z M 0.237,-0.17 C 0.186,-0.082 0.134,-0.018 0.093,-0.019 0.054,-0.02 0.067,-0.108 0.12,-0.194 0.175,-0.283 0.248,-0.348 0.28,-0.345 0.309,-0.342 0.3,-0.28 0.237,-0.17 Z"
   style="fill:#000000;fill-rule:nonzero;stroke:none;stroke-width:0;stroke-miterlimit:4;stroke-dasharray:none;fill-opacity:1"
   id="path3732" />
            </g>
            <g
   transform="matrix(14.9209,-16.6066,17.4713,14.1824,685.09,661.607)"
   id="g3738"
   style="stroke:none;stroke-width:0;stroke-miterlimit:4;stroke-dasharray:none;fill:#000000;fill-opacity:1">
                <path
   d="M 0.098,-0.2 C 0.187,-0.258 0.299,-0.378 0.33,-0.501 0.342,-0.548 0.336,-0.585 0.307,-0.611 0.293,-0.624 0.279,-0.622 0.264,-0.606 0.162,-0.5 0.048,-0.319 0.011,-0.145 -0.012,-0.037 0.025,0.011 0.094,0.013 0.174,0.015 0.247,-0.068 0.261,-0.098 0.272,-0.122 0.276,-0.144 0.271,-0.16 0.267,-0.174 0.256,-0.173 0.249,-0.16 0.21,-0.083 0.14,-0.011 0.092,-0.015 0.047,-0.019 0.058,-0.102 0.098,-0.2 Z m 0.018,-0.043 c 0.007,-0.016 0.015,-0.032 0.024,-0.048 0.069,-0.128 0.143,-0.239 0.156,-0.231 0.013,0.008 -0.043,0.168 -0.18,0.279 z"
   style="fill:#000000;fill-rule:nonzero;stroke:none;stroke-width:0;stroke-miterlimit:4;stroke-dasharray:none;fill-opacity:1"
   id="path3736" />
            </g>
            <g
   transform="matrix(14.6623,-16.8134,17.6888,13.9367,688.522,657.814)"
   id="g3742"
   style="stroke:none;stroke-width:0;stroke-miterlimit:4;stroke-dasharray:none;fill:#000000;fill-opacity:1">
                <path
   d="M 0.098,-0.2 C 0.187,-0.258 0.299,-0.378 0.33,-0.501 0.342,-0.548 0.336,-0.585 0.307,-0.611 0.293,-0.624 0.279,-0.622 0.264,-0.606 0.162,-0.5 0.048,-0.319 0.011,-0.145 -0.012,-0.037 0.025,0.011 0.094,0.013 0.174,0.015 0.247,-0.068 0.261,-0.098 0.272,-0.122 0.276,-0.144 0.271,-0.16 0.267,-0.174 0.256,-0.173 0.249,-0.16 0.21,-0.083 0.14,-0.011 0.092,-0.015 0.047,-0.019 0.058,-0.102 0.098,-0.2 Z m 0.018,-0.043 c 0.007,-0.016 0.015,-0.032 0.024,-0.048 0.069,-0.128 0.143,-0.239 0.156,-0.231 0.013,0.008 -0.043,0.168 -0.18,0.279 z"
   style="fill:#000000;fill-rule:nonzero;stroke:none;stroke-width:0;stroke-miterlimit:4;stroke-dasharray:none;fill-opacity:1"
   id="path3740" />
            </g>
            <g
   transform="matrix(14.149,-17.2061,18.1021,13.4487,695.097,650.221)"
   id="g3746"
   style="stroke:none;stroke-width:0;stroke-miterlimit:4;stroke-dasharray:none;fill:#000000;fill-opacity:1">
                <path
   d="M 0.098,-0.2 C 0.187,-0.258 0.299,-0.378 0.33,-0.501 0.342,-0.548 0.336,-0.585 0.307,-0.611 0.293,-0.624 0.279,-0.622 0.264,-0.606 0.162,-0.5 0.048,-0.319 0.011,-0.145 -0.012,-0.037 0.025,0.011 0.094,0.013 0.174,0.015 0.247,-0.068 0.261,-0.098 0.272,-0.122 0.276,-0.144 0.271,-0.16 0.267,-0.174 0.256,-0.173 0.249,-0.16 0.21,-0.083 0.14,-0.011 0.092,-0.015 0.047,-0.019 0.058,-0.102 0.098,-0.2 Z m 0.018,-0.043 c 0.007,-0.016 0.015,-0.032 0.024,-0.048 0.069,-0.128 0.143,-0.239 0.156,-0.231 0.013,0.008 -0.043,0.168 -0.18,0.279 z"
   style="fill:#000000;fill-rule:nonzero;stroke:none;stroke-width:0;stroke-miterlimit:4;stroke-dasharray:none;fill-opacity:1"
   id="path3744" />
            </g>
            <g
   transform="matrix(13.9482,-17.3537,18.2572,13.2579,698.363,646.259)"
   id="g3750"
   style="stroke:none;stroke-width:0;stroke-miterlimit:4;stroke-dasharray:none;fill:#000000;fill-opacity:1">
                <path
   d="M 0.232,-0.459 C 0.219,-0.486 0.19,-0.498 0.174,-0.481 c -0.016,0.017 -0.021,0.047 -0.005,0.074 0.015,0.026 0.043,0.029 0.056,0.015 0.013,-0.014 0.02,-0.041 0.007,-0.067 z M 0.069,0.015 c 0.056,0 0.119,-0.042 0.149,-0.104 0.012,-0.025 0.015,-0.046 0.007,-0.062 -0.004,-0.008 -0.011,-0.009 -0.016,0 -0.03,0.069 -0.085,0.135 -0.13,0.137 -0.032,0.002 -0.034,-0.037 -0.01,-0.095 0.021,-0.05 0.063,-0.118 0.084,-0.162 0.024,-0.05 0.016,-0.093 0.001,-0.109 -0.008,-0.009 -0.015,-0.006 -0.024,0.006 -0.037,0.052 -0.103,0.17 -0.128,0.243 -0.028,0.082 -0.009,0.146 0.067,0.146 z"
   style="fill:#000000;fill-rule:nonzero;stroke:none;stroke-width:0;stroke-miterlimit:4;stroke-dasharray:none;fill-opacity:1"
   id="path3748" />
            </g>
            <g
   transform="matrix(13.64,-17.5736,18.4886,12.9649,701.163,642.804)"
   id="g3754"
   style="stroke:none;stroke-width:0;stroke-miterlimit:4;stroke-dasharray:none;fill:#000000;fill-opacity:1">
                <path
   d="M 0.415,-0.09 C 0.432,-0.117 0.437,-0.139 0.435,-0.148 0.433,-0.158 0.424,-0.158 0.418,-0.15 0.378,-0.097 0.323,-0.042 0.239,0 0.281,-0.097 0.344,-0.218 0.374,-0.278 0.399,-0.327 0.391,-0.37 0.376,-0.388 0.369,-0.397 0.359,-0.396 0.351,-0.382 0.341,-0.365 0.33,-0.347 0.318,-0.327 0.319,-0.362 0.299,-0.393 0.259,-0.393 c -0.051,0 -0.132,0.045 -0.21,0.161 -0.081,0.12 -0.063,0.245 0.029,0.245 0.037,0 0.072,-0.021 0.101,-0.05 C 0.169,-0.014 0.16,0.01 0.15,0.032 0.051,0.07 -0.035,0.131 -0.064,0.221 -0.083,0.28 -0.065,0.315 -0.044,0.345 -0.026,0.371 -0.006,0.374 0.014,0.366 0.095,0.334 0.166,0.175 0.221,0.041 0.304,0.011 0.376,-0.029 0.415,-0.09 Z M 0.231,-0.168 C 0.18,-0.08 0.129,-0.017 0.09,-0.018 0.05,-0.019 0.061,-0.107 0.115,-0.193 0.17,-0.28 0.243,-0.344 0.274,-0.342 0.303,-0.34 0.294,-0.278 0.231,-0.168 Z M 0.133,0.073 C 0.068,0.225 -0.011,0.329 -0.024,0.31 -0.041,0.286 0.003,0.149 0.133,0.073 Z"
   style="fill:#000000;fill-rule:nonzero;stroke:none;stroke-width:0;stroke-miterlimit:4;stroke-dasharray:none;fill-opacity:1"
   id="path3752" />
            </g>
            <g
   transform="matrix(13.164,-17.8985,18.8305,12.5125,706.63,635.747)"
   id="g3758"
   style="stroke:none;stroke-width:0;stroke-miterlimit:4;stroke-dasharray:none;fill:#000000;fill-opacity:1">
                <path
   d="M 0.399,-0.091 C 0.414,-0.121 0.414,-0.142 0.409,-0.153 0.405,-0.161 0.395,-0.161 0.391,-0.152 0.36,-0.088 0.305,-0.016 0.264,-0.014 0.227,-0.012 0.222,-0.059 0.247,-0.117 0.27,-0.169 0.318,-0.242 0.34,-0.286 0.366,-0.337 0.335,-0.387 0.301,-0.391 c -0.027,-0.003 -0.079,0.03 -0.12,0.07 0.043,-0.067 0.096,-0.148 0.12,-0.188 0.038,-0.063 0.041,-0.113 0.028,-0.142 -0.005,-0.012 -0.015,-0.013 -0.024,-0.001 -0.081,0.101 -0.289,0.453 -0.324,0.553 -0.021,0.06 -0.012,0.088 0.004,0.106 0.006,0.007 0.013,0.005 0.017,-0.004 0.024,-0.061 0.061,-0.131 0.097,-0.19 0.058,-0.095 0.167,-0.163 0.181,-0.155 0.016,0.009 -0.071,0.113 -0.104,0.21 -0.03,0.087 -0.009,0.148 0.075,0.148 0.059,0 0.12,-0.05 0.148,-0.107 z"
   style="fill:#000000;fill-rule:nonzero;stroke:none;stroke-width:0;stroke-miterlimit:4;stroke-dasharray:none;fill-opacity:1"
   id="path3756" />
            </g>
            <g
   transform="matrix(12.7674,-18.1562,19.1016,12.1355,711.586,628.996)"
   id="g3762"
   style="stroke:none;stroke-width:0;stroke-miterlimit:4;stroke-dasharray:none;fill:#000000;fill-opacity:1">
                <path
   d="M 0.125,-0.389 C 0.082,-0.31 0.04,-0.226 0.019,-0.176 -0.029,-0.061 0.024,0.013 0.09,0.015 0.17,0.018 0.236,-0.07 0.249,-0.099 0.259,-0.122 0.264,-0.14 0.259,-0.156 0.255,-0.17 0.244,-0.168 0.238,-0.156 0.201,-0.081 0.144,-0.01 0.099,-0.012 0.057,-0.014 0.046,-0.076 0.079,-0.149 0.117,-0.233 0.174,-0.33 0.213,-0.397 0.238,-0.401 0.269,-0.404 0.291,-0.401 0.306,-0.401 0.31,-0.408 0.303,-0.42 0.295,-0.433 0.28,-0.451 0.241,-0.45 0.265,-0.502 0.265,-0.535 0.254,-0.563 0.249,-0.575 0.239,-0.576 0.23,-0.563 0.213,-0.541 0.185,-0.494 0.154,-0.439 0.127,-0.436 0.099,-0.434 0.071,-0.435 0.056,-0.436 0.05,-0.429 0.06,-0.415 c 0.008,0.011 0.031,0.026 0.065,0.026 z"
   style="fill:#000000;fill-rule:nonzero;stroke:none;stroke-width:0;stroke-miterlimit:4;stroke-dasharray:none;fill-opacity:1"
   id="path3760" />
            </g>
            <g
   transform="matrix(12.5025,-18.3221,19.2761,11.8837,714.336,625.113)"
   id="g3766"
   style="stroke:none;stroke-width:0;stroke-miterlimit:4;stroke-dasharray:none;fill:#000000;fill-opacity:1">
                <path
   d="M 0.039,-0.164 C 0.038,-0.172 0.038,-0.18 0.037,-0.188 0.036,-0.204 0.028,-0.208 0.016,-0.198 -0.018,-0.17 -0.021,-0.104 0.003,-0.059 0.037,0.003 0.093,0.018 0.151,0.016 0.222,0.013 0.29,-0.025 0.328,-0.094 0.345,-0.125 0.346,-0.151 0.342,-0.16 0.338,-0.168 0.328,-0.171 0.323,-0.16 0.298,-0.106 0.256,-0.046 0.189,-0.021 0.225,-0.045 0.232,-0.087 0.234,-0.126 0.237,-0.195 0.218,-0.273 0.225,-0.365 0.229,-0.372 0.232,-0.378 0.236,-0.384 0.249,-0.407 0.254,-0.418 0.244,-0.428 0.235,-0.437 0.212,-0.433 0.19,-0.413 0.169,-0.394 0.159,-0.375 0.154,-0.336 0.125,-0.285 0.08,-0.22 0.039,-0.164 Z m 0.113,-0.108 c 0.004,0.08 0.019,0.237 -0.027,0.251 -0.033,0.01 -0.062,-0.031 -0.077,-0.089 0.038,-0.054 0.075,-0.109 0.104,-0.162 z"
   style="fill:#000000;fill-rule:nonzero;stroke:none;stroke-width:0;stroke-miterlimit:4;stroke-dasharray:none;fill-opacity:1"
   id="path3764" />
            </g>
            <g
   transform="matrix(12.2303,-18.4873,19.4499,11.625,718.108,619.574)"
   id="g3770"
   style="stroke:none;stroke-width:0;stroke-miterlimit:4;stroke-dasharray:none;fill:#000000;fill-opacity:1">
                <path
   d="M 0.06,-0.043 C 0.049,-0.019 0.055,0.01 0.075,0.017 0.095,0.024 0.121,0.008 0.132,-0.018 0.143,-0.045 0.137,-0.071 0.117,-0.078 0.097,-0.085 0.072,-0.07 0.06,-0.043 Z"
   style="fill:#000000;fill-rule:nonzero;stroke:none;stroke-width:0;stroke-miterlimit:4;stroke-dasharray:none;fill-opacity:1"
   id="path3768" />
            </g>
        </g>
    </g></g></svg>
