<?xml version="1.0" encoding="UTF-8" standalone="no"?>
<!DOCTYPE svg PUBLIC "-//W3C//DTD SVG 1.1//EN" "http://www.w3.org/Graphics/SVG/1.1/DTD/svg11.dtd">
<svg width="100%" height="100%" viewBox="0 0 652 210" version="1.1" xmlns="http://www.w3.org/2000/svg" xmlns:xlink="http://www.w3.org/1999/xlink" xml:space="preserve" xmlns:serif="http://www.serif.com/" style="fill-rule:evenodd;clip-rule:evenodd;stroke-linejoin:round;stroke-miterlimit:2;">
    <g transform="matrix(1,0,0,1,-94.8462,-546.56)">
        <g transform="matrix(1,0,0,1,-0.24043,-0.933727)">
            <g transform="matrix(0.372609,0.927988,-0.927988,0.372609,572.275,258.592)">
                <g transform="matrix(27,0,0,27,94.8932,552.528)">
                    <path d="M0.276,-0.525C0.183,-0.384 0.075,-0.167 0.052,-0.085C0.039,-0.037 0.051,-0.007 0.065,0.006C0.072,0.013 0.077,0.013 0.081,0.003C0.159,-0.18 0.244,-0.32 0.304,-0.429C0.331,-0.478 0.338,-0.511 0.337,-0.535C0.395,-0.545 0.458,-0.555 0.507,-0.55C0.52,-0.549 0.522,-0.557 0.519,-0.565C0.504,-0.604 0.466,-0.615 0.424,-0.616C0.367,-0.618 0.201,-0.581 0.112,-0.588C0.102,-0.589 0.098,-0.584 0.101,-0.575C0.112,-0.538 0.155,-0.516 0.215,-0.518C0.233,-0.519 0.253,-0.521 0.276,-0.525Z" style="fill:white;fill-rule:nonzero;"/>
                </g>
            </g>
            <g transform="matrix(0.392779,0.919633,-0.919633,0.392779,575.139,250.211)">
                <g transform="matrix(27,0,0,27,98.0976,560.628)">
                    <path d="M0.399,-0.091C0.414,-0.121 0.414,-0.142 0.409,-0.153C0.405,-0.161 0.395,-0.161 0.391,-0.152C0.36,-0.088 0.305,-0.016 0.264,-0.014C0.227,-0.012 0.222,-0.059 0.247,-0.117C0.27,-0.169 0.318,-0.242 0.34,-0.286C0.366,-0.337 0.335,-0.387 0.301,-0.391C0.274,-0.394 0.222,-0.361 0.181,-0.321C0.224,-0.388 0.277,-0.469 0.301,-0.509C0.339,-0.572 0.342,-0.622 0.329,-0.651C0.324,-0.663 0.314,-0.664 0.305,-0.652C0.224,-0.551 0.016,-0.199 -0.019,-0.099C-0.04,-0.039 -0.031,-0.011 -0.015,0.007C-0.009,0.014 -0.002,0.012 0.002,0.003C0.026,-0.058 0.063,-0.128 0.099,-0.187C0.157,-0.282 0.266,-0.35 0.28,-0.342C0.296,-0.333 0.209,-0.229 0.176,-0.132C0.146,-0.045 0.167,0.016 0.251,0.016C0.31,0.016 0.371,-0.034 0.399,-0.091Z" style="fill:white;fill-rule:nonzero;"/>
                </g>
            </g>
            <g transform="matrix(0.437941,0.899004,-0.899004,0.437941,569.799,228.691)">
                <g transform="matrix(27,0,0,27,102.006,570.038)">
                    <path d="M0.667,-0.088C0.679,-0.116 0.677,-0.142 0.672,-0.153C0.668,-0.162 0.661,-0.16 0.657,-0.152C0.625,-0.078 0.574,-0.012 0.532,-0.014C0.502,-0.015 0.49,-0.055 0.507,-0.11C0.524,-0.164 0.575,-0.232 0.622,-0.284C0.652,-0.317 0.627,-0.365 0.607,-0.387C0.6,-0.397 0.591,-0.392 0.579,-0.384C0.54,-0.358 0.505,-0.342 0.47,-0.337C0.495,-0.402 0.505,-0.463 0.474,-0.462C0.432,-0.46 0.334,-0.327 0.411,-0.295C0.356,-0.168 0.246,-0.01 0.136,-0.015C0.085,-0.017 0.06,-0.082 0.092,-0.173C0.162,-0.117 0.229,-0.142 0.276,-0.203C0.316,-0.254 0.326,-0.313 0.309,-0.337C0.293,-0.359 0.275,-0.373 0.25,-0.388C0.2,-0.417 0.098,-0.361 0.035,-0.237C-0.03,-0.109 0.013,0.015 0.14,0.013C0.259,0.011 0.367,-0.115 0.45,-0.289C0.481,-0.289 0.526,-0.299 0.57,-0.327C0.527,-0.279 0.467,-0.205 0.446,-0.138C0.421,-0.057 0.451,0.011 0.527,0.015C0.582,0.018 0.642,-0.028 0.667,-0.088ZM0.101,-0.195C0.104,-0.2 0.106,-0.207 0.109,-0.212C0.155,-0.304 0.237,-0.367 0.259,-0.348C0.272,-0.337 0.251,-0.285 0.219,-0.244C0.189,-0.206 0.15,-0.165 0.101,-0.195Z" style="fill:white;fill-rule:nonzero;"/>
                </g>
            </g>
            <g transform="matrix(0.477765,0.878487,-0.878487,0.477765,571.777,209.481)">
                <g transform="matrix(27,0,0,27,109.698,585.654)">
                    <path d="M0.092,-0.171C0.162,-0.114 0.229,-0.14 0.278,-0.2C0.32,-0.251 0.328,-0.312 0.31,-0.336C0.294,-0.358 0.276,-0.373 0.251,-0.388C0.201,-0.417 0.099,-0.365 0.034,-0.236C-0.031,-0.107 0.013,0.018 0.14,0.016C0.217,0.015 0.294,-0.031 0.336,-0.092C0.354,-0.118 0.357,-0.146 0.353,-0.154C0.349,-0.163 0.341,-0.163 0.336,-0.155C0.293,-0.089 0.22,-0.009 0.137,-0.013C0.084,-0.016 0.06,-0.079 0.092,-0.171ZM0.101,-0.193C0.103,-0.198 0.106,-0.204 0.109,-0.21C0.156,-0.305 0.239,-0.365 0.26,-0.348C0.274,-0.337 0.252,-0.285 0.22,-0.243C0.191,-0.205 0.15,-0.162 0.101,-0.193Z" style="fill:white;fill-rule:nonzero;"/>
                </g>
            </g>
            <g transform="matrix(0.535574,0.844488,-0.844488,0.535574,559.576,179.436)">
                <g transform="matrix(27,0,0,27,116.65,598.47)">
                    <path d="M0.209,-0.069C0.208,-0.018 0.238,0.017 0.293,0.013C0.4,0.005 0.49,-0.146 0.539,-0.287C0.57,-0.287 0.613,-0.298 0.657,-0.324C0.614,-0.276 0.553,-0.202 0.533,-0.136C0.509,-0.056 0.539,0.013 0.615,0.016C0.67,0.018 0.729,-0.026 0.755,-0.086C0.767,-0.114 0.764,-0.139 0.759,-0.151C0.755,-0.161 0.748,-0.159 0.744,-0.151C0.712,-0.076 0.662,-0.01 0.62,-0.013C0.589,-0.015 0.578,-0.054 0.595,-0.109C0.611,-0.159 0.662,-0.229 0.709,-0.283C0.738,-0.317 0.714,-0.363 0.695,-0.384C0.686,-0.394 0.679,-0.392 0.665,-0.382C0.627,-0.356 0.59,-0.339 0.554,-0.335C0.575,-0.404 0.585,-0.463 0.554,-0.461C0.514,-0.458 0.419,-0.322 0.5,-0.293C0.453,-0.146 0.363,-0.023 0.299,-0.017C0.268,-0.014 0.264,-0.051 0.288,-0.108C0.31,-0.159 0.363,-0.237 0.383,-0.282C0.405,-0.332 0.398,-0.374 0.382,-0.392C0.374,-0.401 0.366,-0.398 0.358,-0.386C0.351,-0.376 0.338,-0.356 0.323,-0.331C0.323,-0.366 0.303,-0.397 0.264,-0.397C0.213,-0.397 0.134,-0.351 0.054,-0.236C-0.029,-0.116 -0.009,0.011 0.083,0.011C0.132,0.011 0.177,-0.028 0.209,-0.069ZM0.279,-0.346C0.308,-0.344 0.299,-0.281 0.237,-0.172C0.186,-0.082 0.134,-0.021 0.094,-0.022C0.055,-0.023 0.066,-0.11 0.12,-0.196C0.175,-0.284 0.248,-0.348 0.279,-0.346Z" style="fill:white;fill-rule:nonzero;"/>
                </g>
            </g>
            <g transform="matrix(0.574238,0.818688,-0.818688,0.574238,557.845,157.64)">
                <g transform="matrix(27,0,0,27,127.361,615.155)">
                    <path d="M0.092,-0.171C0.162,-0.114 0.229,-0.14 0.278,-0.2C0.32,-0.251 0.328,-0.312 0.31,-0.336C0.294,-0.358 0.276,-0.373 0.251,-0.388C0.201,-0.417 0.099,-0.365 0.034,-0.236C-0.031,-0.107 0.013,0.018 0.14,0.016C0.217,0.015 0.294,-0.031 0.336,-0.092C0.354,-0.118 0.357,-0.146 0.353,-0.154C0.349,-0.163 0.341,-0.163 0.336,-0.155C0.293,-0.089 0.22,-0.009 0.137,-0.013C0.084,-0.016 0.06,-0.079 0.092,-0.171ZM0.101,-0.193C0.103,-0.198 0.106,-0.204 0.109,-0.21C0.156,-0.305 0.239,-0.365 0.26,-0.348C0.274,-0.337 0.252,-0.285 0.22,-0.243C0.191,-0.205 0.15,-0.162 0.101,-0.193Z" style="fill:white;fill-rule:nonzero;"/>
                </g>
            </g>
            <g transform="matrix(0.615757,0.787936,-0.787936,0.615757,546.219,133.943)">
                <g transform="matrix(27,0,0,27,135.777,627.016)">
                    <path d="M0.277,-0.108C0.327,-0.214 0.423,-0.379 0.471,-0.465C0.513,-0.54 0.516,-0.583 0.502,-0.616C0.497,-0.629 0.488,-0.63 0.478,-0.616C0.442,-0.565 0.366,-0.429 0.312,-0.326C0.313,-0.363 0.293,-0.394 0.252,-0.394C0.202,-0.394 0.122,-0.349 0.043,-0.233C-0.039,-0.113 -0.021,0.014 0.072,0.014C0.119,0.014 0.164,-0.023 0.196,-0.063C0.196,-0.016 0.223,0.014 0.277,0.017C0.332,0.02 0.394,-0.033 0.421,-0.088C0.434,-0.115 0.433,-0.141 0.429,-0.15C0.425,-0.158 0.418,-0.158 0.413,-0.149C0.378,-0.08 0.324,-0.013 0.283,-0.011C0.249,-0.009 0.25,-0.05 0.277,-0.108ZM0.268,-0.343C0.297,-0.342 0.282,-0.279 0.224,-0.168C0.177,-0.077 0.123,-0.018 0.083,-0.019C0.044,-0.02 0.055,-0.107 0.109,-0.193C0.164,-0.281 0.237,-0.344 0.268,-0.343Z" style="fill:white;fill-rule:nonzero;"/>
                </g>
            </g>
            <g transform="matrix(0.64965,0.760234,-0.760234,0.64965,533.106,114.481)">
                <g transform="matrix(27,0,0,27,142.345,635.64)">
                    <path d="M0.209,-0.069C0.208,-0.018 0.238,0.017 0.293,0.013C0.4,0.005 0.49,-0.146 0.539,-0.287C0.57,-0.287 0.613,-0.298 0.657,-0.324C0.614,-0.276 0.553,-0.202 0.533,-0.136C0.509,-0.056 0.539,0.013 0.615,0.016C0.67,0.018 0.729,-0.026 0.755,-0.086C0.767,-0.114 0.764,-0.139 0.759,-0.151C0.755,-0.161 0.748,-0.159 0.744,-0.151C0.712,-0.076 0.662,-0.01 0.62,-0.013C0.589,-0.015 0.578,-0.054 0.595,-0.109C0.611,-0.159 0.662,-0.229 0.709,-0.283C0.738,-0.317 0.714,-0.363 0.695,-0.384C0.686,-0.394 0.679,-0.392 0.665,-0.382C0.627,-0.356 0.59,-0.339 0.554,-0.335C0.575,-0.404 0.585,-0.463 0.554,-0.461C0.514,-0.458 0.419,-0.322 0.5,-0.293C0.453,-0.146 0.363,-0.023 0.299,-0.017C0.268,-0.014 0.264,-0.051 0.288,-0.108C0.31,-0.159 0.363,-0.237 0.383,-0.282C0.405,-0.332 0.398,-0.374 0.382,-0.392C0.374,-0.401 0.366,-0.398 0.358,-0.386C0.351,-0.376 0.338,-0.356 0.323,-0.331C0.323,-0.366 0.303,-0.397 0.264,-0.397C0.213,-0.397 0.134,-0.351 0.054,-0.236C-0.029,-0.116 -0.009,0.011 0.083,0.011C0.132,0.011 0.177,-0.028 0.209,-0.069ZM0.279,-0.346C0.308,-0.344 0.299,-0.281 0.237,-0.172C0.186,-0.082 0.134,-0.021 0.094,-0.022C0.055,-0.023 0.066,-0.11 0.12,-0.196C0.175,-0.284 0.248,-0.348 0.279,-0.346Z" style="fill:white;fill-rule:nonzero;"/>
                </g>
            </g>
            <g transform="matrix(0.681954,0.731395,-0.731395,0.681954,525.22,93.3732)">
                <g transform="matrix(27,0,0,27,155.247,650.598)">
                    <path d="M0.182,-0.347C0.209,-0.396 0.248,-0.466 0.272,-0.507C0.314,-0.58 0.316,-0.62 0.301,-0.65C0.295,-0.662 0.285,-0.661 0.276,-0.649C0.187,-0.528 0.021,-0.199 -0.007,-0.108C-0.026,-0.047 -0.021,-0.015 -0.006,0.002C0.001,0.01 0.009,0.008 0.012,-0C0.089,-0.184 0.134,-0.272 0.209,-0.329C0.262,-0.37 0.306,-0.381 0.317,-0.363C0.332,-0.337 0.266,-0.25 0.142,-0.209C0.123,-0.203 0.121,-0.2 0.121,-0.182C0.119,-0.047 0.178,0.01 0.248,0.011C0.327,0.012 0.373,-0.052 0.397,-0.094C0.412,-0.119 0.414,-0.143 0.409,-0.155C0.404,-0.167 0.395,-0.166 0.389,-0.154C0.359,-0.092 0.304,-0.015 0.263,-0.019C0.225,-0.023 0.197,-0.08 0.193,-0.162C0.256,-0.181 0.298,-0.21 0.332,-0.243C0.369,-0.279 0.372,-0.321 0.353,-0.36C0.333,-0.402 0.309,-0.417 0.271,-0.404C0.245,-0.395 0.214,-0.378 0.182,-0.347Z" style="fill:white;fill-rule:nonzero;"/>
                </g>
            </g>
            <g transform="matrix(0.702185,0.711995,-0.711995,0.702185,516.625,80.5783)">
                <g transform="matrix(27,0,0,27,161.992,657.843)">
                    <path d="M0.16,-0.294C0.171,-0.33 0.172,-0.364 0.157,-0.389C0.151,-0.399 0.143,-0.4 0.136,-0.389C0.073,-0.296 -0.004,-0.157 -0.024,-0.094C-0.04,-0.044 -0.034,-0.011 -0.014,0.009C-0.005,0.018 0.001,0.014 0.005,0.005C0.048,-0.089 0.092,-0.185 0.151,-0.249C0.215,-0.319 0.273,-0.347 0.283,-0.343C0.301,-0.335 0.213,-0.229 0.18,-0.131C0.151,-0.044 0.171,0.018 0.256,0.018C0.314,0.018 0.377,-0.033 0.404,-0.089C0.418,-0.118 0.42,-0.141 0.413,-0.152C0.408,-0.16 0.401,-0.16 0.396,-0.151C0.358,-0.081 0.309,-0.015 0.268,-0.013C0.232,-0.011 0.226,-0.058 0.252,-0.116C0.275,-0.168 0.324,-0.242 0.345,-0.286C0.37,-0.338 0.339,-0.387 0.306,-0.392C0.273,-0.397 0.205,-0.342 0.16,-0.294Z" style="fill:white;fill-rule:nonzero;"/>
                </g>
            </g>
            <g transform="matrix(0.721933,0.691963,-0.691963,0.721933,507.376,67.8439)">
                <g transform="matrix(27,0,0,27,169.274,665.219)">
                    <path d="M0.092,-0.171C0.162,-0.114 0.229,-0.14 0.278,-0.2C0.32,-0.251 0.328,-0.312 0.31,-0.336C0.294,-0.358 0.276,-0.373 0.251,-0.388C0.201,-0.417 0.099,-0.365 0.034,-0.236C-0.031,-0.107 0.013,0.018 0.14,0.016C0.217,0.015 0.294,-0.031 0.336,-0.092C0.354,-0.118 0.357,-0.146 0.353,-0.154C0.349,-0.163 0.341,-0.163 0.336,-0.155C0.293,-0.089 0.22,-0.009 0.137,-0.013C0.084,-0.016 0.06,-0.079 0.092,-0.171ZM0.101,-0.193C0.103,-0.198 0.106,-0.204 0.109,-0.21C0.156,-0.305 0.239,-0.365 0.26,-0.348C0.274,-0.337 0.252,-0.285 0.22,-0.243C0.191,-0.205 0.15,-0.162 0.101,-0.193Z" style="fill:white;fill-rule:nonzero;"/>
                </g>
            </g>
            <g transform="matrix(0.737287,0.675579,-0.675579,0.737287,499.482,57.802)">
                <g transform="matrix(27,0,0,27,175.42,671.122)">
                    <path d="M0.039,-0.164C0.038,-0.172 0.038,-0.18 0.037,-0.188C0.036,-0.204 0.028,-0.208 0.016,-0.198C-0.018,-0.17 -0.021,-0.104 0.003,-0.059C0.037,0.003 0.093,0.018 0.151,0.016C0.222,0.013 0.29,-0.025 0.328,-0.094C0.345,-0.125 0.346,-0.151 0.342,-0.16C0.338,-0.168 0.328,-0.171 0.323,-0.16C0.298,-0.106 0.256,-0.046 0.189,-0.021C0.225,-0.045 0.232,-0.087 0.234,-0.126C0.237,-0.195 0.218,-0.273 0.225,-0.365C0.229,-0.372 0.232,-0.378 0.236,-0.384C0.249,-0.407 0.254,-0.418 0.244,-0.428C0.235,-0.437 0.212,-0.433 0.19,-0.413C0.169,-0.394 0.159,-0.375 0.154,-0.336C0.125,-0.285 0.08,-0.22 0.039,-0.164ZM0.152,-0.272C0.156,-0.192 0.171,-0.035 0.125,-0.021C0.092,-0.011 0.063,-0.052 0.048,-0.11C0.086,-0.164 0.123,-0.219 0.152,-0.272Z" style="fill:white;fill-rule:nonzero;"/>
                </g>
            </g>
            <g transform="matrix(0.75206,0.659095,-0.659095,0.75206,490.954,48.1865)">
                <g transform="matrix(27,0,0,27,181.43,676.641)">
                    <path d="M0.039,-0.164C0.038,-0.172 0.038,-0.18 0.037,-0.188C0.036,-0.204 0.028,-0.208 0.016,-0.198C-0.018,-0.17 -0.021,-0.104 0.003,-0.059C0.037,0.003 0.093,0.018 0.151,0.016C0.222,0.013 0.29,-0.025 0.328,-0.094C0.345,-0.125 0.346,-0.151 0.342,-0.16C0.338,-0.168 0.328,-0.171 0.323,-0.16C0.298,-0.106 0.256,-0.046 0.189,-0.021C0.225,-0.045 0.232,-0.087 0.234,-0.126C0.237,-0.195 0.218,-0.273 0.225,-0.365C0.229,-0.372 0.232,-0.378 0.236,-0.384C0.249,-0.407 0.254,-0.418 0.244,-0.428C0.235,-0.437 0.212,-0.433 0.19,-0.413C0.169,-0.394 0.159,-0.375 0.154,-0.336C0.125,-0.285 0.08,-0.22 0.039,-0.164ZM0.152,-0.272C0.156,-0.192 0.171,-0.035 0.125,-0.021C0.092,-0.011 0.063,-0.052 0.048,-0.11C0.086,-0.164 0.123,-0.219 0.152,-0.272Z" style="fill:white;fill-rule:nonzero;"/>
                </g>
            </g>
            <g transform="matrix(0.766767,0.641926,-0.641926,0.766767,481.51,38.6994)">
                <g transform="matrix(27,0,0,27,187.499,681.978)">
                    <path d="M0.092,-0.171C0.162,-0.114 0.229,-0.14 0.278,-0.2C0.32,-0.251 0.328,-0.312 0.31,-0.336C0.294,-0.358 0.276,-0.373 0.251,-0.388C0.201,-0.417 0.099,-0.365 0.034,-0.236C-0.031,-0.107 0.013,0.018 0.14,0.016C0.217,0.015 0.294,-0.031 0.336,-0.092C0.354,-0.118 0.357,-0.146 0.353,-0.154C0.349,-0.163 0.341,-0.163 0.336,-0.155C0.293,-0.089 0.22,-0.009 0.137,-0.013C0.084,-0.016 0.06,-0.079 0.092,-0.171ZM0.101,-0.193C0.103,-0.198 0.106,-0.204 0.109,-0.21C0.156,-0.305 0.239,-0.365 0.26,-0.348C0.274,-0.337 0.252,-0.285 0.22,-0.243C0.191,-0.205 0.15,-0.162 0.101,-0.193Z" style="fill:white;fill-rule:nonzero;"/>
                </g>
            </g>
            <g transform="matrix(0.780399,0.625282,-0.625282,0.780399,472.459,29.6452)">
                <g transform="matrix(27,0,0,27,194.024,687.452)">
                    <path d="M0.039,-0.164C0.038,-0.172 0.038,-0.18 0.037,-0.188C0.036,-0.204 0.028,-0.208 0.016,-0.198C-0.018,-0.17 -0.021,-0.104 0.003,-0.059C0.037,0.003 0.093,0.018 0.151,0.016C0.222,0.013 0.29,-0.025 0.328,-0.094C0.345,-0.125 0.346,-0.151 0.342,-0.16C0.338,-0.168 0.328,-0.171 0.323,-0.16C0.298,-0.106 0.256,-0.046 0.189,-0.021C0.225,-0.045 0.232,-0.087 0.234,-0.126C0.237,-0.195 0.218,-0.273 0.225,-0.365C0.229,-0.372 0.232,-0.378 0.236,-0.384C0.249,-0.407 0.254,-0.418 0.244,-0.428C0.235,-0.437 0.212,-0.433 0.19,-0.413C0.169,-0.394 0.159,-0.375 0.154,-0.336C0.125,-0.285 0.08,-0.22 0.039,-0.164ZM0.152,-0.272C0.156,-0.192 0.171,-0.035 0.125,-0.021C0.092,-0.011 0.063,-0.052 0.048,-0.11C0.086,-0.164 0.123,-0.219 0.152,-0.272Z" style="fill:white;fill-rule:nonzero;"/>
                </g>
            </g>
            <g transform="matrix(0.800685,0.599086,-0.599086,0.800685,457.948,15.8926)">
                <g transform="matrix(27,0,0,27,205.09,696.178)">
                    <path d="M0.232,-0.459C0.219,-0.486 0.19,-0.498 0.174,-0.481C0.158,-0.464 0.153,-0.434 0.169,-0.407C0.184,-0.381 0.212,-0.378 0.225,-0.392C0.238,-0.406 0.245,-0.433 0.232,-0.459ZM0.069,0.015C0.125,0.015 0.188,-0.027 0.218,-0.089C0.23,-0.114 0.233,-0.135 0.225,-0.151C0.221,-0.159 0.214,-0.16 0.209,-0.151C0.179,-0.082 0.124,-0.016 0.079,-0.014C0.047,-0.012 0.045,-0.051 0.069,-0.109C0.09,-0.159 0.132,-0.227 0.153,-0.271C0.177,-0.321 0.169,-0.364 0.154,-0.38C0.146,-0.389 0.139,-0.386 0.13,-0.374C0.093,-0.322 0.027,-0.204 0.002,-0.131C-0.026,-0.049 -0.007,0.015 0.069,0.015Z" style="fill:white;fill-rule:nonzero;"/>
                </g>
            </g>
            <g transform="matrix(0.812161,0.583433,-0.583433,0.812161,447.415,9.20581)">
                <g transform="matrix(27,0,0,27,209.411,699.446)">
                    <path d="M0.16,-0.294C0.171,-0.33 0.172,-0.364 0.157,-0.389C0.151,-0.399 0.143,-0.4 0.136,-0.389C0.073,-0.296 -0.004,-0.157 -0.024,-0.094C-0.04,-0.044 -0.034,-0.011 -0.014,0.009C-0.005,0.018 0.001,0.014 0.005,0.005C0.048,-0.089 0.092,-0.185 0.151,-0.249C0.215,-0.319 0.273,-0.347 0.283,-0.343C0.301,-0.335 0.213,-0.229 0.18,-0.131C0.151,-0.044 0.171,0.018 0.256,0.018C0.314,0.018 0.377,-0.033 0.404,-0.089C0.418,-0.118 0.42,-0.141 0.413,-0.152C0.408,-0.16 0.401,-0.16 0.396,-0.151C0.358,-0.081 0.309,-0.015 0.268,-0.013C0.232,-0.011 0.226,-0.058 0.252,-0.116C0.275,-0.168 0.324,-0.242 0.345,-0.286C0.37,-0.338 0.339,-0.387 0.306,-0.392C0.273,-0.397 0.205,-0.342 0.16,-0.294Z" style="fill:white;fill-rule:nonzero;"/>
                </g>
            </g>
            <g transform="matrix(0.835102,0.550095,-0.550095,0.835102,426.666,-5.63682)">
                <g transform="matrix(27,0,0,27,222.735,708.855)">
                    <path d="M0.098,-0.2C0.187,-0.258 0.299,-0.378 0.33,-0.501C0.342,-0.548 0.336,-0.585 0.307,-0.611C0.293,-0.624 0.279,-0.622 0.264,-0.606C0.162,-0.5 0.048,-0.319 0.011,-0.145C-0.012,-0.037 0.025,0.011 0.094,0.013C0.174,0.015 0.247,-0.068 0.261,-0.098C0.272,-0.122 0.276,-0.144 0.271,-0.16C0.267,-0.174 0.256,-0.173 0.249,-0.16C0.21,-0.083 0.14,-0.011 0.092,-0.015C0.047,-0.019 0.058,-0.102 0.098,-0.2ZM0.116,-0.243C0.123,-0.259 0.131,-0.275 0.14,-0.291C0.209,-0.419 0.283,-0.53 0.296,-0.522C0.309,-0.514 0.253,-0.354 0.116,-0.243Z" style="fill:white;fill-rule:nonzero;"/>
                </g>
            </g>
            <g transform="matrix(0.841701,0.539944,-0.539944,0.841701,420.663,-10.3042)">
                <g transform="matrix(27,0,0,27,227.905,712.271)">
                    <path d="M0.232,-0.459C0.219,-0.486 0.19,-0.498 0.174,-0.481C0.158,-0.464 0.153,-0.434 0.169,-0.407C0.184,-0.381 0.212,-0.378 0.225,-0.392C0.238,-0.406 0.245,-0.433 0.232,-0.459ZM0.069,0.015C0.125,0.015 0.188,-0.027 0.218,-0.089C0.23,-0.114 0.233,-0.135 0.225,-0.151C0.221,-0.159 0.214,-0.16 0.209,-0.151C0.179,-0.082 0.124,-0.016 0.079,-0.014C0.047,-0.012 0.045,-0.051 0.069,-0.109C0.09,-0.159 0.132,-0.227 0.153,-0.271C0.177,-0.321 0.169,-0.364 0.154,-0.38C0.146,-0.389 0.139,-0.386 0.13,-0.374C0.093,-0.322 0.027,-0.204 0.002,-0.131C-0.026,-0.049 -0.007,0.015 0.069,0.015Z" style="fill:white;fill-rule:nonzero;"/>
                </g>
            </g>
            <g transform="matrix(0.848654,0.528949,-0.528949,0.848654,413.385,-14.6274)">
                <g transform="matrix(27,0,0,27,232.253,715.067)">
                    <path d="M0.106,-0.184C0.16,-0.289 0.229,-0.402 0.27,-0.47C0.313,-0.543 0.316,-0.586 0.304,-0.62C0.3,-0.632 0.287,-0.633 0.279,-0.621C0.168,-0.455 -0.062,-0.072 -0.09,0.151C-0.101,0.236 -0.071,0.275 -0.046,0.296C-0.016,0.322 0.009,0.318 0.043,0.276C0.091,0.216 0.135,0.105 0.151,0.004C0.211,-0.017 0.261,-0.076 0.271,-0.1C0.28,-0.123 0.286,-0.145 0.281,-0.16C0.276,-0.174 0.266,-0.173 0.26,-0.161C0.234,-0.109 0.194,-0.059 0.156,-0.034C0.157,-0.046 0.158,-0.057 0.158,-0.068C0.159,-0.134 0.144,-0.172 0.106,-0.184ZM0.101,-0.018C0.082,-0.022 0.073,-0.043 0.074,-0.075C0.075,-0.098 0.084,-0.151 0.094,-0.155C0.101,-0.158 0.111,-0.127 0.11,-0.09C0.109,-0.067 0.106,-0.042 0.101,-0.018ZM0.034,-0.029C0.046,-0.005 0.066,0.008 0.095,0.011C0.062,0.148 -0.013,0.286 -0.035,0.257C-0.058,0.228 -0.022,0.104 0.034,-0.029Z" style="fill:white;fill-rule:nonzero;"/>
                </g>
            </g>
            <g transform="matrix(0.859643,0.510895,-0.510895,0.859643,400.338,-20.5092)">
                <g transform="matrix(27,0,0,27,237.495,718.354)">
                    <path d="M0.092,-0.171C0.162,-0.114 0.229,-0.14 0.278,-0.2C0.32,-0.251 0.328,-0.312 0.31,-0.336C0.294,-0.358 0.276,-0.373 0.251,-0.388C0.201,-0.417 0.099,-0.365 0.034,-0.236C-0.031,-0.107 0.013,0.018 0.14,0.016C0.217,0.015 0.294,-0.031 0.336,-0.092C0.354,-0.118 0.357,-0.146 0.353,-0.154C0.349,-0.163 0.341,-0.163 0.336,-0.155C0.293,-0.089 0.22,-0.009 0.137,-0.013C0.084,-0.016 0.06,-0.079 0.092,-0.171ZM0.101,-0.193C0.103,-0.198 0.106,-0.204 0.109,-0.21C0.156,-0.305 0.239,-0.365 0.26,-0.348C0.274,-0.337 0.252,-0.285 0.22,-0.243C0.191,-0.205 0.15,-0.162 0.101,-0.193Z" style="fill:white;fill-rule:nonzero;"/>
                </g>
            </g>
            <g transform="matrix(0.880448,0.474143,-0.474143,0.880448,373.995,-31.7996)">
                <g transform="matrix(27,0,0,27,250.056,725.731)">
                    <path d="M0.324,-0.325C0.326,-0.364 0.306,-0.397 0.263,-0.397C0.213,-0.397 0.134,-0.352 0.053,-0.234C-0.03,-0.113 -0.011,0.014 0.082,0.014C0.13,0.014 0.175,-0.023 0.207,-0.064C0.207,-0.017 0.235,0.015 0.289,0.018C0.344,0.021 0.407,-0.034 0.433,-0.089C0.446,-0.117 0.446,-0.142 0.442,-0.151C0.438,-0.16 0.431,-0.159 0.426,-0.15C0.391,-0.081 0.336,-0.013 0.295,-0.011C0.261,-0.009 0.262,-0.052 0.287,-0.108C0.311,-0.161 0.361,-0.236 0.383,-0.281C0.407,-0.331 0.399,-0.374 0.384,-0.392C0.377,-0.401 0.369,-0.399 0.36,-0.386C0.349,-0.37 0.337,-0.349 0.324,-0.325ZM0.237,-0.17C0.186,-0.082 0.134,-0.018 0.093,-0.019C0.054,-0.02 0.067,-0.108 0.12,-0.194C0.175,-0.283 0.248,-0.348 0.28,-0.345C0.309,-0.342 0.3,-0.28 0.237,-0.17Z" style="fill:white;fill-rule:nonzero;"/>
                </g>
            </g>
            <g transform="matrix(0.893734,0.448597,-0.448597,0.893734,355.508,-38.8488)">
                <g transform="matrix(27,0,0,27,259.753,730.957)">
                    <path d="M0.16,-0.294C0.171,-0.33 0.172,-0.364 0.157,-0.389C0.151,-0.399 0.143,-0.4 0.136,-0.389C0.073,-0.296 -0.004,-0.157 -0.024,-0.094C-0.04,-0.044 -0.034,-0.011 -0.014,0.009C-0.005,0.018 0.001,0.014 0.005,0.005C0.048,-0.089 0.092,-0.185 0.151,-0.249C0.215,-0.319 0.273,-0.347 0.283,-0.343C0.301,-0.335 0.213,-0.229 0.18,-0.131C0.151,-0.044 0.171,0.018 0.256,0.018C0.314,0.018 0.377,-0.033 0.404,-0.089C0.418,-0.118 0.42,-0.141 0.413,-0.152C0.408,-0.16 0.401,-0.16 0.396,-0.151C0.358,-0.081 0.309,-0.015 0.268,-0.013C0.232,-0.011 0.226,-0.058 0.252,-0.116C0.275,-0.168 0.324,-0.242 0.345,-0.286C0.37,-0.338 0.339,-0.387 0.306,-0.392C0.273,-0.397 0.205,-0.342 0.16,-0.294Z" style="fill:white;fill-rule:nonzero;"/>
                </g>
            </g>
            <g transform="matrix(0.90934,0.416054,-0.416054,0.90934,330.446,-45.2194)">
                <g transform="matrix(27,0,0,27,268.983,735.625)">
                    <path d="M0.277,-0.108C0.327,-0.214 0.423,-0.379 0.471,-0.465C0.513,-0.54 0.516,-0.583 0.502,-0.616C0.497,-0.629 0.488,-0.63 0.478,-0.616C0.442,-0.565 0.366,-0.429 0.312,-0.326C0.313,-0.363 0.293,-0.394 0.252,-0.394C0.202,-0.394 0.122,-0.349 0.043,-0.233C-0.039,-0.113 -0.021,0.014 0.072,0.014C0.119,0.014 0.164,-0.023 0.196,-0.063C0.196,-0.016 0.223,0.014 0.277,0.017C0.332,0.02 0.394,-0.033 0.421,-0.088C0.434,-0.115 0.433,-0.141 0.429,-0.15C0.425,-0.158 0.418,-0.158 0.413,-0.149C0.378,-0.08 0.324,-0.013 0.283,-0.011C0.249,-0.009 0.25,-0.05 0.277,-0.108ZM0.268,-0.343C0.297,-0.342 0.282,-0.279 0.224,-0.168C0.177,-0.077 0.123,-0.018 0.083,-0.019C0.044,-0.02 0.055,-0.107 0.109,-0.193C0.164,-0.281 0.237,-0.344 0.268,-0.343Z" style="fill:white;fill-rule:nonzero;"/>
                </g>
            </g>
            <g transform="matrix(0.928578,0.371137,-0.371137,0.928578,295.867,-52.481)">
                <g transform="matrix(27,0,0,27,284.29,742.482)">
                    <path d="M0.125,-0.389C0.082,-0.31 0.04,-0.226 0.019,-0.176C-0.029,-0.061 0.024,0.013 0.09,0.015C0.17,0.018 0.236,-0.07 0.249,-0.099C0.259,-0.122 0.264,-0.14 0.259,-0.156C0.255,-0.17 0.244,-0.168 0.238,-0.156C0.201,-0.081 0.144,-0.01 0.099,-0.012C0.057,-0.014 0.046,-0.076 0.079,-0.149C0.117,-0.233 0.174,-0.33 0.213,-0.397C0.238,-0.401 0.269,-0.404 0.291,-0.401C0.306,-0.401 0.31,-0.408 0.303,-0.42C0.295,-0.433 0.28,-0.451 0.241,-0.45C0.265,-0.502 0.265,-0.535 0.254,-0.563C0.249,-0.575 0.239,-0.576 0.23,-0.563C0.213,-0.541 0.185,-0.494 0.154,-0.439C0.127,-0.436 0.099,-0.434 0.071,-0.435C0.056,-0.436 0.05,-0.429 0.06,-0.415C0.068,-0.404 0.091,-0.389 0.125,-0.389Z" style="fill:white;fill-rule:nonzero;"/>
                </g>
            </g>
            <g transform="matrix(0.93839,0.345578,-0.345578,0.93839,275.191,-54.2193)">
                <g transform="matrix(27,0,0,27,289.657,744.681)">
                    <path d="M0.399,-0.091C0.414,-0.121 0.414,-0.142 0.409,-0.153C0.405,-0.161 0.395,-0.161 0.391,-0.152C0.36,-0.088 0.305,-0.016 0.264,-0.014C0.227,-0.012 0.222,-0.059 0.247,-0.117C0.27,-0.169 0.318,-0.242 0.34,-0.286C0.366,-0.337 0.335,-0.387 0.301,-0.391C0.274,-0.394 0.222,-0.361 0.181,-0.321C0.224,-0.388 0.277,-0.469 0.301,-0.509C0.339,-0.572 0.342,-0.622 0.329,-0.651C0.324,-0.663 0.314,-0.664 0.305,-0.652C0.224,-0.551 0.016,-0.199 -0.019,-0.099C-0.04,-0.039 -0.031,-0.011 -0.015,0.007C-0.009,0.014 -0.002,0.012 0.002,0.003C0.026,-0.058 0.063,-0.128 0.099,-0.187C0.157,-0.282 0.266,-0.35 0.28,-0.342C0.296,-0.333 0.209,-0.229 0.176,-0.132C0.146,-0.045 0.167,0.016 0.251,0.016C0.31,0.016 0.371,-0.034 0.399,-0.091Z" style="fill:white;fill-rule:nonzero;"/>
                </g>
            </g>
            <g transform="matrix(0.961403,0.275145,-0.275145,0.961403,217.457,-53.421)">
                <g transform="matrix(27,0,0,27,299.138,748.375)">
                    <path d="M0.667,-0.088C0.679,-0.116 0.677,-0.142 0.672,-0.153C0.668,-0.162 0.661,-0.16 0.657,-0.152C0.625,-0.078 0.574,-0.012 0.532,-0.014C0.502,-0.015 0.49,-0.055 0.507,-0.11C0.524,-0.164 0.575,-0.232 0.622,-0.284C0.652,-0.317 0.627,-0.365 0.607,-0.387C0.6,-0.397 0.591,-0.392 0.579,-0.384C0.54,-0.358 0.505,-0.342 0.47,-0.337C0.495,-0.402 0.505,-0.463 0.474,-0.462C0.432,-0.46 0.334,-0.327 0.411,-0.295C0.356,-0.168 0.246,-0.01 0.136,-0.015C0.085,-0.017 0.06,-0.082 0.092,-0.173C0.162,-0.117 0.229,-0.142 0.276,-0.203C0.316,-0.254 0.326,-0.313 0.309,-0.337C0.293,-0.359 0.275,-0.373 0.25,-0.388C0.2,-0.417 0.098,-0.361 0.035,-0.237C-0.03,-0.109 0.013,0.015 0.14,0.013C0.259,0.011 0.367,-0.115 0.45,-0.289C0.481,-0.289 0.526,-0.299 0.57,-0.327C0.527,-0.279 0.467,-0.205 0.446,-0.138C0.421,-0.057 0.451,0.011 0.527,0.015C0.582,0.018 0.642,-0.028 0.667,-0.088ZM0.101,-0.195C0.104,-0.2 0.106,-0.207 0.109,-0.212C0.155,-0.304 0.237,-0.367 0.259,-0.348C0.272,-0.337 0.251,-0.285 0.219,-0.244C0.189,-0.206 0.15,-0.165 0.101,-0.195Z" style="fill:white;fill-rule:nonzero;"/>
                </g>
            </g>
            <g transform="matrix(0.988093,0.153858,-0.153858,0.988093,119.629,-39.6414)">
                <g transform="matrix(27,0,0,27,315.929,753.075)">
                    <path d="M0.092,-0.171C0.162,-0.114 0.229,-0.14 0.278,-0.2C0.32,-0.251 0.328,-0.312 0.31,-0.336C0.294,-0.358 0.276,-0.373 0.251,-0.388C0.201,-0.417 0.099,-0.365 0.034,-0.236C-0.031,-0.107 0.013,0.018 0.14,0.016C0.217,0.015 0.294,-0.031 0.336,-0.092C0.354,-0.118 0.357,-0.146 0.353,-0.154C0.349,-0.163 0.341,-0.163 0.336,-0.155C0.293,-0.089 0.22,-0.009 0.137,-0.013C0.084,-0.016 0.06,-0.079 0.092,-0.171ZM0.101,-0.193C0.103,-0.198 0.106,-0.204 0.109,-0.21C0.156,-0.305 0.239,-0.365 0.26,-0.348C0.274,-0.337 0.252,-0.285 0.22,-0.243C0.191,-0.205 0.15,-0.162 0.101,-0.193Z" style="fill:white;fill-rule:nonzero;"/>
                </g>
            </g>
            <g transform="matrix(0.934925,-0.354846,0.354846,0.934925,-246.592,166.536)">
                <g transform="matrix(27,0,0,27,330.751,755.581)">
                    <path d="M0.209,-0.069C0.208,-0.018 0.238,0.017 0.293,0.013C0.4,0.005 0.49,-0.146 0.539,-0.287C0.57,-0.287 0.613,-0.298 0.657,-0.324C0.614,-0.276 0.553,-0.202 0.533,-0.136C0.509,-0.056 0.539,0.013 0.615,0.016C0.67,0.018 0.729,-0.026 0.755,-0.086C0.767,-0.114 0.764,-0.139 0.759,-0.151C0.755,-0.161 0.748,-0.159 0.744,-0.151C0.712,-0.076 0.662,-0.01 0.62,-0.013C0.589,-0.015 0.578,-0.054 0.595,-0.109C0.611,-0.159 0.662,-0.229 0.709,-0.283C0.738,-0.317 0.714,-0.363 0.695,-0.384C0.686,-0.394 0.679,-0.392 0.665,-0.382C0.627,-0.356 0.59,-0.339 0.554,-0.335C0.575,-0.404 0.585,-0.463 0.554,-0.461C0.514,-0.458 0.419,-0.322 0.5,-0.293C0.453,-0.146 0.363,-0.023 0.299,-0.017C0.268,-0.014 0.264,-0.051 0.288,-0.108C0.31,-0.159 0.363,-0.237 0.383,-0.282C0.405,-0.332 0.398,-0.374 0.382,-0.392C0.374,-0.401 0.366,-0.398 0.358,-0.386C0.351,-0.376 0.338,-0.356 0.323,-0.331C0.323,-0.366 0.303,-0.397 0.264,-0.397C0.213,-0.397 0.134,-0.351 0.054,-0.236C-0.029,-0.116 -0.009,0.011 0.083,0.011C0.132,0.011 0.177,-0.028 0.209,-0.069ZM0.279,-0.346C0.308,-0.344 0.299,-0.281 0.237,-0.172C0.186,-0.082 0.134,-0.021 0.094,-0.022C0.055,-0.023 0.066,-0.11 0.12,-0.196C0.175,-0.284 0.248,-0.348 0.279,-0.346Z" style="fill:white;fill-rule:nonzero;"/>
                </g>
            </g>
            <g transform="matrix(0.831423,-0.555639,0.555639,0.831423,-356.689,319.958)">
                <g transform="matrix(27,0,0,27,348.957,747.814)">
                    <path d="M0.092,-0.171C0.162,-0.114 0.229,-0.14 0.278,-0.2C0.32,-0.251 0.328,-0.312 0.31,-0.336C0.294,-0.358 0.276,-0.373 0.251,-0.388C0.201,-0.417 0.099,-0.365 0.034,-0.236C-0.031,-0.107 0.013,0.018 0.14,0.016C0.217,0.015 0.294,-0.031 0.336,-0.092C0.354,-0.118 0.357,-0.146 0.353,-0.154C0.349,-0.163 0.341,-0.163 0.336,-0.155C0.293,-0.089 0.22,-0.009 0.137,-0.013C0.084,-0.016 0.06,-0.079 0.092,-0.171ZM0.101,-0.193C0.103,-0.198 0.106,-0.204 0.109,-0.21C0.156,-0.305 0.239,-0.365 0.26,-0.348C0.274,-0.337 0.252,-0.285 0.22,-0.243C0.191,-0.205 0.15,-0.162 0.101,-0.193Z" style="fill:white;fill-rule:nonzero;"/>
                </g>
            </g>
            <g transform="matrix(0.822356,-0.568973,0.568973,0.822356,-356.633,336.737)">
                <g transform="matrix(27,0,0,27,360.95,739.497)">
                    <path d="M0.098,-0.2C0.187,-0.258 0.299,-0.378 0.33,-0.501C0.342,-0.548 0.336,-0.585 0.307,-0.611C0.293,-0.624 0.279,-0.622 0.264,-0.606C0.162,-0.5 0.048,-0.319 0.011,-0.145C-0.012,-0.037 0.025,0.011 0.094,0.013C0.174,0.015 0.247,-0.068 0.261,-0.098C0.272,-0.122 0.276,-0.144 0.271,-0.16C0.267,-0.174 0.256,-0.173 0.249,-0.16C0.21,-0.083 0.14,-0.011 0.092,-0.015C0.047,-0.019 0.058,-0.102 0.098,-0.2ZM0.116,-0.243C0.123,-0.259 0.131,-0.275 0.14,-0.291C0.209,-0.419 0.283,-0.53 0.296,-0.522C0.309,-0.514 0.253,-0.354 0.116,-0.243Z" style="fill:white;fill-rule:nonzero;"/>
                </g>
            </g>
            <g transform="matrix(0.837839,-0.545917,0.545917,0.837839,-342.424,319.155)">
                <g transform="matrix(27,0,0,27,366.009,735.965)">
                    <path d="M0.232,-0.459C0.219,-0.486 0.19,-0.498 0.174,-0.481C0.158,-0.464 0.153,-0.434 0.169,-0.407C0.184,-0.381 0.212,-0.378 0.225,-0.392C0.238,-0.406 0.245,-0.433 0.232,-0.459ZM0.069,0.015C0.125,0.015 0.188,-0.027 0.218,-0.089C0.23,-0.114 0.233,-0.135 0.225,-0.151C0.221,-0.159 0.214,-0.16 0.209,-0.151C0.179,-0.082 0.124,-0.016 0.079,-0.014C0.047,-0.012 0.045,-0.051 0.069,-0.109C0.09,-0.159 0.132,-0.227 0.153,-0.271C0.177,-0.321 0.169,-0.364 0.154,-0.38C0.146,-0.389 0.139,-0.386 0.13,-0.374C0.093,-0.322 0.027,-0.204 0.002,-0.131C-0.026,-0.049 -0.007,0.015 0.069,0.015Z" style="fill:white;fill-rule:nonzero;"/>
                </g>
            </g>
            <g transform="matrix(0.871836,-0.489797,0.489797,0.871836,-311.487,275.415)">
                <g transform="matrix(27,0,0,27,370.527,732.905)">
                    <path d="M0.415,-0.09C0.432,-0.117 0.437,-0.139 0.435,-0.148C0.433,-0.158 0.424,-0.158 0.418,-0.15C0.378,-0.097 0.323,-0.042 0.239,-0C0.281,-0.097 0.344,-0.218 0.374,-0.278C0.399,-0.327 0.391,-0.37 0.376,-0.388C0.369,-0.397 0.359,-0.396 0.351,-0.382C0.341,-0.365 0.33,-0.347 0.318,-0.327C0.319,-0.362 0.299,-0.393 0.259,-0.393C0.208,-0.393 0.127,-0.348 0.049,-0.232C-0.032,-0.112 -0.014,0.013 0.078,0.013C0.115,0.013 0.15,-0.008 0.179,-0.037C0.169,-0.014 0.16,0.01 0.15,0.032C0.051,0.07 -0.035,0.131 -0.064,0.221C-0.083,0.28 -0.065,0.315 -0.044,0.345C-0.026,0.371 -0.006,0.374 0.014,0.366C0.095,0.334 0.166,0.175 0.221,0.041C0.304,0.011 0.376,-0.029 0.415,-0.09ZM0.231,-0.168C0.18,-0.08 0.129,-0.017 0.09,-0.018C0.05,-0.019 0.061,-0.107 0.115,-0.193C0.17,-0.28 0.243,-0.344 0.274,-0.342C0.303,-0.34 0.294,-0.278 0.231,-0.168ZM0.133,0.073C0.068,0.225 -0.011,0.329 -0.024,0.31C-0.041,0.286 0.003,0.149 0.133,0.073Z" style="fill:white;fill-rule:nonzero;"/>
                </g>
            </g>
            <g transform="matrix(0.920211,-0.391424,0.391424,0.920211,-254.513,206.81)">
                <g transform="matrix(27,0,0,27,380.018,727.689)">
                    <path d="M0.399,-0.091C0.414,-0.121 0.414,-0.142 0.409,-0.153C0.405,-0.161 0.395,-0.161 0.391,-0.152C0.36,-0.088 0.305,-0.016 0.264,-0.014C0.227,-0.012 0.222,-0.059 0.247,-0.117C0.27,-0.169 0.318,-0.242 0.34,-0.286C0.366,-0.337 0.335,-0.387 0.301,-0.391C0.274,-0.394 0.222,-0.361 0.181,-0.321C0.224,-0.388 0.277,-0.469 0.301,-0.509C0.339,-0.572 0.342,-0.622 0.329,-0.651C0.324,-0.663 0.314,-0.664 0.305,-0.652C0.224,-0.551 0.016,-0.199 -0.019,-0.099C-0.04,-0.039 -0.031,-0.011 -0.015,0.007C-0.009,0.014 -0.002,0.012 0.002,0.003C0.026,-0.058 0.063,-0.128 0.099,-0.187C0.157,-0.282 0.266,-0.35 0.28,-0.342C0.296,-0.333 0.209,-0.229 0.176,-0.132C0.146,-0.045 0.167,0.016 0.251,0.016C0.31,0.016 0.371,-0.034 0.399,-0.091Z" style="fill:white;fill-rule:nonzero;"/>
                </g>
            </g>
            <g transform="matrix(0.938973,-0.34399,0.34399,0.938973,-225.193,178.118)">
                <g transform="matrix(27,0,0,27,389.404,723.733)">
                    <path d="M0.125,-0.389C0.082,-0.31 0.04,-0.226 0.019,-0.176C-0.029,-0.061 0.024,0.013 0.09,0.015C0.17,0.018 0.236,-0.07 0.249,-0.099C0.259,-0.122 0.264,-0.14 0.259,-0.156C0.255,-0.17 0.244,-0.168 0.238,-0.156C0.201,-0.081 0.144,-0.01 0.099,-0.012C0.057,-0.014 0.046,-0.076 0.079,-0.149C0.117,-0.233 0.174,-0.33 0.213,-0.397C0.238,-0.401 0.269,-0.404 0.291,-0.401C0.306,-0.401 0.31,-0.408 0.303,-0.42C0.295,-0.433 0.28,-0.451 0.241,-0.45C0.265,-0.502 0.265,-0.535 0.254,-0.563C0.249,-0.575 0.239,-0.576 0.23,-0.563C0.213,-0.541 0.185,-0.494 0.154,-0.439C0.127,-0.436 0.099,-0.434 0.071,-0.435C0.056,-0.436 0.05,-0.429 0.06,-0.415C0.068,-0.404 0.091,-0.389 0.125,-0.389Z" style="fill:white;fill-rule:nonzero;"/>
                </g>
            </g>
            <g transform="matrix(0.948461,-0.316894,0.316894,0.948461,-208.361,162.303)">
                <g transform="matrix(27,0,0,27,394.791,721.717)">
                    <path d="M0.039,-0.164C0.038,-0.172 0.038,-0.18 0.037,-0.188C0.036,-0.204 0.028,-0.208 0.016,-0.198C-0.018,-0.17 -0.021,-0.104 0.003,-0.059C0.037,0.003 0.093,0.018 0.151,0.016C0.222,0.013 0.29,-0.025 0.328,-0.094C0.345,-0.125 0.346,-0.151 0.342,-0.16C0.338,-0.168 0.328,-0.171 0.323,-0.16C0.298,-0.106 0.256,-0.046 0.189,-0.021C0.225,-0.045 0.232,-0.087 0.234,-0.126C0.237,-0.195 0.218,-0.273 0.225,-0.365C0.229,-0.372 0.232,-0.378 0.236,-0.384C0.249,-0.407 0.254,-0.418 0.244,-0.428C0.235,-0.437 0.212,-0.433 0.19,-0.413C0.169,-0.394 0.159,-0.375 0.154,-0.336C0.125,-0.285 0.08,-0.22 0.039,-0.164ZM0.152,-0.272C0.156,-0.192 0.171,-0.035 0.125,-0.021C0.092,-0.011 0.063,-0.052 0.048,-0.11C0.086,-0.164 0.123,-0.219 0.152,-0.272Z" style="fill:white;fill-rule:nonzero;"/>
                </g>
            </g>
            <g transform="matrix(0.957633,-0.287992,0.287992,0.957633,-190.053,146.395)">
                <g transform="matrix(27,0,0,27,402.537,719.142)">
                    <path d="M0.086,0.016C0.077,0.024 0.067,0.029 0.059,0.032C0.054,0.034 0.052,0.041 0.059,0.044C0.094,0.058 0.136,0.029 0.149,-0.01C0.161,-0.046 0.146,-0.077 0.122,-0.078C0.101,-0.079 0.077,-0.061 0.07,-0.031C0.065,-0.009 0.073,0.009 0.086,0.016Z" style="fill:white;fill-rule:nonzero;"/>
                </g>
            </g>
            <g transform="matrix(0.984574,-0.174966,0.174966,0.984574,-118.814,83.551)">
                <g transform="matrix(27,0,0,27,414.437,715.607)">
                    <path d="M0.324,-0.325C0.326,-0.364 0.306,-0.397 0.263,-0.397C0.213,-0.397 0.134,-0.352 0.053,-0.234C-0.03,-0.113 -0.011,0.014 0.082,0.014C0.13,0.014 0.175,-0.023 0.207,-0.064C0.207,-0.017 0.235,0.015 0.289,0.018C0.344,0.021 0.407,-0.034 0.433,-0.089C0.446,-0.117 0.446,-0.142 0.442,-0.151C0.438,-0.16 0.431,-0.159 0.426,-0.15C0.391,-0.081 0.336,-0.013 0.295,-0.011C0.261,-0.009 0.262,-0.052 0.287,-0.108C0.311,-0.161 0.361,-0.236 0.383,-0.281C0.407,-0.331 0.399,-0.374 0.384,-0.392C0.377,-0.401 0.369,-0.399 0.36,-0.386C0.349,-0.37 0.337,-0.349 0.324,-0.325ZM0.237,-0.17C0.186,-0.082 0.134,-0.018 0.093,-0.019C0.054,-0.02 0.067,-0.108 0.12,-0.194C0.175,-0.283 0.248,-0.348 0.28,-0.345C0.309,-0.342 0.3,-0.28 0.237,-0.17Z" style="fill:white;fill-rule:nonzero;"/>
                </g>
            </g>
            <g transform="matrix(0.994241,0.107163,-0.107163,0.994241,78.9362,-41.4682)">
                <g transform="matrix(27,0,0,27,425.318,713.744)">
                    <path d="M0.16,-0.294C0.171,-0.33 0.172,-0.364 0.157,-0.389C0.151,-0.399 0.143,-0.4 0.136,-0.389C0.073,-0.296 -0.004,-0.157 -0.024,-0.094C-0.04,-0.044 -0.034,-0.011 -0.014,0.009C-0.005,0.018 0.001,0.014 0.005,0.005C0.048,-0.089 0.092,-0.185 0.151,-0.249C0.215,-0.319 0.273,-0.347 0.283,-0.343C0.301,-0.335 0.213,-0.229 0.18,-0.131C0.151,-0.044 0.171,0.018 0.256,0.018C0.314,0.018 0.377,-0.033 0.404,-0.089C0.418,-0.118 0.42,-0.141 0.413,-0.152C0.408,-0.16 0.401,-0.16 0.396,-0.151C0.358,-0.081 0.309,-0.015 0.268,-0.013C0.232,-0.011 0.226,-0.058 0.252,-0.116C0.275,-0.168 0.324,-0.242 0.345,-0.286C0.37,-0.338 0.339,-0.387 0.306,-0.392C0.273,-0.397 0.205,-0.342 0.16,-0.294Z" style="fill:white;fill-rule:nonzero;"/>
                </g>
            </g>
            <g transform="matrix(0.973841,0.22723,-0.22723,0.973841,173.826,-80.2933)">
                <g transform="matrix(27,0,0,27,435.648,714.827)">
                    <path d="M0.277,-0.108C0.327,-0.214 0.423,-0.379 0.471,-0.465C0.513,-0.54 0.516,-0.583 0.502,-0.616C0.497,-0.629 0.488,-0.63 0.478,-0.616C0.442,-0.565 0.366,-0.429 0.312,-0.326C0.313,-0.363 0.293,-0.394 0.252,-0.394C0.202,-0.394 0.122,-0.349 0.043,-0.233C-0.039,-0.113 -0.021,0.014 0.072,0.014C0.119,0.014 0.164,-0.023 0.196,-0.063C0.196,-0.016 0.223,0.014 0.277,0.017C0.332,0.02 0.394,-0.033 0.421,-0.088C0.434,-0.115 0.433,-0.141 0.429,-0.15C0.425,-0.158 0.418,-0.158 0.413,-0.149C0.378,-0.08 0.324,-0.013 0.283,-0.011C0.249,-0.009 0.25,-0.05 0.277,-0.108ZM0.268,-0.343C0.297,-0.342 0.282,-0.279 0.224,-0.168C0.177,-0.077 0.123,-0.018 0.083,-0.019C0.044,-0.02 0.055,-0.107 0.109,-0.193C0.164,-0.281 0.237,-0.344 0.268,-0.343Z" style="fill:white;fill-rule:nonzero;"/>
                </g>
            </g>
            <g transform="matrix(0.943317,0.331892,-0.331892,0.943317,264.227,-109.223)">
                <g transform="matrix(27,0,0,27,451.879,718.947)">
                    <path d="M0.386,-0.097C0.403,-0.123 0.406,-0.146 0.404,-0.155C0.402,-0.165 0.393,-0.164 0.388,-0.157C0.348,-0.102 0.289,-0.045 0.211,-0.003C0.253,-0.1 0.314,-0.22 0.344,-0.278C0.37,-0.329 0.362,-0.372 0.348,-0.39C0.339,-0.398 0.332,-0.396 0.323,-0.383C0.288,-0.332 0.245,-0.242 0.202,-0.168C0.151,-0.081 0.101,-0.017 0.062,-0.02C0.039,-0.022 0.037,-0.057 0.057,-0.106C0.076,-0.153 0.098,-0.194 0.134,-0.252C0.171,-0.311 0.177,-0.353 0.153,-0.385C0.146,-0.395 0.136,-0.396 0.128,-0.385C0.063,-0.295 0.014,-0.196 -0.008,-0.132C-0.031,-0.066 -0.029,0.007 0.043,0.013C0.083,0.016 0.121,-0.01 0.152,-0.042C0.141,-0.018 0.131,0.007 0.121,0.03C0.022,0.069 -0.063,0.129 -0.093,0.219C-0.113,0.278 -0.093,0.313 -0.073,0.343C-0.054,0.371 -0.035,0.371 -0.016,0.364C0.067,0.332 0.138,0.171 0.194,0.037C0.277,0.003 0.347,-0.035 0.386,-0.097ZM0.104,0.072C0.042,0.219 -0.04,0.328 -0.053,0.309C-0.071,0.284 -0.026,0.147 0.104,0.072Z" style="fill:white;fill-rule:nonzero;"/>
                </g>
            </g>
            <g transform="matrix(0.868349,0.495953,-0.495953,0.868349,418.766,-133.981)">
                <g transform="matrix(27,0,0,27,461.749,721.795)">
                    <path d="M0.79,-0.09C0.804,-0.117 0.804,-0.143 0.799,-0.152C0.794,-0.161 0.786,-0.16 0.781,-0.151C0.743,-0.081 0.691,-0.015 0.65,-0.013C0.614,-0.011 0.61,-0.052 0.636,-0.11C0.659,-0.162 0.708,-0.235 0.73,-0.28C0.754,-0.33 0.746,-0.373 0.731,-0.391C0.723,-0.4 0.715,-0.398 0.706,-0.385C0.675,-0.342 0.646,-0.273 0.584,-0.172C0.531,-0.085 0.475,-0.017 0.436,-0.02C0.414,-0.022 0.411,-0.057 0.431,-0.106C0.45,-0.153 0.473,-0.193 0.509,-0.252C0.545,-0.311 0.55,-0.353 0.528,-0.386C0.52,-0.395 0.511,-0.396 0.503,-0.385C0.491,-0.368 0.475,-0.346 0.465,-0.33C0.431,-0.275 0.376,-0.228 0.319,-0.227C0.32,-0.235 0.321,-0.241 0.321,-0.247C0.326,-0.321 0.298,-0.327 0.274,-0.357C0.253,-0.384 0.236,-0.393 0.206,-0.391C0.146,-0.387 0.084,-0.331 0.046,-0.262C0.002,-0.182 -0.013,-0.096 0.031,-0.037C0.07,0.015 0.121,0.019 0.158,0.007C0.229,-0.017 0.29,-0.116 0.313,-0.2C0.344,-0.197 0.375,-0.205 0.403,-0.218C0.386,-0.187 0.373,-0.157 0.365,-0.132C0.343,-0.066 0.345,0.007 0.416,0.013C0.473,0.018 0.524,-0.035 0.559,-0.081C0.551,-0.023 0.576,0.017 0.641,0.017C0.7,0.017 0.761,-0.033 0.79,-0.09ZM0.263,-0.318C0.265,-0.301 0.264,-0.276 0.256,-0.247C0.238,-0.263 0.23,-0.288 0.233,-0.315C0.236,-0.343 0.259,-0.35 0.263,-0.318ZM0.249,-0.218C0.24,-0.193 0.23,-0.166 0.214,-0.137C0.164,-0.046 0.102,-0.01 0.076,-0.033C0.05,-0.056 0.064,-0.147 0.106,-0.222C0.128,-0.261 0.158,-0.295 0.184,-0.317C0.184,-0.276 0.215,-0.237 0.249,-0.218Z" style="fill:white;fill-rule:nonzero;"/>
                </g>
            </g>
            <g transform="matrix(0.834022,0.551731,-0.551731,0.834022,486.236,-145.225)">
                <g transform="matrix(27,0,0,27,484.492,735.543)">
                    <path d="M0.209,-0.069C0.208,-0.018 0.238,0.017 0.293,0.013C0.4,0.005 0.49,-0.146 0.539,-0.287C0.57,-0.287 0.613,-0.298 0.657,-0.324C0.614,-0.276 0.553,-0.202 0.533,-0.136C0.509,-0.056 0.539,0.013 0.615,0.016C0.67,0.018 0.729,-0.026 0.755,-0.086C0.767,-0.114 0.764,-0.139 0.759,-0.151C0.755,-0.161 0.748,-0.159 0.744,-0.151C0.712,-0.076 0.662,-0.01 0.62,-0.013C0.589,-0.015 0.578,-0.054 0.595,-0.109C0.611,-0.159 0.662,-0.229 0.709,-0.283C0.738,-0.317 0.714,-0.363 0.695,-0.384C0.686,-0.394 0.679,-0.392 0.665,-0.382C0.627,-0.356 0.59,-0.339 0.554,-0.335C0.575,-0.404 0.585,-0.463 0.554,-0.461C0.514,-0.458 0.419,-0.322 0.5,-0.293C0.453,-0.146 0.363,-0.023 0.299,-0.017C0.268,-0.014 0.264,-0.051 0.288,-0.108C0.31,-0.159 0.363,-0.237 0.383,-0.282C0.405,-0.332 0.398,-0.374 0.382,-0.392C0.374,-0.401 0.366,-0.398 0.358,-0.386C0.351,-0.376 0.338,-0.356 0.323,-0.331C0.323,-0.366 0.303,-0.397 0.264,-0.397C0.213,-0.397 0.134,-0.351 0.054,-0.236C-0.029,-0.116 -0.009,0.011 0.083,0.011C0.132,0.011 0.177,-0.028 0.209,-0.069ZM0.279,-0.346C0.308,-0.344 0.299,-0.281 0.237,-0.172C0.186,-0.082 0.134,-0.021 0.094,-0.022C0.055,-0.023 0.066,-0.11 0.12,-0.196C0.175,-0.284 0.248,-0.348 0.279,-0.346Z" style="fill:white;fill-rule:nonzero;"/>
                </g>
            </g>
            <g transform="matrix(0.873423,0.486963,-0.486963,0.873423,426.907,-149.498)">
                <g transform="matrix(27,0,0,27,501.024,746.44)">
                    <path d="M0.092,-0.171C0.162,-0.114 0.229,-0.14 0.278,-0.2C0.32,-0.251 0.328,-0.312 0.31,-0.336C0.294,-0.358 0.276,-0.373 0.251,-0.388C0.201,-0.417 0.099,-0.365 0.034,-0.236C-0.031,-0.107 0.013,0.018 0.14,0.016C0.217,0.015 0.294,-0.031 0.336,-0.092C0.354,-0.118 0.357,-0.146 0.353,-0.154C0.349,-0.163 0.341,-0.163 0.336,-0.155C0.293,-0.089 0.22,-0.009 0.137,-0.013C0.084,-0.016 0.06,-0.079 0.092,-0.171ZM0.101,-0.193C0.103,-0.198 0.106,-0.204 0.109,-0.21C0.156,-0.305 0.239,-0.365 0.26,-0.348C0.274,-0.337 0.252,-0.285 0.22,-0.243C0.191,-0.205 0.15,-0.162 0.101,-0.193Z" style="fill:white;fill-rule:nonzero;"/>
                </g>
            </g>
            <g transform="matrix(0.969626,-0.244591,0.244591,0.969626,-169.323,148.724)">
                <g transform="matrix(27,0,0,27,514.156,756.115)">
                    <path d="M0.769,-0.089C0.784,-0.12 0.784,-0.14 0.779,-0.152C0.776,-0.16 0.766,-0.16 0.762,-0.152C0.723,-0.08 0.676,-0.015 0.636,-0.014C0.598,-0.013 0.593,-0.058 0.619,-0.115C0.643,-0.167 0.69,-0.239 0.712,-0.284C0.737,-0.335 0.706,-0.386 0.673,-0.39C0.639,-0.394 0.573,-0.34 0.528,-0.293C0.539,-0.328 0.539,-0.362 0.524,-0.387C0.518,-0.396 0.51,-0.396 0.503,-0.385C0.449,-0.303 0.384,-0.23 0.321,-0.229C0.322,-0.235 0.322,-0.242 0.322,-0.247C0.328,-0.319 0.298,-0.325 0.274,-0.357C0.254,-0.384 0.237,-0.393 0.207,-0.39C0.147,-0.385 0.087,-0.328 0.048,-0.26C0.003,-0.182 -0.012,-0.094 0.032,-0.035C0.071,0.018 0.122,0.019 0.158,0.007C0.232,-0.017 0.296,-0.12 0.316,-0.205C0.351,-0.203 0.382,-0.212 0.409,-0.23C0.379,-0.177 0.357,-0.125 0.346,-0.094C0.329,-0.044 0.336,-0.012 0.354,0.008C0.363,0.018 0.37,0.012 0.373,0.005C0.414,-0.089 0.461,-0.185 0.519,-0.248C0.583,-0.318 0.639,-0.344 0.651,-0.34C0.668,-0.334 0.581,-0.228 0.547,-0.13C0.518,-0.045 0.539,0.017 0.622,0.017C0.681,0.017 0.742,-0.033 0.769,-0.089ZM0.258,-0.247C0.238,-0.263 0.231,-0.292 0.234,-0.314C0.238,-0.343 0.259,-0.349 0.264,-0.317C0.267,-0.299 0.264,-0.275 0.258,-0.247ZM0.251,-0.22C0.243,-0.195 0.231,-0.167 0.214,-0.135C0.166,-0.045 0.104,-0.01 0.077,-0.032C0.05,-0.054 0.064,-0.147 0.108,-0.222C0.13,-0.259 0.158,-0.294 0.186,-0.317C0.187,-0.278 0.216,-0.239 0.251,-0.22Z" style="fill:white;fill-rule:nonzero;"/>
                </g>
            </g>
            <g transform="matrix(0.953459,-0.301522,0.301522,0.953459,-201.606,195.889)">
                <g transform="matrix(27,0,0,27,533.747,751.015)">
                    <path d="M0.092,-0.171C0.162,-0.114 0.229,-0.14 0.278,-0.2C0.32,-0.251 0.328,-0.312 0.31,-0.336C0.294,-0.358 0.276,-0.373 0.251,-0.388C0.201,-0.417 0.099,-0.365 0.034,-0.236C-0.031,-0.107 0.013,0.018 0.14,0.016C0.217,0.015 0.294,-0.031 0.336,-0.092C0.354,-0.118 0.357,-0.146 0.353,-0.154C0.349,-0.163 0.341,-0.163 0.336,-0.155C0.293,-0.089 0.22,-0.009 0.137,-0.013C0.084,-0.016 0.06,-0.079 0.092,-0.171ZM0.101,-0.193C0.103,-0.198 0.106,-0.204 0.109,-0.21C0.156,-0.305 0.239,-0.365 0.26,-0.348C0.274,-0.337 0.252,-0.285 0.22,-0.243C0.191,-0.205 0.15,-0.162 0.101,-0.193Z" style="fill:white;fill-rule:nonzero;"/>
                </g>
            </g>
            <g transform="matrix(0.936677,-0.350196,0.350196,0.936677,-226.743,239.036)">
                <g transform="matrix(27,0,0,27,547.596,746.493)">
                    <path d="M0.342,-0.215C0.346,-0.22 0.346,-0.225 0.339,-0.225C0.331,-0.225 0.325,-0.223 0.319,-0.223C0.32,-0.231 0.32,-0.238 0.321,-0.246C0.327,-0.318 0.297,-0.325 0.274,-0.356C0.254,-0.383 0.237,-0.392 0.206,-0.39C0.146,-0.386 0.085,-0.328 0.047,-0.26C0.002,-0.18 -0.013,-0.093 0.031,-0.035C0.071,0.017 0.121,0.021 0.157,0.009C0.231,-0.016 0.294,-0.117 0.315,-0.202C0.325,-0.203 0.335,-0.207 0.342,-0.215ZM0.256,-0.242C0.24,-0.257 0.229,-0.286 0.234,-0.313C0.239,-0.342 0.259,-0.348 0.264,-0.316C0.267,-0.298 0.264,-0.273 0.256,-0.242ZM0.249,-0.215C0.241,-0.191 0.229,-0.163 0.214,-0.135C0.165,-0.043 0.104,-0.008 0.076,-0.031C0.05,-0.053 0.065,-0.145 0.107,-0.221C0.128,-0.259 0.157,-0.292 0.184,-0.315C0.185,-0.278 0.209,-0.243 0.23,-0.227C0.236,-0.222 0.242,-0.218 0.249,-0.215Z" style="fill:white;fill-rule:nonzero;"/>
                </g>
            </g>
            <g transform="matrix(0.927947,-0.372711,0.372711,0.927947,-236.985,260.791)">
                <g transform="matrix(27,0,0,27,556.012,743.329)">
                    <path d="M0.106,-0.184C0.16,-0.289 0.229,-0.402 0.27,-0.47C0.313,-0.543 0.316,-0.586 0.304,-0.62C0.3,-0.632 0.287,-0.633 0.279,-0.621C0.168,-0.455 -0.062,-0.072 -0.09,0.151C-0.101,0.236 -0.071,0.275 -0.046,0.296C-0.016,0.322 0.009,0.318 0.043,0.276C0.091,0.216 0.135,0.105 0.151,0.004C0.211,-0.017 0.261,-0.076 0.271,-0.1C0.28,-0.123 0.286,-0.145 0.281,-0.16C0.276,-0.174 0.266,-0.173 0.26,-0.161C0.234,-0.109 0.194,-0.059 0.156,-0.034C0.157,-0.046 0.158,-0.057 0.158,-0.068C0.159,-0.134 0.144,-0.172 0.106,-0.184ZM0.101,-0.018C0.082,-0.022 0.073,-0.043 0.074,-0.075C0.075,-0.098 0.084,-0.151 0.094,-0.155C0.101,-0.158 0.111,-0.127 0.11,-0.09C0.109,-0.067 0.106,-0.042 0.101,-0.018ZM0.034,-0.029C0.046,-0.005 0.066,0.008 0.095,0.011C0.062,0.148 -0.013,0.286 -0.035,0.257C-0.058,0.228 -0.022,0.104 0.034,-0.029Z" style="fill:white;fill-rule:nonzero;"/>
                </g>
            </g>
            <g transform="matrix(0.910578,-0.413337,0.413337,0.910578,-254.515,300.646)">
                <g transform="matrix(27,0,0,27,567.585,738.549)">
                    <path d="M0.125,-0.389C0.082,-0.31 0.04,-0.226 0.019,-0.176C-0.029,-0.061 0.024,0.013 0.09,0.015C0.17,0.018 0.236,-0.07 0.249,-0.099C0.259,-0.122 0.264,-0.14 0.259,-0.156C0.255,-0.17 0.244,-0.168 0.238,-0.156C0.201,-0.081 0.144,-0.01 0.099,-0.012C0.057,-0.014 0.046,-0.076 0.079,-0.149C0.117,-0.233 0.174,-0.33 0.213,-0.397C0.238,-0.401 0.269,-0.404 0.291,-0.401C0.306,-0.401 0.31,-0.408 0.303,-0.42C0.295,-0.433 0.28,-0.451 0.241,-0.45C0.265,-0.502 0.265,-0.535 0.254,-0.563C0.249,-0.575 0.239,-0.576 0.23,-0.563C0.213,-0.541 0.185,-0.494 0.154,-0.439C0.127,-0.436 0.099,-0.434 0.071,-0.435C0.056,-0.436 0.05,-0.429 0.06,-0.415C0.068,-0.404 0.091,-0.389 0.125,-0.389Z" style="fill:white;fill-rule:nonzero;"/>
                </g>
            </g>
            <g transform="matrix(0.901547,-0.432682,0.432682,0.901547,-262.127,320.361)">
                <g transform="matrix(27,0,0,27,572.897,736.178)">
                    <path d="M0.399,-0.091C0.414,-0.121 0.414,-0.142 0.409,-0.153C0.405,-0.161 0.395,-0.161 0.391,-0.152C0.36,-0.088 0.305,-0.016 0.264,-0.014C0.227,-0.012 0.222,-0.059 0.247,-0.117C0.27,-0.169 0.318,-0.242 0.34,-0.286C0.366,-0.337 0.335,-0.387 0.301,-0.391C0.274,-0.394 0.222,-0.361 0.181,-0.321C0.224,-0.388 0.277,-0.469 0.301,-0.509C0.339,-0.572 0.342,-0.622 0.329,-0.651C0.324,-0.663 0.314,-0.664 0.305,-0.652C0.224,-0.551 0.016,-0.199 -0.019,-0.099C-0.04,-0.039 -0.031,-0.011 -0.015,0.007C-0.009,0.014 -0.002,0.012 0.002,0.003C0.026,-0.058 0.063,-0.128 0.099,-0.187C0.157,-0.282 0.266,-0.35 0.28,-0.342C0.296,-0.333 0.209,-0.229 0.176,-0.132C0.146,-0.045 0.167,0.016 0.251,0.016C0.31,0.016 0.371,-0.034 0.399,-0.091Z" style="fill:white;fill-rule:nonzero;"/>
                </g>
            </g>
            <g transform="matrix(0.887975,-0.459892,0.459892,0.887975,-271.338,349.656)">
                <g transform="matrix(27,0,0,27,582.044,731.784)">
                    <path d="M0.092,-0.171C0.162,-0.114 0.229,-0.14 0.278,-0.2C0.32,-0.251 0.328,-0.312 0.31,-0.336C0.294,-0.358 0.276,-0.373 0.251,-0.388C0.201,-0.417 0.099,-0.365 0.034,-0.236C-0.031,-0.107 0.013,0.018 0.14,0.016C0.217,0.015 0.294,-0.031 0.336,-0.092C0.354,-0.118 0.357,-0.146 0.353,-0.154C0.349,-0.163 0.341,-0.163 0.336,-0.155C0.293,-0.089 0.22,-0.009 0.137,-0.013C0.084,-0.016 0.06,-0.079 0.092,-0.171ZM0.101,-0.193C0.103,-0.198 0.106,-0.204 0.109,-0.21C0.156,-0.305 0.239,-0.365 0.26,-0.348C0.274,-0.337 0.252,-0.285 0.22,-0.243C0.191,-0.205 0.15,-0.162 0.101,-0.193Z" style="fill:white;fill-rule:nonzero;"/>
                </g>
            </g>
            <g transform="matrix(0.867072,-0.498183,0.498183,0.867072,-282.082,392.765)">
                <g transform="matrix(27,0,0,27,594.954,724.971)">
                    <path d="M0.098,-0.2C0.187,-0.258 0.299,-0.378 0.33,-0.501C0.342,-0.548 0.336,-0.585 0.307,-0.611C0.293,-0.624 0.279,-0.622 0.264,-0.606C0.162,-0.5 0.048,-0.319 0.011,-0.145C-0.012,-0.037 0.025,0.011 0.094,0.013C0.174,0.015 0.247,-0.068 0.261,-0.098C0.272,-0.122 0.276,-0.144 0.271,-0.16C0.267,-0.174 0.256,-0.173 0.249,-0.16C0.21,-0.083 0.14,-0.011 0.092,-0.015C0.047,-0.019 0.058,-0.102 0.098,-0.2ZM0.116,-0.243C0.123,-0.259 0.131,-0.275 0.14,-0.291C0.209,-0.419 0.283,-0.53 0.296,-0.522C0.309,-0.514 0.253,-0.354 0.116,-0.243Z" style="fill:white;fill-rule:nonzero;"/>
                </g>
            </g>
            <g transform="matrix(0.859878,-0.510499,0.510499,0.859878,-284.394,407.633)">
                <g transform="matrix(27,0,0,27,600.359,721.877)">
                    <path d="M0.232,-0.459C0.219,-0.486 0.19,-0.498 0.174,-0.481C0.158,-0.464 0.153,-0.434 0.169,-0.407C0.184,-0.381 0.212,-0.378 0.225,-0.392C0.238,-0.406 0.245,-0.433 0.232,-0.459ZM0.069,0.015C0.125,0.015 0.188,-0.027 0.218,-0.089C0.23,-0.114 0.233,-0.135 0.225,-0.151C0.221,-0.159 0.214,-0.16 0.209,-0.151C0.179,-0.082 0.124,-0.016 0.079,-0.014C0.047,-0.012 0.045,-0.051 0.069,-0.109C0.09,-0.159 0.132,-0.227 0.153,-0.271C0.177,-0.321 0.169,-0.364 0.154,-0.38C0.146,-0.389 0.139,-0.386 0.13,-0.374C0.093,-0.322 0.027,-0.204 0.002,-0.131C-0.026,-0.049 -0.007,0.015 0.069,0.015Z" style="fill:white;fill-rule:nonzero;"/>
                </g>
            </g>
            <g transform="matrix(0.848594,-0.529044,0.529044,0.848594,-288.857,428.962)">
                <g transform="matrix(27,0,0,27,605.015,719.146)">
                    <path d="M0.415,-0.09C0.432,-0.117 0.437,-0.139 0.435,-0.148C0.433,-0.158 0.424,-0.158 0.418,-0.15C0.378,-0.097 0.323,-0.042 0.239,-0C0.281,-0.097 0.344,-0.218 0.374,-0.278C0.399,-0.327 0.391,-0.37 0.376,-0.388C0.369,-0.397 0.359,-0.396 0.351,-0.382C0.341,-0.365 0.33,-0.347 0.318,-0.327C0.319,-0.362 0.299,-0.393 0.259,-0.393C0.208,-0.393 0.127,-0.348 0.049,-0.232C-0.032,-0.112 -0.014,0.013 0.078,0.013C0.115,0.013 0.15,-0.008 0.179,-0.037C0.169,-0.014 0.16,0.01 0.15,0.032C0.051,0.07 -0.035,0.131 -0.064,0.221C-0.083,0.28 -0.065,0.315 -0.044,0.345C-0.026,0.371 -0.006,0.374 0.014,0.366C0.095,0.334 0.166,0.175 0.221,0.041C0.304,0.011 0.376,-0.029 0.415,-0.09ZM0.231,-0.168C0.18,-0.08 0.129,-0.017 0.09,-0.018C0.05,-0.019 0.061,-0.107 0.115,-0.193C0.17,-0.28 0.243,-0.344 0.274,-0.342C0.303,-0.34 0.294,-0.278 0.231,-0.168ZM0.133,0.073C0.068,0.225 -0.011,0.329 -0.024,0.31C-0.041,0.286 0.003,0.149 0.133,0.073Z" style="fill:white;fill-rule:nonzero;"/>
                </g>
            </g>
            <g transform="matrix(0.830547,-0.556948,0.556948,0.830547,-293.242,462.974)">
                <g transform="matrix(27,0,0,27,614.217,713.393)">
                    <path d="M0.399,-0.091C0.414,-0.121 0.414,-0.142 0.409,-0.153C0.405,-0.161 0.395,-0.161 0.391,-0.152C0.36,-0.088 0.305,-0.016 0.264,-0.014C0.227,-0.012 0.222,-0.059 0.247,-0.117C0.27,-0.169 0.318,-0.242 0.34,-0.286C0.366,-0.337 0.335,-0.387 0.301,-0.391C0.274,-0.394 0.222,-0.361 0.181,-0.321C0.224,-0.388 0.277,-0.469 0.301,-0.509C0.339,-0.572 0.342,-0.622 0.329,-0.651C0.324,-0.663 0.314,-0.664 0.305,-0.652C0.224,-0.551 0.016,-0.199 -0.019,-0.099C-0.04,-0.039 -0.031,-0.011 -0.015,0.007C-0.009,0.014 -0.002,0.012 0.002,0.003C0.026,-0.058 0.063,-0.128 0.099,-0.187C0.157,-0.282 0.266,-0.35 0.28,-0.342C0.296,-0.333 0.209,-0.229 0.176,-0.132C0.146,-0.045 0.167,0.016 0.251,0.016C0.31,0.016 0.371,-0.034 0.399,-0.091Z" style="fill:white;fill-rule:nonzero;"/>
                </g>
            </g>
            <g transform="matrix(0.814942,-0.579542,0.579542,0.814942,-294.921,491.828)">
                <g transform="matrix(27,0,0,27,622.664,707.713)">
                    <path d="M0.125,-0.389C0.082,-0.31 0.04,-0.226 0.019,-0.176C-0.029,-0.061 0.024,0.013 0.09,0.015C0.17,0.018 0.236,-0.07 0.249,-0.099C0.259,-0.122 0.264,-0.14 0.259,-0.156C0.255,-0.17 0.244,-0.168 0.238,-0.156C0.201,-0.081 0.144,-0.01 0.099,-0.012C0.057,-0.014 0.046,-0.076 0.079,-0.149C0.117,-0.233 0.174,-0.33 0.213,-0.397C0.238,-0.401 0.269,-0.404 0.291,-0.401C0.306,-0.401 0.31,-0.408 0.303,-0.42C0.295,-0.433 0.28,-0.451 0.241,-0.45C0.265,-0.502 0.265,-0.535 0.254,-0.563C0.249,-0.575 0.239,-0.576 0.23,-0.563C0.213,-0.541 0.185,-0.494 0.154,-0.439C0.127,-0.436 0.099,-0.434 0.071,-0.435C0.056,-0.436 0.05,-0.429 0.06,-0.415C0.068,-0.404 0.091,-0.389 0.125,-0.389Z" style="fill:white;fill-rule:nonzero;"/>
                </g>
            </g>
            <g transform="matrix(0.804253,-0.594286,0.594286,0.804253,-295.804,510.725)">
                <g transform="matrix(27,0,0,27,627.379,704.393)">
                    <path d="M0.039,-0.164C0.038,-0.172 0.038,-0.18 0.037,-0.188C0.036,-0.204 0.028,-0.208 0.016,-0.198C-0.018,-0.17 -0.021,-0.104 0.003,-0.059C0.037,0.003 0.093,0.018 0.151,0.016C0.222,0.013 0.29,-0.025 0.328,-0.094C0.345,-0.125 0.346,-0.151 0.342,-0.16C0.338,-0.168 0.328,-0.171 0.323,-0.16C0.298,-0.106 0.256,-0.046 0.189,-0.021C0.225,-0.045 0.232,-0.087 0.234,-0.126C0.237,-0.195 0.218,-0.273 0.225,-0.365C0.229,-0.372 0.232,-0.378 0.236,-0.384C0.249,-0.407 0.254,-0.418 0.244,-0.428C0.235,-0.437 0.212,-0.433 0.19,-0.413C0.169,-0.394 0.159,-0.375 0.154,-0.336C0.125,-0.285 0.08,-0.22 0.039,-0.164ZM0.152,-0.272C0.156,-0.192 0.171,-0.035 0.125,-0.021C0.092,-0.011 0.063,-0.052 0.048,-0.11C0.086,-0.164 0.123,-0.219 0.152,-0.272Z" style="fill:white;fill-rule:nonzero;"/>
                </g>
            </g>
            <g transform="matrix(0.792592,-0.609752,0.609752,0.792592,-295.062,531.632)">
                <g transform="matrix(27,0,0,27,633.934,699.538)">
                    <path d="M0.086,0.016C0.077,0.024 0.067,0.029 0.059,0.032C0.054,0.034 0.052,0.041 0.059,0.044C0.094,0.058 0.136,0.029 0.149,-0.01C0.161,-0.046 0.146,-0.077 0.122,-0.078C0.101,-0.079 0.077,-0.061 0.07,-0.031C0.065,-0.009 0.073,0.009 0.086,0.016Z" style="fill:white;fill-rule:nonzero;"/>
                </g>
            </g>
            <g transform="matrix(0.766997,-0.641651,0.641651,0.766997,-293.982,574.23)">
                <g transform="matrix(27,0,0,27,643.675,691.904)">
                    <path d="M0.125,-0.389C0.082,-0.31 0.04,-0.226 0.019,-0.176C-0.029,-0.061 0.024,0.013 0.09,0.015C0.17,0.018 0.236,-0.07 0.249,-0.099C0.259,-0.122 0.264,-0.14 0.259,-0.156C0.255,-0.17 0.244,-0.168 0.238,-0.156C0.201,-0.081 0.144,-0.01 0.099,-0.012C0.057,-0.014 0.046,-0.076 0.079,-0.149C0.117,-0.233 0.174,-0.33 0.213,-0.397C0.238,-0.401 0.269,-0.404 0.291,-0.401C0.306,-0.401 0.31,-0.408 0.303,-0.42C0.295,-0.433 0.28,-0.451 0.241,-0.45C0.265,-0.502 0.265,-0.535 0.254,-0.563C0.249,-0.575 0.239,-0.576 0.23,-0.563C0.213,-0.541 0.185,-0.494 0.154,-0.439C0.127,-0.436 0.099,-0.434 0.071,-0.435C0.056,-0.436 0.05,-0.429 0.06,-0.415C0.068,-0.404 0.091,-0.389 0.125,-0.389Z" style="fill:white;fill-rule:nonzero;"/>
                </g>
            </g>
            <g transform="matrix(0.753869,-0.657024,0.657024,0.753869,-292.648,595.234)">
                <g transform="matrix(27,0,0,27,648.138,688.217)">
                    <path d="M0.399,-0.091C0.414,-0.121 0.414,-0.142 0.409,-0.153C0.405,-0.161 0.395,-0.161 0.391,-0.152C0.36,-0.088 0.305,-0.016 0.264,-0.014C0.227,-0.012 0.222,-0.059 0.247,-0.117C0.27,-0.169 0.318,-0.242 0.34,-0.286C0.366,-0.337 0.335,-0.387 0.301,-0.391C0.274,-0.394 0.222,-0.361 0.181,-0.321C0.224,-0.388 0.277,-0.469 0.301,-0.509C0.339,-0.572 0.342,-0.622 0.329,-0.651C0.324,-0.663 0.314,-0.664 0.305,-0.652C0.224,-0.551 0.016,-0.199 -0.019,-0.099C-0.04,-0.039 -0.031,-0.011 -0.015,0.007C-0.009,0.014 -0.002,0.012 0.002,0.003C0.026,-0.058 0.063,-0.128 0.099,-0.187C0.157,-0.282 0.266,-0.35 0.28,-0.342C0.296,-0.333 0.209,-0.229 0.176,-0.132C0.146,-0.045 0.167,0.016 0.251,0.016C0.31,0.016 0.371,-0.034 0.399,-0.091Z" style="fill:white;fill-rule:nonzero;"/>
                </g>
            </g>
            <g transform="matrix(0.734239,-0.678891,0.678891,0.734239,-288.398,626.344)">
                <g transform="matrix(27,0,0,27,655.805,681.531)">
                    <path d="M0.092,-0.171C0.162,-0.114 0.229,-0.14 0.278,-0.2C0.32,-0.251 0.328,-0.312 0.31,-0.336C0.294,-0.358 0.276,-0.373 0.251,-0.388C0.201,-0.417 0.099,-0.365 0.034,-0.236C-0.031,-0.107 0.013,0.018 0.14,0.016C0.217,0.015 0.294,-0.031 0.336,-0.092C0.354,-0.118 0.357,-0.146 0.353,-0.154C0.349,-0.163 0.341,-0.163 0.336,-0.155C0.293,-0.089 0.22,-0.009 0.137,-0.013C0.084,-0.016 0.06,-0.079 0.092,-0.171ZM0.101,-0.193C0.103,-0.198 0.106,-0.204 0.109,-0.21C0.156,-0.305 0.239,-0.365 0.26,-0.348C0.274,-0.337 0.252,-0.285 0.22,-0.243C0.191,-0.205 0.15,-0.162 0.101,-0.193Z" style="fill:white;fill-rule:nonzero;"/>
                </g>
            </g>
            <g transform="matrix(0.704706,-0.7095,0.7095,0.704706,-279.668,671.143)">
                <g transform="matrix(27,0,0,27,666.44,671.548)">
                    <path d="M0.098,-0.2C0.187,-0.258 0.299,-0.378 0.33,-0.501C0.342,-0.548 0.336,-0.585 0.307,-0.611C0.293,-0.624 0.279,-0.622 0.264,-0.606C0.162,-0.5 0.048,-0.319 0.011,-0.145C-0.012,-0.037 0.025,0.011 0.094,0.013C0.174,0.015 0.247,-0.068 0.261,-0.098C0.272,-0.122 0.276,-0.144 0.271,-0.16C0.267,-0.174 0.256,-0.173 0.249,-0.16C0.21,-0.083 0.14,-0.011 0.092,-0.015C0.047,-0.019 0.058,-0.102 0.098,-0.2ZM0.116,-0.243C0.123,-0.259 0.131,-0.275 0.14,-0.291C0.209,-0.419 0.283,-0.53 0.296,-0.522C0.309,-0.514 0.253,-0.354 0.116,-0.243Z" style="fill:white;fill-rule:nonzero;"/>
                </g>
            </g>
            <g transform="matrix(0.694718,-0.719282,0.719282,0.694718,-275.066,686.184)">
                <g transform="matrix(27,0,0,27,670.835,667.137)">
                    <path d="M0.232,-0.459C0.219,-0.486 0.19,-0.498 0.174,-0.481C0.158,-0.464 0.153,-0.434 0.169,-0.407C0.184,-0.381 0.212,-0.378 0.225,-0.392C0.238,-0.406 0.245,-0.433 0.232,-0.459ZM0.069,0.015C0.125,0.015 0.188,-0.027 0.218,-0.089C0.23,-0.114 0.233,-0.135 0.225,-0.151C0.221,-0.159 0.214,-0.16 0.209,-0.151C0.179,-0.082 0.124,-0.016 0.079,-0.014C0.047,-0.012 0.045,-0.051 0.069,-0.109C0.09,-0.159 0.132,-0.227 0.153,-0.271C0.177,-0.321 0.169,-0.364 0.154,-0.38C0.146,-0.389 0.139,-0.386 0.13,-0.374C0.093,-0.322 0.027,-0.204 0.002,-0.131C-0.026,-0.049 -0.007,0.015 0.069,0.015Z" style="fill:white;fill-rule:nonzero;"/>
                </g>
            </g>
            <g transform="matrix(0.679186,-0.733966,0.733966,0.679186,-270.381,707.931)">
                <g transform="matrix(27,0,0,27,674.621,663.257)">
                    <path d="M0.415,-0.09C0.432,-0.117 0.437,-0.139 0.435,-0.148C0.433,-0.158 0.424,-0.158 0.418,-0.15C0.378,-0.097 0.323,-0.042 0.239,-0C0.281,-0.097 0.344,-0.218 0.374,-0.278C0.399,-0.327 0.391,-0.37 0.376,-0.388C0.369,-0.397 0.359,-0.396 0.351,-0.382C0.341,-0.365 0.33,-0.347 0.318,-0.327C0.319,-0.362 0.299,-0.393 0.259,-0.393C0.208,-0.393 0.127,-0.348 0.049,-0.232C-0.032,-0.112 -0.014,0.013 0.078,0.013C0.115,0.013 0.15,-0.008 0.179,-0.037C0.169,-0.014 0.16,0.01 0.15,0.032C0.051,0.07 -0.035,0.131 -0.064,0.221C-0.083,0.28 -0.065,0.315 -0.044,0.345C-0.026,0.371 -0.006,0.374 0.014,0.366C0.095,0.334 0.166,0.175 0.221,0.041C0.304,0.011 0.376,-0.029 0.415,-0.09ZM0.231,-0.168C0.18,-0.08 0.129,-0.017 0.09,-0.018C0.05,-0.019 0.061,-0.107 0.115,-0.193C0.17,-0.28 0.243,-0.344 0.274,-0.342C0.303,-0.34 0.294,-0.278 0.231,-0.168ZM0.133,0.073C0.068,0.225 -0.011,0.329 -0.024,0.31C-0.041,0.286 0.003,0.149 0.133,0.073Z" style="fill:white;fill-rule:nonzero;"/>
                </g>
            </g>
            <g transform="matrix(0.654996,-0.755632,0.755632,0.654996,-259.897,741.393)">
                <g transform="matrix(27,0,0,27,681.956,655.312)">
                    <path d="M0.399,-0.091C0.414,-0.121 0.414,-0.142 0.409,-0.153C0.405,-0.161 0.395,-0.161 0.391,-0.152C0.36,-0.088 0.305,-0.016 0.264,-0.014C0.227,-0.012 0.222,-0.059 0.247,-0.117C0.27,-0.169 0.318,-0.242 0.34,-0.286C0.366,-0.337 0.335,-0.387 0.301,-0.391C0.274,-0.394 0.222,-0.361 0.181,-0.321C0.224,-0.388 0.277,-0.469 0.301,-0.509C0.339,-0.572 0.342,-0.622 0.329,-0.651C0.324,-0.663 0.314,-0.664 0.305,-0.652C0.224,-0.551 0.016,-0.199 -0.019,-0.099C-0.04,-0.039 -0.031,-0.011 -0.015,0.007C-0.009,0.014 -0.002,0.012 0.002,0.003C0.026,-0.058 0.063,-0.128 0.099,-0.187C0.157,-0.282 0.266,-0.35 0.28,-0.342C0.296,-0.333 0.209,-0.229 0.176,-0.132C0.146,-0.045 0.167,0.016 0.251,0.016C0.31,0.016 0.371,-0.034 0.399,-0.091Z" style="fill:white;fill-rule:nonzero;"/>
                </g>
            </g>
            <g transform="matrix(0.634436,-0.772976,0.772976,0.634436,-248.837,769.031)">
                <g transform="matrix(27,0,0,27,688.629,647.594)">
                    <path d="M0.125,-0.389C0.082,-0.31 0.04,-0.226 0.019,-0.176C-0.029,-0.061 0.024,0.013 0.09,0.015C0.17,0.018 0.236,-0.07 0.249,-0.099C0.259,-0.122 0.264,-0.14 0.259,-0.156C0.255,-0.17 0.244,-0.168 0.238,-0.156C0.201,-0.081 0.144,-0.01 0.099,-0.012C0.057,-0.014 0.046,-0.076 0.079,-0.149C0.117,-0.233 0.174,-0.33 0.213,-0.397C0.238,-0.401 0.269,-0.404 0.291,-0.401C0.306,-0.401 0.31,-0.408 0.303,-0.42C0.295,-0.433 0.28,-0.451 0.241,-0.45C0.265,-0.502 0.265,-0.535 0.254,-0.563C0.249,-0.575 0.239,-0.576 0.23,-0.563C0.213,-0.541 0.185,-0.494 0.154,-0.439C0.127,-0.436 0.099,-0.434 0.071,-0.435C0.056,-0.436 0.05,-0.429 0.06,-0.415C0.068,-0.404 0.091,-0.389 0.125,-0.389Z" style="fill:white;fill-rule:nonzero;"/>
                </g>
            </g>
            <g transform="matrix(0.606483,-0.795097,0.795097,0.606483,-233.772,804.669)">
                <g transform="matrix(27,0,0,27,696.025,638.502)">
                    <path d="M0.342,-0.215C0.346,-0.22 0.346,-0.225 0.339,-0.225C0.331,-0.225 0.325,-0.223 0.319,-0.223C0.32,-0.231 0.32,-0.238 0.321,-0.246C0.327,-0.318 0.297,-0.325 0.274,-0.356C0.254,-0.383 0.237,-0.392 0.206,-0.39C0.146,-0.386 0.085,-0.328 0.047,-0.26C0.002,-0.18 -0.013,-0.093 0.031,-0.035C0.071,0.017 0.121,0.021 0.157,0.009C0.231,-0.016 0.294,-0.117 0.315,-0.202C0.325,-0.203 0.335,-0.207 0.342,-0.215ZM0.256,-0.242C0.24,-0.257 0.229,-0.286 0.234,-0.313C0.239,-0.342 0.259,-0.348 0.264,-0.316C0.267,-0.298 0.264,-0.273 0.256,-0.242ZM0.249,-0.215C0.241,-0.191 0.229,-0.163 0.214,-0.135C0.165,-0.043 0.104,-0.008 0.076,-0.031C0.05,-0.053 0.065,-0.145 0.107,-0.221C0.128,-0.259 0.157,-0.292 0.184,-0.315C0.185,-0.278 0.209,-0.243 0.23,-0.227C0.236,-0.222 0.242,-0.218 0.249,-0.215Z" style="fill:white;fill-rule:nonzero;"/>
                </g>
            </g>
            <g transform="matrix(0.589974,-0.807422,0.807422,0.589974,-222.185,825.241)">
                <g transform="matrix(27,0,0,27,701.438,631.384)">
                    <path d="M0.106,-0.184C0.16,-0.289 0.229,-0.402 0.27,-0.47C0.313,-0.543 0.316,-0.586 0.304,-0.62C0.3,-0.632 0.287,-0.633 0.279,-0.621C0.168,-0.455 -0.062,-0.072 -0.09,0.151C-0.101,0.236 -0.071,0.275 -0.046,0.296C-0.016,0.322 0.009,0.318 0.043,0.276C0.091,0.216 0.135,0.105 0.151,0.004C0.211,-0.017 0.261,-0.076 0.271,-0.1C0.28,-0.123 0.286,-0.145 0.281,-0.16C0.276,-0.174 0.266,-0.173 0.26,-0.161C0.234,-0.109 0.194,-0.059 0.156,-0.034C0.157,-0.046 0.158,-0.057 0.158,-0.068C0.159,-0.134 0.144,-0.172 0.106,-0.184ZM0.101,-0.018C0.082,-0.022 0.073,-0.043 0.074,-0.075C0.075,-0.098 0.084,-0.151 0.094,-0.155C0.101,-0.158 0.111,-0.127 0.11,-0.09C0.109,-0.067 0.106,-0.042 0.101,-0.018ZM0.034,-0.029C0.046,-0.005 0.066,0.008 0.095,0.011C0.062,0.148 -0.013,0.286 -0.035,0.257C-0.058,0.228 -0.022,0.104 0.034,-0.029Z" style="fill:white;fill-rule:nonzero;"/>
                </g>
            </g>
            <g transform="matrix(0.55353,-0.832829,0.832829,0.55353,-200.887,867.641)">
                <g transform="matrix(27,0,0,27,708.79,621.184)">
                    <path d="M0.324,-0.325C0.326,-0.364 0.306,-0.397 0.263,-0.397C0.213,-0.397 0.134,-0.352 0.053,-0.234C-0.03,-0.113 -0.011,0.014 0.082,0.014C0.13,0.014 0.175,-0.023 0.207,-0.064C0.207,-0.017 0.235,0.015 0.289,0.018C0.344,0.021 0.407,-0.034 0.433,-0.089C0.446,-0.117 0.446,-0.142 0.442,-0.151C0.438,-0.16 0.431,-0.159 0.426,-0.15C0.391,-0.081 0.336,-0.013 0.295,-0.011C0.261,-0.009 0.262,-0.052 0.287,-0.108C0.311,-0.161 0.361,-0.236 0.383,-0.281C0.407,-0.331 0.399,-0.374 0.384,-0.392C0.377,-0.401 0.369,-0.399 0.36,-0.386C0.349,-0.37 0.337,-0.349 0.324,-0.325ZM0.237,-0.17C0.186,-0.082 0.134,-0.018 0.093,-0.019C0.054,-0.02 0.067,-0.108 0.12,-0.194C0.175,-0.283 0.248,-0.348 0.28,-0.345C0.309,-0.342 0.3,-0.28 0.237,-0.17Z" style="fill:white;fill-rule:nonzero;"/>
                </g>
            </g>
            <g transform="matrix(0.53109,-0.847315,0.847315,0.53109,-183.406,892.703)">
                <g transform="matrix(27,0,0,27,714.849,612.058)">
                    <path d="M0.098,-0.2C0.187,-0.258 0.299,-0.378 0.33,-0.501C0.342,-0.548 0.336,-0.585 0.307,-0.611C0.293,-0.624 0.279,-0.622 0.264,-0.606C0.162,-0.5 0.048,-0.319 0.011,-0.145C-0.012,-0.037 0.025,0.011 0.094,0.013C0.174,0.015 0.247,-0.068 0.261,-0.098C0.272,-0.122 0.276,-0.144 0.271,-0.16C0.267,-0.174 0.256,-0.173 0.249,-0.16C0.21,-0.083 0.14,-0.011 0.092,-0.015C0.047,-0.019 0.058,-0.102 0.098,-0.2ZM0.116,-0.243C0.123,-0.259 0.131,-0.275 0.14,-0.291C0.209,-0.419 0.283,-0.53 0.296,-0.522C0.309,-0.514 0.253,-0.354 0.116,-0.243Z" style="fill:white;fill-rule:nonzero;"/>
                </g>
            </g>
            <g transform="matrix(0.516429,-0.85633,0.85633,0.516429,-172.341,908.425)">
                <g transform="matrix(27,0,0,27,718.17,606.807)">
                    <path d="M0.098,-0.2C0.187,-0.258 0.299,-0.378 0.33,-0.501C0.342,-0.548 0.336,-0.585 0.307,-0.611C0.293,-0.624 0.279,-0.622 0.264,-0.606C0.162,-0.5 0.048,-0.319 0.011,-0.145C-0.012,-0.037 0.025,0.011 0.094,0.013C0.174,0.015 0.247,-0.068 0.261,-0.098C0.272,-0.122 0.276,-0.144 0.271,-0.16C0.267,-0.174 0.256,-0.173 0.249,-0.16C0.21,-0.083 0.14,-0.011 0.092,-0.015C0.047,-0.019 0.058,-0.102 0.098,-0.2ZM0.116,-0.243C0.123,-0.259 0.131,-0.275 0.14,-0.291C0.209,-0.419 0.283,-0.53 0.296,-0.522C0.309,-0.514 0.253,-0.354 0.116,-0.243Z" style="fill:white;fill-rule:nonzero;"/>
                </g>
            </g>
            <g transform="matrix(0.487631,-0.87305,0.87305,0.487631,-149.469,938.004)">
                <g transform="matrix(27,0,0,27,724.42,596.346)">
                    <path d="M0.098,-0.2C0.187,-0.258 0.299,-0.378 0.33,-0.501C0.342,-0.548 0.336,-0.585 0.307,-0.611C0.293,-0.624 0.279,-0.622 0.264,-0.606C0.162,-0.5 0.048,-0.319 0.011,-0.145C-0.012,-0.037 0.025,0.011 0.094,0.013C0.174,0.015 0.247,-0.068 0.261,-0.098C0.272,-0.122 0.276,-0.144 0.271,-0.16C0.267,-0.174 0.256,-0.173 0.249,-0.16C0.21,-0.083 0.14,-0.011 0.092,-0.015C0.047,-0.019 0.058,-0.102 0.098,-0.2ZM0.116,-0.243C0.123,-0.259 0.131,-0.275 0.14,-0.291C0.209,-0.419 0.283,-0.53 0.296,-0.522C0.309,-0.514 0.253,-0.354 0.116,-0.243Z" style="fill:white;fill-rule:nonzero;"/>
                </g>
            </g>
            <g transform="matrix(0.476502,-0.879173,0.879173,0.476502,-138.704,948.91)">
                <g transform="matrix(27,0,0,27,727.458,590.926)">
                    <path d="M0.232,-0.459C0.219,-0.486 0.19,-0.498 0.174,-0.481C0.158,-0.464 0.153,-0.434 0.169,-0.407C0.184,-0.381 0.212,-0.378 0.225,-0.392C0.238,-0.406 0.245,-0.433 0.232,-0.459ZM0.069,0.015C0.125,0.015 0.188,-0.027 0.218,-0.089C0.23,-0.114 0.233,-0.135 0.225,-0.151C0.221,-0.159 0.214,-0.16 0.209,-0.151C0.179,-0.082 0.124,-0.016 0.079,-0.014C0.047,-0.012 0.045,-0.051 0.069,-0.109C0.09,-0.159 0.132,-0.227 0.153,-0.271C0.177,-0.321 0.169,-0.364 0.154,-0.38C0.146,-0.389 0.139,-0.386 0.13,-0.374C0.093,-0.322 0.027,-0.204 0.002,-0.131C-0.026,-0.049 -0.007,0.015 0.069,0.015Z" style="fill:white;fill-rule:nonzero;"/>
                </g>
            </g>
            <g transform="matrix(0.459452,-0.888203,0.888203,0.459452,-126.018,965.299)">
                <g transform="matrix(27,0,0,27,730.057,586.182)">
                    <path d="M0.415,-0.09C0.432,-0.117 0.437,-0.139 0.435,-0.148C0.433,-0.158 0.424,-0.158 0.418,-0.15C0.378,-0.097 0.323,-0.042 0.239,-0C0.281,-0.097 0.344,-0.218 0.374,-0.278C0.399,-0.327 0.391,-0.37 0.376,-0.388C0.369,-0.397 0.359,-0.396 0.351,-0.382C0.341,-0.365 0.33,-0.347 0.318,-0.327C0.319,-0.362 0.299,-0.393 0.259,-0.393C0.208,-0.393 0.127,-0.348 0.049,-0.232C-0.032,-0.112 -0.014,0.013 0.078,0.013C0.115,0.013 0.15,-0.008 0.179,-0.037C0.169,-0.014 0.16,0.01 0.15,0.032C0.051,0.07 -0.035,0.131 -0.064,0.221C-0.083,0.28 -0.065,0.315 -0.044,0.345C-0.026,0.371 -0.006,0.374 0.014,0.366C0.095,0.334 0.166,0.175 0.221,0.041C0.304,0.011 0.376,-0.029 0.415,-0.09ZM0.231,-0.168C0.18,-0.08 0.129,-0.017 0.09,-0.018C0.05,-0.019 0.061,-0.107 0.115,-0.193C0.17,-0.28 0.243,-0.344 0.274,-0.342C0.303,-0.34 0.294,-0.278 0.231,-0.168ZM0.133,0.073C0.068,0.225 -0.011,0.329 -0.024,0.31C-0.041,0.286 0.003,0.149 0.133,0.073Z" style="fill:white;fill-rule:nonzero;"/>
                </g>
            </g>
            <g transform="matrix(0.433418,-0.901193,0.901193,0.433418,-103.123,989.063)">
                <g transform="matrix(27,0,0,27,735.029,576.544)">
                    <path d="M0.399,-0.091C0.414,-0.121 0.414,-0.142 0.409,-0.153C0.405,-0.161 0.395,-0.161 0.391,-0.152C0.36,-0.088 0.305,-0.016 0.264,-0.014C0.227,-0.012 0.222,-0.059 0.247,-0.117C0.27,-0.169 0.318,-0.242 0.34,-0.286C0.366,-0.337 0.335,-0.387 0.301,-0.391C0.274,-0.394 0.222,-0.361 0.181,-0.321C0.224,-0.388 0.277,-0.469 0.301,-0.509C0.339,-0.572 0.342,-0.622 0.329,-0.651C0.324,-0.663 0.314,-0.664 0.305,-0.652C0.224,-0.551 0.016,-0.199 -0.019,-0.099C-0.04,-0.039 -0.031,-0.011 -0.015,0.007C-0.009,0.014 -0.002,0.012 0.002,0.003C0.026,-0.058 0.063,-0.128 0.099,-0.187C0.157,-0.282 0.266,-0.35 0.28,-0.342C0.296,-0.333 0.209,-0.229 0.176,-0.132C0.146,-0.045 0.167,0.016 0.251,0.016C0.31,0.016 0.371,-0.034 0.399,-0.091Z" style="fill:white;fill-rule:nonzero;"/>
                </g>
            </g>
            <g transform="matrix(0.41207,-0.911152,0.911152,0.41207,-82.2635,1007.31)">
                <g transform="matrix(27,0,0,27,739.415,567.4)">
                    <path d="M0.125,-0.389C0.082,-0.31 0.04,-0.226 0.019,-0.176C-0.029,-0.061 0.024,0.013 0.09,0.015C0.17,0.018 0.236,-0.07 0.249,-0.099C0.259,-0.122 0.264,-0.14 0.259,-0.156C0.255,-0.17 0.244,-0.168 0.238,-0.156C0.201,-0.081 0.144,-0.01 0.099,-0.012C0.057,-0.014 0.046,-0.076 0.079,-0.149C0.117,-0.233 0.174,-0.33 0.213,-0.397C0.238,-0.401 0.269,-0.404 0.291,-0.401C0.306,-0.401 0.31,-0.408 0.303,-0.42C0.295,-0.433 0.28,-0.451 0.241,-0.45C0.265,-0.502 0.265,-0.535 0.254,-0.563C0.249,-0.575 0.239,-0.576 0.23,-0.563C0.213,-0.541 0.185,-0.494 0.154,-0.439C0.127,-0.436 0.099,-0.434 0.071,-0.435C0.056,-0.436 0.05,-0.429 0.06,-0.415C0.068,-0.404 0.091,-0.389 0.125,-0.389Z" style="fill:white;fill-rule:nonzero;"/>
                </g>
            </g>
            <g transform="matrix(0.397827,-0.91746,0.91746,0.397827,-69.0093,1019.09)">
                <g transform="matrix(27,0,0,27,741.829,562.115)">
                    <path d="M0.039,-0.164C0.038,-0.172 0.038,-0.18 0.037,-0.188C0.036,-0.204 0.028,-0.208 0.016,-0.198C-0.018,-0.17 -0.021,-0.104 0.003,-0.059C0.037,0.003 0.093,0.018 0.151,0.016C0.222,0.013 0.29,-0.025 0.328,-0.094C0.345,-0.125 0.346,-0.151 0.342,-0.16C0.338,-0.168 0.328,-0.171 0.323,-0.16C0.298,-0.106 0.256,-0.046 0.189,-0.021C0.225,-0.045 0.232,-0.087 0.234,-0.126C0.237,-0.195 0.218,-0.273 0.225,-0.365C0.229,-0.372 0.232,-0.378 0.236,-0.384C0.249,-0.407 0.254,-0.418 0.244,-0.428C0.235,-0.437 0.212,-0.433 0.19,-0.413C0.169,-0.394 0.159,-0.375 0.154,-0.336C0.125,-0.285 0.08,-0.22 0.039,-0.164ZM0.152,-0.272C0.156,-0.192 0.171,-0.035 0.125,-0.021C0.092,-0.011 0.063,-0.052 0.048,-0.11C0.086,-0.164 0.123,-0.219 0.152,-0.272Z" style="fill:white;fill-rule:nonzero;"/>
                </g>
            </g>
            <g transform="matrix(0.383374,-0.923593,0.923593,0.383374,-52.8311,1030.14)">
                <g transform="matrix(27,0,0,27,745.063,554.634)">
                    <path d="M0.06,-0.043C0.049,-0.019 0.055,0.01 0.075,0.017C0.095,0.024 0.121,0.008 0.132,-0.018C0.143,-0.045 0.137,-0.071 0.117,-0.078C0.097,-0.085 0.072,-0.07 0.06,-0.043Z" style="fill:white;fill-rule:nonzero;"/>
                </g>
            </g>
        </g>
    </g>
</svg>
