<?xml version="1.0" encoding="UTF-8" standalone="no"?>
<!DOCTYPE svg PUBLIC "-//W3C//DTD SVG 1.1//EN" "http://www.w3.org/Graphics/SVG/1.1/DTD/svg11.dtd">
<svg width="100%" height="100%" viewBox="0 0 95 79" version="1.1" xmlns="http://www.w3.org/2000/svg" xmlns:xlink="http://www.w3.org/1999/xlink" xml:space="preserve" xmlns:serif="http://www.serif.com/" style="fill-rule:evenodd;clip-rule:evenodd;stroke-linejoin:round;stroke-miterlimit:2;">
    <g transform="matrix(1,0,0,1,-504.112,-141.081)">
        <g id="g3070" transform="matrix(0.999998,-0.0019513,0.0019513,0.999998,452.379,84.9201)">
            <g transform="matrix(-7.63746,-12.91,12.91,-7.63746,66.4745,128.277)">
                <g id="g2978">
                    <g id="g2976">
                        <path id="path2974" d="M0.091,0L0.091,-0.727L0.273,-0.727L0.273,-0.091L0.636,-0.091L0.636,0L0.091,0Z" style="fill-rule:nonzero;"/>
                    </g>
                </g>
            </g>
            <g transform="matrix(-3.53791,-14.5768,14.5768,-3.53791,61.0525,119.495)">
                <g id="g2984">
                    <g id="g2982">
                        <path id="path2980" d="M0.545,-0.091L0.545,-0.364L0.273,-0.364L0.273,-0.091L0.545,-0.091ZM0.182,0L0.182,-0.091L0.091,-0.091L0.091,-0.364L0.182,-0.364L0.182,-0.454L0.636,-0.454L0.636,-0.364L0.727,-0.364L0.727,-0.091L0.636,-0.091L0.636,0L0.182,0Z" style="fill-rule:nonzero;"/>
                    </g>
                </g>
            </g>
            <g transform="matrix(1.15546,-14.9554,14.9554,1.15546,58.2107,108.129)">
                <g id="g2990">
                    <g id="g2988">
                        <path id="path2986" d="M0.273,0L0.273,-0.091L0.182,-0.091L0.182,-0.182L0.091,-0.182L0.091,-0.454L0.273,-0.454L0.273,-0.182L0.364,-0.182L0.364,-0.091L0.454,-0.091L0.454,-0.182L0.545,-0.182L0.545,-0.454L0.727,-0.454L0.727,-0.182L0.636,-0.182L0.636,-0.091L0.545,-0.091L0.545,0L0.273,0Z" style="fill-rule:nonzero;"/>
                    </g>
                </g>
            </g>
            <g transform="matrix(5.75351,-13.8527,13.8527,5.75351,59.0192,96.4644)">
                <g id="g2996">
                    <g id="g2994">
                        <path id="path2992" d="M0.545,-0.273L0.545,-0.364L0.273,-0.364L0.273,-0.273L0.545,-0.273ZM0.182,0L0.182,-0.091L0.091,-0.091L0.091,-0.364L0.182,-0.364L0.182,-0.454L0.636,-0.454L0.636,-0.364L0.727,-0.364L0.727,-0.182L0.273,-0.182L0.273,-0.091L0.636,-0.091L0.636,0L0.182,0Z" style="fill-rule:nonzero;"/>
                    </g>
                </g>
            </g>
            <g transform="matrix(11.2363,-9.93707,9.93707,11.2363,66.6214,81.1292)">
                <g id="g3002">
                    <g id="g3000">
                        <path id="path2998" d="M0.545,-0.091L0.545,-0.182L0.273,-0.182L0.273,-0.091L0.545,-0.091ZM0.182,0L0.182,-0.091L0.091,-0.091L0.091,-0.182L0.182,-0.182L0.182,-0.273L0.545,-0.273L0.545,-0.364L0.182,-0.364L0.182,-0.454L0.636,-0.454L0.636,-0.364L0.727,-0.364L0.727,0L0.182,0Z" style="fill-rule:nonzero;"/>
                    </g>
                </g>
            </g>
            <g transform="matrix(13.4457,-6.6492,6.6492,13.4457,75.3996,73.4973)">
                <g id="g3008">
                    <g id="g3006">
                        <path id="path3004" d="M0.273,0L0.273,-0.091L0.182,-0.091L0.182,-0.364L0.091,-0.364L0.091,-0.454L0.182,-0.454L0.182,-0.727L0.364,-0.727L0.364,-0.454L0.545,-0.454L0.545,-0.364L0.364,-0.364L0.364,-0.091L0.545,-0.091L0.545,0L0.273,0Z" style="fill-rule:nonzero;"/>
                    </g>
                </g>
            </g>
            <g transform="matrix(14.9377,-1.36602,1.36602,14.9377,88.6393,67.9523)">
                <g id="g3014">
                    <g id="g3012">
                        <path id="path3010" d="M0.182,0L0.182,-0.364L0.091,-0.364L0.091,-0.454L0.182,-0.454L0.182,-0.636L0.273,-0.636L0.273,-0.727L0.545,-0.727L0.545,-0.636L0.364,-0.636L0.364,-0.454L0.545,-0.454L0.545,-0.364L0.364,-0.364L0.364,0L0.182,0Z" style="fill-rule:nonzero;"/>
                    </g>
                </g>
            </g>
            <g transform="matrix(14.9525,1.19302,-1.19302,14.9525,97.4679,67.2618)">
                <g id="g3020">
                    <g id="g3018">
                        <path id="path3016" d="M0.091,0L0.091,-0.454L0.273,-0.454L0.273,0L0.091,0ZM0.091,-0.545L0.091,-0.727L0.273,-0.727L0.273,-0.545L0.091,-0.545Z" style="fill-rule:nonzero;"/>
                    </g>
                </g>
            </g>
            <g transform="matrix(14.4511,4.02076,-4.02076,14.4511,102.311,67.3232)">
                <g id="g3026">
                    <g id="g3024">
                        <path id="path3022" d="M0.091,0L0.091,-0.454L0.273,-0.454L0.273,-0.364L0.364,-0.364L0.364,-0.273L0.273,-0.273L0.273,0L0.091,0ZM0.364,-0.364L0.364,-0.454L0.636,-0.454L0.636,-0.364L0.364,-0.364Z" style="fill-rule:nonzero;"/>
                    </g>
                </g>
            </g>
            <g transform="matrix(12.768,7.8727,-7.8727,12.768,112.29,69.9107)">
                <g id="g3032">
                    <g id="g3030">
                        <path id="path3028" d="M0.091,0L0.091,-0.091L0.545,-0.091L0.545,-0.182L0.182,-0.182L0.182,-0.273L0.091,-0.273L0.091,-0.364L0.182,-0.364L0.182,-0.454L0.636,-0.454L0.636,-0.364L0.273,-0.364L0.273,-0.273L0.636,-0.273L0.636,-0.182L0.727,-0.182L0.727,-0.091L0.636,-0.091L0.636,0L0.091,0Z" style="fill-rule:nonzero;"/>
                    </g>
                </g>
            </g>
            <g transform="matrix(10.2483,10.9532,-10.9532,10.2483,122.149,76.1021)">
                <g id="g3038">
                    <g id="g3036">
                        <path id="path3034" d="M0.273,0L0.273,-0.091L0.182,-0.091L0.182,-0.364L0.091,-0.364L0.091,-0.454L0.182,-0.454L0.182,-0.727L0.364,-0.727L0.364,-0.454L0.545,-0.454L0.545,-0.364L0.364,-0.364L0.364,-0.091L0.545,-0.091L0.545,0L0.273,0Z" style="fill-rule:nonzero;"/>
                    </g>
                </g>
            </g>
            <g transform="matrix(5.92591,13.7798,-13.7798,5.92591,131.136,87.2461)">
                <g id="g3044">
                    <g id="g3042">
                        <path id="path3040" d="M0.182,0L0.182,-0.091L0.091,-0.091L0.091,-0.727L0.273,-0.727L0.273,-0.091L0.364,-0.091L0.364,0L0.182,0Z" style="fill-rule:nonzero;"/>
                    </g>
                </g>
            </g>
            <g transform="matrix(3.81615,14.5064,-14.5064,3.81615,133.563,92.8879)">
                <g id="g3050">
                    <g id="g3048">
                        <path id="path3046" d="M0.091,0L0.091,-0.454L0.273,-0.454L0.273,0L0.091,0ZM0.091,-0.545L0.091,-0.727L0.273,-0.727L0.273,-0.545L0.091,-0.545Z" style="fill-rule:nonzero;"/>
                    </g>
                </g>
            </g>
            <g transform="matrix(0.511605,14.9913,-14.9913,0.511605,135.229,97.4688)">
                <g id="g3056">
                    <g id="g3054">
                        <path id="path3052" d="M0.545,-0.091L0.545,-0.364L0.273,-0.364L0.273,-0.091L0.545,-0.091ZM0.182,0.273L0.182,0.182L0.545,0.182L0.545,0L0.182,0L0.182,-0.091L0.091,-0.091L0.091,-0.364L0.182,-0.364L0.182,-0.454L0.727,-0.454L0.727,0.182L0.636,0.182L0.636,0.273L0.182,0.273Z" style="fill-rule:nonzero;"/>
                    </g>
                </g>
            </g>
            <g transform="matrix(-4.16098,14.4113,-14.4113,-4.16098,135.727,109.156)">
                <g id="g3062">
                    <g id="g3060">
                        <path id="path3058" d="M0.091,0L0.091,-0.727L0.273,-0.727L0.273,-0.454L0.636,-0.454L0.636,-0.364L0.727,-0.364L0.727,0L0.545,0L0.545,-0.364L0.273,-0.364L0.273,0L0.091,0Z" style="fill-rule:nonzero;"/>
                    </g>
                </g>
            </g>
            <g transform="matrix(-7.95036,12.7197,-12.7197,-7.95036,132.389,120.317)">
                <g id="g3068">
                    <g id="g3066">
                        <path id="path3064" d="M0.273,0L0.273,-0.091L0.182,-0.091L0.182,-0.364L0.091,-0.364L0.091,-0.454L0.182,-0.454L0.182,-0.727L0.364,-0.727L0.364,-0.454L0.545,-0.454L0.545,-0.364L0.364,-0.364L0.364,-0.091L0.545,-0.091L0.545,0L0.273,0Z" style="fill-rule:nonzero;"/>
                    </g>
                </g>
            </g>
        </g>
        <path id="path5258" d="M544.49,158.552C542.775,158.821 541.087,159.271 540.66,159.572C540.528,159.665 540.075,159.816 539.652,159.907C539.23,159.998 538.342,160.335 537.679,160.656C537.016,160.977 536.366,161.24 536.233,161.24C536.101,161.241 535.993,161.348 535.993,161.48C535.993,161.612 535.859,161.724 535.694,161.73C535.421,161.739 533.823,162.708 531.263,164.415C530.723,164.774 530.195,165.208 530.088,165.379C529.98,165.549 529.516,166 529.056,166.379C527.718,167.481 525.525,170.081 524.183,172.157C522.889,174.156 521.409,177.071 521.41,177.617C521.41,177.791 521.318,178.036 521.204,178.161C521.091,178.286 520.886,178.82 520.749,179.347C520.612,179.874 520.306,180.953 520.07,181.743C519.465,183.767 519.454,191.965 520.053,194.436C520.866,197.792 520.996,198.284 521.315,199.224C523.422,205.423 527.244,210.823 531.887,214.156C534.346,215.921 537.968,217.794 539.557,218.122C539.953,218.204 540.492,218.364 540.755,218.477C541.439,218.772 545.011,219.373 546.984,219.525C547.906,219.596 548.822,219.677 549.02,219.706C549.816,219.822 554.76,219.361 556.443,219.014C559.304,218.424 562.505,217.365 564.342,216.4C565.869,215.599 567.455,214.674 568.055,214.237C572.143,211.256 573.457,210.02 576.002,206.765L576.779,205.771L576.725,172.481L575.384,170.602C573.951,168.595 571.325,165.779 570.098,164.934C569.687,164.651 568.554,163.87 567.581,163.199C566.019,162.122 564.988,161.577 562.216,160.361C561.82,160.188 560.85,159.864 560.059,159.642C559.269,159.42 558.144,159.088 557.561,158.906C556.977,158.723 555.953,158.572 555.285,158.571C554.617,158.571 553.908,158.462 553.71,158.332C553.262,158.035 546.809,158.189 544.49,158.552L544.49,158.552ZM551.437,159.176C551.568,159.236 552.646,159.391 553.832,159.521C555.018,159.65 556.581,159.873 557.305,160.015C560.637,160.671 565.091,162.597 567.97,164.628C570.224,166.217 573.883,169.824 575.055,171.612L576.007,173.064L576.014,177.538C576.018,179.998 575.941,182.012 575.842,182.012C575.743,182.012 575.448,181.339 575.185,180.516C573.719,175.913 570.744,171.841 566.42,168.517C565.694,167.959 564.723,167.296 564.262,167.044C563.801,166.791 563.369,166.528 563.303,166.458C563.06,166.203 559.782,164.815 558.28,164.332C555.644,163.485 553.743,163.248 549.647,163.254C545.559,163.261 545.007,163.347 541.506,164.519C536.546,166.181 532.071,169.466 528.541,174.036C527.285,175.663 525.628,179.091 524.935,181.496C524.745,182.155 524.443,183.179 524.263,183.772C523.581,186.022 523.922,193.731 524.799,195.866C524.907,196.129 525.062,196.649 525.144,197.022C525.434,198.343 527.911,203.217 528.631,203.883C528.702,203.948 529.077,204.433 529.464,204.959C530.477,206.334 533.037,208.768 534.733,209.969C536.205,211.011 539.773,212.965 540.202,212.965C540.33,212.964 540.774,213.121 541.19,213.314C541.981,213.68 543.21,214.013 545.419,214.459C547.148,214.808 553.831,214.797 555.358,214.443C556.016,214.29 557.093,214.038 557.752,213.884C558.41,213.729 559.051,213.506 559.176,213.387C559.301,213.269 559.573,213.173 559.781,213.172C560.585,213.17 565.046,210.751 566.796,209.367C568.125,208.316 570.481,205.945 571.476,204.657C572.8,202.942 572.912,202.759 574.03,200.456C574.511,199.467 574.985,198.493 575.086,198.291C575.186,198.089 575.343,197.577 575.436,197.153C575.834,195.324 576.006,196.684 575.891,200.752C575.777,204.762 575.722,205.193 575.227,205.962C574.466,207.145 569.452,212.199 569.04,212.199C568.896,212.199 566.462,213.843 566.015,214.242C565.818,214.418 565.36,214.637 564.998,214.728C564.636,214.819 564.34,214.963 564.34,215.048C564.34,215.134 563.99,215.351 563.562,215.532C563.134,215.713 562.477,216.007 562.102,216.186C561.727,216.364 561.053,216.579 560.604,216.664C560.154,216.75 559.728,216.915 559.656,217.032C559.584,217.148 559.269,217.244 558.955,217.245C558.641,217.245 558.327,217.338 558.258,217.452C557.982,217.9 551.761,218.506 548.629,218.39C545.401,218.27 542.287,217.904 541.472,217.549C541.209,217.434 540.4,217.157 539.675,216.934C538.097,216.449 534.469,214.703 533.821,214.117C533.566,213.888 533.162,213.638 532.922,213.562C532.681,213.486 532.484,213.331 532.484,213.217C532.484,213.103 532.284,212.946 532.039,212.869C531.321,212.642 528.003,209.196 526.46,207.074C524.319,204.13 522.438,200.042 521.581,196.47C520.991,194.01 520.472,190.088 520.469,188.063C520.466,186.185 521.04,181.906 521.414,181.023C521.525,180.759 521.685,180.227 521.769,179.841C521.854,179.454 522.123,178.722 522.367,178.213C522.612,177.704 522.882,176.969 522.967,176.579C523.052,176.19 523.194,175.871 523.283,175.87C523.372,175.87 523.583,175.557 523.752,175.175C524.336,173.849 526.793,170.383 528.133,168.993C529.969,167.089 531.859,165.319 532.055,165.318C532.145,165.318 532.625,164.994 533.124,164.598C533.622,164.202 534.149,163.878 534.295,163.878C534.44,163.878 534.559,163.77 534.559,163.638C534.559,163.506 534.695,163.398 534.862,163.398C535.029,163.398 535.541,163.151 535.999,162.85C536.457,162.548 537.748,161.944 538.867,161.508C539.986,161.071 541.074,160.624 541.285,160.514C541.496,160.404 542.196,160.236 542.841,160.142C543.486,160.047 544.121,159.889 544.252,159.791C544.614,159.521 550.995,158.975 551.436,159.176L551.437,159.176ZM563.909,175.146C563.976,175.442 564.06,176.223 564.096,176.882C564.15,177.889 564.236,178.083 564.639,178.103C564.903,178.116 566.597,178.14 568.405,178.157L571.692,178.187L571.836,185.252L573.179,185.32L574.522,185.389L574.678,187.21C574.876,189.5 574.882,191.442 574.695,191.933C574.572,192.256 574.015,192.313 570.983,192.318L567.416,192.325L567.402,185.38L568.945,185.378C569.793,185.376 570.532,185.295 570.586,185.196C570.64,185.097 570.63,183.696 570.565,182.082L570.447,179.149L564.039,179.161L564.041,180.598C564.043,181.504 563.944,182.035 563.774,182.035C563.625,182.035 562.442,181.498 561.145,180.842C559.848,180.185 558.729,179.648 558.659,179.649C558.589,179.649 558.532,179.972 558.533,180.367C558.534,180.974 558.441,181.086 557.935,181.087C557.396,181.088 557.336,180.992 557.335,180.13L557.333,179.172L550.627,179.184L550.639,185.65L553.992,185.646L554.006,192.591L550.724,192.595L550.56,196.242C550.47,198.248 550.591,200.089 550.553,200.127C550.515,200.165 548.599,200.11 546.57,200.21L542.882,200.392L542.809,201.29C542.752,201.993 542.636,202.188 542.272,202.189C541.901,202.189 541.807,202.021 541.806,201.351C541.804,200.36 541.618,200.327 540.292,201.085C538.771,201.954 536.522,203.156 536.417,203.156C536.366,203.156 536.29,202.483 536.25,201.66L536.176,200.163L528.632,200.043L528.576,197.475C528.546,196.062 528.507,194.422 528.491,193.829L528.46,192.751L526.983,192.682L525.506,192.613L525.492,185.451L532.677,185.437L532.691,192.622L529.578,192.626L529.59,199.093L531.206,199.089C532.095,199.087 533.55,199.014 534.439,198.929L536.055,198.774L536.053,197.132C536.051,196.164 536.152,195.49 536.298,195.49C536.433,195.489 537.656,196.242 539.014,197.162C540.373,198.082 541.556,198.834 541.644,198.834C541.732,198.834 541.803,198.295 541.802,197.636C541.8,196.598 541.864,196.439 542.279,196.438C542.699,196.437 542.758,196.597 542.76,197.74C542.761,198.457 542.879,199.115 543.021,199.202C543.163,199.29 544.675,199.282 546.38,199.184L549.482,199.006L549.338,192.714L548.021,192.597L546.703,192.479L546.631,189.066L546.559,185.654L549.446,185.65L549.432,177.986L557.336,177.972L557.334,176.774C557.332,175.657 557.372,175.577 557.93,175.576C558.48,175.575 558.529,175.663 558.531,176.653C558.532,177.245 558.588,177.73 558.657,177.73C558.725,177.73 559.846,177.028 561.147,176.169C562.448,175.311 563.574,174.609 563.65,174.609C563.726,174.609 563.842,174.851 563.91,175.147L563.909,175.146ZM561.153,177.494C560.37,178.027 559.73,178.545 559.731,178.644C559.731,178.855 562.166,180.118 562.571,180.118C562.754,180.117 562.845,179.515 562.844,178.321C562.842,177.333 562.781,176.525 562.708,176.525C562.635,176.525 561.935,176.961 561.153,177.494ZM526.492,186.981C526.444,187.233 526.482,188.338 526.575,189.436L526.744,191.432L531.491,191.426L531.483,186.38L529.031,186.452C526.836,186.517 526.571,186.572 526.493,186.982L526.492,186.981ZM568.608,188.814L568.611,191.055L573.641,191.108L573.635,186.566L568.606,186.574L568.608,188.814ZM547.773,189.123L547.776,191.398L552.805,191.39L552.799,186.839L547.77,186.847L547.773,189.123ZM537.187,199.378C537.26,200.465 537.338,201.378 537.361,201.407C537.481,201.563 540.363,199.871 540.364,199.643C540.366,199.396 537.567,197.409 537.211,197.404C537.125,197.404 537.114,198.292 537.187,199.378L537.187,199.378Z"/>
    </g>
</svg>
