<?xml version="1.0" encoding="UTF-8" standalone="no"?>
<!DOCTYPE svg PUBLIC "-//W3C//DTD SVG 1.1//EN" "http://www.w3.org/Graphics/SVG/1.1/DTD/svg11.dtd">
<svg width="100%" height="100%" viewBox="0 0 707 710" version="1.1" xmlns="http://www.w3.org/2000/svg" xmlns:xlink="http://www.w3.org/1999/xlink" xml:space="preserve" xmlns:serif="http://www.serif.com/" style="fill-rule:evenodd;clip-rule:evenodd;stroke-linejoin:round;stroke-miterlimit:2;">
    <g transform="matrix(1,0,0,1,-69.8383,-67.3528)">
        <g transform="matrix(-1,0,0,1,720.551,1.04075)">
            <g id="path1297" transform="matrix(0.264583,0,0,0.264583,0,0)">
                <path d="M1123.48,250.628C386.168,250.628 -212.438,851.23 -212.438,1590.98C-212.438,2330.74 386.168,2931.31 1123.48,2931.31L1127.8,2931.31C1863.18,2928.93 2459.39,2329.26 2459.39,1590.98L2459.39,1587.13L2459.35,1582.8L2459.32,1578.34L2459.27,1574.26L2459.22,1569.59L2459.16,1565.62L2459.05,1560.8L2458.96,1556.94L2458.85,1552.32L2458.71,1548.24L2458.57,1544.02L2458.42,1539.51L2458.25,1535.49L2458.05,1530.81L2457.89,1526.89L2457.66,1522.08L2457.46,1518.25L2457.21,1513.8L2456.95,1509.6L2456.7,1505.47L2456.41,1500.93L2456.15,1496.96L2455.82,1492.29L2455.53,1488.4L2455.16,1483.67L2454.85,1479.81L2454.48,1475.48L2454.12,1471.23L2453.75,1467.14L2453.32,1462.61L2452.95,1458.66L2452.5,1454.02L2452.07,1450.16L2451.59,1445.6L2451.17,1441.63L2450.68,1437.32L2450.2,1433.1L2449.72,1429.04L2449.18,1424.56L2448.67,1420.62L2448.1,1416.18L2447.6,1412.21L2447,1407.81L2446.43,1403.73L2445.83,1399.48C2445.64,1398.09 2445.44,1396.7 2445.21,1395.31L2444.62,1391.2L2444,1386.98L2443.34,1382.78C2416.81,1212.51 2358.33,1052.83 2274.2,910.137L2272.1,906.594L2270.26,903.505L2268.22,900.072L2266.23,896.783L2264.48,893.893C2263.68,892.618 2262.89,891.316 2262.1,890.012C2247.02,868.441 2215.8,822.378 2186.66,779.688L2184.57,776.937L2181.9,773.476L2179.8,770.758L2177.11,767.27L2173.94,763.217L2171.05,759.563L2167.98,755.704L2164.25,750.998L2161.07,747.029L2157.95,743.203L2154.41,738.896L2151.09,734.871L2147.89,731.045L2144.43,726.904L2141.05,722.94L2137.66,718.909C2134.88,715.649 2132.07,712.42 2129.23,709.16L2127.51,707.178L2124.14,703.352L2120.62,699.382L2117.16,695.523L2113.64,691.587C2109.02,686.485 2104.37,681.412 2099.7,676.395L2097.89,674.435L2094.4,670.726L2090.77,666.895L2087.17,663.124L2083.51,659.299C2081.73,657.456 2079.94,655.615 2078.16,653.801C2077.9,653.546 2077.62,653.319 2077.36,653.092L2077.33,652.948C2075.49,651.049 2073.65,649.178 2071.8,647.307L2071.55,647.251C2070.73,646.344 2069.9,645.468 2069.08,644.561L2066.27,641.754L2063.44,638.947L2060.63,636.14L2057.8,633.361L2054.93,630.554L2052.1,627.78L2049.24,625.028L2046.38,622.249L2043.49,619.531L2040.62,616.779L2037.73,614.033L2034.81,611.309L2031.92,608.591L2029,605.894L2026.08,603.176L2023.13,600.48L2020.18,597.817L2017.24,595.126L2014.29,592.458L2011.31,589.795L2008.34,587.159L2005.36,584.524L2002.36,581.883L1999.35,579.248L1996.34,576.64L1993.34,574.032L1990.31,571.425L1985.97,567.743L1982.91,565.135L1979.82,562.528L1976.73,559.948L1973.61,557.34L1970.49,554.788L1967.38,552.208L1964.25,549.656L1961.14,547.131L1957.99,544.584L1954.85,542.087L1951.7,539.563L1948.53,537.071L1945.35,534.574L1942.17,532.083L1939,529.614L1935.83,527.15L1932.62,524.681L1929.42,522.245L1926.19,519.809L1922.99,517.367L1919.75,514.959L1916.52,512.55L1913.26,510.17L1910.03,507.761L1906.77,505.381L1903.51,503.028L1900.22,500.675L1896.97,498.322L1893.68,495.997L1890.39,493.644L1887.1,491.318L1883.78,489.021L1880.47,486.729L1877.15,484.431L1873.83,482.161L1870.48,479.897L1867.14,477.627L1863.8,475.39L1860.45,473.148L1857.08,470.911L1853.7,468.696L1850.33,466.487L1846.96,464.278L1843.56,462.092L1840.18,459.91L1836.78,457.757L1833.35,455.603L1829.95,453.449L1826.52,451.296L1823.09,449.17L1819.66,447.071L1816.23,444.945L1812.77,442.847L1809.32,440.776L1805.86,438.678L1802.37,436.613L1798.91,434.57L1795.43,432.527L1791.94,430.49L1788.45,428.447L1784.93,426.437L1781.42,424.449L1777.91,422.44L1774.39,420.452L1770.88,418.498L1767.34,416.516L1763.79,414.556L1760.25,412.629L1756.7,410.703L1753.13,408.776L1749.56,406.877L1745.99,404.978L1742.42,403.079L1738.82,401.208L1735.25,399.336L1731.65,397.465L1728.05,395.621L1724.42,393.778L1720.82,391.967L1717.19,390.151L1713.56,388.335L1709.93,386.553L1706.27,384.764L1702.65,383.009L1698.99,381.221L1695.33,379.494L1691.65,377.733L1687.99,376.006L1684.31,374.306L1680.62,372.606L1676.94,370.907L1673.22,369.202L1669.54,367.53L1665.83,365.885L1662.11,364.213L1658.4,362.569L1654.69,360.952L1650.94,359.341L1647.2,357.725L1643.46,356.136L1639.72,354.547L1635.98,352.963L1628.44,349.841L1624.67,348.313L1620.9,346.779L1617.1,345.251L1613.33,343.751L1609.53,342.245L1605.73,340.772L1601.93,339.299L1598.11,337.854L1594.29,336.376L1590.47,334.931L1586.64,333.514L1582.81,332.096L1578.98,330.707L1575.13,329.29L1571.28,327.933L1567.43,326.543L1563.56,325.181L1559.7,323.847L1555.83,322.518L1551.95,321.184L1548.07,319.883L1544.18,318.577L1540.29,317.275L1536.39,315.997L1532.49,314.723L1528.58,313.472L1524.67,312.226L1520.75,311.008L1516.83,309.79L1512.9,308.572L1508.97,307.382L1505.03,306.192L1501.08,305.029L1497.14,303.866L1493.18,302.704L1489.22,301.569L1485.26,300.461L1481.29,299.332L1477.31,298.252L1473.34,297.145L1469.35,296.071L1465.36,295.019L1461.37,293.973L1457.37,292.921L1453.37,291.902L1449.35,290.883L1445.34,289.859L1441.32,288.868L1437.3,287.905L1433.27,286.941L1429.24,285.978L1425.2,285.042L1421.16,284.107L1417.11,283.171L1413.07,282.263L1409.01,281.388L1404.94,280.508L1400.88,279.628L1396.81,278.781L1392.74,277.928L1388.65,277.103L1384.58,276.284L1380.49,275.464L1376.4,274.667L1372.3,273.903L1368.2,273.111L1364.09,272.37L1359.98,271.606L1355.87,270.897L1351.75,270.161L1347.62,269.452L1343.5,268.771L1339.37,268.09L1335.23,267.409L1331.09,266.761L1326.95,266.108L1322.8,265.482L1318.65,264.862L1314.49,264.264L1310.33,263.672L1306.16,263.102L1301.99,262.537L1297.82,261.967L1293.64,261.43L1289.46,260.893L1285.28,260.383L1281.09,259.902L1276.9,259.387L1272.7,258.938L1268.5,258.457L1264.29,258.003L1260.08,257.576L1255.87,257.15L1251.66,256.751L1247.43,256.358L1243.21,255.96L1238.98,255.589L1234.75,255.223L1230.51,254.88L1226.28,254.57L1222.03,254.232L1217.79,253.944L1213.53,253.634L1209.28,253.38L1205.02,253.097L1200.76,252.843L1196.5,252.616L1192.23,252.389L1187.95,252.189L1183.68,251.99L1179.4,251.791L1175.12,251.625L1170.84,251.481L1166.55,251.309L1162.26,251.198L1157.96,251.082L1153.66,250.971L1149.36,250.888L1145.05,250.8L1140.74,250.744L1136.43,250.717L1132.11,250.661L1127.8,250.661L1123.48,250.628ZM1126.95,280.802C1127.38,280.802 1127.81,280.829 1128.24,280.829L1131.38,280.829L1132.11,280.862L1132.7,280.862L1133.4,280.89L1134.71,280.89L1135.29,280.918L1135.97,280.945L1136.58,280.945L1137.25,280.973L1137.29,280.973L1137.87,281.001L1138.58,281.001L1139.16,281.029L1139.81,281.056L1139.87,281.056L1140.45,281.084L1141.09,281.112L1141.15,281.112L1141.74,281.139L1142.37,281.167L1142.44,281.167L1143.02,281.195L1143.65,281.222L1143.72,281.222L1144.3,281.25L1144.93,281.278L1145,281.278L1145.58,281.305L1146.2,281.333L1146.28,281.333L1146.86,281.388L1147.48,281.416L1147.56,281.416L1148.14,281.444L1148.75,281.505L1148.84,281.505L1149.42,281.532L1150.03,281.588L1150.11,281.588L1150.68,281.615L1151.29,281.671L1151.39,281.671L1151.96,281.698L1152.56,281.754L1152.66,281.754L1153.24,281.815L1153.83,281.842L1153.94,281.87L1154.51,281.898L1155.1,281.953L1155.21,281.953L1155.78,282.008L1156.37,282.069L1156.48,282.069L1157.05,282.125L1157.63,282.152L1157.75,282.18L1158.31,282.235L1158.89,282.291L1159.02,282.291L1159.58,282.352L1160.15,282.407L1160.28,282.407L1160.84,282.462L1161.41,282.518L1161.55,282.518L1162.11,282.579L1162.67,282.662L1162.83,282.662L1163.38,282.717L1163.94,282.778L1164.02,282.806L1164.09,282.806L1164.63,282.861L1165.2,282.916L1165.27,282.916L1165.35,282.944L1165.9,283L1166.45,283.06L1166.53,283.06L1166.61,283.088L1167.15,283.143L1167.7,283.199L1167.77,283.227L1167.86,283.227L1168.4,283.282L1168.95,283.37L1169.12,283.37L1169.66,283.453L1170.21,283.509L1170.29,283.537L1170.38,283.537L1170.92,283.597L1171.46,283.68L1171.55,283.68L1171.63,283.708L1172.16,283.764L1172.7,283.847L1172.79,283.847L1172.87,283.874L1173.4,283.935L1173.94,284.018L1174.03,284.018L1174.12,284.046L1174.65,284.101L1175.18,284.19L1175.28,284.19L1175.38,284.218L1175.9,284.273L1176.43,284.356L1176.53,284.356L1176.62,284.384L1177.15,284.467L1177.67,284.528L1177.77,284.555L1177.87,284.583L1178.39,284.638L1178.91,284.721L1179.02,284.749L1179.13,284.749L1179.64,284.838L1180.16,284.921L1180.27,284.921L1180.38,284.948L1180.89,285.031L1181.4,285.12L1181.51,285.12L1181.62,285.148L1182.14,285.231L1182.64,285.314L1182.75,285.314L1182.86,285.341L1183.37,285.424L1183.88,285.513L1183.99,285.541L1184.1,285.541L1184.61,285.624L1185.11,285.707L1185.23,285.734L1185.34,285.762L1185.85,285.851L1186.35,285.934L1186.46,285.961L1186.58,285.961L1187.08,286.045L1187.58,286.161L1187.69,286.161L1187.81,286.188L1188.31,286.272L1188.81,286.355L1188.92,286.382L1189.05,286.41L1189.54,286.499L1190.03,286.582L1190.15,286.609L1190.28,286.637L1190.77,286.72L1191.26,286.836L1191.38,286.836L1191.51,286.864L1192,286.975L1192.48,287.063L1192.61,287.091L1192.74,287.119L1193.23,287.202L1193.71,287.285L1193.83,287.312L1193.97,287.34L1194.45,287.456L1194.93,287.539L1195.06,287.567L1195.19,287.595L1195.68,287.678L1196.15,287.794L1196.41,287.849L1196.9,287.932L1197.37,288.049L1197.5,288.076L1197.64,288.104L1198.12,288.187L1198.58,288.303L1198.72,288.331L1198.86,288.359L1199.34,288.469L1199.8,288.553L1199.93,288.58L1200.08,288.608L1200.56,288.724L1201.01,288.807L1201.15,288.835L1201.3,288.863L1201.77,288.979L1202.22,289.09L1202.36,289.117L1202.51,289.145L1202.99,289.261L1203.43,289.344L1203.57,289.4L1203.73,289.427L1204.2,289.544L1204.64,289.627L1204.79,289.682L1204.94,289.71L1205.4,289.826L1205.85,289.909L1205.99,289.964L1206.15,289.992L1206.62,290.108L1207.06,290.191L1207.2,290.247L1207.37,290.274L1207.83,290.391L1208.26,290.501L1208.41,290.529L1208.57,290.557L1209.03,290.673L1209.46,290.784L1209.61,290.811L1209.78,290.872L1210.23,290.983L1210.66,291.099L1210.81,291.127L1210.98,291.182L1211.43,291.293L1211.86,291.409L1212.02,291.437L1212.18,291.465L1212.64,291.575L1213.05,291.692L1213.21,291.747L1213.38,291.775L1213.84,291.919L1214.25,292.002L1214.41,292.057L1214.59,292.118L1215.03,292.229L1215.44,292.345L1215.6,292.373L1215.79,292.428L1216.23,292.539L1216.63,292.655L1216.8,292.683L1216.98,292.738L1217.42,292.882L1217.82,292.965L1217.99,293.02L1218.17,293.076L1218.62,293.192L1219.01,293.303L1219.18,293.364L1219.36,293.391L1219.81,293.53L1220.2,293.646L1220.37,293.674L1220.55,293.729L1221,293.873L1221.38,293.984L1221.56,294.011L1221.74,294.067L1222.18,294.211L1222.57,294.327L1222.74,294.355L1222.93,294.41L1223.37,294.548L1223.75,294.665L1223.92,294.72L1224.12,294.775L1224.55,294.892L1224.93,295.002L1225.1,295.063L1225.3,295.119L1225.73,295.257L1226.11,295.373L1226.28,295.429L1226.48,295.484L1226.91,295.6L1227.28,295.711L1227.46,295.772L1227.66,295.827L1228.09,295.966L1228.45,296.082L1228.64,296.137L1228.84,296.193L1229.27,296.337L1229.63,296.453L1229.81,296.508L1230.02,296.564L1230.44,296.708L1230.8,296.818L1230.98,296.874L1231.19,296.962L1231.61,297.073L1231.97,297.189L1232.15,297.245L1232.37,297.328L1232.79,297.472L1233.13,297.582L1233.32,297.643L1233.54,297.699L1233.95,297.837L1234.3,297.953L1234.48,298.009L1234.71,298.092L1235.12,298.236L1235.46,298.346L1235.65,298.407L1235.88,298.49L1236.29,298.634L1236.62,298.745L1236.81,298.8L1237.04,298.889L1237.46,299.027L1237.79,299.144L1237.98,299.199L1238.2,299.282L1238.61,299.426L1238.94,299.537L1239.13,299.598L1239.37,299.681L1239.78,299.819L1240.1,299.935L1240.29,299.991L1240.53,300.074L1240.93,300.218L1241.25,300.334L1241.44,300.417L1241.69,300.5L1242.09,300.644L1242.4,300.755L1242.59,300.81L1242.84,300.899L1243.24,301.037L1243.56,301.153L1243.75,301.236L1243.99,301.32L1244.39,301.463L1244.7,301.574L1244.9,301.663L1245.15,301.746L1245.54,301.89L1245.85,302L1246.04,302.084L1246.3,302.172L1246.7,302.311L1247,302.427L1247.19,302.51L1247.45,302.593L1247.84,302.737L1248.14,302.848L1248.34,302.936L1248.6,303.019L1248.99,303.191L1249.28,303.302L1249.48,303.357L1249.74,303.473L1250.13,303.617L1250.42,303.728L1250.62,303.811L1250.88,303.927L1251.28,304.066L1251.56,304.182L1251.75,304.265L1252.02,304.348L1252.41,304.52L1252.69,304.636L1252.89,304.691L1253.16,304.802L1253.55,304.974L1253.83,305.057L1254.02,305.145L1254.3,305.256L1254.68,305.428L1254.96,305.511L1255.16,305.594L1255.43,305.71L1255.81,305.882L1256.09,305.992L1256.28,306.075L1256.57,306.192L1256.95,306.33L1257.21,306.446L1257.41,306.529L1257.7,306.646L1258.07,306.812L1258.33,306.9L1258.53,306.983L1258.82,307.127L1259.2,307.266L1259.46,307.382L1259.66,307.465L1259.95,307.576L1260.33,307.747L1260.58,307.864L1260.78,307.947L1261.07,308.057L1261.45,308.229L1261.7,308.345L1261.89,308.428L1262.2,308.539L1262.57,308.711L1262.81,308.821L1263.01,308.91L1263.32,309.021L1263.69,309.192L1263.93,309.303L1264.13,309.392L1264.43,309.53L1264.81,309.674L1265.04,309.785L1265.24,309.873L1265.55,310.012L1265.92,310.183L1266.16,310.266L1266.35,310.355L1266.67,310.493L1267.04,310.665L1267.26,310.776L1267.46,310.864L1267.78,311.003L1268.15,311.174L1268.37,311.285L1268.57,311.374L1268.89,311.512L1269.26,311.684L1269.47,311.767L1269.67,311.883L1270,312.021L1270.36,312.193L1270.58,312.276L1270.77,312.392L1271.11,312.531L1271.47,312.702L1271.68,312.791L1271.87,312.874L1272.21,313.046L1272.57,313.212L1272.77,313.328L1272.96,313.411L1273.3,313.583L1273.67,313.749L1273.87,313.837L1274.06,313.92L1274.41,314.092L1274.77,314.258L1274.96,314.347L1275.15,314.457L1275.5,314.629L1275.87,314.801L1276.06,314.884L1276.24,314.967L1276.6,315.138L1276.96,315.338L1277.15,315.421L1277.33,315.504L1277.69,315.675L1278.05,315.847L1278.23,315.958L1278.41,316.046L1278.78,316.212L1279.14,316.412L1279.32,316.495L1279.5,316.583L1279.87,316.75L1280.23,316.949L1280.4,317.037L1280.58,317.12L1280.95,317.32L1281.31,317.486L1281.48,317.574L1281.66,317.657L1282.04,317.857L1282.39,318.028L1282.56,318.111L1282.73,318.222L1283.12,318.422L1283.47,318.593L1283.63,318.676L1283.81,318.759L1284.2,318.959L1284.55,319.158L1284.71,319.241L1284.88,319.329L1285.27,319.529L1285.63,319.723L1285.78,319.783L1285.95,319.894L1286.35,320.094L1286.71,320.265L1286.85,320.348L1287.02,320.431L1287.43,320.658L1287.78,320.858L1287.92,320.913L1288.08,321.001L1288.5,321.228L1288.85,321.422L1288.98,321.483L1289.14,321.594L1289.56,321.793L1289.91,321.993L1290.05,322.076L1290.21,322.159L1290.63,322.386L1290.98,322.585L1291.11,322.64L1291.26,322.729L1291.7,322.984L1292.05,323.155L1292.17,323.238L1292.32,323.321L1292.76,323.548L1293.1,323.748L1293.22,323.803L1293.37,323.886L1293.82,324.146L1294.16,324.34L1294.28,324.401L1294.42,324.484L1294.87,324.739L1295.22,324.938L1295.33,324.993L1295.47,325.076L1295.93,325.331L1296.28,325.53L1296.38,325.591L1296.52,325.674L1296.98,325.929L1297.33,326.128L1297.43,326.184L1297.56,326.267L1298.03,326.549L1298.37,326.748L1298.47,326.809L1298.61,326.865L1299.08,327.147L1299.42,327.346L1299.52,327.402L1299.65,327.485L1300.13,327.773L1300.47,327.966L1300.55,328.027L1300.68,328.083L1301.17,328.393L1301.51,328.592L1301.6,328.647L1301.65,328.675C1302.31,329.043 1302.97,329.441 1303.62,329.838L1303.67,329.865L1303.72,329.893C1304.38,330.29 1305.04,330.691 1305.69,331.117L1305.77,331.172C1306.43,331.569 1307.09,331.965 1307.74,332.39L1307.81,332.418C1308.47,332.843 1309.13,333.238 1309.78,333.663L1309.85,333.691C1310.51,334.116 1311.17,334.545 1311.82,334.97L1311.88,334.998C1312.54,335.423 1313.2,335.846 1313.85,336.271L1313.89,336.299C1314.54,336.724 1315.21,337.18 1315.87,337.605L1315.89,337.605C1316.55,338.059 1317.21,338.509 1317.87,338.934L1317.88,338.962L1318.53,339.388L1319.36,339.958L1319.87,340.296L1320.11,340.468L1320.52,340.75L1321.36,341.315L1321.85,341.658L1322.09,341.829L1322.51,342.14L1323.33,342.704L1323.82,343.047L1324.06,343.214L1324.49,343.529L1325.31,344.094L1325.78,344.437L1326.02,344.603L1326.45,344.919L1327.27,345.511L1327.73,345.854L1327.97,346.021L1328.41,346.336L1329.22,346.929L1329.67,347.272L1329.9,347.438L1330.35,347.781L1331.16,348.374L1331.6,348.689L1331.84,348.883L1332.28,349.198L1333.09,349.819L1333.52,350.134L1333.75,350.3L1334.21,350.671L1335.02,351.297L1335.42,351.607L1335.65,351.778L1336.12,352.144L1336.93,352.769L1337.32,353.079L1337.55,353.251L1338.03,353.617L1338.82,354.242L1339.21,354.552L1339.44,354.724L1339.91,355.122L1340.71,355.743L1341.09,356.058L1341.31,356.224L1341.8,356.623L1342.59,357.276L1342.95,357.558L1343.17,357.73L1343.66,358.129L1344.46,358.804L1344.81,359.092L1345.02,359.258L1345.52,359.684L1346.32,360.338L1346.65,360.62L1346.87,360.792L1347.37,361.218L1348.16,361.899L1348.49,362.181L1348.69,362.347L1349.21,362.774L1349.99,363.455L1350.31,363.737L1350.52,363.909L1351.03,364.363L1351.82,365.044L1352.12,365.298L1352.32,365.47L1352.85,365.952L1353.63,366.633L1353.92,366.887L1354.11,367.053L1354.65,367.535L1355.43,368.244L1355.71,368.471L1355.9,368.67L1356.44,369.152L1357.22,369.86L1357.49,370.087L1357.67,370.259L1358.22,370.768L1359,371.477L1359.26,371.732L1359.43,371.876L1359.99,372.385L1360.76,373.121L1361.01,373.348L1361.18,373.52L1361.75,374.057L1362.52,374.793L1362.75,374.993L1362.92,375.164L1363.49,375.701L1364.26,376.438L1364.48,376.665L1364.65,376.809L1365.23,377.373L1366,378.11L1366.2,378.337L1366.37,378.481L1366.95,379.073L1367.72,379.809L1367.92,380.009L1368.07,380.18L1368.66,380.745L1369.42,381.515L1369.76,381.852L1370.36,382.478L1371.12,383.242L1371.3,383.414L1371.44,383.552L1372.05,384.178L1372.8,384.969L1372.97,385.141L1373.1,385.285L1373.72,385.905L1374.48,386.702L1374.63,386.868L1374.76,386.984L1375.38,387.665L1376.14,388.457L1376.28,388.601L1376.4,388.74L1377.03,389.393L1377.79,390.212L1377.92,390.356L1378.03,390.472L1378.67,391.176L1379.42,392L1379.54,392.111L1379.65,392.227L1380.3,392.936L1381.05,393.789L1381.16,393.899L1381.25,394.01L1381.92,394.719L1382.66,395.571L1382.77,395.688L1382.85,395.798L1383.52,396.535L1384.26,397.387L1384.34,397.498L1384.43,397.581L1385.11,398.351L1385.85,399.198L1385.92,399.286L1386,399.369L1386.68,400.161L1387.41,401.041L1387.49,401.097L1387.55,401.185L1388.25,402.005L1388.98,402.885L1389.05,402.94L1389.1,403.023L1389.81,403.848L1390.54,404.723L1390.59,404.784L1390.64,404.839L1391.36,405.692L1392.08,406.594L1392.13,406.655L1392.16,406.683L1392.88,407.558L1393.66,408.554L1394.39,409.429L1395.15,410.392L1395.89,411.328L1396.63,412.264L1397.38,413.227L1398.1,414.163C1398.53,414.246 1398.52,414.608 1398.94,415.021L1398.74,415.68C1397.65,416.22 1395.86,417.249 1394.57,417.856C1393.41,418.394 1381.62,422.713 1380.19,423.564C1379.17,424.095 1378.82,425.367 1377.09,425.828C1374.51,422.679 1371.08,418.001 1368.34,414.694C1309.84,346.975 1223.36,304.115 1126.95,304.115C1101.47,304.115 1076.69,307.122 1052.92,312.763C1042.64,315.825 1027.33,320.189 1018.08,323.222C995.038,331.584 973.232,342.553 953.006,355.743C952.869,355.588 952.729,355.423 952.59,355.255C948.317,350.055 942.655,342.038 938.677,337.267C940.407,336.134 942.144,335.001 943.887,333.896C947.348,331.713 950.846,329.559 954.39,327.49C955.702,326.725 957.025,325.957 958.348,325.22L959.422,324.595L960.751,323.858L961.875,323.238C962.535,322.87 963.194,322.527 963.857,322.159C969.521,319.069 975.28,316.15 981.131,313.4C985.227,311.444 989.37,309.6 993.554,307.814C999.082,305.489 1004.68,303.278 1010.35,301.209C1012.46,300.443 1014.57,299.708 1016.69,299L1018.15,298.49C1019.28,298.122 1020.41,297.752 1021.54,297.383C1022.45,297.071 1023.36,296.792 1024.28,296.508C1025.67,296.055 1027.08,295.626 1028.48,295.229L1029.97,294.775C1031.09,294.435 1032.22,294.125 1033.35,293.784L1034.44,293.474L1035.94,293.076L1037.44,292.649C1037.94,292.508 1038.44,292.398 1038.94,292.256L1039.32,292.168C1042.12,291.402 1044.93,290.694 1047.76,290.042C1049.44,289.645 1051.12,289.248 1052.81,288.879C1054.47,288.511 1056.15,288.145 1057.83,287.805C1059.84,287.408 1061.86,287.012 1063.88,286.615C1082.27,283.185 1101.16,281.23 1120.44,280.89L1122.07,280.862L1123.69,280.829L1125.32,280.829L1126.95,280.802ZM908.526,359.635L908.593,359.673C908.62,359.688 908.653,359.684 908.681,359.712C912.774,361.843 914.643,363.581 918.89,366.705C920.846,368.122 922.488,368.606 924.41,370.137C925.371,370.505 925.56,370.536 926.22,370.757C927.176,371.211 928.307,371.892 929.504,372.629C892.273,402.052 861.752,439.553 840.611,482.526C839.296,485.559 838.029,488.653 836.829,491.828C834.998,495.343 833.269,498.914 831.631,502.458C816.403,539.676 808.007,580.407 808.007,623.068C808.007,624.968 808.023,626.841 808.051,628.677C806.818,618.987 806.828,609.375 805.294,599.627C802.78,596.934 800.723,593.987 798.872,590.841C796.151,585.789 791.958,582.521 787.6,579.154C787.262,578.893 787.827,579.356 787.489,579.093C789.703,561.886 793.198,545.049 797.875,528.75L798.412,526.906L798.778,525.655C800.544,519.702 802.472,513.811 804.547,508C804.958,506.866 805.367,505.701 805.787,504.567C813.562,483.534 823.354,463.464 834.919,444.585L835.301,443.965C840.767,435.093 846.624,426.471 852.857,418.166L853.931,416.721L854.79,415.619C861.321,407.058 868.241,398.835 875.529,390.926C877.071,389.282 878.62,387.638 880.185,385.993C883.187,382.875 886.244,379.813 889.353,376.809L889.365,376.809L889.503,376.67C891.238,374.998 892.985,373.354 894.751,371.71C896.985,369.64 899.254,367.598 901.55,365.614C903.305,364.055 905.071,362.554 906.854,361.052L907.009,360.908L908.526,359.635ZM1136.11,434.277C1144.35,434.378 1152.66,435.002 1161.09,436.242C1197.31,440.466 1232.04,450.898 1262.88,470.712C1265.82,472.923 1268.31,473.796 1271.07,475.185C1271.07,475.185 1272.83,474.987 1270.29,476.829C1263.87,481.478 1261.82,486.755 1257.35,492.963C1250.54,493.416 1245.45,491.741 1240.21,497.325C1232.78,510.024 1228.41,524.454 1221.43,537.437C1217.81,542.993 1220.18,548.716 1214.53,552.883C1210.64,555.775 1211.42,554.646 1211.2,555.042C1203.97,568.62 1194.76,584.661 1195.15,599.827C1196.4,608.245 1190.02,605.722 1185.55,610.03C1181.89,624.685 1190.54,635.317 1184.22,649.178C1184.15,649.654 1175.02,653.738 1172.21,654.283C1164.01,649.492 1171.1,678.715 1170.75,689.799C1168.59,694.901 1167.51,701.589 1166.95,707.117C1159.72,706.096 1158.5,707.882 1154.52,710.178C1149.22,718.285 1149.78,727.047 1150.02,736.288C1150.33,747.938 1147.79,748.161 1146.14,757.969C1128.73,759.443 1110.65,758.595 1093.16,758.312C1088.34,762.224 1081.16,759.958 1075.26,761.772C1070.3,755.961 1070.93,743.686 1067.27,736.797C1063.92,732.149 1060.49,727.357 1056.44,723.361C1051,720.98 1046.29,719.932 1042.66,714.801C1042.94,699.608 1036.97,684.499 1033.17,669.929C1029.71,666.839 1025.03,666.017 1022.1,662.587C1025.73,649.718 1023.57,637.243 1030.9,625.139C1034.18,619.385 1041.33,610.627 1035.67,604.305C1031.8,598.353 1024.23,599.401 1022,592.74C1030.65,579.162 1029.01,564.453 1032.5,549.883C1032.12,540.301 1028,537.012 1021.09,531.258C1019.97,519.126 1019.85,508.554 1018.77,496.451C1015.97,490.101 1018.18,484.37 1012.31,480.6L1005.1,480.118C1004.95,476.202 1005.65,471.48 1006.05,466.742C1021.26,457.612 1046.23,450.271 1062.89,444.602C1087.33,438.33 1111.39,433.971 1136.11,434.277ZM1420.82,447.691C1423.19,451.66 1425.34,455.209 1427.56,459.262L1427.66,459.462L1428.04,460.143C1433.72,470.603 1438.87,481.431 1443.46,492.514C1446.27,499.317 1448.87,506.235 1451.24,513.237C1452.21,516.128 1453.15,519.016 1454.05,521.907C1455.08,525.224 1456.05,528.571 1456.98,531.945C1457.43,533.589 1457.88,535.26 1458.31,536.933C1458.59,537.982 1458.86,539.056 1459.12,540.105L1459.45,541.439C1459.56,541.893 1459.67,542.376 1459.79,542.829L1460.12,544.246L1460.45,545.636L1460.74,546.909C1460.99,548.015 1461.25,549.147 1461.49,550.281C1464.46,563.972 1466.6,577.979 1467.88,592.208L1467.96,593.199L1467.99,593.57C1468.39,598.219 1468.7,602.922 1468.91,607.627C1468.94,608.421 1468.97,609.187 1469,609.953C1469.16,614.29 1469.24,618.626 1469.24,622.991L1469.24,624.27L1469.24,624.807L1469.24,625.205C1469.24,625.801 1469.23,626.394 1469.23,626.96L1469.23,627.071L1469.22,627.271L1469.21,628.068L1469.2,628.915L1469.2,629.114L1469.19,629.197C1469.18,629.792 1469.17,630.363 1469.16,630.958L1469.15,631.129L1469.15,631.356C1469.14,631.952 1469.13,632.543 1469.11,633.167L1469.11,633.222L1469.07,634.385L1469.05,634.983L1469.04,635.21L1469.04,635.348C1469.02,635.943 1468.99,636.542 1468.97,637.109L1468.97,637.22L1468.96,637.419L1468.93,638.155L1468.88,639.091L1468.88,639.262L1468.88,639.318C1468.86,639.913 1468.82,640.483 1468.79,641.078L1468.78,641.278L1468.77,641.471L1468.67,643.26L1468.67,643.287L1468.67,643.37L1468.6,644.45L1468.56,645.103L1468.55,645.297L1468.54,645.413C1468.51,646.009 1468.46,646.601 1468.42,647.196L1468.41,647.312L1468.4,647.512L1468.36,648.193L1468.29,649.211L1468.27,649.322L1468.27,649.35C1468.23,649.945 1468.18,650.543 1468.13,651.138L1468.12,651.31L1468.11,651.476C1468.06,652.071 1468.01,652.668 1467.96,653.292L1467.95,653.319L1467.95,653.402L1467.86,654.427L1467.79,655.135L1467.78,655.307L1467.77,655.418C1467.71,656.013 1467.66,656.611 1467.59,657.206L1467.58,657.317L1467.56,657.488L1467.49,658.142L1467.37,659.299C1467.31,659.922 1467.24,660.519 1467.18,661.142L1467.16,661.286L1467.14,661.425C1467.08,662.02 1467.01,662.645 1466.93,663.241L1466.92,663.357L1466.81,664.32L1466.7,665.14L1466.69,665.256L1466.68,665.311C1466.61,665.907 1466.53,666.532 1466.45,667.127L1466.44,667.238L1466.42,667.354C1466.26,668.601 1466.09,669.816 1465.92,671.064L1465.89,671.18L1465.88,671.263C1465.8,671.887 1465.7,672.511 1465.62,673.134L1465.61,673.162L1465.47,674.125L1465.32,675.089C1465.22,675.741 1465.12,676.364 1465.03,676.988L1465.01,677.043L1465.01,677.132C1464.8,678.407 1464.6,679.654 1464.38,680.93L1464.37,680.985C1460.51,703.517 1454.44,725.318 1446.4,746.126C1441.04,758.107 1437.93,764.498 1434.18,771.306C1403.88,826.237 1377.09,856.044 1337.88,886.812C1337.88,886.812 1334.78,880.28 1335.04,879.288C1332.43,876.346 1330.09,873.708 1328.71,869.959C1400.23,811.451 1445.92,722.509 1445.92,622.98C1445.92,558.067 1426.42,498.135 1393.06,447.736C1398.45,448.388 1395.07,448.578 1399.36,449.003C1403.2,449.4 1405.33,449.427 1411.17,448.832C1416.11,448.292 1420.82,447.691 1420.82,447.691ZM976.054,491.601C976.153,492.227 976.283,492.906 976.441,493.644C984.642,501.722 1000.48,522.868 1003.97,533.838C994.756,535.822 1000.11,562.409 998.332,589.905C988.865,596.595 991.46,601.103 990.122,610.429C989.887,612.073 989.537,613.832 988.981,615.788L987.824,619.47C988.145,621.085 988.607,622.79 989.086,624.519L989.502,625.992C989.981,627.692 990.444,629.392 990.764,631.008C987.657,643.423 992.02,657.568 996.417,669.303C994.393,676.617 991.15,681.553 993.211,689.688C1002.15,702.642 1013.73,713.834 1024.16,725.57C1026.02,729.283 1025.65,732.971 1026.97,737.478C1020.06,739.009 1011.36,736.797 1004.31,737.052C991.896,737.477 978.788,746.607 972.073,752.305C968.844,755.026 967.971,756.668 967.971,756.668C960.816,764.406 954.957,773.109 948.604,781.471C941.484,797.316 940.642,815.4 940.432,832.577C939.004,835.015 936.84,837.03 933.955,838.546C876.874,765.539 868.581,659.608 908.853,576.723C924.832,545.678 948.861,514.791 975.611,492.01C976.436,491.308 975.224,492.287 976.054,491.601ZM1299.81,496.528C1311.81,508.008 1323.22,522.123 1333.51,535.106C1361.29,573.317 1377.38,618.755 1382.27,665.555C1382.02,690.358 1384.57,714.143 1377.21,738.209C1369.49,780.073 1349.48,820.262 1322.44,853.029C1322.42,852.973 1322.39,852.924 1322.37,852.868C1318.43,847.993 1313.95,844.253 1308.86,840.511C1302.02,834.644 1295.5,827.187 1289.99,820.015C1281.12,809.13 1285.16,781.098 1283.52,783.536C1277.62,766.131 1265.34,756.15 1249.53,747.987C1234.31,735.684 1213.19,735.486 1194.76,738.774C1196.42,732.871 1199.11,729.157 1197.32,723.671C1197.07,722.912 1199.86,719.142 1199.43,718.306C1199.43,718.306 1200.13,714.885 1200.6,712.238C1200.82,710.977 1200.19,710.815 1200.9,709.558C1207.97,697.194 1219.39,685.001 1210.35,673.123C1212.06,661.699 1221.99,656.255 1223.21,644.378C1229.35,631.991 1231.31,626.212 1225.31,612.804C1232.12,600.615 1236.51,587.8 1242.06,575.101C1242.93,569.488 1240.21,565.778 1238.05,561.016C1246.25,551.889 1256.02,544.005 1263.7,534.453C1267.12,530.711 1268.83,525.636 1274.69,525.976C1275.18,519.683 1275.11,513.506 1274.76,507.213C1283.52,504.435 1291.12,499.448 1299.81,496.528ZM507.468,524.232C602.485,524.232 687.231,568.817 742.096,638.294C736.067,649.405 732.011,651.096 730.381,654.072L730.381,654.078L729.595,655.551C729.368,655.252 729.147,654.951 728.919,654.654C677.895,587.841 597.65,544.717 507.474,544.717C353.454,544.717 228.41,670.463 228.41,825.347C228.41,912.909 268.373,991.146 330.939,1042.65C337.249,1047.16 343.225,1052.2 348.988,1056.31C349.912,1056.96 350.838,1057.59 351.767,1058.21L352.155,1058.46C352.872,1058.94 353.594,1059.43 354.314,1059.94C360.649,1064.12 367.157,1068.05 373.824,1071.72C373.9,1071.76 373.974,1071.79 373.968,1071.82C373.963,1071.85 373.874,1071.82 373.786,1071.82C370.699,1071.52 367.369,1070.96 364.357,1069.57C356.573,1066.59 344.263,1069.78 336.47,1070.1C335.342,1070.12 334.244,1070.18 333.187,1070.21C257.414,1015.55 208.003,926.209 208.003,825.352C208.003,659.158 342.189,524.232 507.468,524.232ZM1744.26,526.751C1909.55,526.751 2043.74,659.557 2043.74,823.143C2043.74,986.73 1909.55,1119.53 1744.26,1119.53C1723.51,1119.53 1703.25,1117.43 1683.68,1113.45C1669.47,1110.56 1655.63,1106.67 1642.23,1101.86C1642.06,1101.8 1642.14,1101.83 1642.04,1101.8C1621.56,1093.67 1609.74,1084.87 1598.94,1078.27L1574.69,1060.91C1527.56,1029.36 1497.32,991.371 1473.98,940.231C1473.33,938.797 1473.41,939.203 1472.77,937.748C1475.56,936.774 1477.46,935.434 1482.17,933.62C1483.01,933.254 1485.9,931.285 1486.84,931.027C1487.41,932.224 1487.28,931.327 1487.82,932.505C1489.48,936.115 1490.91,939.397 1491.61,940.87C1497.39,952.968 1509.65,975.959 1529.45,999.949C1543.2,1016.62 1559.72,1033.22 1581.16,1047.84C1581.2,1047.9 1581.22,1047.96 1581.27,1048.02C1627.06,1080.56 1683.6,1099.34 1744.23,1099.34C1800.53,1099.34 1852.97,1082.81 1896.82,1054.38L1900,1052.29C1906.72,1047.78 1913.69,1041.77 1921.14,1036.69C1983.5,986.011 2023.31,909.135 2023.31,823.132C2023.31,677.035 1908.42,557.274 1763.26,547.579C1757.21,547.238 1751.57,547.114 1746.87,547.114C1746.1,546.669 1747.08,547.385 1746.3,546.849C1743.38,544.856 1740.32,542.55 1736.97,542.303C1730.67,543.997 1724.54,546.033 1718.39,548.028C1711.07,550.406 1717.6,548.26 1717.6,548.26C1717.6,548.26 1713.82,548.588 1712.03,548.77C1573.17,564.587 1465.18,681.457 1465.18,823.132C1465.18,830.984 1465.51,838.753 1466.16,846.463C1463.37,849.297 1463.66,849.154 1461.04,852.187C1458.81,854.88 1452.18,860.363 1449.92,863.055C1450.79,844.859 1446.12,828.308 1447.23,810.216C1447.88,799.707 1447.68,788.256 1448.14,777.778C1449.09,775.161 1449.51,772.498 1449.66,769.806C1475.08,631.624 1597.39,526.751 1744.26,526.751ZM809.026,647.307C815.465,732.054 854.333,807.295 913.943,860.467C911.609,862.844 908.807,864.656 907.575,866.312C906.274,868.042 904.916,869.339 903.461,872.618C902.409,874.988 900.023,880.003 899.87,879.774C896.373,874.566 893.081,869.752 888.783,865.735C856.655,836.057 833.178,798.579 815.337,758.611C813.918,755.007 800.093,725.706 795.666,697.162C795.567,696.517 795.712,697.396 795.622,696.753C797.199,695.198 798.871,693.658 799.946,691.775C803.155,684.519 802.664,675.248 802.421,667.482C810.667,655.714 808.042,653.856 809.026,647.307ZM543.621,647.91C556.47,648.219 569.202,649.524 581.435,651.664C610.677,657.163 638.175,669.041 662.848,685.652C678.203,696.537 694.54,709.066 705.113,724.656C703.647,732.791 701.867,740.811 700.96,749.116C694.778,749.003 705.289,803.146 704.98,813.549C704.974,813.776 705.175,814.425 705.218,814.595C705.331,815.049 705.364,815.164 705.417,815.249C705.474,815.362 705.555,815.564 705.578,815.592C707.919,820.808 712.527,828.374 713.079,839.769C713.513,848.727 696.681,853.121 703.989,862.192C715.803,876.847 733.655,891.106 749.753,902.076C751.998,903.602 754.208,905.064 756.297,906.334C755.087,912.984 754.044,921.888 752.859,930.987C750.929,931.281 750.227,931.53 749.919,931.685C740.98,957.306 719.94,989.441 702.671,1010.5C689.82,1027.41 671.698,1036 655.595,1049.26C655.489,1049.35 655.386,1049.44 655.296,1049.53C655.139,1049.33 654.964,1049.14 654.792,1048.94C653.763,1047.78 652.733,1046.62 651.675,1045.47C646.371,1040.49 640.121,1039.89 633.488,1037.31C625.602,1040.6 624.276,1046.5 620.367,1053.27C615.647,1055 585.354,1064.27 585.354,1064.27L584.618,1069.54L524.321,1082.61C524.321,1082.61 524.212,1080.68 524.011,1080.71C520.859,1081.11 518.795,1081.79 517.511,1081.79C514.563,1082.36 513.817,1082.72 512.229,1083.15C503.896,1085.39 500.359,1087.94 492.658,1090.46C480.009,1087.44 469.002,1083.44 459.085,1079.12C400.25,1056.76 352.127,1006.82 331.57,947.347C312.309,895.644 313.879,836.795 335.025,785.8C363.607,716.153 430.017,660.993 505.115,650.136C517.809,648.293 530.772,647.602 543.621,647.91ZM749.919,931.685C749.921,931.677 749.927,931.67 749.93,931.663C749.76,931.903 749.572,931.859 749.919,931.685ZM1703.49,649.986C1717.63,649.82 1731.89,650.569 1745.45,651.299C1820.54,661.985 1886.95,716.295 1915.53,784.865C1936.67,835.066 1938.26,893.005 1918.99,943.915C1898.44,1002.48 1843.33,1051.29 1790.21,1068.76C1774.79,1073.8 1752.22,1074.82 1727.73,1073.29L1727.37,1076.35L1701.6,1070.85C1682.21,1068.47 1662.79,1064.9 1645.73,1060.87C1626.38,1056.31 1604.86,1047.18 1590.51,1041.58C1587.49,1039.86 1582.51,1037.19 1581.47,1036.48C1568.92,1027.92 1557.28,1018.56 1547.89,1006.43C1530.62,985.754 1509.58,954.23 1500.64,929.105C1500.33,928.952 1499.63,928.706 1497.71,928.418C1497.32,925.536 1497.37,923.125 1496.98,920.523C1507.13,917.193 1518.3,911.725 1524.14,902.646C1524.56,894.993 1526.96,887.193 1521.17,881.326C1516.08,869.959 1533.22,865 1538.11,857.63C1550.39,837.702 1566.09,815.057 1574.09,793.003C1576.63,779.68 1584,768.056 1577.89,754.365L1581.63,751.956C1580.09,745.55 1576.53,741.64 1577.44,734.411C1587.67,725.936 1603.52,720.576 1616.67,719.158C1622.4,715.984 1627.87,712.212 1633.34,708.584C1638.67,699.91 1646.24,693.644 1652.73,685.962C1657.92,683.524 1665.23,682.509 1668.66,677.718C1677.19,668.606 1678.02,657.229 1688.94,650.789C1689.74,650.318 1689.42,650.496 1689.42,650.496C1694.07,650.203 1698.78,650.042 1703.49,649.986ZM1500.64,929.105C1500.99,929.277 1500.81,929.328 1500.63,929.088C1500.64,929.094 1500.64,929.1 1500.64,929.105ZM784.937,711.928C799.121,746.964 806.933,785.231 806.933,825.341C806.933,835.478 806.439,845.472 805.471,855.299C803.329,853.061 801.538,850.581 800.461,847.62L797.787,840.594C796.228,837.448 794.935,833.504 793.435,832.002C793.105,828.509 791.537,826.125 789.205,824.539C789.159,783.839 771.403,736.84 772.031,733.697L772.253,733.465C772.413,733.297 772.53,733.095 772.668,732.911C775.739,728.803 778.581,724.829 780.28,721.993C780.805,721.143 779.184,722.7 782.49,717.597C782.782,716.038 783.701,713.827 784.937,711.928ZM1448.4,777.08C1448.33,777.336 1448.25,777.562 1448.16,777.789C1448.15,778.158 1448.14,778.522 1448.13,778.891L1448.33,777.562L1448.4,777.08ZM1517.92,792.234C1514.54,797.364 1515.21,801.559 1514.61,807.37C1512.07,813.55 1512.2,819.813 1511.47,826.305C1508.57,831.067 1505.54,836.766 1502.74,841.613L1499.32,842.466C1498.72,842.066 1497.09,841.344 1496.47,841.015C1500.58,827.884 1505.52,810.039 1517.92,792.234ZM804.79,854.707L805.46,855.399C805.46,855.404 805.461,855.41 805.46,855.415C805.231,855.188 805.008,854.933 804.79,854.707ZM771.223,915.507C780.425,920.753 786.615,923.446 786.681,922.511C788.225,921.926 789.71,921.627 791.154,921.548L791.309,921.548C770.698,983.003 730.875,1035.61 679.097,1072.18C677.801,1071.18 676.324,1069.98 674.729,1068.61C673.348,1067.42 673.336,1066.57 672.514,1065.91C669.381,1063.37 666.393,1060.73 663.567,1057.93L663.639,1057.89C713.143,1024.19 751.335,974.951 771.24,917.124C771.301,916.472 771.299,915.903 771.223,915.507ZM2124.69,985.875C2171.89,985.875 2215.89,999.513 2252.99,1023.07C2254.13,1023.72 2255.2,1024.4 2256.2,1025.13C2321.31,1067.91 2364.34,1141.56 2364.34,1225.12C2364.34,1357.16 2256.96,1464.36 2124.7,1464.36C2040.17,1464.36 1965.79,1420.54 1923.12,1354.43C1922.19,1353.16 1921.29,1351.86 1920.35,1350.55C1916.73,1344.82 1913.21,1337.91 1908.79,1332.71C1912.84,1334.89 1920.94,1340.34 1926.19,1345.41L1929.56,1344.96L1936.22,1343.99L1936.28,1344.72C1937.3,1346.31 1938.35,1347.9 1939.4,1349.46C1941.24,1352.18 1943.22,1354.95 1945.29,1357.79C1986,1412.53 2051.23,1448.04 2124.7,1448.04C2229.3,1448.04 2317.17,1376.1 2341.41,1279.13C2342.65,1272.07 2343.79,1265.04 2344.55,1260.06C2345.63,1253.05 2346.59,1247.27 2347.39,1241.88C2347.81,1236.36 2348.01,1230.75 2348.01,1225.1C2348.01,1135.73 2295.23,1058.59 2219.12,1023.05C2215.35,1021.4 2211.49,1019.79 2207.5,1018.12C2204.78,1017.01 2201.12,1015.59 2196.84,1014.06C2179.04,1008 2160.25,1004.11 2140.77,1002.72C2131.99,1002.24 2123.48,1002.16 2114.52,1002.38C2068.69,1004.45 2026.42,1020.35 1991.81,1045.98C1989.46,1047.85 1986.74,1049.92 1983.96,1052.07C1933.62,1092.98 1901.41,1155.32 1901.41,1225.1C1901.41,1246.65 1904.48,1267.51 1910.14,1287.12L1908.47,1287.18C1905.27,1287.18 1902.07,1287.1 1898.86,1287.05C1896.98,1286.98 1895.08,1286.87 1893.18,1286.72L1893.13,1286.72C1887.89,1267.08 1885.08,1246.44 1885.08,1225.12C1885.08,1093.08 1992.46,985.875 2124.69,985.875ZM127.028,990.725C198.662,990.725 262.995,1022.68 306.917,1073.29C307.198,1073.61 307.074,1073.52 307.354,1073.85C306.463,1073.94 306.188,1074.08 305.129,1074.11C292.598,1077.55 290.609,1076.83 288.187,1077.62C247.473,1033.97 190.903,1007.27 127.028,1007.27C69.056,1007.27 16.214,1029.72 -23.508,1066.54C-26.98,1069.89 -30.402,1073.23 -33.744,1076.66C-72.451,1117.39 -96.267,1172.78 -96.267,1233.79C-96.267,1358.79 3.786,1460.3 127.028,1460.3C250.269,1460.3 350.328,1358.79 350.328,1233.79C350.328,1185.11 335.433,1140.69 309.635,1103.73L316.312,1102.79C315.17,1108.54 324.897,1107.71 330.519,1108.76C330.998,1108.84 331.785,1108.33 332.307,1108.4C354.101,1145.03 366.649,1187.95 366.649,1233.8C366.649,1367.93 259.28,1476.87 127.028,1476.87C-5.223,1476.87 -112.594,1367.93 -112.594,1233.8C-112.594,1099.63 -5.223,990.725 127.028,990.725ZM2102.15,1058.8C2111.12,1058.95 2120.07,1059.79 2128.7,1061.84C2172.61,1068.67 2209.82,1094.94 2237.94,1128.05C2258.41,1155.38 2270.8,1191.32 2275.27,1224.2C2277.29,1239.11 2272.92,1250.54 2273.07,1265.28C2267.59,1296.94 2253.59,1327.66 2233.43,1352.86C2217.53,1371.51 2197.63,1386.26 2176.23,1398.13C2161.78,1406.13 2146.72,1408.87 2127.59,1412.42C2112.42,1415.25 2095.36,1414.58 2080.54,1413.24C2050.03,1410.55 2038.01,1407.6 2035.27,1406.84L2032.74,1410.61L2009.5,1401.51L1994.05,1395.61C1994.05,1395.61 1994.9,1386.31 1994.19,1385.83C1984.97,1379.72 1979.23,1376.58 1971.97,1367.22C1976.24,1365.31 1979.08,1362.87 1979.16,1356.35C1971.37,1334.01 1952.97,1324.6 1941.15,1305.86C1937.3,1300.42 1931.26,1294.92 1924.87,1291.38C1921.34,1270.6 1919.92,1261.42 1919.75,1252.29C1919.53,1242.12 1919.75,1231.88 1920.29,1221.42L1912.01,1215.78L1927.27,1176.63L1927.75,1176.72C1929.25,1173.35 1930.92,1169.86 1932.85,1166.2C1957.37,1109.31 2013.1,1067.5 2075.38,1059.94C2084.16,1059.2 2093.18,1058.65 2102.15,1058.8ZM148.47,1065.04C157.487,1064.89 166.543,1065.45 175.372,1066.2C237.943,1073.88 293.916,1116.34 318.554,1174.09C320.471,1177.77 322.137,1181.26 323.648,1184.66L324.467,1184.54L339.731,1224.29L331.128,1230.24C330.847,1240.53 331.564,1252.09 331.36,1262.35C327.624,1296.14 315.345,1328.65 295.556,1356.38C285.349,1369.11 268.711,1386.06 256.137,1396.52L257.061,1407.09L219.01,1422.26L216.956,1419.17C214.883,1419.76 212.837,1420.3 210.821,1420.81C198.536,1423.76 178.411,1426.25 170.383,1426.79C155.924,1427.81 145.101,1427.5 125.261,1424.61C108.061,1422.09 91.582,1416.39 75.567,1409.3C54.069,1397.28 32.569,1382.49 16.587,1363.55C-3.652,1337.99 -17.717,1306.78 -23.231,1274.66C-25.72,1260.15 -24.819,1251.84 -24.244,1232.68C-23.198,1197.87 -8.504,1163.09 12.053,1135.34C40.32,1101.72 77.691,1075.07 121.801,1068.12C130.472,1066.04 139.453,1065.18 148.47,1065.04ZM870.098,1135.45C876.257,1135.26 882.512,1135.62 888.462,1135.7C904.934,1139.39 921.334,1147.81 936.479,1155.21C975.529,1178.71 1002.89,1215.47 1019.92,1257.31C1028.89,1274.26 1035.52,1292.97 1038.38,1311.96C1043.09,1323.67 1040.69,1336.51 1041.28,1349.61C1042.71,1366.64 1033.81,1383.76 1023.51,1396.74C1020.93,1399.1 1018.69,1402.41 1015.78,1404.11L1015.78,1404.12C1008.93,1412.71 1002.32,1420.73 992.691,1425.52C989.36,1427.76 985.71,1429.63 981.535,1430.99C966.318,1437.22 951.833,1435.04 936.059,1433.37C937.666,1448.11 950.123,1465.83 947.331,1482.21C947.594,1491.59 941.258,1503.07 932.587,1507.92C932.196,1509.25 931.76,1510.61 931.281,1512C919.636,1524.02 902.373,1528.53 886.153,1525.86C867.949,1523.4 850.609,1517.36 834.46,1508.71C828.805,1506.11 823.513,1503.02 818.388,1499.73C811.02,1495.19 803.929,1490.32 797.2,1485.27C793.838,1483 790.428,1480.82 786.913,1478.78L784.499,1476.26C783.204,1475.07 781.9,1473.88 780.591,1472.69C769.521,1465.83 760.07,1454.83 750.511,1446.24C742.413,1439.41 736.761,1427.22 726.256,1424.81C725.873,1430.9 731.216,1433.88 732.33,1439.72C726.153,1440.43 720.081,1439.74 713.904,1439.55C721.895,1452.44 731.947,1464.24 740.114,1477.17C765.866,1520.11 786.735,1568.72 794.553,1618.38C797.346,1628.79 796.715,1639.08 796.962,1649.68C799.193,1680.58 788.83,1714.62 767.264,1737.25C766.063,1738.52 764.801,1739.71 763.489,1740.82C762.329,1742.15 761.123,1743.45 759.873,1744.72C747.798,1755.1 731.256,1759.75 715.864,1754.28C680.936,1743.82 661.971,1714.59 643.625,1685.45C634.362,1668.02 625.434,1651.41 618.274,1634.09C613.806,1633.61 610.061,1632.84 606.725,1631.68C607.218,1633.5 607.621,1635.31 607.904,1637.18C597.955,1637.43 593.484,1629.19 586.888,1623.21C576.207,1611.92 569.141,1598.49 565.002,1584.09C563.438,1580.6 561.974,1577.06 560.568,1573.48C554.493,1549.02 555.087,1524.59 556.377,1499.59C560.81,1473.4 566.01,1448.93 583.389,1427.84C594.382,1410.78 614.378,1399.38 634.269,1396.61C656.149,1395.02 670.281,1407.61 688.919,1415L687.613,1412.14C677.329,1394.4 673.024,1373.53 673.943,1353.1C673.254,1340.17 673.874,1327.1 675.271,1313.98C692.021,1296.57 719,1303.49 738.508,1311.82C755.326,1317.55 765.724,1329.85 777.346,1342.52C796.783,1367.92 814.268,1393.06 836.497,1416.17C850.245,1430.14 861.731,1444.22 878.934,1454.15C882.843,1456.84 888.637,1456.78 893.207,1457.43L898.649,1452.16C897.512,1443.46 893.688,1434.84 890.295,1426.91C883.157,1412.51 876.347,1397.94 867.767,1384.3C854.611,1358.03 832.266,1337.67 817.197,1312.33C811.562,1303.97 807.433,1295.15 807.243,1285.66C806.954,1284.24 806.931,1282.94 807.376,1281.83C807.594,1279.42 808.083,1276.96 808.871,1274.43L811.212,1272.08L811.251,1272.08C811.084,1263.63 810.004,1256.32 815.874,1248.47C825.611,1240.73 835.871,1242.71 847.354,1243.76C862.811,1247.36 877.714,1254.81 889.962,1264.93C908.005,1277.43 915.364,1295.55 930.334,1311.7C941.712,1325.99 954.07,1339.09 967.96,1350.85C973.473,1353.66 989.547,1360.46 997.873,1358.79C1000.14,1347.88 1002.83,1338.49 997.064,1327.21C983.008,1278.37 942.31,1245.12 896.783,1226.27C861.64,1210.29 824.08,1204.28 785.906,1203.57L784.577,1199.14C790.725,1191.4 800.157,1186.16 809.358,1181.48C802.875,1180.32 796.327,1181.74 788.901,1180.83L786.526,1175.39C804.321,1154.41 827.393,1147.47 852.309,1138.48C857.875,1136.37 863.938,1135.63 870.098,1135.45ZM1398.23,1209.97C1443.98,1213.8 1487.39,1221.82 1522.32,1254.25C1523.79,1255.95 1525.14,1257.74 1526.41,1259.63C1534.3,1265.3 1540.86,1272.3 1548.56,1278.6C1561.15,1296.37 1556.04,1316.95 1541.38,1331.52C1522.89,1348.38 1499.15,1360.32 1475.12,1367.86C1459.78,1371.63 1440.12,1379.09 1426.66,1367.52C1426.28,1366.84 1425.83,1366.16 1425.35,1365.48C1418.39,1359.21 1410.66,1354.45 1403.5,1348.44C1398.4,1344.99 1398.75,1336.57 1399.87,1331.24C1404.65,1327.75 1409.99,1327.35 1415.54,1326.02C1436.96,1322.19 1462.3,1319.25 1480.83,1307.46C1484.49,1304.91 1488.23,1304.79 1488.54,1299.66C1487.03,1294.2 1480.09,1290.04 1477.05,1289.2C1414.2,1271.97 1343.41,1289.37 1284.82,1314.97C1266.58,1322.93 1255.73,1330.1 1253.91,1351.63C1255.1,1368.38 1268.27,1381.1 1281.85,1389.15C1285.19,1389.66 1288.51,1390.31 1291.76,1391.19C1322.22,1400.29 1357.68,1397.09 1389.44,1398.39C1395.58,1401.54 1397.62,1407.01 1399.3,1414.01C1403.85,1414.27 1407.21,1414.69 1409.73,1415.94C1412.71,1416.99 1414.7,1419.06 1415.24,1423.25C1415.31,1423.45 1415.37,1423.67 1415.43,1423.87L1415.32,1423.93C1415.41,1424.98 1415.42,1426.14 1415.34,1427.44C1391.44,1429.09 1367.33,1428.55 1343.37,1429.74L1343.33,1429.74C1343.2,1429.83 1343.08,1429.94 1342.95,1430.05C1359.52,1436.32 1371.53,1452.02 1373.28,1469.62C1380.39,1470.65 1384.44,1470.25 1391.21,1467.81C1419.62,1467.07 1448.02,1458.4 1475.69,1452.19C1502.11,1446.32 1527.48,1436.8 1553.93,1431.52L1554.39,1428.86C1537.28,1425.37 1519.05,1426 1502.19,1428.63L1498.76,1426.56L1500.06,1417.95C1501.09,1417.04 1502.12,1416.16 1503.16,1415.34C1497.86,1413.61 1492.5,1412.22 1487.14,1410.66C1487.18,1408.62 1487.31,1406.58 1487.56,1404.51C1493.53,1397.42 1500.02,1391.19 1508.71,1387.56C1527.56,1379.76 1551.14,1382.8 1571.07,1383.88C1596.47,1389.12 1625.54,1396.49 1645.81,1413.44C1654.43,1419.34 1651.57,1430.3 1653.69,1439.57C1653.95,1440.54 1654.12,1441.45 1654.23,1442.33L1654.46,1442.61C1656.87,1452.08 1652.36,1458.31 1646.24,1464.86C1619.34,1482.46 1586.11,1490.8 1556.15,1502.11C1514.19,1516.99 1471.98,1528.67 1429.12,1540.58L1427.28,1541.14C1412.08,1543.97 1396.59,1546.61 1381.41,1549.87C1384.12,1565.06 1389.38,1579.89 1393.44,1594.74C1400.22,1615.07 1406.04,1635.79 1425.96,1647.18C1432.94,1651.12 1427.12,1661.1 1423.77,1665.84C1419.55,1672.72 1414.65,1678.79 1409.05,1683.95C1403.25,1691.89 1396.15,1698.91 1387.6,1701.38C1381.65,1704.38 1374.4,1702.94 1368.3,1699.45C1365.79,1698.52 1363.26,1697.78 1360.55,1697.22C1359.4,1696.99 1358.2,1696.57 1356.98,1696.57C1352.15,1694.76 1351.37,1690.27 1347.91,1685.42C1343.85,1679.73 1339.95,1667.06 1339.69,1665.87C1337.94,1658.13 1334.18,1650.67 1332.65,1642.77C1323.93,1613.2 1322.32,1582.73 1316.78,1552.68C1316.5,1546.02 1315.97,1539.81 1312.62,1533.83C1293.43,1523.8 1279.09,1509.82 1271.55,1489.32C1268.62,1472.6 1268.06,1454.15 1277.37,1439.24C1280.44,1432.26 1286.06,1428.69 1291.08,1424.1C1276.54,1421.61 1262.17,1418.2 1248.06,1413.41C1228.07,1405 1209.88,1394.93 1195.58,1379.97C1181.89,1369.93 1170.25,1357.4 1163.33,1341.64C1161.34,1333.36 1161.24,1319.45 1163.44,1311.11C1168.33,1300.54 1176.14,1291.21 1183.58,1282.26C1221.89,1244.33 1275.81,1223.07 1328.43,1214.91C1351.7,1209.66 1374.85,1213.83 1398.23,1209.97ZM644.738,1465.61C635.63,1465.29 630.218,1470.91 622.47,1474.5L619.785,1477.23C613.713,1491.81 604.849,1503.64 603.907,1520.5C607.85,1519.98 611.029,1517.63 613.402,1513.55C617.764,1507.86 627.636,1506.57 634.197,1504.83C643.968,1505.35 653.948,1509.44 663.091,1512.79C665.639,1519.59 668.259,1527.09 668.223,1534.46C666.269,1542.8 660.861,1549.78 660.616,1558.88C659.465,1577.48 666.515,1592.98 673.25,1609.73C683.196,1635.03 699.423,1657.99 718.023,1677.64C724.619,1683.54 733.445,1691.42 742.832,1690.34C752.08,1688.07 754.732,1678.58 757.105,1670.59C760.909,1641.8 755.956,1614.93 749.465,1587.05C739.624,1549.46 719.149,1512.15 689.66,1486.11C676.748,1474.91 662.466,1464.32 644.738,1465.61ZM2225.81,1466.15C2331.94,1466.15 2418.08,1551.33 2418.08,1656.27C2418.08,1761.21 2331.94,1846.39 2225.81,1846.39C2119.71,1846.39 2033.57,1761.21 2033.57,1656.27C2033.57,1551.33 2119.71,1466.15 2225.81,1466.15ZM25.922,1478.65C112.528,1478.65 185.84,1536.33 209.863,1615.5C210.745,1617.55 211.369,1619.59 211.618,1621.65C215.899,1637.67 218.179,1654.51 218.179,1671.83C218.179,1778.47 132.031,1865.01 25.922,1865.01C-80.188,1865.01 -166.336,1778.47 -166.336,1671.83C-166.336,1565.22 -80.188,1478.65 25.922,1478.65ZM2233.56,1479.33C2215.04,1478.62 2197.03,1480.56 2178.49,1484.99C2147.31,1494.36 2119.64,1509.57 2096.19,1533.98C2080.4,1550.42 2072.01,1564.57 2064.41,1579.42C2050.68,1605.27 2043.46,1644.66 2047.73,1676.7C2049.01,1686.3 2051.95,1701.42 2056.11,1713.17C2060.42,1725.36 2066.59,1738.74 2073.62,1749.88C2086.86,1770.9 2105.48,1790.38 2129.19,1805.38C2134.88,1808.98 2140.57,1812.58 2146.99,1815.52C2165.75,1824.09 2175.56,1827.02 2194.84,1830.77C2206.56,1833.05 2220.65,1833.82 2234.89,1833.28C2247.65,1832.8 2260.47,1830.78 2271.73,1827.62C2322.38,1813.38 2363.4,1780.92 2385.41,1737.07C2389.48,1728.04 2397.04,1711.99 2399.2,1701.88C2406.6,1667.19 2407.15,1649.81 2402.57,1626.3C2397.74,1601.51 2390.55,1582.9 2380.31,1566.01C2369.74,1548.58 2355.88,1533.01 2335.52,1516.18C2319.77,1504.07 2303.92,1495.26 2284.12,1488.27C2276.65,1485.63 2259.98,1481.95 2252.29,1480.94L2252.29,1480.93C2245.97,1480.1 2239.74,1479.57 2233.56,1479.33ZM18.564,1492.12C12.555,1492.33 6.533,1492.88 0.465,1493.8C-2.599,1494.29 -7.77,1494.99 -13.47,1496.24C-21.297,1498 -29.974,1500.5 -34.243,1502.22C-41.412,1505.17 -48.594,1508.06 -55.17,1511.41C-65.318,1516.57 -74.716,1522.72 -84.309,1530.17C-101.906,1543.89 -112.657,1556.79 -122.371,1571.27C-135.592,1590.98 -145.071,1611.41 -150.746,1640.92C-156.083,1662.95 -153.489,1691.83 -147.33,1718.37C-144.954,1728.6 -138.866,1743.68 -134.784,1752.86C-112.694,1797.45 -77.06,1827.95 -20.662,1846.09C2.021,1853.4 34.942,1853.66 57.307,1849.64C76.615,1846.71 90.793,1840.48 108.741,1831.86C141.922,1814.13 160.079,1793.77 177.586,1767.83C185.053,1756.77 188.816,1748.44 194.976,1731.94L198.923,1719.64C201.693,1709.29 202.49,1700.93 204.443,1691.52C207.303,1658.81 202.188,1624.12 187.502,1594.07C186.646,1591.74 185.16,1589.1 183.726,1586.41C175.684,1571.33 160.778,1552.9 155.202,1547.43C145.267,1537.71 139.53,1531.9 128.246,1524.28C111.309,1512.85 93.388,1503.34 73.092,1498.44C54.483,1493.93 36.589,1491.5 18.564,1492.12ZM2195.06,1508.35C2199.73,1508.27 2204.42,1508.42 2209.1,1508.82C2235.07,1509.2 2256.93,1519.36 2279.22,1531.3C2319.75,1558.48 2343.21,1603.84 2345.16,1651.71C2345.66,1663.95 2344.54,1680.71 2340.91,1692.68C2327.76,1735.99 2292.22,1773.16 2247.23,1788.91C2231.59,1795.47 2215.46,1795.4 2198.67,1795.19C2193.66,1795.19 2188.64,1794.91 2183.64,1794.4C2183.35,1794.37 2182.95,1794.35 2182.95,1794.35L2171.63,1795.33L2170.72,1792.58C2170.72,1792.58 2170.81,1792.53 2170.42,1792.45C2160.4,1790.52 2150.59,1787.59 2141.24,1783.73C2131.82,1778.25 2111.89,1766.63 2111.36,1766.32C2109.17,1767.82 2103.81,1771.48 2103.81,1771.48L2077.74,1748.13C2077.74,1748.13 2081.78,1739.91 2083.34,1736.71C2083.27,1736.6 2082.89,1736.19 2082.82,1736.08C2072.73,1720.24 2060.54,1697.38 2058.15,1679.62C2055.8,1662.1 2055.64,1641.37 2057.88,1626.26C2059.81,1613.17 2066.13,1600.13 2071.79,1588.6C2067.62,1582.46 2067.36,1582.38 2066.47,1580.99C2067.42,1579.89 2069.05,1578.22 2070.97,1576.15C2078.42,1568.11 2090.83,1554.84 2090.83,1554.84L2093.71,1556.42C2093.71,1556.42 2093.87,1556.16 2093.96,1556.02C2096.93,1551.01 2101.92,1547.25 2106.3,1543.38C2130.33,1521.13 2162.35,1508.91 2195.06,1508.35ZM41.053,1521.78C78.453,1521.25 116.671,1531.08 144.24,1556.93C148.637,1560.87 153.646,1564.7 156.631,1569.77C156.719,1569.94 157.007,1570.4 157.267,1570.79L160.888,1568.78L184.723,1596.16L187.402,1594.06C186.753,1594.12 186.015,1595.74 184.723,1596.16L179.374,1603.84C184.942,1615.43 189.525,1628.87 192.856,1641.2C194.216,1659.03 194.002,1677.63 192.573,1695.46C188.463,1713.85 177.543,1737.79 167.449,1753.89L174.015,1765.13L147.9,1788.89L147.496,1788.6L147.462,1788.63C147.284,1788.8 141.561,1785.04 139.651,1783.34C130.299,1789.46 118.799,1795.66 109.167,1801.36C100.161,1805.1 90.727,1808.02 81.092,1809.98L80.151,1813.13L67.821,1812.08C62.398,1812.67 56.95,1813.01 51.516,1813.01C34.662,1813.21 18.472,1813.29 2.768,1806.63C-42.39,1790.59 -80.181,1751.02 -90.476,1703.77C-95.326,1691.66 -96.038,1679.56 -95.536,1667.12C-93.583,1618.42 -70.029,1572.29 -29.337,1544.65C-6.969,1532.49 14.985,1522.18 41.053,1521.78ZM1642.55,1527.25C1653.43,1527.56 1664.01,1529.83 1675.72,1530.85C1700.92,1537.57 1731.51,1548.37 1748.63,1568.95C1750.1,1576.04 1750.78,1585.39 1748.48,1592.31C1746.87,1594.97 1745.03,1597.78 1743.04,1600.47L1743.04,1600.47C1739.95,1606.06 1735.61,1610.82 1731.33,1616.66C1727.42,1619.35 1723.53,1622.13 1719.45,1624.62C1700.97,1631.77 1681.5,1630.69 1662.34,1635.57C1623.19,1644.84 1586.06,1660.77 1552.91,1683.53C1530.58,1699.15 1504.39,1720.58 1495.72,1747.28C1494.98,1749.35 1494.38,1751.62 1493.96,1753.91C1494.97,1759.33 1497.91,1764.55 1503.65,1769.25C1521.62,1777.07 1543.81,1774.04 1562.1,1769.25C1577.59,1751.19 1597,1735.88 1616.61,1722.56C1650.6,1700.59 1688.53,1683.25 1727.99,1673.92C1742.44,1672.81 1753.47,1667.2 1768.12,1672.14C1786.29,1674.23 1802.93,1685.23 1810.05,1702.32C1814.16,1715.93 1815.66,1731.04 1801.49,1739.2L1800.69,1739.34C1798.4,1741.07 1795.42,1742.15 1791.34,1743.03C1788.19,1742.41 1785.07,1741.95 1781.98,1741.78C1778.89,1742.03 1775.81,1742.21 1772.69,1742.32C1771.61,1742.49 1770.51,1742.75 1769.43,1743.03C1727.67,1747.88 1685.98,1766.78 1650.06,1788.04C1618.17,1807.29 1589.79,1831.72 1566.12,1860.38C1561.15,1867.52 1555.86,1873.76 1551.14,1880.37C1548.69,1884.11 1546.34,1887.88 1544.09,1891.73C1543.15,1893.52 1542.27,1895.42 1541.47,1897.38C1539.82,1900.61 1538.84,1903.95 1536.31,1905.73C1533.83,1909.05 1529.42,1908.43 1525.66,1907.18C1521.16,1896.49 1517.08,1884 1517.81,1872.32L1517.81,1872.01C1515.56,1856.02 1521.64,1843.2 1523.6,1828.12C1521.33,1828.29 1519.1,1828.35 1517.12,1827.95C1514.07,1827.53 1511.12,1826.73 1508.28,1825.66C1500.34,1823.39 1493.12,1819.25 1487,1813.02C1468.02,1796.18 1457.13,1770.13 1449.03,1746.57C1440.06,1718.77 1444.7,1688.6 1460.89,1664.31C1474.5,1640.1 1500.37,1622.16 1524.34,1609.23C1558.79,1593.56 1594.77,1579.55 1631.64,1570.91L1631.64,1566.2C1630.64,1566 1629.65,1565.84 1628.63,1565.69C1616.81,1564.76 1604.85,1565.3 1592.62,1566.29C1584.93,1568.19 1579.08,1573.06 1570.9,1573.69L1569.27,1570.26L1569.29,1570.23C1566.6,1564.81 1565.13,1558.04 1569.54,1553.22C1581.51,1536.92 1603.1,1530.94 1622.34,1529.49C1629.39,1527.58 1636.02,1527.06 1642.55,1527.25ZM447.592,1616.98C453.134,1617.45 459.661,1621.28 463.692,1623.66L464.461,1623.97C471.684,1626.21 477.162,1628.5 482.571,1633.95C504.766,1654.7 521.587,1681.17 541.373,1704.25C574.946,1747.45 609.387,1790.22 641.211,1834.75C644.04,1837.9 645.157,1842.58 650.324,1840.19C664.421,1828.69 679.18,1817.97 692.512,1805.59C701.831,1797.71 709.417,1788.89 713.545,1778.26L713.545,1778.26C713.629,1777.15 713.682,1776.02 713.7,1774.89C714.04,1774.89 714.375,1774.86 714.718,1774.86C716.079,1770.47 716.856,1765.73 716.938,1760.66C727.268,1760.2 738.753,1765.3 748.385,1769.05C759.727,1771.8 769.213,1782.26 774.168,1792.46C780.138,1807.45 773.159,1822.82 761.401,1832.54L759.369,1834.13C757.626,1836.17 755.75,1838.04 753.822,1839.83C725.765,1864.01 688.215,1878.21 657.737,1898.56C654.588,1915.42 648.798,1935.72 635.835,1947.57C635.288,1948.06 634.733,1948.54 634.169,1949.02C633.268,1949.92 632.324,1950.8 631.334,1951.68C616.844,1963.95 596.947,1971.66 577.841,1970.19C573.428,1970.64 568.947,1969.91 564.814,1968.26C564.48,1968.21 564.147,1968.12 563.812,1968.06C553.658,1963.39 547.13,1956.62 542.209,1946.66C542.033,1939.55 541.755,1932.29 542.591,1925.21C545.942,1913.64 553.763,1903.35 561.127,1894.03C565.487,1887.96 573.198,1885.66 570.65,1877.05C565.312,1865.59 559.905,1853.69 552.889,1843.12C550.213,1838.64 547.494,1834.13 544.745,1829.65C537.76,1818.71 530.638,1807.94 524.022,1797.11C508.763,1773.92 493.347,1750.93 478.463,1727.55L474.82,1725.48C471.923,1744.44 488.887,1762.87 489.513,1780.67C486.582,1783.13 480.988,1782.23 472.085,1779C473.539,1782.82 474.907,1786.62 476.049,1790.48L474.061,1793.97C464.852,1796.35 455.166,1786.91 449.369,1779.37C443.589,1774.21 439,1767.57 436.613,1760.74C428.098,1739 422.024,1715.05 423.104,1691.58C423.314,1677.32 421.953,1663.57 425.828,1649.65C427.257,1636.98 432.285,1625.78 442.509,1617.82C444.01,1617.05 445.744,1616.83 447.592,1616.98ZM1779.06,1756.14C1784.68,1756.34 1790.22,1756.69 1795.54,1757C1832.53,1763.15 1874.85,1778.94 1898.55,1809.53C1917.8,1834.9 1930.16,1871.06 1919.98,1902.36C1914.4,1924.89 1900.34,1942.5 1884.07,1958.34C1881.6,1960.5 1878.96,1962.43 1876.15,1964.13C1872.18,1966.99 1867.99,1969.45 1863.6,1971.55C1839.25,1979.91 1815.27,1974.82 1793.44,1962.43C1795.45,1967.44 1798.49,1972.23 1801.12,1976.94C1815.3,2002.31 1819.66,2031.96 1811.5,2060.02C1806.65,2086.44 1793.13,2114.84 1771.05,2130.01C1755,2141.15 1733.01,2142.88 1714.64,2137.61L1713.99,2137.38C1708.74,2135.96 1703.53,2134.12 1698.37,2131.99C1677.67,2120.62 1658.12,2108.07 1642.07,2090.55C1624.9,2071.93 1606.36,2050.35 1597,2026.63C1585.9,2005.54 1577.91,1984.11 1572.4,1960.95C1568.63,1942.55 1565.38,1924.61 1570.13,1906.1C1570.44,1896.83 1573.24,1890.12 1578.61,1882.78C1582.76,1882.12 1585.66,1882.43 1588.34,1886.03C1593.2,1893.06 1596.76,1900.97 1601.71,1908C1602.36,1910.01 1602.84,1912.03 1603.21,1914.04C1607.52,1922.29 1607.15,1934.59 1608.17,1942.72C1609.25,1947.49 1610.61,1952.11 1612.31,1956.59C1616.05,1963.45 1621.49,1969.14 1624.3,1976.63C1640,1995.82 1663.9,2017.59 1689.55,2020.17C1695.82,2018.69 1704.23,2019.2 1710.73,2019.86C1727.37,2018.58 1740.49,2000.58 1744.88,1985.7C1745.03,1974.13 1746.81,1962.91 1741.93,1952.39C1736.58,1935.13 1724.9,1923.76 1715.03,1909.33C1713.16,1906.22 1711.46,1903.04 1709.93,1899.78C1680.62,1917.36 1655.42,1941.5 1640.23,1972.06C1639.49,1971.58 1638.78,1971.1 1638.13,1970.56C1631.84,1970.48 1630.31,1962.43 1628.15,1957.52C1626.91,1951.43 1618.18,1950.75 1616.79,1945.42C1608.8,1924.92 1614.35,1900.91 1622.8,1881.5C1636.32,1848.78 1668.83,1824.4 1700.24,1810.2C1705.68,1807.09 1714.98,1805.73 1717.7,1799.66C1713.73,1799.61 1709.79,1799.52 1705.79,1799.41C1704.8,1783.22 1715.94,1770.35 1729.89,1763.75C1744.62,1756.35 1762.21,1755.55 1779.06,1756.14ZM338.308,1812.78C344.868,1813.24 354.114,1812.95 361.008,1815.36C379.025,1821.66 375.191,1820.66 386.913,1827.24L398.921,1834.81C401.724,1836.59 403.38,1838.1 405.415,1840.08C418.642,1859.27 433.785,1881.24 438.949,1904.23C441.843,1916.13 441.842,1928.63 435.456,1939.46C431.618,1940 427.749,1940.32 423.874,1940.46C422.471,1943.29 421.457,1946.61 420.142,1949.67C419.887,1957.3 418.343,1965.09 411.61,1965.94C400.941,1960.64 394.239,1950.66 390.273,1939.69C384.842,1928.21 380.369,1916.53 375.369,1905.11L375.225,1904.83L371.073,1901.93C371.107,1927.75 378.646,1953.75 382.207,1978.87L382.694,1980.37C388.451,1991.39 391.001,2003.84 397.526,2014.67C413.825,2048.2 434.304,2077.23 469.97,2091.74C476.285,2092.82 482.358,2091.94 488.605,2090.89C494.93,2072.43 493.808,2053.41 490.438,2034.48C489.344,2029.06 488.055,2023.71 486.623,2018.38C484.466,2015.01 482.543,2011.27 480.555,2007.58C475.059,2008.12 469.526,2008.57 464.146,2009.59C463.658,2016.14 467.706,2024.93 464.04,2030.51C463.524,2030.68 463.009,2030.82 462.496,2030.93C462.606,2032.52 462.66,2034.14 462.617,2035.76C446.71,2039.78 434.714,2027.65 431.165,2013.42C427.457,2006.56 425.743,1998.71 427.013,1991.65C430.607,1974.64 436.75,1957.18 444.74,1941.64C451.198,1934.08 460.518,1928.83 468.021,1922.2C475.731,1916.42 488.504,1919.45 496.251,1923.87C526.928,1938.16 549.819,1968.97 570.616,1994.71C585.308,2011.58 598.746,2032.24 603.492,2054.44C604.991,2065.86 600.42,2077.88 596.964,2088.74C594.872,2113.09 579.903,2131.65 561.033,2145.6C558.972,2147.27 556.799,2148.89 554.5,2150.42C550.968,2151.18 545.235,2155.29 542.026,2152.8C541.956,2152.66 541.89,2152.49 541.821,2152.34C540.982,2152.2 540.69,2151.75 541.246,2150.9C538.062,2142.14 540.307,2132.93 536.44,2124C534.51,2118.61 532.826,2112.72 530.87,2106.93C530.431,2106.96 529.945,2107.08 529.403,2107.28C518.898,2126.35 513.421,2153.28 496.6,2168.02C494.678,2170.12 492.589,2172.16 490.36,2174.06C479.688,2185.99 462.115,2191.49 446.578,2191.58C426.076,2189.17 408.434,2184.32 392.438,2171.48C391.389,2170.69 389.171,2168.5 383.009,2164.21C365.387,2146.7 344.748,2117.12 332.777,2093.91C309.529,2042.84 299.392,1999.39 294.333,1942.87C292.83,1904.23 291.544,1866.58 310.493,1831.49C317.228,1821.51 325.745,1813.66 338.308,1812.78ZM1810.34,1814.3L1810.35,1814.3C1818.9,1825.82 1827.38,1836.67 1832.58,1850.21C1833.52,1856.91 1833.41,1863.92 1832.75,1870.66C1827.62,1874.01 1819.66,1871.7 1813.87,1871.35C1791.36,1868.42 1770.56,1872.33 1749.13,1878.89C1746.34,1879.31 1744.66,1880.88 1744.07,1883.64C1746.24,1890.1 1757.89,1892.01 1763.27,1895.75C1780.85,1907.58 1803.5,1912.74 1824.37,1908.66C1834.46,1906.25 1841.44,1900.04 1848.87,1893.34C1857.21,1880.88 1856.13,1864.16 1849.75,1851.11C1844.2,1837.85 1834.98,1826.83 1823.88,1817.79L1821.72,1816.01L1810.34,1814.3ZM2178.52,1851.94C2210.95,1851.94 2241.2,1861.55 2266.54,1878.08C2282.81,1886.58 2296.19,1900.16 2307.21,1915.89C2328.22,1943.41 2340.69,1977.82 2340.69,2015.16C2340.69,2038.03 2335.99,2059.83 2327.54,2079.62C2325.21,2085.29 2322.52,2090.9 2319.43,2096.49C2298.14,2134.78 2257.97,2167.38 2205.45,2176.11L2205.25,2176.14C2196.55,2177.61 2187.62,2178.35 2178.52,2178.35C2164.12,2178.35 2150.15,2176.45 2136.82,2172.91C2130.76,2171.32 2124.64,2169.28 2118.57,2166.82C2115.88,2165.74 2113.21,2164.6 2110.6,2163.38C2096.26,2156.75 2082.66,2148.16 2071.37,2138.89L2060.97,2127.56C2060.13,2126.64 2061.8,2128.46 2060.97,2127.56C2058.93,2118.32 2054.39,2107.98 2050.31,2095.92C2050.29,2095.86 2048.53,2092.7 2048.5,2092.63C2053.36,2102 2060.39,2110.49 2060.9,2111.12C2069.39,2121.58 2081.02,2132.23 2091.29,2139.68C2100.57,2145.73 2111.69,2152.32 2123.38,2156.84C2132.35,2160.32 2142.37,2163.22 2152.52,2165.02C2166.72,2167.53 2178.91,2167.79 2191.03,2166.87C2199.24,2166.24 2207.6,2165.05 2216.17,2162.75C2242.68,2155.6 2267.16,2141.89 2286.13,2122.21C2303.46,2104.23 2317.26,2082.56 2323.58,2058.06C2330.28,2035.5 2331.08,2017.67 2328.36,1994.52C2327.53,1987.52 2325.45,1977.98 2322.28,1968.27C2318.66,1957.21 2313.7,1946 2309.25,1939.1C2302.87,1927.43 2295.07,1917.57 2286.53,1908.74C2277.81,1899.72 2268.29,1891.82 2257.55,1885.59C2251.99,1882.36 2246.74,1879.32 2241.08,1876.65C2229.37,1871.12 2216.93,1867.02 2203.76,1865.19C2192.05,1863.56 2189.81,1863.53 2182.77,1863.18C2169.44,1862.53 2156.05,1864.01 2143.05,1867.3L2118.7,1875.41C2118.7,1875.41 2118.7,1875.4 2118.69,1875.41C2111.08,1878.42 2104.87,1882.25 2099.66,1885.45C2085.35,1894.23 2078.13,1901.45 2069.95,1909.4C2065.03,1914.81 2060.2,1920.44 2055.94,1926.29C2051.84,1931.92 2048.29,1937.76 2045.21,1943.6C2039.98,1953.52 2036.15,1963.26 2033.47,1972.37C2031.63,1978.58 2030.47,1984.38 2029.55,1989.61C2028.76,1994.04 2028.22,1998.24 2028.02,2001.44C2027.91,2003.1 2027.54,2007.29 2027.45,2012.72C2027.44,2013.89 2027.63,2017.16 2027.56,2018.43C2027.52,2017.84 2027.57,2016.41 2027.54,2015.79C2024.43,2003.71 2022.23,1991.56 2019.94,1981.92C2031.62,1919.64 2077.72,1872.66 2138.15,1857.04C2140.02,1856.56 2141.9,1856.08 2143.8,1855.65C2145.07,1855.37 2146.38,1855.12 2147.68,1854.89C2157.66,1852.96 2167.97,1851.94 2178.52,1851.94ZM73.208,1870.65C140.86,1870.65 198.893,1913.12 223.245,1973.33C223.097,1974.64 222.942,1975.52 222.531,1976.91C221.652,1979.89 219.986,1985.31 218.035,1991.95C217.134,1988.73 216.352,1986.43 215.134,1983.03C208.64,1964.91 197.518,1944.86 181.179,1928.4C175.24,1922.41 171,1918.67 164.227,1913.27C161.128,1910.8 156.917,1908 152.478,1905.08C148.224,1902.29 143.295,1899.3 136.7,1896.18C130.544,1893.27 122.644,1890.33 116.359,1888.45C101.336,1883.98 84.667,1881.24 69.316,1882C55.493,1882.68 41.983,1884.71 29.194,1888.65C-7.557,1899.95 -38.899,1924.78 -58.714,1961.39C-67.159,1974.61 -74.196,1996.12 -75.976,2011.4C-78.726,2035.04 -78.882,2056.05 -72.112,2079.08C-58.746,2131.46 -14.252,2173.09 36.978,2187.05C57.951,2190.47 76.1,2192.78 97.458,2188.87C102.542,2187.94 109.774,2186.74 116.68,2184.6C123.698,2182.44 130.393,2179.34 134.934,2177.48C141.979,2174.59 147.669,2171.09 151.864,2168.49C155.476,2166.25 156.755,2165.07 161.027,2162.16C168.701,2156.95 177.108,2148.97 183.992,2141.46C182.397,2151.36 181.57,2157.99 181.556,2159.81C152.832,2186.23 114.843,2202.3 73.208,2202.3C-16.293,2202.3 -88.954,2128.01 -88.954,2036.48C-88.954,2017.65 -85.881,1999.57 -80.223,1982.71C-78.964,1978.03 -77.422,1973.44 -75.257,1968.87C-64.182,1939.87 -45.292,1917.45 -21.155,1901.63C5.429,1882.13 38.016,1870.65 73.208,1870.65ZM2174.37,1875.82C2177.6,1875.85 2180.16,1876.03 2181.85,1876.32C2221.42,1883.02 2250,1908.95 2266.28,1945.08C2271.63,1955.75 2272.01,1966.99 2275.09,1978.21C2279.09,2028.01 2252.83,2078.6 2205.53,2098.57C2182.78,2108.16 2150.45,2108.82 2132.37,2105.95C2114.07,2103.05 2108.37,2098.95 2096,2091.01C2095.57,2090.73 2095.97,2091.01 2095.97,2091.01L2094.76,2092.16C2094.76,2092.16 2087.81,2087.95 2080.44,2083.48C2076.27,2080.95 2071.96,2078.34 2068.7,2076.37L2070.35,2071.75C2070.28,2071.63 2069.4,2071.01 2069.21,2070.83C2065.8,2067.47 2044.69,2053.8 2039.09,2029.24C2039.09,2029.19 2039.04,2028.92 2039.04,2028.92L2036.13,2028.83C2034.46,2020.97 2030.45,2001.3 2030.45,2001.3L2032.23,2000.4L2032.24,2000.39C2032.24,2000.39 2032.3,1999.71 2032.31,1999.68C2033.43,1992.78 2039.5,1977.16 2043.77,1966.18C2051.43,1946.47 2069.72,1924.07 2085.45,1907.25C2090.27,1902.08 2095.93,1897.72 2102.06,1894.05C2102.62,1893.72 2103.74,1893.07 2103.74,1893.07L2103.88,1887.39L2127.89,1882.85C2127.89,1882.85 2131.14,1881.88 2132.76,1881.45C2149.05,1877.06 2164.7,1875.73 2174.37,1875.82ZM77.034,1893.94C88.962,1893.92 108.528,1895.89 127.398,1902.8C128.037,1903.03 147.905,1906.71 147.905,1906.71L147.988,1912.27C154.574,1915.77 160.305,1920.65 165.323,1926.08C181.208,1943.25 199.678,1966.12 207.411,1986.25C209.562,1991.85 212.167,1998.8 214.376,2005.24C210.606,2018.84 205.553,2036.13 201.188,2053.7C199.384,2060.96 197.65,2068.49 196.338,2075.96C190.074,2083.8 183.225,2090.01 181.019,2092.37C180.687,2092.72 181.199,2092.16 180.875,2092.54L183.062,2098.68C174.697,2103.9 157.007,2114.71 157.007,2114.71L155.219,2113C144.059,2120.09 130.691,2125.64 117.926,2128.93C93.916,2131.83 66.033,2132.81 44.048,2121.39C-3.727,2101.01 -30.246,2049.37 -26.198,1998.53C-25.274,1986.9 -22.71,1975.6 -17.301,1964.71C-0.865,1927.82 28.002,1901.35 67.96,1894.51C69.929,1894.17 73.057,1893.94 77.034,1893.94Z" style="fill:white;fill-rule:nonzero;"/>
            </g>
        </g>
    </g>
</svg>
