<?xml version="1.0" encoding="UTF-8" standalone="no"?>
<!DOCTYPE svg PUBLIC "-//W3C//DTD SVG 1.1//EN" "http://www.w3.org/Graphics/SVG/1.1/DTD/svg11.dtd">
<svg width="100%" height="100%" viewBox="0 0 842 842" version="1.1" xmlns="http://www.w3.org/2000/svg" xmlns:xlink="http://www.w3.org/1999/xlink" xml:space="preserve" xmlns:serif="http://www.serif.com/" style="fill-rule:evenodd;clip-rule:evenodd;stroke-linejoin:round;stroke-miterlimit:2;">
    <g id="Layer-2" serif:id="Layer 2" transform="matrix(0.983993,0,0,0.996559,129.617,1.86228)">
        <circle id="path71010" cx="297.807" cy="421.131" r="352.911"/>
    </g>
    <g id="mask-layer-front" serif:id="mask layer front">
        <g id="g66840">
            <path d="M423.299,67.353C228.219,67.353 69.838,226.262 69.838,421.988C69.838,617.715 228.219,776.617 423.299,776.617L424.442,776.617C619.012,775.987 776.759,617.325 776.759,421.988L776.759,420.969L776.741,418.644L776.713,416.327L776.699,415.277L776.646,412.981L776.617,411.759L776.579,410.68L776.504,408.37L776.362,405.031L776.302,403.757L776.249,402.745L776.182,401.567L776.047,399.363L775.903,397.113L775.739,394.846L775.641,393.594L775.559,392.574L775.364,390.302L775.266,389.221L775.057,386.979L774.936,385.75L774.824,384.729L774.696,383.522L774.583,382.471L774.456,381.332L774.329,380.214L774.059,377.957L773.923,376.914L773.639,374.687L773.48,373.524L773.331,372.445L773.173,371.32C773.12,370.952 773.069,370.584 773.009,370.217L772.686,368.012L772.514,366.902C765.494,321.849 750.021,279.603 727.761,241.848L727.206,240.91L726.718,240.093L726.179,239.185L725.189,237.55C724.979,237.213 724.769,236.868 724.559,236.523C720.569,230.816 712.31,218.628 704.6,207.333L704.047,206.605L702.074,204.048L701.234,202.975L699.658,200.988L698.669,199.742L697.829,198.692L697.004,197.68L695.189,195.475L694.341,194.463L693.427,193.367L692.533,192.319L691.634,191.252C690.899,190.39 690.156,189.535 689.406,188.673L688.949,188.148L688.057,187.136L687.126,186.086L686.211,185.065L685.281,184.023C684.058,182.673 682.828,181.331 681.591,180.004L681.112,179.485L680.189,178.504L679.229,177.49L677.309,175.48C676.836,174.993 676.364,174.506 675.891,174.026C675.824,173.958 675.749,173.898 675.682,173.838L675.673,173.8C675.185,173.298 674.698,172.802 674.211,172.307L674.143,172.293C673.926,172.053 673.708,171.821 673.49,171.581L672.747,170.838L671.997,170.095L671.255,169.353L669.747,167.875L668.997,167.141L668.24,166.413L667.483,165.677L666.718,164.958L665.961,164.23L665.195,163.504L664.423,162.783L663.658,162.064L662.885,161.35L662.113,160.631L661.333,159.918L660.553,159.213L659.773,158.501L658.993,157.795L658.206,157.091L656.63,155.696L655.836,154.997L655.04,154.3L653.45,152.92L652.648,152.23L651.5,151.256L650.69,150.566L649.872,149.876L648.23,148.504L647.406,147.828L646.581,147.146L645.755,146.47L644.098,145.129L643.266,144.468L642.433,143.8L639.913,141.821L638.233,140.516L637.385,139.863L636.538,139.218L635.683,138.573L634.836,137.927L633.125,136.653L632.264,136.023L631.408,135.386L630.545,134.756L629.683,134.134L628.812,133.511L627.951,132.888L627.081,132.273L626.211,131.651L625.341,131.035L622.708,129.213L621.831,128.613L620.945,128.013L620.06,127.413L618.29,126.228L617.398,125.636L614.721,123.881L613.82,123.302L612.928,122.725L612.028,122.155L611.12,121.586L610.221,121.016L609.312,120.446L608.406,119.884L607.497,119.328L606.591,118.766L605.675,118.211L604.761,117.663L603.846,117.108L602.007,116.021L601.086,115.48L599.24,114.401L598.31,113.869L597.38,113.343L596.451,112.811L595.521,112.285L594.591,111.768L593.653,111.244L592.716,110.725L590.841,109.706L589.896,109.196L587.06,107.689L586.108,107.194L585.163,106.698L584.211,106.203L583.259,105.716L582.298,105.228L581.346,104.749L579.425,103.788L578.466,103.316L577.497,102.843L576.538,102.379L575.571,101.905L574.603,101.448L573.627,100.983L572.661,100.526L569.735,99.176L568.752,98.725L567.778,98.283L566.795,97.848L565.812,97.405L564.831,96.97L563.848,96.543L561.868,95.689L559.889,94.848L558.898,94.429L556.903,93.603L554.908,92.793L553.903,92.388L551.901,91.593L549.891,90.814L548.879,90.431L547.87,90.04L546.857,89.658L544.831,88.908L543.816,88.54L542.798,88.165L541.78,87.806L540.761,87.439L539.738,87.078L538.716,86.725L536.666,86.021L534.611,85.331L533.581,84.987L532.55,84.648L531.517,84.311L529.448,83.651L526.333,82.684L524.25,82.054L522.163,81.439L521.116,81.131L520.068,80.831L519.019,80.538L517.969,80.239L516.917,79.953L515.866,79.66L514.811,79.376L513.756,79.098L511.641,78.543L509.52,78.004L508.459,77.733L507.396,77.47L504.198,76.706L500.99,75.963L499.919,75.723L496.695,75.026L494.54,74.576L492.381,74.141L491.3,73.924L490.218,73.713L489.134,73.511L488.048,73.301L486.961,73.105L485.874,72.903L484.786,72.716L483.696,72.521L482.605,72.333L479.327,71.793L477.134,71.448L474.938,71.119L472.736,70.804L469.427,70.353L467.217,70.069L466.109,69.934L465,69.806L463.891,69.67L462.781,69.551L461.669,69.424L460.556,69.304L458.328,69.078L454.978,68.763L452.74,68.569L451.619,68.478L450.498,68.396L449.375,68.306L448.251,68.23L447.126,68.148L446.001,68.081L444.875,68.006L443.747,67.939L441.49,67.819L438.096,67.66L436.963,67.616L435.829,67.578L434.694,67.533L431.284,67.444L429.008,67.398L427.867,67.384L426.725,67.376L425.584,67.362L424.442,67.362L423.299,67.353ZM124.563,501.51C123.141,502.321 121.767,503.214 120.449,504.181C114.062,508.366 109.064,514.299 106.134,521.971C105.561,523.179 105.153,524.395 104.82,525.632C103.323,530.095 102.51,534.879 102.51,539.859C102.51,564.076 121.735,583.734 145.415,583.734C156.431,583.734 166.483,579.481 174.082,572.491C174.086,572.009 174.305,570.254 174.727,567.636C172.906,569.621 170.681,571.734 168.651,573.113C167.521,573.882 167.182,574.195 166.226,574.788C165.117,575.475 163.611,576.4 161.747,577.165C160.546,577.658 158.774,578.478 156.917,579.051C155.09,579.615 153.177,579.933 151.831,580.18C146.181,581.214 141.379,580.601 135.829,579.697C122.275,576.003 110.503,564.99 106.966,551.131C105.175,545.037 105.216,539.479 105.944,533.224C106.415,529.18 108.277,523.49 110.511,519.991C115.754,510.304 124.046,503.737 133.77,500.746C137.154,499.704 140.728,499.168 144.386,498.987C148.447,498.784 152.858,499.509 156.832,500.695C158.495,501.19 160.586,501.969 162.214,502.738C163.959,503.562 165.264,504.354 166.389,505.093C167.564,505.865 168.678,506.605 169.497,507.26C171.29,508.689 172.411,509.679 173.983,511.263C178.306,515.619 181.248,520.924 182.967,525.717C183.289,526.616 183.496,527.225 183.734,528.078C184.25,526.32 184.691,524.887 184.924,524.098C185.032,523.731 185.073,523.498 185.113,523.151C178.67,507.219 163.315,495.984 145.415,495.984C142.409,495.984 139.474,496.3 136.641,496.903C133.981,499.754 130.081,501.554 125.739,501.554C125.343,501.554 124.951,501.539 124.563,501.51ZM215.557,480.673C217.292,480.793 219.738,480.718 221.562,481.356C226.329,483.021 225.315,482.758 228.416,484.498L231.594,486.5C232.335,486.973 232.773,487.371 233.312,487.896C236.811,492.974 240.818,498.785 242.184,504.868C242.95,508.018 242.95,511.325 241.26,514.19C240.245,514.333 239.221,514.416 238.196,514.454C237.824,515.204 237.556,516.081 237.208,516.891C237.141,518.909 236.732,520.97 234.951,521.195C232.128,519.793 230.355,517.153 229.306,514.25C227.869,511.213 226.685,508.123 225.362,505.101L225.324,505.026L224.225,504.26C224.234,511.092 226.229,517.97 227.171,524.615L227.3,525.012C228.823,527.93 229.498,531.224 231.225,534.089C235.537,542.961 240.956,550.641 250.392,554.481C252.063,554.766 253.67,554.533 255.323,554.255C256.996,549.373 256.699,544.34 255.808,539.33C255.518,537.897 255.177,536.48 254.798,535.07C254.227,534.178 253.719,533.189 253.193,532.214C251.739,532.356 250.274,532.475 248.851,532.745C248.722,534.478 249.793,536.803 248.823,538.281C248.687,538.326 248.55,538.362 248.414,538.392C248.444,538.812 248.458,539.241 248.447,539.668C244.238,540.733 241.064,537.523 240.125,533.758C239.144,531.943 238.69,529.865 239.026,527.998C239.977,523.498 241.602,518.877 243.717,514.767C245.425,512.765 247.891,511.378 249.876,509.623C251.916,508.093 255.296,508.895 257.346,510.065C265.462,513.845 271.519,521.998 277.021,528.808C280.909,533.27 284.464,538.738 285.72,544.611C286.116,547.633 284.907,550.813 283.993,553.685C283.439,560.128 279.478,565.041 274.486,568.731C273.94,569.173 273.365,569.6 272.757,570.005C271.823,570.208 270.306,571.295 269.457,570.635C269.438,570.598 269.421,570.552 269.403,570.515C269.181,570.477 269.103,570.358 269.25,570.133C268.408,567.815 269.002,565.377 267.979,563.015C267.468,561.59 267.023,560.03 266.505,558.5C266.389,558.508 266.26,558.539 266.117,558.591C263.338,563.639 261.888,570.763 257.438,574.663C256.929,575.218 256.377,575.757 255.787,576.26C252.963,579.418 248.314,580.874 244.203,580.896C238.778,580.259 234.111,578.976 229.878,575.579C229.601,575.369 229.014,574.791 227.384,573.654C222.721,569.023 217.26,561.196 214.093,555.053C207.942,541.542 205.26,530.046 203.921,515.091C203.524,504.869 203.183,494.908 208.197,485.623C209.979,482.983 212.233,480.906 215.557,480.673ZM735.047,506.002C735.546,506.635 736.029,507.287 736.496,507.953C742.053,515.235 745.354,524.34 745.354,534.217C745.354,540.27 744.108,546.038 741.873,551.273C741.258,552.773 740.546,554.259 739.729,555.736C734.096,565.868 723.468,574.493 709.571,576.803L709.518,576.811C707.216,577.201 704.853,577.397 702.446,577.397C698.636,577.397 694.939,576.894 691.414,575.957C689.809,575.537 688.189,574.996 686.584,574.344C685.872,574.059 685.166,573.758 684.476,573.436C680.681,571.681 677.081,569.409 674.097,566.957L671.344,563.957C670.803,561.513 669.604,558.777 668.524,555.587L668.523,555.586C668.359,555.302 668.198,555.011 668.045,554.717C668.054,554.733 668.505,555.546 668.523,555.586C669.748,557.699 671.205,559.462 671.325,559.609C673.573,562.376 676.65,565.193 679.366,567.163C681.821,568.764 684.765,570.509 687.856,571.704C690.231,572.624 692.881,573.392 695.567,573.868C699.324,574.533 702.548,574.603 705.756,574.359C707.928,574.193 710.14,573.878 712.407,573.267C719.421,571.376 725.898,567.749 730.918,562.542C735.504,557.785 739.155,552.051 740.826,545.57C742.6,539.601 742.811,534.883 742.09,528.757C741.873,526.906 741.322,524.38 740.482,521.813C739.524,518.886 738.214,515.92 737.035,514.093C735.689,511.633 734.106,509.476 732.374,507.519L735.047,506.002ZM596.756,465.686C598.242,465.738 599.707,465.831 601.115,465.913C610.903,467.541 622.1,471.719 628.37,479.812C633.462,486.524 636.733,496.093 634.04,504.373C632.563,510.335 628.843,514.993 624.538,519.185C623.885,519.755 623.187,520.266 622.445,520.716C621.395,521.474 620.285,522.125 619.122,522.68C612.68,524.893 606.335,523.544 600.56,520.266C601.092,521.594 601.896,522.861 602.593,524.106C606.343,530.818 607.498,538.664 605.338,546.089C604.056,553.079 600.477,560.593 594.635,564.606C590.39,567.553 584.571,568.01 579.711,566.615L579.538,566.555C578.15,566.18 576.771,565.693 575.406,565.13C569.931,562.123 564.756,558.801 560.511,554.166C555.966,549.238 551.061,543.53 548.586,537.253C545.65,531.673 543.535,526.003 542.076,519.875C541.079,515.008 540.22,510.26 541.475,505.363C541.559,502.911 542.298,501.134 543.72,499.192C544.818,499.019 545.585,499.1 546.295,500.053C547.579,501.913 548.521,504.005 549.831,505.865C550.003,506.398 550.13,506.931 550.228,507.464C551.368,509.646 551.271,512.9 551.54,515.053C551.825,516.313 552.186,517.536 552.636,518.721C553.626,520.536 555.065,522.044 555.808,524.024C559.963,529.101 566.286,534.861 573.074,535.543C574.731,535.153 576.958,535.289 578.675,535.461C583.078,535.124 586.551,530.361 587.713,526.423C587.751,523.363 588.223,520.393 586.933,517.611C585.515,513.043 582.425,510.036 579.815,506.218C579.32,505.393 578.871,504.554 578.466,503.692C570.711,508.342 564.043,514.73 560.023,522.815C559.828,522.688 559.641,522.561 559.468,522.418C557.803,522.396 557.399,520.266 556.829,518.968C556.499,517.356 554.189,517.176 553.821,515.766C551.706,510.344 553.176,503.991 555.411,498.853C558.988,490.198 567.591,483.748 575.901,479.99C577.341,479.165 579.801,478.806 580.521,477.201C579.471,477.186 578.428,477.164 577.37,477.134C577.108,472.852 580.055,469.446 583.745,467.699C587.643,465.741 592.297,465.53 596.756,465.686ZM173.932,554.656C173.93,554.656 173.882,554.709 173.932,554.656L173.902,554.693L174.481,556.318C172.268,557.697 167.587,560.558 167.587,560.558L167.114,560.106C164.161,561.982 160.624,563.45 157.247,564.322C150.894,565.088 143.517,565.346 137.7,562.326C125.06,556.934 118.043,543.27 119.114,529.817C119.359,526.742 120.037,523.751 121.468,520.87C125.817,511.11 133.455,504.105 144.027,502.296C144.548,502.207 145.376,502.146 146.428,502.145C149.584,502.14 154.76,502.662 159.753,504.49C159.922,504.552 165.179,505.524 165.179,505.524L165.201,506.996C166.943,507.921 168.46,509.214 169.787,510.65C173.99,515.193 178.877,521.244 180.923,526.568C181.492,528.05 182.182,529.89 182.766,531.594C181.769,535.193 180.432,539.767 179.277,544.416C178.799,546.337 178.341,548.329 177.994,550.304C176.336,552.38 174.524,554.022 173.94,554.648L173.932,554.656ZM671.344,563.957C671.399,564.017 671.412,564.032 671.405,564.024C671.398,564.016 671.37,563.986 671.342,563.956C671.287,563.896 671.233,563.836 671.344,563.957ZM703.329,497.484L714.711,517.542L723.944,512.303C724.566,513.385 725.14,514.511 725.665,515.677C727.082,518.499 727.182,521.475 727.995,524.441C729.056,537.619 722.108,551.005 709.591,556.287C703.574,558.826 695.018,558.999 690.236,558.241C685.394,557.474 683.886,556.389 680.612,554.286C680.499,554.213 680.603,554.286 680.603,554.286L680.286,554.591L673.389,550.413L673.827,549.191C673.807,549.159 673.574,548.997 673.524,548.948C672.622,548.059 667.038,544.442 665.555,537.944C665.555,537.93 665.54,537.861 665.54,537.861L664.771,537.836C664.33,535.755 663.27,530.552 663.27,530.552L663.74,530.314L663.743,530.311C663.743,530.311 663.759,530.131 663.762,530.123C664.058,528.298 665.665,524.165 666.793,521.259C668.819,516.044 673.658,510.117 677.82,505.666C679.097,504.3 680.595,503.146 682.216,502.174C682.363,502.086 682.66,501.915 682.66,501.915L682.697,500.413L689.05,499.211C689.05,499.211 689.91,498.956 690.339,498.84C694.65,497.68 698.79,497.327 701.349,497.35C702.201,497.358 702.879,497.408 703.328,497.484L703.329,497.484ZM703.453,491.046C703.117,491.038 702.782,491.034 702.446,491.034C699.656,491.034 696.927,491.303 694.287,491.813C693.942,491.873 693.596,491.941 693.258,492.015C692.756,492.128 692.261,492.256 691.766,492.383C675.776,496.516 663.578,508.947 660.488,525.424C661.075,527.894 661.64,530.988 662.422,534.086L662.498,534.385L662.483,533.922C662.478,533.779 662.475,533.656 662.476,533.573C662.499,532.136 662.598,531.027 662.625,530.588C662.679,529.741 662.822,528.629 663.03,527.457C663.274,526.075 663.582,524.54 664.067,522.896C664.777,520.485 665.79,517.909 667.174,515.286C667.989,513.738 668.928,512.193 670.013,510.704C671.139,509.157 672.419,507.668 673.719,506.238C675.885,504.133 677.794,502.223 681.58,499.899C682.959,499.053 684.602,498.041 686.617,497.242C686.617,497.242 686.618,497.242 686.618,497.242L693.06,495.096C695.774,494.411 698.553,494.022 701.337,493.973L700.596,492.667L703.453,491.046ZM244.471,428.867C245.938,428.99 247.664,430.004 248.731,430.634L248.934,430.716C250.845,431.309 252.295,431.916 253.726,433.356C259.598,438.846 264.049,445.851 269.284,451.956C278.167,463.386 287.279,474.703 295.7,486.486C296.448,487.318 296.743,488.556 298.111,487.926C301.84,484.881 305.746,482.046 309.273,478.769C311.738,476.684 313.746,474.352 314.838,471.54L314.838,471.538C314.86,471.246 314.874,470.946 314.879,470.646C314.969,470.646 315.058,470.639 315.148,470.639C315.508,469.476 315.714,468.224 315.736,466.882C318.469,466.762 321.508,468.111 324.056,469.101C327.057,469.828 329.567,472.596 330.878,475.296C332.457,479.263 330.611,483.329 327.5,485.901L326.962,486.322C326.501,486.862 326.005,487.356 325.495,487.829C318.071,494.226 308.136,497.983 300.072,503.368C299.239,507.83 297.707,513.201 294.277,516.336C294.132,516.464 293.986,516.591 293.836,516.718C293.598,516.958 293.348,517.191 293.086,517.423C289.252,520.671 283.988,522.71 278.933,522.32C277.765,522.44 276.58,522.245 275.486,521.81C275.398,521.795 275.31,521.772 275.221,521.758C272.535,520.52 270.807,518.728 269.505,516.096C269.459,514.213 269.385,512.293 269.606,510.418C270.493,507.358 272.562,504.636 274.511,502.168C275.664,500.563 277.704,499.955 277.03,497.676C275.618,494.646 274.187,491.496 272.331,488.699C271.623,487.514 270.904,486.321 270.176,485.136C268.328,482.241 266.444,479.391 264.693,476.526C260.656,470.391 256.577,464.308 252.639,458.12L251.675,457.574C250.909,462.591 255.397,467.466 255.563,472.176C254.787,472.828 253.307,472.588 250.952,471.733C251.336,472.746 251.698,473.751 252,474.771L251.475,475.694C249.038,476.324 246.475,473.826 244.941,471.831C243.412,470.466 242.198,468.711 241.566,466.904C239.313,461.151 237.706,454.813 237.992,448.603C238.048,444.831 237.688,441.194 238.713,437.511C239.091,434.159 240.421,431.196 243.126,429.089C243.523,428.884 243.982,428.827 244.471,428.867ZM605.032,481.073L605.034,481.074C607.296,484.121 609.539,486.993 610.915,490.575C611.164,492.348 611.136,494.203 610.96,495.985C609.603,496.871 607.498,496.262 605.965,496.17C600.01,495.394 594.506,496.429 588.837,498.165C588.098,498.276 587.655,498.691 587.498,499.42C588.07,501.128 591.155,501.636 592.577,502.624C597.23,505.754 603.223,507.12 608.744,506.04C611.412,505.403 613.259,503.759 615.226,501.987C617.433,498.69 617.147,494.267 615.457,490.814C613.989,487.306 611.551,484.389 608.615,481.997L608.042,481.526L605.032,481.073ZM560.637,405.125C563.515,405.207 566.315,405.807 569.413,406.079C576.08,407.856 584.174,410.713 588.704,416.158C589.094,418.033 589.273,420.509 588.665,422.339C588.238,423.044 587.75,423.787 587.225,424.499L587.224,424.499C586.407,425.977 585.26,427.237 584.127,428.782C583.092,429.495 582.064,430.229 580.984,430.889C576.094,432.779 570.942,432.495 565.872,433.785C555.515,436.237 545.689,440.452 536.921,446.475C531.012,450.607 524.081,456.278 521.789,463.342C521.592,463.89 521.433,464.49 521.322,465.097C521.59,466.53 522.368,467.91 523.886,469.155C528.641,471.225 534.513,470.422 539.351,469.155C543.451,464.378 548.584,460.327 553.774,456.802C562.767,450.989 572.803,446.399 583.243,443.932C587.068,443.639 589.984,442.155 593.861,443.46C598.669,444.015 603.072,446.924 604.954,451.447C606.042,455.047 606.44,459.045 602.69,461.205L602.479,461.242C601.871,461.699 601.085,461.985 600.005,462.217C599.172,462.052 598.347,461.932 597.529,461.886C596.712,461.954 595.895,462 595.07,462.03C594.785,462.075 594.492,462.142 594.207,462.217C583.159,463.5 572.127,468.502 562.625,474.127C554.187,479.219 546.678,485.684 540.415,493.266C539.099,495.156 537.701,496.807 536.453,498.554C535.804,499.544 535.181,500.542 534.585,501.562C534.337,502.034 534.106,502.537 533.893,503.054C533.456,503.909 533.198,504.794 532.528,505.266C531.873,506.144 530.706,505.979 529.711,505.649C528.52,502.821 527.44,499.514 527.634,496.425L527.634,496.342C527.038,492.113 528.646,488.722 529.165,484.732C528.563,484.777 527.975,484.792 527.45,484.687C526.643,484.574 525.863,484.364 525.112,484.079C523.011,483.479 521.099,482.385 519.481,480.735C514.458,476.28 511.577,469.387 509.435,463.155C507.062,455.798 508.289,447.816 512.574,441.389C516.175,434.984 523.018,430.237 529.361,426.817C538.474,422.669 547.994,418.964 557.75,416.677L557.75,415.432C557.487,415.379 557.225,415.335 556.954,415.297C553.827,415.05 550.662,415.193 547.427,415.455C545.391,415.958 543.843,417.247 541.681,417.412L541.248,416.504L541.254,416.497C540.542,415.064 540.152,413.272 541.319,411.997C544.486,407.684 550.198,406.101 555.29,405.718C557.155,405.212 558.91,405.076 560.637,405.125ZM138.627,494.171C164.012,491.311 183.772,469.65 183.772,443.38C183.772,438.797 183.169,434.341 182.037,430.104C181.971,429.556 181.805,429.016 181.572,428.476C175.216,407.529 155.819,392.267 132.904,392.267C104.83,392.267 82.036,415.172 82.036,443.38C82.036,463.855 94.04,481.53 111.352,489.684C111.27,489.096 111.227,488.496 111.227,487.887C111.227,487.171 111.286,486.469 111.399,485.784C101.632,480.903 94.926,473.987 90.384,464.819C89.304,462.389 87.693,458.399 87.065,455.692C85.435,448.672 84.749,441.029 86.161,435.201C87.663,427.394 90.17,421.986 93.668,416.774C96.239,412.941 99.083,409.529 103.739,405.899C106.277,403.926 108.764,402.299 111.449,400.934C113.189,400.049 115.089,399.284 116.986,398.504C118.115,398.047 120.411,397.386 122.482,396.921C123.99,396.591 125.358,396.404 126.169,396.276C127.774,396.032 129.368,395.887 130.957,395.832C135.727,395.667 140.461,396.31 145.385,397.502C150.755,398.8 155.496,401.316 159.977,404.339C162.963,406.356 164.481,407.894 167.11,410.466C168.585,411.914 172.529,416.789 174.657,420.779C175.036,421.491 175.429,422.189 175.656,422.804C179.541,430.754 180.895,439.934 180.138,448.589C179.621,451.079 179.41,453.291 178.678,456.029L177.633,459.283C176.003,463.648 175.008,465.854 173.032,468.779C168.4,475.641 163.596,481.03 154.817,485.721C150.068,488.001 146.317,489.65 141.208,490.425C140.804,490.497 140.387,490.565 139.958,490.627C139.687,491.879 139.234,493.069 138.627,494.171ZM731.681,486.779C751.555,479.934 765.829,461.235 765.829,439.262C765.829,411.497 743.038,388.959 714.958,388.959C686.886,388.959 664.093,411.497 664.093,439.262C664.093,464.389 682.761,485.235 707.113,488.969L712.227,486.067C710.285,485.966 708.434,485.757 706.764,485.432C701.662,484.439 699.066,483.666 694.105,481.397C692.406,480.619 690.901,479.666 689.394,478.713C683.121,474.744 678.193,469.592 674.69,464.031C672.831,461.081 671.199,457.543 670.058,454.316C668.958,451.207 668.179,447.206 667.84,444.669C666.71,436.191 668.622,425.767 672.254,418.928C674.265,415.001 676.484,411.256 680.663,406.906C686.868,400.448 694.188,396.423 702.438,393.944C707.343,392.773 712.108,392.259 717.009,392.447C718.643,392.51 720.291,392.65 721.965,392.87L721.965,392.872C723.998,393.14 728.409,394.113 730.386,394.811C735.623,396.661 739.819,398.992 743.986,402.197C749.371,406.65 753.039,410.77 755.836,415.381C758.547,419.85 760.449,424.773 761.726,431.333C762.937,437.552 762.792,442.151 760.833,451.331C760.263,454.006 758.262,458.252 757.185,460.64C751.779,471.414 742.036,479.588 729.943,483.716L731.681,486.779ZM175.382,422.997C175.476,422.894 175.555,422.809 175.629,422.803L175.382,422.997C175.26,423.13 175.114,423.295 174.92,423.358L173.505,425.39C174.978,428.457 176.191,432.014 177.072,435.276C177.432,439.994 177.375,444.913 176.997,449.63C175.91,454.498 173.021,460.83 170.35,465.09L172.087,468.065L165.178,474.351L165.071,474.275L165.062,474.283C165.015,474.328 163.501,473.332 162.995,472.882C160.521,474.502 157.478,476.144 154.93,477.651C152.547,478.641 150.051,479.413 147.501,479.93L147.252,480.764L143.99,480.486C142.555,480.643 141.114,480.733 139.676,480.733C139.153,480.739 138.632,480.745 138.113,480.747C135.559,476.832 130.97,474.219 125.739,474.219C123.503,474.219 121.386,474.696 119.494,475.547C110.918,470.27 104.254,461.681 102.107,451.829C100.824,448.626 100.636,445.424 100.768,442.132C101.285,429.247 107.517,417.043 118.284,409.731C124.202,406.513 130.011,403.784 136.908,403.679C146.803,403.537 156.915,406.138 164.209,412.978C165.373,414.021 166.698,415.034 167.488,416.377C167.511,416.421 167.587,416.541 167.656,416.646L168.614,416.113L174.92,423.358L175.382,422.997ZM706.821,400.124C708.058,400.103 709.298,400.145 710.536,400.25C717.407,400.35 723.192,403.038 729.088,406.197C739.813,413.388 746.021,425.39 746.536,438.056C746.668,441.295 746.372,445.728 745.411,448.895C741.931,460.355 732.528,470.189 720.626,474.357C716.487,476.091 712.219,476.074 707.776,476.019C706.451,476.019 705.123,475.945 703.801,475.808C703.724,475.8 703.619,475.795 703.619,475.795L700.622,476.054L700.382,475.328C700.382,475.328 700.405,475.313 700.303,475.293C697.653,474.782 695.055,474.008 692.581,472.987C690.091,471.535 684.817,468.462 684.677,468.38C684.096,468.777 682.679,469.744 682.679,469.744L675.783,463.568C675.783,463.568 676.849,461.391 677.264,460.546C677.244,460.516 677.144,460.408 677.124,460.379C674.456,456.188 671.23,450.14 670.599,445.439C669.976,440.805 669.933,435.32 670.525,431.321C671.038,427.858 672.709,424.409 674.208,421.359C673.104,419.732 673.035,419.713 672.799,419.344C673.052,419.054 673.483,418.612 673.991,418.064C675.961,415.937 679.245,412.426 679.245,412.426L680.006,412.843C680.006,412.843 680.049,412.776 680.072,412.738C680.858,411.412 682.178,410.418 683.337,409.392C689.695,403.505 698.166,400.274 706.821,400.124ZM356.259,301.461C357.889,301.411 359.544,301.506 361.118,301.529C365.476,302.504 369.815,304.732 373.823,306.689C384.155,312.907 391.393,322.634 395.899,333.704C398.272,338.189 400.026,343.138 400.783,348.163C402.03,351.261 401.394,354.659 401.551,358.124C401.929,362.632 399.574,367.161 396.85,370.596C396.166,371.218 395.574,372.096 394.805,372.546L394.805,372.547C392.991,374.82 391.242,376.941 388.695,378.209C387.814,378.801 386.848,379.296 385.744,379.656C381.718,381.306 377.885,380.728 373.711,380.286C374.137,384.186 377.432,388.874 376.694,393.209C376.763,395.691 375.087,398.729 372.793,400.011C372.689,400.364 372.574,400.724 372.447,401.091C369.366,404.271 364.799,405.464 360.507,404.759C355.691,404.106 351.103,402.508 346.83,400.221C345.334,399.531 343.934,398.713 342.578,397.843C340.628,396.643 338.752,395.354 336.972,394.019C336.082,393.419 335.18,392.842 334.25,392.302L333.611,391.634C333.268,391.319 332.924,391.004 332.577,390.689C329.648,388.874 327.148,385.964 324.619,383.692C322.476,381.884 320.981,378.659 318.201,378.021C318.1,379.634 319.513,380.421 319.808,381.966C318.174,382.153 316.567,381.973 314.933,381.921C317.047,385.333 319.707,388.454 321.868,391.874C328.681,403.237 334.203,416.098 336.271,429.238C337.01,431.991 336.843,434.714 336.909,437.519C337.499,445.694 334.757,454.702 329.051,460.687C328.733,461.024 328.399,461.339 328.052,461.632C327.745,461.984 327.426,462.328 327.096,462.666C323.901,465.411 319.524,466.642 315.452,465.194C306.21,462.427 301.192,454.693 296.338,446.983C293.887,442.371 291.525,437.976 289.631,433.394C288.449,433.266 287.458,433.064 286.575,432.757C286.706,433.237 286.812,433.716 286.887,434.211C284.255,434.279 283.072,432.096 281.327,430.514C278.501,427.529 276.631,423.973 275.536,420.163C275.122,419.241 274.735,418.303 274.363,417.358C272.755,410.886 272.913,404.422 273.254,397.807C274.427,390.877 275.803,384.404 280.401,378.824C283.309,374.309 288.6,371.294 293.863,370.559C299.652,370.139 303.391,373.469 308.322,375.427L307.977,374.67C305.256,369.975 304.117,364.455 304.36,359.047C304.178,355.627 304.342,352.169 304.711,348.697C309.143,344.092 316.281,345.922 321.443,348.127C325.893,349.642 328.644,352.897 331.719,356.249C336.861,362.969 341.488,369.622 347.369,375.735C351.007,379.432 354.045,383.158 358.597,385.783C359.631,386.496 361.164,386.481 362.373,386.654L363.813,385.259C363.513,382.956 362.501,380.676 361.603,378.576C359.714,374.766 357.913,370.912 355.642,367.304C352.162,360.352 346.25,354.966 342.263,348.261C340.772,346.049 339.679,343.716 339.629,341.204C339.552,340.829 339.546,340.484 339.664,340.192C339.722,339.554 339.851,338.902 340.059,338.235L340.679,337.612L340.689,337.612C340.645,335.377 340.359,333.442 341.912,331.364C344.489,329.317 347.203,329.842 350.242,330.119C354.331,331.072 358.274,333.043 361.515,335.721C366.289,339.028 368.236,343.821 372.197,348.096C375.207,351.876 378.477,355.341 382.152,358.454C383.61,359.196 387.864,360.997 390.066,360.554C390.666,357.667 391.379,355.184 389.852,352.199C386.133,339.277 375.365,330.479 363.32,325.492C354.021,321.262 344.084,319.672 333.983,319.485L333.632,318.314C335.258,316.267 337.754,314.879 340.188,313.641C338.473,313.334 336.741,313.709 334.776,313.468L334.147,312.029C338.856,306.479 344.96,304.641 351.553,302.264C353.025,301.705 354.63,301.511 356.259,301.461ZM495.994,321.179C508.099,322.192 519.584,324.314 528.827,332.894C529.215,333.344 529.573,333.817 529.909,334.319C531.995,335.819 533.731,337.671 535.77,339.336C539.099,344.039 537.749,349.484 533.869,353.339C528.976,357.801 522.695,360.959 516.337,362.954C512.278,363.951 507.077,365.924 503.516,362.864C503.417,362.684 503.297,362.504 503.168,362.324C501.328,360.666 499.284,359.407 497.388,357.817C496.04,356.902 496.132,354.674 496.427,353.264C497.692,352.341 499.105,352.236 500.573,351.884C506.242,350.871 512.945,350.092 517.848,346.972C518.817,346.297 519.806,346.267 519.89,344.91C519.49,343.463 517.652,342.363 516.849,342.142C500.22,337.583 481.489,342.187 465.986,348.959C461.162,351.067 458.292,352.964 457.809,358.66C458.123,363.092 461.609,366.456 465.201,368.586C466.087,368.721 466.964,368.894 467.823,369.127C475.883,371.534 485.265,370.687 493.667,371.032C495.292,371.865 495.833,373.312 496.276,375.165C497.482,375.232 498.371,375.345 499.036,375.675C499.827,375.952 500.352,376.5 500.495,377.61C500.512,377.662 500.528,377.721 500.545,377.774L500.516,377.788C500.541,378.066 500.541,378.373 500.521,378.718C494.197,379.153 487.817,379.011 481.48,379.326L481.47,379.326C481.435,379.349 481.402,379.378 481.367,379.408C485.753,381.066 488.93,385.222 489.391,389.879C491.275,390.149 492.345,390.044 494.136,389.399C501.653,389.204 509.168,386.909 516.49,385.266C523.48,383.714 530.192,381.193 537.191,379.798L537.311,379.093C532.784,378.171 527.96,378.336 523.5,379.033L522.594,378.486L522.936,376.206C523.208,375.966 523.482,375.734 523.758,375.516C522.355,375.059 520.937,374.691 519.519,374.279C519.529,373.739 519.564,373.199 519.629,372.651C521.208,370.776 522.926,369.126 525.226,368.166C530.212,366.103 536.452,366.907 541.725,367.192C548.446,368.579 556.137,370.529 561.5,375.014C563.78,376.574 563.023,379.475 563.586,381.928C563.653,382.183 563.698,382.424 563.728,382.656L563.788,382.731C564.425,385.236 563.233,386.885 561.613,388.618C554.495,393.275 545.703,395.481 537.777,398.473C526.675,402.411 515.507,405.501 504.167,408.651L503.681,408.801C499.659,409.55 495.56,410.248 491.543,411.111C492.26,415.131 493.652,419.053 494.728,422.983C496.52,428.361 498.061,433.843 503.332,436.858C505.179,437.901 503.638,440.541 502.752,441.793C501.634,443.616 500.339,445.221 498.857,446.586C497.324,448.686 495.445,450.545 493.181,451.197C491.608,451.992 489.69,451.61 488.075,450.688C487.412,450.44 486.742,450.246 486.024,450.096C485.719,450.036 485.404,449.925 485.079,449.925C483.803,449.445 483.595,448.258 482.681,446.976C481.606,445.468 480.575,442.117 480.506,441.802C480.044,439.755 479.047,437.782 478.642,435.689C476.335,427.867 475.911,419.805 474.443,411.855C474.369,410.092 474.231,408.449 473.344,406.867C468.266,404.212 464.471,400.514 462.476,395.091C461.701,390.666 461.552,385.784 464.017,381.839C464.83,379.994 466.317,379.049 467.644,377.834C463.796,377.174 459.994,376.274 456.261,375.007C450.971,372.779 446.161,370.117 442.376,366.157C438.753,363.502 435.674,360.186 433.843,356.016C433.318,353.826 433.291,350.144 433.872,347.939C435.165,345.142 437.233,342.674 439.2,340.304C449.338,330.269 463.603,324.645 477.526,322.485C483.684,321.097 489.808,322.199 495.994,321.179ZM296.633,388.816C294.223,388.733 292.791,390.219 290.741,391.17L290.031,391.89C288.424,395.75 286.079,398.88 285.829,403.34C286.873,403.201 287.714,402.581 288.342,401.501C289.496,399.996 292.108,399.654 293.844,399.193C296.429,399.331 299.07,400.413 301.489,401.299C302.163,403.1 302.856,405.084 302.847,407.032C302.33,409.239 300.899,411.086 300.834,413.495C300.529,418.417 302.395,422.517 304.177,426.948C306.808,433.643 311.102,439.718 316.023,444.916C317.768,446.477 320.103,448.563 322.587,448.277C325.034,447.676 325.735,445.166 326.363,443.051C327.37,435.434 326.059,428.324 324.342,420.947C321.738,411.003 316.321,401.129 308.518,394.241C305.102,391.278 301.323,388.474 296.633,388.816ZM159.655,263.17C178.609,263.17 195.63,271.625 207.251,285.015C207.325,285.101 207.293,285.077 207.367,285.163C207.131,285.187 207.058,285.224 206.778,285.232C203.462,286.141 202.936,285.952 202.295,286.161C191.523,274.611 176.556,267.547 159.655,267.547C144.317,267.547 130.336,273.487 119.826,283.23C118.907,284.115 118.002,285 117.118,285.907C106.876,296.685 100.575,311.34 100.575,327.48C100.575,360.555 127.048,387.411 159.655,387.411C192.263,387.411 218.737,360.555 218.737,327.48C218.737,314.602 214.796,302.849 207.97,293.069L209.737,292.82C209.434,294.343 212.008,294.122 213.496,294.399C213.622,294.422 213.831,294.286 213.969,294.305C219.735,303.997 223.055,315.352 223.055,327.483C223.055,362.972 194.647,391.795 159.655,391.795C124.664,391.795 96.255,362.972 96.255,327.483C96.255,291.985 124.664,263.17 159.655,263.17ZM688.204,261.887C700.692,261.887 712.333,265.495 722.151,271.728C722.451,271.9 722.735,272.079 722.997,272.274C740.225,283.592 751.61,303.077 751.61,325.187C751.61,360.122 723.201,388.486 688.206,388.486C665.841,388.486 646.16,376.892 634.872,359.402C634.625,359.064 634.386,358.72 634.139,358.375C633.181,356.856 632.25,355.031 631.079,353.654C632.151,354.231 634.295,355.671 635.683,357.014L636.575,356.894L638.338,356.639L638.353,356.832C638.623,357.252 638.9,357.672 639.178,358.085C639.665,358.805 640.19,359.539 640.738,360.289C651.508,374.772 668.766,384.169 688.206,384.169C715.881,384.169 739.13,365.134 745.543,339.477C745.873,337.609 746.172,335.75 746.375,334.43C746.66,332.578 746.915,331.048 747.125,329.623C747.237,328.16 747.29,326.675 747.29,325.183C747.29,301.535 733.325,281.127 713.187,271.722C712.19,271.287 711.17,270.861 710.113,270.418C709.393,270.126 708.425,269.749 707.293,269.344C702.583,267.739 697.611,266.712 692.458,266.344C690.133,266.217 687.883,266.195 685.514,266.255C673.386,266.803 662.203,271.009 653.045,277.789C652.423,278.284 651.703,278.832 650.968,279.402C637.648,290.225 629.127,306.718 629.127,325.183C629.127,330.883 629.939,336.403 631.437,341.592L630.995,341.608C630.148,341.608 629.301,341.586 628.454,341.572C627.954,341.554 627.452,341.525 626.949,341.485L626.937,341.485C625.55,336.288 624.808,330.827 624.808,325.187C624.808,290.252 653.217,261.887 688.204,261.887ZM165.329,282.831C167.714,282.792 170.11,282.94 172.446,283.139C189.002,285.171 203.811,296.407 210.33,311.684C210.837,312.659 211.278,313.582 211.678,314.482L211.894,314.451L215.933,324.966L213.657,326.542C213.582,329.265 213.772,332.323 213.718,335.038C212.73,343.978 209.481,352.581 204.245,359.916C201.544,363.283 197.142,367.768 193.815,370.536L194.06,373.334L183.992,377.346L183.449,376.529C182.9,376.686 182.359,376.829 181.826,376.964C178.575,377.744 173.25,378.403 171.126,378.546C167.301,378.816 164.437,378.733 159.188,377.968C154.637,377.301 150.277,375.793 146.039,373.918C140.351,370.738 134.663,366.824 130.434,361.814C125.079,355.049 121.358,346.792 119.899,338.295C119.241,334.455 119.479,332.257 119.631,327.187C119.908,317.977 123.796,308.774 129.235,301.432C136.714,292.537 146.602,285.486 158.272,283.649C160.567,283.097 162.943,282.871 165.329,282.831ZM682.24,281.182C684.614,281.221 686.98,281.445 689.264,281.985C700.881,283.792 710.728,290.744 718.168,299.504C723.583,306.734 726.86,316.244 728.045,324.944C728.578,328.889 727.423,331.912 727.461,335.812C726.013,344.189 722.308,352.318 716.975,358.986C712.768,363.921 707.503,367.821 701.841,370.964C698.016,373.079 694.033,373.805 688.971,374.743C684.958,375.493 680.443,375.314 676.521,374.961C668.451,374.249 665.27,373.469 664.543,373.266L663.875,374.264L657.725,371.856L653.639,370.296C653.639,370.296 653.863,367.836 653.675,367.709C651.236,366.092 649.718,365.26 647.795,362.785C648.925,362.278 649.677,361.633 649.7,359.908C647.637,353.998 642.769,351.508 639.642,346.551C638.622,345.111 637.025,343.656 635.334,342.718C634.4,337.221 634.025,334.792 633.98,332.377C633.921,329.684 633.98,326.976 634.122,324.209L631.933,322.716L635.968,312.358L636.096,312.382C636.493,311.489 636.936,310.566 637.446,309.598C643.934,294.546 658.678,283.485 675.156,281.482C677.481,281.287 679.865,281.142 682.24,281.182ZM587.548,140.41C631.28,140.41 666.786,175.548 666.786,218.831C666.786,262.113 631.28,297.25 587.548,297.25C582.059,297.25 576.698,296.695 571.519,295.641C567.76,294.876 564.098,293.847 560.554,292.575C560.508,292.559 560.528,292.567 560.502,292.558C555.083,290.408 551.957,288.08 549.1,286.334L542.683,281.74C530.212,273.392 522.212,263.341 516.037,249.81C515.863,249.431 515.887,249.538 515.717,249.153C516.456,248.896 516.958,248.541 518.204,248.061C518.426,247.964 519.19,247.443 519.438,247.375C519.589,247.692 519.555,247.454 519.698,247.766C520.137,248.721 520.515,249.589 520.701,249.979C522.231,253.18 525.473,259.263 530.712,265.611C534.352,270.021 538.722,274.413 544.393,278.283C544.405,278.299 544.411,278.314 544.423,278.33C556.54,286.94 571.498,291.907 587.54,291.907C602.435,291.907 616.31,287.535 627.913,280.013L628.754,279.458C630.531,278.265 632.376,276.675 634.348,275.333C650.848,261.923 661.379,241.583 661.379,218.828C661.379,180.173 630.981,148.486 592.574,145.921C590.975,145.831 589.482,145.798 588.238,145.798C588.034,145.68 588.295,145.87 588.087,145.728C587.315,145.201 586.506,144.59 585.62,144.525C583.954,144.973 582.33,145.512 580.704,146.04C578.766,146.669 580.495,146.101 580.495,146.101C580.495,146.101 579.493,146.188 579.021,146.236C542.28,150.421 513.708,181.343 513.708,218.828C513.708,220.905 513.795,222.961 513.967,225.001C513.228,225.751 513.305,225.713 512.612,226.515C512.021,227.228 510.269,228.678 509.669,229.391C509.9,224.576 508.664,220.197 508.959,215.41C509.13,212.63 509.079,209.6 509.199,206.828C509.45,206.135 509.561,205.431 509.602,204.718C516.327,168.158 548.689,140.41 587.548,140.41ZM269.879,172.467C273.278,172.549 276.647,172.894 279.884,173.46C287.621,174.915 294.896,178.058 301.424,182.453C305.487,185.333 309.809,188.648 312.607,192.773C312.219,194.925 311.748,197.047 311.508,199.244C309.872,199.214 312.653,213.54 312.572,216.292C312.57,216.352 312.623,216.524 312.635,216.569C312.665,216.689 312.673,216.72 312.687,216.742C312.702,216.772 312.724,216.825 312.73,216.833C313.349,218.213 314.569,220.215 314.715,223.23C314.829,225.6 310.376,226.762 312.309,229.162C315.435,233.04 320.159,236.812 324.418,239.715C325.012,240.119 325.597,240.506 326.149,240.842C325.829,242.601 325.553,244.957 325.24,247.364C324.729,247.442 324.543,247.508 324.462,247.549C322.097,254.328 316.53,262.83 311.961,268.401C308.561,272.878 303.766,275.15 299.505,278.658C299.477,278.681 299.45,278.705 299.426,278.728C299.385,278.677 299.338,278.625 299.293,278.573C299.021,278.265 298.748,277.958 298.468,277.656C297.065,276.336 295.411,276.179 293.656,275.497C291.57,276.367 291.219,277.926 290.184,279.718C288.936,280.176 280.921,282.629 280.921,282.629L280.726,284.024L264.772,287.482C264.772,287.482 264.744,286.971 264.69,286.98C263.856,287.085 263.31,287.264 262.971,287.264C262.191,287.414 261.993,287.512 261.573,287.624C259.368,288.217 258.433,288.892 256.395,289.559C253.048,288.76 250.136,287.701 247.512,286.559C231.945,280.642 219.213,267.428 213.774,251.693C208.678,238.013 209.093,222.443 214.688,208.95C222.25,190.523 239.821,175.928 259.691,173.056C263.049,172.568 266.479,172.385 269.879,172.467ZM573.042,173.151C574.272,173.073 575.515,173.031 576.761,173.016C580.502,172.972 584.274,173.171 587.863,173.363C607.73,176.191 625.303,190.56 632.863,208.703C638.458,221.985 638.878,237.315 633.778,250.785C628.341,266.28 613.761,279.196 599.706,283.816C595.626,285.151 589.655,285.42 583.175,285.015L583.079,285.825L576.261,284.371C571.131,283.741 565.993,282.795 561.478,281.73C556.358,280.524 550.665,278.108 546.869,276.625C546.07,276.171 544.752,275.465 544.475,275.276C541.157,273.011 538.076,270.534 535.593,267.324C531.023,261.855 525.455,253.514 523.09,246.866C523.008,246.826 522.823,246.761 522.314,246.685C522.213,245.922 522.225,245.284 522.12,244.596C524.809,243.715 527.762,242.268 529.308,239.866C529.419,237.841 530.055,235.777 528.522,234.225C527.174,231.217 531.71,229.905 533.003,227.955C536.253,222.683 540.408,216.691 542.523,210.856C543.196,207.331 545.145,204.256 543.529,200.633L544.518,199.996C544.111,198.301 543.17,197.266 543.411,195.354C546.116,193.111 550.31,191.693 553.79,191.318C555.305,190.478 556.754,189.48 558.201,188.52C559.611,186.225 561.613,184.567 563.331,182.535C564.703,181.89 566.638,181.621 567.545,180.354C569.802,177.943 570.022,174.933 572.911,173.229C572.987,173.184 573.024,173.162 573.042,173.151ZM330.099,243.269C332.533,244.657 334.171,245.369 334.188,245.122C334.597,244.967 334.99,244.888 335.372,244.867L335.413,244.867C329.96,261.127 319.423,275.046 305.724,284.722C305.381,284.457 304.99,284.141 304.568,283.776C304.203,283.461 304.199,283.237 303.982,283.064C303.153,282.391 302.362,281.692 301.615,280.952L301.634,280.942C314.732,272.024 324.836,258.997 330.103,243.697C330.119,243.524 330.119,243.373 330.099,243.269ZM260.313,139.744C285.453,139.744 307.876,151.54 322.392,169.923C320.797,172.863 319.724,173.31 319.292,174.097L319.292,174.099L319.084,174.488C319.025,174.409 318.966,174.33 318.906,174.251C305.406,156.574 284.174,145.164 260.315,145.164C219.564,145.164 186.479,178.434 186.479,219.414C186.479,242.581 197.053,263.281 213.607,276.909C215.276,278.101 216.857,279.435 218.382,280.523L219.22,281.092C219.41,281.22 219.601,281.349 219.791,281.484C221.467,282.589 223.189,283.628 224.954,284.601C224.973,284.609 224.993,284.617 224.992,284.626C224.99,284.634 224.966,284.626 224.943,284.626C224.127,284.547 223.246,284.4 222.449,284.031C220.389,283.243 217.132,284.088 215.07,284.17C214.772,284.178 214.481,284.192 214.202,284.199C194.153,269.74 181.08,246.1 181.08,219.415C181.08,175.443 216.583,139.744 260.313,139.744ZM324.459,247.55L324.462,247.549L324.465,247.543L324.459,247.55ZM523.093,246.868L523.089,246.862C523.089,246.863 523.09,246.865 523.09,246.866L523.093,246.868C523.114,246.895 523.135,246.906 523.141,246.905C523.147,246.904 523.137,246.89 523.093,246.868ZM512.026,143.63L512.105,143.944L512.37,145.039L512.533,145.744C512.601,146.036 512.668,146.336 512.732,146.636C513.518,150.258 514.085,153.964 514.421,157.729L514.452,158.09C514.557,159.32 514.639,160.564 514.694,161.809C514.702,162.019 514.71,162.222 514.719,162.424C514.761,163.572 514.783,164.719 514.783,165.874L514.777,167.006L514.746,168.581L514.708,169.691L514.657,170.763L514.597,171.806L514.527,172.848L514.443,173.891L514.442,173.898L514.32,175.174L514.228,176.043L514.139,176.809L514.036,177.612L513.894,178.646L513.745,179.658L513.662,180.198L513.493,181.218C512.473,187.18 510.866,192.948 508.739,198.453C507.322,201.623 506.499,203.314 505.506,205.115C497.49,219.649 490.4,227.536 480.027,235.676C480.027,235.676 479.207,233.948 479.275,233.686C478.585,232.907 477.965,232.209 477.6,231.217C496.523,215.737 508.613,192.204 508.613,165.871C508.613,158.4 507.637,151.178 505.806,144.303C506.292,144.35 506.784,144.373 507.283,144.373C508.937,144.373 510.532,144.113 512.026,143.63ZM340.1,172.307C341.804,194.73 352.088,214.638 367.86,228.706C367.242,229.335 366.501,229.814 366.175,230.253C365.831,230.71 365.471,231.053 365.086,231.921C364.808,232.548 364.177,233.875 364.136,233.814C363.211,232.436 362.34,231.163 361.203,230.1C352.703,222.247 346.491,212.332 341.77,201.757C341.395,200.803 337.737,193.051 336.566,185.498C336.539,185.328 336.578,185.56 336.554,185.39C336.971,184.978 337.414,184.571 337.698,184.073C338.547,182.153 338.417,179.7 338.353,177.645C340.535,174.532 339.84,174.04 340.1,172.307ZM338.98,227.182L339.157,227.365C339.157,227.366 339.157,227.368 339.157,227.369C339.096,227.309 339.038,227.242 338.98,227.182ZM333.727,189.405C337.48,198.675 339.547,208.8 339.547,219.412C339.547,222.094 339.416,224.738 339.16,227.339C338.593,226.747 338.119,226.09 337.834,225.307L337.127,223.448C336.714,222.615 336.372,221.572 335.975,221.175C335.888,220.251 335.473,219.62 334.856,219.2C334.844,208.431 330.146,195.996 330.312,195.165L330.371,195.103C330.413,195.059 330.444,195.006 330.481,194.957C331.293,193.87 332.045,192.819 332.495,192.068C332.634,191.843 332.205,192.255 333.079,190.905C333.157,190.492 333.4,189.907 333.727,189.405ZM469.953,132.414C473.129,135.451 476.147,139.186 478.871,142.621C486.221,152.731 490.477,164.753 491.77,177.135C491.705,183.698 492.379,189.991 490.432,196.359C488.391,207.435 483.096,218.068 475.941,226.738C475.937,226.723 475.928,226.71 475.924,226.696C474.88,225.406 473.697,224.416 472.348,223.426C470.538,221.874 468.814,219.901 467.354,218.003C465.009,215.123 466.078,207.706 465.645,208.351C464.084,203.746 460.834,201.106 456.651,198.946C452.625,195.691 447.036,195.638 442.161,196.508C442.599,194.946 443.309,193.964 442.836,192.512C442.77,192.311 443.51,191.314 443.395,191.092C443.395,191.092 443.581,190.187 443.704,189.487C443.763,189.153 443.595,189.11 443.785,188.778C445.654,185.507 448.675,182.281 446.284,179.138C446.736,176.115 449.364,174.675 449.687,171.532C451.312,168.255 451.831,166.726 450.242,163.178C452.043,159.953 453.206,156.563 454.675,153.203C454.906,151.718 454.185,150.736 453.613,149.476C455.783,147.061 458.368,144.975 460.399,142.448C461.305,141.458 461.757,140.115 463.308,140.205C463.437,138.54 463.418,136.906 463.326,135.241C465.644,134.506 467.654,133.186 469.953,132.414ZM527.663,210.653C526.767,212.01 526.945,213.12 526.787,214.657C526.114,216.292 526.15,217.95 525.955,219.667C525.189,220.927 524.386,222.435 523.647,223.717L522.74,223.943C522.582,223.837 522.15,223.646 521.986,223.559C523.073,220.085 524.382,215.364 527.663,210.653ZM384.293,131.11C384.32,131.276 384.354,131.455 384.396,131.651C386.566,133.788 390.755,139.383 391.679,142.285C389.242,142.81 390.658,149.845 390.188,157.12C387.683,158.89 388.37,160.083 388.016,162.55C387.953,162.985 387.861,163.45 387.714,163.968L387.408,164.942C387.492,165.37 387.615,165.821 387.742,166.278L387.851,166.668C387.978,167.118 388.101,167.567 388.185,167.995C387.363,171.28 388.518,175.022 389.681,178.127C389.146,180.062 388.288,181.368 388.833,183.521C391.197,186.948 394.262,189.909 397.023,193.014C397.513,193.997 397.415,194.973 397.764,196.165C395.936,196.57 393.634,195.985 391.768,196.052C388.485,196.165 385.017,198.581 383.24,200.088C382.386,200.808 382.155,201.242 382.155,201.242C380.262,203.29 378.711,205.592 377.031,207.805C375.147,211.997 374.924,216.782 374.869,221.327C374.491,221.972 373.918,222.505 373.155,222.906C358.052,203.59 355.858,175.562 366.513,153.632C370.741,145.418 377.099,137.246 384.176,131.218C384.394,131.033 384.074,131.292 384.293,131.11ZM509.269,206.643C509.249,206.711 509.228,206.771 509.205,206.831C509.202,206.928 509.198,207.025 509.196,207.122L509.269,206.643ZM426.642,115.943C428.822,115.97 431.021,116.135 433.251,116.463C442.835,117.581 452.022,120.341 460.184,125.583C460.959,126.168 461.619,126.399 462.35,126.767C462.35,126.767 462.815,126.714 462.144,127.202C460.444,128.432 459.901,129.828 458.719,131.47C456.918,131.59 455.571,131.147 454.185,132.625C452.218,135.985 451.064,139.803 449.217,143.238C448.257,144.708 448.886,146.222 447.39,147.324C446.361,148.089 446.567,147.791 446.508,147.896C444.596,151.488 442.16,155.732 442.262,159.745C442.594,161.972 440.905,161.305 439.723,162.445C438.753,166.322 441.042,169.135 439.371,172.802C439.352,172.928 436.936,174.009 436.194,174.153C434.024,172.886 435.9,180.618 435.808,183.55C435.235,184.9 434.95,186.67 434.803,188.132C432.889,187.862 432.566,188.335 431.513,188.942C430.109,191.087 430.257,193.405 430.322,195.85C430.403,198.933 429.731,198.992 429.296,201.587C424.688,201.977 419.904,201.752 415.278,201.677C414.003,202.712 412.103,202.113 410.542,202.593C409.23,201.055 409.396,197.808 408.427,195.985C407.54,194.755 406.635,193.487 405.563,192.43C404.122,191.8 402.877,191.523 401.917,190.165C401.99,186.145 400.411,182.148 399.405,178.293C398.49,177.475 397.253,177.258 396.476,176.35C397.437,172.945 396.865,169.645 398.804,166.442C399.673,164.92 401.564,162.602 400.068,160.93C399.043,159.355 397.04,159.632 396.449,157.87C398.739,154.277 398.305,150.385 399.229,146.53C399.127,143.995 398.037,143.125 396.208,141.603C395.913,138.393 395.88,135.596 395.595,132.393C394.855,130.713 395.438,129.197 393.887,128.199L391.979,128.072C391.939,127.036 392.123,125.786 392.23,124.533C396.255,122.117 402.861,120.175 407.268,118.675C413.736,117.016 420.101,115.862 426.642,115.943ZM573.042,173.151L573.037,173.151C573.037,173.151 573.072,173.132 573.042,173.151ZM338.308,137.208L343.643,140.759L343.492,141.251C341.112,149.049 339.831,157.324 339.831,165.894C339.831,166.397 339.835,166.892 339.843,167.378C339.516,164.815 339.519,162.271 339.113,159.692C338.448,158.98 337.904,158.2 337.414,157.367C336.694,156.031 335.585,155.166 334.432,154.275C334.414,154.262 334.406,154.255 334.403,154.254C334.989,149.703 335.913,145.25 337.15,140.939L337.389,140.12C337.627,139.317 337.877,138.517 338.137,137.723L338.308,137.208ZM334.402,154.259L334.403,154.254C334.41,154.262 334.465,154.308 334.402,154.259ZM424.218,75.336C424.331,75.336 424.446,75.343 424.56,75.343L425.391,75.343L425.93,75.36L426.271,75.36L426.613,75.374L427.108,75.389L428.316,75.433L429.331,75.477L429.825,75.506L431.022,75.588L431.331,75.612L431.359,75.619L432.336,75.694L432.368,75.701L433.002,75.761L433.519,75.806L433.67,75.828L434.004,75.859L434.025,75.866L434.357,75.896L434.378,75.903L434.669,75.934L434.69,75.934L434.71,75.941L435,75.97L435.019,75.978L435.043,75.978L435.331,76.016L435.377,76.016L435.664,76.052L435.686,76.06L435.709,76.06L435.995,76.098L436.017,76.098L436.04,76.105L436.323,76.142L436.347,76.142L436.369,76.149L436.651,76.187L436.673,76.187L436.7,76.195L436.979,76.233L437.006,76.233L437.031,76.24L437.309,76.277L437.335,76.277L437.36,76.284L437.637,76.322L437.691,76.337L437.967,76.373L437.995,76.381L438.024,76.381L438.296,76.426L438.326,76.426L438.626,76.479L438.654,76.479L438.954,76.53L438.982,76.53L439.31,76.59L439.339,76.59L439.963,76.701L439.995,76.701L440.259,76.754L440.29,76.754L441.104,76.902L441.233,76.933L441.266,76.933L442.402,77.155L442.921,77.268L443.567,77.402L444.336,77.574L444.453,77.596L444.491,77.611L444.774,77.671L444.812,77.686L445.093,77.746L445.131,77.76L445.412,77.821L445.451,77.835L446.089,77.985L446.133,78.001L447.087,78.239L447.207,78.278L447.315,78.3L447.632,78.39L447.991,78.48L448.155,78.532L448.262,78.554L448.62,78.66L448.669,78.667L448.89,78.735L448.934,78.742L449.204,78.824L449.249,78.831L449.517,78.915L449.562,78.922L450.241,79.124L451.177,79.408L451.742,79.589L451.799,79.612L452.362,79.792L453.286,80.098L454.156,80.399L455.07,80.721L456.403,81.215L456.585,81.289L456.636,81.304L457.008,81.455L457.31,81.566L457.487,81.642L457.538,81.657L457.714,81.732L457.787,81.754L458.015,81.852L459.033,82.263L459.109,82.301L459.626,82.518L460.594,82.937L461.283,83.238L461.87,83.507L461.927,83.529L461.978,83.56L462.219,83.664L462.27,83.695L462.747,83.911L462.8,83.942L463.38,84.212L464.196,84.609L464.58,84.803L465.39,85.208L466.203,85.634L466.243,85.65L466.287,85.679L466.77,85.934L466.808,85.949L467.089,86.1L467.132,86.129L467.693,86.429L468.251,86.736L469.323,87.343L469.6,87.509L469.635,87.524L470.151,87.831L470.183,87.846L470.441,88.003L470.989,88.325L472.052,88.986L472.07,88.993C472.245,89.105 472.419,89.21 472.593,89.322L472.61,89.33C472.786,89.442 472.959,89.556 473.132,89.668L473.146,89.676C473.323,89.788 473.496,89.9 473.669,90.012L473.678,90.02C473.851,90.132 474.028,90.253 474.203,90.365L474.208,90.365C474.382,90.485 474.556,90.605 474.731,90.717L474.734,90.724L475.654,91.347L476.37,91.849L477.22,92.457L477.736,92.832L478.364,93.298L478.934,93.724L480.438,94.895L481.556,95.796L482.537,96.613L483.232,97.205L483.847,97.738L484.744,98.532L485.614,99.327L486.342,100.01L487.007,100.64L487.465,101.082L487.719,101.337L488.171,101.78L488.62,102.238L489.066,102.688L489.346,102.981L489.784,103.43L490.218,103.895L490.386,104.068L491.017,104.758L491.25,105.005L491.502,105.289L491.678,105.477L491.924,105.762L492.758,106.707L493.133,107.15L493.153,107.164L493.547,107.637L493.565,107.652L493.579,107.674L494.176,108.38L494.379,108.635L494.388,108.642L494.579,108.874L494.785,109.137L494.978,109.369L495.57,110.119L495.958,110.621C496.074,110.643 496.07,110.739 496.183,110.848L496.13,111.023C495.84,111.166 495.366,111.438 495.025,111.598C494.72,111.741 491.598,112.884 491.221,113.109C490.952,113.249 490.86,113.586 490.401,113.708C489.719,112.875 488.81,111.637 488.086,110.762C472.606,92.844 449.727,81.505 424.219,81.505C417.477,81.505 410.919,82.3 404.631,83.793C401.91,84.603 397.861,85.757 395.412,86.56C389.316,88.772 383.547,91.675 378.195,95.164C378.159,95.123 378.122,95.08 378.085,95.035C376.955,93.659 375.457,91.538 374.404,90.276C374.862,89.976 375.321,89.677 375.783,89.384C376.698,88.807 377.624,88.237 378.561,87.689C378.909,87.487 379.259,87.284 379.609,87.089L379.893,86.923L380.542,86.564C380.717,86.467 380.891,86.376 381.066,86.279C382.565,85.461 384.089,84.689 385.637,83.961C386.72,83.444 387.817,82.956 388.924,82.483C390.386,81.868 391.867,81.283 393.368,80.736C393.925,80.533 394.484,80.339 395.045,80.151L395.432,80.016C395.731,79.919 396.03,79.821 396.329,79.723C396.569,79.641 396.81,79.567 397.052,79.492C397.422,79.372 397.793,79.259 398.164,79.154L398.558,79.033C398.855,78.943 399.154,78.861 399.453,78.771L399.742,78.689L400.139,78.584L400.536,78.471L401.034,78.343C401.775,78.141 402.518,77.953 403.265,77.781C403.71,77.676 404.154,77.571 404.6,77.473C405.041,77.376 405.485,77.279 405.929,77.189C406.462,77.084 406.995,76.979 407.53,76.874C412.395,75.967 417.394,75.45 422.496,75.36L423.356,75.343L423.787,75.343L424.218,75.336ZM358.737,112.684L353.581,109.253L353.597,109.233C354.909,107.6 356.276,106.014 357.696,104.473C358.104,104.038 358.514,103.603 358.928,103.168C359.722,102.343 360.531,101.533 361.354,100.738L361.357,100.738L361.393,100.701C361.852,100.259 362.315,99.824 362.782,99.389C363.373,98.841 363.973,98.301 364.581,97.776C365.045,97.364 365.513,96.967 365.984,96.569L366.427,96.194L366.444,96.204C366.452,96.208 366.46,96.207 366.468,96.215C367.551,96.778 368.045,97.238 369.169,98.065C369.686,98.44 370.121,98.568 370.629,98.973C370.883,99.07 370.934,99.078 371.108,99.137C371.361,99.257 371.66,99.437 371.977,99.632C367.1,103.486 362.658,107.865 358.737,112.684Z" style="fill:white;"/>
        </g>
    </g>
</svg>
