<?xml version="1.0" encoding="UTF-8" standalone="no"?>
<!DOCTYPE svg PUBLIC "-//W3C//DTD SVG 1.1//EN" "http://www.w3.org/Graphics/SVG/1.1/DTD/svg11.dtd">
<svg width="100%" height="100%" viewBox="0 0 92 131" version="1.1" xmlns="http://www.w3.org/2000/svg" xmlns:xlink="http://www.w3.org/1999/xlink" xml:space="preserve" xmlns:serif="http://www.serif.com/" style="fill-rule:evenodd;clip-rule:evenodd;stroke-linejoin:round;stroke-miterlimit:2;">
    <g transform="matrix(1,0,0,1,-508.729,-290.006)">
        <g transform="matrix(0.584784,0,0,0.584784,508.729,290.006)">
            <g id="soak-logo.pdf">
                <g id="g2501">
                    <g id="g2499">
                        <g id="g2493" transform="matrix(1,0,0,1,0,137.553)">
                            <path id="path2491" d="M61.093,84.74C53.067,83.287 46.002,81.266 46.445,80.55C46.655,80.21 46.269,78.01 45.586,75.662C43.776,69.438 44.375,60.587 46.991,54.878C49.538,49.319 51.909,46.308 62.242,35.509C68.431,29.041 71.267,25.429 73.128,21.641C75.561,16.691 75.644,16.226 75.608,7.7C75.586,2.295 75.862,-1.12 76.322,-1.12C77.47,-1.12 85.113,7.047 87.829,11.176C92.261,17.914 93.549,22.366 93.6,31.13C93.654,40.498 92.425,43.891 86.798,49.906C82.567,54.43 82.972,55.101 89.949,55.119C98.133,55.138 104.984,51.381 107.621,45.424C108.836,42.679 109.051,42.643 111.103,44.827C113.864,47.766 115.991,53.664 116.364,59.412C116.738,65.194 115.976,69.463 113.36,76.253L111.723,80.5L106.434,82.049C93.454,85.85 73.701,87.022 61.093,84.74ZM17.824,63.943L16.395,62.255L18.083,63.684C19.669,65.027 20.112,65.63 19.512,65.63C19.369,65.63 18.61,64.871 17.824,63.943ZM137.145,64.13C137.892,63.305 138.672,62.63 138.878,62.63C139.084,62.63 138.642,63.305 137.895,64.13C137.149,64.955 136.369,65.63 136.163,65.63C135.956,65.63 136.399,64.955 137.145,64.13Z" style="fill-rule:nonzero;"/>
                        </g>
                        <g id="g2497" transform="matrix(1,0,0,1,0,-9.7721)">
                            <path id="path2495" d="M28.716,219.646C18.174,212.438 9.63,202.543 5.095,192.289C-3.079,173.805 -1.305,147.692 9.604,125.918C14.121,116.905 19.503,108.781 33.873,89.287C60.852,52.689 71.332,34.608 76.206,16.25L77.925,9.772L79.577,16.161C84.258,34.268 94.696,52.289 121.934,89.287C140.53,114.546 147.192,125.536 150.982,137.205C160.644,166.953 155.823,193.184 137.381,211.209C133.057,215.435 122.291,223.455 120.941,223.455C120.633,223.455 121.536,221.535 122.949,219.188C126.435,213.399 128.192,208.445 129.262,201.386C131.832,184.431 124.338,166.74 105.252,144.705C93.462,131.094 90.391,127.114 88.435,122.912C84.097,113.591 87.555,104.994 96.428,103.045C99.384,102.396 99.044,101.597 94.958,99.584C91.943,98.1 90.243,97.83 83.895,97.83C77.249,97.83 75.874,98.071 71.817,99.946C66.361,102.467 60.387,108.266 57.768,113.58C53.915,121.401 53.511,129.306 56.441,139.552L57.807,144.33L50.226,144.33C43.411,144.33 42.206,144.546 38.295,146.466C35.902,147.641 34.065,148.964 34.212,149.405C34.359,149.847 35.788,150.661 37.388,151.215C41.254,152.553 42.719,153.99 44.216,157.911C46.469,163.811 45.171,167.715 37.278,178.774C31.413,186.989 29.52,192.493 29.52,201.33C29.52,207.761 31.24,214.981 34.12,220.643C34.907,222.189 35.267,223.455 34.919,223.455C34.572,223.455 31.78,221.741 28.716,219.646ZM112.976,118.008L115.299,118.473L113.603,116.668C112.525,115.521 112.2,114.682 112.71,114.367C113.151,114.095 113.874,113.195 114.317,112.368C115.096,110.912 115.05,110.901 112.877,112.025C110.706,113.148 110.578,113.118 109.022,111.133L107.413,109.08L107.831,111.56C108.214,113.826 108.04,114.115 105.823,114.908L103.395,115.776L105.645,116.181C107.572,116.528 107.931,116.963 108.147,119.208L108.399,121.83L109.526,119.687C110.503,117.828 110.961,117.606 112.976,118.008Z" style="fill-rule:nonzero;"/>
                        </g>
                    </g>
                </g>
            </g>
        </g>
    </g>
</svg>
