<?xml version="1.0" encoding="UTF-8" standalone="no"?>
<!DOCTYPE svg PUBLIC "-//W3C//DTD SVG 1.1//EN" "http://www.w3.org/Graphics/SVG/1.1/DTD/svg11.dtd">
<svg width="100%" height="100%" viewBox="0 0 131 127" version="1.1" xmlns="http://www.w3.org/2000/svg" xmlns:xlink="http://www.w3.org/1999/xlink" xml:space="preserve" xmlns:serif="http://www.serif.com/" style="fill-rule:evenodd;clip-rule:evenodd;stroke-linejoin:round;stroke-miterlimit:10;">
    <g transform="matrix(1,0,0,1,-386.315,-505.305)">
        <g transform="matrix(0.978927,0,0,0.978927,386.315,505.2)">
            <g id="chaos-trans.pdf">
                <g id="g2485">
                    <g id="g2483">
                        <g id="g2481">
                            <path id="path2479" d="M61.822,127.865L61.822,115.37L51.898,115.25L51.898,105.883L61.822,105.763C61.822,105.763 61.746,79.009 61.654,79.009C61.562,79.009 32.945,107.553 32.945,107.553L39.35,114.186C39.35,114.186 22.808,114.255 20.323,114.249C19.716,114.248 19.225,113.755 19.225,113.148L19.225,93.845L26.137,100.747C26.137,100.747 54.685,72.135 54.685,72.042C54.685,71.948 14.104,71.872 14.104,71.872L13.984,81.264C13.984,81.264 1.774,68.983 0.61,67.783C0.201,67.361 0.196,66.692 0.598,66.264C1.747,65.047 14.095,52.583 14.095,52.583L14.095,62.059C14.095,62.059 54.685,61.983 54.685,61.891C54.685,61.798 52.334,59.374 49.46,56.504L44.235,51.286L38.61,56.483L31.84,49.785L37.066,44.323C37.066,44.323 29.147,36.153 28.971,36.329C28.885,36.415 28.815,44.886 28.815,44.886L19.221,44.886C19.221,44.886 19.318,23.636 19.331,20.611C19.334,20.036 19.799,19.569 20.374,19.564C22.498,19.545 44.426,19.734 44.426,19.734L44.426,29.265L35.945,29.386L44.164,37.415L49.964,32.224L56.752,38.964L51.058,44.486C51.058,44.486 61.393,54.809 61.61,54.885C61.743,54.932 61.822,14.555 61.822,14.555L52.455,14.386C52.455,14.386 64.098,2.579 65.948,0.729C66.378,0.3 67.075,0.3 67.506,0.73C69.356,2.579 81.001,14.383 81.001,14.383L71.524,14.667L71.405,54.922L97.283,29.442L88.808,29.274L88.808,19.755C88.808,19.755 110.773,19.553 112.741,19.567C113.328,19.572 113.807,20.036 113.831,20.622C113.895,22.431 114.01,44.886 114.01,44.886L104.42,44.886L104.252,36.411L78.439,62.059L119.139,62.059L119.308,52.692C119.308,52.692 131.117,64.337 132.967,66.188C133.397,66.618 133.397,67.315 132.967,67.745C131.085,69.627 119.139,81.573 119.139,81.573L119.139,71.872L78.439,71.872L107.19,100.626L114.01,94.084C114.01,94.084 114.009,110.625 114.009,113.253C114.009,113.546 113.893,113.826 113.685,114.033C113.478,114.24 113.197,114.355 112.904,114.354C110.314,114.345 94.019,114.18 94.019,114.18C94.019,114.18 100.182,107.659 100.182,107.5C100.182,107.072 71.932,78.937 71.667,79.1C71.518,79.192 71.697,105.772 71.697,105.772L80.715,105.772L80.852,115.194L71.703,115.362C71.703,115.362 71.704,126.593 71.703,127.865C71.703,128.473 71.21,128.966 70.602,128.966L62.923,128.966C62.315,128.966 61.822,128.473 61.822,127.865Z" style="fill-rule:nonzero;stroke:white;stroke-width:0.6px;"/>
                        </g>
                    </g>
                </g>
            </g>
        </g>
    </g>
</svg>
