<?xml version="1.0" encoding="UTF-8" standalone="no"?>
<!DOCTYPE svg PUBLIC "-//W3C//DTD SVG 1.1//EN" "http://www.w3.org/Graphics/SVG/1.1/DTD/svg11.dtd">
<svg width="100%" height="100%" viewBox="0 0 469 463" version="1.1" xmlns="http://www.w3.org/2000/svg" xmlns:xlink="http://www.w3.org/1999/xlink" xml:space="preserve" xmlns:serif="http://www.serif.com/" style="fill-rule:evenodd;clip-rule:evenodd;stroke-linejoin:round;stroke-miterlimit:2;">
    <g transform="matrix(1.29932,0,0,1.29932,-68.1848,-29.3419)">
        <path d="M54.586,175.485L54.588,173.047C74.428,207.28 94.268,241.534 114.11,275.81C119.923,285.85 125.553,295.983 131,306.21C131.04,306.29 131.02,306.35 130.94,306.39L130.94,306.4C130.867,306.44 130.807,306.423 130.76,306.35C123.09,294.09 115.58,281.85 108.33,269.21C90.406,237.955 72.491,206.713 54.586,175.485ZM54.597,162.218C76.604,200.095 98.611,237.973 120.62,275.85C126.06,285.223 131.953,295.947 138.3,308.02C139.46,310.227 139.37,310.28 138.03,308.18C130.903,296.967 123.733,285.077 116.52,272.51C95.87,236.553 75.228,200.591 54.595,164.626L54.597,162.218ZM176.675,366.525C173.795,361.541 170.999,356.521 168.28,351.43C164.22,343.823 160.257,336.757 156.39,330.23C151.18,321.45 146.39,312.04 141.01,303.26C132.597,289.533 125.807,278.15 120.64,269.11C98.644,230.664 76.632,192.23 54.604,153.809L54.606,151.515C78.108,191.883 101.762,232.558 125.57,273.54C132.83,286.04 139.73,298.93 147.07,311.49C150.61,317.557 153.94,323.333 157.06,328.82C164.422,341.764 172.257,354.453 179.733,367.356C178.705,367.086 177.686,366.809 176.675,366.525ZM168.913,364.15C165.751,358.398 162.903,352.975 160.37,347.88C157.643,342.393 155.587,338.5 154.2,336.2C154.16,336.133 154.18,336.1 154.26,336.1L154.33,336.1C154.377,336.1 154.413,336.12 154.44,336.16C158.487,342.54 162.64,349.01 166.9,355.57C168.466,357.988 170.402,361.372 172.681,365.352C171.412,364.963 170.156,364.562 168.913,364.15ZM161.745,361.6C160.043,358.318 158.338,354.978 156.63,351.58C156.05,350.433 155.55,349.36 155.13,348.36C154.91,347.853 154.957,347.83 155.27,348.29C158.525,353.093 161.673,357.896 164.712,362.699C163.714,362.34 162.726,361.974 161.745,361.6ZM154.753,358.758C154.575,358.406 154.397,358.053 154.22,357.7C154.193,357.653 154.203,357.613 154.25,357.58L154.47,357.46C154.483,357.447 154.497,357.45 154.51,357.47C154.862,358.016 155.213,358.562 155.563,359.107C155.292,358.991 155.022,358.875 154.753,358.758ZM54.534,237.276C58.323,243.796 62.111,250.317 65.9,256.84C68.553,261.407 74.307,271.707 83.16,287.74C85.767,292.447 89.167,298.18 93.36,304.94C97.748,312.007 101.951,319.181 105.968,326.463C104.407,324.98 102.895,323.487 101.431,321.991C98.42,316.838 95.52,311.621 92.73,306.34C88.97,299.22 85.73,293.403 83.01,288.89C75.01,275.623 68.567,264.77 63.68,256.33C60.721,251.221 57.671,245.945 54.531,240.501L54.534,237.276ZM54.543,226.557C61.27,238.158 67.992,249.765 74.71,261.38C82.8,275.36 90.15,289.57 98.51,303.18C104.52,312.96 109.79,322.8 114.96,332.57C115.513,333.617 115.467,333.643 114.82,332.65C108.433,322.91 102.563,313.057 97.21,303.09C87.95,285.85 77.28,269.23 67.6,252.43C63.666,245.6 59.313,238.028 54.54,229.715L54.543,226.557ZM54.552,215.822C62.14,228.885 69.729,241.955 77.32,255.03C80.567,260.623 83.863,266.413 87.21,272.4C96.35,288.74 105.567,305.04 114.86,321.3C114.92,321.4 114.903,321.477 114.81,321.53L114.8,321.53C114.673,321.61 114.573,321.587 114.5,321.46C111.247,316.22 108.067,310.9 104.96,305.5C95.22,288.59 85.03,271.97 75.32,255.06C68.392,243 61.468,230.939 54.549,218.876L54.552,215.822ZM54.561,205.09C65.747,224.337 76.94,243.594 88.14,262.86C92.28,269.993 101.387,286.343 115.46,311.91C115.473,311.93 115.517,311.983 115.59,312.07C115.637,312.13 115.657,312.193 115.65,312.26C115.637,312.413 115.59,312.423 115.51,312.29C99.81,286.237 89.787,269.42 85.44,261.84C74.784,243.271 64.49,225.328 54.559,208.008L54.561,205.09ZM54.57,194.461C67.692,217.074 80.812,239.693 93.93,262.32C101.763,275.833 109.383,289.46 116.79,303.2C116.837,303.28 116.82,303.34 116.74,303.38C116.66,303.427 116.597,303.413 116.55,303.34C107.09,288.147 97.903,272.783 88.99,257.25C77.527,237.271 66.053,217.26 54.568,197.218L54.57,194.461ZM54.579,183.658C71.37,212.566 88.16,241.48 104.95,270.4C111.76,282.12 118.14,294.15 124.65,306.09C124.677,306.143 124.693,306.203 124.7,306.27C124.707,306.43 124.667,306.44 124.58,306.3C115.647,292.047 108.223,279.777 102.31,269.49C89.784,247.719 73.873,220.009 54.577,186.36L54.579,183.658ZM184.769,368.601C181.23,362.418 176.827,354.691 171.56,345.42C163.213,330.727 152.927,313.17 140.7,292.75C137.073,286.703 133.7,280.957 130.58,275.51C104.99,230.878 79.667,186.693 54.613,142.956L54.615,140.834C72.178,170.953 89.877,201.342 107.71,232C117.16,248.26 126.89,264.57 136.14,281.15C151.92,309.457 168.337,338.18 185.39,367.32C185.715,367.875 186.038,368.422 186.358,368.963C185.827,368.844 185.297,368.724 184.769,368.601ZM191.936,370.119C176.708,343.276 160.679,315.509 143.85,286.82C139.48,279.36 134.28,271.74 130.35,264.67C125.217,255.443 120.047,246.283 114.84,237.19C95.824,203.985 76.795,170.783 57.755,137.586C58.175,137.589 58.605,137.591 59.025,137.593C76.586,167.722 94.104,197.877 111.58,228.06C112.333,229.36 113.147,230.63 114.02,231.87C115.28,233.66 116.04,235.72 117.16,237.63C120.693,243.697 124.237,249.643 127.79,255.47C132.5,263.16 136.42,271.16 140.6,278.53C155.887,305.443 172.203,333.937 189.55,364.01C190.794,366.167 192.046,368.28 193.298,370.375C192.843,370.291 192.388,370.206 191.936,370.119ZM198.905,371.323C194.534,363.79 190.222,356.221 186.04,348.6C180.81,339.06 175.05,329.87 169.59,320.5C161.103,305.933 152.637,291.357 144.19,276.77C140.85,271.003 137.5,265.56 134.14,260.44C128.54,251.89 124.49,242.4 118.96,233.71C117.807,231.897 116.883,230.297 116.19,228.91C115.69,227.91 115.187,226.97 114.68,226.09C97.138,195.571 79.773,165.469 62.674,135.483C62.808,135.025 62.965,134.525 63.146,133.985C79.368,161.766 95.855,190.095 112.61,218.97C115.31,223.63 118.17,228.22 120.66,232.99C122.82,237.13 125.53,241.44 128.79,245.92C132.27,250.7 134.69,256.83 137.7,262.22C147.633,280.013 157.65,297.64 167.75,315.1C174.13,326.11 180.02,337.38 186.69,348.3C189.957,353.64 193.037,358.867 195.93,363.98C197.356,366.496 198.785,369.009 200.216,371.521C199.778,371.456 199.341,371.39 198.905,371.323ZM205.546,372.233C201.579,365.512 197.617,358.495 193.66,351.18C190.253,344.88 187.037,339.133 184.01,333.94C180.53,327.96 177.18,322.303 173.96,316.97C167.807,306.77 161.537,296.14 155.15,285.08C148.99,274.4 141.93,262.62 134.73,251.34C132.083,247.187 129.693,242.887 127.56,238.44C124.94,232.987 122.873,228.96 121.36,226.36C102.553,194.136 83.81,161.62 65.132,128.811C65.315,128.38 65.506,127.937 65.706,127.483C78.452,149.199 91.053,171.077 103.76,193.15C109.713,203.483 115.58,213.9 121.36,224.4C123.76,228.76 127.5,232.6 130.02,236.75C132.787,241.323 135.423,245.987 137.93,250.74C140.937,256.453 143.477,261.173 145.55,264.9C153.977,280.04 162.027,294.377 169.7,307.91C171.18,310.523 172.713,313.223 174.3,316.01C177.673,321.937 181.063,327.887 184.47,333.86C187.603,339.34 190.97,345.05 194.57,350.99C198.878,358.094 203.089,365.239 207.203,372.425C206.648,372.363 206.096,372.299 205.546,372.233ZM68.464,121.665C79.649,140.684 90.637,159.555 101.43,178.28C105.077,184.62 108.537,191.143 111.81,197.85C112.19,198.63 112.13,198.667 111.63,197.96C111.37,197.587 111.123,197.21 110.89,196.83C108.497,193.037 106.367,189.533 104.5,186.32C90.57,162.248 78.386,141.039 67.95,122.693C68.118,122.355 68.289,122.012 68.464,121.665ZM71.431,116.093C80.771,131.76 90.025,147.708 99.51,164.23C102.37,169.203 105.313,174.673 108.34,180.64C108.433,180.827 108.517,181.017 108.59,181.21C108.817,181.81 108.75,181.843 108.39,181.31C105.697,177.377 103.247,173.517 101.04,169.73C90.878,152.233 80.833,134.669 70.906,117.039C71.079,116.726 71.254,116.411 71.431,116.093ZM74.654,110.586L106.81,166.507C106.961,166.77 106.87,167.106 106.607,167.258L106.572,167.278C106.309,167.429 105.973,167.338 105.821,167.075L73.979,111.7C74.201,111.331 74.426,110.96 74.654,110.586ZM77.718,105.754C80.56,110.031 85.112,117.506 90.02,126.04L90.2,126.35C97.985,139.889 103.911,151.307 103.33,151.65C103.306,151.665 103.278,151.674 103.249,151.674C103.196,151.674 103.147,151.646 103.12,151.6L77.209,106.533C77.377,106.275 77.547,106.015 77.718,105.754ZM81.009,100.918C86.686,110.168 92.129,119.255 97.34,128.18C99.587,132.027 101.683,136.137 103.63,140.51C103.69,140.643 103.66,140.667 103.54,140.58C103.467,140.527 103.42,140.457 103.4,140.37C103.38,140.29 103.347,140.217 103.3,140.15C100.913,136.65 99.43,134.4 98.85,133.4C92.681,122.747 86.674,112.006 80.829,101.175C80.889,101.089 80.949,101.003 81.009,100.918ZM125.184,56.658C126.854,60.767 128.819,64.774 131.08,68.68C131.127,68.767 131.107,68.837 131.02,68.89L130.78,69.05C130.76,69.063 130.743,69.06 130.73,69.04C129.18,66.57 127.8,63.74 125.75,61.63C124.735,60.576 124.393,59.018 123.685,57.723C124.181,57.367 124.681,57.012 125.184,56.658ZM129.739,53.563C130.471,55.158 131.152,56.707 131.78,58.21C132.827,60.697 134.253,63.53 136.06,66.71C136.213,66.783 136.273,66.903 136.24,67.07C136.2,67.277 136.123,67.29 136.01,67.11C133.96,63.75 131.98,60.39 129.39,57.35C128.686,56.527 128.009,55.824 127.444,55.097C128.201,54.582 128.966,54.071 129.739,53.563ZM134.278,50.681C135.314,53.065 136.332,55.338 137.33,57.5C138.52,60.08 140.3,62.41 141.52,65.06C142.287,66.707 142.137,66.793 141.07,65.32C139.08,62.58 137.92,59.62 135.82,56.83C134.582,55.189 133.367,53.577 132.175,51.992C132.87,51.552 133.571,51.114 134.278,50.681ZM138.851,47.97C140.729,52.329 142.712,56.132 144.8,59.38C145.64,60.69 145.82,62.21 146.68,63.47C147.18,64.203 147.083,64.297 146.39,63.75C146.297,63.683 146.183,63.48 146.05,63.14C145.963,62.92 145.847,62.727 145.7,62.56C142.95,59.51 142.01,55.22 139.09,52.33C138.343,51.59 137.707,50.753 137.18,49.82C137.053,49.597 136.921,49.381 136.786,49.17C137.469,48.767 138.157,48.367 138.851,47.97ZM143.708,45.291C144.673,47.156 145.11,49.175 146.35,50.97C148.05,53.43 149.48,56.303 150.64,59.59C150.873,60.237 150.79,60.28 150.39,59.72C149.47,58.44 148.37,57.34 147.58,56C145.707,52.867 143.714,49.677 141.6,46.429C142.297,46.046 143,45.667 143.708,45.291ZM148.831,42.679C149.79,45.61 149.96,47.85 152.74,50.4C153.14,50.767 153.387,51.22 153.48,51.76L153.93,54.47C153.997,54.857 153.883,54.92 153.59,54.66C152.5,53.69 151.32,52.81 150.82,51.39C149.927,48.877 148.697,46.847 147.13,45.3C146.741,44.914 146.394,44.497 146.091,44.049C146.996,43.587 147.909,43.13 148.831,42.679ZM153.568,40.448C153.837,40.967 154.128,41.467 154.44,41.95C154.633,42.263 154.73,42.603 154.73,42.97C154.72,45.08 155.9,45.32 157.26,46.45C157.533,46.67 157.683,46.957 157.71,47.31L157.99,50.94C157.992,50.955 157.991,50.97 157.987,50.984C157.97,51.054 157.894,51.095 157.82,51.076C157.806,51.073 157.792,51.067 157.78,51.06L155.45,49.57C155.316,49.48 155.226,49.339 155.2,49.18C154.736,45.739 153.352,44.328 150.729,41.764C151.667,41.319 152.613,40.881 153.568,40.448ZM158.806,38.18C158.841,38.373 158.853,38.571 158.84,38.77C158.713,40.623 159.453,41.76 161.06,42.18C161.467,42.287 161.757,42.533 161.93,42.92C162.23,43.593 162.297,44.287 162.13,45C161.946,45.768 162.107,46.58 162.57,47.22C163.557,48.587 164.317,50.047 164.85,51.6C165.003,52.033 164.893,52.117 164.52,51.85C163.4,51.06 162.5,48.86 161.88,47.63C161.7,47.283 161.427,47.043 161.06,46.91C160.053,46.55 159.257,45.947 158.67,45.1C158.457,44.78 158.377,44.43 158.43,44.05C158.64,42.51 158.35,42.19 157.17,41.31C156.95,41.143 156.77,40.943 156.63,40.71C156.376,40.285 156.098,39.867 155.811,39.452C156.8,39.021 157.798,38.597 158.806,38.18ZM162.914,36.539C163.139,37.638 163.923,38.301 164.94,38.84C166.43,39.61 165.87,41.12 166.36,42.41C166.79,43.53 167.81,44.14 168.21,45.29C168.483,46.09 168.717,46.967 168.91,47.92C168.983,48.293 168.87,48.36 168.57,48.12C166.99,46.86 165.973,45.49 165.52,44.01C165.327,43.376 164.769,42.918 164.11,42.85C163.55,42.79 163.153,42.503 162.92,41.99C162.693,41.47 162.647,40.933 162.78,40.38C163.113,38.96 162.583,37.967 161.19,37.4C161.119,37.37 161.051,37.334 160.987,37.294C161.626,37.039 162.269,36.787 162.914,36.539ZM168.016,34.665C168.314,35.08 168.699,35.448 169.17,35.77C169.497,35.99 169.693,36.297 169.76,36.69C169.987,38.117 170.513,39.363 171.34,40.43C172.46,41.87 172.47,43.57 173.53,44.64C176.263,47.42 178.157,50.79 179.21,54.75C179.33,55.19 179.197,55.29 178.81,55.05C175.88,53.22 173.91,48.29 172.81,44.96C172.685,44.586 172.468,44.252 172.18,43.99C171.153,43.07 170.417,41.947 169.97,40.62C169.85,40.26 169.65,39.95 169.37,39.69L167.62,38.06C167.327,37.787 167.2,37.447 167.24,37.04C167.302,36.339 167.206,35.641 166.9,35.059C167.271,34.927 167.643,34.795 168.016,34.665ZM173.372,32.883C173.56,33.367 173.739,33.856 173.91,34.35C174.417,35.817 175.14,37.073 176.08,38.12C176.58,38.68 176.867,39.34 176.94,40.1C176.977,40.486 177.186,40.838 177.51,41.06C180.15,42.82 181.01,45.84 182.2,48.6C182.947,50.32 183.837,51.9 184.87,53.34C187.143,56.533 188.987,59.893 190.4,63.42C191.007,64.92 190.833,65.017 189.88,63.71C187.613,60.577 185.633,57.13 183.94,53.37C182.01,49.1 178.01,47.17 177.16,42.13C176.92,40.74 176.65,40.4 175.63,39.58C175.343,39.353 175.15,39.063 175.05,38.71C174.64,37.2 174.22,36.07 172.93,35.03C172.404,34.602 171.968,34.073 171.623,33.445C172.203,33.255 172.786,33.068 173.372,32.883ZM178.035,31.482C178.037,31.498 178.038,31.514 178.04,31.53C178.073,31.857 177.953,31.923 177.68,31.73C177.632,31.695 177.586,31.66 177.539,31.625C177.704,31.577 177.87,31.53 178.035,31.482ZM200.233,26.576C200.554,27.226 200.723,27.75 200.618,27.806C200.505,27.867 200.113,27.364 199.718,26.659C199.889,26.631 200.061,26.603 200.233,26.576ZM223.862,24.218C224.515,25.318 225.158,26.418 225.79,27.52C225.817,27.567 225.807,27.603 225.76,27.63L225.54,27.75C225.4,27.83 225.29,27.8 225.21,27.66C224.554,26.533 223.904,25.394 223.261,24.245C223.461,24.236 223.661,24.227 223.862,24.218ZM262.496,25.942C263.927,28.913 265.511,31.516 267.25,33.75C270.07,37.38 271.65,41.86 273.59,45.95C273.897,46.61 273.84,46.643 273.42,46.05C270.447,41.89 267.77,37.56 265.39,33.06C264.03,30.492 262.667,28.116 261.264,25.777C261.676,25.831 262.087,25.886 262.496,25.942ZM269.242,26.982C269.377,27.222 269.519,27.458 269.67,27.69C272.723,32.337 275.427,37.18 277.78,42.22C277.827,42.313 277.803,42.383 277.71,42.43L277.7,42.44C277.6,42.493 277.523,42.47 277.47,42.37C275.26,38.34 272.19,35.23 270.36,31.01C269.754,29.603 269.059,28.206 268.275,26.818C268.598,26.872 268.921,26.927 269.242,26.982ZM276.108,28.293C276.906,29.471 277.737,30.626 278.6,31.76C279.33,32.71 279.53,33.95 280.22,34.86C281.91,37.05 282.61,39.17 283.9,41.38C286.133,45.187 288.283,48.96 290.35,52.7C290.45,52.88 290.41,53.02 290.23,53.12L289.98,53.25C289.913,53.283 289.863,53.267 289.83,53.2C288.37,50.34 286.7,47.59 284.82,44.95C284.067,43.89 283.4,42.74 282.82,41.5C282.05,39.86 280.75,38.71 280.02,36.98C279.11,34.85 277.38,33.33 276.63,31.23C276.224,30.1 275.974,29.165 275.419,28.15C275.649,28.197 275.879,28.245 276.108,28.293ZM283.882,30.101C285.465,32.479 287.041,34.982 288.61,37.61C290.59,40.93 291.943,43.877 292.67,46.45C292.77,46.817 292.67,46.887 292.37,46.66C291.123,45.747 290.207,44.74 289.62,43.64C287.09,38.904 284.65,34.259 282.302,29.705C282.831,29.835 283.357,29.967 283.882,30.101ZM291.346,32.178C292.894,34.804 294.242,37.558 295.39,40.44C295.55,40.827 295.483,40.87 295.19,40.57C292.943,38.277 291.16,35.87 289.84,33.35C289.474,32.653 289.139,32.017 288.836,31.441C289.678,31.681 290.515,31.927 291.346,32.178ZM315.02,53.02L305.435,37.087C305.854,37.254 306.272,37.421 306.688,37.59C309.737,42.575 312.514,47.718 315.02,53.02ZM315.02,53.02C316.22,54.327 317.103,55.777 317.67,57.37C317.843,57.863 317.78,57.897 317.48,57.47C316.527,56.117 315.707,54.633 315.02,53.02ZM315.274,41.357C317.292,45.306 319.401,49.301 321.6,53.34C321.68,53.487 321.647,53.6 321.5,53.68L321.28,53.81C321.247,53.83 321.22,53.82 321.2,53.78C318.547,49.247 315.823,44.763 313.03,40.33C313.026,40.324 313.023,40.319 313.019,40.313C313.777,40.657 314.528,41.005 315.274,41.357ZM333.822,51.581C334.919,53.579 335.872,55.692 336.68,57.92C336.713,58.02 336.683,58.093 336.59,58.14C336.543,58.167 336.507,58.157 336.48,58.11C335.25,56.16 333.92,54.43 332.94,52.33C332.651,51.704 332.354,51.083 332.05,50.468C332.645,50.837 333.235,51.207 333.822,51.581ZM411.759,243.044C410.585,240.866 409.419,238.685 408.26,236.5C408.22,236.42 408.24,236.357 408.32,236.31C408.393,236.27 408.457,236.287 408.51,236.36C409.6,238.081 410.683,239.806 411.76,241.535L411.759,243.044ZM411.746,254.577C408.474,248.652 405.357,242.753 402.24,236.74C402.207,236.68 402.22,236.633 402.28,236.6C402.353,236.56 402.413,236.573 402.46,236.64C405.616,241.612 408.713,246.62 411.75,251.663L411.746,254.577ZM408.435,259.799C404.198,252.261 400.079,244.659 396.08,236.99C396.033,236.91 396.05,236.847 396.13,236.8L396.14,236.8C396.213,236.76 396.277,236.78 396.33,236.86C399.67,242.047 402.65,246.83 405.27,251.21C406.96,254.034 408.656,256.888 410.357,259.768L408.435,259.799ZM403.716,262.596C398.888,254.229 394.469,245.803 390.07,237.3C390.023,237.22 390.04,237.157 390.12,237.11L390.13,237.11C390.21,237.063 390.273,237.08 390.32,237.16C395.083,244.824 400.052,252.518 404.508,260.222L403.729,262.561C403.729,262.561 403.725,262.573 403.716,262.596ZM401.108,268.789C399.385,265.8 397.662,262.81 395.94,259.82C392.08,253.12 388.443,246.307 385.03,239.38C384.977,239.28 385,239.203 385.1,239.15L385.1,239.14C385.193,239.087 385.27,239.107 385.33,239.2C389.277,245.153 393.03,251.2 396.59,257.34C398.396,260.456 400.208,263.587 402.028,266.733C401.756,267.356 401.45,268.043 401.108,268.789ZM398.196,274.788C395.225,269.641 392.243,264.469 389.25,259.27C386.43,254.37 383.993,249.613 381.94,245C381.187,243.307 381.34,243.22 382.4,244.74C385.26,248.853 388.15,253.427 391.07,258.46C393.808,263.181 396.544,267.907 399.278,272.636C398.938,273.325 398.578,274.042 398.196,274.788ZM395.196,280.386C391.306,273.616 387.427,266.844 383.56,260.07C381.61,256.64 380.1,253.14 378.46,249.54C378.127,248.807 378.2,248.76 378.68,249.4C383.4,255.66 387.09,262.37 391.05,269.19C392.816,272.227 394.58,275.265 396.343,278.303C395.975,278.981 395.593,279.676 395.196,280.386ZM392.051,285.783C387.984,278.741 383.92,271.696 379.86,264.65C378.38,262.07 377.48,259.3 376.27,256.62C375.89,255.793 375.997,255.727 376.59,256.42C378.437,258.587 380.003,260.783 381.29,263.01C385.285,269.906 389.281,276.812 393.277,283.729C392.881,284.403 392.472,285.088 392.051,285.783ZM388.792,290.971C385.272,284.87 381.755,278.766 378.24,272.66C376.36,269.41 375.11,266.24 373.83,262.86C373.757,262.66 373.787,262.64 373.92,262.8C376.027,265.173 377.83,267.663 379.33,270.27C382.922,276.507 386.509,282.733 390.09,288.95C389.668,289.616 389.236,290.29 388.792,290.971ZM385.404,295.997C382.338,290.704 379.274,285.411 376.21,280.12C374.343,276.9 372.737,273.313 371.39,269.36C371.387,269.354 371.385,269.347 371.385,269.34C371.385,269.318 371.403,269.3 371.425,269.3C371.439,269.3 371.453,269.307 371.46,269.32C373.54,271.667 375.38,274.22 376.98,276.98C380.271,282.66 383.546,288.32 386.805,293.96C386.348,294.633 385.881,295.312 385.404,295.997ZM381.911,300.84C379.872,297.321 377.831,293.801 375.79,290.28C372.957,285.4 370.793,280.85 369.3,276.63C369.22,276.403 369.26,276.377 369.42,276.55C371.5,278.843 373.213,281.157 374.56,283.49C377.502,288.593 380.447,293.704 383.395,298.821C382.91,299.49 382.416,300.163 381.911,300.84ZM378.35,305.47C376.038,301.475 373.728,297.485 371.42,293.5C369.52,290.21 368.53,286.95 367.08,283.63C366.933,283.29 366.977,283.263 367.21,283.55C369.15,285.92 371.07,288.15 372.58,290.79C375.018,295.025 377.456,299.261 379.895,303.498C379.389,304.152 378.874,304.81 378.35,305.47ZM374.664,309.969C372.08,305.515 369.482,301.039 366.87,296.54C365.63,294.39 365.15,292.29 364.35,290.04C364.157,289.5 364.26,289.433 364.66,289.84C365.9,291.11 367.32,292.42 368.21,293.96C370.904,298.645 373.598,303.33 376.294,308.014C375.759,308.664 375.216,309.315 374.664,309.969ZM370.89,314.296C368.282,309.803 365.672,305.307 363.06,300.81C362.113,299.177 361.337,296.96 360.73,294.16C360.65,293.813 360.73,293.767 360.97,294.02C362.943,296.133 364.857,298.797 366.71,302.01C368.692,305.449 370.671,308.884 372.647,312.315C372.07,312.974 371.485,313.635 370.89,314.296ZM366.995,318.495C364.716,314.553 362.438,310.612 360.16,306.67C359.113,304.857 358.223,302.47 357.49,299.51C357.41,299.19 357.497,299.14 357.75,299.36C359.477,300.873 360.683,302.223 361.37,303.41C363.875,307.77 366.38,312.13 368.885,316.49C368.264,317.158 367.635,317.827 366.995,318.495ZM363.001,322.543C361.037,319.158 359.07,315.771 357.1,312.38C356.093,310.633 355.237,308.217 354.53,305.13C354.437,304.73 354.54,304.67 354.84,304.95C356.733,306.743 358.423,308.953 359.91,311.58C361.351,314.124 363.052,317.109 365.013,320.535C364.352,321.205 363.681,321.874 363.001,322.543ZM358.96,326.392C357.391,323.673 355.831,320.969 354.28,318.28C353.073,316.193 352.117,313.657 351.41,310.67C351.33,310.317 351.427,310.257 351.7,310.49C353.327,311.903 354.573,313.327 355.44,314.76C357.256,317.765 359.164,320.981 361.137,324.347C360.422,325.03 359.696,325.711 358.96,326.392ZM354.809,330.108C353.757,328.274 352.684,326.401 351.59,324.49C349.85,321.45 348.56,318.09 347.4,314.79C347.2,314.21 347.32,314.133 347.76,314.56C350.1,316.82 351.91,319.15 353.63,322.14C354.776,324.127 355.923,326.118 357.072,328.111C356.328,328.779 355.574,329.445 354.809,330.108ZM350.566,333.676C350.211,333.057 349.855,332.439 349.5,331.82C347.73,328.74 346.23,325.12 344.42,321.81C343.913,320.877 343.58,319.887 343.42,318.84C343.227,317.587 343.497,317.477 344.23,318.51C346.68,321.92 349.2,325.18 351.25,328.72C351.822,329.709 352.393,330.698 352.965,331.687C352.176,332.353 351.376,333.016 350.566,333.676ZM346.304,337.041C345.054,334.758 343.853,332.371 342.7,329.88C341.07,326.35 339.38,322.51 337.38,319.26C333.65,313.18 329.71,307.26 326.16,301.01C315.287,281.91 304.263,262.977 293.09,244.21C289.36,237.95 285.62,231.1 281.67,224.53C280.123,221.977 278.283,218.397 276.15,213.79C274.523,210.277 272.597,206.723 270.37,203.13C270.29,202.997 270.317,202.887 270.45,202.8C270.583,202.713 270.693,202.737 270.78,202.87C271.987,204.77 273.15,206.693 274.27,208.64C276.68,212.82 280.16,216.62 282.44,220.81C285.12,225.73 288.31,231.407 292.01,237.84C305.683,261.62 318.3,283.613 329.86,303.82C332.033,307.613 334.307,311.93 336.68,316.77C337.46,318.357 338.37,319.88 339.41,321.34C342.643,325.86 345.885,330.305 348.747,335.138C347.943,335.776 347.128,336.41 346.304,337.041ZM342.114,340.146C341.023,337.968 339.969,335.777 338.96,333.57C337.79,331.01 336.13,328.86 334.86,326.43C331.37,319.74 327.47,314.01 323.83,307.74C315.937,294.107 308.3,280.873 300.92,268.04C295.6,258.79 289.99,250.12 285,241.1C282.08,235.82 278.897,230.283 275.45,224.49C273.86,221.83 272.76,218.98 271.45,216.11C270.06,213.08 267.48,209.64 266.07,206.02C265.93,205.66 265.98,205.63 266.22,205.93C268.56,208.87 270.14,212.3 272.16,215.19C274.987,219.237 277.483,223.17 279.65,226.99C282.303,231.663 285.027,236.32 287.82,240.96C291.62,247.28 295.39,254.66 298.56,260.18C306.567,274.12 314.363,287.627 321.95,300.7C326.55,308.62 331.45,317.9 336.4,326.51C338.759,330.614 341.721,334.496 344.361,338.505C343.62,339.055 342.871,339.602 342.114,340.146ZM338.043,342.984C335.069,337.357 331.757,332.078 328.64,326.36C325.76,321.08 322.01,315.5 319.29,310.73C307.81,290.59 296.527,271.233 285.44,252.66C281.48,246.03 277.15,237.64 272.53,230.2C269.76,225.73 267.72,221.24 265.53,216.57C265.13,215.717 264.657,214.927 264.11,214.2C263.28,213.09 262.37,212.41 262.01,210.99C261.523,209.05 260.617,207.197 259.29,205.43C259.274,205.408 259.278,205.376 259.3,205.36L259.52,205.23C259.607,205.177 259.673,205.193 259.72,205.28C260.78,207.22 262.003,209.03 263.39,210.71C264.68,212.29 264.83,214.07 265.96,215.65C269.313,220.337 272.25,224.897 274.77,229.33C278.783,236.41 281.5,241.1 282.92,243.4C286.99,249.95 290.73,257.15 294.54,263.8C305.4,282.74 316.38,301.55 326.87,320.6C329.93,326.16 333.41,331.31 336.36,336.92C337.301,338.712 338.458,340.311 339.636,341.894C339.109,342.259 338.578,342.622 338.043,342.984ZM249.01,197.77C250.04,199.06 251.21,200.44 251.97,201.85C256.183,209.723 260.027,216.233 263.5,221.38C266.147,225.3 268.367,228.93 270.16,232.27C271.867,235.443 273.533,238.347 275.16,240.98C282.66,253.16 289.56,266.17 296.57,278.31C304.277,291.65 311.98,305.033 319.68,318.46C322.25,322.95 324.54,328.01 327.36,332.12C330.11,336.117 332.387,340.913 334.752,345.155C334.365,345.403 333.976,345.651 333.585,345.898C331.928,343.149 330.285,340.406 328.76,337.63C326.12,332.83 323.387,328.06 320.56,323.32C312.74,310.18 304.947,296.82 297.18,283.24C289.04,268.98 280.1,254.63 272.05,239.83C268.9,234.06 265.43,229.28 262.53,222.88C259.28,215.69 254.67,208.94 250.46,202.27C250.093,201.683 249.61,200.183 249.01,197.77ZM249.01,197.77C246.99,195.35 245.283,192.723 243.89,189.89C242.09,186.22 239.86,182.97 238.09,179.34C238.037,179.22 238.067,179.127 238.18,179.06L238.19,179.06C238.297,178.993 238.387,179.013 238.46,179.12C239.747,180.993 240.923,182.937 241.99,184.95C242.817,186.523 243.983,188.45 245.49,190.73C246.943,192.93 248.117,195.277 249.01,197.77ZM328.847,348.788C327.142,345.828 325.567,343.012 324.12,340.34C319.55,331.89 314.64,324.27 310.11,316.41C299.65,298.217 289.047,280.027 278.3,261.84C272.88,252.66 266.86,241.39 260.99,231.55C259.71,229.403 258.233,226.59 256.56,223.11C255.273,220.43 253.757,217.623 252.01,214.69C251.983,214.65 250.733,212.923 248.26,209.51C246.253,206.743 244.96,203.823 244.38,200.75C244.32,200.43 244.407,200.383 244.64,200.61C247.313,203.197 249.57,206.717 251.41,211.17C253.023,215.097 255.13,218.837 257.73,222.39C260.15,225.697 262.253,229.033 264.04,232.4C266.147,236.387 268.297,240.163 270.49,243.73C278.31,256.46 285.69,270.16 293.01,282.9C301.73,298.08 310.44,312.65 318.59,327.75C320.357,331.023 322.23,334.227 324.21,337.36C326.41,340.844 328.445,344.337 330.42,347.852C329.899,348.166 329.375,348.478 328.847,348.788ZM239.23,202.55C241.27,204.83 243.13,206.96 244.39,209.79C246.423,214.33 248.793,218.58 251.5,222.54C257.49,231.32 261.79,239.76 267.14,248.69C276.33,264.01 285.2,280.15 293.78,294.94C299.873,305.44 306.14,316.477 312.58,328.05C315.893,334.003 319.253,339.767 322.66,345.34C323.713,347.058 324.757,348.793 325.792,350.543C325.238,350.854 324.681,351.162 324.12,351.469C322.76,349.127 321.404,346.784 320.05,344.44C318.77,342.22 317.87,339.85 316.52,337.59C307.687,322.843 298.217,306.757 288.11,289.33C280.97,277.02 273.45,264.56 266.34,251.76C262.8,245.387 259.37,239.417 256.05,233.85C255.11,232.277 252.91,228.1 249.45,221.32C247.237,216.98 244.687,212.777 241.8,208.71C241.113,207.737 240.257,205.683 239.23,202.55ZM239.23,202.55C238.77,201.97 238.357,201.387 237.99,200.8C234.077,194.547 230.663,188.62 227.75,183.02C226.33,180.28 223.81,177.33 222,174.44C218.327,168.6 215.153,162.62 212.48,156.5C212.26,156 212.317,155.967 212.65,156.4C217.343,162.533 221.293,168.943 224.5,175.63C226.62,180.05 228.68,183.883 230.68,187.13C233.273,191.343 235.757,195.583 238.13,199.85C238.597,200.683 238.963,201.583 239.23,202.55ZM319.304,354.002C317.436,350.688 315.575,347.284 313.72,343.79C309.63,336.09 304.78,328.81 300.25,320.94C289.803,302.787 279.293,284.737 268.72,266.79C262.95,257 256.8,245.48 250.57,235C246.14,227.57 242.7,219.71 238.2,212.41C237.04,210.52 236.22,208.44 235.04,206.53C228.81,196.45 223.53,186.76 216.99,176.35C211.62,167.79 206.71,158.91 202.39,149.87C201.99,149.043 202.053,149.007 202.58,149.76C209.167,159.233 214.933,168.797 219.88,178.45C224.29,187.07 228.99,194.25 233.32,202.19C236.613,208.23 240.073,214.167 243.7,220C248.24,227.287 251.697,232.983 254.07,237.09C259.69,246.8 265.66,256.53 271.07,266.11C284.52,289.91 298.21,313.09 311.12,336.57C314.27,342.28 317.92,347.38 321.06,352.96C321.08,352.996 321.101,353.033 321.121,353.069C320.519,353.383 319.914,353.694 319.304,354.002ZM314.421,356.378C314.034,355.716 313.647,355.053 313.26,354.39C310.87,350.29 308.86,345.36 306.05,341.12C304.963,339.487 303.897,337.773 302.85,335.98C283.977,303.733 265.88,272.52 248.56,242.34C245.373,236.787 242.113,230.957 238.78,224.85C228.693,206.33 221.22,193.287 216.36,185.72C210.427,176.473 205.377,167.437 201.21,158.61C201.163,158.503 201.19,158.423 201.29,158.37L201.29,158.36C201.39,158.307 201.473,158.327 201.54,158.42C208.06,167.31 213.11,177.01 218.71,187.4C224.937,198.933 231.81,210.77 239.33,222.91C245.44,232.79 250.94,242.54 256.89,252.51C259.503,256.897 261.927,261.043 264.16,264.95C277.633,288.543 291.127,312.12 304.64,335.68C306.07,338.18 308.71,343.68 311.27,347.43C312.837,349.723 313.963,351.47 314.65,352.67C315.188,353.615 315.726,354.559 316.264,355.504C315.654,355.798 315.039,356.089 314.421,356.378ZM309.466,358.6C308.381,356.624 306.649,353.404 304.27,348.94C301.54,343.82 298.26,338.81 295.37,333.82C279.877,307.18 264.387,280.537 248.9,253.89C242.833,243.463 236.883,232.91 231.05,222.23C228.35,217.28 225.11,212.45 222.5,207.33C221.447,205.257 220.347,203.247 219.2,201.3C213.333,191.373 207.473,181.447 201.62,171.52C199.91,168.61 198.61,165.19 196.97,162.06C196.917,161.967 196.937,161.89 197.03,161.83L197.04,161.83C197.14,161.77 197.223,161.79 197.29,161.89C201.81,168.56 205.99,175.13 210.04,182.67C213.333,188.817 216.1,193.813 218.34,197.66C225.727,210.367 232.963,222.65 240.05,234.51C243.83,240.83 247.21,246.573 250.19,251.74C266.85,280.587 283.97,310.403 301.55,341.19C302.68,343.18 303.78,345.91 305.01,347.74C307.219,351.03 309.346,354.37 311.392,357.759C310.754,358.042 310.112,358.323 309.466,358.6ZM304.422,360.676C302.694,357.399 301.068,354.047 299.17,350.85C282.29,322.443 265.877,294.107 249.93,265.84C245.38,257.78 238.51,246.84 233,237.13C225.06,223.157 217.277,209.453 209.65,196.02C204.81,187.48 198.46,177.63 193.7,168.28C192.48,165.88 191.257,163.453 190.03,161C189.997,160.92 190.017,160.86 190.09,160.82L190.1,160.81C190.2,160.757 190.28,160.78 190.34,160.88C192.65,164.77 195.66,168.37 197.77,172.1C204.017,183.113 210.28,194.073 216.56,204.98C218.013,207.5 219.527,210.103 221.1,212.79C246.047,255.317 270.73,298.003 295.15,340.85C297.56,345.08 299.61,349.31 302.31,353.49C303.635,355.537 304.978,357.677 306.339,359.909C305.704,360.167 305.065,360.423 304.422,360.676ZM299.316,362.594C298.076,360.149 296.927,357.573 295.8,355.69C280.907,330.763 268.047,308.623 257.22,289.27C250.04,276.45 243.507,265.207 237.62,255.54C234.027,249.64 230.637,243.893 227.45,238.3C213.997,214.7 200.53,191.213 187.05,167.84C183.577,161.827 180.32,155.72 177.28,149.52C177.233,149.413 177.26,149.333 177.36,149.28L177.37,149.28C177.483,149.213 177.573,149.237 177.64,149.35C181.61,155.92 185.94,162.41 189.71,168.97C202.65,191.49 215.87,214.227 229.37,237.18C235.06,246.85 241.1,258.66 246.03,266.95C263.017,295.49 279.573,324.173 295.7,353C297.318,355.889 299.395,358.961 301.169,361.919C300.554,362.147 299.937,362.372 299.316,362.594ZM294.205,364.339C292.863,361.641 291.571,358.933 290,356.35C281.533,342.483 273.333,328.46 265.4,314.28C260.61,305.73 254.77,296.62 250.68,289.05C244,276.657 236.943,264.383 229.51,252.23C222.97,241.52 217.04,230.84 210.77,220.16C207.85,215.173 205.027,210.22 202.3,205.3C195.607,193.22 188.537,180.947 181.09,168.48C178.74,164.53 177.17,160.3 175.08,156.25C175.033,156.15 175.063,156.097 175.17,156.09C175.243,156.083 175.287,156.107 175.3,156.16C175.307,156.193 175.32,156.227 175.34,156.26C177.28,159.25 179.58,162.13 181.3,165.16C187.913,176.787 194.593,188.327 201.34,199.78C212.38,218.55 223.49,237.41 233.94,256.57C238.807,265.49 243.877,274.267 249.15,282.9C254.93,292.36 259.88,301.54 265.44,310.93C274.147,325.637 282.447,340.227 290.34,354.7C290.947,355.82 291.57,356.86 292.21,357.82C293.481,359.727 294.753,361.699 296.025,363.737C295.421,363.94 294.815,364.141 294.205,364.339ZM288.988,365.945C288.054,364.086 287.194,362.205 286.1,360.4C278.78,348.353 271.62,336.203 264.62,323.95C261.54,318.56 258.86,312.98 255.62,307.85C250.273,299.377 244.81,290.11 239.23,280.05C226.7,257.44 213.01,235.51 200.48,212.92C193.293,199.967 185.963,187.17 178.49,174.53C175.23,169.03 172.39,162.85 169.19,157.07C169.143,156.99 169.16,156.927 169.24,156.88L169.25,156.88C169.31,156.847 169.357,156.86 169.39,156.92C172.41,162.52 176.52,167.53 179.52,172.93C185.173,183.083 192.66,195.97 201.98,211.59C209.04,223.423 217.367,237.95 226.96,255.17C236.72,272.69 247.52,289.76 256.94,307.27C258.353,309.897 259.753,312.35 261.14,314.63C268.867,327.297 276.513,340.577 284.08,354.47C286.013,358.017 288.179,361.685 290.577,365.474C290.05,365.633 289.52,365.79 288.988,365.945ZM283.764,367.385C283.291,366.402 282.795,365.431 282.23,364.5C274.17,351.22 265.967,337.293 257.62,322.72C256.073,320.013 254.76,317.423 253.68,314.95C252.06,311.24 249.46,308.37 247.47,305C241.997,295.753 236.25,285.827 230.23,275.22C223.67,263.673 215.227,249.067 204.9,231.4C201.007,224.74 195.97,215.787 189.79,204.54C179.05,185.02 166.64,166.46 156.82,146.42C156.053,144.853 156.14,144.807 157.08,146.28C165.207,159.073 173.003,172.22 180.47,185.72C188.67,200.53 198.07,215.47 205.85,229.11C215.383,245.817 223.907,260.587 231.42,273.42C237.34,283.527 243.157,293.65 248.87,303.79C251.01,307.58 252.58,311.76 255.2,315.4C256.747,317.553 258.233,319.863 259.66,322.33C265.12,331.81 270.567,341.3 276,350.8C278.91,355.9 281.41,361.38 284.66,366.2C284.841,366.468 285.021,366.737 285.2,367.006C284.723,367.134 284.244,367.261 283.764,367.385ZM278.412,368.693C278.166,368.228 277.907,367.77 277.63,367.32C270.123,355.12 262.293,341.797 254.14,327.35C251.473,322.617 249.43,318.76 248.01,315.78C247.223,314.14 246.343,312.627 245.37,311.24C239.96,303.5 235.43,295.16 230.67,287.01C230.65,286.97 229.333,284.533 226.72,279.7C225.373,277.213 223.963,274.747 222.49,272.3C217.81,264.52 209.617,250.38 197.91,229.88C192.85,221.01 188.26,211.77 183.22,202.89C183.18,202.817 183.167,202.743 183.18,202.67C183.187,202.63 183.207,202.603 183.24,202.59C183.273,202.577 183.3,202.587 183.32,202.62C197.82,225.46 209.17,245.73 221.53,267.33C224.55,272.617 227.92,278.367 231.64,284.58C235.353,290.773 239.047,297.157 242.72,303.73C244.007,306.043 245.167,308.39 246.2,310.77C247.82,314.5 250.47,317.43 252.52,320.91C259.427,332.663 266.343,344.673 273.27,356.94C274.783,359.613 276.237,362.35 277.63,365.15C278.219,366.323 278.907,367.383 279.624,368.411C279.221,368.506 278.817,368.6 278.412,368.693ZM272.877,369.872C271.453,367.416 269.904,365.051 268.42,362.58C257.84,345 249.69,330.703 243.97,319.69C242.09,316.077 240.14,312.73 238.12,309.65C233.26,302.23 228.75,294.24 224.33,286.7C222.2,283.08 221.07,279.29 218.6,275.65C215.88,271.65 213.13,267.243 210.35,262.43C205.503,254.037 200.693,245.59 195.92,237.09C191.83,229.8 188.15,222.35 183.98,215.18C183.92,215.08 183.94,215 184.04,214.94L184.05,214.94C184.15,214.88 184.23,214.9 184.29,215C188.57,222.06 193.31,229.25 197.22,235.94C203.693,246.993 210.22,258.327 216.8,269.94C218.08,272.2 219.263,274.483 220.35,276.79C221.62,279.49 223.67,281.66 225.19,284.21C229.277,291.043 233.317,298.22 237.31,305.74C240.543,311.827 243.843,317.59 247.21,323.03C255.403,336.257 263.42,350.107 271.26,364.58C272.133,366.187 273.087,367.868 274.124,369.621C273.71,369.706 273.294,369.79 272.877,369.872ZM214.01,277.72C215.057,278.673 215.687,279.317 215.9,279.65C221.693,288.763 226.55,297.143 230.47,304.79C233.05,309.83 235.517,314.217 237.87,317.95C239.603,320.69 241.223,323.35 242.73,325.93C251.489,340.892 260.446,355.447 268.453,370.694C268.024,370.769 267.595,370.842 267.164,370.914C259.959,359.372 253.124,347.657 246.66,335.77C243.23,329.46 239.35,323.11 236.04,316.63C234.82,314.243 233.357,311.723 231.65,309.07C226.323,300.817 220.92,291.65 215.44,281.57C214.647,280.117 214.17,278.833 214.01,277.72ZM214.01,277.72C213.343,276.647 212.603,275.613 211.79,274.62C209.42,271.71 207.88,268.24 205.58,265.43C204.06,263.57 203.68,261.38 202.49,259.38C197.597,251.147 193.22,243.32 189.36,235.9C185.52,228.5 181.05,221.84 177.33,214.49C177.297,214.437 177.307,214.393 177.36,214.36L177.37,214.35C177.443,214.303 177.51,214.32 177.57,214.4C181.48,219.85 184.45,226.01 188.01,231.71C196.51,245.33 204.47,258.873 211.89,272.34C212.33,273.147 213.037,274.94 214.01,277.72ZM261.346,371.798C260.799,370.937 260.214,370.001 259.59,368.99C252.983,358.257 246.603,347.113 240.45,335.56C239.03,332.893 237.553,330.317 236.02,327.83C231.9,321.17 229.44,314.9 225.62,309.12C219.987,300.613 215.113,292.447 211,284.62C208.853,280.52 206.573,276.577 204.16,272.79C201.353,268.403 198.94,264.39 196.92,260.75C191.1,250.25 185.72,239.74 179.46,229.61C176.147,224.237 173.063,218.6 170.21,212.7C170.19,212.653 170.203,212.617 170.25,212.59C170.337,212.537 170.407,212.55 170.46,212.63C176.73,222.1 182.46,233.39 187.76,241.94C191.667,248.227 195.417,254.437 199.01,260.57C199.73,261.79 200.533,262.95 201.42,264.05C202.86,265.85 203.09,268.02 204.24,269.98C206.26,273.42 207.84,277.06 210.04,280.32C212.627,284.16 215.063,288.18 217.35,292.38C219.67,296.66 222.23,300.5 224.28,304.74C225.53,307.32 226.69,310.03 228.17,312.33C230.943,316.63 233.483,320.823 235.79,324.91C237.123,327.263 238.363,329.373 239.51,331.24C246.583,342.693 254.02,355.473 261.82,369.58C262.178,370.229 262.513,370.903 262.841,371.587C262.345,371.659 261.846,371.73 261.346,371.798ZM255.473,372.516C248.234,360.972 241.477,349.153 235.2,337.06C232.76,332.36 229.62,328.58 227.53,323.98C226.23,321.133 224.707,318.617 222.96,316.43C221.23,314.28 221.16,311.54 219.57,309.24C215.87,303.88 212.407,298.147 209.18,292.04C206.46,286.9 203.73,282.153 200.99,277.8C195.83,269.58 191.207,261.587 187.12,253.82C184.16,248.193 180.83,242.4 177.13,236.44C173.043,229.847 169.117,222.727 165.35,215.08C165.317,215 165.337,214.94 165.41,214.9L165.42,214.89C165.48,214.857 165.53,214.87 165.57,214.93C170.397,222.383 174.717,229.633 178.53,236.68C181.777,242.687 185.137,248.437 188.61,253.93C193.057,260.977 197.213,268.143 201.08,275.43C207.26,287.08 214.85,298.24 220.67,310.32C221.61,312.27 223.34,313.48 224.3,315.58C225.627,318.473 227.47,321.617 229.83,325.01C231.8,327.83 233.51,332.2 235.65,335.58C244.303,349.23 251.442,361.483 257.068,372.338C256.538,372.399 256.007,372.459 255.473,372.516ZM249.462,373.077C247.07,369.212 244.8,365.29 242.46,361.51C237.37,353.28 233.43,344.77 228.82,336.53C227.13,333.51 224.98,331.06 223.49,327.82C221.983,324.567 220.38,321.787 218.68,319.48C217.393,317.74 216.407,315.993 215.72,314.24C214.693,311.593 213.203,308.88 211.25,306.1C209.87,304.133 208.563,302.02 207.33,299.76C205.11,295.69 202.32,292.2 200.44,287.62C199.593,285.58 198.597,283.643 197.45,281.81C195.277,278.343 193.07,274.81 190.83,271.21C189.237,268.643 187.227,265.02 184.8,260.34C182,254.927 178.717,249.393 174.95,243.74C173.077,240.927 169.56,234.6 164.4,224.76C161.4,219.03 157.56,213.44 154.14,208.07C153.62,207.25 153.263,206.143 153.07,204.75C153.017,204.35 153.123,204.303 153.39,204.61C156.38,208.05 157.71,212.11 159.99,215.96C166.04,226.17 172.39,235.9 178.01,246.65C180.683,251.75 183.603,256.693 186.77,261.48C190.73,267.47 194.3,274.53 197.68,281.14C199.37,284.44 201.54,287.01 203.35,290.08C206.837,295.993 210.333,302.307 213.84,309.02C214.967,311.18 216.11,312.913 217.27,314.22C219.53,316.77 220.05,319.96 221.92,322.66C224.187,325.913 226.093,329.12 227.64,332.28C231.02,339.16 235.52,345.49 239.5,351.93C243.491,358.366 247.342,365.773 251.243,372.929C250.652,372.981 250.058,373.03 249.462,373.077ZM243.508,373.465C241.067,369.531 238.544,365.399 235.94,361.07C232.5,355.343 229.483,349.73 226.89,344.23C225.843,342.01 224.737,339.943 223.57,338.03C220.93,333.72 218.27,329.61 216,325.17C214.787,322.81 213.397,320.583 211.83,318.49C210.28,316.43 210.12,314.25 208.78,312.13C205.813,307.43 202.823,302.603 199.81,297.65C197.11,293.22 194.92,288.37 192.53,283.67C192.17,282.957 192.207,282.937 192.64,283.61C195.44,287.95 198.57,292.21 201.02,296.76C203.813,301.94 206.603,307.1 209.39,312.24C210.58,314.42 212.5,315.9 213.46,318.18C215.97,324.15 219.84,329.22 223.13,335.69C224.377,338.13 225.91,340.713 227.73,343.44C232.343,350.327 235.647,355.617 237.64,359.31C240.112,363.889 242.655,368.574 245.27,373.367C244.685,373.402 244.097,373.435 243.508,373.465ZM219.86,341.48C222,344.35 224.11,347.15 225.98,350.29C230.625,358.089 235.054,365.873 239.266,373.643C238.637,373.663 238.006,373.681 237.374,373.696C232.695,366.044 228.134,358.322 223.69,350.53C222.043,347.643 220.767,344.627 219.86,341.48ZM202.97,312.56C204.757,314.613 206.307,316.823 207.62,319.19C209.96,323.417 211.153,325.567 211.2,325.64C214.32,330.787 217.207,336.067 219.86,341.48C218.887,340.467 217.867,339.06 216.8,337.26C212.58,330.14 209.4,324.46 205.93,318.78C204.737,316.82 203.75,314.747 202.97,312.56ZM202.97,312.56C200.483,308.667 198.087,304.75 195.78,300.81C192.513,295.237 189.247,289.36 185.98,283.18C185.7,282.653 185.723,282.637 186.05,283.13C192.083,292.257 197.677,301.783 202.83,311.71C202.917,311.883 202.963,312.167 202.97,312.56ZM231.271,373.763C226.082,365.205 221.162,356.814 216.51,348.59C215.757,347.263 215.22,345.79 214.9,344.17C214.827,343.803 214.92,343.757 215.18,344.03C216.633,345.543 217.807,347.053 218.7,348.56C223.431,356.542 228.22,364.942 233.068,373.76C232.467,373.763 231.868,373.764 231.271,373.763ZM225.004,373.666C218.449,362.515 213.521,354.052 210.22,348.28C209.707,347.38 209.383,346.34 209.25,345.16C209.197,344.693 209.317,344.643 209.61,345.01C211.617,347.53 213.82,350.903 216.22,355.13C219.76,361.36 223.248,367.553 226.683,373.709C226.122,373.697 225.562,373.682 225.004,373.666ZM218.662,373.392C213.858,365.241 209.101,357.04 204.39,348.79C203.85,347.837 203.457,346.727 203.21,345.46C203.137,345.087 203.22,345.047 203.46,345.34C205.007,347.2 206.423,349.25 207.71,351.49C212.251,359.394 216.429,366.723 220.245,373.478C219.716,373.451 219.188,373.423 218.662,373.392ZM212.117,372.917C207.555,365.1 203.019,357.055 198.51,348.78C197.843,347.547 197.177,346.34 196.51,345.16C191.75,336.727 186.95,328.31 182.11,319.91C182.05,319.81 182.073,319.727 182.18,319.66L182.19,319.66C182.317,319.587 182.417,319.61 182.49,319.73C187.65,328.557 192.68,337.18 197.58,345.6C198.227,346.72 198.95,347.913 199.75,349.18C203.45,355.1 206.913,360.913 210.14,366.62C211.347,368.759 212.557,370.904 213.77,373.056C213.217,373.011 212.666,372.965 212.117,372.917ZM62.682,262.226C66.996,269.848 71.196,277.406 75.28,284.9C78.873,291.493 82.197,297.267 85.25,302.22C86.081,303.57 86.92,304.918 87.764,306.265C86.395,304.493 85.089,302.735 83.844,300.998C78.715,291.595 72.942,282.291 67.353,273.102C65.032,268.217 63.52,264.429 62.682,262.226ZM54.525,247.975C56.867,252.022 59.177,256.052 61.456,260.063C61.062,260.057 60.413,260.048 59.574,260.04C57.902,257.146 56.218,254.229 54.522,251.289L54.525,247.975ZM54.516,259.211C54.67,259.48 54.825,259.749 54.979,260.018C54.826,260.018 54.671,260.018 54.515,260.018L54.516,259.211ZM148.05,195.72C145.997,192.873 144.15,189.827 142.51,186.58C142.163,185.893 142.23,185.853 142.71,186.46C144.837,189.16 146.617,192.247 148.05,195.72ZM148.05,195.72C149.303,197.233 150.277,198.837 150.97,200.53C151.203,201.09 151.13,201.133 150.75,200.66C149.63,199.247 148.73,197.6 148.05,195.72ZM153.96,195.28C152.653,193.32 151.69,191.8 151.07,190.72C149.35,187.727 149.517,187.62 151.57,190.4C152.163,191.2 152.96,192.827 153.96,195.28ZM153.96,195.28C155.387,196.96 156.543,198.843 157.43,200.93C157.55,201.217 157.51,201.24 157.31,201C155.91,199.293 154.793,197.387 153.96,195.28ZM157.03,222C154.13,218.44 151.607,214.617 149.46,210.53C148.94,209.53 148.553,208.473 148.3,207.36C148.207,206.933 148.327,206.863 148.66,207.15C149.567,207.93 150.3,208.763 150.86,209.65C153.353,213.563 155.41,217.68 157.03,222ZM157.03,222C165.023,233.993 172.153,246.24 178.42,258.74C178.92,259.733 178.833,259.79 178.16,258.91C176.653,256.937 175.103,254.643 173.51,252.03C168.817,244.323 163.443,234.677 157.39,223.09C157.197,222.737 157.077,222.373 157.03,222ZM219.01,37.96C218.443,37.313 217.757,36.847 216.95,36.56C216.61,36.44 216.393,36.203 216.3,35.85L215.14,31.46C214.973,30.827 215.08,30.777 215.46,31.31C215.92,31.963 216.457,32.523 217.07,32.99C218.48,34.04 218.71,36.27 219.01,37.96ZM219.01,37.96C220.363,39.18 221.287,40.667 221.78,42.42C221.873,42.773 221.79,42.823 221.53,42.57C220.303,41.403 219.463,39.867 219.01,37.96ZM180.93,198.77C175.43,189.79 169.937,180.793 164.45,171.78C160.63,165.493 157.153,159.03 154.02,152.39C153.98,152.297 154.007,152.223 154.1,152.17L154.1,152.16C154.193,152.107 154.27,152.123 154.33,152.21C158.183,157.783 161.757,163.54 165.05,169.48C170.357,179.06 175.627,188.663 180.86,198.29C180.947,198.443 180.97,198.603 180.93,198.77ZM180.93,198.77C181.717,199.43 182.277,200.263 182.61,201.27C182.737,201.643 182.67,201.68 182.41,201.38C181.783,200.64 181.29,199.77 180.93,198.77ZM222.27,33.31C220.61,31.43 219.52,29.42 218.84,27.14C218.68,26.613 218.78,26.557 219.14,26.97C220.793,28.91 221.933,30.97 222.56,33.15C222.7,33.63 222.603,33.683 222.27,33.31ZM195.842,29.598C196.396,30.629 196.721,31.533 196.565,31.617C196.41,31.7 195.833,30.932 195.278,29.902C194.724,28.871 194.399,27.967 194.555,27.883C194.71,27.8 195.287,28.568 195.842,29.598ZM236.28,34.97C236.38,35.09 236.45,35.227 236.49,35.38C236.59,35.747 236.503,35.797 236.23,35.53C234.21,33.57 232.9,31.3 232.3,28.72C232.173,28.16 232.29,28.103 232.65,28.55C234.143,30.423 235.237,32.35 235.93,34.33C236.017,34.563 236.133,34.777 236.28,34.97ZM217.1,46.11C216.347,44.443 215.537,43.113 214.67,42.12C213.71,41.02 212.983,39.913 212.49,38.8C211.217,35.933 209.643,33.02 207.77,30.06C207.75,30.027 207.757,29.997 207.79,29.97L208.05,29.81C208.183,29.723 208.29,29.747 208.37,29.88C209.96,32.31 211.64,36.3 214.15,37.84C214.461,38.027 214.655,38.364 214.66,38.73C214.7,40.843 215.49,42.687 217.03,44.26C217.243,44.48 217.413,44.733 217.54,45.02C217.68,45.327 217.71,45.67 217.63,46.05C217.517,46.617 217.34,46.637 217.1,46.11ZM192.19,35.23C191.09,34.27 189.67,32.99 190.1,31.42C190.145,31.237 190.31,31.108 190.498,31.108C190.613,31.108 190.722,31.156 190.8,31.24C191.667,32.18 192.237,33.447 192.51,35.04C192.577,35.4 192.47,35.463 192.19,35.23ZM263.709,38.179C265.782,41.933 267.146,45.156 266.755,45.372C266.364,45.588 264.363,42.716 262.291,38.961C260.218,35.207 258.854,31.984 259.245,31.768C259.636,31.552 261.637,34.424 263.709,38.179ZM212.7,48.45C212.74,48.55 212.71,48.623 212.61,48.67L212.61,48.68C212.483,48.733 212.39,48.7 212.33,48.58C211.43,46.667 210.307,44.97 208.96,43.49C206.25,40.51 204.81,36.56 203.42,33C202.987,31.9 203.13,31.82 203.85,32.76C207.397,37.38 210.347,42.61 212.7,48.45ZM187.703,36.361C188.509,37.883 188.902,39.257 188.58,39.427C188.258,39.598 187.342,38.501 186.537,36.979C185.731,35.457 185.338,34.083 185.66,33.913C185.982,33.742 186.898,34.839 187.703,36.361ZM229.71,34.269L233.708,41.222C233.787,41.36 233.74,41.538 233.601,41.618L233.566,41.638C233.427,41.717 233.25,41.67 233.17,41.531L229.172,34.578C229.093,34.44 229.14,34.262 229.279,34.182L229.314,34.162C229.453,34.083 229.63,34.13 229.71,34.269ZM205.31,44.97C206.46,48.21 208.2,50.99 209.76,53.87C209.807,53.957 209.79,54.027 209.71,54.08L209.7,54.08C209.62,54.133 209.55,54.123 209.49,54.05C207.7,51.67 206.56,48.92 204.67,46.77C203.43,45.36 202.2,44.27 201.45,42.54C200.677,40.787 199.977,39 199.35,37.18C198.917,35.913 199.163,35.76 200.09,36.72C202.503,39.213 204.243,41.963 205.31,44.97ZM184.8,43C184.84,43.26 184.92,43.43 185.03,43.67C185.123,43.863 185.077,43.9 184.89,43.78C182.597,42.267 181.327,40.11 181.08,37.31C181.06,37.057 181.15,37.007 181.35,37.16C183.303,38.64 184.453,40.587 184.8,43ZM225.817,38.231L231.791,48.661C231.881,48.819 231.826,49.021 231.668,49.112L231.633,49.132C231.475,49.222 231.274,49.167 231.183,49.009L225.209,38.579C225.119,38.421 225.174,38.219 225.332,38.128L225.367,38.108C225.525,38.018 225.726,38.073 225.817,38.231ZM201.93,51.11C202.223,51.903 202.087,51.983 201.52,51.35C198.21,47.65 195.75,44.21 194.66,39.13C194.573,38.723 194.67,38.673 194.95,38.98C196.95,41.17 199.3,43.42 200.2,46.19C200.76,47.903 201.337,49.543 201.93,51.11ZM194.8,48.2C196.09,49.96 196.93,52.35 197.66,54.47C197.907,55.17 197.793,55.237 197.32,54.67C196,53.1 194.65,52.03 193.77,50.04C192.697,47.6 191.547,45.197 190.32,42.83C190.213,42.617 190.263,42.453 190.47,42.34L190.7,42.21C190.733,42.19 190.763,42.197 190.79,42.23C192.043,44.277 193.38,46.267 194.8,48.2ZM241.802,44.3C242.421,45.446 242.767,46.461 242.572,46.566C242.378,46.671 241.718,45.826 241.098,44.68C240.479,43.534 240.133,42.519 240.328,42.414C240.522,42.309 241.182,43.154 241.802,44.3ZM277.81,43.33C277.796,43.307 277.789,43.28 277.789,43.253C277.789,43.197 277.82,43.146 277.87,43.12L277.98,43.07C277.981,43.07 277.981,43.069 277.982,43.069C278.411,42.837 279.593,44.178 280.6,46.04L280.7,46.23C281.704,48.086 282.182,49.807 281.76,50.05L281.65,50.11C281.579,50.147 281.489,50.12 281.45,50.05L277.81,43.33ZM194.51,60.08C194.717,60.667 194.62,60.72 194.22,60.24C190.42,55.707 187.457,50.457 185.33,44.49C185.25,44.257 185.29,44.233 185.45,44.42C189.403,48.967 192.423,54.187 194.51,60.08ZM226.596,49.422C228.096,52.162 228.98,54.569 228.568,54.795C228.157,55.02 226.605,52.978 225.104,50.238C223.604,47.498 222.72,45.091 223.132,44.865C223.543,44.64 225.095,46.682 226.596,49.422ZM174.89,58.16C175.003,58.387 175.09,58.623 175.15,58.87C175.25,59.283 175.16,59.33 174.88,59.01C174.06,58.07 173.243,57.12 172.43,56.16C170.72,54.13 170.49,51.83 169.44,49.49C169.107,48.75 169.19,48.7 169.69,49.34C170.637,50.54 171.623,51.707 172.65,52.84C174.08,54.4 173.99,56.33 174.89,58.16ZM270.68,52.2C270.58,52.06 270.503,51.917 270.45,51.77C270.177,51.043 270.277,50.99 270.75,51.61C271.683,52.83 272.393,54.143 272.88,55.55C273.113,56.203 273.007,56.263 272.56,55.73C271.907,54.923 271.407,53.983 271.06,52.91C270.973,52.65 270.847,52.413 270.68,52.2ZM159.924,53.614C160.603,54.828 161.013,55.893 160.839,55.99C160.666,56.087 159.974,55.18 159.296,53.966C158.617,52.752 158.207,51.687 158.381,51.59C158.554,51.493 159.246,52.4 159.924,53.614ZM223.34,54.938C224.415,56.822 225.05,58.487 224.757,58.654C224.465,58.821 223.355,57.426 222.28,55.542C221.205,53.658 220.57,51.993 220.863,51.826C221.155,51.659 222.265,53.054 223.34,54.938ZM309.132,53.123C309.601,53.968 309.895,54.702 309.788,54.761C309.682,54.819 309.216,54.181 308.748,53.337C308.279,52.492 307.985,51.758 308.092,51.699C308.198,51.641 308.664,52.279 309.132,53.123ZM168.738,57.46C170.078,59.828 170.92,61.89 170.618,62.061C170.315,62.232 168.982,60.448 167.642,58.08C166.302,55.712 165.46,53.65 165.762,53.479C166.065,53.308 167.398,55.092 168.738,57.46ZM218.188,57.331C218.783,58.37 219.142,59.285 218.988,59.373C218.835,59.461 218.228,58.688 217.632,57.649C217.037,56.61 216.678,55.695 216.832,55.607C216.985,55.519 217.592,56.292 218.188,57.331ZM156.079,58.063C156.525,58.857 156.793,59.554 156.677,59.619C156.562,59.684 156.106,59.092 155.661,58.297C155.215,57.503 154.947,56.806 155.063,56.741C155.178,56.676 155.634,57.268 156.079,58.063ZM164.908,62.208C165.699,63.562 166.194,64.746 166.013,64.852C165.832,64.958 165.043,63.945 164.252,62.592C163.461,61.238 162.966,60.054 163.147,59.948C163.328,59.842 164.117,60.855 164.908,62.208ZM152.133,62.09C152.593,62.889 152.888,63.583 152.792,63.638C152.697,63.693 152.246,63.089 151.787,62.29C151.327,61.491 151.032,60.797 151.128,60.742C151.223,60.687 151.674,61.291 152.133,62.09ZM122.16,62.62C123.87,65.71 125.33,68.75 126.65,71.99C126.89,72.577 126.803,72.63 126.39,72.15C123.79,69.11 121.25,65.58 120.24,61.76C120.113,61.273 120.28,61.13 120.74,61.33C121.353,61.59 121.827,62.02 122.16,62.62ZM185.32,65.67C185.44,65.77 185.527,65.897 185.58,66.05C185.787,66.61 185.717,66.65 185.37,66.17C184.843,65.443 184.423,64.737 184.11,64.05C183.863,63.497 183.94,63.443 184.34,63.89C184.807,64.41 185.133,65.003 185.32,65.67ZM161.7,67.723C162.332,68.855 162.752,69.827 162.636,69.891C162.521,69.956 161.913,69.089 161.28,67.957C160.648,66.825 160.228,65.853 160.344,65.789C160.459,65.724 161.067,66.591 161.7,67.723ZM117.949,67.091L125.018,79.636C125.113,79.804 125.053,80.018 124.885,80.113L124.868,80.123C124.699,80.217 124.486,80.158 124.391,79.989L117.322,67.444C117.227,67.276 117.287,67.062 117.455,66.967L117.472,66.957C117.641,66.863 117.854,66.922 117.949,67.091ZM120.45,83.44C119.12,81.76 118.53,79.73 117.28,77.89C117.22,77.797 117.213,77.697 117.26,77.59C117.267,77.57 117.277,77.547 117.29,77.52C117.317,77.473 117.347,77.473 117.38,77.52C118.667,79.413 119.777,81.333 120.71,83.28C121.11,84.113 121.023,84.167 120.45,83.44ZM93.302,100.222L103.271,117.63C103.356,117.778 103.305,117.968 103.156,118.053L103.121,118.073C102.973,118.158 102.783,118.106 102.698,117.958L92.729,100.55C92.644,100.402 92.695,100.212 92.844,100.127L92.879,100.107C93.027,100.022 93.217,100.074 93.302,100.222ZM87.927,101.516L103.958,129.395C104.074,129.596 104.005,129.853 103.804,129.969L103.786,129.979C103.585,130.094 103.328,130.025 103.213,129.824L87.182,101.945C87.066,101.744 87.135,101.487 87.336,101.371L87.354,101.361C87.555,101.246 87.812,101.315 87.927,101.516ZM102.243,104.994C103.268,106.912 103.977,108.535 103.826,108.616C103.675,108.696 102.721,107.204 101.697,105.286C100.672,103.368 99.963,101.745 100.114,101.664C100.265,101.584 101.219,103.076 102.243,104.994ZM231.357,102.16L237.499,112.84C237.565,112.955 237.525,113.102 237.41,113.168C237.295,113.234 237.149,113.195 237.083,113.08L230.941,102.4C230.875,102.285 230.915,102.138 231.03,102.072C231.145,102.006 231.291,102.045 231.357,102.16ZM227.32,106.47C227.28,106.39 227.3,106.327 227.38,106.28L227.38,106.27C227.447,106.23 227.5,106.243 227.54,106.31C229.8,109.89 232.49,112.59 234.27,116.59C235.637,119.663 237.22,122.917 239.02,126.35C239.06,126.43 239.04,126.497 238.96,126.55C238.853,126.61 238.77,126.59 238.71,126.49C236.1,122.42 232.52,118.87 230.86,114.24C229.953,111.727 228.773,109.137 227.32,106.47ZM347.53,120.43C346.583,119.063 345.733,117.583 344.98,115.99C344.97,115.971 344.965,115.951 344.965,115.93C344.965,115.859 345.024,115.8 345.095,115.8L345.1,115.8C345.2,115.807 345.277,115.853 345.33,115.94C346.123,117.32 346.91,118.767 347.69,120.28C347.723,120.353 347.707,120.407 347.64,120.44L347.63,120.45C347.59,120.47 347.557,120.463 347.53,120.43ZM226.85,116.25C226.849,116.246 226.849,116.243 226.849,116.239C226.849,116.212 226.871,116.189 226.899,116.189C226.91,116.189 226.921,116.193 226.93,116.2C228.6,117.94 230.17,119.71 231.36,121.84C234.86,128.11 237.88,134.44 241.65,140.32C245.87,146.91 249.62,153.48 253.55,160.23C254.54,161.91 255.24,163.7 255.79,165.56C256.5,167.99 258.55,169.01 259.71,171.13C261.603,174.583 263.313,177.92 264.84,181.14C267.3,186.36 271.03,191.44 273.63,196.81C274.083,197.75 273.993,197.803 273.36,196.97C269.49,191.88 267.09,185.81 263.7,180.97C261.07,177.19 257.88,172.92 256.47,168.43C255.58,165.61 252.9,164 251.43,161.38C245.517,150.8 239.693,140.677 233.96,131.01C231.19,126.33 229.01,121.3 226.85,116.25ZM371.146,117.468C371.618,118.323 371.927,119.059 371.835,119.11C371.744,119.16 371.286,118.507 370.814,117.652C370.342,116.797 370.033,116.061 370.125,116.01C370.216,115.96 370.674,116.613 371.146,117.468ZM380.31,122.72C380.543,122.927 380.673,123.197 380.7,123.53C380.727,123.823 380.657,123.847 380.49,123.6C379.657,122.367 379.01,121.19 378.55,120.07C378.35,119.583 378.423,119.54 378.77,119.94C379.45,120.727 379.963,121.653 380.31,122.72ZM255.16,122.62C255.093,122.5 255.117,122.407 255.23,122.34L255.49,122.18C255.523,122.16 255.553,122.167 255.58,122.2C257.06,124.507 258.49,126.87 259.87,129.29C263.64,135.91 267.78,142.05 271.11,147.78C275.24,154.9 279.35,161.67 282.94,168.92C284.76,172.59 287.23,175.87 289.25,179.41C296.56,192.19 304.42,205.06 311.53,217.6C320.95,234.253 330.743,251.507 340.91,269.36C342.33,271.87 343.51,274.58 344.82,277.16C344.873,277.267 344.85,277.35 344.75,277.41L344.74,277.41C344.647,277.463 344.567,277.447 344.5,277.36C343.493,275.967 342.643,274.687 341.95,273.52C330.75,254.653 318.987,234.683 306.66,213.61C299.85,201.97 293.89,190.45 286.93,178.99C285.47,176.577 284.117,174.033 282.87,171.36C281.27,167.93 278.69,164.87 276.74,161.52C274.567,157.773 272.403,154.04 270.25,150.32C265.3,141.75 260.36,131.78 255.16,122.62ZM294.29,125.03C294.99,125.64 295.11,126.5 295.72,127.38C295.78,127.467 295.79,127.547 295.75,127.62C295.743,127.64 295.737,127.66 295.73,127.68C295.683,127.76 295.64,127.76 295.6,127.68C295.147,126.92 294.653,126.087 294.12,125.18C293.867,124.767 293.923,124.717 294.29,125.03ZM333.39,128C333.503,128.093 333.58,128.203 333.62,128.33C333.8,128.863 333.74,128.893 333.44,128.42C332.993,127.707 332.57,126.97 332.17,126.21C331.997,125.883 332.047,125.843 332.32,126.09C332.72,126.45 332.977,126.92 333.09,127.5C333.129,127.7 333.235,127.877 333.39,128ZM228.09,129.57C227.937,129.21 227.767,128.853 227.58,128.5C227.227,127.833 227.3,127.78 227.8,128.34C230.16,130.953 232.31,133.997 234.25,137.47C238.903,145.823 243.587,153.893 248.3,161.68C249.327,163.38 250.107,165.49 250.64,168.01C250.713,168.343 250.63,168.39 250.39,168.15C248.337,166.07 246.647,163.853 245.32,161.5C239.38,150.99 232.87,140.89 228.09,129.57ZM316.3,130.7C316.52,130.853 316.647,131.023 316.68,131.21C316.813,131.917 316.7,131.933 316.34,131.26C315.987,130.613 315.623,129.987 315.25,129.38C315.03,129.027 315.083,128.98 315.41,129.24C315.863,129.607 316.16,130.093 316.3,130.7ZM318.34,134.02C318.62,134.327 318.81,134.687 318.91,135.1C319.043,135.62 318.96,135.657 318.66,135.21C318.04,134.29 317.53,133.333 317.13,132.34C316.977,131.98 317.033,131.947 317.3,132.24C317.8,132.78 317.84,133.47 318.34,134.02ZM337.074,134.142C337.508,134.911 337.782,135.58 337.685,135.634C337.589,135.688 337.159,135.108 336.726,134.338C336.292,133.569 336.018,132.9 336.115,132.846C336.211,132.792 336.641,133.372 337.074,134.142ZM255.96,134.36C255.64,133.553 255.73,133.503 256.23,134.21C258.09,136.783 259.63,139.097 260.85,141.15C264.803,147.803 268.43,154.007 271.73,159.76C272.997,161.967 274.227,164.327 275.42,166.84C276.7,169.54 278.71,171.59 280.09,174.13C284.737,182.757 289.457,190.98 294.25,198.8C297.643,204.333 301.007,210.01 304.34,215.83C317.033,238.023 328.87,258.917 339.85,278.51C340.997,280.563 342.317,283.11 343.81,286.15C343.87,286.263 343.843,286.35 343.73,286.41L343.73,286.42C343.623,286.48 343.533,286.46 343.46,286.36C342.733,285.36 342.053,284.347 341.42,283.32C337.213,276.54 332.97,269.45 328.69,262.05C319.517,246.197 310.47,230.72 301.55,215.62C299.223,211.68 295.98,205.863 291.82,198.17C287.4,190.01 282.673,181.937 277.64,173.95C276.21,171.69 275.69,168.95 274.2,166.79C272.13,163.8 270.06,160.86 268.39,157.64C265.597,152.227 262.573,146.823 259.32,141.43C258.01,139.26 256.9,136.73 255.96,134.36ZM345.53,268.2C342.343,263.413 339.287,258.54 336.36,253.58C320.313,226.393 306.433,202.41 294.72,181.63C291.613,176.11 288.263,170.347 284.67,164.34C278.85,154.58 273.31,144.463 268.05,133.99C268.023,133.937 268.027,133.887 268.06,133.84C268.107,133.787 268.15,133.79 268.19,133.85C274.05,143.12 279.91,152.25 285.39,161.83C294.87,178.41 304.72,194.95 314.28,211.62C323.387,227.493 332.227,243.17 340.8,258.65C342.36,261.47 344.02,264.603 345.78,268.05C345.827,268.13 345.81,268.193 345.73,268.24L345.72,268.25C345.64,268.297 345.577,268.28 345.53,268.2ZM341.44,304.05C341.647,304.51 341.603,304.537 341.31,304.13C338.637,300.383 336.07,296.38 333.61,292.12C318.43,265.833 303.127,239.617 287.7,213.47C285.96,210.53 284.65,207.35 283.43,204.2C282.21,201.03 279.86,198.73 278.32,195.76C274.393,188.147 269.997,180.873 265.13,173.94C263.93,172.227 263.087,170.553 262.6,168.92C262.08,167.173 261.34,165.65 260.38,164.35C258.99,162.45 257.49,160.75 256.31,158.74C251.757,150.973 247.407,142.797 243.26,134.21C243.227,134.143 243.25,134.103 243.33,134.09C243.35,134.083 243.367,134.08 243.38,134.08C243.413,134.073 243.44,134.083 243.46,134.11C248.54,142.083 253.55,150.1 258.49,158.16C260.33,161.16 260.71,164.67 263.16,167.24C264.14,168.28 264.963,169.397 265.63,170.59C269.45,177.49 272.73,184.71 276.99,191.46C278.79,194.313 280.457,197.227 281.99,200.2C284.13,204.36 287.37,207.72 289.7,211.83C304.173,237.423 318.597,262.67 332.97,287.57C336.29,293.33 339.113,298.823 341.44,304.05ZM229.01,142.42C228.183,140.627 227.263,138.853 226.25,137.1C226.203,137.013 226.22,136.94 226.3,136.88L226.31,136.88C226.383,136.833 226.443,136.843 226.49,136.91C231.84,143.96 236.79,152.55 242.12,161.88C243.693,164.647 244.847,167.357 245.58,170.01C245.68,170.363 245.6,170.41 245.34,170.15C243.873,168.643 242.6,167.05 241.52,165.37C236.853,158.063 232.683,150.413 229.01,142.42ZM255.25,143.73C257.32,147.06 259.15,150.53 261.49,153.66C263.85,156.833 265.683,159.967 266.99,163.06C268.84,167.43 272.03,170.56 274.16,174.62C279.773,185.327 284.083,193.03 287.09,197.73C291.19,204.123 294.383,209.33 296.67,213.35C309.41,235.743 321.327,256.58 332.42,275.86C336.3,282.6 339.783,289.07 342.87,295.27C342.93,295.397 342.9,295.497 342.78,295.57L342.77,295.57C342.65,295.643 342.55,295.62 342.47,295.5C340.77,292.9 338.89,290.28 337.36,287.65C323.52,263.837 309.62,240.053 295.66,216.3C291.4,209.07 287.75,201.31 283.69,194.21C279.543,186.97 275.52,180.287 271.62,174.16C270.327,172.113 269.083,169.677 267.89,166.85C266.36,163.24 263.44,160.69 261.87,157.14C259.843,152.553 257.54,148.103 254.96,143.79C254.927,143.743 254.937,143.703 254.99,143.67C255.097,143.597 255.183,143.617 255.25,143.73ZM287.6,146.57C287.313,146.077 287.14,145.74 287.08,145.56C286.727,144.507 286.853,144.443 287.46,145.37C290.947,150.743 294.257,156.05 297.39,161.29C307.943,178.943 319.067,198.183 330.76,219.01C334.62,225.883 338.207,232.623 341.52,239.23C342.133,240.45 342.067,240.49 341.32,239.35C338.207,234.61 335.08,229.6 331.94,224.32C318.193,201.18 304.74,177.877 291.58,154.41C290.28,152.1 289.06,149.09 287.6,146.57ZM297.98,153.75C296.52,150.81 294.84,148.01 293.37,145.09C293.33,145.017 293.347,144.96 293.42,144.92L293.43,144.92C293.503,144.88 293.56,144.897 293.6,144.97C297.7,152.45 303.24,160.39 306.88,166.59C317.94,185.417 328.64,204.48 338.98,223.78C339.053,223.92 339.02,224.03 338.88,224.11L338.87,224.12C338.73,224.2 338.617,224.17 338.53,224.03C329.13,208.763 319.697,192.913 310.23,176.48C305.537,168.34 301.453,160.763 297.98,153.75ZM280.82,145.66C280.8,145.62 280.81,145.59 280.85,145.57L281.07,145.45C281.13,145.417 281.18,145.427 281.22,145.48C283.44,148.65 285.64,151.68 287.6,155.02C306.84,187.693 322.4,214.76 334.28,236.22C339.34,245.36 343.16,252.12 345.74,256.5C346.38,257.58 346.7,258.64 347.22,259.74C347.78,260.92 347.67,260.987 346.89,259.94C344.78,257.14 343.16,253.89 341.32,250.82C319.42,214.227 300.327,181.277 284.04,151.97C282.973,150.057 281.9,147.953 280.82,145.66ZM225.63,146.39C230.63,152.77 234.59,159.67 238.56,167.01C239.433,168.623 240.1,170.337 240.56,172.15C240.68,172.63 240.577,172.687 240.25,172.32C238.503,170.367 236.943,168.23 235.57,165.91C231.783,159.51 228.393,153.053 225.4,146.54C225.073,145.833 225.15,145.783 225.63,146.39ZM330.61,199.49C325.53,191.083 320.47,182.723 315.43,174.41C311.57,168.05 306.74,159.293 300.94,148.14C300.873,148.007 300.903,147.903 301.03,147.83L301.04,147.82C301.167,147.747 301.27,147.77 301.35,147.89C307.043,156.463 311.55,163.77 314.87,169.81C321.623,182.117 328.177,194.017 334.53,205.51C334.563,205.57 334.55,205.617 334.49,205.65L334.48,205.66C334.4,205.707 334.337,205.693 334.29,205.62C333.21,203.8 331.983,201.757 330.61,199.49ZM168.84,156.23C168.873,156.303 168.853,156.36 168.78,156.4L168.77,156.4C168.703,156.433 168.653,156.413 168.62,156.34C167.987,155 167.303,153.693 166.57,152.42C166.117,151.64 166.157,151.617 166.69,152.35C167.497,153.47 168.213,154.763 168.84,156.23ZM311.367,154.075L323.57,175.296C323.671,175.473 323.61,175.7 323.433,175.802L323.399,175.822C323.222,175.923 322.995,175.862 322.893,175.685L310.69,154.464C310.589,154.287 310.65,154.06 310.827,153.958L310.861,153.938C311.038,153.837 311.265,153.898 311.367,154.075ZM140.22,180.93C140.238,180.957 140.247,180.989 140.247,181.022C140.247,181.083 140.214,181.14 140.16,181.17L140.11,181.19C139.434,181.576 135.385,175.771 131.14,168.33L130.99,168.07C130.989,168.069 130.988,168.067 130.988,168.066C126.742,160.623 123.805,154.18 124.482,153.794C124.485,153.793 124.487,153.791 124.49,153.79L124.53,153.77C124.61,153.724 124.713,153.751 124.76,153.83L140.22,180.93ZM138.367,167.178C142.143,173.64 145.031,178.99 144.811,179.118C144.592,179.246 141.349,174.104 137.573,167.642C133.797,161.18 130.909,155.83 131.129,155.702C131.348,155.574 134.591,160.716 138.367,167.178ZM234.3,170.71C234.873,171.923 235.317,173.14 235.63,174.36C235.783,174.96 235.663,175.02 235.27,174.54C230.61,168.86 227.067,162.683 224.64,156.01C224.42,155.417 224.51,155.363 224.91,155.85C228.623,160.357 231.753,165.31 234.3,170.71ZM150.07,156.23C150.01,156.057 150.067,155.99 150.24,156.03C150.347,156.057 150.47,156.177 150.61,156.39C157.003,166.05 162.647,175.89 167.54,185.91C168.147,187.157 168.06,187.21 167.28,186.07C161.6,177.75 156.327,168.897 151.46,159.51C150.96,158.55 150.497,157.457 150.07,156.23ZM138.586,157.02L150.974,178.389C151.073,178.561 151.015,178.781 150.843,178.881L150.826,178.891C150.654,178.991 150.433,178.932 150.334,178.76L137.946,157.391C137.847,157.219 137.905,156.999 138.077,156.899L138.094,156.889C138.266,156.789 138.487,156.848 138.586,157.02ZM219.23,157.59C218.87,156.73 218.98,156.667 219.56,157.4C224.633,163.747 228.763,170.973 231.95,179.08C231.997,179.193 231.98,179.2 231.9,179.1C226.887,172.847 222.663,165.677 219.23,157.59ZM159.35,181.71C159.364,181.734 159.372,181.762 159.372,181.79C159.372,181.848 159.34,181.902 159.29,181.93L159.26,181.95C159.259,181.951 159.257,181.952 159.256,181.952C158.685,182.28 155.135,177.193 151.392,170.683C151.391,170.682 151.391,170.681 151.39,170.68L151.229,170.399C147.486,163.888 144.875,158.261 145.445,157.933C145.447,157.932 145.448,157.931 145.45,157.93L145.48,157.91C145.504,157.896 145.532,157.888 145.56,157.888C145.618,157.888 145.672,157.92 145.7,157.97L159.35,181.71ZM122.17,162.08C122.11,161.967 122.133,161.88 122.24,161.82L122.25,161.81C122.29,161.783 122.327,161.79 122.36,161.83C126.96,168.15 131.29,175.01 134.62,182.23C136.59,186.49 139.98,190.77 141.77,195.41C141.81,195.51 141.783,195.583 141.69,195.63L141.68,195.63C141.587,195.683 141.51,195.663 141.45,195.57C139.397,192.33 137.437,189.03 135.57,185.67C134.28,183.36 132.04,181.09 131.06,179.21C128.093,173.49 125.13,167.78 122.17,162.08ZM379.87,176.83C379.35,175.45 378.53,174 377.57,172.85C375.33,170.157 373.537,167.027 372.19,163.46C371.857,162.573 372,162.487 372.62,163.2C374.747,165.633 376.427,168.297 377.66,171.19C378.533,173.21 379.613,175.167 380.9,177.06C382.407,179.273 383.647,181.783 384.62,184.59C384.74,184.923 384.683,184.953 384.45,184.68C382.477,182.34 380.95,179.723 379.87,176.83ZM108.055,169.311C108.458,170.066 108.702,170.723 108.6,170.777C108.498,170.832 108.088,170.264 107.685,169.509C107.282,168.754 107.038,168.097 107.14,168.043C107.242,167.988 107.652,168.556 108.055,169.311ZM260.64,186.54C258,180.6 253.42,176.12 251.36,169.81C251.133,169.117 251.247,169.057 251.7,169.63C254.367,173.03 256.627,176.783 258.48,180.89C259.427,183.01 260.64,185.117 262.12,187.21C263.853,189.663 265.343,192.437 266.59,195.53C266.75,195.93 266.69,195.967 266.41,195.64C263.963,192.72 262.04,189.687 260.64,186.54ZM121.22,170.55C124.73,176.01 128.47,180.92 131.3,186.88C133.2,190.893 135.373,194.963 137.82,199.09C137.893,199.217 137.867,199.317 137.74,199.39L137.74,199.4C137.613,199.473 137.513,199.447 137.44,199.32C135.13,195.41 132.93,191.51 130.18,187.92C129.013,186.393 127.987,184.697 127.1,182.83C125.153,178.73 123.117,174.653 120.99,170.6C120.97,170.567 120.977,170.537 121.01,170.51L121.02,170.51C121.1,170.463 121.167,170.477 121.22,170.55ZM247.998,173.484L259.968,194.216C260.1,194.446 260.022,194.74 259.792,194.872L259.758,194.892C259.528,195.024 259.234,194.946 259.102,194.716L247.132,173.984C247,173.754 247.078,173.46 247.308,173.328L247.342,173.308C247.572,173.176 247.866,173.254 247.998,173.484ZM242.67,175.77C245.75,179.88 247.4,184.22 250.37,188.41C251.977,190.67 253.38,193.363 254.58,196.49C254.76,196.97 254.693,197.007 254.38,196.6C252.093,193.62 250.32,190.777 249.06,188.07C247.04,183.76 244.15,180.3 242.49,175.72C242.483,175.693 242.497,175.673 242.53,175.66C242.543,175.653 242.557,175.65 242.57,175.65C242.61,175.63 242.633,175.643 242.64,175.69C242.64,175.703 242.643,175.717 242.65,175.73C242.65,175.743 242.657,175.757 242.67,175.77ZM374.9,178.08C376.753,180.767 378.607,183.517 380.46,186.33C382.06,188.76 382.97,191.48 384.08,194.17C384.34,194.797 384.24,194.863 383.78,194.37C382.03,192.52 380.57,190.35 379.52,188.04C377.96,184.627 376.343,181.353 374.67,178.22C373.897,176.773 373.973,176.727 374.9,178.08ZM233.644,181.284L243.754,198.796C243.853,198.968 243.794,199.188 243.622,199.287L243.588,199.307C243.416,199.407 243.195,199.348 243.096,199.176L232.986,181.664C232.887,181.492 232.946,181.272 233.118,181.173L233.152,181.153C233.324,181.053 233.545,181.112 233.644,181.284ZM128.68,193.09C130.54,197.25 132.83,201.15 134.97,205.15C135.01,205.23 134.99,205.293 134.91,205.34L134.91,205.35C134.817,205.397 134.743,205.377 134.69,205.29C132.59,201.757 130.327,198.26 127.9,194.8C125.13,190.85 123.82,186.97 121.84,182.74C121.773,182.58 121.797,182.567 121.91,182.7C124.763,185.92 127.02,189.383 128.68,193.09ZM380.09,200.15C377.46,195.5 374.85,190.69 372.65,185.81C371.937,184.23 372.09,184.143 373.11,185.55C377.08,191.04 380.95,196.64 383.03,203.25C383.137,203.597 383.053,203.647 382.78,203.4C381.6,202.333 380.703,201.25 380.09,200.15ZM369.39,190.39C369.363,190.35 369.373,190.317 369.42,190.29C369.5,190.243 369.563,190.26 369.61,190.34C372.003,194.26 374.677,198.33 377.63,202.55C378.823,204.257 380.107,207.153 381.48,211.24C381.627,211.68 381.523,211.753 381.17,211.46C379.897,210.387 378.943,209.263 378.31,208.09C375.183,202.263 372.21,196.363 369.39,190.39ZM171.85,280.22C169.23,276.2 166.27,272.48 164.02,268.44C158.97,259.37 153.47,250.31 148.54,241.14C141.513,228.067 134.17,215.257 126.51,202.71C124.81,199.917 123.417,197.217 122.33,194.61C121.85,193.463 121.977,193.393 122.71,194.4C124.157,196.4 125.477,198.52 126.67,200.76C133.103,212.8 139.997,224.767 147.35,236.66C153.02,245.82 158.39,255.39 163.97,264.7C167.06,269.86 169.14,275.12 171.96,280.22C171.993,280.28 171.98,280.323 171.92,280.35C171.913,280.357 171.907,280.36 171.9,280.36C171.88,280.373 171.87,280.367 171.87,280.34L171.87,280.3C171.87,280.267 171.863,280.24 171.85,280.22ZM162.323,198.429C162.781,199.171 163.058,199.832 162.94,199.904C162.823,199.977 162.356,199.433 161.897,198.691C161.439,197.949 161.162,197.288 161.28,197.216C161.397,197.143 161.864,197.687 162.323,198.429ZM262.33,200.79C261.53,200.597 261.233,200.03 261.44,199.09C261.553,198.537 261.817,198.457 262.23,198.85C262.803,199.403 263.237,200.063 263.53,200.83C263.71,201.317 263.573,201.437 263.12,201.19C262.98,201.11 262.84,201.027 262.7,200.94C262.587,200.873 262.463,200.823 262.33,200.79ZM145.068,200.935C145.493,201.633 145.755,202.25 145.651,202.313C145.547,202.377 145.118,201.862 144.692,201.165C144.267,200.467 144.005,199.85 144.109,199.787C144.213,199.723 144.642,200.238 145.068,200.935ZM370.11,203.08C369.77,202.32 369.397,201.547 368.99,200.76C368.477,199.747 368.547,199.703 369.2,200.63C371.473,203.857 373.87,207.347 376.39,211.1C377.92,213.39 378.45,215.84 379.38,218.33C379.553,218.803 379.447,218.877 379.06,218.55C377.833,217.53 376.947,216.53 376.4,215.55C374.247,211.737 372.15,207.58 370.11,203.08ZM170.188,201.356C170.607,202.044 170.862,202.654 170.758,202.718C170.655,202.781 170.231,202.273 169.812,201.584C169.393,200.896 169.138,200.286 169.242,200.222C169.345,200.159 169.769,200.667 170.188,201.356ZM258.22,202.526C258.682,203.336 258.968,204.045 258.857,204.108C258.747,204.171 258.282,203.564 257.82,202.754C257.358,201.944 257.072,201.235 257.183,201.172C257.293,201.109 257.758,201.716 258.22,202.526ZM364.94,204.09C367.733,208.163 370.623,212.437 373.61,216.91C375.083,219.123 376.093,221.63 376.64,224.43C376.707,224.803 376.59,224.877 376.29,224.65C374.777,223.537 373.74,222.403 373.18,221.25C370.573,215.89 367.73,210.227 364.65,204.26C363.817,202.653 363.913,202.597 364.94,204.09ZM126.29,213.73C124.87,211.13 123.91,207.96 122.3,205.31C122.26,205.23 122.277,205.167 122.35,205.12L122.35,205.11C122.423,205.063 122.487,205.073 122.54,205.14C123.713,206.68 124.697,208.117 125.49,209.45C139.9,233.51 154.9,258.68 168.37,283.62C170.19,286.99 172.6,290.46 174.32,293.64C178.153,300.733 182.003,307.813 185.87,314.88C185.923,314.98 185.903,315.057 185.81,315.11L185.8,315.11C185.707,315.163 185.633,315.143 185.58,315.05C182.08,308.92 177.8,302.68 174.61,297.19C165.617,281.723 156.717,266.687 147.91,252.08C144.47,246.367 141.13,240.597 137.89,234.77C134.043,227.857 130.177,220.843 126.29,213.73ZM292.67,232.55C289.77,227.603 286.917,222.763 284.11,218.03C282,214.47 280.55,210.79 279.05,207.04C278.777,206.353 278.877,206.297 279.35,206.87C281.6,209.59 283.82,212.31 285.61,215.48C301.363,243.287 317.593,271.737 334.3,300.83C335.767,303.37 337.193,306.21 338.58,309.35C339.267,310.89 339.107,310.983 338.1,309.63C336.273,307.183 334.617,304.673 333.13,302.1C319.943,279.293 306.457,256.11 292.67,232.55ZM366.01,218.22C364.61,215.02 362.64,212.15 361.29,208.82C361.163,208.5 361.21,208.473 361.43,208.74C363.86,211.68 365.26,215.01 367.48,217.97C370.22,221.63 372.83,225.5 373.77,230.02C373.857,230.447 373.717,230.543 373.35,230.31C372.237,229.597 371.42,228.79 370.9,227.89C369.127,224.83 367.497,221.607 366.01,218.22ZM153.05,226.45C150.25,221.17 146.7,216.4 144.29,210.98C144.263,210.913 144.28,210.86 144.34,210.82L144.35,210.82C144.443,210.767 144.52,210.783 144.58,210.87C148.83,217.03 151.76,224.03 155.94,230.34C161.47,238.69 166.35,247.51 171.43,256.15C172.72,258.35 173.56,260.84 174.68,263.26C174.86,263.653 174.807,263.69 174.52,263.37C173.047,261.71 171.853,260.113 170.94,258.58C165.787,249.927 159.823,239.217 153.05,226.45ZM122.16,215.66C122.02,215.333 122.077,215.297 122.33,215.55C123.597,216.837 124.68,218.197 125.58,219.63C130.9,228.11 136.24,236.56 141.1,245.36C145.667,253.64 150.273,261.977 154.92,270.37C162.79,284.58 171.92,299.67 179.48,314.71C180.4,316.53 180.317,316.577 179.23,314.85C171.803,303.077 164.633,291.11 157.72,278.95C155.88,275.71 153.45,271.65 150.43,266.77C147.11,261.4 144.08,255.88 140.63,250.57C133.197,239.11 127.04,227.473 122.16,215.66ZM143.86,221.13C143.15,220.31 142.72,219 142,218.11C141.913,217.997 141.93,217.903 142.05,217.83L142.06,217.82C142.167,217.753 142.253,217.773 142.32,217.88C142.913,218.8 143.5,219.833 144.08,220.98C144.4,221.607 144.327,221.657 143.86,221.13ZM362.26,221.56C362.193,221.447 362.217,221.357 362.33,221.29L362.34,221.28C362.453,221.213 362.547,221.233 362.62,221.34C364.767,224.4 366.907,227.443 369.04,230.47C369.6,231.257 370.12,232.943 370.6,235.53C370.68,235.97 370.553,236.043 370.22,235.75C368.5,234.237 367.36,232.787 366.8,231.4C365.347,227.8 363.833,224.52 362.26,221.56ZM146.17,224.6C154.623,238.233 162.25,251.01 169.05,262.93C170.07,264.723 170.97,266.677 171.75,268.79C172.143,269.87 171.983,269.96 171.27,269.06C170.263,267.78 169.403,266.537 168.69,265.33C160.463,251.497 152.897,237.967 145.99,224.74C145.937,224.633 145.967,224.573 146.08,224.56C146.12,224.56 146.15,224.573 146.17,224.6ZM366.49,239.74C364.31,237.28 363.35,234.59 361.85,231.57C361.517,230.91 361.597,230.853 362.09,231.4C364.457,234.013 366.05,236.723 366.87,239.53C367.057,240.163 366.93,240.233 366.49,239.74ZM361.574,240.957C362.267,242.239 362.711,243.344 362.566,243.422C362.42,243.501 361.739,242.524 361.046,241.243C360.353,239.961 359.909,238.856 360.054,238.778C360.2,238.699 360.881,239.676 361.574,240.957ZM349.44,253.5C348.62,252.013 347.817,250.55 347.03,249.11C346.97,249.003 346.993,248.92 347.1,248.86C347.173,248.82 347.233,248.833 347.28,248.9C348.2,250.327 349.057,251.797 349.85,253.31C349.91,253.43 349.88,253.523 349.76,253.59L349.76,253.6C349.627,253.673 349.52,253.64 349.44,253.5ZM180.731,262.223L190.262,278.798C190.367,278.98 190.304,279.212 190.122,279.317L190.088,279.337C189.906,279.441 189.673,279.379 189.569,279.197L180.038,262.622C179.933,262.44 179.996,262.208 180.178,262.103L180.212,262.083C180.394,261.979 180.627,262.041 180.731,262.223ZM184.13,279.11C184.132,279.113 184.132,279.117 184.13,279.12L183.93,279.23C183.928,279.232 183.926,279.234 183.923,279.235C183.723,279.35 182.567,277.719 181.361,275.621C181.36,275.621 181.36,275.62 181.36,275.62L181.18,275.31C179.975,273.214 179.148,271.396 179.348,271.281C179.349,271.281 179.349,271.28 179.35,271.28L179.55,271.16C179.555,271.16 179.56,271.165 179.56,271.17L184.13,279.11ZM179.937,282.614L195.815,310.005C195.92,310.186 195.858,310.419 195.677,310.524L195.642,310.544C195.461,310.649 195.228,310.587 195.123,310.406L179.245,283.015C179.14,282.834 179.202,282.601 179.383,282.496L179.418,282.476C179.599,282.371 179.832,282.433 179.937,282.614ZM190.64,312.48C190.687,312.573 190.663,312.647 190.57,312.7L190.56,312.7C190.487,312.74 190.427,312.723 190.38,312.65C187.047,306.963 183.62,301.327 180.1,295.74C177.69,291.92 175.96,288.42 174.3,284.47C174.297,284.462 174.297,284.452 174.299,284.443C174.305,284.42 174.323,284.405 174.34,284.409C174.349,284.411 174.356,284.419 174.36,284.43C177.367,288.477 179.953,292.603 182.12,296.81C184.85,302.09 188.03,307.13 190.64,312.48ZM200.332,317.683L213.98,341.419C214.11,341.643 214.032,341.931 213.807,342.06L213.79,342.07C213.565,342.2 213.277,342.122 213.148,341.897L199.5,318.161C199.37,317.937 199.448,317.649 199.673,317.52L199.69,317.51C199.915,317.38 200.203,317.458 200.332,317.683ZM195.081,319.565L208.099,341.932C208.219,342.137 208.149,342.401 207.944,342.52L207.927,342.53C207.722,342.65 207.458,342.58 207.339,342.375L194.321,320.008C194.201,319.803 194.271,319.539 194.476,319.42L194.493,319.41C194.698,319.29 194.962,319.36 195.081,319.565ZM189.622,320.964L201.822,342.096C201.918,342.263 201.861,342.477 201.694,342.574L201.676,342.584C201.509,342.68 201.295,342.623 201.198,342.456L188.998,321.324C188.902,321.157 188.959,320.943 189.126,320.846L189.144,320.836C189.311,320.74 189.525,320.797 189.622,320.964ZM213.501,27.879C214.094,29.057 214.467,30.068 214.334,30.135C214.201,30.202 213.611,29.3 213.019,28.121C212.426,26.943 212.053,25.932 212.186,25.865C212.319,25.798 212.909,26.7 213.501,27.879Z"/>
    </g>
</svg>
