<?xml version="1.0" encoding="UTF-8" standalone="no"?>
<!DOCTYPE svg PUBLIC "-//W3C//DTD SVG 1.1//EN" "http://www.w3.org/Graphics/SVG/1.1/DTD/svg11.dtd">
<svg width="100%" height="100%" viewBox="0 0 469 463" version="1.1" xmlns="http://www.w3.org/2000/svg" xmlns:xlink="http://www.w3.org/1999/xlink" xml:space="preserve" xmlns:serif="http://www.serif.com/" style="fill-rule:evenodd;clip-rule:evenodd;stroke-linejoin:round;stroke-miterlimit:2;">
    <g>
        <g transform="matrix(0.630435,0,0,0.473684,100,121.579)">
            <path d="M13.308,126.099C13.879,127.224 13.986,127.154 13.626,125.888C13.51,125.48 13.376,125.079 13.229,124.684" style="fill:rgb(255,252,252);"/>
        </g>
        <g transform="matrix(0.630435,0,0,0.473684,100,121.579)">
            <path d="M0,74.676L9.233,96.047C9.474,96.602 10.007,96.795 10.425,96.476L10.48,96.434C10.897,96.113 11.042,95.403 10.802,94.848L0,69.846" style="fill:rgb(255,252,252);"/>
        </g>
        <g transform="matrix(0.630435,0,0,0.473684,100,121.579)">
            <path d="M3.49,60L4.949,63.378C5.554,63.84 5.239,63.018 5.158,62.153L4.503,60" style="fill:rgb(255,252,252);"/>
        </g>
        <g transform="matrix(0.630435,0,0,0.473684,100,121.579)">
            <path d="M201.611,60C205.601,71.316 210.109,82.492 215.042,93.588C217.22,98.486 219.694,102.997 222.466,107.12C222.984,107.895 223.148,107.774 222.957,106.761C222.228,102.934 221.17,99.315 219.785,95.91" style="fill:rgb(255,252,252);"/>
        </g>
        <g transform="matrix(0.630435,0,0,0.473684,100,121.579)">
            <path d="M230.539,102.539C230.952,103.088 231.079,102.989 230.92,102.243C229.757,96.643 227.927,90.921 225.432,85.08C221.688,76.358 218.063,67.943 214.427,60" style="fill:rgb(255,252,252);"/>
        </g>
        <g transform="matrix(0.630435,0,0,0.473684,100,121.579)">
            <path d="M219.967,60L230.508,84.278C232.612,89.245 235.293,93.926 238.55,98.317C238.93,98.823 239.062,98.724 238.946,98.021C238.101,92.701 236.864,88.247 235.234,84.658L224.256,60" style="fill:rgb(255,252,252);"/>
        </g>
        <g transform="matrix(0.630435,0,0,0.473684,100,121.579)">
            <path d="M229.966,60L240.199,84.024C242.531,89.556 246.782,92.954 248.194,98.908C250.43,108.387 255.49,117.401 259.662,125.381C265.039,135.599 268.846,148.413 274.985,159.159C275.989,160.917 276.132,160.806 275.413,158.821C271.289,147.484 265.372,136.76 261.47,125.74C259.048,118.942 256.336,111.897 253.333,104.608C251.493,100.132 248.241,97.979 247.115,92.849C246.243,88.922 245.132,85.143 243.562,81.597C240.377,74.316 237.267,67.135 234.088,60" style="fill:rgb(255,252,252);"/>
        </g>
        <g transform="matrix(0.630435,0,0,0.473684,100,121.579)">
            <path d="M415.999,211.071C415.892,210.833 415.93,210.643 416.11,210.501L416.126,210.48C416.305,210.339 416.454,210.381 416.57,210.607C419.975,217.067 423.37,223.491 426.753,229.881C427.641,231.543 428.466,235.102 429.228,240.563C429.354,241.492 429.153,241.646 428.625,241.028C425.897,237.834 424.088,234.773 423.2,231.844C420.895,224.244 418.494,217.32 415.999,211.071Z" style="fill:rgb(255,252,252);"/>
        </g>
        <g transform="matrix(0.630435,0,0,0.473684,100,121.579)">
            <path d="M421.947,204.02C419.726,197.264 416.601,191.206 414.46,184.176C414.259,183.5 414.333,183.443 414.682,184.007C418.537,190.213 420.757,197.243 424.279,203.492C428.625,211.219 432.765,219.389 434.256,228.931C434.394,229.833 434.172,230.035 433.59,229.543C431.824,228.038 430.528,226.334 429.703,224.434C426.891,217.974 424.306,211.17 421.947,204.02Z" style="fill:rgb(255,252,252);"/>
        </g>
        <g transform="matrix(0.630435,0,0,0.473684,100,121.579)">
            <path d="M420.25,174.19C424.68,182.789 429.264,191.811 434.002,201.254C436.339,205.926 437.941,211.219 438.808,217.13C438.915,217.917 438.729,218.074 438.253,217.594C435.853,215.245 434.208,212.851 433.32,210.417C429.185,199.101 424.675,187.146 419.79,174.549C418.468,171.156 418.621,171.038 420.25,174.19Z" style="fill:rgb(255,252,252);"/>
        </g>
        <g transform="matrix(0.630435,0,0,0.473684,100,121.579)">
            <path d="M90.461,212C85.861,204.484 81.859,196.414 78.454,187.786C77.629,185.674 77.015,183.443 76.614,181.093C76.466,180.192 76.657,180.044 77.185,180.65C78.624,182.297 79.786,184.055 80.674,185.928C84.629,194.189 87.892,202.88 90.461,212Z" style="fill:rgb(255,252,252);"/>
        </g>
        <g transform="matrix(0.630435,0,0,0.473684,100,121.579)">
            <path d="M69.571,210.163C68.445,208.432 67.763,205.667 66.621,203.788C66.483,203.549 66.51,203.351 66.7,203.197L66.716,203.176C66.886,203.034 67.022,203.076 67.128,203.302C68.069,205.244 69,207.425 69.92,209.847C70.428,211.17 70.312,211.276 69.571,210.163Z" style="fill:rgb(255,252,252);"/>
        </g>
        <g transform="matrix(0.630435,0,0,0.473684,100,121.579)">
            <path d="M428.45,172.058C427.911,170.453 427.319,168.821 426.674,167.16C425.86,165.021 425.971,164.929 427.007,166.886C430.612,173.698 434.414,181.066 438.412,188.989C440.839,193.823 441.679,198.996 443.154,204.252C443.429,205.251 443.261,205.407 442.647,204.717C440.701,202.563 439.295,200.452 438.428,198.383C435.012,190.334 431.686,181.558 428.45,172.058Z" style="fill:rgb(255,252,252);"/>
        </g>
        <g transform="matrix(0.630435,0,0,0.473684,100,121.579)">
            <path d="M427.308,145.268C427.265,145.183 427.281,145.114 427.356,145.057C427.483,144.957 427.583,144.993 427.657,145.162C431.453,153.438 435.695,162.03 440.379,170.939C442.271,174.543 444.308,180.656 446.486,189.284C446.719,190.213 446.554,190.367 445.994,189.749C443.975,187.484 442.461,185.111 441.457,182.634C436.497,170.333 431.781,157.877 427.308,145.268Z" style="fill:rgb(255,252,252);"/>
        </g>
        <g transform="matrix(0.630435,0,0,0.473684,100,121.579)">
            <path d="M45.492,150.968C48.443,159.75 52.075,167.983 55.47,176.428C55.533,176.597 55.501,176.73 55.374,176.829L55.374,176.85C55.227,176.949 55.11,176.907 55.026,176.723C51.694,169.265 48.105,161.882 44.255,154.578C39.861,146.239 37.783,138.048 34.643,129.118C34.536,128.78 34.575,128.753 34.754,129.033C39.279,135.831 42.859,143.142 45.492,150.968Z" style="fill:rgb(255,252,252);"/>
        </g>
        <g transform="matrix(0.630435,0,0,0.473684,100,121.579)">
            <path d="M250.97,170.888C251.702,172.598 252.156,174.095 251.98,174.228C251.806,174.361 251.068,173.08 250.335,171.37C249.602,169.66 249.149,168.163 249.325,168.03C249.499,167.897 250.237,169.178 250.97,170.888Z" style="fill:rgb(255,252,252);"/>
        </g>
        <g transform="matrix(0.630435,0,0,0.473684,100,121.579)">
            <path d="M444.281,165.872C440.109,156.056 435.969,145.901 432.479,135.599C431.348,132.263 431.591,132.08 433.209,135.05C439.506,146.64 445.645,158.462 448.944,172.417C449.114,173.149 448.981,173.255 448.548,172.733C446.676,170.481 445.253,168.194 444.281,165.872Z" style="fill:rgb(255,252,252);"/>
        </g>
        <g transform="matrix(0.630435,0,0,0.473684,100,121.579)">
            <path d="M111.333,168.418C111.997,169.871 112.402,171.158 112.237,171.294C112.073,171.427 111.401,170.354 110.736,168.9C110.072,167.447 109.667,166.159 109.832,166.024C109.996,165.891 110.668,166.964 111.333,168.418Z" style="fill:rgb(255,252,252);"/>
        </g>
        <g transform="matrix(0.630435,0,0,0.473684,100,121.579)">
            <path d="M220.848,170.939C220.118,169.714 219.463,168.484 218.881,167.244C212.674,154.044 207.259,141.531 202.638,129.709C200.386,123.924 196.388,117.697 193.517,111.596C187.691,99.267 182.656,86.642 178.417,73.722C178.068,72.667 178.158,72.597 178.686,73.511C186.13,86.459 192.396,99.991 197.483,114.108C200.846,123.439 204.113,131.531 207.286,138.386C211.399,147.28 215.339,156.231 219.103,165.239C219.844,166.997 220.424,168.897 220.848,170.939Z" style="fill:rgb(255,252,252);"/>
        </g>
        <g transform="matrix(0.630435,0,0,0.473684,100,121.579)">
            <path d="M71.487,167.529C72.161,169.003 72.577,170.306 72.412,170.439C72.247,170.574 71.566,169.486 70.891,168.015C70.217,166.541 69.801,165.239 69.966,165.106C70.131,164.971 70.811,166.058 71.487,167.529Z" style="fill:rgb(255,252,252);"/>
        </g>
        <g transform="matrix(0.630435,0,0,0.473684,100,121.579)">
            <path d="M128.372,162.959C129.62,164.352 130.508,166.111 131.037,168.237C131.238,169.024 131.132,169.102 130.719,168.469C129.725,166.907 128.943,165.07 128.372,162.959Z" style="fill:rgb(255,252,252);"/>
        </g>
        <g transform="matrix(0.630435,0,0,0.473684,100,121.579)">
            <path d="M257.489,167.223C256.22,166.816 255.749,165.619 256.077,163.634C256.256,162.467 256.675,162.298 257.33,163.128C258.239,164.295 258.928,165.689 259.392,167.308C259.678,168.336 259.461,168.589 258.742,168.068C258.52,167.899 258.298,167.724 258.076,167.54C257.897,167.399 257.7,167.293 257.489,167.223Z" style="fill:rgb(255,252,252);"/>
        </g>
        <g transform="matrix(0.630435,0,0,0.473684,100,121.579)">
            <path d="M85.592,155.591C87.855,159.138 89.689,163.113 91.096,167.519C91.286,168.125 91.223,168.173 90.906,167.667C88.685,164.063 86.913,160.039 85.592,155.591Z" style="fill:rgb(255,252,252);"/>
        </g>
        <g transform="matrix(0.630435,0,0,0.473684,100,121.579)">
            <path d="M76.217,156.52C78.205,159.714 79.75,163.1 80.849,166.674C81.219,167.857 81.103,167.947 80.5,166.949C78.723,163.966 77.296,160.489 76.217,156.52Z" style="fill:rgb(255,252,252);"/>
        </g>
        <g transform="matrix(0.630435,0,0,0.473684,100,121.579)">
            <path d="M98.857,162.239C99.584,163.805 100.023,165.201 99.836,165.353C99.65,165.507 98.91,164.359 98.181,162.792C97.455,161.226 97.016,159.83 97.203,159.678C97.388,159.524 98.129,160.673 98.857,162.239Z" style="fill:rgb(255,252,252);"/>
        </g>
        <g transform="matrix(0.630435,0,0,0.473684,100,121.579)">
            <path d="M33.659,103.383C39.227,114.91 45.159,125.276 49.648,137.858C52.662,146.33 56.109,154.922 59.99,163.634C60.106,163.903 60.065,164.114 59.863,164.268L59.863,164.289C59.662,164.443 59.503,164.388 59.388,164.12C55.723,155.866 52.234,147.632 47.872,140.053C46.021,136.83 44.393,133.249 42.986,129.308C39.898,120.652 36.668,112.045 33.294,103.489C33.263,103.419 33.274,103.356 33.326,103.299L33.342,103.299C33.469,103.2 33.575,103.229 33.659,103.383Z" style="fill:rgb(255,252,252);"/>
        </g>
        <g transform="matrix(0.630435,0,0,0.473684,100,121.579)">
            <path d="M211.987,126.044L228.024,163.014C228.181,163.377 228.087,163.841 227.814,164.05L227.76,164.093C227.487,164.304 227.137,164.179 226.98,163.816L210.943,126.846C210.786,126.483 210.88,126.019 211.153,125.81L211.207,125.767C211.479,125.556 211.83,125.681 211.987,126.044Z" style="fill:rgb(255,252,252);"/>
        </g>
        <g transform="matrix(0.630435,0,0,0.473684,100,121.579)">
            <path d="M128.372,162.959C119.648,144.001 110.935,125.007 102.231,105.98C96.172,92.707 90.656,79.063 85.687,65.046C85.623,64.849 85.666,64.693 85.814,64.581L85.814,64.56C85.961,64.448 86.083,64.482 86.179,64.666C92.29,76.431 97.959,88.584 103.183,101.124C111.601,121.349 119.96,141.622 128.261,161.946C128.399,162.269 128.435,162.606 128.372,162.959Z" style="fill:rgb(255,252,252);"/>
        </g>
        <g transform="matrix(0.630435,0,0,0.473684,100,121.579)">
            <path d="M236.361,160.848C233.157,155.739 230.449,150.193 228.239,144.212C225.384,136.464 221.847,129.603 219.039,121.94C218.955,121.687 219.003,121.49 219.182,121.349L219.198,121.349C219.368,121.207 219.51,121.25 219.626,121.476C221.668,125.43 223.533,129.534 225.226,133.783C226.537,137.104 228.387,141.172 230.777,145.986C233.082,150.63 234.944,155.585 236.361,160.848Z" style="fill:rgb(255,252,252);"/>
        </g>
        <g transform="matrix(0.630435,0,0,0.473684,100,121.579)">
            <path d="M226.304,114.403C231.19,123.08 233.807,132.242 238.518,141.088C241.067,145.859 243.292,151.544 245.196,158.146C245.481,159.159 245.375,159.237 244.879,158.378C241.251,152.087 238.439,146.085 236.44,140.37C233.236,131.271 228.652,123.967 226.019,114.298C226.008,114.241 226.03,114.199 226.082,114.171C226.103,114.156 226.125,114.15 226.146,114.15C226.209,114.108 226.245,114.135 226.257,114.234C226.257,114.262 226.261,114.291 226.272,114.319C226.272,114.346 226.284,114.376 226.304,114.403Z" style="fill:rgb(255,252,252);"/>
        </g>
        <g transform="matrix(0.630435,0,0,0.473684,100,121.579)">
            <path d="M254.808,137.14C250.621,124.6 243.356,115.142 240.088,101.821C239.728,100.358 239.909,100.231 240.628,101.441C244.858,108.619 248.443,116.542 251.382,125.212C252.884,129.688 254.808,134.136 257.156,138.554C259.905,143.733 262.268,149.589 264.246,156.119C264.5,156.963 264.405,157.041 263.961,156.351C260.079,150.187 257.029,143.784 254.808,137.14Z" style="fill:rgb(255,252,252);"/>
        </g>
        <g transform="matrix(0.630435,0,0,0.473684,100,121.579)">
            <path d="M76.217,156.52C72.961,150.51 70.031,144.079 67.43,137.224C66.879,135.774 66.986,135.69 67.747,136.971C71.121,142.671 73.944,149.188 76.217,156.52Z" style="fill:rgb(255,252,252);"/>
        </g>
        <g transform="matrix(0.630435,0,0,0.473684,100,121.579)">
            <path d="M35.166,85.502C35.071,85.264 35.108,85.08 35.277,84.953L35.293,84.932C35.357,84.875 35.415,84.89 35.468,84.974C42.764,98.317 49.632,112.799 54.914,128.041C58.039,137.034 63.417,146.07 66.256,155.866C66.319,156.077 66.276,156.231 66.129,156.33L66.113,156.33C65.966,156.442 65.843,156.4 65.748,156.203C62.492,149.363 59.383,142.397 56.421,135.303C54.375,130.427 50.822,125.634 49.268,121.666C44.561,109.59 39.861,97.536 35.166,85.502Z" style="fill:rgb(255,252,252);"/>
        </g>
        <g transform="matrix(0.630435,0,0,0.473684,100,121.579)">
            <path d="M85.592,155.591C83.519,151.453 81.991,148.244 81.008,145.964C78.279,139.646 78.544,139.42 81.801,145.289C82.741,146.978 84.006,150.413 85.592,155.591Z" style="fill:rgb(255,252,252);"/>
        </g>
        <g transform="matrix(0.630435,0,0,0.473684,100,121.579)">
            <path d="M234.755,109.577L253.742,153.345C253.952,153.83 253.828,154.451 253.463,154.73L253.409,154.772C253.044,155.051 252.578,154.886 252.369,154.4L233.382,110.633C233.172,110.147 233.296,109.527 233.661,109.248L233.715,109.206C234.08,108.927 234.546,109.092 234.755,109.577Z" style="fill:rgb(255,252,252);"/>
        </g>
        <g transform="matrix(0.630435,0,0,0.473684,100,121.579)">
            <path d="M436.048,119.28C438.988,124.953 441.928,130.758 444.868,136.697C447.406,141.827 448.849,147.569 450.61,153.248C451.022,154.571 450.863,154.711 450.134,153.67C447.358,149.764 445.042,145.183 443.377,140.307C440.902,133.101 438.337,126.19 435.683,119.576C434.457,116.521 434.578,116.424 436.048,119.28Z" style="fill:rgb(255,252,252);"/>
        </g>
        <g transform="matrix(0.630435,0,0,0.473684,100,121.579)">
            <path d="M79.421,73.152C79.326,72.787 79.417,72.646 79.691,72.73C79.861,72.787 80.056,73.04 80.278,73.49C90.419,93.883 99.371,114.657 107.132,135.81C108.095,138.443 107.957,138.554 106.72,136.148C97.71,118.583 89.346,99.894 81.626,80.077C80.833,78.05 80.099,75.743 79.421,73.152Z" style="fill:rgb(255,252,252);"/>
        </g>
        <g transform="matrix(0.630435,0,0,0.473684,100,121.579)">
            <path d="M443.932,116.641C443.107,113.728 441.806,110.667 440.283,108.239C436.73,102.554 433.886,95.946 431.75,88.416C431.221,86.543 431.448,86.361 432.432,87.867C435.806,93.003 438.47,98.627 440.426,104.734C441.811,108.999 443.524,113.13 445.566,117.127C447.956,121.799 449.923,127.097 451.466,133.023C451.657,133.726 451.566,133.79 451.197,133.213C448.067,128.273 445.645,122.749 443.932,116.641Z" style="fill:rgb(255,252,252);"/>
        </g>
        <g transform="matrix(0.630435,0,0,0.473684,100,121.579)">
            <path d="M94.141,126.943C94.164,126.994 94.176,127.053 94.176,127.112C94.176,127.235 94.126,127.349 94.046,127.408L93.999,127.45C93.997,127.452 93.994,127.454 93.992,127.454C93.087,128.147 87.456,117.407 81.518,103.664L81.26,103.065C75.323,89.319 71.181,77.44 72.085,76.747C72.088,76.745 72.09,76.743 72.093,76.741L72.141,76.699C72.179,76.669 72.223,76.652 72.268,76.652C72.36,76.652 72.445,76.72 72.49,76.826L94.141,126.943Z" style="fill:rgb(255,252,252);"/>
        </g>
        <g transform="matrix(0.630435,0,0,0.473684,100,121.579)">
            <path d="M63.797,125.297C63.826,125.354 63.84,125.421 63.84,125.491C63.84,125.62 63.788,125.74 63.702,125.803L63.623,125.846C62.55,126.66 56.128,114.405 49.394,98.697L49.157,98.148C49.155,98.146 49.153,98.141 49.153,98.139C42.418,82.426 37.76,68.824 38.834,68.01C38.838,68.007 38.841,68.003 38.846,68.001L38.91,67.959C39.037,67.862 39.2,67.919 39.274,68.086L63.797,125.297Z" style="fill:rgb(255,252,252);"/>
        </g>
        <g transform="matrix(0.630435,0,0,0.473684,100,121.579)">
            <path d="M189.123,76.023C188.552,74.208 188.727,74.075 189.647,75.622C197.694,89.021 204.245,104.276 209.3,121.391C209.375,121.63 209.348,121.644 209.221,121.433C201.269,108.233 194.569,93.096 189.123,76.023Z" style="fill:rgb(255,252,252);"/>
        </g>
        <g transform="matrix(0.630435,0,0,0.473684,100,121.579)">
            <path d="M60.858,96.265C66.848,109.907 71.428,121.201 71.08,121.471C70.732,121.742 65.588,110.886 59.599,97.244C53.609,83.602 49.028,72.308 49.377,72.038C49.724,71.767 54.868,82.623 60.858,96.265Z" style="fill:rgb(255,252,252);"/>
        </g>
        <g transform="matrix(0.630435,0,0,0.473684,100,121.579)">
            <path d="M61.205,74.82L80.855,119.932C81.012,120.295 80.92,120.76 80.648,120.971L80.621,120.992C80.348,121.203 79.997,121.079 79.84,120.716L60.19,75.603C60.033,75.24 60.125,74.776 60.398,74.565L60.425,74.543C60.698,74.332 61.048,74.457 61.205,74.82Z" style="fill:rgb(255,252,252);"/>
        </g>
        <g transform="matrix(0.630435,0,0,0.473684,100,121.579)">
            <path d="M335.272,68.603L354.628,113.403C354.788,113.776 354.692,114.256 354.411,114.471L354.357,114.513C354.076,114.726 353.716,114.598 353.554,114.224L334.198,69.424C334.038,69.05 334.134,68.571 334.415,68.356L334.469,68.314C334.75,68.1 335.11,68.229 335.272,68.603Z" style="fill:rgb(255,252,252);"/>
        </g>
        <g transform="matrix(0.630435,0,0,0.473684,100,121.579)">
            <path d="M213.028,103.721C213.936,106.282 214.641,108.851 215.137,111.427C215.38,112.693 215.19,112.82 214.566,111.807C207.174,99.816 201.555,86.775 197.705,72.688C197.356,71.436 197.499,71.322 198.133,72.35C204.023,81.865 208.988,92.321 213.028,103.721Z" style="fill:rgb(255,252,252);"/>
        </g>
        <g transform="matrix(0.630435,0,0,0.473684,100,121.579)">
            <path d="M12.777,100.768C13.416,102.362 13.803,103.749 13.641,103.863C13.48,103.979 12.829,102.78 12.19,101.186C11.551,99.592 11.164,98.205 11.326,98.091C11.487,97.975 12.138,99.174 12.777,100.768Z" style="fill:rgb(255,252,252);"/>
        </g>
        <g transform="matrix(0.630435,0,0,0.473684,100,121.579)">
            <path d="M109.194,73.152C109.247,73.306 109.215,73.427 109.099,73.511L109.083,73.511C108.977,73.581 108.898,73.539 108.846,73.384C107.841,70.556 106.756,67.796 105.594,65.109C104.875,63.462 104.939,63.414 105.784,64.961C107.064,67.326 108.2,70.055 109.194,73.152Z" style="fill:rgb(255,252,252);"/>
        </g>
        <g transform="matrix(0.630435,0,0,0.473684,100,121.579)">
            <path d="M9.598,250L6.274,250L0,235.431L0,228.049L9.598,250Z" style="fill:rgb(255,252,252);"/>
        </g>
        <g transform="matrix(0.630435,0,0,0.473684,100,121.579)">
            <path d="M12.23,233.111L19.645,250L16.233,250L0,212.293L0,205.184L12.23,233.111Z" style="fill:rgb(255,252,252);"/>
        </g>
        <g transform="matrix(0.630435,0,0,0.473684,100,121.579)">
            <path d="M0,182.685L18.368,224.793C19.563,227.538 20.854,230.219 22.239,232.837C24.237,236.616 25.443,240.964 27.219,244.997L29.459,250L26.055,250L23.539,244.068L0,189.428L0,182.685Z" style="fill:rgb(255,252,252);"/>
        </g>
        <g transform="matrix(0.630435,0,0,0.473684,100,121.579)">
            <path d="M0,159.903L20.002,205.603C24.285,215.441 28.821,225.131 32.771,235.201C34.666,240.034 36.827,244.977 39.289,250L35.96,250L30.074,236.721C28.246,232.894 26.78,229.516 25.681,226.588C24.888,224.477 24.09,222.492 23.286,220.634L0,166.71L0,159.903Z" style="fill:rgb(255,252,252);"/>
        </g>
        <g transform="matrix(0.630435,0,0,0.473684,100,121.579)">
            <path d="M0,137.359L5.964,151.094C15.407,172.909 24.713,194.9 33.881,217.067C37.688,226.271 43.621,234.378 47.618,243.139L50.634,250L44.995,250L43.716,246.707C39.56,235.195 36.281,226.693 33.881,221.204L0,143.293L0,137.359Z" style="fill:rgb(255,252,252);"/>
        </g>
        <g transform="matrix(0.630435,0,0,0.473684,100,121.579)">
            <path d="M0,114.502L2.268,119.702C8.053,133.087 13.541,146.857 18.733,161.017C19.336,162.663 19.241,162.741 18.448,161.249C18.035,160.461 17.643,159.666 17.274,158.863C13.478,150.856 10.099,143.459 7.138,136.676L0,120.194L0,114.502Z" style="fill:rgb(255,252,252);"/>
        </g>
        <g transform="matrix(0.630435,0,0,0.473684,100,121.579)">
            <path d="M0,91.903C4.304,101.89 8.707,112.822 13.229,124.684C13.376,125.079 13.51,125.48 13.626,125.888C13.986,127.154 13.879,127.224 13.308,126.099C9.037,117.796 5.15,109.647 1.65,101.652L0,97.834L0,91.903Z" style="fill:rgb(255,252,252);"/>
        </g>
        <g transform="matrix(0.630435,0,0,0.473684,100,121.579)">
            <path d="M5.158,62.153C5.239,63.018 5.554,63.84 4.949,63.378L3.49,60L4.503,60L5.158,62.153Z" style="fill:rgb(255,252,252);"/>
        </g>
        <g transform="matrix(0.630435,0,0,0.473684,100,121.579)">
            <path d="M0,69.846L10.802,94.848C11.042,95.403 10.897,96.113 10.48,96.434L10.425,96.476C10.007,96.795 9.474,96.602 9.233,96.047L0,74.676L0,69.846Z" style="fill:rgb(255,252,252);"/>
        </g>
        <g transform="matrix(0.630435,0,0,0.473684,100,121.579)">
            <path d="M234.088,60C237.267,67.135 240.377,74.316 243.562,81.597C245.132,85.143 246.243,88.922 247.115,92.849C248.241,97.979 251.493,100.132 253.333,104.608C256.336,111.897 259.048,118.942 261.47,125.74C265.372,136.76 271.289,147.484 275.413,158.821C276.132,160.806 275.989,160.917 274.985,159.159C268.846,148.413 265.039,135.599 259.662,125.381C255.49,117.401 250.43,108.387 248.194,98.908C246.782,92.954 242.531,89.556 240.199,84.024L229.966,60L234.088,60Z" style="fill:rgb(255,252,252);"/>
        </g>
        <g transform="matrix(0.630435,0,0,0.473684,100,121.579)">
            <path d="M273.463,60C279.319,73.34 285.081,86.235 290.181,99.942C293.068,107.69 296.986,114.614 300.19,122.088C311.785,149.068 324.252,176.238 335.53,202.711L355.698,250L352.463,250L327.806,194.288C317.003,169.714 307.55,145.394 296.51,121.201C294.194,116.107 292.048,110.736 290.07,105.093C287.532,97.852 283.439,91.392 280.346,84.32C276.899,76.41 273.467,68.529 270.052,60.676L269.768,60L273.463,60Z" style="fill:rgb(255,252,252);"/>
        </g>
        <g transform="matrix(0.630435,0,0,0.473684,100,121.579)">
            <path d="M224.256,60L235.234,84.658C236.864,88.247 238.101,92.701 238.946,98.021C239.062,98.724 238.93,98.823 238.55,98.317C235.293,93.926 232.612,89.245 230.508,84.278L219.967,60L224.256,60Z" style="fill:rgb(255,252,252);"/>
        </g>
        <g transform="matrix(0.630435,0,0,0.473684,100,121.579)">
            <path d="M263.348,60L272.399,80.604C274.409,85.264 276.36,90.246 278.252,95.551C280.283,101.251 283.471,105.579 285.66,110.941C293.031,129.154 300.518,146.513 308.121,163.022C313.503,174.703 318.839,186.688 324.126,198.974L345.952,250L342.305,250L319.7,198.531C316.009,190.213 310.865,177.933 304.266,161.692C297.255,144.466 289.757,127.423 281.774,110.561C279.506,105.79 278.681,100.006 276.317,95.446C273.034,89.133 269.75,82.927 267.101,76.129L260.585,60L263.348,60Z" style="fill:rgb(255,252,252);"/>
        </g>
        <g transform="matrix(0.630435,0,0,0.473684,100,121.579)">
            <path d="M282.861,60C286.684,68.209 290.428,76.508 294.067,84.974C309.104,119.977 324.728,154.894 339.892,190.087C348.564,210.203 357.083,230.169 365.425,250L362.318,250C342.093,204.295 324.294,163.203 308.866,126.774C303.938,115.121 298.624,102.955 292.925,90.273C288.483,80.358 284.143,70.269 279.914,60L282.861,60Z" style="fill:rgb(255,252,252);"/>
        </g>
        <g transform="matrix(0.630435,0,0,0.473684,100,121.579)">
            <path d="M243.309,60L251.398,77.227C254.317,83.56 254.919,90.97 258.806,96.396C260.36,98.591 261.665,100.949 262.723,103.468C268.783,118.034 273.986,133.277 280.743,147.527C283.598,153.55 286.242,159.701 288.674,165.978C292.068,174.76 297.208,181.853 300.903,190.53L326.301,250L322.427,250L297.731,193.992C294.971,187.786 292.893,181.072 290.958,174.422C289.023,167.73 285.295,162.874 282.852,156.604C276.623,140.533 269.65,125.176 261.93,110.54C260.027,106.924 258.69,103.39 257.917,99.942C257.092,96.254 255.919,93.039 254.396,90.294C252.191,86.283 249.812,82.694 247.94,78.451L240.198,60L243.309,60Z" style="fill:rgb(255,252,252);"/>
        </g>
        <g transform="matrix(0.630435,0,0,0.473684,100,121.579)">
            <path d="M214.427,60C218.063,67.943 221.688,76.358 225.432,85.08C227.927,90.921 229.757,96.643 230.92,102.243C231.079,102.989 230.952,103.088 230.539,102.539C228.212,99.357 226.193,95.994 224.48,92.448C219.453,81.974 214.79,71.166 210.522,60L214.427,60Z" style="fill:rgb(255,252,252);"/>
        </g>
        <g transform="matrix(0.630435,0,0,0.473684,100,121.579)">
            <path d="M252.263,60C253.477,62.651 254.759,65.239 256.157,67.727C259.9,74.425 262.808,81.041 264.881,87.571C267.815,96.797 272.875,103.404 276.254,111.976C285.157,134.579 291.994,150.841 296.763,160.763C303.267,174.26 308.332,185.252 311.959,193.739L336.135,250L332.328,250L310.357,199.967C303.6,184.703 297.81,168.321 291.37,153.332C284.792,138.048 278.411,123.939 272.225,111.004C270.174,106.683 268.201,101.54 266.308,95.572C263.881,87.951 259.25,82.568 256.759,75.073C255.063,69.964 253.245,64.936 251.288,60L252.263,60Z" style="fill:rgb(255,252,252);"/>
        </g>
        <g transform="matrix(0.630435,0,0,0.473684,100,121.579)">
            <path d="M302.024,60C305.878,68.001 309.561,75.954 313.101,83.834C329.841,121.102 347.486,161.72 366.033,205.688C372.156,220.197 377.846,234.426 383.101,248.374L383.631,250L383.546,250L382.783,248.628C377.846,238.621 372.886,228.044 367.905,216.898C346.099,168.047 324.76,118.851 303.886,69.31C302.709,66.527 301.574,63.264 300.362,60L302.024,60Z" style="fill:rgb(255,252,252);"/>
        </g>
        <g transform="matrix(0.630435,0,0,0.473684,100,121.579)">
            <path d="M311.73,60C317.354,72.45 323.665,84.847 328.154,95.023C345.698,134.769 362.67,175.013 379.072,215.758C379.188,216.053 379.135,216.286 378.913,216.454L378.897,216.476C378.675,216.644 378.496,216.581 378.358,216.286C363.448,184.055 348.485,150.594 333.468,115.902C326.024,98.718 319.546,82.722 314.037,67.917L310.871,60L311.73,60Z" style="fill:rgb(255,252,252);"/>
        </g>
        <g transform="matrix(0.630435,0,0,0.473684,100,121.579)">
            <path d="M94.226,60C105.811,84.512 116.94,109.656 127.642,135.409C140.649,166.674 155.559,198.214 167.9,227.01L177.868,250L174.278,250L166.393,231.844C160.218,217.784 152.228,198.884 142.426,175.14C126.412,136.404 108.057,99.458 93.021,60L94.226,60Z" style="fill:rgb(255,252,252);"/>
        </g>
        <g transform="matrix(0.630435,0,0,0.473684,100,121.579)">
            <path d="M292.461,60C294.237,63.443 295.956,66.932 297.572,70.598C328.091,139.574 352.772,196.716 371.617,242.02L375.005,250L372.587,250C342.069,181.838 315.192,119.879 291.926,64.159L290.331,60L292.461,60Z" style="fill:rgb(255,252,252);"/>
        </g>
        <g transform="matrix(0.630435,0,0,0.473684,100,121.579)">
            <path d="M203.465,60C209.527,71.26 214.651,83.276 219.785,95.91C221.17,99.315 222.228,102.934 222.957,106.761C223.148,107.774 222.984,107.895 222.466,107.12C219.694,102.997 217.22,98.486 215.042,93.588C210.109,82.492 205.601,71.316 201.611,60L203.465,60Z" style="fill:rgb(255,252,252);"/>
        </g>
        <g transform="matrix(0.630435,0,0,0.473684,100,121.579)">
            <path d="M321.533,60C329.578,76.168 335.996,90.121 340.828,101.821C351.54,127.803 361.936,152.925 372.013,177.188C372.065,177.314 372.045,177.414 371.95,177.483L371.934,177.504C371.807,177.604 371.707,177.574 371.632,177.42C369.919,173.578 367.973,169.265 365.795,164.479C357.737,146.731 349.711,129.082 341.717,111.532C335.94,98.866 328.795,81.695 320.308,60L321.533,60Z" style="fill:rgb(255,252,252);"/>
        </g>
        <g transform="matrix(0.630435,0,0,0.473684,100,121.579)">
            <path d="M123.795,60C129.905,73.408 136.517,86.659 142.299,100.048C162.824,147.59 183.794,195.59 205.208,244.047L207.756,250L203.753,250L202.162,246.411C180.823,196.589 159.461,147.005 138.079,97.662C132.714,85.298 127.673,72.746 122.972,60L123.795,60Z" style="fill:rgb(255,252,252);"/>
        </g>
        <g transform="matrix(0.630435,0,0,0.473684,100,121.579)">
            <path d="M162.969,60C173.315,79.831 182.373,99.854 190.154,120.061C197.15,138.259 204.605,153.417 211.473,170.179C216.696,182.93 222.185,195.464 227.938,207.778C235.139,223.161 240.623,235.186 244.387,243.857L247.107,250L243.441,250L238.835,239.444C231.808,223.759 226.352,207.166 219.214,191.754C217.374,187.764 216.073,183.373 214.201,179.341C204.319,158.061 195.944,137.604 185.57,115.628C177.093,97.643 169.339,78.99 162.514,60L162.969,60Z" style="fill:rgb(255,252,252);"/>
        </g>
        <g transform="matrix(0.630435,0,0,0.473684,100,121.579)">
            <path d="M109.194,73.152C109.247,73.306 109.215,73.427 109.099,73.511L109.083,73.511C108.977,73.581 108.898,73.539 108.846,73.384C107.841,70.556 106.756,67.796 105.594,65.109C104.875,63.462 104.939,63.414 105.784,64.961C107.064,67.326 108.2,70.055 109.194,73.152Z" style="fill:rgb(255,252,252);"/>
        </g>
        <g transform="matrix(0.630435,0,0,0.473684,100,121.579)">
            <path d="M128.372,162.959C119.648,144.001 110.935,125.007 102.231,105.98C96.172,92.707 90.656,79.063 85.687,65.046C85.623,64.849 85.666,64.693 85.814,64.581L85.814,64.56C85.961,64.448 86.083,64.482 86.179,64.666C92.29,76.431 97.959,88.584 103.183,101.124C111.601,121.349 119.96,141.622 128.261,161.946C128.399,162.269 128.435,162.606 128.372,162.959Z" style="fill:rgb(255,252,252);"/>
        </g>
        <g transform="matrix(0.630435,0,0,0.473684,100,121.579)">
            <path d="M335.272,68.603L354.628,113.403C354.788,113.776 354.692,114.256 354.411,114.471L354.357,114.513C354.076,114.726 353.716,114.598 353.554,114.224L334.198,69.424C334.038,69.05 334.134,68.571 334.415,68.356L334.469,68.314C334.75,68.1 335.11,68.229 335.272,68.603Z" style="fill:rgb(255,252,252);"/>
        </g>
        <g transform="matrix(0.630435,0,0,0.473684,100,121.579)">
            <path d="M63.797,125.297C63.826,125.354 63.84,125.421 63.84,125.491C63.84,125.62 63.788,125.74 63.702,125.803L63.623,125.846C62.55,126.66 56.128,114.405 49.394,98.697L49.157,98.148C49.155,98.146 49.153,98.141 49.153,98.139C42.418,82.426 37.76,68.824 38.834,68.01C38.838,68.007 38.841,68.003 38.846,68.001L38.91,67.959C39.037,67.862 39.2,67.919 39.274,68.086L63.797,125.297Z" style="fill:rgb(255,252,252);"/>
        </g>
        <g transform="matrix(0.630435,0,0,0.473684,100,121.579)">
            <path d="M60.858,96.265C66.848,109.907 71.428,121.201 71.08,121.471C70.732,121.742 65.588,110.886 59.599,97.244C53.609,83.602 49.028,72.308 49.377,72.038C49.724,71.767 54.868,82.623 60.858,96.265Z" style="fill:rgb(255,252,252);"/>
        </g>
        <g transform="matrix(0.630435,0,0,0.473684,100,121.579)">
            <path d="M213.028,103.721C213.936,106.282 214.641,108.851 215.137,111.427C215.38,112.693 215.19,112.82 214.566,111.807C207.174,99.816 201.555,86.775 197.705,72.688C197.356,71.436 197.499,71.322 198.133,72.35C204.023,81.865 208.988,92.321 213.028,103.721Z" style="fill:rgb(255,252,252);"/>
        </g>
        <g transform="matrix(0.630435,0,0,0.473684,100,121.579)">
            <path d="M79.421,73.152C79.326,72.787 79.417,72.646 79.691,72.73C79.861,72.787 80.056,73.04 80.278,73.49C90.419,93.883 99.371,114.657 107.132,135.81C108.095,138.443 107.957,138.554 106.72,136.148C97.71,118.583 89.346,99.894 81.626,80.077C80.833,78.05 80.099,75.743 79.421,73.152Z" style="fill:rgb(255,252,252);"/>
        </g>
        <g transform="matrix(0.630435,0,0,0.473684,100,121.579)">
            <path d="M193.979,250C187.822,236.055 181.866,222.085 175.704,208.116C171.072,197.587 166.595,187.131 162.269,176.744C151.652,151.242 140.438,125.333 128.626,99.013C124.898,90.674 122.408,81.744 119.092,73.194C119.018,72.983 119.065,72.871 119.235,72.857C119.351,72.842 119.421,72.893 119.441,73.004C119.452,73.074 119.473,73.146 119.505,73.216C122.582,79.528 126.23,85.608 128.959,92.004C139.448,116.55 150.044,140.913 160.746,165.091C173.187,193.241 185.683,221.487 197.804,250L193.979,250Z" style="fill:rgb(255,252,252);"/>
        </g>
        <g transform="matrix(0.630435,0,0,0.473684,100,121.579)">
            <path d="M220.848,170.939C220.118,169.714 219.463,168.484 218.881,167.244C212.674,154.044 207.259,141.531 202.638,129.709C200.386,123.924 196.388,117.697 193.517,111.596C187.691,99.267 182.656,86.642 178.417,73.722C178.068,72.667 178.158,72.597 178.686,73.511C186.13,86.459 192.396,99.991 197.483,114.108C200.846,123.439 204.113,131.531 207.286,138.386C211.399,147.28 215.339,156.231 219.103,165.239C219.844,166.997 220.424,168.897 220.848,170.939Z" style="fill:rgb(255,252,252);"/>
        </g>
        <g transform="matrix(0.630435,0,0,0.473684,100,121.579)">
            <path d="M61.205,74.82L80.855,119.932C81.012,120.295 80.92,120.76 80.648,120.971L80.621,120.992C80.348,121.203 79.997,121.079 79.84,120.716L60.19,75.603C60.033,75.24 60.125,74.776 60.398,74.565L60.425,74.543C60.698,74.332 61.048,74.457 61.205,74.82Z" style="fill:rgb(255,252,252);"/>
        </g>
        <g transform="matrix(0.630435,0,0,0.473684,100,121.579)">
            <path d="M184.094,250C175.704,231.052 167.394,212.055 159.382,192.831C147.982,165.486 136.355,138.47 124.501,111.786C119.33,100.174 114.826,87.128 109.75,74.926C109.675,74.757 109.702,74.624 109.829,74.524L109.845,74.524C109.94,74.455 110.015,74.482 110.067,74.609C114.857,86.431 121.377,97.008 126.135,108.408C135.102,129.842 146.978,157.048 161.761,190.023C169.5,207.285 178.197,227.262 187.802,250L184.094,250Z" style="fill:rgb(255,252,252);"/>
        </g>
        <g transform="matrix(0.630435,0,0,0.473684,100,121.579)">
            <path d="M189.123,76.023C188.552,74.208 188.727,74.075 189.647,75.622C197.694,89.021 204.245,104.276 209.3,121.391C209.375,121.63 209.348,121.644 209.221,121.433C201.269,108.233 194.569,93.096 189.123,76.023Z" style="fill:rgb(255,252,252);"/>
        </g>
        <g transform="matrix(0.630435,0,0,0.473684,100,121.579)">
            <path d="M94.141,126.943C94.164,126.994 94.176,127.053 94.176,127.112C94.176,127.235 94.126,127.349 94.046,127.408L93.999,127.45C93.997,127.452 93.994,127.454 93.992,127.454C93.087,128.147 87.456,117.407 81.518,103.664L81.26,103.065C75.323,89.319 71.181,77.44 72.085,76.747C72.088,76.745 72.09,76.743 72.093,76.741L72.141,76.699C72.179,76.669 72.223,76.652 72.268,76.652C72.36,76.652 72.445,76.72 72.49,76.826L94.141,126.943Z" style="fill:rgb(255,252,252);"/>
        </g>
        <g transform="matrix(0.630435,0,0,0.473684,100,121.579)">
            <path d="M233.571,250L220.134,218.017C204.134,178.919 192.28,151.384 184.571,135.409C175.16,115.887 167.15,96.811 160.54,78.177C160.465,77.951 160.508,77.782 160.667,77.67L160.667,77.649C160.826,77.537 160.957,77.579 161.063,77.776C171.406,96.543 179.416,117.021 188.299,138.956C198.176,163.303 209.078,188.292 221.006,213.921C226.616,225.994 231.901,237.974 237.195,250L233.571,250Z" style="fill:rgb(255,252,252);"/>
        </g>
        <g transform="matrix(0.630435,0,0,0.473684,100,121.579)">
            <path d="M213.649,250L210.966,243.941C198.371,214.443 186.026,185.512 173.928,157.153C166.25,139.124 156.178,118.33 148.628,98.591C146.692,93.524 144.752,88.401 142.806,83.222C142.754,83.053 142.786,82.927 142.901,82.842L142.917,82.821C143.076,82.709 143.203,82.758 143.298,82.969C146.962,91.181 151.737,98.781 155.083,106.656C164.992,129.905 174.927,153.043 184.888,176.069C187.193,181.389 189.595,186.884 192.09,192.557L217.227,250L213.649,250Z" style="fill:rgb(255,252,252);"/>
        </g>
        <g transform="matrix(0.630435,0,0,0.473684,100,121.579)">
            <path d="M35.166,85.502C35.071,85.264 35.108,85.08 35.277,84.953L35.293,84.932C35.357,84.875 35.415,84.89 35.468,84.974C42.764,98.317 49.632,112.799 54.914,128.041C58.039,137.034 63.417,146.07 66.256,155.866C66.319,156.077 66.276,156.231 66.129,156.33L66.113,156.33C65.966,156.442 65.843,156.4 65.748,156.203C62.492,149.363 59.383,142.397 56.421,135.303C54.375,130.427 50.822,125.634 49.268,121.666C44.561,109.59 39.861,97.536 35.166,85.502Z" style="fill:rgb(255,252,252);"/>
        </g>
        <g transform="matrix(0.630435,0,0,0.473684,100,121.579)">
            <path d="M223.567,250C218.265,237.587 213.04,225.078 207.872,212.486C203.59,202.036 198.45,191.839 194.31,181.03C192.64,176.654 190.895,172.41 189.076,168.3C179.77,147.343 170.474,126.388 161.19,105.431C158.478,99.288 156.416,92.068 153.814,85.46C153.73,85.264 153.762,85.101 153.91,84.974L153.926,84.974C154.084,84.848 154.216,84.89 154.322,85.101C161.492,99.182 168.122,113.052 174.546,128.97C179.77,141.947 184.159,152.494 187.712,160.616C199.429,187.441 210.907,213.372 222.148,238.41L227.273,250L223.567,250Z" style="fill:rgb(255,252,252);"/>
        </g>
        <g transform="matrix(0.630435,0,0,0.473684,100,121.579)">
            <path d="M443.932,116.641C443.107,113.728 441.806,110.667 440.283,108.239C436.73,102.554 433.886,95.946 431.75,88.416C431.221,86.543 431.448,86.361 432.432,87.867C435.806,93.003 438.47,98.627 440.426,104.734C441.811,108.999 443.524,113.13 445.566,117.127C447.956,121.799 449.923,127.097 451.466,133.023C451.657,133.726 451.566,133.79 451.197,133.213C448.067,128.273 445.645,122.749 443.932,116.641Z" style="fill:rgb(255,252,252);"/>
        </g>
        <g transform="matrix(0.630435,0,0,0.473684,100,121.579)">
            <path d="M12.777,100.768C13.416,102.362 13.803,103.749 13.641,103.863C13.48,103.979 12.829,102.78 12.19,101.186C11.551,99.592 11.164,98.205 11.326,98.091C11.487,97.975 12.138,99.174 12.777,100.768Z" style="fill:rgb(255,252,252);"/>
        </g>
        <g transform="matrix(0.630435,0,0,0.473684,100,121.579)">
            <path d="M254.808,137.14C250.621,124.6 243.356,115.142 240.088,101.821C239.728,100.358 239.909,100.231 240.628,101.441C244.858,108.619 248.443,116.542 251.382,125.212C252.884,129.688 254.808,134.136 257.156,138.554C259.905,143.733 262.268,149.589 264.246,156.119C264.5,156.963 264.405,157.041 263.961,156.351C260.079,150.187 257.029,143.784 254.808,137.14Z" style="fill:rgb(255,252,252);"/>
        </g>
        <g transform="matrix(0.630435,0,0,0.473684,100,121.579)">
            <path d="M33.659,103.383C39.227,114.91 45.159,125.276 49.648,137.858C52.662,146.33 56.109,154.922 59.99,163.634C60.106,163.903 60.065,164.114 59.863,164.268L59.863,164.289C59.662,164.443 59.503,164.388 59.388,164.12C55.723,155.866 52.234,147.632 47.872,140.053C46.021,136.83 44.393,133.249 42.986,129.308C39.898,120.652 36.668,112.045 33.294,103.489C33.263,103.419 33.274,103.356 33.326,103.299L33.342,103.299C33.469,103.2 33.575,103.229 33.659,103.383Z" style="fill:rgb(255,252,252);"/>
        </g>
        <g transform="matrix(0.630435,0,0,0.473684,100,121.579)">
            <path d="M234.755,109.577L253.742,153.345C253.952,153.83 253.828,154.451 253.463,154.73L253.409,154.772C253.044,155.051 252.578,154.886 252.369,154.4L233.382,110.633C233.172,110.147 233.296,109.527 233.661,109.248L233.715,109.206C234.08,108.927 234.546,109.092 234.755,109.577Z" style="fill:rgb(255,252,252);"/>
        </g>
        <g transform="matrix(0.630435,0,0,0.473684,100,121.579)">
            <path d="M226.304,114.403C231.19,123.08 233.807,132.242 238.518,141.088C241.067,145.859 243.292,151.544 245.196,158.146C245.481,159.159 245.375,159.237 244.879,158.378C241.251,152.087 238.439,146.085 236.44,140.37C233.236,131.271 228.652,123.967 226.019,114.298C226.008,114.241 226.03,114.199 226.082,114.171C226.103,114.156 226.125,114.15 226.146,114.15C226.209,114.108 226.245,114.135 226.257,114.234C226.257,114.262 226.261,114.291 226.272,114.319C226.272,114.346 226.284,114.376 226.304,114.403Z" style="fill:rgb(255,252,252);"/>
        </g>
        <g transform="matrix(0.630435,0,0,0.473684,100,121.579)">
            <path d="M436.048,119.28C438.988,124.953 441.928,130.758 444.868,136.697C447.406,141.827 448.849,147.569 450.61,153.248C451.022,154.571 450.863,154.711 450.134,153.67C447.358,149.764 445.042,145.183 443.377,140.307C440.902,133.101 438.337,126.19 435.683,119.576C434.457,116.521 434.578,116.424 436.048,119.28Z" style="fill:rgb(255,252,252);"/>
        </g>
        <g transform="matrix(0.630435,0,0,0.473684,100,121.579)">
            <path d="M236.361,160.848C233.157,155.739 230.449,150.193 228.239,144.212C225.384,136.464 221.847,129.603 219.039,121.94C218.955,121.687 219.003,121.49 219.182,121.349L219.198,121.349C219.368,121.207 219.51,121.25 219.626,121.476C221.668,125.43 223.533,129.534 225.226,133.783C226.537,137.104 228.387,141.172 230.777,145.986C233.082,150.63 234.944,155.585 236.361,160.848Z" style="fill:rgb(255,252,252);"/>
        </g>
        <g transform="matrix(0.630435,0,0,0.473684,100,121.579)">
            <path d="M211.987,126.044L228.024,163.014C228.181,163.377 228.087,163.841 227.814,164.05L227.76,164.093C227.487,164.304 227.137,164.179 226.98,163.816L210.943,126.846C210.786,126.483 210.88,126.019 211.153,125.81L211.207,125.767C211.479,125.556 211.83,125.681 211.987,126.044Z" style="fill:rgb(255,252,252);"/>
        </g>
        <g transform="matrix(0.630435,0,0,0.473684,100,121.579)">
            <path d="M45.492,150.968C48.443,159.75 52.075,167.983 55.47,176.428C55.533,176.597 55.501,176.73 55.374,176.829L55.374,176.85C55.227,176.949 55.11,176.907 55.026,176.723C51.694,169.265 48.105,161.882 44.255,154.578C39.861,146.239 37.783,138.048 34.643,129.118C34.536,128.78 34.575,128.753 34.754,129.033C39.279,135.831 42.859,143.142 45.492,150.968Z" style="fill:rgb(255,252,252);"/>
        </g>
        <g transform="matrix(0.630435,0,0,0.473684,100,121.579)">
            <path d="M444.281,165.872C440.109,156.056 435.969,145.901 432.479,135.599C431.348,132.263 431.591,132.08 433.209,135.05C439.506,146.64 445.645,158.462 448.944,172.417C449.114,173.149 448.981,173.255 448.548,172.733C446.676,170.481 445.253,168.194 444.281,165.872Z" style="fill:rgb(255,252,252);"/>
        </g>
        <g transform="matrix(0.630435,0,0,0.473684,100,121.579)">
            <path d="M76.217,156.52C72.961,150.51 70.031,144.079 67.43,137.224C66.879,135.774 66.986,135.69 67.747,136.971C71.121,142.671 73.944,149.188 76.217,156.52Z" style="fill:rgb(255,252,252);"/>
        </g>
        <g transform="matrix(0.630435,0,0,0.473684,100,121.579)">
            <path d="M85.592,155.591C83.519,151.453 81.991,148.244 81.008,145.964C78.279,139.646 78.544,139.42 81.801,145.289C82.741,146.978 84.006,150.413 85.592,155.591Z" style="fill:rgb(255,252,252);"/>
        </g>
        <g transform="matrix(0.630435,0,0,0.473684,100,121.579)">
            <path d="M427.308,145.268C427.265,145.183 427.281,145.114 427.356,145.057C427.483,144.957 427.583,144.993 427.657,145.162C431.453,153.438 435.695,162.03 440.379,170.939C442.271,174.543 444.308,180.656 446.486,189.284C446.719,190.213 446.554,190.367 445.994,189.749C443.975,187.484 442.461,185.111 441.457,182.634C436.497,170.333 431.781,157.877 427.308,145.268Z" style="fill:rgb(255,252,252);"/>
        </g>
        <g transform="matrix(0.630435,0,0,0.473684,100,121.579)">
            <path d="M76.007,250C65.168,223.229 53.846,196.991 42.05,171.277C39.354,165.38 37.144,159.68 35.42,154.177C34.659,151.755 34.86,151.607 36.023,153.733C38.318,157.956 40.412,162.431 42.304,167.16C52.508,192.578 63.444,217.841 75.107,242.949L78.273,250L76.007,250Z" style="fill:rgb(255,252,252);"/>
        </g>
        <g transform="matrix(0.630435,0,0,0.473684,100,121.579)">
            <path d="M85.592,155.591C87.855,159.138 89.689,163.113 91.096,167.519C91.286,168.125 91.223,168.173 90.906,167.667C88.685,164.063 86.913,160.039 85.592,155.591Z" style="fill:rgb(255,252,252);"/>
        </g>
        <g transform="matrix(0.630435,0,0,0.473684,100,121.579)">
            <path d="M76.217,156.52C78.205,159.714 79.75,163.1 80.849,166.674C81.219,167.857 81.103,167.947 80.5,166.949C78.723,163.966 77.296,160.489 76.217,156.52Z" style="fill:rgb(255,252,252);"/>
        </g>
        <g transform="matrix(0.630435,0,0,0.473684,100,121.579)">
            <path d="M98.857,162.239C99.584,163.805 100.023,165.201 99.836,165.353C99.65,165.507 98.91,164.359 98.181,162.792C97.455,161.226 97.016,159.83 97.203,159.678C97.388,159.524 98.129,160.673 98.857,162.239Z" style="fill:rgb(255,252,252);"/>
        </g>
        <g transform="matrix(0.630435,0,0,0.473684,100,121.579)">
            <path d="M273.058,250L272.907,249.641C267.91,237.46 262.406,227.369 257.806,213.858C252.651,198.679 245.339,184.429 238.661,170.348C238.079,169.109 237.312,165.942 236.361,160.848C237.994,163.571 239.85,166.484 241.056,169.461C247.739,186.082 253.836,199.825 259.345,210.691C263.544,218.967 267.065,226.63 269.909,233.681C272.287,239.565 274.616,245.011 276.915,250L273.058,250Z" style="fill:rgb(255,252,252);"/>
        </g>
        <g transform="matrix(0.630435,0,0,0.473684,100,121.579)">
            <path d="M282.743,250C279.816,243.027 276.784,235.988 273.668,229.311C269.274,219.874 266.039,210.396 262.565,200.537C261.93,198.736 261.18,197.068 260.312,195.533C258.996,193.19 257.552,191.754 256.981,188.757C256.209,184.661 254.772,180.749 252.667,177.019C252.642,176.972 252.648,176.905 252.683,176.871L253.032,176.597C253.17,176.485 253.274,176.519 253.349,176.702C255.03,180.798 256.97,184.619 259.17,188.166C261.217,191.501 261.454,195.259 263.247,198.594C268.565,208.489 273.224,218.116 277.221,227.474L287.025,250L282.743,250Z" style="fill:rgb(255,252,252);"/>
        </g>
        <g transform="matrix(0.630435,0,0,0.473684,100,121.579)">
            <path d="M292.464,250C288.113,239.548 283.388,228.636 278.3,217.257C275.778,211.641 274.033,205.624 271.955,199.566C269.75,193.169 265.658,185.907 263.421,178.264C263.199,177.504 263.279,177.441 263.659,178.074C267.371,184.281 269.877,191.522 273.081,197.623C277.566,206.167 281.525,214.47 284.962,222.534L297.031,250L292.464,250Z" style="fill:rgb(255,252,252);"/>
        </g>
        <g transform="matrix(0.630435,0,0,0.473684,100,121.579)">
            <path d="M257.489,167.223C256.22,166.816 255.749,165.619 256.077,163.634C256.256,162.467 256.675,162.298 257.33,163.128C258.239,164.295 258.928,165.689 259.392,167.308C259.678,168.336 259.461,168.589 258.742,168.068C258.52,167.899 258.298,167.724 258.076,167.54C257.897,167.399 257.7,167.293 257.489,167.223Z" style="fill:rgb(255,252,252);"/>
        </g>
        <g transform="matrix(0.630435,0,0,0.473684,100,121.579)">
            <path d="M128.372,162.959C129.62,164.352 130.508,166.111 131.037,168.237C131.238,169.024 131.132,169.102 130.719,168.469C129.725,166.907 128.943,165.07 128.372,162.959Z" style="fill:rgb(255,252,252);"/>
        </g>
        <g transform="matrix(0.630435,0,0,0.473684,100,121.579)">
            <path d="M71.487,167.529C72.161,169.003 72.577,170.306 72.412,170.439C72.247,170.574 71.566,169.486 70.891,168.015C70.217,166.541 69.801,165.239 69.966,165.106C70.131,164.971 70.811,166.058 71.487,167.529Z" style="fill:rgb(255,252,252);"/>
        </g>
        <g transform="matrix(0.630435,0,0,0.473684,100,121.579)">
            <path d="M428.45,172.058C427.911,170.453 427.319,168.821 426.674,167.16C425.86,165.021 425.971,164.929 427.007,166.886C430.612,173.698 434.414,181.066 438.412,188.989C440.839,193.823 441.679,198.996 443.154,204.252C443.429,205.251 443.261,205.407 442.647,204.717C440.701,202.563 439.295,200.452 438.428,198.383C435.012,190.334 431.686,181.558 428.45,172.058Z" style="fill:rgb(255,252,252);"/>
        </g>
        <g transform="matrix(0.630435,0,0,0.473684,100,121.579)">
            <path d="M111.333,168.418C111.997,169.871 112.402,171.158 112.237,171.294C112.073,171.427 111.401,170.354 110.736,168.9C110.072,167.447 109.667,166.159 109.832,166.024C109.996,165.891 110.668,166.964 111.333,168.418Z" style="fill:rgb(255,252,252);"/>
        </g>
        <g transform="matrix(0.630435,0,0,0.473684,100,121.579)">
            <path d="M263.047,250L255.363,232.161C253.333,227.629 250.99,221.69 248.337,214.343C246.295,208.686 243.89,202.76 241.119,196.568C241.076,196.483 239.094,192.837 235.171,185.632C231.988,179.791 229.937,173.626 229.017,167.139C228.921,166.463 229.059,166.364 229.429,166.843C233.669,172.305 237.249,179.736 240.168,189.137C242.726,197.427 246.068,205.323 250.192,212.823C254.031,219.805 257.367,226.847 260.201,233.956C262.405,239.505 264.638,244.861 266.933,250L263.047,250Z" style="fill:rgb(255,252,252);"/>
        </g>
        <g transform="matrix(0.630435,0,0,0.473684,100,121.579)">
            <path d="M250.97,170.888C251.702,172.598 252.156,174.095 251.98,174.228C251.806,174.361 251.068,173.08 250.335,171.37C249.602,169.66 249.149,168.163 249.325,168.03C249.499,167.897 250.237,169.178 250.97,170.888Z" style="fill:rgb(255,252,252);"/>
        </g>
        <g transform="matrix(0.630435,0,0,0.473684,100,121.579)">
            <path d="M164.527,250L155.306,228.636C147.279,209.91 139.999,190.403 132.004,171.657C131.941,171.503 131.92,171.346 131.941,171.192C131.952,171.108 131.984,171.051 132.036,171.023C132.088,170.996 132.131,171.017 132.163,171.087C145.307,198.643 156.82,224.428 167.891,250L164.527,250Z" style="fill:rgb(255,252,252);"/>
        </g>
        <g transform="matrix(0.630435,0,0,0.473684,100,121.579)">
            <path d="M253.235,250L247.528,237.017C246.037,233.696 242.547,224.878 237.059,210.564C233.548,201.402 229.504,192.529 224.924,183.943C223.834,181.889 222.477,177.553 220.848,170.939C224.083,175.752 227.034,180.249 229.032,186.223C232.257,195.808 236.016,204.78 240.31,213.14C246.688,225.581 251.857,237.699 257.162,250L253.235,250Z" style="fill:rgb(255,252,252);"/>
        </g>
        <g transform="matrix(0.630435,0,0,0.473684,100,121.579)">
            <path d="M302.416,250C297.745,239.355 293.057,228.168 288.166,217.341C285.712,211.951 282.794,204.394 279.41,194.668C276.83,187.251 273.775,179.749 270.242,172.163C270.115,171.883 270.158,171.65 270.369,171.467C270.58,171.283 270.754,171.334 270.892,171.614C272.807,175.626 274.652,179.685 276.428,183.796C280.251,192.62 285.771,200.642 289.388,209.488C293.639,219.874 298.699,231.859 304.568,245.44L306.533,250L302.416,250Z" style="fill:rgb(255,252,252);"/>
        </g>
        <g transform="matrix(0.630435,0,0,0.473684,100,121.579)">
            <path d="M420.25,174.19C424.68,182.789 429.264,191.811 434.002,201.254C436.339,205.926 437.941,211.219 438.808,217.13C438.915,217.917 438.729,218.074 438.253,217.594C435.853,215.245 434.208,212.851 433.32,210.417C429.185,199.101 424.675,187.146 419.79,174.549C418.468,171.156 418.621,171.038 420.25,174.19Z" style="fill:rgb(255,252,252);"/>
        </g>
        <g transform="matrix(0.630435,0,0,0.473684,100,121.579)">
            <path d="M115.388,250C112.14,242.8 107.757,232.052 102.152,217.827C97.393,205.73 91.302,193.929 85.877,182.592C85.052,180.861 84.486,178.524 84.18,175.583C84.096,174.739 84.264,174.64 84.688,175.288C89.43,182.55 91.54,191.121 95.157,199.249C102.735,216.27 110.61,232.66 117.947,250L115.388,250Z" style="fill:rgb(255,252,252);"/>
        </g>
        <g transform="matrix(0.630435,0,0,0.473684,100,121.579)">
            <path d="M64.808,250L60.101,238.959C53.999,224.365 47.867,209.557 41.701,194.541C39.449,189.052 37.926,182.36 35.372,176.766C35.309,176.597 35.336,176.464 35.452,176.364L35.452,176.343C35.568,176.244 35.669,176.265 35.753,176.407C37.614,179.658 39.175,182.691 40.432,185.506C49.95,206.656 59.63,228.213 69.204,250L64.808,250Z" style="fill:rgb(255,252,252);"/>
        </g>
        <g transform="matrix(0.630435,0,0,0.473684,100,121.579)">
            <path d="M312.489,250L305.614,234.272C301.014,223.829 296.489,213.611 292.037,203.619C288.69,196.103 286.39,188.334 284.01,180.418C283.577,178.967 283.736,178.849 284.486,180.059C288.055,185.801 291.577,191.543 294.416,198.236L316.604,250L312.489,250Z" style="fill:rgb(255,252,252);"/>
        </g>
        <g transform="matrix(0.630435,0,0,0.473684,100,121.579)">
            <path d="M90.461,212C85.861,204.484 81.859,196.414 78.454,187.786C77.629,185.674 77.015,183.443 76.614,181.093C76.466,180.192 76.657,180.044 77.185,180.65C78.624,182.297 79.786,184.055 80.674,185.928C84.629,194.189 87.892,202.88 90.461,212Z" style="fill:rgb(255,252,252);"/>
        </g>
        <g transform="matrix(0.630435,0,0,0.473684,100,121.579)">
            <path d="M421.947,204.02C419.726,197.264 416.601,191.206 414.46,184.176C414.259,183.5 414.333,183.443 414.682,184.007C418.537,190.213 420.757,197.243 424.279,203.492C428.625,211.219 432.765,219.389 434.256,228.931C434.394,229.833 434.172,230.035 433.59,229.543C431.824,228.038 430.528,226.334 429.703,224.434C426.891,217.974 424.306,211.17 421.947,204.02Z" style="fill:rgb(255,252,252);"/>
        </g>
        <g transform="matrix(0.630435,0,0,0.473684,100,121.579)">
            <path d="M95.809,250L84.148,221.394C79.707,210.248 74.076,200.178 70.253,188.736C70.21,188.594 70.237,188.482 70.332,188.398L70.348,188.398C70.496,188.286 70.618,188.32 70.713,188.503C77.454,201.508 82.102,216.286 88.732,229.607C92.053,236.281 95.227,243.097 98.299,250L95.809,250Z" style="fill:rgb(255,252,252);"/>
        </g>
        <g transform="matrix(0.630435,0,0,0.473684,100,121.579)">
            <path d="M135.678,250C132.589,242.605 129.394,235.29 126.04,228.066C120.785,216.723 115.893,204.822 111.368,192.367C111.336,192.267 111.356,192.191 111.431,192.134C111.569,192.023 111.68,192.05 111.764,192.219C120.98,210.744 129.46,232.567 137.384,250L135.678,250Z" style="fill:rgb(255,252,252);"/>
        </g>
        <g transform="matrix(0.630435,0,0,0.473684,100,121.579)">
            <path d="M145.257,250L141.743,241.344C135.652,225.722 128.562,211.662 122.661,196.146C122.609,196.034 122.625,195.941 122.709,195.871L122.725,195.85C122.841,195.751 122.947,195.787 123.042,195.956C129.244,207.461 133.955,220.466 139.602,232.499L147.69,250L145.257,250Z" style="fill:rgb(255,252,252);"/>
        </g>
        <g transform="matrix(0.630435,0,0,0.473684,100,121.579)">
            <path d="M125.722,250L122.344,242.484C115.861,228.566 109.634,213.535 103.659,197.391C103.606,197.222 103.638,197.096 103.754,197.011L103.77,196.99C103.865,196.92 103.944,196.948 104.008,197.074C111.664,212.809 118.517,228.114 124.565,242.991L127.524,250L125.722,250Z" style="fill:rgb(255,252,252);"/>
        </g>
        <g transform="matrix(0.630435,0,0,0.473684,100,121.579)">
            <path d="M154.777,250L152.149,243.857C145.661,228.467 139.824,212.739 133.21,197.602C133.114,197.391 133.146,197.222 133.305,197.096L133.321,197.096C133.479,196.969 133.606,197.011 133.701,197.222C140.49,212.127 148.009,227.306 154.211,241.429L157.92,250L154.777,250Z" style="fill:rgb(255,252,252);"/>
        </g>
        <g transform="matrix(0.630435,0,0,0.473684,100,121.579)">
            <path d="M54.264,250C46.881,233.081 40.527,215.938 35.15,198.616C34.928,197.925 35.019,197.849 35.42,198.383C37.43,201.1 39.148,203.971 40.575,206.997C47.286,221.233 54.016,235.428 60.348,250L54.264,250Z" style="fill:rgb(255,252,252);"/>
        </g>
        <g transform="matrix(0.630435,0,0,0.473684,100,121.579)">
            <path d="M69.571,210.163C68.445,208.432 67.763,205.667 66.621,203.788C66.483,203.549 66.51,203.351 66.7,203.197L66.716,203.176C66.886,203.034 67.022,203.076 67.128,203.302C68.069,205.244 69,207.425 69.92,209.847C70.428,211.17 70.312,211.276 69.571,210.163Z" style="fill:rgb(255,252,252);"/>
        </g>
        <g transform="matrix(0.630435,0,0,0.473684,100,121.579)">
            <path d="M415.999,211.071C415.892,210.833 415.93,210.643 416.11,210.501L416.126,210.48C416.305,210.339 416.454,210.381 416.57,210.607C419.975,217.067 423.37,223.491 426.753,229.881C427.641,231.543 428.466,235.102 429.228,240.563C429.354,241.492 429.153,241.646 428.625,241.028C425.897,237.834 424.088,234.773 423.2,231.844C420.895,224.244 418.494,217.32 415.999,211.071Z" style="fill:rgb(255,252,252);"/>
        </g>
        <g transform="matrix(0.630435,0,0,0.473684,100,121.579)">
            <path d="M105.533,250C100.99,239.284 96.165,227.378 91.032,214.301C90.726,213.556 90.536,212.787 90.461,212C96.739,224.535 102.68,237.202 108.281,250L105.533,250Z" style="fill:rgb(255,252,252);"/>
        </g>
        <g transform="matrix(0.630435,0,0,0.473684,100,121.579)">
            <path d="M85.973,250C81.461,239.183 77.129,228.437 72.95,217.784C72.866,217.559 72.913,217.432 73.092,217.404C73.156,217.404 73.203,217.432 73.235,217.489L88.108,250L85.973,250Z" style="fill:rgb(255,252,252);"/>
        </g>
        <g transform="matrix(0.630435,0,0,0.473684,100,121.579)">
            <path d="M423.261,250L422.708,249.451C419.25,244.258 417.728,238.579 415.348,232.203C414.82,230.81 414.947,230.69 415.729,231.844C419.484,237.361 422.01,243.082 423.311,249.008L423.375,250L423.261,250Z" style="fill:rgb(255,252,252);"/>
        </g>
        <g transform="matrix(0.630435,0,0,0.473684,100,121.579)">
            <path d="M413.124,250C412.598,248.56 412.349,247.528 412.499,247.42C412.668,247.299 413.283,248.353 413.995,250L413.124,250Z" style="fill:rgb(255,252,252);"/>
        </g>
        <g transform="matrix(0.630435,0,0,0.473684,100,121.579)">
            <path d="M452.621,250L452.117,248.691C452.032,248.48 452.069,248.317 452.228,248.206L452.228,248.184C452.375,248.073 452.497,248.115 452.592,248.311L453.407,250L452.621,250Z" style="fill:rgb(255,252,252);"/>
        </g>
    </g>
</svg>
