<?xml version="1.0" encoding="UTF-8" standalone="no"?>
<!DOCTYPE svg PUBLIC "-//W3C//DTD SVG 1.1//EN" "http://www.w3.org/Graphics/SVG/1.1/DTD/svg11.dtd">
<svg width="100%" height="100%" viewBox="0 0 513 489" version="1.1" xmlns="http://www.w3.org/2000/svg" xmlns:xlink="http://www.w3.org/1999/xlink" xml:space="preserve" xmlns:serif="http://www.serif.com/" style="fill-rule:evenodd;clip-rule:evenodd;stroke-linejoin:round;stroke-miterlimit:2;">
    <rect id="Artboard1" x="0" y="0" width="512.927" height="488.818" style="fill:none;"/>
    <g id="Untitled">
        <g id="Edge.Cuts">
            <path d="M476.356,156.504L488.49,156.583L488.32,315.86L479.08,316.006L477.91,319.517C477.91,319.517 426.699,462.623 256.955,463.995C80.757,465.419 34.13,316.299 33.718,316.283C33.339,316.269 29.326,316.211 24.168,316.213L24.301,157.104C24.301,157.104 33.472,157.186 34.094,157.13C34.12,156.864 34.116,157.111 34.183,156.761C37.64,138.631 97.085,8.628 258.386,9.574C415.926,10.498 471.031,134.996 476.356,156.504Z" style="fill:none;fill-rule:nonzero;stroke:black;stroke-width:1px;"/>
        </g>
    </g>
</svg>
