<?xml version="1.0" encoding="UTF-8" standalone="no"?>
<!DOCTYPE svg PUBLIC "-//W3C//DTD SVG 1.1//EN" "http://www.w3.org/Graphics/SVG/1.1/DTD/svg11.dtd">
<svg width="100%" height="100%" viewBox="0 0 513 489" version="1.1" xmlns="http://www.w3.org/2000/svg" xmlns:xlink="http://www.w3.org/1999/xlink" xml:space="preserve" xmlns:serif="http://www.serif.com/" style="fill-rule:evenodd;clip-rule:evenodd;stroke-linejoin:round;stroke-miterlimit:2;">
    <rect id="Artboard1" x="0" y="0" width="512.927" height="488.818" style="fill:none;"/>
    <g id="Untitled">
        <g id="Edge.Cuts">
            <path d="M476.356,156.504L488.49,156.583L488.32,315.86L479.08,316.006L477.91,319.517C477.91,319.517 426.699,462.623 256.955,463.995C80.757,465.419 34.13,316.299 33.718,316.283C33.339,316.269 29.326,316.211 24.168,316.213L24.301,157.104C24.301,157.104 33.472,157.186 34.094,157.13C34.12,156.864 34.116,157.111 34.183,156.761C37.64,138.631 97.085,8.628 258.386,9.574C415.926,10.498 471.031,134.996 476.356,156.504Z" style="fill:none;fill-rule:nonzero;stroke:black;stroke-width:1px;"/>
        </g>
        <path id="F.MaskS-solid" d="M476.356,156.504L488.49,156.583L488.32,315.86L479.08,316.006L477.91,319.517C477.91,319.517 426.699,462.623 256.955,463.995C80.757,465.419 34.13,316.299 33.718,316.283C33.339,316.269 29.326,316.211 24.168,316.213L24.301,157.104C24.301,157.104 33.472,157.186 34.094,157.13C34.12,156.864 34.116,157.111 34.183,156.761C37.64,138.631 97.085,8.628 258.386,9.574C415.926,10.498 471.031,134.996 476.356,156.504ZM260.632,454.611C410.83,453.679 468.34,320.918 469.33,315.845L465.48,315.845L44.222,316.395C44.222,316.395 86.19,455.694 260.632,454.611ZM242.353,366.984L190.698,366.655C190.698,366.655 186.634,360.401 183.055,352.792C179.476,345.183 176.381,336.219 176.381,336.219L241.91,336.219L242.353,366.984ZM377.237,388.266C377.073,388.273 376.903,388.296 376.83,388.356C369.93,394.086 354.72,404.574 340.09,411.222C320.306,420.215 301.16,424.721 301.16,424.721C301.16,424.721 310.961,415.863 318.931,406.819C326.902,397.775 332.04,389.018 333.04,388.544C338.745,387.765 373.216,388.211 377.237,388.266ZM303.523,388.444C303.523,388.444 295.78,399.204 286.168,409.675C276.556,420.145 265.076,430.328 265.076,430.328L265.142,388.285L303.523,388.444ZM401.17,366.382C398.64,367.923 347.06,367.081 347.06,367.081C347.06,367.081 352.99,359.189 356.4,351.597C359.82,344.005 362.17,336.284 362.17,336.284L424.18,335.668C422.48,340.175 404.54,364.698 401.17,366.382ZM241.959,388.209L242.129,430.551C240.816,429.468 228.01,418.381 218.598,407.766C209.185,397.151 204.479,388.092 204.479,388.092L241.959,388.209ZM172.206,388.211C174.264,388.211 178.315,395.336 187.305,404.717C196.294,414.099 205.484,422.56 208.163,425.737C208.163,425.737 208.11,425.877 207.747,425.8C173.712,418.653 145.457,401.983 128.232,388C141.783,388.207 141.392,387.688 172.206,388.211ZM160.165,366.455L104.214,366.958C104.214,366.958 99.801,362.331 90.833,350.389C82.624,339.458 80.704,335.828 80.704,335.828L145.874,336.164C145.874,336.164 147.936,343.573 151.294,351.253C154.653,358.933 160.165,366.455 160.165,366.455ZM317.912,366.709L265.5,366.419L265.588,336.219C265.588,336.219 313.444,336.228 331.12,336.219C328.96,341.862 328.55,344.039 325.249,351.662C321.948,359.284 317.912,366.709 317.912,366.709ZM249.858,17.924C99.658,18.856 42.15,151.617 41.157,156.69L45.012,156.69L466.27,156.139C466.27,156.139 424.3,16.841 249.858,17.924ZM350.32,106.079L406.28,105.577C406.28,105.577 410.69,110.204 419.66,122.145C427.87,133.077 429.79,136.707 429.79,136.707L364.62,136.371C364.62,136.371 362.55,128.962 359.2,121.282C355.84,113.602 350.32,106.079 350.32,106.079ZM268.531,84.326L268.361,41.984C269.674,43.067 282.48,54.154 291.892,64.769C301.305,75.384 306.011,84.443 306.011,84.443L268.531,84.326ZM338.28,84.324C336.23,84.324 332.17,77.199 323.185,67.818C314.196,58.436 305.005,49.975 302.327,46.798C302.327,46.798 302.379,46.658 302.743,46.735C336.78,53.882 365.03,70.552 382.26,84.535C368.71,84.328 369.1,84.847 338.28,84.324ZM109.316,106.153C111.847,104.612 163.434,105.454 163.434,105.454C163.434,105.454 157.504,113.346 154.085,120.938C150.665,128.53 148.324,136.251 148.324,136.251L86.311,136.866C88.014,132.359 105.948,107.837 109.316,106.153ZM133.255,84.269C133.419,84.262 133.589,84.239 133.662,84.179C140.564,78.449 155.769,67.961 170.397,61.313C190.184,52.32 209.33,47.814 209.33,47.814C209.33,47.814 199.529,56.672 191.558,65.716C183.588,74.76 178.447,83.517 177.447,83.991C171.741,84.769 137.271,84.324 133.255,84.269ZM268.137,105.551L319.792,105.88C319.792,105.88 323.856,112.134 327.435,119.743C331.01,127.352 334.11,136.316 334.11,136.316L268.58,136.316L268.137,105.551ZM192.578,105.826L244.99,106.116L244.902,136.316C244.902,136.316 197.046,136.307 179.373,136.316C181.529,130.672 181.939,128.496 185.241,120.873C188.542,113.251 192.578,105.826 192.578,105.826ZM206.966,84.091C206.966,84.091 214.71,73.331 224.322,62.86C233.934,52.389 245.414,42.207 245.414,42.207L245.348,84.25L206.966,84.091ZM32.716,308.46L60.289,308.46L60.289,236.573L101.63,236.573L101.63,308.46L129.165,308.46L129.165,164.686L101.63,164.686L101.63,218.613L60.289,218.613L60.289,164.686L32.716,164.686L32.716,308.46ZM149.854,308.46L177.427,308.46L177.427,254.532L218.768,254.532L218.768,308.46L246.303,308.46L246.303,200.605L232.535,200.605L232.535,182.645L218.768,182.645L218.768,164.686L177.427,164.686L177.427,182.645L163.622,182.645L163.622,200.605L149.854,200.605L149.854,308.46ZM218.768,236.573L177.427,236.573L177.427,200.605L191.195,200.605L191.195,182.645L204.963,182.645L204.963,200.605L218.768,200.605L218.768,236.573ZM294.565,308.46L349.673,308.46L349.673,290.5L363.441,290.5L363.441,272.54L335.906,272.54L335.906,290.5L308.333,290.5L308.333,272.54L294.565,272.54L294.565,200.605L308.333,200.605L308.333,182.645L335.906,182.645L335.906,200.605L363.441,200.605L363.441,182.645L349.673,182.645L349.673,164.686L294.565,164.686L294.565,182.645L280.76,182.645L280.76,200.605L266.992,200.605L266.992,272.54L280.76,272.54L280.76,290.5L294.565,290.5L294.565,308.46ZM384.13,308.46L411.703,308.46L411.703,236.573L425.471,236.573L425.471,254.532L439.239,254.532L439.239,272.54L453.044,272.54L453.044,289.351L464.507,289.45L464.399,308.515L480.579,308.46L480.579,272.54L466.812,272.54L466.812,254.532L453.044,254.532L453.044,236.573L439.239,236.573L439.239,218.613L453.044,218.613L453.044,200.605L466.812,200.605L466.812,182.645L480.579,182.645L480.579,164.686L453.044,164.686L453.044,182.645L439.239,182.645L439.239,200.605L425.471,200.605L425.471,218.613L411.703,218.613L411.703,164.686L384.13,164.686L384.13,308.46Z" style="fill:rgb(255,0,0);stroke:black;stroke-width:1px;"/>
    </g>
</svg>
